999
DXF created by UltiBoard 14.3.0.0
0
SECTION
2
HEADER
9
$ACADVER
1
AC1014
9
$EXTMIN
10
-6.759200
20
-4.755200
30
0.0
9
$EXTMAX
10
30.155200
20
32.159200
30
0.0
9
$LUNITS
70
2
9
$HANDSEED
5
BA
0
ENDSEC
0
SECTION
2
TABLES
0
TABLE
2
VPORT
5
1
100
AcDbSymbolTable
70
1
0
VPORT
5
2
100
AcDbSymbolTableRecord
100
AcDbViewportTableRecord
2
*ACTIVE
70
0
0
ENDTAB
0
TABLE
2
LTYPE
5
3
100
AcDbSymbolTable
70
1
0
LTYPE
5
4
100
AcDbSymbolTableRecord
100
AcDbLinetypeTableRecord
2
BYBLOCK
70
0
3

72
65
73
0
40
0.0
0
LTYPE
5
5
100
AcDbSymbolTableRecord
100
AcDbLinetypeTableRecord
2
BYLAYER
70
0
3

72
65
73
0
40
0.0
0
LTYPE
5
6
100
AcDbSymbolTableRecord
100
AcDbLinetypeTableRecord
2
CONTINUOUS
70
0
3
Solid line
72
65
73
0
40
0.0
0
ENDTAB
0
TABLE
2
LAYER
5
7
100
AcDbSymbolTable
70
4
0
LAYER
5
8
100
AcDbSymbolTableRecord
100
AcDbLayerTableRecord
2
0
70
0
62
7
6
CONTINUOUS
0
LAYER
5
9
100
AcDbSymbolTableRecord
100
AcDbLayerTableRecord
2
BOARD_OUTLINE
70
0
62
2
6
CONTINUOUS
0
LAYER
5
A
100
AcDbSymbolTableRecord
100
AcDbLayerTableRecord
2
COPPER_TOP
70
0
62
3
6
CONTINUOUS
0
LAYER
5
B
100
AcDbSymbolTableRecord
100
AcDbLayerTableRecord
2
DRILL
70
0
62
255
6
CONTINUOUS
0
ENDTAB
0
TABLE
2
STYLE
5
C
100
AcDbSymbolTable
70
2
0
STYLE
5
D
100
AcDbSymbolTableRecord
100
AcDbTextStyleTableRecord
2
MONOTxtStyle
70
0
40
0.0
41
1.0
50
0.0
71
0
42
0.2
3
monotxt
4

0
ENDTAB
0
TABLE
2
VIEW
5
E
100
AcDbSymbolTable
70
0
0
ENDTAB
0
TABLE
2
UCS
5
F
100
AcDbSymbolTable
70
0
0
ENDTAB
0
TABLE
2
APPID
5
10
100
AcDbSymbolTable
70
1
0
APPID
5
11
100
AcDbSymbolTableRecord
100
AcDbRegAppTableRecord
2
ACAD
70
0
0
ENDTAB
0
TABLE
2
DIMSTYLE
5
12
100
AcDbSymbolTable
70
1
0
DIMSTYLE
105
13
100
AcDbSymbolTableRecord
100
AcDbDimStyleTableRecord
2
STANDARD
70
0
0
ENDTAB
0
TABLE
2
BLOCK_RECORD
5
14
100
AcDbSymbolTable
70
0
0
BLOCK_RECORD
5
15
100
AcDbSymbolTableRecord
100
AcDbBlockTableRecord
2
*MODEL_SPACE
0
BLOCK_RECORD
5
16
100
AcDbSymbolTableRecord
100
AcDbBlockTableRecord
2
*PAPER_SPACE
0
ENDTAB
0
ENDSEC
0
SECTION
2
BLOCKS
0
BLOCK
5
17
100
AcDbEntity
8
0
100
AcDbBlockBegin
2
*MODEL_SPACE
70
0
0
ENDBLK
5
18
100
AcDbEntity
8
0
100
AcDbBlockEnd
0
BLOCK
5
19
100
AcDbEntity
8
0
100
AcDbBlockBegin
2
*PAPER_SPACE
70
0
0
ENDBLK
5
1A
100
AcDbEntity
8
0
100
AcDbBlockEnd
0
ENDSEC
0
SECTION
2
ENTITIES
0
LWPOLYLINE
5
1B
100
AcDbEntity
8
BOARD_OUTLINE
62
2
100
AcDbPolyline
90
2
70
0
43
0.000001
39
0.000001
10
-3.302000
20
-1.298000
10
26.698000
20
-1.298000
0
LWPOLYLINE
5
1C
100
AcDbEntity
8
BOARD_OUTLINE
62
2
100
AcDbPolyline
90
2
70
0
43
0.000001
39
0.000001
10
26.698000
20
-1.298000
10
26.698000
20
28.702000
0
LWPOLYLINE
5
1D
100
AcDbEntity
8
BOARD_OUTLINE
62
2
100
AcDbPolyline
90
2
70
0
43
0.000001
39
0.000001
10
26.698000
20
28.702000
10
-3.302000
20
28.702000
0
LWPOLYLINE
5
1E
100
AcDbEntity
8
BOARD_OUTLINE
62
2
100
AcDbPolyline
90
2
70
0
43
0.000001
39
0.000001
10
-3.302000
20
28.702000
10
-3.302000
20
-1.298000
0
LWPOLYLINE
5
1F
100
AcDbEntity
8
COPPER_TOP
62
3
100
AcDbPolyline
90
2
70
0
43
0.254000
39
0.254000
10
19.913600
20
4.165600
10
19.913600
20
1.625600
0
LWPOLYLINE
5
20
100
AcDbEntity
8
COPPER_TOP
62
3
100
AcDbPolyline
90
2
70
0
43
0.254000
39
0.254000
10
22.199600
20
6.451600
10
19.913600
20
4.165600
0
LWPOLYLINE
5
21
100
AcDbEntity
8
COPPER_TOP
62
3
100
AcDbPolyline
90
2
70
0
43
0.254000
39
0.254000
10
22.199600
20
20.929600
10
22.199600
20
6.451600
0
LWPOLYLINE
5
22
100
AcDbEntity
8
COPPER_TOP
62
3
100
AcDbPolyline
90
2
70
0
43
0.254000
39
0.254000
10
2.641600
20
19.151600
10
2.641600
20
12.801600
0
LWPOLYLINE
5
23
100
AcDbEntity
8
COPPER_TOP
62
3
100
AcDbPolyline
90
2
70
0
43
0.254000
39
0.254000
10
16.865600
20
15.341600
10
14.325600
20
15.341600
0
LWPOLYLINE
5
24
100
AcDbEntity
8
COPPER_TOP
62
3
100
AcDbPolyline
90
2
70
0
43
0.254000
39
0.254000
10
17.165600
20
15.641600
10
16.865600
20
15.341600
0
LWPOLYLINE
5
25
100
AcDbEntity
8
COPPER_TOP
62
3
100
AcDbPolyline
90
2
70
0
43
0.254000
39
0.254000
10
19.913600
20
15.641600
10
17.165600
20
15.641600
0
LWPOLYLINE
5
26
100
AcDbEntity
8
COPPER_TOP
62
3
100
AcDbPolyline
90
2
70
0
43
0.254000
39
0.254000
10
3.657600
20
20.167600
10
2.641600
20
19.151600
0
LWPOLYLINE
5
27
100
AcDbEntity
8
COPPER_TOP
62
3
100
AcDbPolyline
90
2
70
0
43
0.254000
39
0.254000
10
3.657600
20
25.501600
10
3.657600
20
20.167600
0
LWPOLYLINE
5
28
100
AcDbEntity
8
COPPER_TOP
62
3
100
AcDbPolyline
90
2
70
0
43
0.254000
39
0.254000
10
20.675600
20
22.453600
10
22.199600
20
20.929600
0
LWPOLYLINE
5
29
100
AcDbEntity
8
COPPER_TOP
62
3
100
AcDbPolyline
90
2
70
0
43
0.254000
39
0.254000
10
18.897600
20
22.453600
10
20.675600
20
22.453600
0
LWPOLYLINE
5
2A
100
AcDbEntity
8
COPPER_TOP
62
3
100
AcDbPolyline
90
2
70
0
43
0.254000
39
0.254000
10
9.245600
20
2.641600
10
8.229600
20
3.657600
0
LWPOLYLINE
5
2B
100
AcDbEntity
8
COPPER_TOP
62
3
100
AcDbPolyline
90
2
70
0
43
0.254000
39
0.254000
10
14.325600
20
2.641600
10
9.245600
20
2.641600
0
LWPOLYLINE
5
2C
100
AcDbEntity
8
COPPER_TOP
62
3
100
AcDbPolyline
90
2
70
0
43
0.254000
39
0.254000
10
8.229600
20
3.657600
10
8.229600
20
5.181600
0
HATCH
5
2D
100
AcDbEntity
8
COPPER_TOP
62
3
100
AcDbHatch
10
0.0
20
0.0
30
0.0
210
0.0
220
0.0
230
1.0
2
SOLID
70
1
71
0
91
15
92
1
93
4
72
1
10
26.315157
20
28.319157
11
-2.919157
21
28.319157
72
1
10
-2.919157
20
28.319157
11
-2.919157
21
-0.915157
72
1
10
-2.919157
20
-0.915157
11
26.315157
21
-0.915157
72
1
10
26.315157
20
-0.915157
11
26.315157
21
28.319157
97
0
92
1
93
3
72
2
10
2.641600
20
12.801600
40
1.185418
50
200.769488
51
249.230512
73
0
72
1
10
2.221240
20
13.909983
11
2.221240
21
13.221960
72
1
10
2.221240
20
13.221960
11
1.533217
21
13.221960
97
0
92
1
93
3
72
2
10
2.641600
20
12.801600
40
1.185418
50
290.769488
51
339.230512
73
0
72
1
10
3.749983
20
13.221960
11
3.061960
21
13.221960
72
1
10
3.061960
20
13.221960
11
3.061960
21
13.909983
97
0
92
1
93
3
72
2
10
2.641600
20
12.801600
40
1.185418
50
20.769488
51
69.230512
73
0
72
1
10
3.061960
20
11.693217
11
3.061960
21
12.381240
72
1
10
3.061960
20
12.381240
11
3.749983
21
12.381240
97
0
92
1
93
3
72
2
10
2.641600
20
12.801600
40
1.185418
50
110.769488
51
159.230512
73
0
72
1
10
1.533217
20
12.381240
11
2.221240
21
12.381240
72
1
10
2.221240
20
12.381240
11
2.221240
21
11.693217
97
0
92
1
93
1
72
2
10
2.641600
20
12.801600
40
0.444500
50
0.000000
51
360.000000
73
1
97
0
92
1
93
17
72
1
10
12.979733
20
2.131143
11
9.245600
21
2.131143
72
2
10
9.245600
20
2.641600
40
0.510457
50
90.000000
51
104.423998
73
0
72
2
10
9.245599
20
2.641600
40
0.510457
50
104.423842
51
135.000000
73
0
72
1
10
8.884651
20
2.280653
11
7.868651
21
3.296653
72
2
10
8.229599
20
3.657600
40
0.510457
50
135.000000
51
180.132301
73
0
72
1
10
7.719143
20
3.658779
11
7.719143
21
4.053169
72
2
10
7.890891
20
4.842891
40
0.808182
50
102.269576
51
180.000000
73
0
72
1
10
7.082709
20
4.842891
11
7.082709
21
5.520309
72
2
10
7.890891
20
5.520309
40
0.808182
50
180.000000
51
270.000000
73
0
72
1
10
7.890891
20
6.328491
11
8.568309
21
6.328491
72
2
10
8.568309
20
5.520309
40
0.808182
50
270.000000
51
360.000000
73
0
72
1
10
9.376491
20
5.520309
11
9.376491
21
4.842891
72
2
10
8.568309
20
4.842891
40
0.808182
50
360.000000
51
77.730424
73
0
72
1
10
8.740057
20
4.053169
11
8.740057
21
3.869037
72
1
10
8.740057
20
3.869037
11
9.457037
21
3.152057
72
1
10
9.457037
20
3.152057
11
12.979733
21
3.152057
72
2
10
14.325600
20
2.641600
40
1.439418
50
200.770608
51
159.229392
73
0
97
0
92
1
93
12
72
1
10
18.904345
20
15.131143
11
17.377037
21
15.131143
72
1
10
17.377037
20
15.131143
11
17.227148
21
14.981254
72
2
10
16.865600
20
15.341600
40
0.510457
50
44.904632
51
67.914900
73
0
72
2
10
16.865598
20
15.341599
40
0.510457
50
67.914696
51
90.093715
73
0
72
1
10
16.864763
20
14.831143
11
15.671467
21
14.831143
72
2
10
14.325600
20
15.341600
40
1.439418
50
20.770608
51
339.229392
73
0
72
1
10
15.671467
20
15.852057
11
16.654161
21
15.852057
72
1
10
16.654161
20
15.852057
11
16.804651
21
16.002548
72
2
10
17.165599
20
15.641600
40
0.510457
50
225.000000
51
268.641419
73
0
72
2
10
17.165600
20
15.641600
40
0.510457
50
268.641304
51
270.000000
73
0
72
1
10
17.165600
20
16.152057
11
18.904345
21
16.152057
72
2
10
19.913600
20
15.641600
40
1.131000
50
206.829205
51
153.170795
73
0
97
0
92
1
93
3
72
1
10
2.521893
20
25.094774
11
3.250774
21
25.094774
72
1
10
3.250774
20
25.094774
11
3.250774
21
24.365893
72
2
10
3.393059
20
25.237059
40
0.882709
50
99.276050
51
170.723950
73
0
97
0
92
1
93
3
72
1
10
4.064426
20
24.365893
11
4.064426
21
25.094774
72
1
10
4.064426
20
25.094774
11
4.793307
21
25.094774
72
2
10
3.922141
20
25.237059
40
0.882709
50
9.276050
51
80.723950
73
0
97
0
92
1
93
3
72
1
10
4.793307
20
25.908426
11
4.064426
21
25.908426
72
1
10
4.064426
20
25.908426
11
4.064426
21
26.637307
72
2
10
3.922141
20
25.766141
40
0.882709
50
279.276050
51
350.723950
73
0
97
0
92
1
93
3
72
1
10
3.250774
20
26.637307
11
3.250774
21
25.908426
72
1
10
3.250774
20
25.908426
11
2.521893
21
25.908426
72
2
10
3.393059
20
25.766141
40
0.882709
50
189.276050
51
260.723950
73
0
97
0
92
1
93
1
72
2
10
3.657600
20
25.501600
40
0.497459
50
0.000000
51
360.000000
73
1
97
0
92
1
93
15
72
1
10
12.939141
20
21.943143
11
8.740057
21
21.943143
72
1
10
8.740057
20
21.943143
11
8.740057
21
13.871483
72
2
10
8.229600
20
12.801600
40
1.185418
50
295.506501
51
244.493499
73
0
72
1
10
7.719143
20
13.871483
11
7.719143
21
21.943143
72
1
10
7.719143
20
21.943143
11
7.467600
21
21.943143
72
2
10
7.467600
20
22.453600
40
0.510457
50
90.000000
51
106.808498
73
0
72
2
10
7.467599
20
22.453600
40
0.510457
50
106.808330
51
135.000000
73
0
72
1
10
7.106651
20
22.092653
11
5.836651
21
23.362653
72
2
10
6.197599
20
23.723600
40
0.510457
50
135.000000
51
180.128024
73
0
72
1
10
5.687143
20
23.724741
11
5.687143
21
24.431717
72
2
10
6.197600
20
25.501600
40
1.185418
50
115.506501
51
64.493499
73
0
72
1
10
6.708057
20
24.431717
11
6.708057
21
23.935037
72
1
10
6.708057
20
23.935037
11
7.679037
21
22.964057
72
1
10
7.679037
20
22.964057
11
12.939141
21
22.964057
72
2
10
13.817600
20
22.453600
40
1.016000
50
210.160123
51
149.839877
73
0
97
0
92
1
93
45
72
1
10
21.037148
20
22.813946
11
22.559946
21
21.291148
72
2
10
22.199600
20
20.929600
40
0.510457
50
314.904632
51
360.000000
73
0
72
1
10
22.710057
20
20.929600
11
22.710057
21
6.451600
72
2
10
22.199600
20
6.451600
40
0.510457
50
360.000000
51
45.095368
73
0
72
1
10
22.559946
20
6.090052
11
20.424057
21
3.954163
72
1
10
20.424057
20
3.954163
11
20.424057
21
3.774443
72
1
10
20.424057
20
3.774443
11
20.663600
21
3.774443
72
2
10
20.663600
20
3.391600
40
0.382843
50
270.000000
51
360.000000
73
0
72
1
10
21.046443
20
3.391600
11
21.046443
21
1.891600
72
2
10
20.663600
20
1.891600
40
0.382843
50
360.000000
51
90.000000
73
0
72
1
10
20.663600
20
1.508757
11
20.410504
21
1.508757
72
2
10
19.913600
20
1.625600
40
0.510457
50
13.232249
51
45.095368
73
0
72
1
10
20.273946
20
1.264052
11
19.005148
21
-0.004746
72
2
10
18.643600
20
0.355600
40
0.510457
50
44.904632
51
77.852818
73
0
72
2
10
18.643599
20
0.355600
40
0.510457
50
77.852671
51
90.059396
73
0
72
1
10
18.643070
20
-0.154857
11
4.419600
21
-0.154857
72
2
10
4.419600
20
0.355600
40
0.510457
50
90.000000
51
110.672466
73
0
72
2
10
4.419598
20
0.355601
40
0.510457
50
110.672274
51
135.000000
73
0
72
1
10
4.058651
20
-0.005347
11
2.280651
21
1.772652
72
2
10
2.641599
20
2.133600
40
0.510457
50
135.000000
51
180.119010
73
0
72
1
10
2.131143
20
2.134660
11
2.131143
21
4.053169
72
2
10
2.302891
20
4.842891
40
0.808182
50
102.269576
51
180.000000
73
0
72
1
10
1.494709
20
4.842891
11
1.494709
21
5.520309
72
2
10
2.302891
20
5.520309
40
0.808182
50
180.000000
51
270.000000
73
0
72
1
10
2.302891
20
6.328491
11
2.980309
21
6.328491
72
2
10
2.980309
20
5.520309
40
0.808182
50
270.000000
51
360.000000
73
0
72
1
10
3.788491
20
5.520309
11
3.788491
21
4.842891
72
2
10
2.980309
20
4.842891
40
0.808182
50
360.000000
51
77.730424
73
0
72
1
10
3.152057
20
4.053169
11
3.152057
21
2.345037
72
1
10
3.152057
20
2.345037
11
4.631037
21
0.866057
72
1
10
4.631037
20
0.866057
11
18.432161
21
0.866057
72
1
10
18.432161
20
0.866057
11
19.083363
21
1.517259
72
2
10
19.163600
20
1.891600
40
0.382843
50
102.097817
51
180.000000
73
0
72
1
10
18.780757
20
1.891600
11
18.780757
21
3.391600
72
2
10
19.163600
20
3.391600
40
0.382843
50
180.000000
51
270.000000
73
0
72
1
10
19.163600
20
3.774443
11
19.403143
21
3.774443
72
1
10
19.403143
20
3.774443
11
19.403143
21
4.164307
72
2
10
19.913598
20
4.165599
40
0.510457
50
179.854978
51
225.000000
73
0
72
1
10
19.552651
20
4.526547
11
21.689143
21
6.663039
72
1
10
21.689143
20
6.663039
11
21.689143
21
20.718161
72
1
10
21.689143
20
20.718161
11
20.464161
21
21.943143
72
1
10
20.464161
20
21.943143
11
19.776059
21
21.943143
72
2
10
18.897600
20
22.453600
40
1.016000
50
30.160123
51
329.839877
73
0
72
1
10
19.776059
20
22.964057
11
20.675600
21
22.964057
72
2
10
20.675600
20
22.453600
40
0.510457
50
270.000000
51
315.095368
73
0
97
0
75
0
76
0
98
1
10
0.0
20
0.0
0
ARC
5
2E
100
AcDbEntity
8
COPPER_TOP
62
3
100
AcDbCircle
39
0.254000
10
2.641600
20
12.801600
30
0.0
40
1.185418
100
AcDbArc
50
110.769488
51
159.230512
0
LWPOLYLINE
5
2F
100
AcDbEntity
8
COPPER_TOP
62
3
100
AcDbPolyline
90
3
70
0
43
0.254000
39
0.254000
10
2.221240
20
13.909983
10
2.221240
20
13.221960
10
1.533217
20
13.221960
0
ARC
5
30
100
AcDbEntity
8
COPPER_TOP
62
3
100
AcDbCircle
39
0.254000
10
2.641600
20
12.801600
30
0.0
40
1.185418
100
AcDbArc
50
20.769488
51
69.230512
0
LWPOLYLINE
5
31
100
AcDbEntity
8
COPPER_TOP
62
3
100
AcDbPolyline
90
3
70
0
43
0.254000
39
0.254000
10
3.749983
20
13.221960
10
3.061960
20
13.221960
10
3.061960
20
13.909983
0
ARC
5
32
100
AcDbEntity
8
COPPER_TOP
62
3
100
AcDbCircle
39
0.254000
10
2.641600
20
12.801600
30
0.0
40
1.185418
100
AcDbArc
50
290.769488
51
339.230512
0
LWPOLYLINE
5
33
100
AcDbEntity
8
COPPER_TOP
62
3
100
AcDbPolyline
90
3
70
0
43
0.254000
39
0.254000
10
3.061960
20
11.693217
10
3.061960
20
12.381240
10
3.749983
20
12.381240
0
ARC
5
34
100
AcDbEntity
8
COPPER_TOP
62
3
100
AcDbCircle
39
0.254000
10
2.641600
20
12.801600
30
0.0
40
1.185418
100
AcDbArc
50
200.769488
51
249.230512
0
LWPOLYLINE
5
35
100
AcDbEntity
8
COPPER_TOP
62
3
100
AcDbPolyline
90
3
70
0
43
0.254000
39
0.254000
10
1.533217
20
12.381240
10
2.221240
20
12.381240
10
2.221240
20
11.693217
0
CIRCLE
5
36
100
AcDbEntity
8
COPPER_TOP
62
3
100
AcDbCircle
39
0.254000
10
2.641600
20
12.801600
30
0
40
0.444500
0
LWPOLYLINE
5
37
100
AcDbEntity
8
COPPER_TOP
62
3
100
AcDbPolyline
90
2
70
0
43
0.254000
39
0.254000
10
12.979733
20
2.131143
10
9.245600
20
2.131143
0
ARC
5
38
100
AcDbEntity
8
COPPER_TOP
62
3
100
AcDbCircle
39
0.254000
10
9.245600
20
2.641600
30
0.0
40
0.510457
100
AcDbArc
50
255.576002
51
270.000000
0
ARC
5
39
100
AcDbEntity
8
COPPER_TOP
62
3
100
AcDbCircle
39
0.254000
10
9.245599
20
2.641600
30
0.0
40
0.510457
100
AcDbArc
50
225.000000
51
255.576158
0
LWPOLYLINE
5
3A
100
AcDbEntity
8
COPPER_TOP
62
3
100
AcDbPolyline
90
2
70
0
43
0.254000
39
0.254000
10
8.884651
20
2.280653
10
7.868651
20
3.296653
0
ARC
5
3B
100
AcDbEntity
8
COPPER_TOP
62
3
100
AcDbCircle
39
0.254000
10
8.229599
20
3.657600
30
0.0
40
0.510457
100
AcDbArc
50
179.867699
51
225.000000
0
LWPOLYLINE
5
3C
100
AcDbEntity
8
COPPER_TOP
62
3
100
AcDbPolyline
90
2
70
0
43
0.254000
39
0.254000
10
7.719143
20
3.658779
10
7.719143
20
4.053169
0
ARC
5
3D
100
AcDbEntity
8
COPPER_TOP
62
3
100
AcDbCircle
39
0.254000
10
7.890891
20
4.842891
30
0.0
40
0.808182
100
AcDbArc
50
180.000000
51
257.730424
0
LWPOLYLINE
5
3E
100
AcDbEntity
8
COPPER_TOP
62
3
100
AcDbPolyline
90
2
70
0
43
0.254000
39
0.254000
10
7.082709
20
4.842891
10
7.082709
20
5.520309
0
ARC
5
3F
100
AcDbEntity
8
COPPER_TOP
62
3
100
AcDbCircle
39
0.254000
10
7.890891
20
5.520309
30
0.0
40
0.808182
100
AcDbArc
50
90.000000
51
180.000000
0
LWPOLYLINE
5
40
100
AcDbEntity
8
COPPER_TOP
62
3
100
AcDbPolyline
90
2
70
0
43
0.254000
39
0.254000
10
7.890891
20
6.328491
10
8.568309
20
6.328491
0
ARC
5
41
100
AcDbEntity
8
COPPER_TOP
62
3
100
AcDbCircle
39
0.254000
10
8.568309
20
5.520309
30
0.0
40
0.808182
100
AcDbArc
50
0.000000
51
90.000000
0
LWPOLYLINE
5
42
100
AcDbEntity
8
COPPER_TOP
62
3
100
AcDbPolyline
90
2
70
0
43
0.254000
39
0.254000
10
9.376491
20
5.520309
10
9.376491
20
4.842891
0
ARC
5
43
100
AcDbEntity
8
COPPER_TOP
62
3
100
AcDbCircle
39
0.254000
10
8.568309
20
4.842891
30
0.0
40
0.808182
100
AcDbArc
50
282.269576
51
0.000000
0
LWPOLYLINE
5
44
100
AcDbEntity
8
COPPER_TOP
62
3
100
AcDbPolyline
90
4
70
0
43
0.254000
39
0.254000
10
8.740057
20
4.053169
10
8.740057
20
3.869037
10
9.457037
20
3.152057
10
12.979733
20
3.152057
0
ARC
5
45
100
AcDbEntity
8
COPPER_TOP
62
3
100
AcDbCircle
39
0.254000
10
14.325600
20
2.641600
30
0.0
40
1.439418
100
AcDbArc
50
200.770608
51
159.229392
0
LWPOLYLINE
5
46
100
AcDbEntity
8
COPPER_TOP
62
3
100
AcDbPolyline
90
3
70
0
43
0.254000
39
0.254000
10
18.904345
20
15.131143
10
17.377037
20
15.131143
10
17.227148
20
14.981254
0
ARC
5
47
100
AcDbEntity
8
COPPER_TOP
62
3
100
AcDbCircle
39
0.254000
10
16.865600
20
15.341600
30
0.0
40
0.510457
100
AcDbArc
50
292.085100
51
315.095368
0
ARC
5
48
100
AcDbEntity
8
COPPER_TOP
62
3
100
AcDbCircle
39
0.254000
10
16.865598
20
15.341599
30
0.0
40
0.510457
100
AcDbArc
50
269.906285
51
292.085304
0
LWPOLYLINE
5
49
100
AcDbEntity
8
COPPER_TOP
62
3
100
AcDbPolyline
90
2
70
0
43
0.254000
39
0.254000
10
16.864763
20
14.831143
10
15.671467
20
14.831143
0
ARC
5
4A
100
AcDbEntity
8
COPPER_TOP
62
3
100
AcDbCircle
39
0.254000
10
14.325600
20
15.341600
30
0.0
40
1.439418
100
AcDbArc
50
20.770608
51
339.229392
0
LWPOLYLINE
5
4B
100
AcDbEntity
8
COPPER_TOP
62
3
100
AcDbPolyline
90
3
70
0
43
0.254000
39
0.254000
10
15.671467
20
15.852057
10
16.654161
20
15.852057
10
16.804651
20
16.002548
0
ARC
5
4C
100
AcDbEntity
8
COPPER_TOP
62
3
100
AcDbCircle
39
0.254000
10
17.165599
20
15.641600
30
0.0
40
0.510457
100
AcDbArc
50
91.358581
51
135.000000
0
ARC
5
4D
100
AcDbEntity
8
COPPER_TOP
62
3
100
AcDbCircle
39
0.254000
10
17.165600
20
15.641600
30
0.0
40
0.510457
100
AcDbArc
50
90.000000
51
91.358696
0
LWPOLYLINE
5
4E
100
AcDbEntity
8
COPPER_TOP
62
3
100
AcDbPolyline
90
2
70
0
43
0.254000
39
0.254000
10
17.165600
20
16.152057
10
18.904345
20
16.152057
0
ARC
5
4F
100
AcDbEntity
8
COPPER_TOP
62
3
100
AcDbCircle
39
0.254000
10
19.913600
20
15.641600
30
0.0
40
1.131000
100
AcDbArc
50
206.829205
51
153.170795
0
LWPOLYLINE
5
50
100
AcDbEntity
8
COPPER_TOP
62
3
100
AcDbPolyline
90
3
70
0
43
0.254000
39
0.254000
10
2.521893
20
25.094774
10
3.250774
20
25.094774
10
3.250774
20
24.365893
0
ARC
5
51
100
AcDbEntity
8
COPPER_TOP
62
3
100
AcDbCircle
39
0.254000
10
3.393059
20
25.237059
30
0.0
40
0.882709
100
AcDbArc
50
189.276050
51
260.723950
0
LWPOLYLINE
5
52
100
AcDbEntity
8
COPPER_TOP
62
3
100
AcDbPolyline
90
3
70
0
43
0.254000
39
0.254000
10
4.064426
20
24.365893
10
4.064426
20
25.094774
10
4.793307
20
25.094774
0
ARC
5
53
100
AcDbEntity
8
COPPER_TOP
62
3
100
AcDbCircle
39
0.254000
10
3.922141
20
25.237059
30
0.0
40
0.882709
100
AcDbArc
50
279.276050
51
350.723950
0
LWPOLYLINE
5
54
100
AcDbEntity
8
COPPER_TOP
62
3
100
AcDbPolyline
90
3
70
0
43
0.254000
39
0.254000
10
4.793307
20
25.908426
10
4.064426
20
25.908426
10
4.064426
20
26.637307
0
ARC
5
55
100
AcDbEntity
8
COPPER_TOP
62
3
100
AcDbCircle
39
0.254000
10
3.922141
20
25.766141
30
0.0
40
0.882709
100
AcDbArc
50
9.276050
51
80.723950
0
LWPOLYLINE
5
56
100
AcDbEntity
8
COPPER_TOP
62
3
100
AcDbPolyline
90
3
70
0
43
0.254000
39
0.254000
10
3.250774
20
26.637307
10
3.250774
20
25.908426
10
2.521893
20
25.908426
0
ARC
5
57
100
AcDbEntity
8
COPPER_TOP
62
3
100
AcDbCircle
39
0.254000
10
3.393059
20
25.766141
30
0.0
40
0.882709
100
AcDbArc
50
99.276050
51
170.723950
0
CIRCLE
5
58
100
AcDbEntity
8
COPPER_TOP
62
3
100
AcDbCircle
39
0.254000
10
3.657600
20
25.501600
30
0
40
0.497459
0
LWPOLYLINE
5
59
100
AcDbEntity
8
COPPER_TOP
62
3
100
AcDbPolyline
90
3
70
0
43
0.254000
39
0.254000
10
12.939141
20
21.943143
10
8.740057
20
21.943143
10
8.740057
20
13.871483
0
ARC
5
5A
100
AcDbEntity
8
COPPER_TOP
62
3
100
AcDbCircle
39
0.254000
10
8.229600
20
12.801600
30
0.0
40
1.185418
100
AcDbArc
50
115.506501
51
64.493499
0
LWPOLYLINE
5
5B
100
AcDbEntity
8
COPPER_TOP
62
3
100
AcDbPolyline
90
3
70
0
43
0.254000
39
0.254000
10
7.719143
20
13.871483
10
7.719143
20
21.943143
10
7.467600
20
21.943143
0
ARC
5
5C
100
AcDbEntity
8
COPPER_TOP
62
3
100
AcDbCircle
39
0.254000
10
7.467600
20
22.453600
30
0.0
40
0.510457
100
AcDbArc
50
253.191502
51
270.000000
0
ARC
5
5D
100
AcDbEntity
8
COPPER_TOP
62
3
100
AcDbCircle
39
0.254000
10
7.467599
20
22.453600
30
0.0
40
0.510457
100
AcDbArc
50
225.000000
51
253.191670
0
LWPOLYLINE
5
5E
100
AcDbEntity
8
COPPER_TOP
62
3
100
AcDbPolyline
90
2
70
0
43
0.254000
39
0.254000
10
7.106651
20
22.092653
10
5.836651
20
23.362653
0
ARC
5
5F
100
AcDbEntity
8
COPPER_TOP
62
3
100
AcDbCircle
39
0.254000
10
6.197599
20
23.723600
30
0.0
40
0.510457
100
AcDbArc
50
179.871976
51
225.000000
0
LWPOLYLINE
5
60
100
AcDbEntity
8
COPPER_TOP
62
3
100
AcDbPolyline
90
2
70
0
43
0.254000
39
0.254000
10
5.687143
20
23.724741
10
5.687143
20
24.431717
0
ARC
5
61
100
AcDbEntity
8
COPPER_TOP
62
3
100
AcDbCircle
39
0.254000
10
6.197600
20
25.501600
30
0.0
40
1.185418
100
AcDbArc
50
295.506501
51
244.493499
0
LWPOLYLINE
5
62
100
AcDbEntity
8
COPPER_TOP
62
3
100
AcDbPolyline
90
4
70
0
43
0.254000
39
0.254000
10
6.708057
20
24.431717
10
6.708057
20
23.935037
10
7.679037
20
22.964057
10
12.939141
20
22.964057
0
ARC
5
63
100
AcDbEntity
8
COPPER_TOP
62
3
100
AcDbCircle
39
0.254000
10
13.817600
20
22.453600
30
0.0
40
1.016000
100
AcDbArc
50
210.160123
51
149.839877
0
LWPOLYLINE
5
64
100
AcDbEntity
8
COPPER_TOP
62
3
100
AcDbPolyline
90
2
70
0
43
0.254000
39
0.254000
10
21.037148
20
22.813946
10
22.559946
20
21.291148
0
ARC
5
65
100
AcDbEntity
8
COPPER_TOP
62
3
100
AcDbCircle
39
0.254000
10
22.199600
20
20.929600
30
0.0
40
0.510457
100
AcDbArc
50
0.000000
51
45.095368
0
LWPOLYLINE
5
66
100
AcDbEntity
8
COPPER_TOP
62
3
100
AcDbPolyline
90
2
70
0
43
0.254000
39
0.254000
10
22.710057
20
20.929600
10
22.710057
20
6.451600
0
ARC
5
67
100
AcDbEntity
8
COPPER_TOP
62
3
100
AcDbCircle
39
0.254000
10
22.199600
20
6.451600
30
0.0
40
0.510457
100
AcDbArc
50
314.904632
51
0.000000
0
LWPOLYLINE
5
68
100
AcDbEntity
8
COPPER_TOP
62
3
100
AcDbPolyline
90
4
70
0
43
0.254000
39
0.254000
10
22.559946
20
6.090052
10
20.424057
20
3.954163
10
20.424057
20
3.774443
10
20.663600
20
3.774443
0
ARC
5
69
100
AcDbEntity
8
COPPER_TOP
62
3
100
AcDbCircle
39
0.254000
10
20.663600
20
3.391600
30
0.0
40
0.382843
100
AcDbArc
50
0.000000
51
90.000000
0
LWPOLYLINE
5
6A
100
AcDbEntity
8
COPPER_TOP
62
3
100
AcDbPolyline
90
2
70
0
43
0.254000
39
0.254000
10
21.046443
20
3.391600
10
21.046443
20
1.891600
0
ARC
5
6B
100
AcDbEntity
8
COPPER_TOP
62
3
100
AcDbCircle
39
0.254000
10
20.663600
20
1.891600
30
0.0
40
0.382843
100
AcDbArc
50
270.000000
51
0.000000
0
LWPOLYLINE
5
6C
100
AcDbEntity
8
COPPER_TOP
62
3
100
AcDbPolyline
90
2
70
0
43
0.254000
39
0.254000
10
20.663600
20
1.508757
10
20.410504
20
1.508757
0
ARC
5
6D
100
AcDbEntity
8
COPPER_TOP
62
3
100
AcDbCircle
39
0.254000
10
19.913600
20
1.625600
30
0.0
40
0.510457
100
AcDbArc
50
314.904632
51
346.767751
0
LWPOLYLINE
5
6E
100
AcDbEntity
8
COPPER_TOP
62
3
100
AcDbPolyline
90
2
70
0
43
0.254000
39
0.254000
10
20.273946
20
1.264052
10
19.005148
20
-0.004746
0
ARC
5
6F
100
AcDbEntity
8
COPPER_TOP
62
3
100
AcDbCircle
39
0.254000
10
18.643600
20
0.355600
30
0.0
40
0.510457
100
AcDbArc
50
282.147182
51
315.095368
0
ARC
5
70
100
AcDbEntity
8
COPPER_TOP
62
3
100
AcDbCircle
39
0.254000
10
18.643599
20
0.355600
30
0.0
40
0.510457
100
AcDbArc
50
269.940604
51
282.147329
0
LWPOLYLINE
5
71
100
AcDbEntity
8
COPPER_TOP
62
3
100
AcDbPolyline
90
2
70
0
43
0.254000
39
0.254000
10
18.643070
20
-0.154857
10
4.419600
20
-0.154857
0
ARC
5
72
100
AcDbEntity
8
COPPER_TOP
62
3
100
AcDbCircle
39
0.254000
10
4.419600
20
0.355600
30
0.0
40
0.510457
100
AcDbArc
50
249.327534
51
270.000000
0
ARC
5
73
100
AcDbEntity
8
COPPER_TOP
62
3
100
AcDbCircle
39
0.254000
10
4.419598
20
0.355601
30
0.0
40
0.510457
100
AcDbArc
50
225.000000
51
249.327726
0
LWPOLYLINE
5
74
100
AcDbEntity
8
COPPER_TOP
62
3
100
AcDbPolyline
90
2
70
0
43
0.254000
39
0.254000
10
4.058651
20
-0.005347
10
2.280651
20
1.772652
0
ARC
5
75
100
AcDbEntity
8
COPPER_TOP
62
3
100
AcDbCircle
39
0.254000
10
2.641599
20
2.133600
30
0.0
40
0.510457
100
AcDbArc
50
179.880990
51
225.000000
0
LWPOLYLINE
5
76
100
AcDbEntity
8
COPPER_TOP
62
3
100
AcDbPolyline
90
2
70
0
43
0.254000
39
0.254000
10
2.131143
20
2.134660
10
2.131143
20
4.053169
0
ARC
5
77
100
AcDbEntity
8
COPPER_TOP
62
3
100
AcDbCircle
39
0.254000
10
2.302891
20
4.842891
30
0.0
40
0.808182
100
AcDbArc
50
180.000000
51
257.730424
0
LWPOLYLINE
5
78
100
AcDbEntity
8
COPPER_TOP
62
3
100
AcDbPolyline
90
2
70
0
43
0.254000
39
0.254000
10
1.494709
20
4.842891
10
1.494709
20
5.520309
0
ARC
5
79
100
AcDbEntity
8
COPPER_TOP
62
3
100
AcDbCircle
39
0.254000
10
2.302891
20
5.520309
30
0.0
40
0.808182
100
AcDbArc
50
90.000000
51
180.000000
0
LWPOLYLINE
5
7A
100
AcDbEntity
8
COPPER_TOP
62
3
100
AcDbPolyline
90
2
70
0
43
0.254000
39
0.254000
10
2.302891
20
6.328491
10
2.980309
20
6.328491
0
ARC
5
7B
100
AcDbEntity
8
COPPER_TOP
62
3
100
AcDbCircle
39
0.254000
10
2.980309
20
5.520309
30
0.0
40
0.808182
100
AcDbArc
50
0.000000
51
90.000000
0
LWPOLYLINE
5
7C
100
AcDbEntity
8
COPPER_TOP
62
3
100
AcDbPolyline
90
2
70
0
43
0.254000
39
0.254000
10
3.788491
20
5.520309
10
3.788491
20
4.842891
0
ARC
5
7D
100
AcDbEntity
8
COPPER_TOP
62
3
100
AcDbCircle
39
0.254000
10
2.980309
20
4.842891
30
0.0
40
0.808182
100
AcDbArc
50
282.269576
51
0.000000
0
LWPOLYLINE
5
7E
100
AcDbEntity
8
COPPER_TOP
62
3
100
AcDbPolyline
90
5
70
0
43
0.254000
39
0.254000
10
3.152057
20
4.053169
10
3.152057
20
2.345037
10
4.631037
20
0.866057
10
18.432161
20
0.866057
10
19.083363
20
1.517259
0
ARC
5
7F
100
AcDbEntity
8
COPPER_TOP
62
3
100
AcDbCircle
39
0.254000
10
19.163600
20
1.891600
30
0.0
40
0.382843
100
AcDbArc
50
180.000000
51
257.902183
0
LWPOLYLINE
5
80
100
AcDbEntity
8
COPPER_TOP
62
3
100
AcDbPolyline
90
2
70
0
43
0.254000
39
0.254000
10
18.780757
20
1.891600
10
18.780757
20
3.391600
0
ARC
5
81
100
AcDbEntity
8
COPPER_TOP
62
3
100
AcDbCircle
39
0.254000
10
19.163600
20
3.391600
30
0.0
40
0.382843
100
AcDbArc
50
90.000000
51
180.000000
0
LWPOLYLINE
5
82
100
AcDbEntity
8
COPPER_TOP
62
3
100
AcDbPolyline
90
3
70
0
43
0.254000
39
0.254000
10
19.163600
20
3.774443
10
19.403143
20
3.774443
10
19.403143
20
4.164307
0
ARC
5
83
100
AcDbEntity
8
COPPER_TOP
62
3
100
AcDbCircle
39
0.254000
10
19.913598
20
4.165599
30
0.0
40
0.510457
100
AcDbArc
50
135.000000
51
180.145022
0
LWPOLYLINE
5
84
100
AcDbEntity
8
COPPER_TOP
62
3
100
AcDbPolyline
90
5
70
0
43
0.254000
39
0.254000
10
19.552651
20
4.526547
10
21.689143
20
6.663039
10
21.689143
20
20.718161
10
20.464161
20
21.943143
10
19.776059
20
21.943143
0
ARC
5
85
100
AcDbEntity
8
COPPER_TOP
62
3
100
AcDbCircle
39
0.254000
10
18.897600
20
22.453600
30
0.0
40
1.016000
100
AcDbArc
50
30.160123
51
329.839877
0
LWPOLYLINE
5
86
100
AcDbEntity
8
COPPER_TOP
62
3
100
AcDbPolyline
90
2
70
0
43
0.254000
39
0.254000
10
19.776059
20
22.964057
10
20.675600
20
22.964057
0
ARC
5
87
100
AcDbEntity
8
COPPER_TOP
62
3
100
AcDbCircle
39
0.254000
10
20.675600
20
22.453600
30
0.0
40
0.510457
100
AcDbArc
50
44.904632
51
90.000000
0
LWPOLYLINE
5
88
100
AcDbEntity
8
COPPER_TOP
62
3
100
AcDbPolyline
90
5
70
0
43
0.254000
39
0.254000
10
26.315157
20
28.319157
10
-2.919157
20
28.319157
10
-2.919157
20
-0.915157
10
26.315157
20
-0.915157
10
26.315157
20
28.319157
0
LWPOLYLINE
5
89
100
AcDbEntity
8
COPPER_TOP
62
3
100
AcDbPolyline
90
2
70
0
43
0.254000
39
0.254000
10
19.913600
20
1.625600
10
18.643600
20
0.355600
0
LWPOLYLINE
5
8A
100
AcDbEntity
8
COPPER_TOP
62
3
100
AcDbPolyline
90
2
70
0
43
0.254000
39
0.254000
10
4.419600
20
0.355600
10
2.641600
20
2.133600
0
LWPOLYLINE
5
8B
100
AcDbEntity
8
COPPER_TOP
62
3
100
AcDbPolyline
90
2
70
0
43
0.254000
39
0.254000
10
2.641600
20
2.133600
10
2.641600
20
5.181600
0
LWPOLYLINE
5
8C
100
AcDbEntity
8
COPPER_TOP
62
3
100
AcDbPolyline
90
2
70
0
43
0.254000
39
0.254000
10
18.643600
20
0.355600
10
4.419600
20
0.355600
0
LWPOLYLINE
5
8D
100
AcDbEntity
8
COPPER_TOP
62
3
100
AcDbPolyline
90
2
70
0
43
0.254000
39
0.254000
10
7.467600
20
22.453600
10
6.197600
20
23.723600
0
LWPOLYLINE
5
8E
100
AcDbEntity
8
COPPER_TOP
62
3
100
AcDbPolyline
90
2
70
0
43
0.254000
39
0.254000
10
6.197600
20
23.723600
10
6.197600
20
25.501600
0
LWPOLYLINE
5
8F
100
AcDbEntity
8
COPPER_TOP
62
3
100
AcDbPolyline
90
2
70
0
43
0.254000
39
0.254000
10
13.817600
20
22.453600
10
7.467600
20
22.453600
0
LWPOLYLINE
5
90
100
AcDbEntity
8
COPPER_TOP
62
3
100
AcDbPolyline
90
2
70
0
43
0.254000
39
0.254000
10
8.229600
20
22.453600
10
8.229600
20
12.801600
0
HATCH
5
91
100
AcDbEntity
8
COPPER_TOP
100
AcDbHatch
10
0.0
20
0.0
30
0.0
210
0.0
220
0.0
230
1.0
2
SOLID
70
1
71
0
91
2
92
1
93
1
72
2
10
13.817600
20
22.453600
40
0.635000
50
0.000000
51
360.000000
73
1
97
0
92
1
93
1
72
2
10
13.817600
20
22.453600
40
0.444500
50
0.000000
51
360.000000
73
1
97
0
75
0
76
0
98
1
10
0.0
20
0.0
0
HATCH
5
92
100
AcDbEntity
8
COPPER_TOP
100
AcDbHatch
10
0.0
20
0.0
30
0.0
210
0.0
220
0.0
230
1.0
2
SOLID
70
1
71
0
91
2
92
1
93
1
72
2
10
18.897600
20
22.453600
40
0.635000
50
0.000000
51
360.000000
73
1
97
0
92
1
93
1
72
2
10
18.897600
20
22.453600
40
0.444500
50
0.000000
51
360.000000
73
1
97
0
75
0
76
0
98
1
10
0.0
20
0.0
0
HATCH
5
93
100
AcDbEntity
8
COPPER_TOP
100
AcDbHatch
10
0.0
20
0.0
30
0.0
210
0.0
220
0.0
230
1.0
2
SOLID
70
1
71
0
91
2
92
1
93
1
72
2
10
14.325600
20
15.341600
40
1.058418
50
0.000000
51
360.000000
73
1
97
0
92
1
93
1
72
2
10
14.325600
20
15.341600
40
0.550291
50
0.000000
51
360.000000
73
1
97
0
75
0
76
0
98
1
10
0.0
20
0.0
0
HATCH
5
94
100
AcDbEntity
8
COPPER_TOP
100
AcDbHatch
10
0.0
20
0.0
30
0.0
210
0.0
220
0.0
230
1.0
2
SOLID
70
1
71
0
91
2
92
1
93
1
72
2
10
14.325600
20
2.641600
40
1.058418
50
0.000000
51
360.000000
73
1
97
0
92
1
93
1
72
2
10
14.325600
20
2.641600
40
0.550291
50
0.000000
51
360.000000
73
1
97
0
75
0
76
0
98
1
10
0.0
20
0.0
0
HATCH
5
95
100
AcDbEntity
8
COPPER_TOP
100
AcDbHatch
10
0.0
20
0.0
30
0.0
210
0.0
220
0.0
230
1.0
2
SOLID
70
1
71
0
91
2
92
1
93
8
72
1
10
1.879600
20
5.520309
11
1.879600
21
4.842891
72
2
10
2.302891
20
4.842891
40
0.423291
50
180.000000
51
270.000000
73
1
72
1
10
2.302891
20
4.419600
11
2.980309
21
4.419600
72
2
10
2.980309
20
4.842891
40
0.423291
50
270.000000
51
0.000000
73
1
72
1
10
3.403600
20
4.842891
11
3.403600
21
5.520309
72
2
10
2.980309
20
5.520309
40
0.423291
50
0.000000
51
90.000000
73
1
72
1
10
2.980309
20
5.943600
11
2.302891
21
5.943600
72
2
10
2.302891
20
5.520309
40
0.423291
50
90.000000
51
180.000000
73
1
97
0
92
1
93
1
72
2
10
2.641600
20
5.181600
40
0.423291
50
0.000000
51
360.000000
73
1
97
0
75
0
76
0
98
1
10
0.0
20
0.0
0
HATCH
5
96
100
AcDbEntity
8
COPPER_TOP
100
AcDbHatch
10
0.0
20
0.0
30
0.0
210
0.0
220
0.0
230
1.0
2
SOLID
70
1
71
0
91
2
92
1
93
1
72
2
10
2.641600
20
12.801600
40
0.804418
50
0.000000
51
360.000000
73
1
97
0
92
1
93
1
72
2
10
2.641600
20
12.801600
40
0.444500
50
0.000000
51
360.000000
73
1
97
0
75
0
76
0
98
1
10
0.0
20
0.0
0
HATCH
5
97
100
AcDbEntity
8
COPPER_TOP
100
AcDbHatch
10
0.0
20
0.0
30
0.0
210
0.0
220
0.0
230
1.0
2
SOLID
70
1
71
0
91
2
92
1
93
8
72
1
10
2.895600
20
25.766141
11
2.895600
21
25.237059
72
2
10
3.393059
20
25.237059
40
0.497459
50
180.000000
51
270.000000
73
1
72
1
10
3.393059
20
24.739600
11
3.922141
21
24.739600
72
2
10
3.922141
20
25.237059
40
0.497459
50
270.000000
51
0.000000
73
1
72
1
10
4.419600
20
25.237059
11
4.419600
21
25.766141
72
2
10
3.922141
20
25.766141
40
0.497459
50
0.000000
51
90.000000
73
1
72
1
10
3.922141
20
26.263600
11
3.393059
21
26.263600
72
2
10
3.393059
20
25.766141
40
0.497459
50
90.000000
51
180.000000
73
1
97
0
92
1
93
1
72
2
10
3.657600
20
25.501600
40
0.497459
50
0.000000
51
360.000000
73
1
97
0
75
0
76
0
98
1
10
0.0
20
0.0
0
HATCH
5
98
100
AcDbEntity
8
COPPER_TOP
100
AcDbHatch
10
0.0
20
0.0
30
0.0
210
0.0
220
0.0
230
1.0
2
SOLID
70
1
71
0
91
2
92
1
93
1
72
2
10
6.197600
20
25.501600
40
0.804418
50
0.000000
51
360.000000
73
1
97
0
92
1
93
1
72
2
10
6.197600
20
25.501600
40
0.444500
50
0.000000
51
360.000000
73
1
97
0
75
0
76
0
98
1
10
0.0
20
0.0
0
HATCH
5
99
100
AcDbEntity
8
COPPER_TOP
100
AcDbHatch
10
0.0
20
0.0
30
0.0
210
0.0
220
0.0
230
1.0
2
SOLID
70
1
71
0
91
2
92
1
93
1
72
2
10
8.229600
20
12.801600
40
0.804418
50
0.000000
51
360.000000
73
1
97
0
92
1
93
1
72
2
10
8.229600
20
12.801600
40
0.444500
50
0.000000
51
360.000000
73
1
97
0
75
0
76
0
98
1
10
0.0
20
0.0
0
HATCH
5
9A
100
AcDbEntity
8
COPPER_TOP
100
AcDbHatch
10
0.0
20
0.0
30
0.0
210
0.0
220
0.0
230
1.0
2
SOLID
70
1
71
0
91
2
92
1
93
8
72
1
10
7.467600
20
5.520309
11
7.467600
21
4.842891
72
2
10
7.890891
20
4.842891
40
0.423291
50
180.000000
51
270.000000
73
1
72
1
10
7.890891
20
4.419600
11
8.568309
21
4.419600
72
2
10
8.568309
20
4.842891
40
0.423291
50
270.000000
51
0.000000
73
1
72
1
10
8.991600
20
4.842891
11
8.991600
21
5.520309
72
2
10
8.568309
20
5.520309
40
0.423291
50
0.000000
51
90.000000
73
1
72
1
10
8.568309
20
5.943600
11
7.890891
21
5.943600
72
2
10
7.890891
20
5.520309
40
0.423291
50
90.000000
51
180.000000
73
1
97
0
92
1
93
1
72
2
10
8.229600
20
5.181600
40
0.423291
50
0.000000
51
360.000000
73
1
97
0
75
0
76
0
98
1
10
0.0
20
0.0
0
HATCH
5
9B
100
AcDbEntity
8
COPPER_TOP
100
AcDbHatch
10
0.0
20
0.0
30
0.0
210
0.0
220
0.0
230
1.0
2
SOLID
70
1
71
0
91
2
92
1
93
1
72
2
10
19.913600
20
15.641600
40
0.750000
50
0.000000
51
360.000000
73
1
97
0
92
1
93
1
72
2
10
19.913600
20
15.641600
40
0.450000
50
0.000000
51
360.000000
73
1
97
0
75
0
76
0
98
1
10
0.0
20
0.0
0
HATCH
5
9C
100
AcDbEntity
8
COPPER_TOP
100
AcDbHatch
10
0.0
20
0.0
30
0.0
210
0.0
220
0.0
230
1.0
2
SOLID
70
1
71
0
91
2
92
1
93
4
72
1
10
20.663600
20
1.891600
11
19.163600
21
1.891600
72
1
10
19.163600
20
1.891600
11
19.163600
21
3.391600
72
1
10
19.163600
20
3.391600
11
20.663600
21
3.391600
72
1
10
20.663600
20
3.391600
11
20.663600
21
1.891600
97
0
92
1
93
1
72
2
10
19.913600
20
2.641600
40
0.450000
50
0.000000
51
360.000000
73
1
97
0
75
0
76
0
98
1
10
0.0
20
0.0
0
HATCH
5
9D
100
AcDbEntity
8
DRILL
62
255
100
AcDbHatch
10
0.0
20
0.0
30
0.0
210
0.0
220
0.0
230
1.0
2
SOLID
70
1
71
0
91
1
92
1
93
1
72
2
10
13.817600
20
22.453600
40
0.444500
50
0.000000
51
360.000000
73
1
97
0
75
0
76
0
98
1
10
0.0
20
0.0
0
CIRCLE
5
9E
100
AcDbEntity
8
DRILL
62
255
100
AcDbCircle
39
0.000001
10
13.817600
20
22.453600
30
0
40
0.444500
0
HATCH
5
9F
100
AcDbEntity
8
DRILL
62
255
100
AcDbHatch
10
0.0
20
0.0
30
0.0
210
0.0
220
0.0
230
1.0
2
SOLID
70
1
71
0
91
1
92
1
93
1
72
2
10
18.897600
20
22.453600
40
0.444500
50
0.000000
51
360.000000
73
1
97
0
75
0
76
0
98
1
10
0.0
20
0.0
0
CIRCLE
5
A0
100
AcDbEntity
8
DRILL
62
255
100
AcDbCircle
39
0.000001
10
18.897600
20
22.453600
30
0
40
0.444500
0
HATCH
5
A1
100
AcDbEntity
8
DRILL
62
255
100
AcDbHatch
10
0.0
20
0.0
30
0.0
210
0.0
220
0.0
230
1.0
2
SOLID
70
1
71
0
91
1
92
1
93
1
72
2
10
14.325600
20
15.341600
40
0.550291
50
0.000000
51
360.000000
73
1
97
0
75
0
76
0
98
1
10
0.0
20
0.0
0
CIRCLE
5
A2
100
AcDbEntity
8
DRILL
62
255
100
AcDbCircle
39
0.000001
10
14.325600
20
15.341600
30
0
40
0.550291
0
HATCH
5
A3
100
AcDbEntity
8
DRILL
62
255
100
AcDbHatch
10
0.0
20
0.0
30
0.0
210
0.0
220
0.0
230
1.0
2
SOLID
70
1
71
0
91
1
92
1
93
1
72
2
10
14.325600
20
2.641600
40
0.550291
50
0.000000
51
360.000000
73
1
97
0
75
0
76
0
98
1
10
0.0
20
0.0
0
CIRCLE
5
A4
100
AcDbEntity
8
DRILL
62
255
100
AcDbCircle
39
0.000001
10
14.325600
20
2.641600
30
0
40
0.550291
0
HATCH
5
A5
100
AcDbEntity
8
DRILL
62
255
100
AcDbHatch
10
0.0
20
0.0
30
0.0
210
0.0
220
0.0
230
1.0
2
SOLID
70
1
71
0
91
1
92
1
93
1
72
2
10
2.641600
20
5.181600
40
0.423291
50
0.000000
51
360.000000
73
1
97
0
75
0
76
0
98
1
10
0.0
20
0.0
0
CIRCLE
5
A6
100
AcDbEntity
8
DRILL
62
255
100
AcDbCircle
39
0.000001
10
2.641600
20
5.181600
30
0
40
0.423291
0
HATCH
5
A7
100
AcDbEntity
8
DRILL
62
255
100
AcDbHatch
10
0.0
20
0.0
30
0.0
210
0.0
220
0.0
230
1.0
2
SOLID
70
1
71
0
91
1
92
1
93
1
72
2
10
2.641600
20
12.801600
40
0.444500
50
0.000000
51
360.000000
73
1
97
0
75
0
76
0
98
1
10
0.0
20
0.0
0
CIRCLE
5
A8
100
AcDbEntity
8
DRILL
62
255
100
AcDbCircle
39
0.000001
10
2.641600
20
12.801600
30
0
40
0.444500
0
HATCH
5
A9
100
AcDbEntity
8
DRILL
62
255
100
AcDbHatch
10
0.0
20
0.0
30
0.0
210
0.0
220
0.0
230
1.0
2
SOLID
70
1
71
0
91
1
92
1
93
1
72
2
10
3.657600
20
25.501600
40
0.497459
50
0.000000
51
360.000000
73
1
97
0
75
0
76
0
98
1
10
0.0
20
0.0
0
CIRCLE
5
AA
100
AcDbEntity
8
DRILL
62
255
100
AcDbCircle
39
0.000001
10
3.657600
20
25.501600
30
0
40
0.497459
0
HATCH
5
AB
100
AcDbEntity
8
DRILL
62
255
100
AcDbHatch
10
0.0
20
0.0
30
0.0
210
0.0
220
0.0
230
1.0
2
SOLID
70
1
71
0
91
1
92
1
93
1
72
2
10
6.197600
20
25.501600
40
0.444500
50
0.000000
51
360.000000
73
1
97
0
75
0
76
0
98
1
10
0.0
20
0.0
0
CIRCLE
5
AC
100
AcDbEntity
8
DRILL
62
255
100
AcDbCircle
39
0.000001
10
6.197600
20
25.501600
30
0
40
0.444500
0
HATCH
5
AD
100
AcDbEntity
8
DRILL
62
255
100
AcDbHatch
10
0.0
20
0.0
30
0.0
210
0.0
220
0.0
230
1.0
2
SOLID
70
1
71
0
91
1
92
1
93
1
72
2
10
8.229600
20
12.801600
40
0.444500
50
0.000000
51
360.000000
73
1
97
0
75
0
76
0
98
1
10
0.0
20
0.0
0
CIRCLE
5
AE
100
AcDbEntity
8
DRILL
62
255
100
AcDbCircle
39
0.000001
10
8.229600
20
12.801600
30
0
40
0.444500
0
HATCH
5
AF
100
AcDbEntity
8
DRILL
62
255
100
AcDbHatch
10
0.0
20
0.0
30
0.0
210
0.0
220
0.0
230
1.0
2
SOLID
70
1
71
0
91
1
92
1
93
1
72
2
10
8.229600
20
5.181600
40
0.423291
50
0.000000
51
360.000000
73
1
97
0
75
0
76
0
98
1
10
0.0
20
0.0
0
CIRCLE
5
B0
100
AcDbEntity
8
DRILL
62
255
100
AcDbCircle
39
0.000001
10
8.229600
20
5.181600
30
0
40
0.423291
0
HATCH
5
B1
100
AcDbEntity
8
DRILL
62
255
100
AcDbHatch
10
0.0
20
0.0
30
0.0
210
0.0
220
0.0
230
1.0
2
SOLID
70
1
71
0
91
1
92
1
93
1
72
2
10
19.913600
20
15.641600
40
0.450000
50
0.000000
51
360.000000
73
1
97
0
75
0
76
0
98
1
10
0.0
20
0.0
0
CIRCLE
5
B2
100
AcDbEntity
8
DRILL
62
255
100
AcDbCircle
39
0.000001
10
19.913600
20
15.641600
30
0
40
0.450000
0
HATCH
5
B3
100
AcDbEntity
8
DRILL
62
255
100
AcDbHatch
10
0.0
20
0.0
30
0.0
210
0.0
220
0.0
230
1.0
2
SOLID
70
1
71
0
91
1
92
1
93
1
72
2
10
19.913600
20
2.641600
40
0.450000
50
0.000000
51
360.000000
73
1
97
0
75
0
76
0
98
1
10
0.0
20
0.0
0
CIRCLE
5
B4
100
AcDbEntity
8
DRILL
62
255
100
AcDbCircle
39
0.000001
10
19.913600
20
2.641600
30
0
40
0.450000
0
ENDSEC
0
SECTION
2
OBJECTS
0
DICTIONARY
5
B5
100
AcDbDictionary
3
ACAD_GROUP
350
B6
3
ACAD_LAYOUT
350
B7
3
ACAD_MLINESTYLE
350
B8
0
DICTIONARY
5
B6
100
AcDbDictionary
0
DICTIONARY
5
B7
100
AcDbDictionary
0
DICTIONARY
5
B8
100
AcDbDictionary
3
STANDARD
350
B9
0
MLINESTYLE
5
B9
100
AcDbMlineStyle
2
Standard
70
0
3

62
256
51
90.0
52
90.0
71
2
49
0.5
62
256
6
BYLAYER
49
-0.5
62
256
6
BYLAYER
0
ENDSEC
0
EOF
