<?xml version="1.0" standalone="no"?>
 <!DOCTYPE svg PUBLIC "-//W3C//DTD SVG 1.1//EN" 
 "http://www.w3.org/Graphics/SVG/1.1/DTD/svg11.dtd"> 
<svg
  xmlns:svg="http://www.w3.org/2000/svg"
  xmlns="http://www.w3.org/2000/svg"
  xmlns:xlink="http://www.w3.org/1999/xlink"
  version="1.1"
  width="4.452620cm" height="3.055620cm" viewBox="0 0 44526200 30556200">
<title>SVG Picture created as LED_Matrix-brd.svg date 2023/03/09 14:14:38 </title>
  <desc>Picture generated by PCBNEW </desc>
<g style="fill:#000000; fill-opacity:1.000000;stroke:#000000; stroke-opacity:1.000000;
stroke-linecap:round; stroke-linejoin:round;"
 transform="translate(0 0) scale(1 1)">
</g>
<g style="fill:#000000; fill-opacity:0.0; 
stroke:#000000; stroke-width:0.000000; stroke-opacity:1; 
stroke-linecap:round; stroke-linejoin:round;">
<g >
</g>
<g style="fill:#000000; fill-opacity:1.0; 
stroke:#000000; stroke-width:1.000000; stroke-opacity:1; 
stroke-linecap:round; stroke-linejoin:round;">
<circle cx="29260000.000000" cy="3857500.000000" r="800000.000000" /> 
</g>
<g style="fill:#000000; fill-opacity:1.0; 
stroke:#000000; stroke-width:21200.000000; stroke-opacity:1; 
stroke-linecap:round; stroke-linejoin:round;">
</g>
<g style="fill:#000000; fill-opacity:1.0; 
stroke:#000000; stroke-width:1.000000; stroke-opacity:1; 
stroke-linecap:round; stroke-linejoin:round;">
<circle cx="16560000.000000" cy="3857500.000000" r="800000.000000" /> 
</g>
<g >
</g>
<g style="fill:#000000; fill-opacity:1.0; 
stroke:#000000; stroke-width:1.000000; stroke-opacity:1; 
stroke-linecap:round; stroke-linejoin:round;">
<path style="fill:#000000; fill-opacity:1.0; 
stroke:#000000; stroke-width:1.000000; stroke-opacity:1; 
stroke-linecap:round; stroke-linejoin:round;fill-rule:evenodd;"
d="M 1800000.000000,26226250.000000
1818554.000000,26132971.000000
1871393.000000,26053893.000000
1950471.000000,26001054.000000
2043750.000000,25982500.000000
2531250.000000,25982500.000000
2624529.000000,26001054.000000
2703607.000000,26053893.000000
2756446.000000,26132971.000000
2775000.000000,26226250.000000
2775000.000000,27138750.000000
2756446.000000,27232029.000000
2703607.000000,27311107.000000
2624529.000000,27363946.000000
2531250.000000,27382500.000000
2043750.000000,27382500.000000
1950471.000000,27363946.000000
1871393.000000,27311107.000000
1818554.000000,27232029.000000
1800000.000000,27138750.000000
Z" /> 
<path style="fill:#000000; fill-opacity:1.0; 
stroke:#000000; stroke-width:1.000000; stroke-opacity:1; 
stroke-linecap:round; stroke-linejoin:round;fill-rule:evenodd;"
d="M 3675000.000000,26226250.000000
3693554.000000,26132971.000000
3746393.000000,26053893.000000
3825471.000000,26001054.000000
3918750.000000,25982500.000000
4406250.000000,25982500.000000
4499529.000000,26001054.000000
4578607.000000,26053893.000000
4631446.000000,26132971.000000
4650000.000000,26226250.000000
4650000.000000,27138750.000000
4631446.000000,27232029.000000
4578607.000000,27311107.000000
4499529.000000,27363946.000000
4406250.000000,27382500.000000
3918750.000000,27382500.000000
3825471.000000,27363946.000000
3746393.000000,27311107.000000
3693554.000000,27232029.000000
3675000.000000,27138750.000000
Z" /> 
</g>
<g >
</g>
<g style="fill:#000000; fill-opacity:1.0; 
stroke:#000000; stroke-width:1.000000; stroke-opacity:1; 
stroke-linecap:round; stroke-linejoin:round;">
<path style="fill:#000000; fill-opacity:1.0; 
stroke:#000000; stroke-width:1.000000; stroke-opacity:1; 
stroke-linecap:round; stroke-linejoin:round;fill-rule:evenodd;"
d="M 4650000.000000,11898750.000000
4631446.000000,11992029.000000
4578607.000000,12071107.000000
4499529.000000,12123946.000000
4406250.000000,12142500.000000
3918750.000000,12142500.000000
3825471.000000,12123946.000000
3746393.000000,12071107.000000
3693554.000000,11992029.000000
3675000.000000,11898750.000000
3675000.000000,10986250.000000
3693554.000000,10892971.000000
3746393.000000,10813893.000000
3825471.000000,10761054.000000
3918750.000000,10742500.000000
4406250.000000,10742500.000000
4499529.000000,10761054.000000
4578607.000000,10813893.000000
4631446.000000,10892971.000000
4650000.000000,10986250.000000
Z" /> 
<path style="fill:#000000; fill-opacity:1.0; 
stroke:#000000; stroke-width:1.000000; stroke-opacity:1; 
stroke-linecap:round; stroke-linejoin:round;fill-rule:evenodd;"
d="M 2775000.000000,11898750.000000
2756446.000000,11992029.000000
2703607.000000,12071107.000000
2624529.000000,12123946.000000
2531250.000000,12142500.000000
2043750.000000,12142500.000000
1950471.000000,12123946.000000
1871393.000000,12071107.000000
1818554.000000,11992029.000000
1800000.000000,11898750.000000
1800000.000000,10986250.000000
1818554.000000,10892971.000000
1871393.000000,10813893.000000
1950471.000000,10761054.000000
2043750.000000,10742500.000000
2531250.000000,10742500.000000
2624529.000000,10761054.000000
2703607.000000,10813893.000000
2756446.000000,10892971.000000
2775000.000000,10986250.000000
Z" /> 
</g>
<g >
</g>
<g style="fill:#000000; fill-opacity:1.0; 
stroke:#000000; stroke-width:1.000000; stroke-opacity:1; 
stroke-linecap:round; stroke-linejoin:round;">
<path style="fill:#000000; fill-opacity:1.0; 
stroke:#000000; stroke-width:1.000000; stroke-opacity:1; 
stroke-linecap:round; stroke-linejoin:round;fill-rule:evenodd;"
d="M 29105000.000000,19907500.000000
29105000.000000,18307500.000000
30705000.000000,18307500.000000
30705000.000000,19907500.000000
Z" /> 
<circle cx="29905000.000000" cy="21647500.000000" r="800000.000000" /> 
<circle cx="29905000.000000" cy="24187500.000000" r="800000.000000" /> 
<circle cx="29905000.000000" cy="26727500.000000" r="800000.000000" /> 
<circle cx="37525000.000000" cy="26727500.000000" r="800000.000000" /> 
<circle cx="37525000.000000" cy="24187500.000000" r="800000.000000" /> 
<circle cx="37525000.000000" cy="21647500.000000" r="800000.000000" /> 
<circle cx="37525000.000000" cy="19107500.000000" r="800000.000000" /> 
</g>
<g >
</g>
<g style="fill:#000000; fill-opacity:1.0; 
stroke:#000000; stroke-width:1.000000; stroke-opacity:1; 
stroke-linecap:round; stroke-linejoin:round;">
<path style="fill:#000000; fill-opacity:1.0; 
stroke:#000000; stroke-width:1.000000; stroke-opacity:1; 
stroke-linecap:round; stroke-linejoin:round;fill-rule:evenodd;"
d="M 22120000.000000,21146250.000000
22138554.000000,21052971.000000
22191393.000000,20973893.000000
22270471.000000,20921054.000000
22363750.000000,20902500.000000
22851250.000000,20902500.000000
22944529.000000,20921054.000000
23023607.000000,20973893.000000
23076446.000000,21052971.000000
23095000.000000,21146250.000000
23095000.000000,22058750.000000
23076446.000000,22152029.000000
23023607.000000,22231107.000000
22944529.000000,22283946.000000
22851250.000000,22302500.000000
22363750.000000,22302500.000000
22270471.000000,22283946.000000
22191393.000000,22231107.000000
22138554.000000,22152029.000000
22120000.000000,22058750.000000
Z" /> 
<path style="fill:#000000; fill-opacity:1.0; 
stroke:#000000; stroke-width:1.000000; stroke-opacity:1; 
stroke-linecap:round; stroke-linejoin:round;fill-rule:evenodd;"
d="M 23995000.000000,21146250.000000
24013554.000000,21052971.000000
24066393.000000,20973893.000000
24145471.000000,20921054.000000
24238750.000000,20902500.000000
24726250.000000,20902500.000000
24819529.000000,20921054.000000
24898607.000000,20973893.000000
24951446.000000,21052971.000000
24970000.000000,21146250.000000
24970000.000000,22058750.000000
24951446.000000,22152029.000000
24898607.000000,22231107.000000
24819529.000000,22283946.000000
24726250.000000,22302500.000000
24238750.000000,22302500.000000
24145471.000000,22283946.000000
24066393.000000,22231107.000000
24013554.000000,22152029.000000
23995000.000000,22058750.000000
Z" /> 
</g>
<g >
</g>
<g style="fill:#000000; fill-opacity:1.0; 
stroke:#000000; stroke-width:1.000000; stroke-opacity:1; 
stroke-linecap:round; stroke-linejoin:round;">
<path style="fill:#000000; fill-opacity:1.0; 
stroke:#000000; stroke-width:1.000000; stroke-opacity:1; 
stroke-linecap:round; stroke-linejoin:round;fill-rule:evenodd;"
d="M 15135000.000000,16066250.000000
15153554.000000,15972971.000000
15206393.000000,15893893.000000
15285471.000000,15841054.000000
15378750.000000,15822500.000000
15866250.000000,15822500.000000
15959529.000000,15841054.000000
16038607.000000,15893893.000000
16091446.000000,15972971.000000
16110000.000000,16066250.000000
16110000.000000,16978750.000000
16091446.000000,17072029.000000
16038607.000000,17151107.000000
15959529.000000,17203946.000000
15866250.000000,17222500.000000
15378750.000000,17222500.000000
15285471.000000,17203946.000000
15206393.000000,17151107.000000
15153554.000000,17072029.000000
15135000.000000,16978750.000000
Z" /> 
<path style="fill:#000000; fill-opacity:1.0; 
stroke:#000000; stroke-width:1.000000; stroke-opacity:1; 
stroke-linecap:round; stroke-linejoin:round;fill-rule:evenodd;"
d="M 17010000.000000,16066250.000000
17028554.000000,15972971.000000
17081393.000000,15893893.000000
17160471.000000,15841054.000000
17253750.000000,15822500.000000
17741250.000000,15822500.000000
17834529.000000,15841054.000000
17913607.000000,15893893.000000
17966446.000000,15972971.000000
17985000.000000,16066250.000000
17985000.000000,16978750.000000
17966446.000000,17072029.000000
17913607.000000,17151107.000000
17834529.000000,17203946.000000
17741250.000000,17222500.000000
17253750.000000,17222500.000000
17160471.000000,17203946.000000
17081393.000000,17151107.000000
17028554.000000,17072029.000000
17010000.000000,16978750.000000
Z" /> 
</g>
<g >
</g>
<g style="fill:#000000; fill-opacity:1.0; 
stroke:#000000; stroke-width:1.000000; stroke-opacity:1; 
stroke-linecap:round; stroke-linejoin:round;">
<path style="fill:#000000; fill-opacity:1.0; 
stroke:#000000; stroke-width:1.000000; stroke-opacity:1; 
stroke-linecap:round; stroke-linejoin:round;fill-rule:evenodd;"
d="M 11000000.000000,27138750.000000
10981446.000000,27232029.000000
10928607.000000,27311107.000000
10849529.000000,27363946.000000
10756250.000000,27382500.000000
10268750.000000,27382500.000000
10175471.000000,27363946.000000
10096393.000000,27311107.000000
10043554.000000,27232029.000000
10025000.000000,27138750.000000
10025000.000000,26226250.000000
10043554.000000,26132971.000000
10096393.000000,26053893.000000
10175471.000000,26001054.000000
10268750.000000,25982500.000000
10756250.000000,25982500.000000
10849529.000000,26001054.000000
10928607.000000,26053893.000000
10981446.000000,26132971.000000
11000000.000000,26226250.000000
Z" /> 
<path style="fill:#000000; fill-opacity:1.0; 
stroke:#000000; stroke-width:1.000000; stroke-opacity:1; 
stroke-linecap:round; stroke-linejoin:round;fill-rule:evenodd;"
d="M 9125000.000000,27138750.000000
9106446.000000,27232029.000000
9053607.000000,27311107.000000
8974529.000000,27363946.000000
8881250.000000,27382500.000000
8393750.000000,27382500.000000
8300471.000000,27363946.000000
8221393.000000,27311107.000000
8168554.000000,27232029.000000
8150000.000000,27138750.000000
8150000.000000,26226250.000000
8168554.000000,26132971.000000
8221393.000000,26053893.000000
8300471.000000,26001054.000000
8393750.000000,25982500.000000
8881250.000000,25982500.000000
8974529.000000,26001054.000000
9053607.000000,26053893.000000
9106446.000000,26132971.000000
9125000.000000,26226250.000000
Z" /> 
</g>
<g >
</g>
<g style="fill:#000000; fill-opacity:1.0; 
stroke:#000000; stroke-width:1.000000; stroke-opacity:1; 
stroke-linecap:round; stroke-linejoin:round;">
<path style="fill:#000000; fill-opacity:1.0; 
stroke:#000000; stroke-width:1.000000; stroke-opacity:1; 
stroke-linecap:round; stroke-linejoin:round;fill-rule:evenodd;"
d="M 11625000.000000,4877500.000000
11625000.000000,6577500.000000
9925000.000000,6577500.000000
9925000.000000,4877500.000000
Z" /> 
<circle cx="10775000.000000" cy="3187500.000000" r="850000.000000" /> 
</g>
<g >
</g>
<g style="fill:#000000; fill-opacity:1.0; 
stroke:#000000; stroke-width:1.000000; stroke-opacity:1; 
stroke-linecap:round; stroke-linejoin:round;">
<path style="fill:#000000; fill-opacity:1.0; 
stroke:#000000; stroke-width:1.000000; stroke-opacity:1; 
stroke-linecap:round; stroke-linejoin:round;fill-rule:evenodd;"
d="M 8150000.000000,10986250.000000
8168554.000000,10892971.000000
8221393.000000,10813893.000000
8300471.000000,10761054.000000
8393750.000000,10742500.000000
8881250.000000,10742500.000000
8974529.000000,10761054.000000
9053607.000000,10813893.000000
9106446.000000,10892971.000000
9125000.000000,10986250.000000
9125000.000000,11898750.000000
9106446.000000,11992029.000000
9053607.000000,12071107.000000
8974529.000000,12123946.000000
8881250.000000,12142500.000000
8393750.000000,12142500.000000
8300471.000000,12123946.000000
8221393.000000,12071107.000000
8168554.000000,11992029.000000
8150000.000000,11898750.000000
Z" /> 
<path style="fill:#000000; fill-opacity:1.0; 
stroke:#000000; stroke-width:1.000000; stroke-opacity:1; 
stroke-linecap:round; stroke-linejoin:round;fill-rule:evenodd;"
d="M 10025000.000000,10986250.000000
10043554.000000,10892971.000000
10096393.000000,10813893.000000
10175471.000000,10761054.000000
10268750.000000,10742500.000000
10756250.000000,10742500.000000
10849529.000000,10761054.000000
10928607.000000,10813893.000000
10981446.000000,10892971.000000
11000000.000000,10986250.000000
11000000.000000,11898750.000000
10981446.000000,11992029.000000
10928607.000000,12071107.000000
10849529.000000,12123946.000000
10756250.000000,12142500.000000
10268750.000000,12142500.000000
10175471.000000,12123946.000000
10096393.000000,12071107.000000
10043554.000000,11992029.000000
10025000.000000,11898750.000000
Z" /> 
</g>
<g >
</g>
<g style="fill:#000000; fill-opacity:1.0; 
stroke:#000000; stroke-width:1.000000; stroke-opacity:1; 
stroke-linecap:round; stroke-linejoin:round;">
<path style="fill:#000000; fill-opacity:1.0; 
stroke:#000000; stroke-width:1.000000; stroke-opacity:1; 
stroke-linecap:round; stroke-linejoin:round;fill-rule:evenodd;"
d="M 17985000.000000,22058750.000000
17966446.000000,22152029.000000
17913607.000000,22231107.000000
17834529.000000,22283946.000000
17741250.000000,22302500.000000
17253750.000000,22302500.000000
17160471.000000,22283946.000000
17081393.000000,22231107.000000
17028554.000000,22152029.000000
17010000.000000,22058750.000000
17010000.000000,21146250.000000
17028554.000000,21052971.000000
17081393.000000,20973893.000000
17160471.000000,20921054.000000
17253750.000000,20902500.000000
17741250.000000,20902500.000000
17834529.000000,20921054.000000
17913607.000000,20973893.000000
17966446.000000,21052971.000000
17985000.000000,21146250.000000
Z" /> 
<path style="fill:#000000; fill-opacity:1.0; 
stroke:#000000; stroke-width:1.000000; stroke-opacity:1; 
stroke-linecap:round; stroke-linejoin:round;fill-rule:evenodd;"
d="M 16110000.000000,22058750.000000
16091446.000000,22152029.000000
16038607.000000,22231107.000000
15959529.000000,22283946.000000
15866250.000000,22302500.000000
15378750.000000,22302500.000000
15285471.000000,22283946.000000
15206393.000000,22231107.000000
15153554.000000,22152029.000000
15135000.000000,22058750.000000
15135000.000000,21146250.000000
15153554.000000,21052971.000000
15206393.000000,20973893.000000
15285471.000000,20921054.000000
15378750.000000,20902500.000000
15866250.000000,20902500.000000
15959529.000000,20921054.000000
16038607.000000,20973893.000000
16091446.000000,21052971.000000
16110000.000000,21146250.000000
Z" /> 
</g>
<g >
</g>
<g style="fill:#000000; fill-opacity:1.0; 
stroke:#000000; stroke-width:1.000000; stroke-opacity:1; 
stroke-linecap:round; stroke-linejoin:round;">
<path style="fill:#000000; fill-opacity:1.0; 
stroke:#000000; stroke-width:1.000000; stroke-opacity:1; 
stroke-linecap:round; stroke-linejoin:round;fill-rule:evenodd;"
d="M 4650000.000000,22058750.000000
4631446.000000,22152029.000000
4578607.000000,22231107.000000
4499529.000000,22283946.000000
4406250.000000,22302500.000000
3918750.000000,22302500.000000
3825471.000000,22283946.000000
3746393.000000,22231107.000000
3693554.000000,22152029.000000
3675000.000000,22058750.000000
3675000.000000,21146250.000000
3693554.000000,21052971.000000
3746393.000000,20973893.000000
3825471.000000,20921054.000000
3918750.000000,20902500.000000
4406250.000000,20902500.000000
4499529.000000,20921054.000000
4578607.000000,20973893.000000
4631446.000000,21052971.000000
4650000.000000,21146250.000000
Z" /> 
<path style="fill:#000000; fill-opacity:1.0; 
stroke:#000000; stroke-width:1.000000; stroke-opacity:1; 
stroke-linecap:round; stroke-linejoin:round;fill-rule:evenodd;"
d="M 2775000.000000,22058750.000000
2756446.000000,22152029.000000
2703607.000000,22231107.000000
2624529.000000,22283946.000000
2531250.000000,22302500.000000
2043750.000000,22302500.000000
1950471.000000,22283946.000000
1871393.000000,22231107.000000
1818554.000000,22152029.000000
1800000.000000,22058750.000000
1800000.000000,21146250.000000
1818554.000000,21052971.000000
1871393.000000,20973893.000000
1950471.000000,20921054.000000
2043750.000000,20902500.000000
2531250.000000,20902500.000000
2624529.000000,20921054.000000
2703607.000000,20973893.000000
2756446.000000,21052971.000000
2775000.000000,21146250.000000
Z" /> 
</g>
<g >
</g>
<g style="fill:#000000; fill-opacity:1.0; 
stroke:#000000; stroke-width:1.000000; stroke-opacity:1; 
stroke-linecap:round; stroke-linejoin:round;">
<path style="fill:#000000; fill-opacity:1.0; 
stroke:#000000; stroke-width:1.000000; stroke-opacity:1; 
stroke-linecap:round; stroke-linejoin:round;fill-rule:evenodd;"
d="M 17985000.000000,11898750.000000
17966446.000000,11992029.000000
17913607.000000,12071107.000000
17834529.000000,12123946.000000
17741250.000000,12142500.000000
17253750.000000,12142500.000000
17160471.000000,12123946.000000
17081393.000000,12071107.000000
17028554.000000,11992029.000000
17010000.000000,11898750.000000
17010000.000000,10986250.000000
17028554.000000,10892971.000000
17081393.000000,10813893.000000
17160471.000000,10761054.000000
17253750.000000,10742500.000000
17741250.000000,10742500.000000
17834529.000000,10761054.000000
17913607.000000,10813893.000000
17966446.000000,10892971.000000
17985000.000000,10986250.000000
Z" /> 
<path style="fill:#000000; fill-opacity:1.0; 
stroke:#000000; stroke-width:1.000000; stroke-opacity:1; 
stroke-linecap:round; stroke-linejoin:round;fill-rule:evenodd;"
d="M 16110000.000000,11898750.000000
16091446.000000,11992029.000000
16038607.000000,12071107.000000
15959529.000000,12123946.000000
15866250.000000,12142500.000000
15378750.000000,12142500.000000
15285471.000000,12123946.000000
15206393.000000,12071107.000000
15153554.000000,11992029.000000
15135000.000000,11898750.000000
15135000.000000,10986250.000000
15153554.000000,10892971.000000
15206393.000000,10813893.000000
15285471.000000,10761054.000000
15378750.000000,10742500.000000
15866250.000000,10742500.000000
15959529.000000,10761054.000000
16038607.000000,10813893.000000
16091446.000000,10892971.000000
16110000.000000,10986250.000000
Z" /> 
</g>
<g >
</g>
<g style="fill:#000000; fill-opacity:1.0; 
stroke:#000000; stroke-width:1.000000; stroke-opacity:1; 
stroke-linecap:round; stroke-linejoin:round;">
<path style="fill:#000000; fill-opacity:1.0; 
stroke:#000000; stroke-width:1.000000; stroke-opacity:1; 
stroke-linecap:round; stroke-linejoin:round;fill-rule:evenodd;"
d="M 15135000.000000,26226250.000000
15153554.000000,26132971.000000
15206393.000000,26053893.000000
15285471.000000,26001054.000000
15378750.000000,25982500.000000
15866250.000000,25982500.000000
15959529.000000,26001054.000000
16038607.000000,26053893.000000
16091446.000000,26132971.000000
16110000.000000,26226250.000000
16110000.000000,27138750.000000
16091446.000000,27232029.000000
16038607.000000,27311107.000000
15959529.000000,27363946.000000
15866250.000000,27382500.000000
15378750.000000,27382500.000000
15285471.000000,27363946.000000
15206393.000000,27311107.000000
15153554.000000,27232029.000000
15135000.000000,27138750.000000
Z" /> 
<path style="fill:#000000; fill-opacity:1.0; 
stroke:#000000; stroke-width:1.000000; stroke-opacity:1; 
stroke-linecap:round; stroke-linejoin:round;fill-rule:evenodd;"
d="M 17010000.000000,26226250.000000
17028554.000000,26132971.000000
17081393.000000,26053893.000000
17160471.000000,26001054.000000
17253750.000000,25982500.000000
17741250.000000,25982500.000000
17834529.000000,26001054.000000
17913607.000000,26053893.000000
17966446.000000,26132971.000000
17985000.000000,26226250.000000
17985000.000000,27138750.000000
17966446.000000,27232029.000000
17913607.000000,27311107.000000
17834529.000000,27363946.000000
17741250.000000,27382500.000000
17253750.000000,27382500.000000
17160471.000000,27363946.000000
17081393.000000,27311107.000000
17028554.000000,27232029.000000
17010000.000000,27138750.000000
Z" /> 
</g>
<g >
</g>
<g style="fill:#000000; fill-opacity:1.0; 
stroke:#000000; stroke-width:1.000000; stroke-opacity:1; 
stroke-linecap:round; stroke-linejoin:round;">
<path style="fill:#000000; fill-opacity:1.0; 
stroke:#000000; stroke-width:1.000000; stroke-opacity:1; 
stroke-linecap:round; stroke-linejoin:round;fill-rule:evenodd;"
d="M 11000000.000000,16978750.000000
10981446.000000,17072029.000000
10928607.000000,17151107.000000
10849529.000000,17203946.000000
10756250.000000,17222500.000000
10268750.000000,17222500.000000
10175471.000000,17203946.000000
10096393.000000,17151107.000000
10043554.000000,17072029.000000
10025000.000000,16978750.000000
10025000.000000,16066250.000000
10043554.000000,15972971.000000
10096393.000000,15893893.000000
10175471.000000,15841054.000000
10268750.000000,15822500.000000
10756250.000000,15822500.000000
10849529.000000,15841054.000000
10928607.000000,15893893.000000
10981446.000000,15972971.000000
11000000.000000,16066250.000000
Z" /> 
<path style="fill:#000000; fill-opacity:1.0; 
stroke:#000000; stroke-width:1.000000; stroke-opacity:1; 
stroke-linecap:round; stroke-linejoin:round;fill-rule:evenodd;"
d="M 9125000.000000,16978750.000000
9106446.000000,17072029.000000
9053607.000000,17151107.000000
8974529.000000,17203946.000000
8881250.000000,17222500.000000
8393750.000000,17222500.000000
8300471.000000,17203946.000000
8221393.000000,17151107.000000
8168554.000000,17072029.000000
8150000.000000,16978750.000000
8150000.000000,16066250.000000
8168554.000000,15972971.000000
8221393.000000,15893893.000000
8300471.000000,15841054.000000
8393750.000000,15822500.000000
8881250.000000,15822500.000000
8974529.000000,15841054.000000
9053607.000000,15893893.000000
9106446.000000,15972971.000000
9125000.000000,16066250.000000
Z" /> 
</g>
<g >
</g>
<g style="fill:#000000; fill-opacity:1.0; 
stroke:#000000; stroke-width:1.000000; stroke-opacity:1; 
stroke-linecap:round; stroke-linejoin:round;">
<path style="fill:#000000; fill-opacity:1.0; 
stroke:#000000; stroke-width:1.000000; stroke-opacity:1; 
stroke-linecap:round; stroke-linejoin:round;fill-rule:evenodd;"
d="M 32518400.000000,13417500.000000
32518400.000000,14617500.000000
31318400.000000,14617500.000000
31318400.000000,13417500.000000
Z" /> 
<circle cx="29918400.000000" cy="14017500.000000" r="600000.000000" /> 
</g>
<g style="fill:#000000; fill-opacity:1.0; 
stroke:#000000; stroke-width:21200.000000; stroke-opacity:1; 
stroke-linecap:round; stroke-linejoin:round;">
</g>
<g >
</g>
<g style="fill:#000000; fill-opacity:1.0; 
stroke:#000000; stroke-width:21200.000000; stroke-opacity:1; 
stroke-linecap:round; stroke-linejoin:round;">
</g>
<g style="fill:#000000; fill-opacity:1.0; 
stroke:#000000; stroke-width:1.000000; stroke-opacity:1; 
stroke-linecap:round; stroke-linejoin:round;">
<path style="fill:#000000; fill-opacity:1.0; 
stroke:#000000; stroke-width:1.000000; stroke-opacity:1; 
stroke-linecap:round; stroke-linejoin:round;fill-rule:evenodd;"
d="M 1800000.000000,16066250.000000
1818554.000000,15972971.000000
1871393.000000,15893893.000000
1950471.000000,15841054.000000
2043750.000000,15822500.000000
2531250.000000,15822500.000000
2624529.000000,15841054.000000
2703607.000000,15893893.000000
2756446.000000,15972971.000000
2775000.000000,16066250.000000
2775000.000000,16978750.000000
2756446.000000,17072029.000000
2703607.000000,17151107.000000
2624529.000000,17203946.000000
2531250.000000,17222500.000000
2043750.000000,17222500.000000
1950471.000000,17203946.000000
1871393.000000,17151107.000000
1818554.000000,17072029.000000
1800000.000000,16978750.000000
Z" /> 
<path style="fill:#000000; fill-opacity:1.0; 
stroke:#000000; stroke-width:1.000000; stroke-opacity:1; 
stroke-linecap:round; stroke-linejoin:round;fill-rule:evenodd;"
d="M 3675000.000000,16066250.000000
3693554.000000,15972971.000000
3746393.000000,15893893.000000
3825471.000000,15841054.000000
3918750.000000,15822500.000000
4406250.000000,15822500.000000
4499529.000000,15841054.000000
4578607.000000,15893893.000000
4631446.000000,15972971.000000
4650000.000000,16066250.000000
4650000.000000,16978750.000000
4631446.000000,17072029.000000
4578607.000000,17151107.000000
4499529.000000,17203946.000000
4406250.000000,17222500.000000
3918750.000000,17222500.000000
3825471.000000,17203946.000000
3746393.000000,17151107.000000
3693554.000000,17072029.000000
3675000.000000,16978750.000000
Z" /> 
</g>
<g >
</g>
<g style="fill:#000000; fill-opacity:1.0; 
stroke:#000000; stroke-width:1.000000; stroke-opacity:1; 
stroke-linecap:round; stroke-linejoin:round;">
<path style="fill:#000000; fill-opacity:1.0; 
stroke:#000000; stroke-width:1.000000; stroke-opacity:1; 
stroke-linecap:round; stroke-linejoin:round;fill-rule:evenodd;"
d="M 24970000.000000,27138750.000000
24951446.000000,27232029.000000
24898607.000000,27311107.000000
24819529.000000,27363946.000000
24726250.000000,27382500.000000
24238750.000000,27382500.000000
24145471.000000,27363946.000000
24066393.000000,27311107.000000
24013554.000000,27232029.000000
23995000.000000,27138750.000000
23995000.000000,26226250.000000
24013554.000000,26132971.000000
24066393.000000,26053893.000000
24145471.000000,26001054.000000
24238750.000000,25982500.000000
24726250.000000,25982500.000000
24819529.000000,26001054.000000
24898607.000000,26053893.000000
24951446.000000,26132971.000000
24970000.000000,26226250.000000
Z" /> 
<path style="fill:#000000; fill-opacity:1.0; 
stroke:#000000; stroke-width:1.000000; stroke-opacity:1; 
stroke-linecap:round; stroke-linejoin:round;fill-rule:evenodd;"
d="M 23095000.000000,27138750.000000
23076446.000000,27232029.000000
23023607.000000,27311107.000000
22944529.000000,27363946.000000
22851250.000000,27382500.000000
22363750.000000,27382500.000000
22270471.000000,27363946.000000
22191393.000000,27311107.000000
22138554.000000,27232029.000000
22120000.000000,27138750.000000
22120000.000000,26226250.000000
22138554.000000,26132971.000000
22191393.000000,26053893.000000
22270471.000000,26001054.000000
22363750.000000,25982500.000000
22851250.000000,25982500.000000
22944529.000000,26001054.000000
23023607.000000,26053893.000000
23076446.000000,26132971.000000
23095000.000000,26226250.000000
Z" /> 
</g>
<g >
</g>
<g style="fill:#000000; fill-opacity:1.0; 
stroke:#000000; stroke-width:1.000000; stroke-opacity:1; 
stroke-linecap:round; stroke-linejoin:round;">
<circle cx="33024872.000000" cy="3812372.000000" r="800000.000000" /> 
</g>
<g style="fill:#000000; fill-opacity:1.0; 
stroke:#000000; stroke-width:21200.000000; stroke-opacity:1; 
stroke-linecap:round; stroke-linejoin:round;">
</g>
<g style="fill:#000000; fill-opacity:1.0; 
stroke:#000000; stroke-width:1.000000; stroke-opacity:1; 
stroke-linecap:round; stroke-linejoin:round;">
<circle cx="42005128.000000" cy="12792628.000000" r="800000.000000" /> 
</g>
<g >
</g>
<g style="fill:#000000; fill-opacity:1.0; 
stroke:#000000; stroke-width:1.000000; stroke-opacity:1; 
stroke-linecap:round; stroke-linejoin:round;">
<path style="fill:#000000; fill-opacity:1.0; 
stroke:#000000; stroke-width:1.000000; stroke-opacity:1; 
stroke-linecap:round; stroke-linejoin:round;fill-rule:evenodd;"
d="M 22120000.000000,10986250.000000
22138554.000000,10892971.000000
22191393.000000,10813893.000000
22270471.000000,10761054.000000
22363750.000000,10742500.000000
22851250.000000,10742500.000000
22944529.000000,10761054.000000
23023607.000000,10813893.000000
23076446.000000,10892971.000000
23095000.000000,10986250.000000
23095000.000000,11898750.000000
23076446.000000,11992029.000000
23023607.000000,12071107.000000
22944529.000000,12123946.000000
22851250.000000,12142500.000000
22363750.000000,12142500.000000
22270471.000000,12123946.000000
22191393.000000,12071107.000000
22138554.000000,11992029.000000
22120000.000000,11898750.000000
Z" /> 
<path style="fill:#000000; fill-opacity:1.0; 
stroke:#000000; stroke-width:1.000000; stroke-opacity:1; 
stroke-linecap:round; stroke-linejoin:round;fill-rule:evenodd;"
d="M 23995000.000000,10986250.000000
24013554.000000,10892971.000000
24066393.000000,10813893.000000
24145471.000000,10761054.000000
24238750.000000,10742500.000000
24726250.000000,10742500.000000
24819529.000000,10761054.000000
24898607.000000,10813893.000000
24951446.000000,10892971.000000
24970000.000000,10986250.000000
24970000.000000,11898750.000000
24951446.000000,11992029.000000
24898607.000000,12071107.000000
24819529.000000,12123946.000000
24726250.000000,12142500.000000
24238750.000000,12142500.000000
24145471.000000,12123946.000000
24066393.000000,12071107.000000
24013554.000000,11992029.000000
23995000.000000,11898750.000000
Z" /> 
</g>
<g >
</g>
<g style="fill:#000000; fill-opacity:1.0; 
stroke:#000000; stroke-width:1.000000; stroke-opacity:1; 
stroke-linecap:round; stroke-linejoin:round;">
<path style="fill:#000000; fill-opacity:1.0; 
stroke:#000000; stroke-width:1.000000; stroke-opacity:1; 
stroke-linecap:round; stroke-linejoin:round;fill-rule:evenodd;"
d="M 24970000.000000,16978750.000000
24951446.000000,17072029.000000
24898607.000000,17151107.000000
24819529.000000,17203946.000000
24726250.000000,17222500.000000
24238750.000000,17222500.000000
24145471.000000,17203946.000000
24066393.000000,17151107.000000
24013554.000000,17072029.000000
23995000.000000,16978750.000000
23995000.000000,16066250.000000
24013554.000000,15972971.000000
24066393.000000,15893893.000000
24145471.000000,15841054.000000
24238750.000000,15822500.000000
24726250.000000,15822500.000000
24819529.000000,15841054.000000
24898607.000000,15893893.000000
24951446.000000,15972971.000000
24970000.000000,16066250.000000
Z" /> 
<path style="fill:#000000; fill-opacity:1.0; 
stroke:#000000; stroke-width:1.000000; stroke-opacity:1; 
stroke-linecap:round; stroke-linejoin:round;fill-rule:evenodd;"
d="M 23095000.000000,16978750.000000
23076446.000000,17072029.000000
23023607.000000,17151107.000000
22944529.000000,17203946.000000
22851250.000000,17222500.000000
22363750.000000,17222500.000000
22270471.000000,17203946.000000
22191393.000000,17151107.000000
22138554.000000,17072029.000000
22120000.000000,16978750.000000
22120000.000000,16066250.000000
22138554.000000,15972971.000000
22191393.000000,15893893.000000
22270471.000000,15841054.000000
22363750.000000,15822500.000000
22851250.000000,15822500.000000
22944529.000000,15841054.000000
23023607.000000,15893893.000000
23076446.000000,15972971.000000
23095000.000000,16066250.000000
Z" /> 
</g>
<g >
</g>
<g style="fill:#000000; fill-opacity:1.0; 
stroke:#000000; stroke-width:1.000000; stroke-opacity:1; 
stroke-linecap:round; stroke-linejoin:round;">
<path style="fill:#000000; fill-opacity:1.0; 
stroke:#000000; stroke-width:1.000000; stroke-opacity:1; 
stroke-linecap:round; stroke-linejoin:round;fill-rule:evenodd;"
d="M 8150000.000000,21146250.000000
8168554.000000,21052971.000000
8221393.000000,20973893.000000
8300471.000000,20921054.000000
8393750.000000,20902500.000000
8881250.000000,20902500.000000
8974529.000000,20921054.000000
9053607.000000,20973893.000000
9106446.000000,21052971.000000
9125000.000000,21146250.000000
9125000.000000,22058750.000000
9106446.000000,22152029.000000
9053607.000000,22231107.000000
8974529.000000,22283946.000000
8881250.000000,22302500.000000
8393750.000000,22302500.000000
8300471.000000,22283946.000000
8221393.000000,22231107.000000
8168554.000000,22152029.000000
8150000.000000,22058750.000000
Z" /> 
<path style="fill:#000000; fill-opacity:1.0; 
stroke:#000000; stroke-width:1.000000; stroke-opacity:1; 
stroke-linecap:round; stroke-linejoin:round;fill-rule:evenodd;"
d="M 10025000.000000,21146250.000000
10043554.000000,21052971.000000
10096393.000000,20973893.000000
10175471.000000,20921054.000000
10268750.000000,20902500.000000
10756250.000000,20902500.000000
10849529.000000,20921054.000000
10928607.000000,20973893.000000
10981446.000000,21052971.000000
11000000.000000,21146250.000000
11000000.000000,22058750.000000
10981446.000000,22152029.000000
10928607.000000,22231107.000000
10849529.000000,22283946.000000
10756250.000000,22302500.000000
10268750.000000,22302500.000000
10175471.000000,22283946.000000
10096393.000000,22231107.000000
10043554.000000,22152029.000000
10025000.000000,22058750.000000
Z" /> 
</g>
<g >
</g>
<g >
</g>
<g style="fill:#000000; fill-opacity:1.0; 
stroke:#000000; stroke-width:1.000000; stroke-opacity:1; 
stroke-linecap:round; stroke-linejoin:round;">
</g>
<g style="fill:#000000; fill-opacity:1.0; 
stroke:#000000; stroke-width:500000.000000; stroke-opacity:1; 
stroke-linecap:round; stroke-linejoin:round;">
</g>
<g style="fill:#000000; fill-opacity:0.0; 
stroke:#000000; stroke-width:500000.000000; stroke-opacity:1; 
stroke-linecap:round; stroke-linejoin:round;">
<path d="M33080000 24187500
L37525000 24187500
" />
<path d="M23545000 3857500
L16560000 3857500
" />
<path d="M31918400 23025900
L33080000 24187500
" />
<path d="M29905000 21647500
L31810000 21647500
" />
<path d="M31918400 21755900
L31918400 23025900
" />
<path d="M31918400 14017500
L31918400 21755900
" />
<path d="M31918400 12230900
L23545000 3857500
" />
<path d="M31918400 14017500
L31918400 12230900
" />
<path d="M31810000 21647500
L31918400 21755900
" />
<path d="M6400000 4492500
L6400000 8937500
" />
<path d="M29918400 11500900
L25450000 7032500
" />
<path d="M10775000 3187500
L7705000 3187500
" />
<path d="M29905000 14030900
L29918400 14017500
" />
<path d="M25450000 7032500
L15290000 7032500
" />
<path d="M6400000 8937500
L6400000 11407500
" />
<path d="M13385000 8937500
L6400000 8937500
" />
<path d="M6435000 11442500
L8637500 11442500
" />
<path d="M6400000 11407500
L6435000 11442500
" />
<path d="M29918400 14017500
L29918400 11500900
" />
<path d="M4162500 11442500
L6435000 11442500
" />
<path d="M15290000 7032500
L13385000 8937500
" />
<path d="M7705000 3187500
L6400000 4492500
" />
<path d="M29905000 19107500
L29905000 14030900
" />
<path d="M10512500 16522500
L10512500 11442500
" />
<path d="M2287500 11442500
L2287500 16522500
" />
<path d="M8637500 16522500
L8637500 21602500
" />
<path d="M10512500 21602500
L10512500 26682500
" />
<path d="M2287500 21602500
L2287500 26682500
" />
<path d="M4162500 16522500
L4162500 21602500
" />
<path d="M37525000 21647500
L40680000 21647500
" />
<path d="M34975000 1952500
L29895000 1952500
" />
<path d="M40680000 21647500
L42005128 20322372
" />
<path d="M42005128 8982628
L34975000 1952500
" />
<path d="M42005128 12792628
L42005128 8982628
" />
<path d="M42005128 20322372
L42005128 12792628
" />
<path d="M29895000 1952500
L29260000 2587500
" />
<path d="M29260000 2587500
L29260000 3857500
" />
<path d="M13385000 27987500
L13385000 10207500
" />
<path d="M28000000 24187500
L26720000 22907500
" />
<path d="M20370000 11407500
L20370000 8302500
" />
<path d="M6435000 26682500
L6400000 26717500
" />
<path d="M20370000 8302500
L25450000 8302500
" />
<path d="M17497500 11442500
L20405000 11442500
" />
<path d="M4162500 26682500
L6435000 26682500
" />
<path d="M6400000 27987500
L7670000 29257500
" />
<path d="M29905000 24187500
L28000000 24187500
" />
<path d="M7670000 29257500
L12115000 29257500
" />
<path d="M25450000 8302500
L26720000 9572500
" />
<path d="M6400000 26717500
L6400000 27987500
" />
<path d="M20405000 11442500
L22607500 11442500
" />
<path d="M13385000 10207500
L15290000 8302500
" />
<path d="M20405000 11442500
L20370000 11407500
" />
<path d="M12115000 29257500
L13385000 27987500
" />
<path d="M15290000 8302500
L20370000 8302500
" />
<path d="M26720000 9572500
L26720000 22907500
" />
<path d="M6435000 26682500
L8637500 26682500
" />
<path d="M24482500 16522500
L24482500 11442500
" />
<path d="M15622500 11442500
L15622500 16522500
" />
<path d="M22607500 16522500
L22607500 21602500
" />
<path d="M17497500 16522500
L17497500 21602500
" />
<path d="M24482500 21602500
L24482500 26682500
" />
<path d="M15622500 21602500
L15622500 26682500
" />
<path d="M10775000 5727500
L12785000 5727500
" />
<path d="M39420000 22907500
L34975000 22907500
" />
<path d="M14020000 3222500
L15290000 1952500
" />
<path d="M40055000 27987500
L40055000 23542500
" />
<path d="M33024872 7622372
L33024872 3812372
" />
<path d="M29905000 26727500
L29905000 28612500
" />
<path d="M37525000 19107500
L34350000 19107500
" />
<path d="M20335000 26682500
L22607500 26682500
" />
<path d="M29260000 29257500
L21005000 29257500
" />
<path d="M34340000 19097500
L34340000 10842500
" />
<path d="M40055000 23542500
L39420000 22907500
" />
<path d="M14020000 4492500
L14020000 3222500
" />
<path d="M32455000 26727500
L34350000 28622500
" />
<path d="M20335000 28587500
L20335000 26682500
" />
<path d="M29905000 28612500
L29260000 29257500
" />
<path d="M34340000 22272500
L34340000 19097500
" />
<path d="M24180000 1952500
L33070000 10842500
" />
<path d="M33070000 10842500
L34340000 10842500
" />
<path d="M29905000 26727500
L32455000 26727500
" />
<path d="M12785000 5727500
L14020000 4492500
" />
<path d="M34340000 8937500
L33024872 7622372
" />
<path d="M34340000 10842500
L34340000 8937500
" />
<path d="M34350000 28622500
L39420000 28622500
" />
<path d="M34350000 19107500
L34340000 19097500
" />
<path d="M34975000 22907500
L34340000 22272500
" />
<path d="M15290000 1952500
L24180000 1952500
" />
<path d="M39420000 28622500
L40055000 27987500
" />
<path d="M21005000 29257500
L20335000 28587500
" />
<path d="M17497500 26682500
L20335000 26682500
" />
</g>
<g >
</g>
</g>
<g style="fill:#FFFFFF; fill-opacity:0.0; 
stroke:#FFFFFF; stroke-width:500000.000000; stroke-opacity:1; 
stroke-linecap:round; stroke-linejoin:round;">
</g>
<g style="fill:#FFFFFF; fill-opacity:1.0; 
stroke:#FFFFFF; stroke-width:1.000000; stroke-opacity:1; 
stroke-linecap:round; stroke-linejoin:round;">
<circle cx="29260000.000000" cy="3857500.000000" r="400000.000000" /> 
</g>
<g style="fill:#FFFFFF; fill-opacity:1.0; 
stroke:#FFFFFF; stroke-width:21200.000000; stroke-opacity:1; 
stroke-linecap:round; stroke-linejoin:round;">
</g>
<g style="fill:#FFFFFF; fill-opacity:1.0; 
stroke:#FFFFFF; stroke-width:1.000000; stroke-opacity:1; 
stroke-linecap:round; stroke-linejoin:round;">
<circle cx="16560000.000000" cy="3857500.000000" r="400000.000000" /> 
</g>
<g style="fill:#FFFFFF; fill-opacity:1.0; 
stroke:#FFFFFF; stroke-width:21200.000000; stroke-opacity:1; 
stroke-linecap:round; stroke-linejoin:round;">
</g>
<g style="fill:#FFFFFF; fill-opacity:1.0; 
stroke:#FFFFFF; stroke-width:1.000000; stroke-opacity:1; 
stroke-linecap:round; stroke-linejoin:round;">
<circle cx="29905000.000000" cy="19107500.000000" r="400000.000000" /> 
</g>
<g style="fill:#FFFFFF; fill-opacity:1.0; 
stroke:#FFFFFF; stroke-width:21200.000000; stroke-opacity:1; 
stroke-linecap:round; stroke-linejoin:round;">
</g>
<g style="fill:#FFFFFF; fill-opacity:1.0; 
stroke:#FFFFFF; stroke-width:1.000000; stroke-opacity:1; 
stroke-linecap:round; stroke-linejoin:round;">
<circle cx="29905000.000000" cy="21647500.000000" r="400000.000000" /> 
</g>
<g style="fill:#FFFFFF; fill-opacity:1.0; 
stroke:#FFFFFF; stroke-width:21200.000000; stroke-opacity:1; 
stroke-linecap:round; stroke-linejoin:round;">
</g>
<g style="fill:#FFFFFF; fill-opacity:1.0; 
stroke:#FFFFFF; stroke-width:1.000000; stroke-opacity:1; 
stroke-linecap:round; stroke-linejoin:round;">
<circle cx="29905000.000000" cy="24187500.000000" r="400000.000000" /> 
</g>
<g style="fill:#FFFFFF; fill-opacity:1.0; 
stroke:#FFFFFF; stroke-width:21200.000000; stroke-opacity:1; 
stroke-linecap:round; stroke-linejoin:round;">
</g>
<g style="fill:#FFFFFF; fill-opacity:1.0; 
stroke:#FFFFFF; stroke-width:1.000000; stroke-opacity:1; 
stroke-linecap:round; stroke-linejoin:round;">
<circle cx="29905000.000000" cy="26727500.000000" r="400000.000000" /> 
</g>
<g style="fill:#FFFFFF; fill-opacity:1.0; 
stroke:#FFFFFF; stroke-width:21200.000000; stroke-opacity:1; 
stroke-linecap:round; stroke-linejoin:round;">
</g>
<g style="fill:#FFFFFF; fill-opacity:1.0; 
stroke:#FFFFFF; stroke-width:1.000000; stroke-opacity:1; 
stroke-linecap:round; stroke-linejoin:round;">
<circle cx="37525000.000000" cy="26727500.000000" r="400000.000000" /> 
</g>
<g style="fill:#FFFFFF; fill-opacity:1.0; 
stroke:#FFFFFF; stroke-width:21200.000000; stroke-opacity:1; 
stroke-linecap:round; stroke-linejoin:round;">
</g>
<g style="fill:#FFFFFF; fill-opacity:1.0; 
stroke:#FFFFFF; stroke-width:1.000000; stroke-opacity:1; 
stroke-linecap:round; stroke-linejoin:round;">
<circle cx="37525000.000000" cy="24187500.000000" r="400000.000000" /> 
</g>
<g style="fill:#FFFFFF; fill-opacity:1.0; 
stroke:#FFFFFF; stroke-width:21200.000000; stroke-opacity:1; 
stroke-linecap:round; stroke-linejoin:round;">
</g>
<g style="fill:#FFFFFF; fill-opacity:1.0; 
stroke:#FFFFFF; stroke-width:1.000000; stroke-opacity:1; 
stroke-linecap:round; stroke-linejoin:round;">
<circle cx="37525000.000000" cy="21647500.000000" r="400000.000000" /> 
</g>
<g style="fill:#FFFFFF; fill-opacity:1.0; 
stroke:#FFFFFF; stroke-width:21200.000000; stroke-opacity:1; 
stroke-linecap:round; stroke-linejoin:round;">
</g>
<g style="fill:#FFFFFF; fill-opacity:1.0; 
stroke:#FFFFFF; stroke-width:1.000000; stroke-opacity:1; 
stroke-linecap:round; stroke-linejoin:round;">
<circle cx="37525000.000000" cy="19107500.000000" r="400000.000000" /> 
</g>
<g style="fill:#FFFFFF; fill-opacity:1.0; 
stroke:#FFFFFF; stroke-width:21200.000000; stroke-opacity:1; 
stroke-linecap:round; stroke-linejoin:round;">
</g>
<g style="fill:#FFFFFF; fill-opacity:1.0; 
stroke:#FFFFFF; stroke-width:1.000000; stroke-opacity:1; 
stroke-linecap:round; stroke-linejoin:round;">
<circle cx="10775000.000000" cy="5727500.000000" r="500000.000000" /> 
</g>
<g style="fill:#FFFFFF; fill-opacity:1.0; 
stroke:#FFFFFF; stroke-width:21200.000000; stroke-opacity:1; 
stroke-linecap:round; stroke-linejoin:round;">
</g>
<g style="fill:#FFFFFF; fill-opacity:1.0; 
stroke:#FFFFFF; stroke-width:1.000000; stroke-opacity:1; 
stroke-linecap:round; stroke-linejoin:round;">
<circle cx="10775000.000000" cy="3187500.000000" r="500000.000000" /> 
</g>
<g style="fill:#FFFFFF; fill-opacity:1.0; 
stroke:#FFFFFF; stroke-width:21200.000000; stroke-opacity:1; 
stroke-linecap:round; stroke-linejoin:round;">
</g>
<g style="fill:#FFFFFF; fill-opacity:1.0; 
stroke:#FFFFFF; stroke-width:1.000000; stroke-opacity:1; 
stroke-linecap:round; stroke-linejoin:round;">
<circle cx="31918400.000000" cy="14017500.000000" r="300000.000000" /> 
</g>
<g style="fill:#FFFFFF; fill-opacity:1.0; 
stroke:#FFFFFF; stroke-width:21200.000000; stroke-opacity:1; 
stroke-linecap:round; stroke-linejoin:round;">
</g>
<g style="fill:#FFFFFF; fill-opacity:1.0; 
stroke:#FFFFFF; stroke-width:1.000000; stroke-opacity:1; 
stroke-linecap:round; stroke-linejoin:round;">
<circle cx="29918400.000000" cy="14017500.000000" r="300000.000000" /> 
</g>
<g style="fill:#FFFFFF; fill-opacity:1.0; 
stroke:#FFFFFF; stroke-width:21200.000000; stroke-opacity:1; 
stroke-linecap:round; stroke-linejoin:round;">
</g>
<g style="fill:#FFFFFF; fill-opacity:1.0; 
stroke:#FFFFFF; stroke-width:1.000000; stroke-opacity:1; 
stroke-linecap:round; stroke-linejoin:round;">
<circle cx="33024872.000000" cy="3812372.000000" r="400000.000000" /> 
</g>
<g style="fill:#FFFFFF; fill-opacity:1.0; 
stroke:#FFFFFF; stroke-width:21200.000000; stroke-opacity:1; 
stroke-linecap:round; stroke-linejoin:round;">
</g>
<g style="fill:#FFFFFF; fill-opacity:1.0; 
stroke:#FFFFFF; stroke-width:1.000000; stroke-opacity:1; 
stroke-linecap:round; stroke-linejoin:round;">
<circle cx="42005128.000000" cy="12792628.000000" r="400000.000000" /> 
</g>
<g style="fill:#FFFFFF; fill-opacity:1.0; 
stroke:#FFFFFF; stroke-width:21200.000000; stroke-opacity:1; 
stroke-linecap:round; stroke-linejoin:round;">
</g>
<g style="fill:#000000; fill-opacity:1.0; 
stroke:#000000; stroke-width:21200.000000; stroke-opacity:1; 
stroke-linecap:round; stroke-linejoin:round;">
</g> 
</svg>
