G04 Generated by Ultiboard 14.2 *
%FSLAX33Y33*%
%MOMM*%

%ADD10C,0.001*%
%ADD11C,0.127*%
%ADD12C,1.609*%
%ADD13C,1.000*%
%ADD14C,1.422*%
%ADD15R,1.422X1.422*%
%ADD16C,1.500*%
%ADD17R,1.500X1.500*%


G04 ColorRGB FF00CC for the following layer *
%LNSolder Mask Top*%
%LPD*%
G54D10*
G54D11*
X-254Y-254D02*
X-254Y9797D01*
X-254Y-254D02*
X15797Y-254D01*
X160254Y-254D02*
X144203Y-254D01*
X160254Y-254D02*
X160254Y9797D01*
X160254Y100254D02*
X160254Y90203D01*
X160254Y100254D02*
X144203Y100254D01*
X-254Y100254D02*
X15797Y100254D01*
X-254Y100254D02*
X-254Y90203D01*
X-5254Y-254D02*
X-15254Y-254D01*
X-10254Y-5254D02*
X-10254Y4746D01*
X-14004Y-254D02*
G75*
D01*
G02X-14004Y-254I3750J0*
G01*
X165254Y-254D02*
X175254Y-254D01*
X170254Y-5254D02*
X170254Y4746D01*
X166504Y-254D02*
G75*
D01*
G02X166504Y-254I3750J0*
G01*
X169004Y-254D02*
G75*
D01*
G02X169004Y-254I1250J0*
G01*
X-5254Y100254D02*
X-15254Y100254D01*
X-10254Y95254D02*
X-10254Y105254D01*
X-14004Y100254D02*
G75*
D01*
G02X-14004Y100254I3750J0*
G01*
X-12754Y100254D02*
G75*
D01*
G02X-12754Y100254I2500J0*
G01*
X-11504Y100254D02*
G75*
D01*
G02X-11504Y100254I1250J0*
G01*
G54D12*
X50297Y49169D03*
X47757Y49169D03*
X68580Y60960D03*
X66040Y60960D03*
G54D13*
X71374Y67564D03*
G54D14*
X55724Y50000D03*
X55724Y47700D03*
X57924Y44134D03*
X55624Y44134D03*
G54D15*
X55724Y52300D03*
X60224Y44134D03*
G54D16*
X74935Y48369D03*
X71935Y52693D03*
X67869Y40561D03*
X54100Y60960D03*
G54D17*
X58935Y48369D03*
X58935Y52693D03*
X54869Y40561D03*
X38100Y60960D03*

M02*
