G04 Generated by Ultiboard 14.2 *
%FSLAX33Y33*%
%MOMM*%

%ADD10C,0.001*%
%ADD11C,0.254*%
%ADD12C,0.127*%
%ADD13C,1.609*%
%ADD14C,1.000*%
%ADD15C,1.422*%
%ADD16R,1.422X1.422*%
%ADD17C,1.500*%
%ADD18R,1.500X1.500*%


G04 ColorRGB 00FF00 for the following layer *
%LNCopper Top*%
%LPD*%
G54D10*
G54D11*
X68580Y60960D02*
X68580Y61468D01*
X67564Y62484D01*
X66040Y60960D02*
X65532Y60960D01*
X65024Y60452D01*
X60452Y60452D01*
X59944Y59944D01*
X59944Y53340D01*
X58935Y53340D01*
X58935Y52693D01*
X67869Y40561D02*
X67869Y41351D01*
X67564Y41656D01*
X67564Y51308D01*
X67056Y51816D01*
X59812Y51816D01*
X58935Y52693D01*
X55724Y50000D02*
X55080Y50000D01*
X54864Y49784D01*
X50800Y49784D01*
X50800Y49672D01*
X50297Y49169D01*
X57924Y44134D02*
X57924Y45200D01*
X57924Y45224D01*
X58420Y45720D01*
X59944Y45720D01*
X60452Y46228D01*
X60452Y49530D01*
X60198Y49784D01*
X57912Y49784D01*
X57404Y50292D01*
X57404Y62484D01*
X58935Y48369D02*
X58028Y49276D01*
X56388Y49276D01*
X56388Y49336D01*
X55724Y50000D01*
X55724Y47700D02*
X55724Y47088D01*
X55372Y46736D01*
X55372Y45212D01*
X55624Y44960D01*
X55624Y44134D01*
X74935Y48369D02*
X74536Y48768D01*
X73152Y48768D01*
X72644Y49276D01*
X72644Y52324D01*
X72304Y52324D01*
X71935Y52693D01*
X67564Y62484D02*
X57404Y62484D01*
X57404Y60960D02*
X54100Y60960D01*
X55724Y52300D02*
X54864Y53160D01*
X54864Y53340D01*
X39624Y53340D01*
X39116Y53848D01*
X39116Y60452D01*
X38100Y60452D01*
X38100Y60960D01*
X59690Y62484D02*
X64770Y67564D01*
X71374Y67564D01*
G54D12*
X-254Y-254D02*
X-254Y9797D01*
X-254Y-254D02*
X15797Y-254D01*
X160254Y-254D02*
X144203Y-254D01*
X160254Y-254D02*
X160254Y9797D01*
X160254Y100254D02*
X160254Y90203D01*
X160254Y100254D02*
X144203Y100254D01*
X-254Y100254D02*
X15797Y100254D01*
X-254Y100254D02*
X-254Y90203D01*
X-5254Y-254D02*
X-15254Y-254D01*
X-10254Y-5254D02*
X-10254Y4746D01*
X-14004Y-254D02*
G75*
D01*
G02X-14004Y-254I3750J0*
G01*
X165254Y-254D02*
X175254Y-254D01*
X170254Y-5254D02*
X170254Y4746D01*
X166504Y-254D02*
G75*
D01*
G02X166504Y-254I3750J0*
G01*
X169004Y-254D02*
G75*
D01*
G02X169004Y-254I1250J0*
G01*
X-5254Y100254D02*
X-15254Y100254D01*
X-10254Y95254D02*
X-10254Y105254D01*
X-14004Y100254D02*
G75*
D01*
G02X-14004Y100254I3750J0*
G01*
X-12754Y100254D02*
G75*
D01*
G02X-12754Y100254I2500J0*
G01*
X-11504Y100254D02*
G75*
D01*
G02X-11504Y100254I1250J0*
G01*
G54D13*
X50297Y49169D03*
X47757Y49169D03*
X68580Y60960D03*
X66040Y60960D03*
G54D14*
X71374Y67564D03*
G54D15*
X55724Y50000D03*
X55724Y47700D03*
X57924Y44134D03*
X55624Y44134D03*
G54D16*
X55724Y52300D03*
X60224Y44134D03*
G54D17*
X74935Y48369D03*
X71935Y52693D03*
X67869Y40561D03*
X54100Y60960D03*
G54D18*
X58935Y48369D03*
X58935Y52693D03*
X54869Y40561D03*
X38100Y60960D03*

M02*
