G04 Generated by Ultiboard 14.2 *
%FSLAX33Y33*%
%MOMM*%

%ADD10C,0.001*%
%ADD11C,0.203*%
%ADD12C,0.113*%
%ADD13C,0.200*%
%ADD14C,0.100*%
%ADD15C,0.127*%


G04 ColorRGB FFFF00 for the following layer *
%LNSilkscreen Top*%
%LPD*%
G54D10*
G54D11*
X54182Y47024D02*
X54938Y47024D01*
X54938Y47871D01*
X54938Y49141D02*
X54938Y48294D01*
X54560Y48294D01*
X54182Y48294D01*
X54182Y49141D01*
X54560Y48294D02*
X54560Y48858D01*
X54938Y49564D02*
X54938Y50128D01*
X54787Y50411D01*
X54333Y50411D01*
X54182Y50128D01*
X54182Y49564D01*
X54182Y49705D02*
X54938Y49705D01*
X54333Y50975D02*
X54182Y51257D01*
X54938Y51257D01*
X54938Y50834D02*
X54938Y51681D01*
X45033Y46575D02*
X45274Y46237D01*
X45544Y45921D01*
X45840Y45630D01*
X46161Y45365D01*
X46503Y45130D01*
X46865Y44925D01*
X47243Y44753D01*
X47634Y44615D01*
X48037Y44510D01*
X48446Y44442D01*
X48860Y44409D01*
X49276Y44413D01*
X49690Y44453D01*
X50098Y44528D01*
X50498Y44639D01*
X50888Y44785D01*
X51263Y44964D01*
X51621Y45175D01*
X51959Y45416D01*
X52275Y45686D01*
X52566Y45982D01*
X52830Y46303D01*
X53066Y46645D01*
X53270Y47007D01*
X53442Y47385D01*
X53581Y47776D01*
X53685Y48179D01*
X53754Y48588D01*
X53786Y49003D01*
X53783Y49418D01*
X53743Y49832D01*
X53667Y50240D01*
X53556Y50641D01*
X53411Y51030D01*
X53232Y51405D01*
X53021Y51763D01*
X52780Y52101D01*
X52510Y52417D01*
X52213Y52708D01*
X51893Y52972D01*
X51550Y53208D01*
X51189Y53412D01*
X50811Y53585D01*
X50419Y53723D01*
X50017Y53827D01*
X49607Y53896D01*
X49193Y53928D01*
X48777Y53925D01*
X48364Y53885D01*
X47955Y53809D01*
X47555Y53698D01*
X47166Y53553D01*
X46791Y53374D01*
X46433Y53163D01*
X46095Y52922D01*
X45779Y52652D01*
X45487Y52356D01*
X45223Y52035D01*
X45033Y51763D01*
X53048Y49169D02*
X53033Y49519D01*
X52987Y49867D01*
X52911Y50210D01*
X52806Y50544D01*
X52672Y50869D01*
X52510Y51180D01*
X52321Y51476D01*
X52107Y51754D01*
X51870Y52013D01*
X51612Y52250D01*
X51333Y52463D01*
X51038Y52652D01*
X50726Y52814D01*
X50402Y52948D01*
X50068Y53054D01*
X49725Y53129D01*
X49377Y53175D01*
X49027Y53191D01*
X48676Y53175D01*
X48328Y53129D01*
X47986Y53054D01*
X47651Y52948D01*
X47327Y52814D01*
X47016Y52652D01*
X46720Y52463D01*
X46442Y52250D01*
X46183Y52013D01*
X45946Y51754D01*
X45732Y51476D01*
X45544Y51180D01*
X45382Y50869D01*
X45248Y50544D01*
X45142Y50210D01*
X45066Y49867D01*
X45020Y49519D01*
X45005Y49169D01*
X45020Y48818D01*
X45066Y48471D01*
X45142Y48128D01*
X45248Y47793D01*
X45382Y47469D01*
X45544Y47158D01*
X45732Y46862D01*
X45946Y46584D01*
X46183Y46325D01*
X46442Y46088D01*
X46720Y45875D01*
X47016Y45686D01*
X47327Y45524D01*
X47651Y45390D01*
X47986Y45284D01*
X48328Y45208D01*
X48676Y45163D01*
X49027Y45147D01*
X49377Y45163D01*
X49725Y45208D01*
X50068Y45284D01*
X50402Y45390D01*
X50726Y45524D01*
X51038Y45686D01*
X51333Y45875D01*
X51612Y46088D01*
X51870Y46325D01*
X52107Y46584D01*
X52321Y46862D01*
X52510Y47158D01*
X52672Y47469D01*
X52806Y47793D01*
X52911Y48128D01*
X52987Y48471D01*
X53033Y48818D01*
X53048Y49169D01*
X53048Y49169D01*
X50085Y47264D02*
X50085Y47899D01*
X50508Y47899D02*
X50508Y47917D01*
X50505Y47936D01*
X50501Y47954D01*
X50496Y47971D01*
X50489Y47988D01*
X50480Y48005D01*
X50470Y48020D01*
X50459Y48035D01*
X50446Y48049D01*
X50433Y48061D01*
X50418Y48072D01*
X50403Y48082D01*
X50386Y48091D01*
X50369Y48098D01*
X50351Y48103D01*
X50333Y48107D01*
X50315Y48110D01*
X50297Y48111D01*
X50278Y48110D01*
X50260Y48107D01*
X50242Y48103D01*
X50224Y48098D01*
X50207Y48091D01*
X50191Y48082D01*
X50175Y48072D01*
X50161Y48061D01*
X50147Y48049D01*
X50135Y48035D01*
X50123Y48020D01*
X50113Y48005D01*
X50105Y47988D01*
X50098Y47971D01*
X50092Y47954D01*
X50088Y47936D01*
X50086Y47917D01*
X50085Y47899D01*
X50085Y47687D02*
X50508Y47687D01*
X45005Y51709D02*
X45005Y46629D01*
X47545Y47476D02*
X47546Y47457D01*
X47548Y47439D01*
X47552Y47421D01*
X47558Y47403D01*
X47565Y47386D01*
X47573Y47370D01*
X47583Y47354D01*
X47595Y47340D01*
X47607Y47326D01*
X47621Y47313D01*
X47635Y47302D01*
X47651Y47292D01*
X47667Y47284D01*
X47684Y47277D01*
X47702Y47271D01*
X47720Y47267D01*
X47738Y47265D01*
X47757Y47264D01*
X47775Y47265D01*
X47793Y47267D01*
X47811Y47271D01*
X47829Y47277D01*
X47846Y47284D01*
X47863Y47292D01*
X47878Y47302D01*
X47893Y47313D01*
X47906Y47326D01*
X47919Y47340D01*
X47930Y47354D01*
X47940Y47370D01*
X47949Y47386D01*
X47956Y47403D01*
X47961Y47421D01*
X47965Y47439D01*
X47968Y47457D01*
X47968Y47476D01*
X47968Y47476D01*
X47968Y47899D02*
X47968Y47917D01*
X47965Y47936D01*
X47961Y47954D01*
X47956Y47971D01*
X47949Y47988D01*
X47940Y48005D01*
X47930Y48020D01*
X47919Y48035D01*
X47906Y48049D01*
X47893Y48061D01*
X47878Y48072D01*
X47863Y48082D01*
X47846Y48091D01*
X47829Y48098D01*
X47811Y48103D01*
X47793Y48107D01*
X47775Y48110D01*
X47757Y48111D01*
X47738Y48110D01*
X47720Y48107D01*
X47702Y48103D01*
X47684Y48098D01*
X47667Y48091D01*
X47651Y48082D01*
X47635Y48072D01*
X47621Y48061D01*
X47607Y48049D01*
X47595Y48035D01*
X47583Y48020D01*
X47573Y48005D01*
X47565Y47988D01*
X47558Y47971D01*
X47552Y47954D01*
X47548Y47936D01*
X47546Y47917D01*
X47545Y47899D01*
X47545Y47476D02*
X47545Y47899D01*
X50508Y47264D02*
X50508Y47899D01*
X72466Y58815D02*
X73222Y58815D01*
X73222Y59662D01*
X73222Y60932D02*
X73222Y60085D01*
X72844Y60085D01*
X72466Y60085D01*
X72466Y60932D01*
X72844Y60085D02*
X72844Y60650D01*
X73222Y61355D02*
X73222Y61920D01*
X73070Y62202D01*
X72617Y62202D01*
X72466Y61920D01*
X72466Y61355D01*
X72466Y61496D02*
X73222Y61496D01*
X72617Y62625D02*
X72466Y62907D01*
X72466Y63190D01*
X72617Y63472D01*
X72692Y63472D01*
X73222Y62625D01*
X73222Y63472D01*
X73146Y63472D01*
X63316Y58366D02*
X63557Y58028D01*
X63827Y57712D01*
X64123Y57421D01*
X64444Y57156D01*
X64786Y56921D01*
X65148Y56717D01*
X65526Y56544D01*
X65918Y56406D01*
X66320Y56302D01*
X66730Y56233D01*
X67144Y56200D01*
X67559Y56204D01*
X67973Y56244D01*
X68381Y56320D01*
X68782Y56431D01*
X69171Y56576D01*
X69546Y56755D01*
X69904Y56966D01*
X70242Y57207D01*
X70558Y57477D01*
X70849Y57773D01*
X71114Y58094D01*
X71349Y58436D01*
X71553Y58798D01*
X71726Y59176D01*
X71864Y59568D01*
X71968Y59970D01*
X72037Y60380D01*
X72070Y60794D01*
X72066Y61209D01*
X72026Y61623D01*
X71950Y62031D01*
X71839Y62432D01*
X71694Y62821D01*
X71515Y63196D01*
X71304Y63554D01*
X71063Y63892D01*
X70793Y64208D01*
X70497Y64499D01*
X70176Y64764D01*
X69834Y64999D01*
X69472Y65203D01*
X69094Y65376D01*
X68702Y65514D01*
X68300Y65618D01*
X67890Y65687D01*
X67476Y65720D01*
X67061Y65716D01*
X66647Y65676D01*
X66239Y65600D01*
X65838Y65489D01*
X65449Y65344D01*
X65074Y65165D01*
X64716Y64954D01*
X64378Y64713D01*
X64062Y64443D01*
X63771Y64147D01*
X63506Y63826D01*
X63316Y63554D01*
X71332Y60960D02*
X71316Y61311D01*
X71271Y61658D01*
X71195Y62001D01*
X71089Y62335D01*
X70955Y62660D01*
X70793Y62971D01*
X70604Y63267D01*
X70391Y63545D01*
X70154Y63804D01*
X69895Y64041D01*
X69617Y64254D01*
X69321Y64443D01*
X69010Y64605D01*
X68685Y64739D01*
X68351Y64845D01*
X68008Y64921D01*
X67661Y64966D01*
X67310Y64982D01*
X66959Y64966D01*
X66612Y64921D01*
X66269Y64845D01*
X65935Y64739D01*
X65610Y64605D01*
X65299Y64443D01*
X65003Y64254D01*
X64725Y64041D01*
X64466Y63804D01*
X64229Y63545D01*
X64016Y63267D01*
X63827Y62971D01*
X63665Y62660D01*
X63531Y62335D01*
X63425Y62001D01*
X63349Y61658D01*
X63304Y61311D01*
X63288Y60960D01*
X63304Y60609D01*
X63349Y60262D01*
X63425Y59919D01*
X63531Y59585D01*
X63665Y59260D01*
X63827Y58949D01*
X64016Y58653D01*
X64229Y58375D01*
X64466Y58116D01*
X64725Y57879D01*
X65003Y57666D01*
X65299Y57477D01*
X65610Y57315D01*
X65935Y57181D01*
X66269Y57075D01*
X66612Y56999D01*
X66959Y56954D01*
X67310Y56938D01*
X67661Y56954D01*
X68008Y56999D01*
X68351Y57075D01*
X68685Y57181D01*
X69010Y57315D01*
X69321Y57477D01*
X69617Y57666D01*
X69895Y57879D01*
X70154Y58116D01*
X70391Y58375D01*
X70604Y58653D01*
X70793Y58949D01*
X70955Y59260D01*
X71089Y59585D01*
X71195Y59919D01*
X71271Y60262D01*
X71316Y60609D01*
X71332Y60960D01*
X71332Y60960D01*
X68368Y59478D02*
X68792Y59478D01*
X68792Y59690D02*
X68791Y59708D01*
X68788Y59727D01*
X68784Y59745D01*
X68779Y59762D01*
X68772Y59779D01*
X68763Y59796D01*
X68753Y59811D01*
X68742Y59826D01*
X68730Y59840D01*
X68716Y59852D01*
X68701Y59863D01*
X68686Y59873D01*
X68669Y59882D01*
X68652Y59889D01*
X68635Y59894D01*
X68617Y59898D01*
X68598Y59901D01*
X68580Y59902D01*
X68562Y59901D01*
X68543Y59898D01*
X68525Y59894D01*
X68508Y59889D01*
X68491Y59882D01*
X68474Y59873D01*
X68459Y59863D01*
X68444Y59852D01*
X68430Y59840D01*
X68418Y59826D01*
X68407Y59811D01*
X68397Y59796D01*
X68388Y59779D01*
X68381Y59762D01*
X68376Y59745D01*
X68372Y59727D01*
X68369Y59708D01*
X68368Y59690D01*
X63288Y63500D02*
X63288Y58420D01*
X68368Y59055D02*
X68368Y59690D01*
X65828Y59267D02*
X65829Y59248D01*
X65832Y59230D01*
X65836Y59212D01*
X65841Y59194D01*
X65848Y59177D01*
X65857Y59161D01*
X65867Y59145D01*
X65878Y59131D01*
X65890Y59117D01*
X65904Y59105D01*
X65919Y59093D01*
X65934Y59083D01*
X65951Y59075D01*
X65968Y59068D01*
X65985Y59062D01*
X66003Y59058D01*
X66022Y59056D01*
X66040Y59055D01*
X66058Y59056D01*
X66077Y59058D01*
X66095Y59062D01*
X66112Y59068D01*
X66129Y59075D01*
X66146Y59083D01*
X66161Y59093D01*
X66176Y59105D01*
X66190Y59117D01*
X66202Y59131D01*
X66213Y59145D01*
X66223Y59161D01*
X66232Y59177D01*
X66239Y59194D01*
X66244Y59212D01*
X66248Y59230D01*
X66251Y59248D01*
X66252Y59267D01*
X66252Y59267D01*
X65828Y59267D02*
X65828Y59690D01*
X66252Y59690D02*
X66251Y59708D01*
X66248Y59727D01*
X66244Y59745D01*
X66239Y59762D01*
X66232Y59779D01*
X66223Y59796D01*
X66213Y59811D01*
X66202Y59826D01*
X66190Y59840D01*
X66176Y59852D01*
X66161Y59863D01*
X66146Y59873D01*
X66129Y59882D01*
X66112Y59889D01*
X66095Y59894D01*
X66077Y59898D01*
X66058Y59901D01*
X66040Y59902D01*
X66022Y59901D01*
X66003Y59898D01*
X65985Y59894D01*
X65968Y59889D01*
X65951Y59882D01*
X65934Y59873D01*
X65919Y59863D01*
X65904Y59852D01*
X65890Y59840D01*
X65878Y59826D01*
X65867Y59811D01*
X65857Y59796D01*
X65848Y59779D01*
X65841Y59762D01*
X65836Y59745D01*
X65832Y59727D01*
X65829Y59708D01*
X65828Y59690D01*
X68792Y59055D02*
X68792Y59690D01*
X67041Y44239D02*
X66842Y44039D01*
X66643Y44039D01*
X66444Y44239D01*
X66444Y44839D01*
X66643Y45039D01*
X66842Y45039D01*
X67041Y44839D01*
X67440Y44839D02*
X67639Y45039D01*
X67639Y44039D01*
X67340Y44039D02*
X67937Y44039D01*
X62035Y46069D02*
X62035Y50469D01*
X72035Y50469D02*
X72035Y46169D01*
X61967Y48369D02*
X60135Y48369D01*
X73835Y48369D02*
X72035Y48369D01*
X64735Y46069D02*
X72035Y46069D01*
X63079Y46080D02*
X62063Y46080D01*
X64735Y50569D02*
X72035Y50569D01*
X62119Y50569D02*
X63135Y50569D01*
X63173Y50569D02*
X63176Y50502D01*
X63185Y50436D01*
X63199Y50371D01*
X63219Y50308D01*
X63245Y50247D01*
X63275Y50188D01*
X63311Y50132D01*
X63352Y50079D01*
X63397Y50030D01*
X63446Y49985D01*
X63498Y49944D01*
X63554Y49909D01*
X63613Y49878D01*
X63675Y49853D01*
X63738Y49833D01*
X63803Y49818D01*
X63869Y49809D01*
X63935Y49807D01*
X64002Y49809D01*
X64068Y49818D01*
X64133Y49833D01*
X64196Y49853D01*
X64257Y49878D01*
X64316Y49909D01*
X64372Y49944D01*
X64425Y49985D01*
X64474Y50030D01*
X64519Y50079D01*
X64560Y50132D01*
X64595Y50188D01*
X64626Y50247D01*
X64651Y50308D01*
X64671Y50371D01*
X64686Y50436D01*
X64695Y50502D01*
X64697Y50569D01*
X62993Y48960D02*
X62993Y47944D01*
X63501Y48452D02*
X62485Y48452D01*
X64603Y46080D02*
X64600Y46146D01*
X64592Y46212D01*
X64577Y46277D01*
X64557Y46340D01*
X64532Y46402D01*
X64501Y46461D01*
X64466Y46517D01*
X64425Y46569D01*
X64380Y46618D01*
X64331Y46663D01*
X64278Y46704D01*
X64222Y46740D01*
X64163Y46770D01*
X64102Y46796D01*
X64039Y46816D01*
X63974Y46830D01*
X63908Y46839D01*
X63841Y46842D01*
X63775Y46839D01*
X63709Y46830D01*
X63644Y46816D01*
X63581Y46796D01*
X63519Y46770D01*
X63460Y46740D01*
X63404Y46704D01*
X63352Y46663D01*
X63303Y46618D01*
X63258Y46569D01*
X63217Y46517D01*
X63181Y46461D01*
X63151Y46402D01*
X63125Y46340D01*
X63105Y46277D01*
X63091Y46212D01*
X63082Y46146D01*
X63079Y46080D01*
X64535Y49593D02*
X64535Y50593D01*
X64933Y50593D01*
X65132Y50393D01*
X65132Y50293D01*
X64933Y50093D01*
X64535Y50093D01*
X64635Y50093D02*
X65132Y49593D01*
X65531Y50393D02*
X65730Y50593D01*
X65730Y49593D01*
X65431Y49593D02*
X66028Y49593D01*
X60469Y37461D02*
X60469Y38461D01*
X60867Y38461D01*
X61066Y38261D01*
X61066Y38161D01*
X60867Y37961D01*
X60469Y37961D01*
X60569Y37961D02*
X61066Y37461D01*
X61365Y38261D02*
X61564Y38461D01*
X61763Y38461D01*
X61962Y38261D01*
X61962Y38161D01*
X61365Y37461D01*
X61962Y37461D01*
X61962Y37561D01*
X46206Y56831D02*
X46007Y56631D01*
X45808Y56631D01*
X45609Y56831D01*
X45609Y57431D01*
X45808Y57631D01*
X46007Y57631D01*
X46206Y57431D01*
X46505Y57431D02*
X46704Y57631D01*
X46903Y57631D01*
X47102Y57431D01*
X47102Y57331D01*
X46505Y56631D01*
X47102Y56631D01*
X47102Y56731D01*
X41200Y58660D02*
X41200Y63060D01*
X51200Y63060D02*
X51200Y58760D01*
X41132Y60960D02*
X39300Y60960D01*
X53000Y60960D02*
X51200Y60960D01*
X43900Y58660D02*
X51200Y58660D01*
X42244Y58671D02*
X41228Y58671D01*
X43900Y63160D02*
X51200Y63160D01*
X41284Y63160D02*
X42300Y63160D01*
X42338Y63160D02*
X42341Y63094D01*
X42350Y63028D01*
X42364Y62963D01*
X42384Y62899D01*
X42409Y62838D01*
X42440Y62779D01*
X42476Y62723D01*
X42516Y62670D01*
X42561Y62621D01*
X42610Y62576D01*
X42663Y62536D01*
X42719Y62500D01*
X42778Y62469D01*
X42839Y62444D01*
X42903Y62424D01*
X42968Y62410D01*
X43034Y62401D01*
X43100Y62398D01*
X43166Y62401D01*
X43232Y62410D01*
X43297Y62424D01*
X43361Y62444D01*
X43422Y62469D01*
X43481Y62500D01*
X43537Y62536D01*
X43590Y62576D01*
X43639Y62621D01*
X43684Y62670D01*
X43724Y62723D01*
X43760Y62779D01*
X43791Y62838D01*
X43816Y62899D01*
X43836Y62963D01*
X43850Y63028D01*
X43859Y63094D01*
X43862Y63160D01*
X42158Y61552D02*
X42158Y60536D01*
X42666Y61044D02*
X41650Y61044D01*
X43768Y58671D02*
X43765Y58737D01*
X43756Y58803D01*
X43742Y58868D01*
X43722Y58932D01*
X43697Y58993D01*
X43666Y59052D01*
X43630Y59108D01*
X43590Y59161D01*
X43545Y59210D01*
X43496Y59255D01*
X43443Y59295D01*
X43387Y59331D01*
X43328Y59362D01*
X43267Y59387D01*
X43203Y59407D01*
X43138Y59421D01*
X43072Y59430D01*
X43006Y59433D01*
X42940Y59430D01*
X42874Y59421D01*
X42809Y59407D01*
X42745Y59387D01*
X42684Y59362D01*
X42625Y59331D01*
X42569Y59295D01*
X42516Y59255D01*
X42467Y59210D01*
X42422Y59161D01*
X42382Y59108D01*
X42346Y59052D01*
X42315Y58993D01*
X42290Y58932D01*
X42270Y58868D01*
X42256Y58803D01*
X42247Y58737D01*
X42244Y58671D01*
G54D12*
X55346Y45655D02*
X55490Y45510D01*
X55635Y45510D01*
X55779Y45655D01*
X55779Y46090D01*
X55635Y46235D01*
X55490Y46235D01*
X55346Y46090D01*
X55346Y45655D01*
X55635Y45655D02*
X55779Y45510D01*
X56068Y46090D02*
X56213Y46235D01*
X56213Y45510D01*
X55996Y45510D02*
X56430Y45510D01*
X53579Y44512D02*
X53434Y44367D01*
X53434Y44223D01*
X53579Y44078D01*
X54014Y44078D01*
X54159Y44223D01*
X54159Y44367D01*
X54014Y44512D01*
X53579Y44512D01*
X53579Y44223D02*
X53434Y44078D01*
X54014Y43862D02*
X54159Y43717D01*
X54159Y43573D01*
X54014Y43428D01*
X53942Y43428D01*
X53434Y43862D01*
X53434Y43428D01*
X53506Y43428D01*
G54D13*
X54674Y53325D02*
X57174Y53325D01*
X57174Y46675D01*
X54674Y46675D01*
X54674Y53325D01*
X61249Y45184D02*
X54599Y45184D01*
X54599Y42684D01*
X61249Y42684D01*
X61249Y45184D01*
G54D14*
X61935Y53983D02*
X68935Y53983D01*
X68935Y51433D01*
X61935Y51433D01*
X61935Y53983D01*
X60335Y52693D02*
X61935Y52693D01*
X68935Y52693D02*
X70635Y52693D01*
X57869Y41851D02*
X64869Y41851D01*
X64869Y39301D01*
X57869Y39301D01*
X57869Y41851D01*
X56269Y40561D02*
X57869Y40561D01*
X64869Y40561D02*
X66569Y40561D01*
G54D15*
X-254Y-254D02*
X-254Y9797D01*
X-254Y-254D02*
X15797Y-254D01*
X160254Y-254D02*
X144203Y-254D01*
X160254Y-254D02*
X160254Y9797D01*
X160254Y100254D02*
X160254Y90203D01*
X160254Y100254D02*
X144203Y100254D01*
X-254Y100254D02*
X15797Y100254D01*
X-254Y100254D02*
X-254Y90203D01*
X-5254Y-254D02*
X-15254Y-254D01*
X-10254Y-5254D02*
X-10254Y4746D01*
X-14004Y-254D02*
G75*
D01*
G02X-14004Y-254I3750J0*
G01*
X165254Y-254D02*
X175254Y-254D01*
X170254Y-5254D02*
X170254Y4746D01*
X166504Y-254D02*
G75*
D01*
G02X166504Y-254I3750J0*
G01*
X169004Y-254D02*
G75*
D01*
G02X169004Y-254I1250J0*
G01*
X-5254Y100254D02*
X-15254Y100254D01*
X-10254Y95254D02*
X-10254Y105254D01*
X-14004Y100254D02*
G75*
D01*
G02X-14004Y100254I3750J0*
G01*
X-12754Y100254D02*
G75*
D01*
G02X-12754Y100254I2500J0*
G01*
X-11504Y100254D02*
G75*
D01*
G02X-11504Y100254I1250J0*
G01*

M02*
