G04 Generated by Ultiboard 14.2 *
%FSLAX33Y33*%
%MOMM*%

%ADD10C,0.001*%
%ADD11C,0.001*%
%ADD12C,0.127*%


G04 ColorRGB 00FFFF for the following layer *
%LNBoard Outline*%
%LPD*%
G54D10*
G54D11*
X0Y0D02*
X160000Y0D01*
X160000Y100000D01*
X0Y100000D01*
X0Y0D01*
G54D12*
X-254Y-254D02*
X-254Y9797D01*
X-254Y-254D02*
X15797Y-254D01*
X160254Y-254D02*
X144203Y-254D01*
X160254Y-254D02*
X160254Y9797D01*
X160254Y100254D02*
X160254Y90203D01*
X160254Y100254D02*
X144203Y100254D01*
X-254Y100254D02*
X15797Y100254D01*
X-254Y100254D02*
X-254Y90203D01*
X-5254Y-254D02*
X-15254Y-254D01*
X-10254Y-5254D02*
X-10254Y4746D01*
X-14004Y-254D02*
G75*
D01*
G02X-14004Y-254I3750J0*
G01*
X165254Y-254D02*
X175254Y-254D01*
X170254Y-5254D02*
X170254Y4746D01*
X166504Y-254D02*
G75*
D01*
G02X166504Y-254I3750J0*
G01*
X169004Y-254D02*
G75*
D01*
G02X169004Y-254I1250J0*
G01*
X-5254Y100254D02*
X-15254Y100254D01*
X-10254Y95254D02*
X-10254Y105254D01*
X-14004Y100254D02*
G75*
D01*
G02X-14004Y100254I3750J0*
G01*
X-12754Y100254D02*
G75*
D01*
G02X-12754Y100254I2500J0*
G01*
X-11504Y100254D02*
G75*
D01*
G02X-11504Y100254I1250J0*
G01*

M02*
