999
DXF created by UltiBoard 14.2.0.0
0
SECTION
2
HEADER
9
$ACADVER
1
AC1014
9
$EXTMIN
10
-290.041378
20
979.979370
30
0.0
9
$EXTMAX
10
3860.014173
20
4220.001890
30
0.0
9
$LUNITS
70
2
9
$HANDSEED
5
4B0
0
ENDSEC
0
SECTION
2
TABLES
0
TABLE
2
VPORT
5
405
100
AcDbSymbolTable
70
1
0
VPORT
5
406
100
AcDbSymbolTableRecord
100
AcDbViewportTableRecord
2
*ACTIVE
70
0
0
ENDTAB
0
TABLE
2
LTYPE
5
407
100
AcDbSymbolTable
70
1
0
LTYPE
5
408
100
AcDbSymbolTableRecord
100
AcDbLinetypeTableRecord
2
BYBLOCK
70
0
3

72
65
73
0
40
0.0
0
LTYPE
5
409
100
AcDbSymbolTableRecord
100
AcDbLinetypeTableRecord
2
BYLAYER
70
0
3

72
65
73
0
40
0.0
0
LTYPE
5
40A
100
AcDbSymbolTableRecord
100
AcDbLinetypeTableRecord
2
CONTINUOUS
70
0
3
Solid line
72
65
73
0
40
0.0
0
ENDTAB
0
TABLE
2
LAYER
5
40B
100
AcDbSymbolTable
70
4
0
LAYER
5
40C
100
AcDbSymbolTableRecord
100
AcDbLayerTableRecord
2
0
70
0
62
7
6
CONTINUOUS
0
LAYER
5
40D
100
AcDbSymbolTableRecord
100
AcDbLayerTableRecord
2
BOARD_OUTLINE
70
0
62
2
6
CONTINUOUS
0
LAYER
5
40E
100
AcDbSymbolTableRecord
100
AcDbLayerTableRecord
2
COPPER_TOP
70
0
62
3
6
CONTINUOUS
0
LAYER
5
40F
100
AcDbSymbolTableRecord
100
AcDbLayerTableRecord
2
COPPER_BOTTOM
70
0
62
1
6
CONTINUOUS
0
ENDTAB
0
TABLE
2
STYLE
5
410
100
AcDbSymbolTable
70
2
0
STYLE
5
411
100
AcDbSymbolTableRecord
100
AcDbTextStyleTableRecord
2
MONOTxtStyle
70
0
40
0.0
41
1.0
50
0.0
71
0
42
0.2
3
monotxt
4

0
STYLE
5
412
100
AcDbSymbolTableRecord
100
AcDbTextStyleTableRecord
2
MONOTxtStyle_M
70
0
40
0.0
41
1.0
50
0.0
71
2
42
0.2
3
monotxt
4

0
ENDTAB
0
TABLE
2
VIEW
5
413
100
AcDbSymbolTable
70
0
0
ENDTAB
0
TABLE
2
UCS
5
414
100
AcDbSymbolTable
70
0
0
ENDTAB
0
TABLE
2
APPID
5
415
100
AcDbSymbolTable
70
1
0
APPID
5
416
100
AcDbSymbolTableRecord
100
AcDbRegAppTableRecord
2
ACAD
70
0
0
ENDTAB
0
TABLE
2
DIMSTYLE
5
417
100
AcDbSymbolTable
70
1
0
DIMSTYLE
105
418
100
AcDbSymbolTableRecord
100
AcDbDimStyleTableRecord
2
STANDARD
70
0
0
ENDTAB
0
TABLE
2
BLOCK_RECORD
5
419
100
AcDbSymbolTable
70
0
0
BLOCK_RECORD
5
41A
100
AcDbSymbolTableRecord
100
AcDbBlockTableRecord
2
*MODEL_SPACE
0
BLOCK_RECORD
5
41B
100
AcDbSymbolTableRecord
100
AcDbBlockTableRecord
2
*PAPER_SPACE
0
ENDTAB
0
ENDSEC
0
SECTION
2
BLOCKS
0
BLOCK
5
41C
100
AcDbEntity
8
0
100
AcDbBlockBegin
2
*MODEL_SPACE
70
0
0
ENDBLK
5
41D
100
AcDbEntity
8
0
100
AcDbBlockEnd
0
BLOCK
5
41E
100
AcDbEntity
8
0
100
AcDbBlockBegin
2
*PAPER_SPACE
70
0
0
ENDBLK
5
41F
100
AcDbEntity
8
0
100
AcDbBlockEnd
0
ENDSEC
0
SECTION
2
ENTITIES
0
LWPOLYLINE
5
420
100
AcDbEntity
8
BOARD_OUTLINE
62
2
100
AcDbPolyline
90
2
70
0
43
0.000039
39
0.000039
10
-10.039528
20
1259.981220
10
3580.012323
20
1259.981220
0
LWPOLYLINE
5
421
100
AcDbEntity
8
BOARD_OUTLINE
62
2
100
AcDbPolyline
90
2
70
0
43
0.000039
39
0.000039
10
3580.012323
20
1259.981220
10
3580.012323
20
3940.000000
0
LWPOLYLINE
5
422
100
AcDbEntity
8
BOARD_OUTLINE
62
2
100
AcDbPolyline
90
2
70
0
43
0.000039
39
0.000039
10
3580.012323
20
3940.000000
10
-10.039528
20
3940.000000
0
LWPOLYLINE
5
423
100
AcDbEntity
8
BOARD_OUTLINE
62
2
100
AcDbPolyline
90
2
70
0
43
0.000039
39
0.000039
10
-10.039528
20
3940.000000
10
-10.039528
20
1259.981220
0
HATCH
5
424
100
AcDbEntity
8
COPPER_TOP
100
AcDbHatch
10
0.0
20
0.0
30
0.0
210
0.0
220
0.0
230
1.0
2
SOLID
70
1
71
0
91
2
92
1
93
1
72
2
10
2860.000000
20
3720.000000
40
30.250000
50
0.000000
51
360.000000
73
1
97
0
92
1
93
1
72
2
10
2860.000000
20
3720.000000
40
23.250000
50
0.000000
51
360.000000
73
1
97
0
75
0
76
0
98
1
10
0.0
20
0.0
0
HATCH
5
425
100
AcDbEntity
8
COPPER_TOP
100
AcDbHatch
10
0.0
20
0.0
30
0.0
210
0.0
220
0.0
230
1.0
2
SOLID
70
1
71
0
91
2
92
1
93
1
72
2
10
2860.000000
20
1560.000000
40
30.250000
50
0.000000
51
360.000000
73
1
97
0
92
1
93
1
72
2
10
2860.000000
20
1560.000000
40
23.250000
50
0.000000
51
360.000000
73
1
97
0
75
0
76
0
98
1
10
0.0
20
0.0
0
HATCH
5
426
100
AcDbEntity
8
COPPER_TOP
100
AcDbHatch
10
0.0
20
0.0
30
0.0
210
0.0
220
0.0
230
1.0
2
SOLID
70
1
71
0
91
2
92
1
93
1
72
2
10
680.000000
20
3600.000000
40
31.670000
50
0.000000
51
360.000000
73
1
97
0
92
1
93
1
72
2
10
680.000000
20
3600.000000
40
17.500000
50
0.000000
51
360.000000
73
1
97
0
75
0
76
0
98
1
10
0.0
20
0.0
0
HATCH
5
427
100
AcDbEntity
8
COPPER_TOP
100
AcDbHatch
10
0.0
20
0.0
30
0.0
210
0.0
220
0.0
230
1.0
2
SOLID
70
1
71
0
91
2
92
1
93
1
72
2
10
580.000000
20
3600.000000
40
31.670000
50
0.000000
51
360.000000
73
1
97
0
92
1
93
1
72
2
10
580.000000
20
3600.000000
40
17.500000
50
0.000000
51
360.000000
73
1
97
0
75
0
76
0
98
1
10
0.0
20
0.0
0
HATCH
5
428
100
AcDbEntity
8
COPPER_TOP
100
AcDbHatch
10
0.0
20
0.0
30
0.0
210
0.0
220
0.0
230
1.0
2
SOLID
70
1
71
0
91
2
92
1
93
1
72
2
10
745.000000
20
2405.000000
40
27.500000
50
0.000000
51
360.000000
73
1
97
0
92
1
93
1
72
2
10
745.000000
20
2405.000000
40
20.000000
50
0.000000
51
360.000000
73
1
97
0
75
0
76
0
98
1
10
0.0
20
0.0
0
HATCH
5
429
100
AcDbEntity
8
COPPER_TOP
100
AcDbHatch
10
0.0
20
0.0
30
0.0
210
0.0
220
0.0
230
1.0
2
SOLID
70
1
71
0
91
2
92
1
93
1
72
2
10
645.000000
20
2405.000000
40
27.500000
50
0.000000
51
360.000000
73
1
97
0
92
1
93
1
72
2
10
645.000000
20
2405.000000
40
20.000000
50
0.000000
51
360.000000
73
1
97
0
75
0
76
0
98
1
10
0.0
20
0.0
0
HATCH
5
42A
100
AcDbEntity
8
COPPER_TOP
100
AcDbHatch
10
0.0
20
0.0
30
0.0
210
0.0
220
0.0
230
1.0
2
SOLID
70
1
71
0
91
2
92
1
93
1
72
2
10
695.000000
20
2355.000000
40
27.500000
50
0.000000
51
360.000000
73
1
97
0
92
1
93
1
72
2
10
695.000000
20
2355.000000
40
20.000000
50
0.000000
51
360.000000
73
1
97
0
75
0
76
0
98
1
10
0.0
20
0.0
0
HATCH
5
42B
100
AcDbEntity
8
COPPER_TOP
100
AcDbHatch
10
0.0
20
0.0
30
0.0
210
0.0
220
0.0
230
1.0
2
SOLID
70
1
71
0
91
2
92
1
93
1
72
2
10
1700.000000
20
3580.000000
40
31.670000
50
0.000000
51
360.000000
73
1
97
0
92
1
93
1
72
2
10
1700.000000
20
3580.000000
40
17.500000
50
0.000000
51
360.000000
73
1
97
0
75
0
76
0
98
1
10
0.0
20
0.0
0
HATCH
5
42C
100
AcDbEntity
8
COPPER_TOP
100
AcDbHatch
10
0.0
20
0.0
30
0.0
210
0.0
220
0.0
230
1.0
2
SOLID
70
1
71
0
91
2
92
1
93
1
72
2
10
1800.000000
20
3580.000000
40
31.670000
50
0.000000
51
360.000000
73
1
97
0
92
1
93
1
72
2
10
1800.000000
20
3580.000000
40
17.500000
50
0.000000
51
360.000000
73
1
97
0
75
0
76
0
98
1
10
0.0
20
0.0
0
HATCH
5
42D
100
AcDbEntity
8
COPPER_TOP
100
AcDbHatch
10
0.0
20
0.0
30
0.0
210
0.0
220
0.0
230
1.0
2
SOLID
70
1
71
0
91
2
92
1
93
1
72
2
10
1680.000000
20
2380.000000
40
27.500000
50
0.000000
51
360.000000
73
1
97
0
92
1
93
1
72
2
10
1680.000000
20
2380.000000
40
20.000000
50
0.000000
51
360.000000
73
1
97
0
75
0
76
0
98
1
10
0.0
20
0.0
0
HATCH
5
42E
100
AcDbEntity
8
COPPER_TOP
100
AcDbHatch
10
0.0
20
0.0
30
0.0
210
0.0
220
0.0
230
1.0
2
SOLID
70
1
71
0
91
2
92
1
93
1
72
2
10
1780.000000
20
2380.000000
40
27.500000
50
0.000000
51
360.000000
73
1
97
0
92
1
93
1
72
2
10
1780.000000
20
2380.000000
40
20.000000
50
0.000000
51
360.000000
73
1
97
0
75
0
76
0
98
1
10
0.0
20
0.0
0
HATCH
5
42F
100
AcDbEntity
8
COPPER_TOP
100
AcDbHatch
10
0.0
20
0.0
30
0.0
210
0.0
220
0.0
230
1.0
2
SOLID
70
1
71
0
91
2
92
1
93
1
72
2
10
1730.000000
20
2430.000000
40
27.500000
50
0.000000
51
360.000000
73
1
97
0
92
1
93
1
72
2
10
1730.000000
20
2430.000000
40
20.000000
50
0.000000
51
360.000000
73
1
97
0
75
0
76
0
98
1
10
0.0
20
0.0
0
HATCH
5
430
100
AcDbEntity
8
COPPER_TOP
100
AcDbHatch
10
0.0
20
0.0
30
0.0
210
0.0
220
0.0
230
1.0
2
SOLID
70
1
71
0
91
2
92
1
93
1
72
2
10
260.000000
20
2250.078740
40
29.527559
50
0.000000
51
360.000000
73
1
97
0
92
1
93
1
72
2
10
260.000000
20
2250.078740
40
17.716535
50
0.000000
51
360.000000
73
1
97
0
75
0
76
0
98
1
10
0.0
20
0.0
0
HATCH
5
431
100
AcDbEntity
8
COPPER_TOP
100
AcDbHatch
10
0.0
20
0.0
30
0.0
210
0.0
220
0.0
230
1.0
2
SOLID
70
1
71
0
91
2
92
1
93
4
72
1
10
230.472441
20
2909.527559
11
289.527559
21
2909.527559
72
1
10
289.527559
20
2909.527559
11
289.527559
21
2850.472441
72
1
10
289.527559
20
2850.472441
11
230.472441
21
2850.472441
72
1
10
230.472441
20
2850.472441
11
230.472441
21
2909.527559
97
0
92
1
93
1
72
2
10
260.000000
20
2880.000000
40
17.716535
50
0.000000
51
360.000000
73
1
97
0
75
0
76
0
98
1
10
0.0
20
0.0
0
HATCH
5
432
100
AcDbEntity
8
COPPER_TOP
100
AcDbHatch
10
0.0
20
0.0
30
0.0
210
0.0
220
0.0
230
1.0
2
SOLID
70
1
71
0
91
2
92
1
93
1
72
2
10
577.268307
20
3246.716535
40
29.527559
50
0.000000
51
360.000000
73
1
97
0
92
1
93
1
72
2
10
577.268307
20
3246.716535
40
17.716535
50
0.000000
51
360.000000
73
1
97
0
75
0
76
0
98
1
10
0.0
20
0.0
0
HATCH
5
433
100
AcDbEntity
8
COPPER_TOP
100
AcDbHatch
10
0.0
20
0.0
30
0.0
210
0.0
220
0.0
230
1.0
2
SOLID
70
1
71
0
91
2
92
1
93
4
72
1
10
606.795866
20
2705.377953
11
547.740748
21
2705.377953
72
1
10
547.740748
20
2705.377953
11
547.740748
21
2764.433071
72
1
10
547.740748
20
2764.433071
11
606.795866
21
2764.433071
72
1
10
606.795866
20
2764.433071
11
606.795866
21
2705.377953
97
0
92
1
93
1
72
2
10
577.268307
20
2734.905512
40
17.716535
50
0.000000
51
360.000000
73
1
97
0
75
0
76
0
98
1
10
0.0
20
0.0
0
HATCH
5
434
100
AcDbEntity
8
COPPER_TOP
100
AcDbHatch
10
0.0
20
0.0
30
0.0
210
0.0
220
0.0
230
1.0
2
SOLID
70
1
71
0
91
2
92
1
93
1
72
2
10
720.969055
20
3246.716535
40
29.527559
50
0.000000
51
360.000000
73
1
97
0
92
1
93
1
72
2
10
720.969055
20
3246.716535
40
17.716535
50
0.000000
51
360.000000
73
1
97
0
75
0
76
0
98
1
10
0.0
20
0.0
0
HATCH
5
435
100
AcDbEntity
8
COPPER_TOP
100
AcDbHatch
10
0.0
20
0.0
30
0.0
210
0.0
220
0.0
230
1.0
2
SOLID
70
1
71
0
91
2
92
1
93
4
72
1
10
750.496614
20
2705.377953
11
691.441496
21
2705.377953
72
1
10
691.441496
20
2705.377953
11
691.441496
21
2764.433071
72
1
10
691.441496
20
2764.433071
11
750.496614
21
2764.433071
72
1
10
750.496614
20
2764.433071
11
750.496614
21
2705.377953
97
0
92
1
93
1
72
2
10
720.969055
20
2734.905512
40
17.716535
50
0.000000
51
360.000000
73
1
97
0
75
0
76
0
98
1
10
0.0
20
0.0
0
HATCH
5
436
100
AcDbEntity
8
COPPER_TOP
100
AcDbHatch
10
0.0
20
0.0
30
0.0
210
0.0
220
0.0
230
1.0
2
SOLID
70
1
71
0
91
2
92
1
93
1
72
2
10
1808.370551
20
3246.716535
40
29.527559
50
0.000000
51
360.000000
73
1
97
0
92
1
93
1
72
2
10
1808.370551
20
3246.716535
40
17.716535
50
0.000000
51
360.000000
73
1
97
0
75
0
76
0
98
1
10
0.0
20
0.0
0
HATCH
5
437
100
AcDbEntity
8
COPPER_TOP
100
AcDbHatch
10
0.0
20
0.0
30
0.0
210
0.0
220
0.0
230
1.0
2
SOLID
70
1
71
0
91
2
92
1
93
4
72
1
10
1837.898110
20
2705.377953
11
1778.842992
21
2705.377953
72
1
10
1778.842992
20
2705.377953
11
1778.842992
21
2764.433071
72
1
10
1778.842992
20
2764.433071
11
1837.898110
21
2764.433071
72
1
10
1837.898110
20
2764.433071
11
1837.898110
21
2705.377953
97
0
92
1
93
1
72
2
10
1808.370551
20
2734.905512
40
17.716535
50
0.000000
51
360.000000
73
1
97
0
75
0
76
0
98
1
10
0.0
20
0.0
0
HATCH
5
438
100
AcDbEntity
8
COPPER_TOP
100
AcDbHatch
10
0.0
20
0.0
30
0.0
210
0.0
220
0.0
230
1.0
2
SOLID
70
1
71
0
91
2
92
1
93
1
72
2
10
1664.669803
20
3246.716535
40
29.527559
50
0.000000
51
360.000000
73
1
97
0
92
1
93
1
72
2
10
1664.669803
20
3246.716535
40
17.716535
50
0.000000
51
360.000000
73
1
97
0
75
0
76
0
98
1
10
0.0
20
0.0
0
HATCH
5
439
100
AcDbEntity
8
COPPER_TOP
100
AcDbHatch
10
0.0
20
0.0
30
0.0
210
0.0
220
0.0
230
1.0
2
SOLID
70
1
71
0
91
2
92
1
93
4
72
1
10
1694.197362
20
2705.377953
11
1635.142244
21
2705.377953
72
1
10
1635.142244
20
2705.377953
11
1635.142244
21
2764.433071
72
1
10
1635.142244
20
2764.433071
11
1694.197362
21
2764.433071
72
1
10
1694.197362
20
2764.433071
11
1694.197362
21
2705.377953
97
0
92
1
93
1
72
2
10
1664.669803
20
2734.905512
40
17.716535
50
0.000000
51
360.000000
73
1
97
0
75
0
76
0
98
1
10
0.0
20
0.0
0
HATCH
5
43A
100
AcDbEntity
8
COPPER_TOP
100
AcDbHatch
10
0.0
20
0.0
30
0.0
210
0.0
220
0.0
230
1.0
2
SOLID
70
1
71
0
91
2
92
1
93
1
72
2
10
2100.000000
20
2210.078740
40
29.527559
50
0.000000
51
360.000000
73
1
97
0
92
1
93
1
72
2
10
2100.000000
20
2210.078740
40
17.716535
50
0.000000
51
360.000000
73
1
97
0
75
0
76
0
98
1
10
0.0
20
0.0
0
HATCH
5
43B
100
AcDbEntity
8
COPPER_TOP
100
AcDbHatch
10
0.0
20
0.0
30
0.0
210
0.0
220
0.0
230
1.0
2
SOLID
70
1
71
0
91
2
92
1
93
4
72
1
10
2070.472441
20
2869.527559
11
2129.527559
21
2869.527559
72
1
10
2129.527559
20
2869.527559
11
2129.527559
21
2810.472441
72
1
10
2129.527559
20
2810.472441
11
2070.472441
21
2810.472441
72
1
10
2070.472441
20
2810.472441
11
2070.472441
21
2869.527559
97
0
92
1
93
1
72
2
10
2100.000000
20
2840.000000
40
17.716535
50
0.000000
51
360.000000
73
1
97
0
75
0
76
0
98
1
10
0.0
20
0.0
0
LWPOLYLINE
5
43C
100
AcDbEntity
8
COPPER_BOTTOM
62
1
100
AcDbPolyline
90
2
70
0
43
10.000000
39
10.000000
10
2100.000000
20
2210.078740
10
2080.000000
20
2230.078740
0
LWPOLYLINE
5
43D
100
AcDbEntity
8
COPPER_BOTTOM
62
1
100
AcDbPolyline
90
2
70
0
43
10.000000
39
10.000000
10
2080.000000
20
2230.078740
10
2080.000000
20
2320.000000
0
LWPOLYLINE
5
43E
100
AcDbEntity
8
COPPER_BOTTOM
62
1
100
AcDbPolyline
90
2
70
0
43
10.000000
39
10.000000
10
2080.000000
20
2320.000000
10
2060.000000
20
2340.000000
0
LWPOLYLINE
5
43F
100
AcDbEntity
8
COPPER_BOTTOM
62
1
100
AcDbPolyline
90
2
70
0
43
10.000000
39
10.000000
10
2060.000000
20
2340.000000
10
1780.000000
20
2340.000000
0
LWPOLYLINE
5
440
100
AcDbEntity
8
COPPER_BOTTOM
62
1
100
AcDbPolyline
90
2
70
0
43
10.000000
39
10.000000
10
1780.000000
20
2340.000000
10
1780.000000
20
2380.000000
0
LWPOLYLINE
5
441
100
AcDbEntity
8
COPPER_BOTTOM
62
1
100
AcDbPolyline
90
2
70
0
43
10.000000
39
10.000000
10
2860.000000
20
3720.000000
10
1760.000000
20
3720.000000
0
LWPOLYLINE
5
442
100
AcDbEntity
8
COPPER_BOTTOM
62
1
100
AcDbPolyline
90
2
70
0
43
10.000000
39
10.000000
10
1760.000000
20
3720.000000
10
1740.000000
20
3700.000000
0
LWPOLYLINE
5
443
100
AcDbEntity
8
COPPER_BOTTOM
62
1
100
AcDbPolyline
90
2
70
0
43
10.000000
39
10.000000
10
1740.000000
20
3700.000000
10
1740.000000
20
3600.000000
0
LWPOLYLINE
5
444
100
AcDbEntity
8
COPPER_BOTTOM
62
1
100
AcDbPolyline
90
2
70
0
43
10.000000
39
10.000000
10
1740.000000
20
3600.000000
10
1720.000000
20
3580.000000
0
LWPOLYLINE
5
445
100
AcDbEntity
8
COPPER_BOTTOM
62
1
100
AcDbPolyline
90
2
70
0
43
10.000000
39
10.000000
10
1720.000000
20
3580.000000
10
1700.000000
20
3580.000000
0
LWPOLYLINE
5
446
100
AcDbEntity
8
COPPER_BOTTOM
62
1
100
AcDbPolyline
90
2
70
0
43
10.000000
39
10.000000
10
1780.000000
20
2380.000000
10
1780.000000
20
2460.000000
0
LWPOLYLINE
5
447
100
AcDbEntity
8
COPPER_BOTTOM
62
1
100
AcDbPolyline
90
2
70
0
43
10.000000
39
10.000000
10
1780.000000
20
2460.000000
10
1760.000000
20
2480.000000
0
LWPOLYLINE
5
448
100
AcDbEntity
8
COPPER_BOTTOM
62
1
100
AcDbPolyline
90
2
70
0
43
10.000000
39
10.000000
10
645.000000
20
2405.000000
10
620.000000
20
2380.000000
0
LWPOLYLINE
5
449
100
AcDbEntity
8
COPPER_BOTTOM
62
1
100
AcDbPolyline
90
2
70
0
43
10.000000
39
10.000000
10
620.000000
20
2380.000000
10
620.000000
20
2300.000000
0
LWPOLYLINE
5
44A
100
AcDbEntity
8
COPPER_BOTTOM
62
1
100
AcDbPolyline
90
2
70
0
43
10.000000
39
10.000000
10
620.000000
20
2300.000000
10
600.000000
20
2280.000000
0
LWPOLYLINE
5
44B
100
AcDbEntity
8
COPPER_BOTTOM
62
1
100
AcDbPolyline
90
2
70
0
43
10.000000
39
10.000000
10
280.000000
20
2280.000000
10
280.000000
20
2270.078740
0
LWPOLYLINE
5
44C
100
AcDbEntity
8
COPPER_BOTTOM
62
1
100
AcDbPolyline
90
2
70
0
43
10.000000
39
10.000000
10
280.000000
20
2270.078740
10
260.000000
20
2250.078740
0
LWPOLYLINE
5
44D
100
AcDbEntity
8
COPPER_BOTTOM
62
1
100
AcDbPolyline
90
2
70
0
43
10.000000
39
10.000000
10
720.969055
20
2734.905512
10
686.063543
20
2700.000000
0
LWPOLYLINE
5
44E
100
AcDbEntity
8
COPPER_BOTTOM
62
1
100
AcDbPolyline
90
2
70
0
43
10.000000
39
10.000000
10
686.063543
20
2700.000000
10
680.000000
20
2700.000000
0
LWPOLYLINE
5
44F
100
AcDbEntity
8
COPPER_BOTTOM
62
1
100
AcDbPolyline
90
2
70
0
43
10.000000
39
10.000000
10
680.000000
20
2700.000000
10
680.000000
20
2420.000000
0
LWPOLYLINE
5
450
100
AcDbEntity
8
COPPER_BOTTOM
62
1
100
AcDbPolyline
90
2
70
0
43
10.000000
39
10.000000
10
680.000000
20
2420.000000
10
665.000000
20
2405.000000
0
LWPOLYLINE
5
451
100
AcDbEntity
8
COPPER_BOTTOM
62
1
100
AcDbPolyline
90
2
70
0
43
10.000000
39
10.000000
10
665.000000
20
2405.000000
10
645.000000
20
2405.000000
0
LWPOLYLINE
5
452
100
AcDbEntity
8
COPPER_BOTTOM
62
1
100
AcDbPolyline
90
2
70
0
43
10.000000
39
10.000000
10
577.268307
20
2734.905512
10
560.000000
20
2734.905512
0
LWPOLYLINE
5
453
100
AcDbEntity
8
COPPER_BOTTOM
62
1
100
AcDbPolyline
90
2
70
0
43
10.000000
39
10.000000
10
560.000000
20
2734.905512
10
560.000000
20
2820.000000
0
LWPOLYLINE
5
454
100
AcDbEntity
8
COPPER_BOTTOM
62
1
100
AcDbPolyline
90
2
70
0
43
10.000000
39
10.000000
10
560.000000
20
2820.000000
10
540.000000
20
2840.000000
0
LWPOLYLINE
5
455
100
AcDbEntity
8
COPPER_BOTTOM
62
1
100
AcDbPolyline
90
2
70
0
43
10.000000
39
10.000000
10
540.000000
20
2840.000000
10
280.000000
20
2840.000000
0
LWPOLYLINE
5
456
100
AcDbEntity
8
COPPER_BOTTOM
62
1
100
AcDbPolyline
90
2
70
0
43
10.000000
39
10.000000
10
280.000000
20
2840.000000
10
280.000000
20
2880.000000
0
LWPOLYLINE
5
457
100
AcDbEntity
8
COPPER_BOTTOM
62
1
100
AcDbPolyline
90
2
70
0
43
10.000000
39
10.000000
10
280.000000
20
2880.000000
10
260.000000
20
2880.000000
0
LWPOLYLINE
5
458
100
AcDbEntity
8
COPPER_BOTTOM
62
1
100
AcDbPolyline
90
2
70
0
43
10.000000
39
10.000000
10
2860.000000
20
1560.000000
10
2860.000000
20
1620.000000
0
LWPOLYLINE
5
459
100
AcDbEntity
8
COPPER_BOTTOM
62
1
100
AcDbPolyline
90
2
70
0
43
10.000000
39
10.000000
10
2860.000000
20
1620.000000
10
2840.000000
20
1640.000000
0
LWPOLYLINE
5
45A
100
AcDbEntity
8
COPPER_BOTTOM
62
1
100
AcDbPolyline
90
2
70
0
43
10.000000
39
10.000000
10
2840.000000
20
1640.000000
10
1740.000000
20
1640.000000
0
LWPOLYLINE
5
45B
100
AcDbEntity
8
COPPER_BOTTOM
62
1
100
AcDbPolyline
90
2
70
0
43
10.000000
39
10.000000
10
1740.000000
20
1640.000000
10
1720.000000
20
1660.000000
0
LWPOLYLINE
5
45C
100
AcDbEntity
8
COPPER_BOTTOM
62
1
100
AcDbPolyline
90
2
70
0
43
10.000000
39
10.000000
10
1720.000000
20
1660.000000
10
1720.000000
20
2380.000000
0
LWPOLYLINE
5
45D
100
AcDbEntity
8
COPPER_BOTTOM
62
1
100
AcDbPolyline
90
2
70
0
43
10.000000
39
10.000000
10
1720.000000
20
2380.000000
10
1680.000000
20
2380.000000
0
LWPOLYLINE
5
45E
100
AcDbEntity
8
COPPER_BOTTOM
62
1
100
AcDbPolyline
90
2
70
0
43
10.000000
39
10.000000
10
2100.000000
20
2840.000000
10
2080.000000
20
2840.000000
0
LWPOLYLINE
5
45F
100
AcDbEntity
8
COPPER_BOTTOM
62
1
100
AcDbPolyline
90
2
70
0
43
10.000000
39
10.000000
10
2080.000000
20
2840.000000
10
2080.000000
20
2800.000000
0
LWPOLYLINE
5
460
100
AcDbEntity
8
COPPER_BOTTOM
62
1
100
AcDbPolyline
90
2
70
0
43
10.000000
39
10.000000
10
2080.000000
20
2800.000000
10
2060.000000
20
2780.000000
0
LWPOLYLINE
5
461
100
AcDbEntity
8
COPPER_BOTTOM
62
1
100
AcDbPolyline
90
2
70
0
43
10.000000
39
10.000000
10
2060.000000
20
2780.000000
10
1840.000000
20
2780.000000
0
LWPOLYLINE
5
462
100
AcDbEntity
8
COPPER_BOTTOM
62
1
100
AcDbPolyline
90
2
70
0
43
10.000000
39
10.000000
10
1840.000000
20
2780.000000
10
1840.000000
20
2766.534961
0
LWPOLYLINE
5
463
100
AcDbEntity
8
COPPER_BOTTOM
62
1
100
AcDbPolyline
90
2
70
0
43
10.000000
39
10.000000
10
1840.000000
20
2766.534961
10
1808.370551
20
2734.905512
0
LWPOLYLINE
5
464
100
AcDbEntity
8
COPPER_BOTTOM
62
1
100
AcDbPolyline
90
2
70
0
43
10.000000
39
10.000000
10
1680.000000
20
2380.000000
10
760.000000
20
2380.000000
0
LWPOLYLINE
5
465
100
AcDbEntity
8
COPPER_BOTTOM
62
1
100
AcDbPolyline
90
2
70
0
43
10.000000
39
10.000000
10
760.000000
20
2380.000000
10
760.000000
20
2390.000000
0
LWPOLYLINE
5
466
100
AcDbEntity
8
COPPER_BOTTOM
62
1
100
AcDbPolyline
90
2
70
0
43
10.000000
39
10.000000
10
760.000000
20
2390.000000
10
745.000000
20
2405.000000
0
LWPOLYLINE
5
467
100
AcDbEntity
8
COPPER_BOTTOM
62
1
100
AcDbPolyline
90
2
70
0
43
10.000000
39
10.000000
10
1664.669803
20
3246.716535
10
1626.716535
20
3246.716535
0
LWPOLYLINE
5
468
100
AcDbEntity
8
COPPER_BOTTOM
62
1
100
AcDbPolyline
90
2
70
0
43
10.000000
39
10.000000
10
1626.716535
20
3246.716535
10
1620.000000
20
3240.000000
0
LWPOLYLINE
5
469
100
AcDbEntity
8
COPPER_BOTTOM
62
1
100
AcDbPolyline
90
2
70
0
43
10.000000
39
10.000000
10
1620.000000
20
3240.000000
10
760.000000
20
3240.000000
0
LWPOLYLINE
5
46A
100
AcDbEntity
8
COPPER_BOTTOM
62
1
100
AcDbPolyline
90
2
70
0
43
10.000000
39
10.000000
10
760.000000
20
3240.000000
10
753.283465
20
3246.716535
0
LWPOLYLINE
5
46B
100
AcDbEntity
8
COPPER_BOTTOM
62
1
100
AcDbPolyline
90
2
70
0
43
10.000000
39
10.000000
10
753.283465
20
3246.716535
10
720.969055
20
3246.716535
0
LWPOLYLINE
5
46C
100
AcDbEntity
8
COPPER_BOTTOM
62
1
100
AcDbPolyline
90
2
70
0
43
10.000000
39
10.000000
10
1700.000000
20
3580.000000
10
1700.000000
20
3560.000000
0
LWPOLYLINE
5
46D
100
AcDbEntity
8
COPPER_BOTTOM
62
1
100
AcDbPolyline
90
2
70
0
43
10.000000
39
10.000000
10
1700.000000
20
3560.000000
10
1680.000000
20
3540.000000
0
LWPOLYLINE
5
46E
100
AcDbEntity
8
COPPER_BOTTOM
62
1
100
AcDbPolyline
90
2
70
0
43
10.000000
39
10.000000
10
1680.000000
20
3540.000000
10
1680.000000
20
3280.000000
0
LWPOLYLINE
5
46F
100
AcDbEntity
8
COPPER_BOTTOM
62
1
100
AcDbPolyline
90
2
70
0
43
10.000000
39
10.000000
10
1680.000000
20
3280.000000
10
1664.669803
20
3264.669803
0
LWPOLYLINE
5
470
100
AcDbEntity
8
COPPER_BOTTOM
62
1
100
AcDbPolyline
90
2
70
0
43
10.000000
39
10.000000
10
1664.669803
20
3264.669803
10
1664.669803
20
3246.716535
0
LWPOLYLINE
5
471
100
AcDbEntity
8
COPPER_BOTTOM
62
1
100
AcDbPolyline
90
2
70
0
43
10.000000
39
10.000000
10
1730.000000
20
2430.000000
10
1710.000000
20
2430.000000
0
LWPOLYLINE
5
472
100
AcDbEntity
8
COPPER_BOTTOM
62
1
100
AcDbPolyline
90
2
70
0
43
10.000000
39
10.000000
10
1710.000000
20
2430.000000
10
1700.000000
20
2440.000000
0
LWPOLYLINE
5
473
100
AcDbEntity
8
COPPER_BOTTOM
62
1
100
AcDbPolyline
90
2
70
0
43
10.000000
39
10.000000
10
1700.000000
20
2440.000000
10
1620.000000
20
2440.000000
0
LWPOLYLINE
5
474
100
AcDbEntity
8
COPPER_BOTTOM
62
1
100
AcDbPolyline
90
2
70
0
43
10.000000
39
10.000000
10
1620.000000
20
2440.000000
10
1600.000000
20
2460.000000
0
LWPOLYLINE
5
475
100
AcDbEntity
8
COPPER_BOTTOM
62
1
100
AcDbPolyline
90
2
70
0
43
10.000000
39
10.000000
10
1600.000000
20
2460.000000
10
1600.000000
20
2780.000000
0
LWPOLYLINE
5
476
100
AcDbEntity
8
COPPER_BOTTOM
62
1
100
AcDbPolyline
90
2
70
0
43
10.000000
39
10.000000
10
1600.000000
20
2780.000000
10
1580.000000
20
2800.000000
0
LWPOLYLINE
5
477
100
AcDbEntity
8
COPPER_BOTTOM
62
1
100
AcDbPolyline
90
2
70
0
43
10.000000
39
10.000000
10
1580.000000
20
2800.000000
10
640.000000
20
2800.000000
0
LWPOLYLINE
5
478
100
AcDbEntity
8
COPPER_BOTTOM
62
1
100
AcDbPolyline
90
2
70
0
43
10.000000
39
10.000000
10
640.000000
20
2800.000000
10
620.000000
20
2780.000000
0
LWPOLYLINE
5
479
100
AcDbEntity
8
COPPER_BOTTOM
62
1
100
AcDbPolyline
90
2
70
0
43
10.000000
39
10.000000
10
620.000000
20
2780.000000
10
620.000000
20
2760.000000
0
LWPOLYLINE
5
47A
100
AcDbEntity
8
COPPER_BOTTOM
62
1
100
AcDbPolyline
90
2
70
0
43
10.000000
39
10.000000
10
620.000000
20
2760.000000
10
577.268307
20
2760.000000
0
LWPOLYLINE
5
47B
100
AcDbEntity
8
COPPER_BOTTOM
62
1
100
AcDbPolyline
90
2
70
0
43
10.000000
39
10.000000
10
577.268307
20
2760.000000
10
577.268307
20
2734.905512
0
LWPOLYLINE
5
47C
100
AcDbEntity
8
COPPER_BOTTOM
62
1
100
AcDbPolyline
90
2
70
0
43
10.000000
39
10.000000
10
580.000000
20
3600.000000
10
580.000000
20
3580.000000
0
LWPOLYLINE
5
47D
100
AcDbEntity
8
COPPER_BOTTOM
62
1
100
AcDbPolyline
90
2
70
0
43
10.000000
39
10.000000
10
580.000000
20
3580.000000
10
560.000000
20
3560.000000
0
LWPOLYLINE
5
47E
100
AcDbEntity
8
COPPER_BOTTOM
62
1
100
AcDbPolyline
90
2
70
0
43
10.000000
39
10.000000
10
560.000000
20
3560.000000
10
560.000000
20
3263.984843
0
LWPOLYLINE
5
47F
100
AcDbEntity
8
COPPER_BOTTOM
62
1
100
AcDbPolyline
90
2
70
0
43
10.000000
39
10.000000
10
560.000000
20
3263.984843
10
577.268307
20
3246.716535
0
LWPOLYLINE
5
480
100
AcDbEntity
8
COPPER_BOTTOM
62
1
100
AcDbPolyline
90
2
70
0
43
10.000000
39
10.000000
10
1800.000000
20
3580.000000
10
1800.000000
20
3280.000000
0
LWPOLYLINE
5
481
100
AcDbEntity
8
COPPER_BOTTOM
62
1
100
AcDbPolyline
90
2
70
0
43
10.000000
39
10.000000
10
1800.000000
20
3280.000000
10
1808.370551
20
3271.629449
0
LWPOLYLINE
5
482
100
AcDbEntity
8
COPPER_BOTTOM
62
1
100
AcDbPolyline
90
2
70
0
43
10.000000
39
10.000000
10
1808.370551
20
3271.629449
10
1808.370551
20
3246.716535
0
LWPOLYLINE
5
483
100
AcDbEntity
8
COPPER_BOTTOM
62
1
100
AcDbPolyline
90
2
70
0
43
10.000000
39
10.000000
10
720.969055
20
3246.716535
10
700.000000
20
3267.685591
0
LWPOLYLINE
5
484
100
AcDbEntity
8
COPPER_BOTTOM
62
1
100
AcDbPolyline
90
2
70
0
43
10.000000
39
10.000000
10
700.000000
20
3267.685591
10
700.000000
20
3560.000000
0
LWPOLYLINE
5
485
100
AcDbEntity
8
COPPER_BOTTOM
62
1
100
AcDbPolyline
90
2
70
0
43
10.000000
39
10.000000
10
700.000000
20
3560.000000
10
680.000000
20
3580.000000
0
LWPOLYLINE
5
486
100
AcDbEntity
8
COPPER_BOTTOM
62
1
100
AcDbPolyline
90
2
70
0
43
10.000000
39
10.000000
10
680.000000
20
3580.000000
10
680.000000
20
3600.000000
0
LWPOLYLINE
5
487
100
AcDbEntity
8
COPPER_BOTTOM
62
1
100
AcDbPolyline
90
2
70
0
43
10.000000
39
10.000000
10
695.000000
20
2355.000000
10
1650.000000
20
1400.000000
0
LWPOLYLINE
5
488
100
AcDbEntity
8
COPPER_BOTTOM
62
1
100
AcDbPolyline
90
2
70
0
43
10.000000
39
10.000000
10
1650.000000
20
1400.000000
10
3390.000000
20
1400.000000
0
LWPOLYLINE
5
489
100
AcDbEntity
8
COPPER_BOTTOM
62
1
100
AcDbPolyline
90
2
70
0
43
10.000000
39
10.000000
10
3390.000000
20
1400.000000
10
3440.000000
20
1450.000000
0
LWPOLYLINE
5
48A
100
AcDbEntity
8
COPPER_BOTTOM
62
1
100
AcDbPolyline
90
2
70
0
43
10.000000
39
10.000000
10
3440.000000
20
1450.000000
10
3440.000000
20
2335.000000
0
LWPOLYLINE
5
48B
100
AcDbEntity
8
COPPER_BOTTOM
62
1
100
AcDbPolyline
90
2
70
0
43
10.000000
39
10.000000
10
3440.000000
20
2335.000000
10
2935.000000
20
2840.000000
0
LWPOLYLINE
5
48C
100
AcDbEntity
8
COPPER_BOTTOM
62
1
100
AcDbPolyline
90
2
70
0
43
10.000000
39
10.000000
10
2935.000000
20
2840.000000
10
2100.000000
20
2840.000000
0
LWPOLYLINE
5
48D
100
AcDbEntity
8
COPPER_BOTTOM
62
1
100
AcDbPolyline
90
2
70
0
43
10.000000
39
10.000000
10
280.000000
20
2280.000000
10
600.000000
20
2280.000000
0
LWPOLYLINE
5
48E
100
AcDbEntity
8
COPPER_BOTTOM
62
1
100
AcDbPolyline
90
2
70
0
43
10.000000
39
10.000000
10
1684.669685
20
2734.905512
10
1664.669803
20
2734.905512
0
LWPOLYLINE
5
48F
100
AcDbEntity
8
COPPER_BOTTOM
62
1
100
AcDbPolyline
90
2
70
0
43
10.000000
39
10.000000
10
1700.000000
20
2482.928898
10
1702.928898
20
2480.000000
0
LWPOLYLINE
5
490
100
AcDbEntity
8
COPPER_BOTTOM
62
1
100
AcDbPolyline
90
2
70
0
43
10.000000
39
10.000000
10
1760.000000
20
2480.000000
10
1702.928898
20
2480.000000
0
LWPOLYLINE
5
491
100
AcDbEntity
8
COPPER_BOTTOM
62
1
100
AcDbPolyline
90
2
70
0
43
10.000000
39
10.000000
10
1700.000000
20
2719.575197
10
1684.669685
20
2734.905512
0
LWPOLYLINE
5
492
100
AcDbEntity
8
COPPER_BOTTOM
62
1
100
AcDbPolyline
90
2
70
0
43
10.000000
39
10.000000
10
1700.000000
20
2482.928898
10
1700.000000
20
2719.575197
0
HATCH
5
493
100
AcDbEntity
8
COPPER_BOTTOM
100
AcDbHatch
10
0.0
20
0.0
30
0.0
210
0.0
220
0.0
230
1.0
2
SOLID
70
1
71
0
91
2
92
1
93
1
72
2
10
2860.000000
20
3720.000000
40
30.250000
50
0.000000
51
360.000000
73
1
97
0
92
1
93
1
72
2
10
2860.000000
20
3720.000000
40
23.250000
50
0.000000
51
360.000000
73
1
97
0
75
0
76
0
98
1
10
0.0
20
0.0
0
HATCH
5
494
100
AcDbEntity
8
COPPER_BOTTOM
100
AcDbHatch
10
0.0
20
0.0
30
0.0
210
0.0
220
0.0
230
1.0
2
SOLID
70
1
71
0
91
2
92
1
93
1
72
2
10
2860.000000
20
1560.000000
40
30.250000
50
0.000000
51
360.000000
73
1
97
0
92
1
93
1
72
2
10
2860.000000
20
1560.000000
40
23.250000
50
0.000000
51
360.000000
73
1
97
0
75
0
76
0
98
1
10
0.0
20
0.0
0
HATCH
5
495
100
AcDbEntity
8
COPPER_BOTTOM
100
AcDbHatch
10
0.0
20
0.0
30
0.0
210
0.0
220
0.0
230
1.0
2
SOLID
70
1
71
0
91
2
92
1
93
1
72
2
10
680.000000
20
3600.000000
40
31.670000
50
0.000000
51
360.000000
73
1
97
0
92
1
93
1
72
2
10
680.000000
20
3600.000000
40
17.500000
50
0.000000
51
360.000000
73
1
97
0
75
0
76
0
98
1
10
0.0
20
0.0
0
HATCH
5
496
100
AcDbEntity
8
COPPER_BOTTOM
100
AcDbHatch
10
0.0
20
0.0
30
0.0
210
0.0
220
0.0
230
1.0
2
SOLID
70
1
71
0
91
2
92
1
93
1
72
2
10
580.000000
20
3600.000000
40
31.670000
50
0.000000
51
360.000000
73
1
97
0
92
1
93
1
72
2
10
580.000000
20
3600.000000
40
17.500000
50
0.000000
51
360.000000
73
1
97
0
75
0
76
0
98
1
10
0.0
20
0.0
0
HATCH
5
497
100
AcDbEntity
8
COPPER_BOTTOM
100
AcDbHatch
10
0.0
20
0.0
30
0.0
210
0.0
220
0.0
230
1.0
2
SOLID
70
1
71
0
91
2
92
1
93
1
72
2
10
745.000000
20
2405.000000
40
27.500000
50
0.000000
51
360.000000
73
1
97
0
92
1
93
1
72
2
10
745.000000
20
2405.000000
40
20.000000
50
0.000000
51
360.000000
73
1
97
0
75
0
76
0
98
1
10
0.0
20
0.0
0
HATCH
5
498
100
AcDbEntity
8
COPPER_BOTTOM
100
AcDbHatch
10
0.0
20
0.0
30
0.0
210
0.0
220
0.0
230
1.0
2
SOLID
70
1
71
0
91
2
92
1
93
1
72
2
10
645.000000
20
2405.000000
40
27.500000
50
0.000000
51
360.000000
73
1
97
0
92
1
93
1
72
2
10
645.000000
20
2405.000000
40
20.000000
50
0.000000
51
360.000000
73
1
97
0
75
0
76
0
98
1
10
0.0
20
0.0
0
HATCH
5
499
100
AcDbEntity
8
COPPER_BOTTOM
100
AcDbHatch
10
0.0
20
0.0
30
0.0
210
0.0
220
0.0
230
1.0
2
SOLID
70
1
71
0
91
2
92
1
93
1
72
2
10
695.000000
20
2355.000000
40
27.500000
50
0.000000
51
360.000000
73
1
97
0
92
1
93
1
72
2
10
695.000000
20
2355.000000
40
20.000000
50
0.000000
51
360.000000
73
1
97
0
75
0
76
0
98
1
10
0.0
20
0.0
0
HATCH
5
49A
100
AcDbEntity
8
COPPER_BOTTOM
100
AcDbHatch
10
0.0
20
0.0
30
0.0
210
0.0
220
0.0
230
1.0
2
SOLID
70
1
71
0
91
2
92
1
93
1
72
2
10
1700.000000
20
3580.000000
40
31.670000
50
0.000000
51
360.000000
73
1
97
0
92
1
93
1
72
2
10
1700.000000
20
3580.000000
40
17.500000
50
0.000000
51
360.000000
73
1
97
0
75
0
76
0
98
1
10
0.0
20
0.0
0
HATCH
5
49B
100
AcDbEntity
8
COPPER_BOTTOM
100
AcDbHatch
10
0.0
20
0.0
30
0.0
210
0.0
220
0.0
230
1.0
2
SOLID
70
1
71
0
91
2
92
1
93
1
72
2
10
1800.000000
20
3580.000000
40
31.670000
50
0.000000
51
360.000000
73
1
97
0
92
1
93
1
72
2
10
1800.000000
20
3580.000000
40
17.500000
50
0.000000
51
360.000000
73
1
97
0
75
0
76
0
98
1
10
0.0
20
0.0
0
HATCH
5
49C
100
AcDbEntity
8
COPPER_BOTTOM
100
AcDbHatch
10
0.0
20
0.0
30
0.0
210
0.0
220
0.0
230
1.0
2
SOLID
70
1
71
0
91
2
92
1
93
1
72
2
10
1680.000000
20
2380.000000
40
27.500000
50
0.000000
51
360.000000
73
1
97
0
92
1
93
1
72
2
10
1680.000000
20
2380.000000
40
20.000000
50
0.000000
51
360.000000
73
1
97
0
75
0
76
0
98
1
10
0.0
20
0.0
0
HATCH
5
49D
100
AcDbEntity
8
COPPER_BOTTOM
100
AcDbHatch
10
0.0
20
0.0
30
0.0
210
0.0
220
0.0
230
1.0
2
SOLID
70
1
71
0
91
2
92
1
93
1
72
2
10
1780.000000
20
2380.000000
40
27.500000
50
0.000000
51
360.000000
73
1
97
0
92
1
93
1
72
2
10
1780.000000
20
2380.000000
40
20.000000
50
0.000000
51
360.000000
73
1
97
0
75
0
76
0
98
1
10
0.0
20
0.0
0
HATCH
5
49E
100
AcDbEntity
8
COPPER_BOTTOM
100
AcDbHatch
10
0.0
20
0.0
30
0.0
210
0.0
220
0.0
230
1.0
2
SOLID
70
1
71
0
91
2
92
1
93
1
72
2
10
1730.000000
20
2430.000000
40
27.500000
50
0.000000
51
360.000000
73
1
97
0
92
1
93
1
72
2
10
1730.000000
20
2430.000000
40
20.000000
50
0.000000
51
360.000000
73
1
97
0
75
0
76
0
98
1
10
0.0
20
0.0
0
HATCH
5
49F
100
AcDbEntity
8
COPPER_BOTTOM
100
AcDbHatch
10
0.0
20
0.0
30
0.0
210
0.0
220
0.0
230
1.0
2
SOLID
70
1
71
0
91
2
92
1
93
1
72
2
10
260.000000
20
2250.078740
40
29.527559
50
0.000000
51
360.000000
73
1
97
0
92
1
93
1
72
2
10
260.000000
20
2250.078740
40
17.716535
50
0.000000
51
360.000000
73
1
97
0
75
0
76
0
98
1
10
0.0
20
0.0
0
HATCH
5
4A0
100
AcDbEntity
8
COPPER_BOTTOM
100
AcDbHatch
10
0.0
20
0.0
30
0.0
210
0.0
220
0.0
230
1.0
2
SOLID
70
1
71
0
91
2
92
1
93
1
72
2
10
260.000000
20
2880.000000
40
29.527559
50
0.000000
51
360.000000
73
1
97
0
92
1
93
1
72
2
10
260.000000
20
2880.000000
40
17.716535
50
0.000000
51
360.000000
73
1
97
0
75
0
76
0
98
1
10
0.0
20
0.0
0
HATCH
5
4A1
100
AcDbEntity
8
COPPER_BOTTOM
100
AcDbHatch
10
0.0
20
0.0
30
0.0
210
0.0
220
0.0
230
1.0
2
SOLID
70
1
71
0
91
2
92
1
93
1
72
2
10
577.268307
20
3246.716535
40
29.527559
50
0.000000
51
360.000000
73
1
97
0
92
1
93
1
72
2
10
577.268307
20
3246.716535
40
17.716535
50
0.000000
51
360.000000
73
1
97
0
75
0
76
0
98
1
10
0.0
20
0.0
0
HATCH
5
4A2
100
AcDbEntity
8
COPPER_BOTTOM
100
AcDbHatch
10
0.0
20
0.0
30
0.0
210
0.0
220
0.0
230
1.0
2
SOLID
70
1
71
0
91
2
92
1
93
1
72
2
10
577.268307
20
2734.905512
40
29.527559
50
0.000000
51
360.000000
73
1
97
0
92
1
93
1
72
2
10
577.268307
20
2734.905512
40
17.716535
50
0.000000
51
360.000000
73
1
97
0
75
0
76
0
98
1
10
0.0
20
0.0
0
HATCH
5
4A3
100
AcDbEntity
8
COPPER_BOTTOM
100
AcDbHatch
10
0.0
20
0.0
30
0.0
210
0.0
220
0.0
230
1.0
2
SOLID
70
1
71
0
91
2
92
1
93
1
72
2
10
720.969055
20
3246.716535
40
29.527559
50
0.000000
51
360.000000
73
1
97
0
92
1
93
1
72
2
10
720.969055
20
3246.716535
40
17.716535
50
0.000000
51
360.000000
73
1
97
0
75
0
76
0
98
1
10
0.0
20
0.0
0
HATCH
5
4A4
100
AcDbEntity
8
COPPER_BOTTOM
100
AcDbHatch
10
0.0
20
0.0
30
0.0
210
0.0
220
0.0
230
1.0
2
SOLID
70
1
71
0
91
2
92
1
93
1
72
2
10
720.969055
20
2734.905512
40
29.527559
50
0.000000
51
360.000000
73
1
97
0
92
1
93
1
72
2
10
720.969055
20
2734.905512
40
17.716535
50
0.000000
51
360.000000
73
1
97
0
75
0
76
0
98
1
10
0.0
20
0.0
0
HATCH
5
4A5
100
AcDbEntity
8
COPPER_BOTTOM
100
AcDbHatch
10
0.0
20
0.0
30
0.0
210
0.0
220
0.0
230
1.0
2
SOLID
70
1
71
0
91
2
92
1
93
1
72
2
10
1808.370551
20
3246.716535
40
29.527559
50
0.000000
51
360.000000
73
1
97
0
92
1
93
1
72
2
10
1808.370551
20
3246.716535
40
17.716535
50
0.000000
51
360.000000
73
1
97
0
75
0
76
0
98
1
10
0.0
20
0.0
0
HATCH
5
4A6
100
AcDbEntity
8
COPPER_BOTTOM
100
AcDbHatch
10
0.0
20
0.0
30
0.0
210
0.0
220
0.0
230
1.0
2
SOLID
70
1
71
0
91
2
92
1
93
1
72
2
10
1808.370551
20
2734.905512
40
29.527559
50
0.000000
51
360.000000
73
1
97
0
92
1
93
1
72
2
10
1808.370551
20
2734.905512
40
17.716535
50
0.000000
51
360.000000
73
1
97
0
75
0
76
0
98
1
10
0.0
20
0.0
0
HATCH
5
4A7
100
AcDbEntity
8
COPPER_BOTTOM
100
AcDbHatch
10
0.0
20
0.0
30
0.0
210
0.0
220
0.0
230
1.0
2
SOLID
70
1
71
0
91
2
92
1
93
1
72
2
10
1664.669803
20
3246.716535
40
29.527559
50
0.000000
51
360.000000
73
1
97
0
92
1
93
1
72
2
10
1664.669803
20
3246.716535
40
17.716535
50
0.000000
51
360.000000
73
1
97
0
75
0
76
0
98
1
10
0.0
20
0.0
0
HATCH
5
4A8
100
AcDbEntity
8
COPPER_BOTTOM
100
AcDbHatch
10
0.0
20
0.0
30
0.0
210
0.0
220
0.0
230
1.0
2
SOLID
70
1
71
0
91
2
92
1
93
1
72
2
10
1664.669803
20
2734.905512
40
29.527559
50
0.000000
51
360.000000
73
1
97
0
92
1
93
1
72
2
10
1664.669803
20
2734.905512
40
17.716535
50
0.000000
51
360.000000
73
1
97
0
75
0
76
0
98
1
10
0.0
20
0.0
0
HATCH
5
4A9
100
AcDbEntity
8
COPPER_BOTTOM
100
AcDbHatch
10
0.0
20
0.0
30
0.0
210
0.0
220
0.0
230
1.0
2
SOLID
70
1
71
0
91
2
92
1
93
1
72
2
10
2100.000000
20
2210.078740
40
29.527559
50
0.000000
51
360.000000
73
1
97
0
92
1
93
1
72
2
10
2100.000000
20
2210.078740
40
17.716535
50
0.000000
51
360.000000
73
1
97
0
75
0
76
0
98
1
10
0.0
20
0.0
0
HATCH
5
4AA
100
AcDbEntity
8
COPPER_BOTTOM
100
AcDbHatch
10
0.0
20
0.0
30
0.0
210
0.0
220
0.0
230
1.0
2
SOLID
70
1
71
0
91
2
92
1
93
1
72
2
10
2100.000000
20
2840.000000
40
29.527559
50
0.000000
51
360.000000
73
1
97
0
92
1
93
1
72
2
10
2100.000000
20
2840.000000
40
17.716535
50
0.000000
51
360.000000
73
1
97
0
75
0
76
0
98
1
10
0.0
20
0.0
0
ENDSEC
0
SECTION
2
OBJECTS
0
DICTIONARY
5
4AB
100
AcDbDictionary
3
ACAD_GROUP
350
4AC
3
ACAD_LAYOUT
350
4AD
3
ACAD_MLINESTYLE
350
4AE
0
DICTIONARY
5
4AC
100
AcDbDictionary
0
DICTIONARY
5
4AD
100
AcDbDictionary
0
DICTIONARY
5
4AE
100
AcDbDictionary
3
STANDARD
350
4AF
0
MLINESTYLE
5
4AF
100
AcDbMlineStyle
2
Standard
70
0
3

62
256
51
90.0
52
90.0
71
2
49
0.5
62
256
6
BYLAYER
49
-0.5
62
256
6
BYLAYER
0
ENDSEC
0
EOF
