G04 Generated by Ultiboard 14.2 *
%FSLAX24Y24*%
%MOIN*%

%ADD10C,0.0001*%
%ADD11C,0.0001*%
%ADD12C,0.0100*%
%ADD13C,0.0050*%
%ADD14C,0.0605*%
%ADD15C,0.0633*%
%ADD16C,0.0550*%
%ADD17C,0.0591*%


G04 ColorRGB 0000FF for the following layer *
%LNCopper Bottom*%
%LPD*%
G54D10*
G36*
X35400Y39299D02*
X35400Y39299D01*
X0Y39299D01*
X0Y12800D01*
X35400Y12800D01*
X35400Y39299D01*
D02*
G37*
%LPC*%
G36*
X17149Y16575D02*
X17149Y16575D01*
X17149Y23508D01*
X17106Y23551D01*
G74*
D01*
G02X17079Y23549I35J249*
G01*
G75*
D01*
G02X16521Y23549I-279J251*
G01*
X16521Y23549D01*
X7600Y23549D01*
G75*
D01*
G02X7486Y23576I0J251*
G01*
G75*
D01*
G02X7425Y23575I-36J474*
G01*
G75*
D01*
G02X7413Y23443I-475J-25*
G01*
X7413Y23443D01*
X8908Y21948D01*
X9248Y21608D01*
X16604Y14251D01*
X33796Y14251D01*
X34149Y14604D01*
X34149Y23246D01*
X29246Y28149D01*
X21305Y28149D01*
G74*
D01*
G02X21051Y28008I305J251*
G01*
X21051Y28008D01*
X21051Y28000D01*
G75*
D01*
G02X20978Y27822I-251J0*
G01*
X20978Y27822D01*
X20778Y27622D01*
G74*
D01*
G02X20683Y27563I178J178*
G01*
G75*
D01*
G02X20600Y27549I-83J237*
G01*
X20600Y27549D01*
X18623Y27549D01*
G74*
D01*
G02X18578Y27487I223J116*
G01*
X18578Y27487D01*
X18477Y27387D01*
G75*
D01*
G02X18122Y27743I-393J-38*
G01*
X18122Y27743D01*
X18149Y27770D01*
X18149Y27800D01*
G75*
D01*
G02X18400Y28051I251J0*
G01*
X18400Y28051D01*
X20496Y28051D01*
X20549Y28104D01*
X20549Y28400D01*
G74*
D01*
G02X20667Y28613I251J0*
G01*
G75*
D01*
G02X21305Y28651I333J-213*
G01*
X21305Y28651D01*
X29350Y28651D01*
G75*
D01*
G02X29395Y28647I0J-251*
G01*
G74*
D01*
G02X29528Y28578I45J247*
G01*
X29528Y28578D01*
X34578Y23528D01*
G74*
D01*
G02X34651Y23350I178J178*
G01*
X34651Y23350D01*
X34651Y14500D01*
G75*
D01*
G02X34578Y14322I-251J0*
G01*
X34578Y14322D01*
X34078Y13822D01*
G74*
D01*
G02X33900Y13749I178J178*
G01*
X33900Y13749D01*
X16500Y13749D01*
G75*
D01*
G02X16322Y13822I0J251*
G01*
X16322Y13822D01*
X9248Y20897D01*
X8196Y21948D01*
X8196Y21948D01*
X7057Y23087D01*
G75*
D01*
G02X6475Y23575I-107J463*
G01*
G74*
D01*
G02X6451Y23575I25J475*
G01*
X6451Y23575D01*
X6451Y23000D01*
G75*
D01*
G02X6378Y22822I-251J0*
G01*
X6378Y22822D01*
X6078Y22522D01*
G74*
D01*
G02X5974Y22460I178J178*
G01*
G75*
D01*
G02X5900Y22449I-74J240*
G01*
X5900Y22449D01*
X2992Y22449D01*
G75*
D01*
G02X2640Y22894I-392J52*
G01*
G74*
D01*
G02X2794Y22951I159J194*
G01*
X2799Y22951D01*
X2799Y22951D01*
X5796Y22951D01*
X5949Y23104D01*
X5949Y23800D01*
G75*
D01*
G02X5989Y23936I251J0*
G01*
G75*
D01*
G02X6549Y24515I461J114*
G01*
X6549Y24515D01*
X6549Y27139D01*
G75*
D01*
G02X6622Y27317I251J0*
G01*
X6622Y27317D01*
X6832Y27527D01*
G74*
D01*
G02X6877Y27562I178J178*
G01*
G75*
D01*
G02X7051Y26987I333J-213*
G01*
X7051Y26987D01*
X7051Y24309D01*
G75*
D01*
G02X7925Y24051I399J-259*
G01*
X7925Y24051D01*
X16521Y24051D01*
G74*
D01*
G02X16662Y24149I279J251*
G01*
X16662Y24149D01*
X16000Y24149D01*
G75*
D01*
G02X15849Y24300I0J151*
G01*
X15849Y24300D01*
X15849Y27599D01*
G74*
D01*
G02X15822Y27622I151J201*
G01*
X15822Y27622D01*
X15696Y27749D01*
X6504Y27749D01*
X6451Y27696D01*
X6451Y27329D01*
G75*
D01*
G02X6378Y27151I-251J0*
G01*
X6378Y27151D01*
X6349Y27122D01*
G74*
D01*
G02X6171Y27049I178J178*
G01*
X6171Y27049D01*
X6030Y27049D01*
G75*
D01*
G02X5502Y27060I-257J300*
G01*
G74*
D01*
G02X5401Y27122I76J240*
G01*
X5401Y27122D01*
X5322Y27201D01*
G75*
D01*
G02X5249Y27379I178J177*
G01*
X5249Y27379D01*
X5249Y28149D01*
X2800Y28149D01*
G75*
D01*
G02X2549Y28400I0J251*
G01*
X2549Y28400D01*
X2549Y28408D01*
G75*
D01*
G02X2933Y29013I51J392*
G01*
G74*
D01*
G02X3051Y28800I133J213*
G01*
X3051Y28800D01*
X3051Y28651D01*
X5400Y28651D01*
G75*
D01*
G02X5490Y28635I0J-251*
G01*
G74*
D01*
G02X5578Y28578I90J235*
G01*
X5578Y28578D01*
X5678Y28478D01*
G74*
D01*
G02X5751Y28300I178J178*
G01*
X5751Y28300D01*
X5751Y27744D01*
G75*
D01*
G02X5949Y27703I22J-395*
G01*
X5949Y27703D01*
X5949Y27799D01*
G75*
D01*
G02X6022Y27978I251J1*
G01*
X6022Y27978D01*
X6222Y28178D01*
G74*
D01*
G02X6363Y28249I178J178*
G01*
G75*
D01*
G02X6400Y28251I37J-249*
G01*
X6400Y28251D01*
X15800Y28251D01*
G75*
D01*
G02X15883Y28237I0J-251*
G01*
G74*
D01*
G02X15978Y28178I83J237*
G01*
X15978Y28178D01*
X16178Y27978D01*
G75*
D01*
G02X16151Y27599I-178J-178*
G01*
X16151Y27599D01*
X16151Y24451D01*
X16956Y24451D01*
G74*
D01*
G02X17019Y24549I344J151*
G01*
G74*
D01*
G02X16851Y24622I10J251*
G01*
X16851Y24622D01*
X16822Y24651D01*
G75*
D01*
G02X16749Y24830I178J178*
G01*
X16749Y24830D01*
X16749Y26967D01*
G75*
D01*
G02X16980Y27562I-102J382*
G01*
G74*
D01*
G02X17025Y27527I133J213*
G01*
X17025Y27527D01*
X17178Y27374D01*
G74*
D01*
G02X17251Y27196I178J178*
G01*
X17251Y27196D01*
X17251Y24951D01*
X17399Y24951D01*
G75*
D01*
G02X17778Y24978I201J-151*
G01*
X17778Y24978D01*
X17978Y24778D01*
G75*
D01*
G02X17951Y24399I-178J-178*
G01*
X17951Y24399D01*
X17951Y24144D01*
G75*
D01*
G02X18145Y23651I-151J-344*
G01*
X18145Y23651D01*
X20600Y23651D01*
G75*
D01*
G02X20683Y23637I0J-251*
G01*
G74*
D01*
G02X20778Y23578I83J237*
G01*
X20778Y23578D01*
X20978Y23378D01*
G74*
D01*
G02X21051Y23200I178J178*
G01*
X21051Y23200D01*
X21051Y22493D01*
G75*
D01*
G02X20606Y22140I-51J-392*
G01*
G75*
D01*
G02X20549Y22301I194J161*
G01*
X20549Y22301D01*
X20549Y23096D01*
X20496Y23149D01*
X17800Y23149D01*
G75*
D01*
G02X17549Y23400I0J251*
G01*
X17549Y23400D01*
X17549Y23521D01*
G74*
D01*
G02X17425Y23800I251J279*
G01*
X17425Y23800D01*
X17322Y23800D01*
G74*
D01*
G02X17320Y23765I251J0*
G01*
X17320Y23765D01*
X17407Y23678D01*
G74*
D01*
G02X17451Y23571I107J107*
G01*
X17451Y23571D01*
X17451Y16651D01*
X28400Y16651D01*
G75*
D01*
G02X28483Y16637I0J-251*
G01*
G74*
D01*
G02X28578Y16578I83J237*
G01*
X28578Y16578D01*
X28778Y16378D01*
G74*
D01*
G02X28851Y16200I178J178*
G01*
X28851Y16200D01*
X28851Y15915D01*
G75*
D01*
G02X28349Y15915I-251J-315*
G01*
X28349Y15915D01*
X28349Y16096D01*
X28296Y16149D01*
X17329Y16149D01*
G75*
D01*
G02X17149Y16575I0J251*
G01*
D02*
G37*
G36*
X17200Y37451D02*
X17200Y37451D01*
X28285Y37451D01*
G75*
D01*
G02X28285Y36949I315J-251*
G01*
X28285Y36949D01*
X17304Y36949D01*
X17251Y36896D01*
X17251Y36133D01*
G75*
D01*
G02X16943Y35387I-251J-333*
G01*
X16943Y35387D01*
X16851Y35296D01*
X16851Y32806D01*
G75*
D01*
G02X16341Y32216I-204J-339*
G01*
X16341Y32216D01*
X7515Y32216D01*
G75*
D01*
G02X6903Y32217I-305J251*
G01*
G74*
D01*
G02X6751Y32289I26J250*
G01*
X6751Y32289D01*
X6622Y32419D01*
G75*
D01*
G02X6549Y32597I178J177*
G01*
X6549Y32597D01*
X6549Y35667D01*
G75*
D01*
G02X7051Y35667I251J333*
G01*
X7051Y35667D01*
X7051Y32830D01*
G75*
D01*
G02X7515Y32719I159J-363*
G01*
X7515Y32719D01*
X16341Y32719D01*
G74*
D01*
G02X16349Y32727I306J252*
G01*
X16349Y32727D01*
X16349Y35399D01*
G75*
D01*
G02X16422Y35578I251J1*
G01*
X16422Y35578D01*
X16587Y35743D01*
G75*
D01*
G02X16749Y36133I413J57*
G01*
X16749Y36133D01*
X16749Y36999D01*
G75*
D01*
G02X16822Y37178I251J1*
G01*
X16822Y37178D01*
X17022Y37378D01*
G74*
D01*
G02X17163Y37449I178J178*
G01*
G75*
D01*
G02X17200Y37451I37J-249*
G01*
D02*
G37*
G36*
X17849Y35412D02*
G75*
D01*
G02X18351Y35576I151J388*
G01*
X18351Y35576D01*
X18351Y32758D01*
G75*
D01*
G02X17849Y32785I-267J-291*
G01*
X17849Y32785D01*
X17849Y35412D01*
D02*
G37*
G36*
X5979Y35623D02*
X5978Y35622D01*
X5978Y35622D01*
X5851Y35496D01*
X5851Y32855D01*
G75*
D01*
G02X5380Y32517I-78J-388*
G01*
G75*
D01*
G02X5349Y32640I220J123*
G01*
X5349Y32640D01*
X5349Y35599D01*
G75*
D01*
G02X5422Y35778I251J1*
G01*
X5422Y35778D01*
X5438Y35793D01*
G75*
D01*
G02X5979Y35623I362J207*
G01*
D02*
G37*
%LPD*%
G36*
X17289Y23925D02*
G74*
D01*
G02X17301Y23900I218J125*
G01*
X17301Y23900D01*
X17400Y23900D01*
X17400Y23938D01*
G75*
D01*
G02X17289Y23925I-100J362*
G01*
D02*
G37*
G36*
X16938Y24149D02*
G74*
D01*
G02X16961Y24139I138J349*
G01*
G74*
D01*
G02X16956Y24149I339J161*
G01*
X16956Y24149D01*
X16938Y24149D01*
D02*
G37*
G36*
X17649Y24162D02*
X17649Y24162D01*
X17649Y24144D01*
G74*
D01*
G03X17639Y24139I151J344*
G01*
G74*
D01*
G03X17649Y24162I339J161*
G01*
D02*
G37*
G54D11*
X16938Y24149D02*
G74*
D01*
G02X16961Y24139I138J349*
G01*
G74*
D01*
G02X16956Y24149I339J161*
G01*
X16938Y24149D01*
X17149Y16575D02*
X17149Y23508D01*
X17106Y23551D01*
G74*
D01*
G02X17079Y23549I35J249*
G01*
G75*
D01*
G02X16521Y23549I-279J251*
G01*
X7600Y23549D01*
G75*
D01*
G02X7486Y23576I0J251*
G01*
G75*
D01*
G02X7425Y23575I-36J474*
G01*
G75*
D01*
G02X7413Y23443I-475J-25*
G01*
X8908Y21948D01*
X9248Y21608D01*
X16604Y14251D01*
X33796Y14251D01*
X34149Y14604D01*
X34149Y23246D01*
X29246Y28149D01*
X21305Y28149D01*
G74*
D01*
G02X21051Y28008I305J251*
G01*
X21051Y28000D01*
G75*
D01*
G02X20978Y27822I-251J0*
G01*
X20778Y27622D01*
G74*
D01*
G02X20683Y27563I178J178*
G01*
G75*
D01*
G02X20600Y27549I-83J237*
G01*
X18623Y27549D01*
G74*
D01*
G02X18578Y27487I223J116*
G01*
X18477Y27387D01*
G75*
D01*
G02X18122Y27743I-393J-38*
G01*
X18149Y27770D01*
X18149Y27800D01*
G75*
D01*
G02X18400Y28051I251J0*
G01*
X20496Y28051D01*
X20549Y28104D01*
X20549Y28400D01*
G74*
D01*
G02X20667Y28613I251J0*
G01*
G75*
D01*
G02X21305Y28651I333J-213*
G01*
X29350Y28651D01*
G75*
D01*
G02X29395Y28647I0J-251*
G01*
G74*
D01*
G02X29528Y28578I45J247*
G01*
X34578Y23528D01*
G74*
D01*
G02X34651Y23350I178J178*
G01*
X34651Y14500D01*
G75*
D01*
G02X34578Y14322I-251J0*
G01*
X34078Y13822D01*
G74*
D01*
G02X33900Y13749I178J178*
G01*
X16500Y13749D01*
G75*
D01*
G02X16322Y13822I0J251*
G01*
X9248Y20897D01*
X8196Y21948D01*
X8196Y21948D01*
X7057Y23087D01*
G75*
D01*
G02X6475Y23575I-107J463*
G01*
G74*
D01*
G02X6451Y23575I25J475*
G01*
X6451Y23000D01*
G75*
D01*
G02X6378Y22822I-251J0*
G01*
X6078Y22522D01*
G74*
D01*
G02X5974Y22460I178J178*
G01*
G75*
D01*
G02X5900Y22449I-74J240*
G01*
X2992Y22449D01*
G75*
D01*
G02X2640Y22894I-392J52*
G01*
G74*
D01*
G02X2794Y22951I159J194*
G01*
X2799Y22951D01*
X5796Y22951D01*
X5949Y23104D01*
X5949Y23800D01*
G75*
D01*
G02X5989Y23936I251J0*
G01*
G75*
D01*
G02X6549Y24515I461J114*
G01*
X6549Y27139D01*
G75*
D01*
G02X6622Y27317I251J0*
G01*
X6832Y27527D01*
G74*
D01*
G02X6877Y27562I178J178*
G01*
G75*
D01*
G02X7051Y26987I333J-213*
G01*
X7051Y24309D01*
G75*
D01*
G02X7925Y24051I399J-259*
G01*
X16521Y24051D01*
G74*
D01*
G02X16662Y24149I279J251*
G01*
X16000Y24149D01*
G75*
D01*
G02X15849Y24300I0J151*
G01*
X15849Y27599D01*
G74*
D01*
G02X15822Y27622I151J201*
G01*
X15696Y27749D01*
X6504Y27749D01*
X6451Y27696D01*
X6451Y27329D01*
G75*
D01*
G02X6378Y27151I-251J0*
G01*
X6349Y27122D01*
G74*
D01*
G02X6171Y27049I178J178*
G01*
X6030Y27049D01*
G75*
D01*
G02X5502Y27060I-257J300*
G01*
G74*
D01*
G02X5401Y27122I76J240*
G01*
X5322Y27201D01*
G75*
D01*
G02X5249Y27379I178J177*
G01*
X5249Y28149D01*
X2800Y28149D01*
G75*
D01*
G02X2549Y28400I0J251*
G01*
X2549Y28408D01*
G75*
D01*
G02X2933Y29013I51J392*
G01*
G74*
D01*
G02X3051Y28800I133J213*
G01*
X3051Y28651D01*
X5400Y28651D01*
G75*
D01*
G02X5490Y28635I0J-251*
G01*
G74*
D01*
G02X5578Y28578I90J235*
G01*
X5678Y28478D01*
G74*
D01*
G02X5751Y28300I178J178*
G01*
X5751Y27744D01*
G75*
D01*
G02X5949Y27703I22J-395*
G01*
X5949Y27799D01*
G75*
D01*
G02X6022Y27978I251J1*
G01*
X6222Y28178D01*
G74*
D01*
G02X6363Y28249I178J178*
G01*
G75*
D01*
G02X6400Y28251I37J-249*
G01*
X15800Y28251D01*
G75*
D01*
G02X15883Y28237I0J-251*
G01*
G74*
D01*
G02X15978Y28178I83J237*
G01*
X16178Y27978D01*
G75*
D01*
G02X16151Y27599I-178J-178*
G01*
X16151Y24451D01*
X16956Y24451D01*
G74*
D01*
G02X17019Y24549I344J151*
G01*
G74*
D01*
G02X16851Y24622I10J251*
G01*
X16822Y24651D01*
G75*
D01*
G02X16749Y24830I178J178*
G01*
X16749Y26967D01*
G75*
D01*
G02X16980Y27562I-102J382*
G01*
G74*
D01*
G02X17025Y27527I133J213*
G01*
X17178Y27374D01*
G74*
D01*
G02X17251Y27196I178J178*
G01*
X17251Y24951D01*
X17399Y24951D01*
G75*
D01*
G02X17778Y24978I201J-151*
G01*
X17978Y24778D01*
G75*
D01*
G02X17951Y24399I-178J-178*
G01*
X17951Y24144D01*
G75*
D01*
G02X18145Y23651I-151J-344*
G01*
X20600Y23651D01*
G75*
D01*
G02X20683Y23637I0J-251*
G01*
G74*
D01*
G02X20778Y23578I83J237*
G01*
X20978Y23378D01*
G74*
D01*
G02X21051Y23200I178J178*
G01*
X21051Y22493D01*
G75*
D01*
G02X20606Y22140I-51J-392*
G01*
G75*
D01*
G02X20549Y22301I194J161*
G01*
X20549Y23096D01*
X20496Y23149D01*
X17800Y23149D01*
G75*
D01*
G02X17549Y23400I0J251*
G01*
X17549Y23521D01*
G74*
D01*
G02X17425Y23800I251J279*
G01*
X17322Y23800D01*
G74*
D01*
G02X17320Y23765I251J0*
G01*
X17407Y23678D01*
G74*
D01*
G02X17451Y23571I107J107*
G01*
X17451Y16651D01*
X28400Y16651D01*
G75*
D01*
G02X28483Y16637I0J-251*
G01*
G74*
D01*
G02X28578Y16578I83J237*
G01*
X28778Y16378D01*
G74*
D01*
G02X28851Y16200I178J178*
G01*
X28851Y15915D01*
G75*
D01*
G02X28349Y15915I-251J-315*
G01*
X28349Y16096D01*
X28296Y16149D01*
X17329Y16149D01*
G75*
D01*
G02X17149Y16575I0J251*
G01*
X17200Y37451D02*
X28285Y37451D01*
G75*
D01*
G02X28285Y36949I315J-251*
G01*
X17304Y36949D01*
X17251Y36896D01*
X17251Y36133D01*
G75*
D01*
G02X16943Y35387I-251J-333*
G01*
X16851Y35296D01*
X16851Y32806D01*
G75*
D01*
G02X16341Y32216I-204J-339*
G01*
X7515Y32216D01*
G75*
D01*
G02X6903Y32217I-305J251*
G01*
G74*
D01*
G02X6751Y32289I26J250*
G01*
X6622Y32419D01*
G75*
D01*
G02X6549Y32597I178J177*
G01*
X6549Y35667D01*
G75*
D01*
G02X7051Y35667I251J333*
G01*
X7051Y32830D01*
G75*
D01*
G02X7515Y32719I159J-363*
G01*
X16341Y32719D01*
G74*
D01*
G02X16349Y32727I306J252*
G01*
X16349Y35399D01*
G75*
D01*
G02X16422Y35578I251J1*
G01*
X16587Y35743D01*
G75*
D01*
G02X16749Y36133I413J57*
G01*
X16749Y36999D01*
G75*
D01*
G02X16822Y37178I251J1*
G01*
X17022Y37378D01*
G74*
D01*
G02X17163Y37449I178J178*
G01*
G75*
D01*
G02X17200Y37451I37J-249*
G01*
X17849Y35412D02*
G75*
D01*
G02X18351Y35576I151J388*
G01*
X18351Y32758D01*
G75*
D01*
G02X17849Y32785I-267J-291*
G01*
X17849Y35412D01*
X5979Y35623D02*
X5978Y35622D01*
X5851Y35496D01*
X5851Y32855D01*
G75*
D01*
G02X5380Y32517I-78J-388*
G01*
G75*
D01*
G02X5349Y32640I220J123*
G01*
X5349Y35599D01*
G75*
D01*
G02X5422Y35778I251J1*
G01*
X5438Y35793D01*
G75*
D01*
G02X5979Y35623I362J207*
G01*
X35400Y39299D02*
X0Y39299D01*
X0Y12800D01*
X35400Y12800D01*
X35400Y39299D01*
X17649Y24162D02*
X17649Y24144D01*
G74*
D01*
G03X17639Y24139I151J344*
G01*
G74*
D01*
G03X17649Y24162I339J161*
G01*
X17289Y23925D02*
G74*
D01*
G02X17301Y23900I218J125*
G01*
X17400Y23900D01*
X17400Y23938D01*
G75*
D01*
G02X17289Y23925I-100J362*
G01*
G54D12*
X5400Y28400D02*
X2800Y28400D01*
X21000Y22101D02*
X20800Y22301D01*
X20800Y23200D01*
X20600Y23400D01*
X17800Y23400D01*
X17800Y23800D01*
X17800Y24600D02*
X17600Y24800D01*
X6450Y24050D02*
X6200Y23800D01*
X6200Y23000D01*
X6800Y24200D02*
X6650Y24050D01*
X6450Y24050D01*
X2800Y28400D02*
X2800Y28800D01*
X2600Y28800D01*
X28600Y15600D02*
X28600Y16200D01*
X28400Y16400D01*
X21000Y28400D02*
X20800Y28400D01*
X20800Y28000D01*
X20600Y27800D01*
X18400Y27800D01*
X18400Y27665D01*
X18084Y27349D01*
X16800Y23800D02*
X7600Y23800D01*
X7600Y23900D01*
X7450Y24050D01*
X16647Y32467D02*
X16267Y32467D01*
X16000Y27800D02*
X15800Y28000D01*
X6400Y28000D01*
X6200Y27800D01*
X5800Y36000D02*
X5800Y35800D01*
X5600Y35600D01*
X5600Y32640D01*
X5773Y32467D01*
X6800Y35800D02*
X6800Y36000D01*
X6950Y23550D02*
X16500Y14000D01*
X33900Y14000D01*
X34400Y14500D01*
X34400Y23350D01*
X29350Y28400D01*
X21000Y28400D01*
X16847Y27349D02*
X16647Y27349D01*
X17000Y24829D02*
X17029Y24800D01*
X17000Y27196D02*
X16847Y27349D01*
X17000Y24829D02*
X17000Y27196D01*
X17600Y24800D02*
X17029Y24800D01*
X17800Y23800D02*
X17800Y24600D01*
X17071Y23800D02*
X16800Y23800D01*
X17300Y16429D02*
X17329Y16400D01*
X17300Y23571D02*
X17071Y23800D01*
X28400Y16400D02*
X17329Y16400D01*
X17300Y16429D02*
X17300Y23571D01*
X16600Y35400D02*
X16600Y32514D01*
X16647Y32467D01*
X17000Y35800D02*
X16600Y35400D01*
X16267Y32467D02*
X7410Y32467D01*
X6800Y32596D02*
X6929Y32467D01*
X7410Y32467D01*
X6800Y32596D02*
X6800Y35800D01*
X17200Y37200D02*
X17000Y37000D01*
X17000Y35800D01*
X28600Y37200D02*
X17200Y37200D01*
X18100Y35700D02*
X18100Y32483D01*
X18084Y32467D01*
X18100Y35700D02*
X18000Y35800D01*
X16000Y24300D02*
X17300Y24300D01*
X16000Y24300D02*
X16000Y27800D01*
X2799Y22700D02*
X5900Y22700D01*
X2799Y22700D02*
X2600Y22501D01*
X6200Y23000D02*
X5900Y22700D01*
X5500Y28300D02*
X5400Y28400D01*
X5500Y27378D02*
X5500Y28300D01*
X6171Y27300D02*
X6200Y27329D01*
X5500Y27378D02*
X5578Y27300D01*
X6200Y27800D02*
X6200Y27329D01*
X6171Y27300D02*
X5578Y27300D01*
X7010Y27349D02*
X6800Y27139D01*
X7010Y27349D02*
X7210Y27349D01*
X6800Y27139D02*
X6800Y24200D01*
G54D13*
X-200Y12500D02*
X-200Y15200D01*
X-200Y12500D02*
X3410Y12500D01*
X35900Y12500D02*
X32290Y12500D01*
X35900Y12500D02*
X35900Y15200D01*
X35900Y39500D02*
X35900Y36800D01*
X35900Y39500D02*
X32290Y39500D01*
X-200Y39500D02*
X3410Y39500D01*
X-200Y39500D02*
X-200Y36800D01*
X-2169Y12500D02*
X-6106Y12500D01*
X-4137Y10531D02*
X-4137Y14468D01*
X-5614Y12500D02*
G75*
D01*
G02X-5614Y12500I1477J0*
G01*
X37869Y12500D02*
X41806Y12500D01*
X39837Y10531D02*
X39837Y14468D01*
X38361Y12500D02*
G75*
D01*
G02X38361Y12500I1476J0*
G01*
X39345Y12500D02*
G75*
D01*
G02X39345Y12500I492J0*
G01*
X-2169Y39500D02*
X-6106Y39500D01*
X-4137Y37531D02*
X-4137Y41469D01*
X-5614Y39500D02*
G75*
D01*
G02X-5614Y39500I1477J0*
G01*
X-5122Y39500D02*
G75*
D01*
G02X-5122Y39500I985J0*
G01*
X-4630Y39500D02*
G75*
D01*
G02X-4630Y39500I493J0*
G01*
G54D14*
X28600Y37200D03*
X28600Y15600D03*
G54D15*
X6800Y36000D03*
X5800Y36000D03*
X17000Y35800D03*
X18000Y35800D03*
G54D16*
X6950Y23550D03*
X6450Y24050D03*
X7450Y24050D03*
X16800Y23800D03*
X17800Y23800D03*
X17300Y24300D03*
G54D17*
X2600Y28800D03*
X2600Y22501D03*
X5773Y27349D03*
X5773Y32467D03*
X7210Y27349D03*
X7210Y32467D03*
X18084Y32467D03*
X18084Y27349D03*
X16647Y27349D03*
X16647Y32467D03*
X21000Y22101D03*
X21000Y28400D03*

M02*
