999
DXF created by UltiBoard 14.2.0.0
0
SECTION
2
HEADER
9
$ACADVER
1
AC1014
9
$EXTMIN
10
-290.041378
20
979.979370
30
0.0
9
$EXTMAX
10
3860.014173
20
4220.001890
30
0.0
9
$LUNITS
70
2
9
$HANDSEED
5
404
0
ENDSEC
0
SECTION
2
TABLES
0
TABLE
2
VPORT
5
1
100
AcDbSymbolTable
70
1
0
VPORT
5
2
100
AcDbSymbolTableRecord
100
AcDbViewportTableRecord
2
*ACTIVE
70
0
0
ENDTAB
0
TABLE
2
LTYPE
5
3
100
AcDbSymbolTable
70
1
0
LTYPE
5
4
100
AcDbSymbolTableRecord
100
AcDbLinetypeTableRecord
2
BYBLOCK
70
0
3

72
65
73
0
40
0.0
0
LTYPE
5
5
100
AcDbSymbolTableRecord
100
AcDbLinetypeTableRecord
2
BYLAYER
70
0
3

72
65
73
0
40
0.0
0
LTYPE
5
6
100
AcDbSymbolTableRecord
100
AcDbLinetypeTableRecord
2
CONTINUOUS
70
0
3
Solid line
72
65
73
0
40
0.0
0
ENDTAB
0
TABLE
2
LAYER
5
7
100
AcDbSymbolTable
70
6
0
LAYER
5
8
100
AcDbSymbolTableRecord
100
AcDbLayerTableRecord
2
0
70
0
62
7
6
CONTINUOUS
0
LAYER
5
9
100
AcDbSymbolTableRecord
100
AcDbLayerTableRecord
2
BOARD_OUTLINE
70
0
62
2
6
CONTINUOUS
0
LAYER
5
A
100
AcDbSymbolTableRecord
100
AcDbLayerTableRecord
2
COPPER_TOP
70
0
62
3
6
CONTINUOUS
0
LAYER
5
B
100
AcDbSymbolTableRecord
100
AcDbLayerTableRecord
2
COPPER_BOTTOM
70
0
62
1
6
CONTINUOUS
0
LAYER
5
C
100
AcDbSymbolTableRecord
100
AcDbLayerTableRecord
2
SILKSCREEN_TOP
70
0
62
4
6
CONTINUOUS
0
LAYER
5
D
100
AcDbSymbolTableRecord
100
AcDbLayerTableRecord
2
SILKSCREEN_BOTTOM
70
0
62
6
6
CONTINUOUS
0
ENDTAB
0
TABLE
2
STYLE
5
E
100
AcDbSymbolTable
70
2
0
STYLE
5
F
100
AcDbSymbolTableRecord
100
AcDbTextStyleTableRecord
2
MONOTxtStyle
70
0
40
0.0
41
1.0
50
0.0
71
0
42
0.2
3
monotxt
4

0
STYLE
5
10
100
AcDbSymbolTableRecord
100
AcDbTextStyleTableRecord
2
MONOTxtStyle_M
70
0
40
0.0
41
1.0
50
0.0
71
2
42
0.2
3
monotxt
4

0
ENDTAB
0
TABLE
2
VIEW
5
11
100
AcDbSymbolTable
70
0
0
ENDTAB
0
TABLE
2
UCS
5
12
100
AcDbSymbolTable
70
0
0
ENDTAB
0
TABLE
2
APPID
5
13
100
AcDbSymbolTable
70
1
0
APPID
5
14
100
AcDbSymbolTableRecord
100
AcDbRegAppTableRecord
2
ACAD
70
0
0
ENDTAB
0
TABLE
2
DIMSTYLE
5
15
100
AcDbSymbolTable
70
1
0
DIMSTYLE
105
16
100
AcDbSymbolTableRecord
100
AcDbDimStyleTableRecord
2
STANDARD
70
0
0
ENDTAB
0
TABLE
2
BLOCK_RECORD
5
17
100
AcDbSymbolTable
70
0
0
BLOCK_RECORD
5
18
100
AcDbSymbolTableRecord
100
AcDbBlockTableRecord
2
*MODEL_SPACE
0
BLOCK_RECORD
5
19
100
AcDbSymbolTableRecord
100
AcDbBlockTableRecord
2
*PAPER_SPACE
0
ENDTAB
0
ENDSEC
0
SECTION
2
BLOCKS
0
BLOCK
5
1A
100
AcDbEntity
8
0
100
AcDbBlockBegin
2
*MODEL_SPACE
70
0
0
ENDBLK
5
1B
100
AcDbEntity
8
0
100
AcDbBlockEnd
0
BLOCK
5
1C
100
AcDbEntity
8
0
100
AcDbBlockBegin
2
*PAPER_SPACE
70
0
0
ENDBLK
5
1D
100
AcDbEntity
8
0
100
AcDbBlockEnd
0
ENDSEC
0
SECTION
2
ENTITIES
0
LWPOLYLINE
5
1E
100
AcDbEntity
8
BOARD_OUTLINE
62
2
100
AcDbPolyline
90
2
70
0
43
0.000039
39
0.000039
10
-10.039528
20
1259.981220
10
3580.012323
20
1259.981220
0
LWPOLYLINE
5
1F
100
AcDbEntity
8
BOARD_OUTLINE
62
2
100
AcDbPolyline
90
2
70
0
43
0.000039
39
0.000039
10
3580.012323
20
1259.981220
10
3580.012323
20
3940.000000
0
LWPOLYLINE
5
20
100
AcDbEntity
8
BOARD_OUTLINE
62
2
100
AcDbPolyline
90
2
70
0
43
0.000039
39
0.000039
10
3580.012323
20
3940.000000
10
-10.039528
20
3940.000000
0
LWPOLYLINE
5
21
100
AcDbEntity
8
BOARD_OUTLINE
62
2
100
AcDbPolyline
90
2
70
0
43
0.000039
39
0.000039
10
-10.039528
20
3940.000000
10
-10.039528
20
1259.981220
0
HATCH
5
22
100
AcDbEntity
8
COPPER_TOP
100
AcDbHatch
10
0.0
20
0.0
30
0.0
210
0.0
220
0.0
230
1.0
2
SOLID
70
1
71
0
91
2
92
1
93
1
72
2
10
2860.000000
20
3720.000000
40
30.250000
50
0.000000
51
360.000000
73
1
97
0
92
1
93
1
72
2
10
2860.000000
20
3720.000000
40
23.250000
50
0.000000
51
360.000000
73
1
97
0
75
0
76
0
98
1
10
0.0
20
0.0
0
HATCH
5
23
100
AcDbEntity
8
COPPER_TOP
100
AcDbHatch
10
0.0
20
0.0
30
0.0
210
0.0
220
0.0
230
1.0
2
SOLID
70
1
71
0
91
2
92
1
93
1
72
2
10
2860.000000
20
1560.000000
40
30.250000
50
0.000000
51
360.000000
73
1
97
0
92
1
93
1
72
2
10
2860.000000
20
1560.000000
40
23.250000
50
0.000000
51
360.000000
73
1
97
0
75
0
76
0
98
1
10
0.0
20
0.0
0
HATCH
5
24
100
AcDbEntity
8
COPPER_TOP
100
AcDbHatch
10
0.0
20
0.0
30
0.0
210
0.0
220
0.0
230
1.0
2
SOLID
70
1
71
0
91
2
92
1
93
1
72
2
10
680.000000
20
3600.000000
40
31.670000
50
0.000000
51
360.000000
73
1
97
0
92
1
93
1
72
2
10
680.000000
20
3600.000000
40
17.500000
50
0.000000
51
360.000000
73
1
97
0
75
0
76
0
98
1
10
0.0
20
0.0
0
HATCH
5
25
100
AcDbEntity
8
COPPER_TOP
100
AcDbHatch
10
0.0
20
0.0
30
0.0
210
0.0
220
0.0
230
1.0
2
SOLID
70
1
71
0
91
2
92
1
93
1
72
2
10
580.000000
20
3600.000000
40
31.670000
50
0.000000
51
360.000000
73
1
97
0
92
1
93
1
72
2
10
580.000000
20
3600.000000
40
17.500000
50
0.000000
51
360.000000
73
1
97
0
75
0
76
0
98
1
10
0.0
20
0.0
0
HATCH
5
26
100
AcDbEntity
8
COPPER_TOP
100
AcDbHatch
10
0.0
20
0.0
30
0.0
210
0.0
220
0.0
230
1.0
2
SOLID
70
1
71
0
91
2
92
1
93
1
72
2
10
745.000000
20
2405.000000
40
27.500000
50
0.000000
51
360.000000
73
1
97
0
92
1
93
1
72
2
10
745.000000
20
2405.000000
40
20.000000
50
0.000000
51
360.000000
73
1
97
0
75
0
76
0
98
1
10
0.0
20
0.0
0
HATCH
5
27
100
AcDbEntity
8
COPPER_TOP
100
AcDbHatch
10
0.0
20
0.0
30
0.0
210
0.0
220
0.0
230
1.0
2
SOLID
70
1
71
0
91
2
92
1
93
1
72
2
10
645.000000
20
2405.000000
40
27.500000
50
0.000000
51
360.000000
73
1
97
0
92
1
93
1
72
2
10
645.000000
20
2405.000000
40
20.000000
50
0.000000
51
360.000000
73
1
97
0
75
0
76
0
98
1
10
0.0
20
0.0
0
HATCH
5
28
100
AcDbEntity
8
COPPER_TOP
100
AcDbHatch
10
0.0
20
0.0
30
0.0
210
0.0
220
0.0
230
1.0
2
SOLID
70
1
71
0
91
2
92
1
93
1
72
2
10
695.000000
20
2355.000000
40
27.500000
50
0.000000
51
360.000000
73
1
97
0
92
1
93
1
72
2
10
695.000000
20
2355.000000
40
20.000000
50
0.000000
51
360.000000
73
1
97
0
75
0
76
0
98
1
10
0.0
20
0.0
0
HATCH
5
29
100
AcDbEntity
8
COPPER_TOP
100
AcDbHatch
10
0.0
20
0.0
30
0.0
210
0.0
220
0.0
230
1.0
2
SOLID
70
1
71
0
91
2
92
1
93
1
72
2
10
1700.000000
20
3580.000000
40
31.670000
50
0.000000
51
360.000000
73
1
97
0
92
1
93
1
72
2
10
1700.000000
20
3580.000000
40
17.500000
50
0.000000
51
360.000000
73
1
97
0
75
0
76
0
98
1
10
0.0
20
0.0
0
HATCH
5
2A
100
AcDbEntity
8
COPPER_TOP
100
AcDbHatch
10
0.0
20
0.0
30
0.0
210
0.0
220
0.0
230
1.0
2
SOLID
70
1
71
0
91
2
92
1
93
1
72
2
10
1800.000000
20
3580.000000
40
31.670000
50
0.000000
51
360.000000
73
1
97
0
92
1
93
1
72
2
10
1800.000000
20
3580.000000
40
17.500000
50
0.000000
51
360.000000
73
1
97
0
75
0
76
0
98
1
10
0.0
20
0.0
0
HATCH
5
2B
100
AcDbEntity
8
COPPER_TOP
100
AcDbHatch
10
0.0
20
0.0
30
0.0
210
0.0
220
0.0
230
1.0
2
SOLID
70
1
71
0
91
2
92
1
93
1
72
2
10
1680.000000
20
2380.000000
40
27.500000
50
0.000000
51
360.000000
73
1
97
0
92
1
93
1
72
2
10
1680.000000
20
2380.000000
40
20.000000
50
0.000000
51
360.000000
73
1
97
0
75
0
76
0
98
1
10
0.0
20
0.0
0
HATCH
5
2C
100
AcDbEntity
8
COPPER_TOP
100
AcDbHatch
10
0.0
20
0.0
30
0.0
210
0.0
220
0.0
230
1.0
2
SOLID
70
1
71
0
91
2
92
1
93
1
72
2
10
1780.000000
20
2380.000000
40
27.500000
50
0.000000
51
360.000000
73
1
97
0
92
1
93
1
72
2
10
1780.000000
20
2380.000000
40
20.000000
50
0.000000
51
360.000000
73
1
97
0
75
0
76
0
98
1
10
0.0
20
0.0
0
HATCH
5
2D
100
AcDbEntity
8
COPPER_TOP
100
AcDbHatch
10
0.0
20
0.0
30
0.0
210
0.0
220
0.0
230
1.0
2
SOLID
70
1
71
0
91
2
92
1
93
1
72
2
10
1730.000000
20
2430.000000
40
27.500000
50
0.000000
51
360.000000
73
1
97
0
92
1
93
1
72
2
10
1730.000000
20
2430.000000
40
20.000000
50
0.000000
51
360.000000
73
1
97
0
75
0
76
0
98
1
10
0.0
20
0.0
0
HATCH
5
2E
100
AcDbEntity
8
COPPER_TOP
100
AcDbHatch
10
0.0
20
0.0
30
0.0
210
0.0
220
0.0
230
1.0
2
SOLID
70
1
71
0
91
2
92
1
93
1
72
2
10
260.000000
20
2250.078740
40
29.527559
50
0.000000
51
360.000000
73
1
97
0
92
1
93
1
72
2
10
260.000000
20
2250.078740
40
17.716535
50
0.000000
51
360.000000
73
1
97
0
75
0
76
0
98
1
10
0.0
20
0.0
0
HATCH
5
2F
100
AcDbEntity
8
COPPER_TOP
100
AcDbHatch
10
0.0
20
0.0
30
0.0
210
0.0
220
0.0
230
1.0
2
SOLID
70
1
71
0
91
2
92
1
93
4
72
1
10
230.472441
20
2909.527559
11
289.527559
21
2909.527559
72
1
10
289.527559
20
2909.527559
11
289.527559
21
2850.472441
72
1
10
289.527559
20
2850.472441
11
230.472441
21
2850.472441
72
1
10
230.472441
20
2850.472441
11
230.472441
21
2909.527559
97
0
92
1
93
1
72
2
10
260.000000
20
2880.000000
40
17.716535
50
0.000000
51
360.000000
73
1
97
0
75
0
76
0
98
1
10
0.0
20
0.0
0
HATCH
5
30
100
AcDbEntity
8
COPPER_TOP
100
AcDbHatch
10
0.0
20
0.0
30
0.0
210
0.0
220
0.0
230
1.0
2
SOLID
70
1
71
0
91
2
92
1
93
1
72
2
10
577.268307
20
3246.716535
40
29.527559
50
0.000000
51
360.000000
73
1
97
0
92
1
93
1
72
2
10
577.268307
20
3246.716535
40
17.716535
50
0.000000
51
360.000000
73
1
97
0
75
0
76
0
98
1
10
0.0
20
0.0
0
HATCH
5
31
100
AcDbEntity
8
COPPER_TOP
100
AcDbHatch
10
0.0
20
0.0
30
0.0
210
0.0
220
0.0
230
1.0
2
SOLID
70
1
71
0
91
2
92
1
93
4
72
1
10
606.795866
20
2705.377953
11
547.740748
21
2705.377953
72
1
10
547.740748
20
2705.377953
11
547.740748
21
2764.433071
72
1
10
547.740748
20
2764.433071
11
606.795866
21
2764.433071
72
1
10
606.795866
20
2764.433071
11
606.795866
21
2705.377953
97
0
92
1
93
1
72
2
10
577.268307
20
2734.905512
40
17.716535
50
0.000000
51
360.000000
73
1
97
0
75
0
76
0
98
1
10
0.0
20
0.0
0
HATCH
5
32
100
AcDbEntity
8
COPPER_TOP
100
AcDbHatch
10
0.0
20
0.0
30
0.0
210
0.0
220
0.0
230
1.0
2
SOLID
70
1
71
0
91
2
92
1
93
1
72
2
10
720.969055
20
3246.716535
40
29.527559
50
0.000000
51
360.000000
73
1
97
0
92
1
93
1
72
2
10
720.969055
20
3246.716535
40
17.716535
50
0.000000
51
360.000000
73
1
97
0
75
0
76
0
98
1
10
0.0
20
0.0
0
HATCH
5
33
100
AcDbEntity
8
COPPER_TOP
100
AcDbHatch
10
0.0
20
0.0
30
0.0
210
0.0
220
0.0
230
1.0
2
SOLID
70
1
71
0
91
2
92
1
93
4
72
1
10
750.496614
20
2705.377953
11
691.441496
21
2705.377953
72
1
10
691.441496
20
2705.377953
11
691.441496
21
2764.433071
72
1
10
691.441496
20
2764.433071
11
750.496614
21
2764.433071
72
1
10
750.496614
20
2764.433071
11
750.496614
21
2705.377953
97
0
92
1
93
1
72
2
10
720.969055
20
2734.905512
40
17.716535
50
0.000000
51
360.000000
73
1
97
0
75
0
76
0
98
1
10
0.0
20
0.0
0
HATCH
5
34
100
AcDbEntity
8
COPPER_TOP
100
AcDbHatch
10
0.0
20
0.0
30
0.0
210
0.0
220
0.0
230
1.0
2
SOLID
70
1
71
0
91
2
92
1
93
1
72
2
10
1808.370551
20
3246.716535
40
29.527559
50
0.000000
51
360.000000
73
1
97
0
92
1
93
1
72
2
10
1808.370551
20
3246.716535
40
17.716535
50
0.000000
51
360.000000
73
1
97
0
75
0
76
0
98
1
10
0.0
20
0.0
0
HATCH
5
35
100
AcDbEntity
8
COPPER_TOP
100
AcDbHatch
10
0.0
20
0.0
30
0.0
210
0.0
220
0.0
230
1.0
2
SOLID
70
1
71
0
91
2
92
1
93
4
72
1
10
1837.898110
20
2705.377953
11
1778.842992
21
2705.377953
72
1
10
1778.842992
20
2705.377953
11
1778.842992
21
2764.433071
72
1
10
1778.842992
20
2764.433071
11
1837.898110
21
2764.433071
72
1
10
1837.898110
20
2764.433071
11
1837.898110
21
2705.377953
97
0
92
1
93
1
72
2
10
1808.370551
20
2734.905512
40
17.716535
50
0.000000
51
360.000000
73
1
97
0
75
0
76
0
98
1
10
0.0
20
0.0
0
HATCH
5
36
100
AcDbEntity
8
COPPER_TOP
100
AcDbHatch
10
0.0
20
0.0
30
0.0
210
0.0
220
0.0
230
1.0
2
SOLID
70
1
71
0
91
2
92
1
93
1
72
2
10
1664.669803
20
3246.716535
40
29.527559
50
0.000000
51
360.000000
73
1
97
0
92
1
93
1
72
2
10
1664.669803
20
3246.716535
40
17.716535
50
0.000000
51
360.000000
73
1
97
0
75
0
76
0
98
1
10
0.0
20
0.0
0
HATCH
5
37
100
AcDbEntity
8
COPPER_TOP
100
AcDbHatch
10
0.0
20
0.0
30
0.0
210
0.0
220
0.0
230
1.0
2
SOLID
70
1
71
0
91
2
92
1
93
4
72
1
10
1694.197362
20
2705.377953
11
1635.142244
21
2705.377953
72
1
10
1635.142244
20
2705.377953
11
1635.142244
21
2764.433071
72
1
10
1635.142244
20
2764.433071
11
1694.197362
21
2764.433071
72
1
10
1694.197362
20
2764.433071
11
1694.197362
21
2705.377953
97
0
92
1
93
1
72
2
10
1664.669803
20
2734.905512
40
17.716535
50
0.000000
51
360.000000
73
1
97
0
75
0
76
0
98
1
10
0.0
20
0.0
0
HATCH
5
38
100
AcDbEntity
8
COPPER_TOP
100
AcDbHatch
10
0.0
20
0.0
30
0.0
210
0.0
220
0.0
230
1.0
2
SOLID
70
1
71
0
91
2
92
1
93
1
72
2
10
2100.000000
20
2210.078740
40
29.527559
50
0.000000
51
360.000000
73
1
97
0
92
1
93
1
72
2
10
2100.000000
20
2210.078740
40
17.716535
50
0.000000
51
360.000000
73
1
97
0
75
0
76
0
98
1
10
0.0
20
0.0
0
HATCH
5
39
100
AcDbEntity
8
COPPER_TOP
100
AcDbHatch
10
0.0
20
0.0
30
0.0
210
0.0
220
0.0
230
1.0
2
SOLID
70
1
71
0
91
2
92
1
93
4
72
1
10
2070.472441
20
2869.527559
11
2129.527559
21
2869.527559
72
1
10
2129.527559
20
2869.527559
11
2129.527559
21
2810.472441
72
1
10
2129.527559
20
2810.472441
11
2070.472441
21
2810.472441
72
1
10
2070.472441
20
2810.472441
11
2070.472441
21
2869.527559
97
0
92
1
93
1
72
2
10
2100.000000
20
2840.000000
40
17.716535
50
0.000000
51
360.000000
73
1
97
0
75
0
76
0
98
1
10
0.0
20
0.0
0
LWPOLYLINE
5
3A
100
AcDbEntity
8
COPPER_BOTTOM
62
1
100
AcDbPolyline
90
2
70
0
43
10.000000
39
10.000000
10
2100.000000
20
2210.078740
10
2080.000000
20
2230.078740
0
LWPOLYLINE
5
3B
100
AcDbEntity
8
COPPER_BOTTOM
62
1
100
AcDbPolyline
90
2
70
0
43
10.000000
39
10.000000
10
2080.000000
20
2230.078740
10
2080.000000
20
2320.000000
0
LWPOLYLINE
5
3C
100
AcDbEntity
8
COPPER_BOTTOM
62
1
100
AcDbPolyline
90
2
70
0
43
10.000000
39
10.000000
10
2080.000000
20
2320.000000
10
2060.000000
20
2340.000000
0
LWPOLYLINE
5
3D
100
AcDbEntity
8
COPPER_BOTTOM
62
1
100
AcDbPolyline
90
2
70
0
43
10.000000
39
10.000000
10
2060.000000
20
2340.000000
10
1780.000000
20
2340.000000
0
LWPOLYLINE
5
3E
100
AcDbEntity
8
COPPER_BOTTOM
62
1
100
AcDbPolyline
90
2
70
0
43
10.000000
39
10.000000
10
1780.000000
20
2340.000000
10
1780.000000
20
2380.000000
0
LWPOLYLINE
5
3F
100
AcDbEntity
8
COPPER_BOTTOM
62
1
100
AcDbPolyline
90
2
70
0
43
10.000000
39
10.000000
10
2860.000000
20
3720.000000
10
1760.000000
20
3720.000000
0
LWPOLYLINE
5
40
100
AcDbEntity
8
COPPER_BOTTOM
62
1
100
AcDbPolyline
90
2
70
0
43
10.000000
39
10.000000
10
1760.000000
20
3720.000000
10
1740.000000
20
3700.000000
0
LWPOLYLINE
5
41
100
AcDbEntity
8
COPPER_BOTTOM
62
1
100
AcDbPolyline
90
2
70
0
43
10.000000
39
10.000000
10
1740.000000
20
3700.000000
10
1740.000000
20
3600.000000
0
LWPOLYLINE
5
42
100
AcDbEntity
8
COPPER_BOTTOM
62
1
100
AcDbPolyline
90
2
70
0
43
10.000000
39
10.000000
10
1740.000000
20
3600.000000
10
1720.000000
20
3580.000000
0
LWPOLYLINE
5
43
100
AcDbEntity
8
COPPER_BOTTOM
62
1
100
AcDbPolyline
90
2
70
0
43
10.000000
39
10.000000
10
1720.000000
20
3580.000000
10
1700.000000
20
3580.000000
0
LWPOLYLINE
5
44
100
AcDbEntity
8
COPPER_BOTTOM
62
1
100
AcDbPolyline
90
2
70
0
43
10.000000
39
10.000000
10
1780.000000
20
2380.000000
10
1780.000000
20
2460.000000
0
LWPOLYLINE
5
45
100
AcDbEntity
8
COPPER_BOTTOM
62
1
100
AcDbPolyline
90
2
70
0
43
10.000000
39
10.000000
10
1780.000000
20
2460.000000
10
1760.000000
20
2480.000000
0
LWPOLYLINE
5
46
100
AcDbEntity
8
COPPER_BOTTOM
62
1
100
AcDbPolyline
90
2
70
0
43
10.000000
39
10.000000
10
645.000000
20
2405.000000
10
620.000000
20
2380.000000
0
LWPOLYLINE
5
47
100
AcDbEntity
8
COPPER_BOTTOM
62
1
100
AcDbPolyline
90
2
70
0
43
10.000000
39
10.000000
10
620.000000
20
2380.000000
10
620.000000
20
2300.000000
0
LWPOLYLINE
5
48
100
AcDbEntity
8
COPPER_BOTTOM
62
1
100
AcDbPolyline
90
2
70
0
43
10.000000
39
10.000000
10
620.000000
20
2300.000000
10
600.000000
20
2280.000000
0
LWPOLYLINE
5
49
100
AcDbEntity
8
COPPER_BOTTOM
62
1
100
AcDbPolyline
90
2
70
0
43
10.000000
39
10.000000
10
280.000000
20
2280.000000
10
280.000000
20
2270.078740
0
LWPOLYLINE
5
4A
100
AcDbEntity
8
COPPER_BOTTOM
62
1
100
AcDbPolyline
90
2
70
0
43
10.000000
39
10.000000
10
280.000000
20
2270.078740
10
260.000000
20
2250.078740
0
LWPOLYLINE
5
4B
100
AcDbEntity
8
COPPER_BOTTOM
62
1
100
AcDbPolyline
90
2
70
0
43
10.000000
39
10.000000
10
720.969055
20
2734.905512
10
686.063543
20
2700.000000
0
LWPOLYLINE
5
4C
100
AcDbEntity
8
COPPER_BOTTOM
62
1
100
AcDbPolyline
90
2
70
0
43
10.000000
39
10.000000
10
686.063543
20
2700.000000
10
680.000000
20
2700.000000
0
LWPOLYLINE
5
4D
100
AcDbEntity
8
COPPER_BOTTOM
62
1
100
AcDbPolyline
90
2
70
0
43
10.000000
39
10.000000
10
680.000000
20
2700.000000
10
680.000000
20
2420.000000
0
LWPOLYLINE
5
4E
100
AcDbEntity
8
COPPER_BOTTOM
62
1
100
AcDbPolyline
90
2
70
0
43
10.000000
39
10.000000
10
680.000000
20
2420.000000
10
665.000000
20
2405.000000
0
LWPOLYLINE
5
4F
100
AcDbEntity
8
COPPER_BOTTOM
62
1
100
AcDbPolyline
90
2
70
0
43
10.000000
39
10.000000
10
665.000000
20
2405.000000
10
645.000000
20
2405.000000
0
LWPOLYLINE
5
50
100
AcDbEntity
8
COPPER_BOTTOM
62
1
100
AcDbPolyline
90
2
70
0
43
10.000000
39
10.000000
10
577.268307
20
2734.905512
10
560.000000
20
2734.905512
0
LWPOLYLINE
5
51
100
AcDbEntity
8
COPPER_BOTTOM
62
1
100
AcDbPolyline
90
2
70
0
43
10.000000
39
10.000000
10
560.000000
20
2734.905512
10
560.000000
20
2820.000000
0
LWPOLYLINE
5
52
100
AcDbEntity
8
COPPER_BOTTOM
62
1
100
AcDbPolyline
90
2
70
0
43
10.000000
39
10.000000
10
560.000000
20
2820.000000
10
540.000000
20
2840.000000
0
LWPOLYLINE
5
53
100
AcDbEntity
8
COPPER_BOTTOM
62
1
100
AcDbPolyline
90
2
70
0
43
10.000000
39
10.000000
10
540.000000
20
2840.000000
10
280.000000
20
2840.000000
0
LWPOLYLINE
5
54
100
AcDbEntity
8
COPPER_BOTTOM
62
1
100
AcDbPolyline
90
2
70
0
43
10.000000
39
10.000000
10
280.000000
20
2840.000000
10
280.000000
20
2880.000000
0
LWPOLYLINE
5
55
100
AcDbEntity
8
COPPER_BOTTOM
62
1
100
AcDbPolyline
90
2
70
0
43
10.000000
39
10.000000
10
280.000000
20
2880.000000
10
260.000000
20
2880.000000
0
LWPOLYLINE
5
56
100
AcDbEntity
8
COPPER_BOTTOM
62
1
100
AcDbPolyline
90
2
70
0
43
10.000000
39
10.000000
10
2860.000000
20
1560.000000
10
2860.000000
20
1620.000000
0
LWPOLYLINE
5
57
100
AcDbEntity
8
COPPER_BOTTOM
62
1
100
AcDbPolyline
90
2
70
0
43
10.000000
39
10.000000
10
2860.000000
20
1620.000000
10
2840.000000
20
1640.000000
0
LWPOLYLINE
5
58
100
AcDbEntity
8
COPPER_BOTTOM
62
1
100
AcDbPolyline
90
2
70
0
43
10.000000
39
10.000000
10
2840.000000
20
1640.000000
10
1740.000000
20
1640.000000
0
LWPOLYLINE
5
59
100
AcDbEntity
8
COPPER_BOTTOM
62
1
100
AcDbPolyline
90
2
70
0
43
10.000000
39
10.000000
10
1740.000000
20
1640.000000
10
1720.000000
20
1660.000000
0
LWPOLYLINE
5
5A
100
AcDbEntity
8
COPPER_BOTTOM
62
1
100
AcDbPolyline
90
2
70
0
43
10.000000
39
10.000000
10
1720.000000
20
1660.000000
10
1720.000000
20
2380.000000
0
LWPOLYLINE
5
5B
100
AcDbEntity
8
COPPER_BOTTOM
62
1
100
AcDbPolyline
90
2
70
0
43
10.000000
39
10.000000
10
1720.000000
20
2380.000000
10
1680.000000
20
2380.000000
0
LWPOLYLINE
5
5C
100
AcDbEntity
8
COPPER_BOTTOM
62
1
100
AcDbPolyline
90
2
70
0
43
10.000000
39
10.000000
10
2100.000000
20
2840.000000
10
2080.000000
20
2840.000000
0
LWPOLYLINE
5
5D
100
AcDbEntity
8
COPPER_BOTTOM
62
1
100
AcDbPolyline
90
2
70
0
43
10.000000
39
10.000000
10
2080.000000
20
2840.000000
10
2080.000000
20
2800.000000
0
LWPOLYLINE
5
5E
100
AcDbEntity
8
COPPER_BOTTOM
62
1
100
AcDbPolyline
90
2
70
0
43
10.000000
39
10.000000
10
2080.000000
20
2800.000000
10
2060.000000
20
2780.000000
0
LWPOLYLINE
5
5F
100
AcDbEntity
8
COPPER_BOTTOM
62
1
100
AcDbPolyline
90
2
70
0
43
10.000000
39
10.000000
10
2060.000000
20
2780.000000
10
1840.000000
20
2780.000000
0
LWPOLYLINE
5
60
100
AcDbEntity
8
COPPER_BOTTOM
62
1
100
AcDbPolyline
90
2
70
0
43
10.000000
39
10.000000
10
1840.000000
20
2780.000000
10
1840.000000
20
2766.534961
0
LWPOLYLINE
5
61
100
AcDbEntity
8
COPPER_BOTTOM
62
1
100
AcDbPolyline
90
2
70
0
43
10.000000
39
10.000000
10
1840.000000
20
2766.534961
10
1808.370551
20
2734.905512
0
LWPOLYLINE
5
62
100
AcDbEntity
8
COPPER_BOTTOM
62
1
100
AcDbPolyline
90
2
70
0
43
10.000000
39
10.000000
10
1680.000000
20
2380.000000
10
760.000000
20
2380.000000
0
LWPOLYLINE
5
63
100
AcDbEntity
8
COPPER_BOTTOM
62
1
100
AcDbPolyline
90
2
70
0
43
10.000000
39
10.000000
10
760.000000
20
2380.000000
10
760.000000
20
2390.000000
0
LWPOLYLINE
5
64
100
AcDbEntity
8
COPPER_BOTTOM
62
1
100
AcDbPolyline
90
2
70
0
43
10.000000
39
10.000000
10
760.000000
20
2390.000000
10
745.000000
20
2405.000000
0
LWPOLYLINE
5
65
100
AcDbEntity
8
COPPER_BOTTOM
62
1
100
AcDbPolyline
90
2
70
0
43
10.000000
39
10.000000
10
1664.669803
20
3246.716535
10
1626.716535
20
3246.716535
0
LWPOLYLINE
5
66
100
AcDbEntity
8
COPPER_BOTTOM
62
1
100
AcDbPolyline
90
2
70
0
43
10.000000
39
10.000000
10
1626.716535
20
3246.716535
10
1620.000000
20
3240.000000
0
LWPOLYLINE
5
67
100
AcDbEntity
8
COPPER_BOTTOM
62
1
100
AcDbPolyline
90
2
70
0
43
10.000000
39
10.000000
10
1620.000000
20
3240.000000
10
760.000000
20
3240.000000
0
LWPOLYLINE
5
68
100
AcDbEntity
8
COPPER_BOTTOM
62
1
100
AcDbPolyline
90
2
70
0
43
10.000000
39
10.000000
10
760.000000
20
3240.000000
10
753.283465
20
3246.716535
0
LWPOLYLINE
5
69
100
AcDbEntity
8
COPPER_BOTTOM
62
1
100
AcDbPolyline
90
2
70
0
43
10.000000
39
10.000000
10
753.283465
20
3246.716535
10
720.969055
20
3246.716535
0
LWPOLYLINE
5
6A
100
AcDbEntity
8
COPPER_BOTTOM
62
1
100
AcDbPolyline
90
2
70
0
43
10.000000
39
10.000000
10
1700.000000
20
3580.000000
10
1700.000000
20
3560.000000
0
LWPOLYLINE
5
6B
100
AcDbEntity
8
COPPER_BOTTOM
62
1
100
AcDbPolyline
90
2
70
0
43
10.000000
39
10.000000
10
1700.000000
20
3560.000000
10
1680.000000
20
3540.000000
0
LWPOLYLINE
5
6C
100
AcDbEntity
8
COPPER_BOTTOM
62
1
100
AcDbPolyline
90
2
70
0
43
10.000000
39
10.000000
10
1680.000000
20
3540.000000
10
1680.000000
20
3280.000000
0
LWPOLYLINE
5
6D
100
AcDbEntity
8
COPPER_BOTTOM
62
1
100
AcDbPolyline
90
2
70
0
43
10.000000
39
10.000000
10
1680.000000
20
3280.000000
10
1664.669803
20
3264.669803
0
LWPOLYLINE
5
6E
100
AcDbEntity
8
COPPER_BOTTOM
62
1
100
AcDbPolyline
90
2
70
0
43
10.000000
39
10.000000
10
1664.669803
20
3264.669803
10
1664.669803
20
3246.716535
0
LWPOLYLINE
5
6F
100
AcDbEntity
8
COPPER_BOTTOM
62
1
100
AcDbPolyline
90
2
70
0
43
10.000000
39
10.000000
10
1730.000000
20
2430.000000
10
1710.000000
20
2430.000000
0
LWPOLYLINE
5
70
100
AcDbEntity
8
COPPER_BOTTOM
62
1
100
AcDbPolyline
90
2
70
0
43
10.000000
39
10.000000
10
1710.000000
20
2430.000000
10
1700.000000
20
2440.000000
0
LWPOLYLINE
5
71
100
AcDbEntity
8
COPPER_BOTTOM
62
1
100
AcDbPolyline
90
2
70
0
43
10.000000
39
10.000000
10
1700.000000
20
2440.000000
10
1620.000000
20
2440.000000
0
LWPOLYLINE
5
72
100
AcDbEntity
8
COPPER_BOTTOM
62
1
100
AcDbPolyline
90
2
70
0
43
10.000000
39
10.000000
10
1620.000000
20
2440.000000
10
1600.000000
20
2460.000000
0
LWPOLYLINE
5
73
100
AcDbEntity
8
COPPER_BOTTOM
62
1
100
AcDbPolyline
90
2
70
0
43
10.000000
39
10.000000
10
1600.000000
20
2460.000000
10
1600.000000
20
2780.000000
0
LWPOLYLINE
5
74
100
AcDbEntity
8
COPPER_BOTTOM
62
1
100
AcDbPolyline
90
2
70
0
43
10.000000
39
10.000000
10
1600.000000
20
2780.000000
10
1580.000000
20
2800.000000
0
LWPOLYLINE
5
75
100
AcDbEntity
8
COPPER_BOTTOM
62
1
100
AcDbPolyline
90
2
70
0
43
10.000000
39
10.000000
10
1580.000000
20
2800.000000
10
640.000000
20
2800.000000
0
LWPOLYLINE
5
76
100
AcDbEntity
8
COPPER_BOTTOM
62
1
100
AcDbPolyline
90
2
70
0
43
10.000000
39
10.000000
10
640.000000
20
2800.000000
10
620.000000
20
2780.000000
0
LWPOLYLINE
5
77
100
AcDbEntity
8
COPPER_BOTTOM
62
1
100
AcDbPolyline
90
2
70
0
43
10.000000
39
10.000000
10
620.000000
20
2780.000000
10
620.000000
20
2760.000000
0
LWPOLYLINE
5
78
100
AcDbEntity
8
COPPER_BOTTOM
62
1
100
AcDbPolyline
90
2
70
0
43
10.000000
39
10.000000
10
620.000000
20
2760.000000
10
577.268307
20
2760.000000
0
LWPOLYLINE
5
79
100
AcDbEntity
8
COPPER_BOTTOM
62
1
100
AcDbPolyline
90
2
70
0
43
10.000000
39
10.000000
10
577.268307
20
2760.000000
10
577.268307
20
2734.905512
0
LWPOLYLINE
5
7A
100
AcDbEntity
8
COPPER_BOTTOM
62
1
100
AcDbPolyline
90
2
70
0
43
10.000000
39
10.000000
10
580.000000
20
3600.000000
10
580.000000
20
3580.000000
0
LWPOLYLINE
5
7B
100
AcDbEntity
8
COPPER_BOTTOM
62
1
100
AcDbPolyline
90
2
70
0
43
10.000000
39
10.000000
10
580.000000
20
3580.000000
10
560.000000
20
3560.000000
0
LWPOLYLINE
5
7C
100
AcDbEntity
8
COPPER_BOTTOM
62
1
100
AcDbPolyline
90
2
70
0
43
10.000000
39
10.000000
10
560.000000
20
3560.000000
10
560.000000
20
3263.984843
0
LWPOLYLINE
5
7D
100
AcDbEntity
8
COPPER_BOTTOM
62
1
100
AcDbPolyline
90
2
70
0
43
10.000000
39
10.000000
10
560.000000
20
3263.984843
10
577.268307
20
3246.716535
0
LWPOLYLINE
5
7E
100
AcDbEntity
8
COPPER_BOTTOM
62
1
100
AcDbPolyline
90
2
70
0
43
10.000000
39
10.000000
10
1800.000000
20
3580.000000
10
1800.000000
20
3280.000000
0
LWPOLYLINE
5
7F
100
AcDbEntity
8
COPPER_BOTTOM
62
1
100
AcDbPolyline
90
2
70
0
43
10.000000
39
10.000000
10
1800.000000
20
3280.000000
10
1808.370551
20
3271.629449
0
LWPOLYLINE
5
80
100
AcDbEntity
8
COPPER_BOTTOM
62
1
100
AcDbPolyline
90
2
70
0
43
10.000000
39
10.000000
10
1808.370551
20
3271.629449
10
1808.370551
20
3246.716535
0
LWPOLYLINE
5
81
100
AcDbEntity
8
COPPER_BOTTOM
62
1
100
AcDbPolyline
90
2
70
0
43
10.000000
39
10.000000
10
720.969055
20
3246.716535
10
700.000000
20
3267.685591
0
LWPOLYLINE
5
82
100
AcDbEntity
8
COPPER_BOTTOM
62
1
100
AcDbPolyline
90
2
70
0
43
10.000000
39
10.000000
10
700.000000
20
3267.685591
10
700.000000
20
3560.000000
0
LWPOLYLINE
5
83
100
AcDbEntity
8
COPPER_BOTTOM
62
1
100
AcDbPolyline
90
2
70
0
43
10.000000
39
10.000000
10
700.000000
20
3560.000000
10
680.000000
20
3580.000000
0
LWPOLYLINE
5
84
100
AcDbEntity
8
COPPER_BOTTOM
62
1
100
AcDbPolyline
90
2
70
0
43
10.000000
39
10.000000
10
680.000000
20
3580.000000
10
680.000000
20
3600.000000
0
LWPOLYLINE
5
85
100
AcDbEntity
8
COPPER_BOTTOM
62
1
100
AcDbPolyline
90
2
70
0
43
10.000000
39
10.000000
10
695.000000
20
2355.000000
10
1650.000000
20
1400.000000
0
LWPOLYLINE
5
86
100
AcDbEntity
8
COPPER_BOTTOM
62
1
100
AcDbPolyline
90
2
70
0
43
10.000000
39
10.000000
10
1650.000000
20
1400.000000
10
3390.000000
20
1400.000000
0
LWPOLYLINE
5
87
100
AcDbEntity
8
COPPER_BOTTOM
62
1
100
AcDbPolyline
90
2
70
0
43
10.000000
39
10.000000
10
3390.000000
20
1400.000000
10
3440.000000
20
1450.000000
0
LWPOLYLINE
5
88
100
AcDbEntity
8
COPPER_BOTTOM
62
1
100
AcDbPolyline
90
2
70
0
43
10.000000
39
10.000000
10
3440.000000
20
1450.000000
10
3440.000000
20
2335.000000
0
LWPOLYLINE
5
89
100
AcDbEntity
8
COPPER_BOTTOM
62
1
100
AcDbPolyline
90
2
70
0
43
10.000000
39
10.000000
10
3440.000000
20
2335.000000
10
2935.000000
20
2840.000000
0
LWPOLYLINE
5
8A
100
AcDbEntity
8
COPPER_BOTTOM
62
1
100
AcDbPolyline
90
2
70
0
43
10.000000
39
10.000000
10
2935.000000
20
2840.000000
10
2100.000000
20
2840.000000
0
LWPOLYLINE
5
8B
100
AcDbEntity
8
COPPER_BOTTOM
62
1
100
AcDbPolyline
90
2
70
0
43
10.000000
39
10.000000
10
280.000000
20
2280.000000
10
600.000000
20
2280.000000
0
LWPOLYLINE
5
8C
100
AcDbEntity
8
COPPER_BOTTOM
62
1
100
AcDbPolyline
90
2
70
0
43
10.000000
39
10.000000
10
1684.669685
20
2734.905512
10
1664.669803
20
2734.905512
0
LWPOLYLINE
5
8D
100
AcDbEntity
8
COPPER_BOTTOM
62
1
100
AcDbPolyline
90
2
70
0
43
10.000000
39
10.000000
10
1700.000000
20
2482.928898
10
1702.928898
20
2480.000000
0
LWPOLYLINE
5
8E
100
AcDbEntity
8
COPPER_BOTTOM
62
1
100
AcDbPolyline
90
2
70
0
43
10.000000
39
10.000000
10
1760.000000
20
2480.000000
10
1702.928898
20
2480.000000
0
LWPOLYLINE
5
8F
100
AcDbEntity
8
COPPER_BOTTOM
62
1
100
AcDbPolyline
90
2
70
0
43
10.000000
39
10.000000
10
1700.000000
20
2719.575197
10
1684.669685
20
2734.905512
0
LWPOLYLINE
5
90
100
AcDbEntity
8
COPPER_BOTTOM
62
1
100
AcDbPolyline
90
2
70
0
43
10.000000
39
10.000000
10
1700.000000
20
2482.928898
10
1700.000000
20
2719.575197
0
HATCH
5
91
100
AcDbEntity
8
COPPER_BOTTOM
100
AcDbHatch
10
0.0
20
0.0
30
0.0
210
0.0
220
0.0
230
1.0
2
SOLID
70
1
71
0
91
2
92
1
93
1
72
2
10
2860.000000
20
3720.000000
40
30.250000
50
0.000000
51
360.000000
73
1
97
0
92
1
93
1
72
2
10
2860.000000
20
3720.000000
40
23.250000
50
0.000000
51
360.000000
73
1
97
0
75
0
76
0
98
1
10
0.0
20
0.0
0
HATCH
5
92
100
AcDbEntity
8
COPPER_BOTTOM
100
AcDbHatch
10
0.0
20
0.0
30
0.0
210
0.0
220
0.0
230
1.0
2
SOLID
70
1
71
0
91
2
92
1
93
1
72
2
10
2860.000000
20
1560.000000
40
30.250000
50
0.000000
51
360.000000
73
1
97
0
92
1
93
1
72
2
10
2860.000000
20
1560.000000
40
23.250000
50
0.000000
51
360.000000
73
1
97
0
75
0
76
0
98
1
10
0.0
20
0.0
0
HATCH
5
93
100
AcDbEntity
8
COPPER_BOTTOM
100
AcDbHatch
10
0.0
20
0.0
30
0.0
210
0.0
220
0.0
230
1.0
2
SOLID
70
1
71
0
91
2
92
1
93
1
72
2
10
680.000000
20
3600.000000
40
31.670000
50
0.000000
51
360.000000
73
1
97
0
92
1
93
1
72
2
10
680.000000
20
3600.000000
40
17.500000
50
0.000000
51
360.000000
73
1
97
0
75
0
76
0
98
1
10
0.0
20
0.0
0
HATCH
5
94
100
AcDbEntity
8
COPPER_BOTTOM
100
AcDbHatch
10
0.0
20
0.0
30
0.0
210
0.0
220
0.0
230
1.0
2
SOLID
70
1
71
0
91
2
92
1
93
1
72
2
10
580.000000
20
3600.000000
40
31.670000
50
0.000000
51
360.000000
73
1
97
0
92
1
93
1
72
2
10
580.000000
20
3600.000000
40
17.500000
50
0.000000
51
360.000000
73
1
97
0
75
0
76
0
98
1
10
0.0
20
0.0
0
HATCH
5
95
100
AcDbEntity
8
COPPER_BOTTOM
100
AcDbHatch
10
0.0
20
0.0
30
0.0
210
0.0
220
0.0
230
1.0
2
SOLID
70
1
71
0
91
2
92
1
93
1
72
2
10
745.000000
20
2405.000000
40
27.500000
50
0.000000
51
360.000000
73
1
97
0
92
1
93
1
72
2
10
745.000000
20
2405.000000
40
20.000000
50
0.000000
51
360.000000
73
1
97
0
75
0
76
0
98
1
10
0.0
20
0.0
0
HATCH
5
96
100
AcDbEntity
8
COPPER_BOTTOM
100
AcDbHatch
10
0.0
20
0.0
30
0.0
210
0.0
220
0.0
230
1.0
2
SOLID
70
1
71
0
91
2
92
1
93
1
72
2
10
645.000000
20
2405.000000
40
27.500000
50
0.000000
51
360.000000
73
1
97
0
92
1
93
1
72
2
10
645.000000
20
2405.000000
40
20.000000
50
0.000000
51
360.000000
73
1
97
0
75
0
76
0
98
1
10
0.0
20
0.0
0
HATCH
5
97
100
AcDbEntity
8
COPPER_BOTTOM
100
AcDbHatch
10
0.0
20
0.0
30
0.0
210
0.0
220
0.0
230
1.0
2
SOLID
70
1
71
0
91
2
92
1
93
1
72
2
10
695.000000
20
2355.000000
40
27.500000
50
0.000000
51
360.000000
73
1
97
0
92
1
93
1
72
2
10
695.000000
20
2355.000000
40
20.000000
50
0.000000
51
360.000000
73
1
97
0
75
0
76
0
98
1
10
0.0
20
0.0
0
HATCH
5
98
100
AcDbEntity
8
COPPER_BOTTOM
100
AcDbHatch
10
0.0
20
0.0
30
0.0
210
0.0
220
0.0
230
1.0
2
SOLID
70
1
71
0
91
2
92
1
93
1
72
2
10
1700.000000
20
3580.000000
40
31.670000
50
0.000000
51
360.000000
73
1
97
0
92
1
93
1
72
2
10
1700.000000
20
3580.000000
40
17.500000
50
0.000000
51
360.000000
73
1
97
0
75
0
76
0
98
1
10
0.0
20
0.0
0
HATCH
5
99
100
AcDbEntity
8
COPPER_BOTTOM
100
AcDbHatch
10
0.0
20
0.0
30
0.0
210
0.0
220
0.0
230
1.0
2
SOLID
70
1
71
0
91
2
92
1
93
1
72
2
10
1800.000000
20
3580.000000
40
31.670000
50
0.000000
51
360.000000
73
1
97
0
92
1
93
1
72
2
10
1800.000000
20
3580.000000
40
17.500000
50
0.000000
51
360.000000
73
1
97
0
75
0
76
0
98
1
10
0.0
20
0.0
0
HATCH
5
9A
100
AcDbEntity
8
COPPER_BOTTOM
100
AcDbHatch
10
0.0
20
0.0
30
0.0
210
0.0
220
0.0
230
1.0
2
SOLID
70
1
71
0
91
2
92
1
93
1
72
2
10
1680.000000
20
2380.000000
40
27.500000
50
0.000000
51
360.000000
73
1
97
0
92
1
93
1
72
2
10
1680.000000
20
2380.000000
40
20.000000
50
0.000000
51
360.000000
73
1
97
0
75
0
76
0
98
1
10
0.0
20
0.0
0
HATCH
5
9B
100
AcDbEntity
8
COPPER_BOTTOM
100
AcDbHatch
10
0.0
20
0.0
30
0.0
210
0.0
220
0.0
230
1.0
2
SOLID
70
1
71
0
91
2
92
1
93
1
72
2
10
1780.000000
20
2380.000000
40
27.500000
50
0.000000
51
360.000000
73
1
97
0
92
1
93
1
72
2
10
1780.000000
20
2380.000000
40
20.000000
50
0.000000
51
360.000000
73
1
97
0
75
0
76
0
98
1
10
0.0
20
0.0
0
HATCH
5
9C
100
AcDbEntity
8
COPPER_BOTTOM
100
AcDbHatch
10
0.0
20
0.0
30
0.0
210
0.0
220
0.0
230
1.0
2
SOLID
70
1
71
0
91
2
92
1
93
1
72
2
10
1730.000000
20
2430.000000
40
27.500000
50
0.000000
51
360.000000
73
1
97
0
92
1
93
1
72
2
10
1730.000000
20
2430.000000
40
20.000000
50
0.000000
51
360.000000
73
1
97
0
75
0
76
0
98
1
10
0.0
20
0.0
0
HATCH
5
9D
100
AcDbEntity
8
COPPER_BOTTOM
100
AcDbHatch
10
0.0
20
0.0
30
0.0
210
0.0
220
0.0
230
1.0
2
SOLID
70
1
71
0
91
2
92
1
93
1
72
2
10
260.000000
20
2250.078740
40
29.527559
50
0.000000
51
360.000000
73
1
97
0
92
1
93
1
72
2
10
260.000000
20
2250.078740
40
17.716535
50
0.000000
51
360.000000
73
1
97
0
75
0
76
0
98
1
10
0.0
20
0.0
0
HATCH
5
9E
100
AcDbEntity
8
COPPER_BOTTOM
100
AcDbHatch
10
0.0
20
0.0
30
0.0
210
0.0
220
0.0
230
1.0
2
SOLID
70
1
71
0
91
2
92
1
93
1
72
2
10
260.000000
20
2880.000000
40
29.527559
50
0.000000
51
360.000000
73
1
97
0
92
1
93
1
72
2
10
260.000000
20
2880.000000
40
17.716535
50
0.000000
51
360.000000
73
1
97
0
75
0
76
0
98
1
10
0.0
20
0.0
0
HATCH
5
9F
100
AcDbEntity
8
COPPER_BOTTOM
100
AcDbHatch
10
0.0
20
0.0
30
0.0
210
0.0
220
0.0
230
1.0
2
SOLID
70
1
71
0
91
2
92
1
93
1
72
2
10
577.268307
20
3246.716535
40
29.527559
50
0.000000
51
360.000000
73
1
97
0
92
1
93
1
72
2
10
577.268307
20
3246.716535
40
17.716535
50
0.000000
51
360.000000
73
1
97
0
75
0
76
0
98
1
10
0.0
20
0.0
0
HATCH
5
A0
100
AcDbEntity
8
COPPER_BOTTOM
100
AcDbHatch
10
0.0
20
0.0
30
0.0
210
0.0
220
0.0
230
1.0
2
SOLID
70
1
71
0
91
2
92
1
93
1
72
2
10
577.268307
20
2734.905512
40
29.527559
50
0.000000
51
360.000000
73
1
97
0
92
1
93
1
72
2
10
577.268307
20
2734.905512
40
17.716535
50
0.000000
51
360.000000
73
1
97
0
75
0
76
0
98
1
10
0.0
20
0.0
0
HATCH
5
A1
100
AcDbEntity
8
COPPER_BOTTOM
100
AcDbHatch
10
0.0
20
0.0
30
0.0
210
0.0
220
0.0
230
1.0
2
SOLID
70
1
71
0
91
2
92
1
93
1
72
2
10
720.969055
20
3246.716535
40
29.527559
50
0.000000
51
360.000000
73
1
97
0
92
1
93
1
72
2
10
720.969055
20
3246.716535
40
17.716535
50
0.000000
51
360.000000
73
1
97
0
75
0
76
0
98
1
10
0.0
20
0.0
0
HATCH
5
A2
100
AcDbEntity
8
COPPER_BOTTOM
100
AcDbHatch
10
0.0
20
0.0
30
0.0
210
0.0
220
0.0
230
1.0
2
SOLID
70
1
71
0
91
2
92
1
93
1
72
2
10
720.969055
20
2734.905512
40
29.527559
50
0.000000
51
360.000000
73
1
97
0
92
1
93
1
72
2
10
720.969055
20
2734.905512
40
17.716535
50
0.000000
51
360.000000
73
1
97
0
75
0
76
0
98
1
10
0.0
20
0.0
0
HATCH
5
A3
100
AcDbEntity
8
COPPER_BOTTOM
100
AcDbHatch
10
0.0
20
0.0
30
0.0
210
0.0
220
0.0
230
1.0
2
SOLID
70
1
71
0
91
2
92
1
93
1
72
2
10
1808.370551
20
3246.716535
40
29.527559
50
0.000000
51
360.000000
73
1
97
0
92
1
93
1
72
2
10
1808.370551
20
3246.716535
40
17.716535
50
0.000000
51
360.000000
73
1
97
0
75
0
76
0
98
1
10
0.0
20
0.0
0
HATCH
5
A4
100
AcDbEntity
8
COPPER_BOTTOM
100
AcDbHatch
10
0.0
20
0.0
30
0.0
210
0.0
220
0.0
230
1.0
2
SOLID
70
1
71
0
91
2
92
1
93
1
72
2
10
1808.370551
20
2734.905512
40
29.527559
50
0.000000
51
360.000000
73
1
97
0
92
1
93
1
72
2
10
1808.370551
20
2734.905512
40
17.716535
50
0.000000
51
360.000000
73
1
97
0
75
0
76
0
98
1
10
0.0
20
0.0
0
HATCH
5
A5
100
AcDbEntity
8
COPPER_BOTTOM
100
AcDbHatch
10
0.0
20
0.0
30
0.0
210
0.0
220
0.0
230
1.0
2
SOLID
70
1
71
0
91
2
92
1
93
1
72
2
10
1664.669803
20
3246.716535
40
29.527559
50
0.000000
51
360.000000
73
1
97
0
92
1
93
1
72
2
10
1664.669803
20
3246.716535
40
17.716535
50
0.000000
51
360.000000
73
1
97
0
75
0
76
0
98
1
10
0.0
20
0.0
0
HATCH
5
A6
100
AcDbEntity
8
COPPER_BOTTOM
100
AcDbHatch
10
0.0
20
0.0
30
0.0
210
0.0
220
0.0
230
1.0
2
SOLID
70
1
71
0
91
2
92
1
93
1
72
2
10
1664.669803
20
2734.905512
40
29.527559
50
0.000000
51
360.000000
73
1
97
0
92
1
93
1
72
2
10
1664.669803
20
2734.905512
40
17.716535
50
0.000000
51
360.000000
73
1
97
0
75
0
76
0
98
1
10
0.0
20
0.0
0
HATCH
5
A7
100
AcDbEntity
8
COPPER_BOTTOM
100
AcDbHatch
10
0.0
20
0.0
30
0.0
210
0.0
220
0.0
230
1.0
2
SOLID
70
1
71
0
91
2
92
1
93
1
72
2
10
2100.000000
20
2210.078740
40
29.527559
50
0.000000
51
360.000000
73
1
97
0
92
1
93
1
72
2
10
2100.000000
20
2210.078740
40
17.716535
50
0.000000
51
360.000000
73
1
97
0
75
0
76
0
98
1
10
0.0
20
0.0
0
HATCH
5
A8
100
AcDbEntity
8
COPPER_BOTTOM
100
AcDbHatch
10
0.0
20
0.0
30
0.0
210
0.0
220
0.0
230
1.0
2
SOLID
70
1
71
0
91
2
92
1
93
1
72
2
10
2100.000000
20
2840.000000
40
29.527559
50
0.000000
51
360.000000
73
1
97
0
92
1
93
1
72
2
10
2100.000000
20
2840.000000
40
17.716535
50
0.000000
51
360.000000
73
1
97
0
75
0
76
0
98
1
10
0.0
20
0.0
0
LWPOLYLINE
5
A9
100
AcDbEntity
8
SILKSCREEN_TOP
62
4
100
AcDbPolyline
90
2
70
0
43
10.000000
39
10.000000
10
2880.000000
20
1460.000000
10
3180.000000
20
1460.000000
0
LWPOLYLINE
5
AA
100
AcDbEntity
8
SILKSCREEN_TOP
62
4
100
AcDbPolyline
90
2
70
0
43
10.000000
39
10.000000
10
3180.000000
20
1460.000000
10
3180.000000
20
3820.000000
0
LWPOLYLINE
5
AB
100
AcDbEntity
8
SILKSCREEN_TOP
62
4
100
AcDbPolyline
90
2
70
0
43
10.000000
39
10.000000
10
3180.000000
20
3820.000000
10
2540.000000
20
3820.000000
0
LWPOLYLINE
5
AC
100
AcDbEntity
8
SILKSCREEN_TOP
62
4
100
AcDbPolyline
90
2
70
0
43
10.000000
39
10.000000
10
2906.141732
20
1653.622047
10
3046.141732
20
1653.622047
0
LWPOLYLINE
5
AD
100
AcDbEntity
8
SILKSCREEN_TOP
62
4
100
AcDbPolyline
90
2
70
0
43
10.000000
39
10.000000
10
2976.141732
20
1583.622047
10
2976.141732
20
1723.622047
0
LWPOLYLINE
5
AE
100
AcDbEntity
8
SILKSCREEN_TOP
62
4
100
AcDbPolyline
90
2
70
0
43
10.000000
39
10.000000
10
2976.141732
20
3547.534724
10
2976.141732
20
3687.534724
0
LWPOLYLINE
5
AF
100
AcDbEntity
8
SILKSCREEN_TOP
62
4
100
AcDbPolyline
90
2
70
0
43
10.000000
39
10.000000
10
2540.000000
20
1460.000000
10
2880.000000
20
1460.000000
0
LWPOLYLINE
5
B0
100
AcDbEntity
8
SILKSCREEN_TOP
62
4
100
AcDbPolyline
90
2
70
0
43
10.000000
39
10.000000
10
2540.000000
20
1460.000000
10
2540.000000
20
1499.763780
0
LWPOLYLINE
5
B1
100
AcDbEntity
8
SILKSCREEN_TOP
62
4
100
AcDbPolyline
90
2
70
0
43
10.000000
39
10.000000
10
2540.000000
20
3820.000000
10
2540.000000
20
1620.000000
0
TEXT
5
B2
100
AcDbEntity
8
SILKSCREEN_TOP
100
AcDbText
39
6.124213
10
2479.250000
20
2650.000000
30
0.0
40
36.745407
1
J1
41
0.995556
7
MONOTxtStyle
50
270.000000
72
1
11
2479.250000
21
2650.000000
31
0.0
100
AcDbText
73
3
0
LWPOLYLINE
5
B3
100
AcDbEntity
8
SILKSCREEN_TOP
62
4
100
AcDbPolyline
90
2
70
0
43
8.000000
39
8.000000
10
472.749291
20
3497.880197
10
482.247992
20
3484.563465
0
LWPOLYLINE
5
B4
100
AcDbEntity
8
SILKSCREEN_TOP
62
4
100
AcDbPolyline
90
2
70
0
43
8.000000
39
8.000000
10
482.247992
20
3484.563465
10
492.871181
20
3472.125315
0
LWPOLYLINE
5
B5
100
AcDbEntity
8
SILKSCREEN_TOP
62
4
100
AcDbPolyline
90
2
70
0
43
8.000000
39
8.000000
10
492.871181
20
3472.125315
10
504.538031
20
3460.660354
0
LWPOLYLINE
5
B6
100
AcDbEntity
8
SILKSCREEN_TOP
62
4
100
AcDbPolyline
90
2
70
0
43
8.000000
39
8.000000
10
504.538031
20
3460.660354
10
517.159685
20
3450.255866
0
LWPOLYLINE
5
B7
100
AcDbEntity
8
SILKSCREEN_TOP
62
4
100
AcDbPolyline
90
2
70
0
43
8.000000
39
8.000000
10
517.159685
20
3450.255866
10
530.640157
20
3440.990984
0
LWPOLYLINE
5
B8
100
AcDbEntity
8
SILKSCREEN_TOP
62
4
100
AcDbPolyline
90
2
70
0
43
8.000000
39
8.000000
10
530.640157
20
3440.990984
10
544.876772
20
3432.936299
0
LWPOLYLINE
5
B9
100
AcDbEntity
8
SILKSCREEN_TOP
62
4
100
AcDbPolyline
90
2
70
0
43
8.000000
39
8.000000
10
544.876772
20
3432.936299
10
559.761260
20
3426.153031
0
LWPOLYLINE
5
BA
100
AcDbEntity
8
SILKSCREEN_TOP
62
4
100
AcDbPolyline
90
2
70
0
43
8.000000
39
8.000000
10
559.761260
20
3426.153031
10
575.180315
20
3420.692874
0
LWPOLYLINE
5
BB
100
AcDbEntity
8
SILKSCREEN_TOP
62
4
100
AcDbPolyline
90
2
70
0
43
8.000000
39
8.000000
10
575.180315
20
3420.692874
10
591.016535
20
3416.597362
0
LWPOLYLINE
5
BC
100
AcDbEntity
8
SILKSCREEN_TOP
62
4
100
AcDbPolyline
90
2
70
0
43
8.000000
39
8.000000
10
591.016535
20
3416.597362
10
607.149488
20
3413.897598
0
LWPOLYLINE
5
BD
100
AcDbEntity
8
SILKSCREEN_TOP
62
4
100
AcDbPolyline
90
2
70
0
43
8.000000
39
8.000000
10
607.149488
20
3413.897598
10
623.456339
20
3412.614252
0
LWPOLYLINE
5
BE
100
AcDbEntity
8
SILKSCREEN_TOP
62
4
100
AcDbPolyline
90
2
70
0
43
8.000000
39
8.000000
10
623.456339
20
3412.614252
10
639.812953
20
3412.756969
0
LWPOLYLINE
5
BF
100
AcDbEntity
8
SILKSCREEN_TOP
62
4
100
AcDbPolyline
90
2
70
0
43
8.000000
39
8.000000
10
639.812953
20
3412.756969
10
656.094921
20
3414.324764
0
LWPOLYLINE
5
C0
100
AcDbEntity
8
SILKSCREEN_TOP
62
4
100
AcDbPolyline
90
2
70
0
43
8.000000
39
8.000000
10
656.094921
20
3414.324764
10
672.178307
20
3417.305630
0
LWPOLYLINE
5
C1
100
AcDbEntity
8
SILKSCREEN_TOP
62
4
100
AcDbPolyline
90
2
70
0
43
8.000000
39
8.000000
10
672.178307
20
3417.305630
10
687.940669
20
3421.676929
0
LWPOLYLINE
5
C2
100
AcDbEntity
8
SILKSCREEN_TOP
62
4
100
AcDbPolyline
90
2
70
0
43
8.000000
39
8.000000
10
687.940669
20
3421.676929
10
703.262047
20
3427.405354
0
LWPOLYLINE
5
C3
100
AcDbEntity
8
SILKSCREEN_TOP
62
4
100
AcDbPolyline
90
2
70
0
43
8.000000
39
8.000000
10
703.262047
20
3427.405354
10
718.025866
20
3434.447323
0
LWPOLYLINE
5
C4
100
AcDbEntity
8
SILKSCREEN_TOP
62
4
100
AcDbPolyline
90
2
70
0
43
8.000000
39
8.000000
10
718.025866
20
3434.447323
10
732.119764
20
3442.749291
0
LWPOLYLINE
5
C5
100
AcDbEntity
8
SILKSCREEN_TOP
62
4
100
AcDbPolyline
90
2
70
0
43
8.000000
39
8.000000
10
732.119764
20
3442.749291
10
745.436496
20
3452.247992
0
LWPOLYLINE
5
C6
100
AcDbEntity
8
SILKSCREEN_TOP
62
4
100
AcDbPolyline
90
2
70
0
43
8.000000
39
8.000000
10
745.436496
20
3452.247992
10
757.874646
20
3462.871181
0
LWPOLYLINE
5
C7
100
AcDbEntity
8
SILKSCREEN_TOP
62
4
100
AcDbPolyline
90
2
70
0
43
8.000000
39
8.000000
10
757.874646
20
3462.871181
10
769.339606
20
3474.538031
0
LWPOLYLINE
5
C8
100
AcDbEntity
8
SILKSCREEN_TOP
62
4
100
AcDbPolyline
90
2
70
0
43
8.000000
39
8.000000
10
769.339606
20
3474.538031
10
779.744094
20
3487.159685
0
LWPOLYLINE
5
C9
100
AcDbEntity
8
SILKSCREEN_TOP
62
4
100
AcDbPolyline
90
2
70
0
43
8.000000
39
8.000000
10
779.744094
20
3487.159685
10
789.008976
20
3500.640157
0
LWPOLYLINE
5
CA
100
AcDbEntity
8
SILKSCREEN_TOP
62
4
100
AcDbPolyline
90
2
70
0
43
8.000000
39
8.000000
10
789.008976
20
3500.640157
10
797.063661
20
3514.876772
0
LWPOLYLINE
5
CB
100
AcDbEntity
8
SILKSCREEN_TOP
62
4
100
AcDbPolyline
90
2
70
0
43
8.000000
39
8.000000
10
797.063661
20
3514.876772
10
803.846929
20
3529.761260
0
LWPOLYLINE
5
CC
100
AcDbEntity
8
SILKSCREEN_TOP
62
4
100
AcDbPolyline
90
2
70
0
43
8.000000
39
8.000000
10
803.846929
20
3529.761260
10
809.307087
20
3545.180315
0
LWPOLYLINE
5
CD
100
AcDbEntity
8
SILKSCREEN_TOP
62
4
100
AcDbPolyline
90
2
70
0
43
8.000000
39
8.000000
10
809.307087
20
3545.180315
10
813.402598
20
3561.016535
0
LWPOLYLINE
5
CE
100
AcDbEntity
8
SILKSCREEN_TOP
62
4
100
AcDbPolyline
90
2
70
0
43
8.000000
39
8.000000
10
813.402598
20
3561.016535
10
816.102362
20
3577.149488
0
LWPOLYLINE
5
CF
100
AcDbEntity
8
SILKSCREEN_TOP
62
4
100
AcDbPolyline
90
2
70
0
43
8.000000
39
8.000000
10
816.102362
20
3577.149488
10
817.385709
20
3593.456339
0
LWPOLYLINE
5
D0
100
AcDbEntity
8
SILKSCREEN_TOP
62
4
100
AcDbPolyline
90
2
70
0
43
8.000000
39
8.000000
10
817.385709
20
3593.456339
10
817.242992
20
3609.812953
0
LWPOLYLINE
5
D1
100
AcDbEntity
8
SILKSCREEN_TOP
62
4
100
AcDbPolyline
90
2
70
0
43
8.000000
39
8.000000
10
817.242992
20
3609.812953
10
815.675197
20
3626.094921
0
LWPOLYLINE
5
D2
100
AcDbEntity
8
SILKSCREEN_TOP
62
4
100
AcDbPolyline
90
2
70
0
43
8.000000
39
8.000000
10
815.675197
20
3626.094921
10
812.694331
20
3642.178307
0
LWPOLYLINE
5
D3
100
AcDbEntity
8
SILKSCREEN_TOP
62
4
100
AcDbPolyline
90
2
70
0
43
8.000000
39
8.000000
10
812.694331
20
3642.178307
10
808.323031
20
3657.940669
0
LWPOLYLINE
5
D4
100
AcDbEntity
8
SILKSCREEN_TOP
62
4
100
AcDbPolyline
90
2
70
0
43
8.000000
39
8.000000
10
808.323031
20
3657.940669
10
802.594606
20
3673.262047
0
LWPOLYLINE
5
D5
100
AcDbEntity
8
SILKSCREEN_TOP
62
4
100
AcDbPolyline
90
2
70
0
43
8.000000
39
8.000000
10
802.594606
20
3673.262047
10
795.552638
20
3688.025866
0
LWPOLYLINE
5
D6
100
AcDbEntity
8
SILKSCREEN_TOP
62
4
100
AcDbPolyline
90
2
70
0
43
8.000000
39
8.000000
10
795.552638
20
3688.025866
10
787.250669
20
3702.119764
0
LWPOLYLINE
5
D7
100
AcDbEntity
8
SILKSCREEN_TOP
62
4
100
AcDbPolyline
90
2
70
0
43
8.000000
39
8.000000
10
787.250669
20
3702.119764
10
777.751969
20
3715.436496
0
LWPOLYLINE
5
D8
100
AcDbEntity
8
SILKSCREEN_TOP
62
4
100
AcDbPolyline
90
2
70
0
43
8.000000
39
8.000000
10
777.751969
20
3715.436496
10
767.128780
20
3727.874646
0
LWPOLYLINE
5
D9
100
AcDbEntity
8
SILKSCREEN_TOP
62
4
100
AcDbPolyline
90
2
70
0
43
8.000000
39
8.000000
10
767.128780
20
3727.874646
10
755.461929
20
3739.339606
0
LWPOLYLINE
5
DA
100
AcDbEntity
8
SILKSCREEN_TOP
62
4
100
AcDbPolyline
90
2
70
0
43
8.000000
39
8.000000
10
755.461929
20
3739.339606
10
742.840276
20
3749.744094
0
LWPOLYLINE
5
DB
100
AcDbEntity
8
SILKSCREEN_TOP
62
4
100
AcDbPolyline
90
2
70
0
43
8.000000
39
8.000000
10
742.840276
20
3749.744094
10
729.359803
20
3759.008976
0
LWPOLYLINE
5
DC
100
AcDbEntity
8
SILKSCREEN_TOP
62
4
100
AcDbPolyline
90
2
70
0
43
8.000000
39
8.000000
10
729.359803
20
3759.008976
10
715.123189
20
3767.063661
0
LWPOLYLINE
5
DD
100
AcDbEntity
8
SILKSCREEN_TOP
62
4
100
AcDbPolyline
90
2
70
0
43
8.000000
39
8.000000
10
715.123189
20
3767.063661
10
700.238701
20
3773.846929
0
LWPOLYLINE
5
DE
100
AcDbEntity
8
SILKSCREEN_TOP
62
4
100
AcDbPolyline
90
2
70
0
43
8.000000
39
8.000000
10
700.238701
20
3773.846929
10
684.819646
20
3779.307087
0
LWPOLYLINE
5
DF
100
AcDbEntity
8
SILKSCREEN_TOP
62
4
100
AcDbPolyline
90
2
70
0
43
8.000000
39
8.000000
10
684.819646
20
3779.307087
10
668.983425
20
3783.402598
0
LWPOLYLINE
5
E0
100
AcDbEntity
8
SILKSCREEN_TOP
62
4
100
AcDbPolyline
90
2
70
0
43
8.000000
39
8.000000
10
668.983425
20
3783.402598
10
652.850472
20
3786.102362
0
LWPOLYLINE
5
E1
100
AcDbEntity
8
SILKSCREEN_TOP
62
4
100
AcDbPolyline
90
2
70
0
43
8.000000
39
8.000000
10
652.850472
20
3786.102362
10
636.543622
20
3787.385709
0
LWPOLYLINE
5
E2
100
AcDbEntity
8
SILKSCREEN_TOP
62
4
100
AcDbPolyline
90
2
70
0
43
8.000000
39
8.000000
10
636.543622
20
3787.385709
10
620.187008
20
3787.242992
0
LWPOLYLINE
5
E3
100
AcDbEntity
8
SILKSCREEN_TOP
62
4
100
AcDbPolyline
90
2
70
0
43
8.000000
39
8.000000
10
620.187008
20
3787.242992
10
603.905039
20
3785.675197
0
LWPOLYLINE
5
E4
100
AcDbEntity
8
SILKSCREEN_TOP
62
4
100
AcDbPolyline
90
2
70
0
43
8.000000
39
8.000000
10
603.905039
20
3785.675197
10
587.821654
20
3782.694331
0
LWPOLYLINE
5
E5
100
AcDbEntity
8
SILKSCREEN_TOP
62
4
100
AcDbPolyline
90
2
70
0
43
8.000000
39
8.000000
10
587.821654
20
3782.694331
10
572.059291
20
3778.323031
0
LWPOLYLINE
5
E6
100
AcDbEntity
8
SILKSCREEN_TOP
62
4
100
AcDbPolyline
90
2
70
0
43
8.000000
39
8.000000
10
572.059291
20
3778.323031
10
556.737913
20
3772.594606
0
LWPOLYLINE
5
E7
100
AcDbEntity
8
SILKSCREEN_TOP
62
4
100
AcDbPolyline
90
2
70
0
43
8.000000
39
8.000000
10
556.737913
20
3772.594606
10
541.974094
20
3765.552638
0
LWPOLYLINE
5
E8
100
AcDbEntity
8
SILKSCREEN_TOP
62
4
100
AcDbPolyline
90
2
70
0
43
8.000000
39
8.000000
10
541.974094
20
3765.552638
10
527.880197
20
3757.250669
0
LWPOLYLINE
5
E9
100
AcDbEntity
8
SILKSCREEN_TOP
62
4
100
AcDbPolyline
90
2
70
0
43
8.000000
39
8.000000
10
527.880197
20
3757.250669
10
514.563465
20
3747.751969
0
LWPOLYLINE
5
EA
100
AcDbEntity
8
SILKSCREEN_TOP
62
4
100
AcDbPolyline
90
2
70
0
43
8.000000
39
8.000000
10
514.563465
20
3747.751969
10
502.125315
20
3737.128780
0
LWPOLYLINE
5
EB
100
AcDbEntity
8
SILKSCREEN_TOP
62
4
100
AcDbPolyline
90
2
70
0
43
8.000000
39
8.000000
10
502.125315
20
3737.128780
10
490.660354
20
3725.461929
0
LWPOLYLINE
5
EC
100
AcDbEntity
8
SILKSCREEN_TOP
62
4
100
AcDbPolyline
90
2
70
0
43
8.000000
39
8.000000
10
490.660354
20
3725.461929
10
480.255866
20
3712.840276
0
LWPOLYLINE
5
ED
100
AcDbEntity
8
SILKSCREEN_TOP
62
4
100
AcDbPolyline
90
2
70
0
43
8.000000
39
8.000000
10
480.255866
20
3712.840276
10
472.749291
20
3702.119764
0
LWPOLYLINE
5
EE
100
AcDbEntity
8
SILKSCREEN_TOP
62
4
100
AcDbPolyline
90
2
70
0
43
8.000000
39
8.000000
10
788.333307
20
3600.000000
10
787.730787
20
3613.799646
0
LWPOLYLINE
5
EF
100
AcDbEntity
8
SILKSCREEN_TOP
62
4
100
AcDbPolyline
90
2
70
0
43
8.000000
39
8.000000
10
787.730787
20
3613.799646
10
785.927835
20
3627.494252
0
LWPOLYLINE
5
F0
100
AcDbEntity
8
SILKSCREEN_TOP
62
4
100
AcDbPolyline
90
2
70
0
43
8.000000
39
8.000000
10
785.927835
20
3627.494252
10
782.938228
20
3640.979646
0
LWPOLYLINE
5
F1
100
AcDbEntity
8
SILKSCREEN_TOP
62
4
100
AcDbPolyline
90
2
70
0
43
8.000000
39
8.000000
10
782.938228
20
3640.979646
10
778.784606
20
3654.153150
0
LWPOLYLINE
5
F2
100
AcDbEntity
8
SILKSCREEN_TOP
62
4
100
AcDbPolyline
90
2
70
0
43
8.000000
39
8.000000
10
778.784606
20
3654.153150
10
773.498701
20
3666.914528
0
LWPOLYLINE
5
F3
100
AcDbEntity
8
SILKSCREEN_TOP
62
4
100
AcDbPolyline
90
2
70
0
43
8.000000
39
8.000000
10
773.498701
20
3666.914528
10
767.120630
20
3679.166654
0
LWPOLYLINE
5
F4
100
AcDbEntity
8
SILKSCREEN_TOP
62
4
100
AcDbPolyline
90
2
70
0
43
8.000000
39
8.000000
10
767.120630
20
3679.166654
10
759.699016
20
3690.816220
0
LWPOLYLINE
5
F5
100
AcDbEntity
8
SILKSCREEN_TOP
62
4
100
AcDbPolyline
90
2
70
0
43
8.000000
39
8.000000
10
759.699016
20
3690.816220
10
751.290315
20
3701.774685
0
LWPOLYLINE
5
F6
100
AcDbEntity
8
SILKSCREEN_TOP
62
4
100
AcDbPolyline
90
2
70
0
43
8.000000
39
8.000000
10
751.290315
20
3701.774685
10
741.958543
20
3711.958543
0
LWPOLYLINE
5
F7
100
AcDbEntity
8
SILKSCREEN_TOP
62
4
100
AcDbPolyline
90
2
70
0
43
8.000000
39
8.000000
10
741.958543
20
3711.958543
10
731.774685
20
3721.290315
0
LWPOLYLINE
5
F8
100
AcDbEntity
8
SILKSCREEN_TOP
62
4
100
AcDbPolyline
90
2
70
0
43
8.000000
39
8.000000
10
731.774685
20
3721.290315
10
720.816220
20
3729.699016
0
LWPOLYLINE
5
F9
100
AcDbEntity
8
SILKSCREEN_TOP
62
4
100
AcDbPolyline
90
2
70
0
43
8.000000
39
8.000000
10
720.816220
20
3729.699016
10
709.166654
20
3737.120630
0
LWPOLYLINE
5
FA
100
AcDbEntity
8
SILKSCREEN_TOP
62
4
100
AcDbPolyline
90
2
70
0
43
8.000000
39
8.000000
10
709.166654
20
3737.120630
10
696.914528
20
3743.498701
0
LWPOLYLINE
5
FB
100
AcDbEntity
8
SILKSCREEN_TOP
62
4
100
AcDbPolyline
90
2
70
0
43
8.000000
39
8.000000
10
696.914528
20
3743.498701
10
684.153150
20
3748.784606
0
LWPOLYLINE
5
FC
100
AcDbEntity
8
SILKSCREEN_TOP
62
4
100
AcDbPolyline
90
2
70
0
43
8.000000
39
8.000000
10
684.153150
20
3748.784606
10
670.979646
20
3752.938228
0
LWPOLYLINE
5
FD
100
AcDbEntity
8
SILKSCREEN_TOP
62
4
100
AcDbPolyline
90
2
70
0
43
8.000000
39
8.000000
10
670.979646
20
3752.938228
10
657.494252
20
3755.927835
0
LWPOLYLINE
5
FE
100
AcDbEntity
8
SILKSCREEN_TOP
62
4
100
AcDbPolyline
90
2
70
0
43
8.000000
39
8.000000
10
657.494252
20
3755.927835
10
643.799646
20
3757.730787
0
LWPOLYLINE
5
FF
100
AcDbEntity
8
SILKSCREEN_TOP
62
4
100
AcDbPolyline
90
2
70
0
43
8.000000
39
8.000000
10
643.799646
20
3757.730787
10
630.000000
20
3758.333307
0
LWPOLYLINE
5
100
100
AcDbEntity
8
SILKSCREEN_TOP
62
4
100
AcDbPolyline
90
2
70
0
43
8.000000
39
8.000000
10
630.000000
20
3758.333307
10
616.200315
20
3757.730787
0
LWPOLYLINE
5
101
100
AcDbEntity
8
SILKSCREEN_TOP
62
4
100
AcDbPolyline
90
2
70
0
43
8.000000
39
8.000000
10
616.200315
20
3757.730787
10
602.505709
20
3755.927835
0
LWPOLYLINE
5
102
100
AcDbEntity
8
SILKSCREEN_TOP
62
4
100
AcDbPolyline
90
2
70
0
43
8.000000
39
8.000000
10
602.505709
20
3755.927835
10
589.020315
20
3752.938228
0
LWPOLYLINE
5
103
100
AcDbEntity
8
SILKSCREEN_TOP
62
4
100
AcDbPolyline
90
2
70
0
43
8.000000
39
8.000000
10
589.020315
20
3752.938228
10
575.846811
20
3748.784606
0
LWPOLYLINE
5
104
100
AcDbEntity
8
SILKSCREEN_TOP
62
4
100
AcDbPolyline
90
2
70
0
43
8.000000
39
8.000000
10
575.846811
20
3748.784606
10
563.085433
20
3743.498701
0
LWPOLYLINE
5
105
100
AcDbEntity
8
SILKSCREEN_TOP
62
4
100
AcDbPolyline
90
2
70
0
43
8.000000
39
8.000000
10
563.085433
20
3743.498701
10
550.833346
20
3737.120630
0
LWPOLYLINE
5
106
100
AcDbEntity
8
SILKSCREEN_TOP
62
4
100
AcDbPolyline
90
2
70
0
43
8.000000
39
8.000000
10
550.833346
20
3737.120630
10
539.183740
20
3729.699016
0
LWPOLYLINE
5
107
100
AcDbEntity
8
SILKSCREEN_TOP
62
4
100
AcDbPolyline
90
2
70
0
43
8.000000
39
8.000000
10
539.183740
20
3729.699016
10
528.225276
20
3721.290315
0
LWPOLYLINE
5
108
100
AcDbEntity
8
SILKSCREEN_TOP
62
4
100
AcDbPolyline
90
2
70
0
43
8.000000
39
8.000000
10
528.225276
20
3721.290315
10
518.041417
20
3711.958543
0
LWPOLYLINE
5
109
100
AcDbEntity
8
SILKSCREEN_TOP
62
4
100
AcDbPolyline
90
2
70
0
43
8.000000
39
8.000000
10
518.041417
20
3711.958543
10
508.709646
20
3701.774685
0
LWPOLYLINE
5
10A
100
AcDbEntity
8
SILKSCREEN_TOP
62
4
100
AcDbPolyline
90
2
70
0
43
8.000000
39
8.000000
10
508.709646
20
3701.774685
10
500.300945
20
3690.816220
0
LWPOLYLINE
5
10B
100
AcDbEntity
8
SILKSCREEN_TOP
62
4
100
AcDbPolyline
90
2
70
0
43
8.000000
39
8.000000
10
500.300945
20
3690.816220
10
492.879331
20
3679.166654
0
LWPOLYLINE
5
10C
100
AcDbEntity
8
SILKSCREEN_TOP
62
4
100
AcDbPolyline
90
2
70
0
43
8.000000
39
8.000000
10
492.879331
20
3679.166654
10
486.501260
20
3666.914528
0
LWPOLYLINE
5
10D
100
AcDbEntity
8
SILKSCREEN_TOP
62
4
100
AcDbPolyline
90
2
70
0
43
8.000000
39
8.000000
10
486.501260
20
3666.914528
10
481.215354
20
3654.153150
0
LWPOLYLINE
5
10E
100
AcDbEntity
8
SILKSCREEN_TOP
62
4
100
AcDbPolyline
90
2
70
0
43
8.000000
39
8.000000
10
481.215354
20
3654.153150
10
477.061732
20
3640.979646
0
LWPOLYLINE
5
10F
100
AcDbEntity
8
SILKSCREEN_TOP
62
4
100
AcDbPolyline
90
2
70
0
43
8.000000
39
8.000000
10
477.061732
20
3640.979646
10
474.072126
20
3627.494252
0
LWPOLYLINE
5
110
100
AcDbEntity
8
SILKSCREEN_TOP
62
4
100
AcDbPolyline
90
2
70
0
43
8.000000
39
8.000000
10
474.072126
20
3627.494252
10
472.269173
20
3613.799646
0
LWPOLYLINE
5
111
100
AcDbEntity
8
SILKSCREEN_TOP
62
4
100
AcDbPolyline
90
2
70
0
43
8.000000
39
8.000000
10
472.269173
20
3613.799646
10
471.666693
20
3600.000000
0
LWPOLYLINE
5
112
100
AcDbEntity
8
SILKSCREEN_TOP
62
4
100
AcDbPolyline
90
2
70
0
43
8.000000
39
8.000000
10
471.666693
20
3600.000000
10
472.269173
20
3586.200315
0
LWPOLYLINE
5
113
100
AcDbEntity
8
SILKSCREEN_TOP
62
4
100
AcDbPolyline
90
2
70
0
43
8.000000
39
8.000000
10
472.269173
20
3586.200315
10
474.072126
20
3572.505709
0
LWPOLYLINE
5
114
100
AcDbEntity
8
SILKSCREEN_TOP
62
4
100
AcDbPolyline
90
2
70
0
43
8.000000
39
8.000000
10
474.072126
20
3572.505709
10
477.061732
20
3559.020315
0
LWPOLYLINE
5
115
100
AcDbEntity
8
SILKSCREEN_TOP
62
4
100
AcDbPolyline
90
2
70
0
43
8.000000
39
8.000000
10
477.061732
20
3559.020315
10
481.215354
20
3545.846811
0
LWPOLYLINE
5
116
100
AcDbEntity
8
SILKSCREEN_TOP
62
4
100
AcDbPolyline
90
2
70
0
43
8.000000
39
8.000000
10
481.215354
20
3545.846811
10
486.501260
20
3533.085433
0
LWPOLYLINE
5
117
100
AcDbEntity
8
SILKSCREEN_TOP
62
4
100
AcDbPolyline
90
2
70
0
43
8.000000
39
8.000000
10
486.501260
20
3533.085433
10
492.879331
20
3520.833346
0
LWPOLYLINE
5
118
100
AcDbEntity
8
SILKSCREEN_TOP
62
4
100
AcDbPolyline
90
2
70
0
43
8.000000
39
8.000000
10
492.879331
20
3520.833346
10
500.300945
20
3509.183740
0
LWPOLYLINE
5
119
100
AcDbEntity
8
SILKSCREEN_TOP
62
4
100
AcDbPolyline
90
2
70
0
43
8.000000
39
8.000000
10
500.300945
20
3509.183740
10
508.709646
20
3498.225276
0
LWPOLYLINE
5
11A
100
AcDbEntity
8
SILKSCREEN_TOP
62
4
100
AcDbPolyline
90
2
70
0
43
8.000000
39
8.000000
10
508.709646
20
3498.225276
10
518.041417
20
3488.041417
0
LWPOLYLINE
5
11B
100
AcDbEntity
8
SILKSCREEN_TOP
62
4
100
AcDbPolyline
90
2
70
0
43
8.000000
39
8.000000
10
518.041417
20
3488.041417
10
528.225276
20
3478.709646
0
LWPOLYLINE
5
11C
100
AcDbEntity
8
SILKSCREEN_TOP
62
4
100
AcDbPolyline
90
2
70
0
43
8.000000
39
8.000000
10
528.225276
20
3478.709646
10
539.183740
20
3470.300945
0
LWPOLYLINE
5
11D
100
AcDbEntity
8
SILKSCREEN_TOP
62
4
100
AcDbPolyline
90
2
70
0
43
8.000000
39
8.000000
10
539.183740
20
3470.300945
10
550.833307
20
3462.879331
0
LWPOLYLINE
5
11E
100
AcDbEntity
8
SILKSCREEN_TOP
62
4
100
AcDbPolyline
90
2
70
0
43
8.000000
39
8.000000
10
550.833307
20
3462.879331
10
563.085433
20
3456.501260
0
LWPOLYLINE
5
11F
100
AcDbEntity
8
SILKSCREEN_TOP
62
4
100
AcDbPolyline
90
2
70
0
43
8.000000
39
8.000000
10
563.085433
20
3456.501260
10
575.846811
20
3451.215354
0
LWPOLYLINE
5
120
100
AcDbEntity
8
SILKSCREEN_TOP
62
4
100
AcDbPolyline
90
2
70
0
43
8.000000
39
8.000000
10
575.846811
20
3451.215354
10
589.020315
20
3447.061732
0
LWPOLYLINE
5
121
100
AcDbEntity
8
SILKSCREEN_TOP
62
4
100
AcDbPolyline
90
2
70
0
43
8.000000
39
8.000000
10
589.020315
20
3447.061732
10
602.505709
20
3444.072126
0
LWPOLYLINE
5
122
100
AcDbEntity
8
SILKSCREEN_TOP
62
4
100
AcDbPolyline
90
2
70
0
43
8.000000
39
8.000000
10
602.505709
20
3444.072126
10
616.200315
20
3442.269173
0
LWPOLYLINE
5
123
100
AcDbEntity
8
SILKSCREEN_TOP
62
4
100
AcDbPolyline
90
2
70
0
43
8.000000
39
8.000000
10
616.200315
20
3442.269173
10
629.999961
20
3441.666693
0
LWPOLYLINE
5
124
100
AcDbEntity
8
SILKSCREEN_TOP
62
4
100
AcDbPolyline
90
2
70
0
43
8.000000
39
8.000000
10
629.999961
20
3441.666693
10
643.799646
20
3442.269173
0
LWPOLYLINE
5
125
100
AcDbEntity
8
SILKSCREEN_TOP
62
4
100
AcDbPolyline
90
2
70
0
43
8.000000
39
8.000000
10
643.799646
20
3442.269173
10
657.494252
20
3444.072126
0
LWPOLYLINE
5
126
100
AcDbEntity
8
SILKSCREEN_TOP
62
4
100
AcDbPolyline
90
2
70
0
43
8.000000
39
8.000000
10
657.494252
20
3444.072126
10
670.979646
20
3447.061732
0
LWPOLYLINE
5
127
100
AcDbEntity
8
SILKSCREEN_TOP
62
4
100
AcDbPolyline
90
2
70
0
43
8.000000
39
8.000000
10
670.979646
20
3447.061732
10
684.153150
20
3451.215354
0
LWPOLYLINE
5
128
100
AcDbEntity
8
SILKSCREEN_TOP
62
4
100
AcDbPolyline
90
2
70
0
43
8.000000
39
8.000000
10
684.153150
20
3451.215354
10
696.914528
20
3456.501260
0
LWPOLYLINE
5
129
100
AcDbEntity
8
SILKSCREEN_TOP
62
4
100
AcDbPolyline
90
2
70
0
43
8.000000
39
8.000000
10
696.914528
20
3456.501260
10
709.166614
20
3462.879331
0
LWPOLYLINE
5
12A
100
AcDbEntity
8
SILKSCREEN_TOP
62
4
100
AcDbPolyline
90
2
70
0
43
8.000000
39
8.000000
10
709.166614
20
3462.879331
10
720.816220
20
3470.300945
0
LWPOLYLINE
5
12B
100
AcDbEntity
8
SILKSCREEN_TOP
62
4
100
AcDbPolyline
90
2
70
0
43
8.000000
39
8.000000
10
720.816220
20
3470.300945
10
731.774685
20
3478.709646
0
LWPOLYLINE
5
12C
100
AcDbEntity
8
SILKSCREEN_TOP
62
4
100
AcDbPolyline
90
2
70
0
43
8.000000
39
8.000000
10
731.774685
20
3478.709646
10
741.958543
20
3488.041417
0
LWPOLYLINE
5
12D
100
AcDbEntity
8
SILKSCREEN_TOP
62
4
100
AcDbPolyline
90
2
70
0
43
8.000000
39
8.000000
10
741.958543
20
3488.041417
10
751.290315
20
3498.225276
0
LWPOLYLINE
5
12E
100
AcDbEntity
8
SILKSCREEN_TOP
62
4
100
AcDbPolyline
90
2
70
0
43
8.000000
39
8.000000
10
751.290315
20
3498.225276
10
759.699016
20
3509.183740
0
LWPOLYLINE
5
12F
100
AcDbEntity
8
SILKSCREEN_TOP
62
4
100
AcDbPolyline
90
2
70
0
43
8.000000
39
8.000000
10
759.699016
20
3509.183740
10
767.120630
20
3520.833307
0
LWPOLYLINE
5
130
100
AcDbEntity
8
SILKSCREEN_TOP
62
4
100
AcDbPolyline
90
2
70
0
43
8.000000
39
8.000000
10
767.120630
20
3520.833307
10
773.498701
20
3533.085433
0
LWPOLYLINE
5
131
100
AcDbEntity
8
SILKSCREEN_TOP
62
4
100
AcDbPolyline
90
2
70
0
43
8.000000
39
8.000000
10
773.498701
20
3533.085433
10
778.784606
20
3545.846811
0
LWPOLYLINE
5
132
100
AcDbEntity
8
SILKSCREEN_TOP
62
4
100
AcDbPolyline
90
2
70
0
43
8.000000
39
8.000000
10
778.784606
20
3545.846811
10
782.938228
20
3559.020315
0
LWPOLYLINE
5
133
100
AcDbEntity
8
SILKSCREEN_TOP
62
4
100
AcDbPolyline
90
2
70
0
43
8.000000
39
8.000000
10
782.938228
20
3559.020315
10
785.927835
20
3572.505709
0
LWPOLYLINE
5
134
100
AcDbEntity
8
SILKSCREEN_TOP
62
4
100
AcDbPolyline
90
2
70
0
43
8.000000
39
8.000000
10
785.927835
20
3572.505709
10
787.730787
20
3586.200315
0
LWPOLYLINE
5
135
100
AcDbEntity
8
SILKSCREEN_TOP
62
4
100
AcDbPolyline
90
2
70
0
43
8.000000
39
8.000000
10
787.730787
20
3586.200315
10
788.333307
20
3599.999961
0
LWPOLYLINE
5
136
100
AcDbEntity
8
SILKSCREEN_TOP
62
4
100
AcDbPolyline
90
2
70
0
43
8.000000
39
8.000000
10
788.333307
20
3599.999961
10
788.333307
20
3600.000000
0
LWPOLYLINE
5
137
100
AcDbEntity
8
SILKSCREEN_TOP
62
4
100
AcDbPolyline
90
2
70
0
43
8.000000
39
8.000000
10
671.666614
20
3541.666654
10
688.333307
20
3541.666654
0
LWPOLYLINE
5
138
100
AcDbEntity
8
SILKSCREEN_TOP
62
4
100
AcDbPolyline
90
2
70
0
43
8.000000
39
8.000000
10
688.333268
20
3550.000039
10
688.301575
20
3550.726299
0
LWPOLYLINE
5
139
100
AcDbEntity
8
SILKSCREEN_TOP
62
4
100
AcDbPolyline
90
2
70
0
43
8.000000
39
8.000000
10
688.301575
20
3550.726299
10
688.206693
20
3551.447087
0
LWPOLYLINE
5
13A
100
AcDbEntity
8
SILKSCREEN_TOP
62
4
100
AcDbPolyline
90
2
70
0
43
8.000000
39
8.000000
10
688.206693
20
3551.447087
10
688.049331
20
3552.156850
0
LWPOLYLINE
5
13B
100
AcDbEntity
8
SILKSCREEN_TOP
62
4
100
AcDbPolyline
90
2
70
0
43
8.000000
39
8.000000
10
688.049331
20
3552.156850
10
687.830709
20
3552.850157
0
LWPOLYLINE
5
13C
100
AcDbEntity
8
SILKSCREEN_TOP
62
4
100
AcDbPolyline
90
2
70
0
43
8.000000
39
8.000000
10
687.830709
20
3552.850157
10
687.552520
20
3553.521811
0
LWPOLYLINE
5
13D
100
AcDbEntity
8
SILKSCREEN_TOP
62
4
100
AcDbPolyline
90
2
70
0
43
8.000000
39
8.000000
10
687.552520
20
3553.521811
10
687.216811
20
3554.166654
0
LWPOLYLINE
5
13E
100
AcDbEntity
8
SILKSCREEN_TOP
62
4
100
AcDbPolyline
90
2
70
0
43
8.000000
39
8.000000
10
687.216811
20
3554.166654
10
686.826220
20
3554.779803
0
LWPOLYLINE
5
13F
100
AcDbEntity
8
SILKSCREEN_TOP
62
4
100
AcDbPolyline
90
2
70
0
43
8.000000
39
8.000000
10
686.826220
20
3554.779803
10
686.383622
20
3555.356575
0
LWPOLYLINE
5
140
100
AcDbEntity
8
SILKSCREEN_TOP
62
4
100
AcDbPolyline
90
2
70
0
43
8.000000
39
8.000000
10
686.383622
20
3555.356575
10
685.892480
20
3555.892559
0
LWPOLYLINE
5
141
100
AcDbEntity
8
SILKSCREEN_TOP
62
4
100
AcDbPolyline
90
2
70
0
43
8.000000
39
8.000000
10
685.892480
20
3555.892559
10
685.356496
20
3556.383701
0
LWPOLYLINE
5
142
100
AcDbEntity
8
SILKSCREEN_TOP
62
4
100
AcDbPolyline
90
2
70
0
43
8.000000
39
8.000000
10
685.356496
20
3556.383701
10
684.779724
20
3556.826260
0
LWPOLYLINE
5
143
100
AcDbEntity
8
SILKSCREEN_TOP
62
4
100
AcDbPolyline
90
2
70
0
43
8.000000
39
8.000000
10
684.779724
20
3556.826260
10
684.166614
20
3557.216850
0
LWPOLYLINE
5
144
100
AcDbEntity
8
SILKSCREEN_TOP
62
4
100
AcDbPolyline
90
2
70
0
43
8.000000
39
8.000000
10
684.166614
20
3557.216850
10
683.521772
20
3557.552520
0
LWPOLYLINE
5
145
100
AcDbEntity
8
SILKSCREEN_TOP
62
4
100
AcDbPolyline
90
2
70
0
43
8.000000
39
8.000000
10
683.521772
20
3557.552520
10
682.850118
20
3557.830748
0
LWPOLYLINE
5
146
100
AcDbEntity
8
SILKSCREEN_TOP
62
4
100
AcDbPolyline
90
2
70
0
43
8.000000
39
8.000000
10
682.850118
20
3557.830748
10
682.156772
20
3558.049331
0
LWPOLYLINE
5
147
100
AcDbEntity
8
SILKSCREEN_TOP
62
4
100
AcDbPolyline
90
2
70
0
43
8.000000
39
8.000000
10
682.156772
20
3558.049331
10
681.447008
20
3558.206693
0
LWPOLYLINE
5
148
100
AcDbEntity
8
SILKSCREEN_TOP
62
4
100
AcDbPolyline
90
2
70
0
43
8.000000
39
8.000000
10
681.447008
20
3558.206693
10
680.726220
20
3558.301575
0
LWPOLYLINE
5
149
100
AcDbEntity
8
SILKSCREEN_TOP
62
4
100
AcDbPolyline
90
2
70
0
43
8.000000
39
8.000000
10
680.726220
20
3558.301575
10
679.999961
20
3558.333268
0
LWPOLYLINE
5
14A
100
AcDbEntity
8
SILKSCREEN_TOP
62
4
100
AcDbPolyline
90
2
70
0
43
8.000000
39
8.000000
10
679.999961
20
3558.333268
10
679.273661
20
3558.301575
0
LWPOLYLINE
5
14B
100
AcDbEntity
8
SILKSCREEN_TOP
62
4
100
AcDbPolyline
90
2
70
0
43
8.000000
39
8.000000
10
679.273661
20
3558.301575
10
678.552874
20
3558.206693
0
LWPOLYLINE
5
14C
100
AcDbEntity
8
SILKSCREEN_TOP
62
4
100
AcDbPolyline
90
2
70
0
43
8.000000
39
8.000000
10
678.552874
20
3558.206693
10
677.843110
20
3558.049331
0
LWPOLYLINE
5
14D
100
AcDbEntity
8
SILKSCREEN_TOP
62
4
100
AcDbPolyline
90
2
70
0
43
8.000000
39
8.000000
10
677.843110
20
3558.049331
10
677.149803
20
3557.830709
0
LWPOLYLINE
5
14E
100
AcDbEntity
8
SILKSCREEN_TOP
62
4
100
AcDbPolyline
90
2
70
0
43
8.000000
39
8.000000
10
677.149803
20
3557.830709
10
676.478150
20
3557.552520
0
LWPOLYLINE
5
14F
100
AcDbEntity
8
SILKSCREEN_TOP
62
4
100
AcDbPolyline
90
2
70
0
43
8.000000
39
8.000000
10
676.478150
20
3557.552520
10
675.833307
20
3557.216811
0
LWPOLYLINE
5
150
100
AcDbEntity
8
SILKSCREEN_TOP
62
4
100
AcDbPolyline
90
2
70
0
43
8.000000
39
8.000000
10
675.833307
20
3557.216811
10
675.220157
20
3556.826220
0
LWPOLYLINE
5
151
100
AcDbEntity
8
SILKSCREEN_TOP
62
4
100
AcDbPolyline
90
2
70
0
43
8.000000
39
8.000000
10
675.220157
20
3556.826220
10
674.643386
20
3556.383622
0
LWPOLYLINE
5
152
100
AcDbEntity
8
SILKSCREEN_TOP
62
4
100
AcDbPolyline
90
2
70
0
43
8.000000
39
8.000000
10
674.643386
20
3556.383622
10
674.107402
20
3555.892480
0
LWPOLYLINE
5
153
100
AcDbEntity
8
SILKSCREEN_TOP
62
4
100
AcDbPolyline
90
2
70
0
43
8.000000
39
8.000000
10
674.107402
20
3555.892480
10
673.616260
20
3555.356496
0
LWPOLYLINE
5
154
100
AcDbEntity
8
SILKSCREEN_TOP
62
4
100
AcDbPolyline
90
2
70
0
43
8.000000
39
8.000000
10
673.616260
20
3555.356496
10
673.173701
20
3554.779724
0
LWPOLYLINE
5
155
100
AcDbEntity
8
SILKSCREEN_TOP
62
4
100
AcDbPolyline
90
2
70
0
43
8.000000
39
8.000000
10
673.173701
20
3554.779724
10
672.783110
20
3554.166614
0
LWPOLYLINE
5
156
100
AcDbEntity
8
SILKSCREEN_TOP
62
4
100
AcDbPolyline
90
2
70
0
43
8.000000
39
8.000000
10
672.783110
20
3554.166614
10
672.447441
20
3553.521772
0
LWPOLYLINE
5
157
100
AcDbEntity
8
SILKSCREEN_TOP
62
4
100
AcDbPolyline
90
2
70
0
43
8.000000
39
8.000000
10
672.447441
20
3553.521772
10
672.169213
20
3552.850118
0
LWPOLYLINE
5
158
100
AcDbEntity
8
SILKSCREEN_TOP
62
4
100
AcDbPolyline
90
2
70
0
43
8.000000
39
8.000000
10
672.169213
20
3552.850118
10
671.950630
20
3552.156772
0
LWPOLYLINE
5
159
100
AcDbEntity
8
SILKSCREEN_TOP
62
4
100
AcDbPolyline
90
2
70
0
43
8.000000
39
8.000000
10
671.950630
20
3552.156772
10
671.793268
20
3551.447008
0
LWPOLYLINE
5
15A
100
AcDbEntity
8
SILKSCREEN_TOP
62
4
100
AcDbPolyline
90
2
70
0
43
8.000000
39
8.000000
10
671.793268
20
3551.447008
10
671.698386
20
3550.726220
0
LWPOLYLINE
5
15B
100
AcDbEntity
8
SILKSCREEN_TOP
62
4
100
AcDbPolyline
90
2
70
0
43
8.000000
39
8.000000
10
671.698386
20
3550.726220
10
671.666693
20
3550.000039
0
LWPOLYLINE
5
15C
100
AcDbEntity
8
SILKSCREEN_TOP
62
4
100
AcDbPolyline
90
2
70
0
43
8.000000
39
8.000000
10
471.666614
20
3700.000000
10
471.666614
20
3500.000000
0
LWPOLYLINE
5
15D
100
AcDbEntity
8
SILKSCREEN_TOP
62
4
100
AcDbPolyline
90
2
70
0
43
8.000000
39
8.000000
10
671.666614
20
3525.000000
10
671.666614
20
3550.000000
0
LWPOLYLINE
5
15E
100
AcDbEntity
8
SILKSCREEN_TOP
62
4
100
AcDbPolyline
90
2
70
0
43
8.000000
39
8.000000
10
571.666693
20
3533.334685
10
571.698386
20
3532.608386
0
LWPOLYLINE
5
15F
100
AcDbEntity
8
SILKSCREEN_TOP
62
4
100
AcDbPolyline
90
2
70
0
43
8.000000
39
8.000000
10
571.698386
20
3532.608386
10
571.793268
20
3531.887598
0
LWPOLYLINE
5
160
100
AcDbEntity
8
SILKSCREEN_TOP
62
4
100
AcDbPolyline
90
2
70
0
43
8.000000
39
8.000000
10
571.793268
20
3531.887598
10
571.950630
20
3531.177835
0
LWPOLYLINE
5
161
100
AcDbEntity
8
SILKSCREEN_TOP
62
4
100
AcDbPolyline
90
2
70
0
43
8.000000
39
8.000000
10
571.950630
20
3531.177835
10
572.169213
20
3530.484488
0
LWPOLYLINE
5
162
100
AcDbEntity
8
SILKSCREEN_TOP
62
4
100
AcDbPolyline
90
2
70
0
43
8.000000
39
8.000000
10
572.169213
20
3530.484488
10
572.447441
20
3529.812835
0
LWPOLYLINE
5
163
100
AcDbEntity
8
SILKSCREEN_TOP
62
4
100
AcDbPolyline
90
2
70
0
43
8.000000
39
8.000000
10
572.447441
20
3529.812835
10
572.783110
20
3529.167992
0
LWPOLYLINE
5
164
100
AcDbEntity
8
SILKSCREEN_TOP
62
4
100
AcDbPolyline
90
2
70
0
43
8.000000
39
8.000000
10
572.783110
20
3529.167992
10
573.173701
20
3528.554882
0
LWPOLYLINE
5
165
100
AcDbEntity
8
SILKSCREEN_TOP
62
4
100
AcDbPolyline
90
2
70
0
43
8.000000
39
8.000000
10
573.173701
20
3528.554882
10
573.616260
20
3527.978110
0
LWPOLYLINE
5
166
100
AcDbEntity
8
SILKSCREEN_TOP
62
4
100
AcDbPolyline
90
2
70
0
43
8.000000
39
8.000000
10
573.616260
20
3527.978110
10
574.107402
20
3527.442126
0
LWPOLYLINE
5
167
100
AcDbEntity
8
SILKSCREEN_TOP
62
4
100
AcDbPolyline
90
2
70
0
43
8.000000
39
8.000000
10
574.107402
20
3527.442126
10
574.643386
20
3526.950984
0
LWPOLYLINE
5
168
100
AcDbEntity
8
SILKSCREEN_TOP
62
4
100
AcDbPolyline
90
2
70
0
43
8.000000
39
8.000000
10
574.643386
20
3526.950984
10
575.220157
20
3526.508386
0
LWPOLYLINE
5
169
100
AcDbEntity
8
SILKSCREEN_TOP
62
4
100
AcDbPolyline
90
2
70
0
43
8.000000
39
8.000000
10
575.220157
20
3526.508386
10
575.833307
20
3526.117795
0
LWPOLYLINE
5
16A
100
AcDbEntity
8
SILKSCREEN_TOP
62
4
100
AcDbPolyline
90
2
70
0
43
8.000000
39
8.000000
10
575.833307
20
3526.117795
10
576.478150
20
3525.782087
0
LWPOLYLINE
5
16B
100
AcDbEntity
8
SILKSCREEN_TOP
62
4
100
AcDbPolyline
90
2
70
0
43
8.000000
39
8.000000
10
576.478150
20
3525.782087
10
577.149803
20
3525.503898
0
LWPOLYLINE
5
16C
100
AcDbEntity
8
SILKSCREEN_TOP
62
4
100
AcDbPolyline
90
2
70
0
43
8.000000
39
8.000000
10
577.149803
20
3525.503898
10
577.843110
20
3525.285276
0
LWPOLYLINE
5
16D
100
AcDbEntity
8
SILKSCREEN_TOP
62
4
100
AcDbPolyline
90
2
70
0
43
8.000000
39
8.000000
10
577.843110
20
3525.285276
10
578.552874
20
3525.127913
0
LWPOLYLINE
5
16E
100
AcDbEntity
8
SILKSCREEN_TOP
62
4
100
AcDbPolyline
90
2
70
0
43
8.000000
39
8.000000
10
578.552874
20
3525.127913
10
579.273661
20
3525.033031
0
LWPOLYLINE
5
16F
100
AcDbEntity
8
SILKSCREEN_TOP
62
4
100
AcDbPolyline
90
2
70
0
43
8.000000
39
8.000000
10
579.273661
20
3525.033031
10
579.999961
20
3525.001339
0
LWPOLYLINE
5
170
100
AcDbEntity
8
SILKSCREEN_TOP
62
4
100
AcDbPolyline
90
2
70
0
43
8.000000
39
8.000000
10
579.999961
20
3525.001339
10
580.726220
20
3525.033031
0
LWPOLYLINE
5
171
100
AcDbEntity
8
SILKSCREEN_TOP
62
4
100
AcDbPolyline
90
2
70
0
43
8.000000
39
8.000000
10
580.726220
20
3525.033031
10
581.447008
20
3525.127913
0
LWPOLYLINE
5
172
100
AcDbEntity
8
SILKSCREEN_TOP
62
4
100
AcDbPolyline
90
2
70
0
43
8.000000
39
8.000000
10
581.447008
20
3525.127913
10
582.156772
20
3525.285276
0
LWPOLYLINE
5
173
100
AcDbEntity
8
SILKSCREEN_TOP
62
4
100
AcDbPolyline
90
2
70
0
43
8.000000
39
8.000000
10
582.156772
20
3525.285276
10
582.850118
20
3525.503858
0
LWPOLYLINE
5
174
100
AcDbEntity
8
SILKSCREEN_TOP
62
4
100
AcDbPolyline
90
2
70
0
43
8.000000
39
8.000000
10
582.850118
20
3525.503858
10
583.521772
20
3525.782087
0
LWPOLYLINE
5
175
100
AcDbEntity
8
SILKSCREEN_TOP
62
4
100
AcDbPolyline
90
2
70
0
43
8.000000
39
8.000000
10
583.521772
20
3525.782087
10
584.166614
20
3526.117756
0
LWPOLYLINE
5
176
100
AcDbEntity
8
SILKSCREEN_TOP
62
4
100
AcDbPolyline
90
2
70
0
43
8.000000
39
8.000000
10
584.166614
20
3526.117756
10
584.779724
20
3526.508346
0
LWPOLYLINE
5
177
100
AcDbEntity
8
SILKSCREEN_TOP
62
4
100
AcDbPolyline
90
2
70
0
43
8.000000
39
8.000000
10
584.779724
20
3526.508346
10
585.356496
20
3526.950906
0
LWPOLYLINE
5
178
100
AcDbEntity
8
SILKSCREEN_TOP
62
4
100
AcDbPolyline
90
2
70
0
43
8.000000
39
8.000000
10
585.356496
20
3526.950906
10
585.892480
20
3527.442047
0
LWPOLYLINE
5
179
100
AcDbEntity
8
SILKSCREEN_TOP
62
4
100
AcDbPolyline
90
2
70
0
43
8.000000
39
8.000000
10
585.892480
20
3527.442047
10
586.383622
20
3527.978031
0
LWPOLYLINE
5
17A
100
AcDbEntity
8
SILKSCREEN_TOP
62
4
100
AcDbPolyline
90
2
70
0
43
8.000000
39
8.000000
10
586.383622
20
3527.978031
10
586.826220
20
3528.554803
0
LWPOLYLINE
5
17B
100
AcDbEntity
8
SILKSCREEN_TOP
62
4
100
AcDbPolyline
90
2
70
0
43
8.000000
39
8.000000
10
586.826220
20
3528.554803
10
587.216811
20
3529.167953
0
LWPOLYLINE
5
17C
100
AcDbEntity
8
SILKSCREEN_TOP
62
4
100
AcDbPolyline
90
2
70
0
43
8.000000
39
8.000000
10
587.216811
20
3529.167953
10
587.552520
20
3529.812795
0
LWPOLYLINE
5
17D
100
AcDbEntity
8
SILKSCREEN_TOP
62
4
100
AcDbPolyline
90
2
70
0
43
8.000000
39
8.000000
10
587.552520
20
3529.812795
10
587.830709
20
3530.484449
0
LWPOLYLINE
5
17E
100
AcDbEntity
8
SILKSCREEN_TOP
62
4
100
AcDbPolyline
90
2
70
0
43
8.000000
39
8.000000
10
587.830709
20
3530.484449
10
588.049331
20
3531.177756
0
LWPOLYLINE
5
17F
100
AcDbEntity
8
SILKSCREEN_TOP
62
4
100
AcDbPolyline
90
2
70
0
43
8.000000
39
8.000000
10
588.049331
20
3531.177756
10
588.206693
20
3531.887520
0
LWPOLYLINE
5
180
100
AcDbEntity
8
SILKSCREEN_TOP
62
4
100
AcDbPolyline
90
2
70
0
43
8.000000
39
8.000000
10
588.206693
20
3531.887520
10
588.301575
20
3532.608307
0
LWPOLYLINE
5
181
100
AcDbEntity
8
SILKSCREEN_TOP
62
4
100
AcDbPolyline
90
2
70
0
43
8.000000
39
8.000000
10
588.301575
20
3532.608307
10
588.333268
20
3533.334606
0
LWPOLYLINE
5
182
100
AcDbEntity
8
SILKSCREEN_TOP
62
4
100
AcDbPolyline
90
2
70
0
43
8.000000
39
8.000000
10
588.333268
20
3533.334606
10
588.333268
20
3533.334646
0
LWPOLYLINE
5
183
100
AcDbEntity
8
SILKSCREEN_TOP
62
4
100
AcDbPolyline
90
2
70
0
43
8.000000
39
8.000000
10
571.666614
20
3533.333346
10
571.666614
20
3550.000000
0
LWPOLYLINE
5
184
100
AcDbEntity
8
SILKSCREEN_TOP
62
4
100
AcDbPolyline
90
2
70
0
43
8.000000
39
8.000000
10
588.333307
20
3550.000039
10
588.301614
20
3550.726299
0
LWPOLYLINE
5
185
100
AcDbEntity
8
SILKSCREEN_TOP
62
4
100
AcDbPolyline
90
2
70
0
43
8.000000
39
8.000000
10
588.301614
20
3550.726299
10
588.206732
20
3551.447087
0
LWPOLYLINE
5
186
100
AcDbEntity
8
SILKSCREEN_TOP
62
4
100
AcDbPolyline
90
2
70
0
43
8.000000
39
8.000000
10
588.206732
20
3551.447087
10
588.049370
20
3552.156850
0
LWPOLYLINE
5
187
100
AcDbEntity
8
SILKSCREEN_TOP
62
4
100
AcDbPolyline
90
2
70
0
43
8.000000
39
8.000000
10
588.049370
20
3552.156850
10
587.830748
20
3552.850197
0
LWPOLYLINE
5
188
100
AcDbEntity
8
SILKSCREEN_TOP
62
4
100
AcDbPolyline
90
2
70
0
43
8.000000
39
8.000000
10
587.830748
20
3552.850197
10
587.552559
20
3553.521850
0
LWPOLYLINE
5
189
100
AcDbEntity
8
SILKSCREEN_TOP
62
4
100
AcDbPolyline
90
2
70
0
43
8.000000
39
8.000000
10
587.552559
20
3553.521850
10
587.216850
20
3554.166693
0
LWPOLYLINE
5
18A
100
AcDbEntity
8
SILKSCREEN_TOP
62
4
100
AcDbPolyline
90
2
70
0
43
8.000000
39
8.000000
10
587.216850
20
3554.166693
10
586.826220
20
3554.779843
0
LWPOLYLINE
5
18B
100
AcDbEntity
8
SILKSCREEN_TOP
62
4
100
AcDbPolyline
90
2
70
0
43
8.000000
39
8.000000
10
586.826220
20
3554.779843
10
586.383661
20
3555.356575
0
LWPOLYLINE
5
18C
100
AcDbEntity
8
SILKSCREEN_TOP
62
4
100
AcDbPolyline
90
2
70
0
43
8.000000
39
8.000000
10
586.383661
20
3555.356575
10
585.892520
20
3555.892559
0
LWPOLYLINE
5
18D
100
AcDbEntity
8
SILKSCREEN_TOP
62
4
100
AcDbPolyline
90
2
70
0
43
8.000000
39
8.000000
10
585.892520
20
3555.892559
10
585.356535
20
3556.383701
0
LWPOLYLINE
5
18E
100
AcDbEntity
8
SILKSCREEN_TOP
62
4
100
AcDbPolyline
90
2
70
0
43
8.000000
39
8.000000
10
585.356535
20
3556.383701
10
584.779764
20
3556.826299
0
LWPOLYLINE
5
18F
100
AcDbEntity
8
SILKSCREEN_TOP
62
4
100
AcDbPolyline
90
2
70
0
43
8.000000
39
8.000000
10
584.779764
20
3556.826299
10
584.166614
20
3557.216890
0
LWPOLYLINE
5
190
100
AcDbEntity
8
SILKSCREEN_TOP
62
4
100
AcDbPolyline
90
2
70
0
43
8.000000
39
8.000000
10
584.166614
20
3557.216890
10
583.521772
20
3557.552559
0
LWPOLYLINE
5
191
100
AcDbEntity
8
SILKSCREEN_TOP
62
4
100
AcDbPolyline
90
2
70
0
43
8.000000
39
8.000000
10
583.521772
20
3557.552559
10
582.850118
20
3557.830787
0
LWPOLYLINE
5
192
100
AcDbEntity
8
SILKSCREEN_TOP
62
4
100
AcDbPolyline
90
2
70
0
43
8.000000
39
8.000000
10
582.850118
20
3557.830787
10
582.156772
20
3558.049370
0
LWPOLYLINE
5
193
100
AcDbEntity
8
SILKSCREEN_TOP
62
4
100
AcDbPolyline
90
2
70
0
43
8.000000
39
8.000000
10
582.156772
20
3558.049370
10
581.447008
20
3558.206732
0
LWPOLYLINE
5
194
100
AcDbEntity
8
SILKSCREEN_TOP
62
4
100
AcDbPolyline
90
2
70
0
43
8.000000
39
8.000000
10
581.447008
20
3558.206732
10
580.726220
20
3558.301614
0
LWPOLYLINE
5
195
100
AcDbEntity
8
SILKSCREEN_TOP
62
4
100
AcDbPolyline
90
2
70
0
43
8.000000
39
8.000000
10
580.726220
20
3558.301614
10
579.999961
20
3558.333307
0
LWPOLYLINE
5
196
100
AcDbEntity
8
SILKSCREEN_TOP
62
4
100
AcDbPolyline
90
2
70
0
43
8.000000
39
8.000000
10
579.999961
20
3558.333307
10
579.273661
20
3558.301614
0
LWPOLYLINE
5
197
100
AcDbEntity
8
SILKSCREEN_TOP
62
4
100
AcDbPolyline
90
2
70
0
43
8.000000
39
8.000000
10
579.273661
20
3558.301614
10
578.552874
20
3558.206732
0
LWPOLYLINE
5
198
100
AcDbEntity
8
SILKSCREEN_TOP
62
4
100
AcDbPolyline
90
2
70
0
43
8.000000
39
8.000000
10
578.552874
20
3558.206732
10
577.843110
20
3558.049370
0
LWPOLYLINE
5
199
100
AcDbEntity
8
SILKSCREEN_TOP
62
4
100
AcDbPolyline
90
2
70
0
43
8.000000
39
8.000000
10
577.843110
20
3558.049370
10
577.149764
20
3557.830748
0
LWPOLYLINE
5
19A
100
AcDbEntity
8
SILKSCREEN_TOP
62
4
100
AcDbPolyline
90
2
70
0
43
8.000000
39
8.000000
10
577.149764
20
3557.830748
10
576.478110
20
3557.552559
0
LWPOLYLINE
5
19B
100
AcDbEntity
8
SILKSCREEN_TOP
62
4
100
AcDbPolyline
90
2
70
0
43
8.000000
39
8.000000
10
576.478110
20
3557.552559
10
575.833268
20
3557.216850
0
LWPOLYLINE
5
19C
100
AcDbEntity
8
SILKSCREEN_TOP
62
4
100
AcDbPolyline
90
2
70
0
43
8.000000
39
8.000000
10
575.833268
20
3557.216850
10
575.220118
20
3556.826220
0
LWPOLYLINE
5
19D
100
AcDbEntity
8
SILKSCREEN_TOP
62
4
100
AcDbPolyline
90
2
70
0
43
8.000000
39
8.000000
10
575.220118
20
3556.826220
10
574.643386
20
3556.383661
0
LWPOLYLINE
5
19E
100
AcDbEntity
8
SILKSCREEN_TOP
62
4
100
AcDbPolyline
90
2
70
0
43
8.000000
39
8.000000
10
574.643386
20
3556.383661
10
574.107402
20
3555.892520
0
LWPOLYLINE
5
19F
100
AcDbEntity
8
SILKSCREEN_TOP
62
4
100
AcDbPolyline
90
2
70
0
43
8.000000
39
8.000000
10
574.107402
20
3555.892520
10
573.616260
20
3555.356535
0
LWPOLYLINE
5
1A0
100
AcDbEntity
8
SILKSCREEN_TOP
62
4
100
AcDbPolyline
90
2
70
0
43
8.000000
39
8.000000
10
573.616260
20
3555.356535
10
573.173661
20
3554.779764
0
LWPOLYLINE
5
1A1
100
AcDbEntity
8
SILKSCREEN_TOP
62
4
100
AcDbPolyline
90
2
70
0
43
8.000000
39
8.000000
10
573.173661
20
3554.779764
10
572.783071
20
3554.166614
0
LWPOLYLINE
5
1A2
100
AcDbEntity
8
SILKSCREEN_TOP
62
4
100
AcDbPolyline
90
2
70
0
43
8.000000
39
8.000000
10
572.783071
20
3554.166614
10
572.447402
20
3553.521772
0
LWPOLYLINE
5
1A3
100
AcDbEntity
8
SILKSCREEN_TOP
62
4
100
AcDbPolyline
90
2
70
0
43
8.000000
39
8.000000
10
572.447402
20
3553.521772
10
572.169173
20
3552.850118
0
LWPOLYLINE
5
1A4
100
AcDbEntity
8
SILKSCREEN_TOP
62
4
100
AcDbPolyline
90
2
70
0
43
8.000000
39
8.000000
10
572.169173
20
3552.850118
10
571.950591
20
3552.156772
0
LWPOLYLINE
5
1A5
100
AcDbEntity
8
SILKSCREEN_TOP
62
4
100
AcDbPolyline
90
2
70
0
43
8.000000
39
8.000000
10
571.950591
20
3552.156772
10
571.793228
20
3551.447008
0
LWPOLYLINE
5
1A6
100
AcDbEntity
8
SILKSCREEN_TOP
62
4
100
AcDbPolyline
90
2
70
0
43
8.000000
39
8.000000
10
571.793228
20
3551.447008
10
571.698346
20
3550.726220
0
LWPOLYLINE
5
1A7
100
AcDbEntity
8
SILKSCREEN_TOP
62
4
100
AcDbPolyline
90
2
70
0
43
8.000000
39
8.000000
10
571.698346
20
3550.726220
10
571.666654
20
3550.000039
0
LWPOLYLINE
5
1A8
100
AcDbEntity
8
SILKSCREEN_TOP
62
4
100
AcDbPolyline
90
2
70
0
43
8.000000
39
8.000000
10
688.333386
20
3525.000000
10
688.333307
20
3550.000000
0
TEXT
5
1A9
100
AcDbEntity
8
SILKSCREEN_TOP
100
AcDbText
39
8.000000
10
850.833346
20
3610.000000
30
0.0
40
27.777769
1
LED2
41
1.866667
7
MONOTxtStyle
50
90.000000
72
1
11
850.833346
21
3610.000000
31
0.0
100
AcDbText
73
2
0
LWPOLYLINE
5
1AA
100
AcDbEntity
8
SILKSCREEN_TOP
62
4
100
AcDbPolyline
90
2
70
0
43
8.000000
39
8.000000
10
619.482283
20
2464.000827
10
614.627402
20
2457.194528
0
LWPOLYLINE
5
1AB
100
AcDbEntity
8
SILKSCREEN_TOP
62
4
100
AcDbPolyline
90
2
70
0
43
8.000000
39
8.000000
10
614.627402
20
2457.194528
10
610.384173
20
2449.990984
0
LWPOLYLINE
5
1AC
100
AcDbEntity
8
SILKSCREEN_TOP
62
4
100
AcDbPolyline
90
2
70
0
43
8.000000
39
8.000000
10
610.384173
20
2449.990984
10
606.784961
20
2442.445000
0
LWPOLYLINE
5
1AD
100
AcDbEntity
8
SILKSCREEN_TOP
62
4
100
AcDbPolyline
90
2
70
0
43
8.000000
39
8.000000
10
606.784961
20
2442.445000
10
603.857087
20
2434.614055
0
LWPOLYLINE
5
1AE
100
AcDbEntity
8
SILKSCREEN_TOP
62
4
100
AcDbPolyline
90
2
70
0
43
8.000000
39
8.000000
10
603.857087
20
2434.614055
10
601.622874
20
2426.557756
0
LWPOLYLINE
5
1AF
100
AcDbEntity
8
SILKSCREEN_TOP
62
4
100
AcDbPolyline
90
2
70
0
43
8.000000
39
8.000000
10
601.622874
20
2426.557756
10
600.099331
20
2418.337362
0
LWPOLYLINE
5
1B0
100
AcDbEntity
8
SILKSCREEN_TOP
62
4
100
AcDbPolyline
90
2
70
0
43
8.000000
39
8.000000
10
600.099331
20
2418.337362
10
599.297992
20
2410.015472
0
LWPOLYLINE
5
1B1
100
AcDbEntity
8
SILKSCREEN_TOP
62
4
100
AcDbPolyline
90
2
70
0
43
8.000000
39
8.000000
10
599.297992
20
2410.015472
10
599.225039
20
2401.655433
0
LWPOLYLINE
5
1B2
100
AcDbEntity
8
SILKSCREEN_TOP
62
4
100
AcDbPolyline
90
2
70
0
43
8.000000
39
8.000000
10
599.225039
20
2401.655433
10
599.881024
20
2393.320787
0
LWPOLYLINE
5
1B3
100
AcDbEntity
8
SILKSCREEN_TOP
62
4
100
AcDbPolyline
90
2
70
0
43
8.000000
39
8.000000
10
599.881024
20
2393.320787
10
601.260866
20
2385.075079
0
LWPOLYLINE
5
1B4
100
AcDbEntity
8
SILKSCREEN_TOP
62
4
100
AcDbPolyline
90
2
70
0
43
8.000000
39
8.000000
10
601.260866
20
2385.075079
10
603.354134
20
2376.980984
0
LWPOLYLINE
5
1B5
100
AcDbEntity
8
SILKSCREEN_TOP
62
4
100
AcDbPolyline
90
2
70
0
43
8.000000
39
8.000000
10
603.354134
20
2376.980984
10
606.144882
20
2369.100157
0
LWPOLYLINE
5
1B6
100
AcDbEntity
8
SILKSCREEN_TOP
62
4
100
AcDbPolyline
90
2
70
0
43
8.000000
39
8.000000
10
606.144882
20
2369.100157
10
609.611890
20
2361.492559
0
LWPOLYLINE
5
1B7
100
AcDbEntity
8
SILKSCREEN_TOP
62
4
100
AcDbPolyline
90
2
70
0
43
8.000000
39
8.000000
10
609.611890
20
2361.492559
10
613.728740
20
2354.216024
0
LWPOLYLINE
5
1B8
100
AcDbEntity
8
SILKSCREEN_TOP
62
4
100
AcDbPolyline
90
2
70
0
43
8.000000
39
8.000000
10
613.728740
20
2354.216024
10
618.464134
20
2347.326024
0
LWPOLYLINE
5
1B9
100
AcDbEntity
8
SILKSCREEN_TOP
62
4
100
AcDbPolyline
90
2
70
0
43
8.000000
39
8.000000
10
618.464134
20
2347.326024
10
623.781969
20
2340.874961
0
LWPOLYLINE
5
1BA
100
AcDbEntity
8
SILKSCREEN_TOP
62
4
100
AcDbPolyline
90
2
70
0
43
8.000000
39
8.000000
10
623.781969
20
2340.874961
10
629.641850
20
2334.911929
0
LWPOLYLINE
5
1BB
100
AcDbEntity
8
SILKSCREEN_TOP
62
4
100
AcDbPolyline
90
2
70
0
43
8.000000
39
8.000000
10
629.641850
20
2334.911929
10
635.999134
20
2329.482283
0
LWPOLYLINE
5
1BC
100
AcDbEntity
8
SILKSCREEN_TOP
62
4
100
AcDbPolyline
90
2
70
0
43
8.000000
39
8.000000
10
635.999134
20
2329.482283
10
642.805433
20
2324.627402
0
LWPOLYLINE
5
1BD
100
AcDbEntity
8
SILKSCREEN_TOP
62
4
100
AcDbPolyline
90
2
70
0
43
8.000000
39
8.000000
10
642.805433
20
2324.627402
10
650.008976
20
2320.384173
0
LWPOLYLINE
5
1BE
100
AcDbEntity
8
SILKSCREEN_TOP
62
4
100
AcDbPolyline
90
2
70
0
43
8.000000
39
8.000000
10
650.008976
20
2320.384173
10
657.554961
20
2316.784961
0
LWPOLYLINE
5
1BF
100
AcDbEntity
8
SILKSCREEN_TOP
62
4
100
AcDbPolyline
90
2
70
0
43
8.000000
39
8.000000
10
657.554961
20
2316.784961
10
665.385906
20
2313.857087
0
LWPOLYLINE
5
1C0
100
AcDbEntity
8
SILKSCREEN_TOP
62
4
100
AcDbPolyline
90
2
70
0
43
8.000000
39
8.000000
10
665.385906
20
2313.857087
10
673.442205
20
2311.622874
0
LWPOLYLINE
5
1C1
100
AcDbEntity
8
SILKSCREEN_TOP
62
4
100
AcDbPolyline
90
2
70
0
43
8.000000
39
8.000000
10
673.442205
20
2311.622874
10
681.662598
20
2310.099331
0
LWPOLYLINE
5
1C2
100
AcDbEntity
8
SILKSCREEN_TOP
62
4
100
AcDbPolyline
90
2
70
0
43
8.000000
39
8.000000
10
681.662598
20
2310.099331
10
689.984488
20
2309.297992
0
LWPOLYLINE
5
1C3
100
AcDbEntity
8
SILKSCREEN_TOP
62
4
100
AcDbPolyline
90
2
70
0
43
8.000000
39
8.000000
10
689.984488
20
2309.297992
10
698.344528
20
2309.225039
0
LWPOLYLINE
5
1C4
100
AcDbEntity
8
SILKSCREEN_TOP
62
4
100
AcDbPolyline
90
2
70
0
43
8.000000
39
8.000000
10
698.344528
20
2309.225039
10
706.679173
20
2309.881024
0
LWPOLYLINE
5
1C5
100
AcDbEntity
8
SILKSCREEN_TOP
62
4
100
AcDbPolyline
90
2
70
0
43
8.000000
39
8.000000
10
706.679173
20
2309.881024
10
714.924882
20
2311.260866
0
LWPOLYLINE
5
1C6
100
AcDbEntity
8
SILKSCREEN_TOP
62
4
100
AcDbPolyline
90
2
70
0
43
8.000000
39
8.000000
10
714.924882
20
2311.260866
10
723.018976
20
2313.354134
0
LWPOLYLINE
5
1C7
100
AcDbEntity
8
SILKSCREEN_TOP
62
4
100
AcDbPolyline
90
2
70
0
43
8.000000
39
8.000000
10
723.018976
20
2313.354134
10
730.899803
20
2316.144882
0
LWPOLYLINE
5
1C8
100
AcDbEntity
8
SILKSCREEN_TOP
62
4
100
AcDbPolyline
90
2
70
0
43
8.000000
39
8.000000
10
730.899803
20
2316.144882
10
738.507402
20
2319.611890
0
LWPOLYLINE
5
1C9
100
AcDbEntity
8
SILKSCREEN_TOP
62
4
100
AcDbPolyline
90
2
70
0
43
8.000000
39
8.000000
10
738.507402
20
2319.611890
10
745.783937
20
2323.728740
0
LWPOLYLINE
5
1CA
100
AcDbEntity
8
SILKSCREEN_TOP
62
4
100
AcDbPolyline
90
2
70
0
43
8.000000
39
8.000000
10
745.783937
20
2323.728740
10
752.673937
20
2328.464134
0
LWPOLYLINE
5
1CB
100
AcDbEntity
8
SILKSCREEN_TOP
62
4
100
AcDbPolyline
90
2
70
0
43
8.000000
39
8.000000
10
752.673937
20
2328.464134
10
759.125000
20
2333.781969
0
LWPOLYLINE
5
1CC
100
AcDbEntity
8
SILKSCREEN_TOP
62
4
100
AcDbPolyline
90
2
70
0
43
8.000000
39
8.000000
10
759.125000
20
2333.781969
10
765.088031
20
2339.641850
0
LWPOLYLINE
5
1CD
100
AcDbEntity
8
SILKSCREEN_TOP
62
4
100
AcDbPolyline
90
2
70
0
43
8.000000
39
8.000000
10
765.088031
20
2339.641850
10
770.517677
20
2345.999134
0
LWPOLYLINE
5
1CE
100
AcDbEntity
8
SILKSCREEN_TOP
62
4
100
AcDbPolyline
90
2
70
0
43
8.000000
39
8.000000
10
770.517677
20
2345.999134
10
775.372559
20
2352.805433
0
LWPOLYLINE
5
1CF
100
AcDbEntity
8
SILKSCREEN_TOP
62
4
100
AcDbPolyline
90
2
70
0
43
8.000000
39
8.000000
10
775.372559
20
2352.805433
10
779.615787
20
2360.008976
0
LWPOLYLINE
5
1D0
100
AcDbEntity
8
SILKSCREEN_TOP
62
4
100
AcDbPolyline
90
2
70
0
43
8.000000
39
8.000000
10
779.615787
20
2360.008976
10
783.215000
20
2367.554961
0
LWPOLYLINE
5
1D1
100
AcDbEntity
8
SILKSCREEN_TOP
62
4
100
AcDbPolyline
90
2
70
0
43
8.000000
39
8.000000
10
783.215000
20
2367.554961
10
786.142874
20
2375.385906
0
LWPOLYLINE
5
1D2
100
AcDbEntity
8
SILKSCREEN_TOP
62
4
100
AcDbPolyline
90
2
70
0
43
8.000000
39
8.000000
10
786.142874
20
2375.385906
10
788.377087
20
2383.442205
0
LWPOLYLINE
5
1D3
100
AcDbEntity
8
SILKSCREEN_TOP
62
4
100
AcDbPolyline
90
2
70
0
43
8.000000
39
8.000000
10
788.377087
20
2383.442205
10
789.900630
20
2391.662598
0
LWPOLYLINE
5
1D4
100
AcDbEntity
8
SILKSCREEN_TOP
62
4
100
AcDbPolyline
90
2
70
0
43
8.000000
39
8.000000
10
789.900630
20
2391.662598
10
790.701969
20
2399.984488
0
LWPOLYLINE
5
1D5
100
AcDbEntity
8
SILKSCREEN_TOP
62
4
100
AcDbPolyline
90
2
70
0
43
8.000000
39
8.000000
10
790.701969
20
2399.984488
10
790.774921
20
2408.344528
0
LWPOLYLINE
5
1D6
100
AcDbEntity
8
SILKSCREEN_TOP
62
4
100
AcDbPolyline
90
2
70
0
43
8.000000
39
8.000000
10
790.774921
20
2408.344528
10
790.118937
20
2416.679173
0
LWPOLYLINE
5
1D7
100
AcDbEntity
8
SILKSCREEN_TOP
62
4
100
AcDbPolyline
90
2
70
0
43
8.000000
39
8.000000
10
790.118937
20
2416.679173
10
788.739094
20
2424.924882
0
LWPOLYLINE
5
1D8
100
AcDbEntity
8
SILKSCREEN_TOP
62
4
100
AcDbPolyline
90
2
70
0
43
8.000000
39
8.000000
10
788.739094
20
2424.924882
10
786.645827
20
2433.018976
0
LWPOLYLINE
5
1D9
100
AcDbEntity
8
SILKSCREEN_TOP
62
4
100
AcDbPolyline
90
2
70
0
43
8.000000
39
8.000000
10
786.645827
20
2433.018976
10
783.855079
20
2440.899803
0
LWPOLYLINE
5
1DA
100
AcDbEntity
8
SILKSCREEN_TOP
62
4
100
AcDbPolyline
90
2
70
0
43
8.000000
39
8.000000
10
783.855079
20
2440.899803
10
780.388071
20
2448.507402
0
LWPOLYLINE
5
1DB
100
AcDbEntity
8
SILKSCREEN_TOP
62
4
100
AcDbPolyline
90
2
70
0
43
8.000000
39
8.000000
10
780.388071
20
2448.507402
10
776.271220
20
2455.783937
0
LWPOLYLINE
5
1DC
100
AcDbEntity
8
SILKSCREEN_TOP
62
4
100
AcDbPolyline
90
2
70
0
43
8.000000
39
8.000000
10
776.271220
20
2455.783937
10
771.535827
20
2462.673937
0
LWPOLYLINE
5
1DD
100
AcDbEntity
8
SILKSCREEN_TOP
62
4
100
AcDbPolyline
90
2
70
0
43
8.000000
39
8.000000
10
771.535827
20
2462.673937
10
770.517677
20
2464.000827
0
LWPOLYLINE
5
1DE
100
AcDbEntity
8
SILKSCREEN_TOP
62
4
100
AcDbPolyline
90
2
70
0
43
8.000000
39
8.000000
10
715.000000
20
2485.000000
10
775.000000
20
2485.000000
0
LWPOLYLINE
5
1DF
100
AcDbEntity
8
SILKSCREEN_TOP
62
4
100
AcDbPolyline
90
2
70
0
43
8.000000
39
8.000000
10
620.000000
20
2465.000000
10
770.000000
20
2465.000000
0
LWPOLYLINE
5
1E0
100
AcDbEntity
8
SILKSCREEN_TOP
62
4
100
AcDbPolyline
90
2
70
0
43
8.000000
39
8.000000
10
615.000000
20
2495.000000
10
625.000000
20
2505.000000
0
LWPOLYLINE
5
1E1
100
AcDbEntity
8
SILKSCREEN_TOP
62
4
100
AcDbPolyline
90
2
70
0
43
8.000000
39
8.000000
10
615.000000
20
2485.000000
10
615.000000
20
2495.000000
0
LWPOLYLINE
5
1E2
100
AcDbEntity
8
SILKSCREEN_TOP
62
4
100
AcDbPolyline
90
2
70
0
43
8.000000
39
8.000000
10
625.000000
20
2475.000000
10
615.000000
20
2485.000000
0
LWPOLYLINE
5
1E3
100
AcDbEntity
8
SILKSCREEN_TOP
62
4
100
AcDbPolyline
90
2
70
0
43
8.000000
39
8.000000
10
655.000000
20
2475.000000
10
645.000000
20
2485.000000
0
LWPOLYLINE
5
1E4
100
AcDbEntity
8
SILKSCREEN_TOP
62
4
100
AcDbPolyline
90
2
70
0
43
8.000000
39
8.000000
10
665.000000
20
2475.000000
10
655.000000
20
2475.000000
0
LWPOLYLINE
5
1E5
100
AcDbEntity
8
SILKSCREEN_TOP
62
4
100
AcDbPolyline
90
2
70
0
43
8.000000
39
8.000000
10
645.000000
20
2485.000000
10
645.000000
20
2495.000000
0
LWPOLYLINE
5
1E6
100
AcDbEntity
8
SILKSCREEN_TOP
62
4
100
AcDbPolyline
90
2
70
0
43
8.000000
39
8.000000
10
645.000000
20
2485.000000
10
635.000000
20
2475.000000
0
LWPOLYLINE
5
1E7
100
AcDbEntity
8
SILKSCREEN_TOP
62
4
100
AcDbPolyline
90
2
70
0
43
8.000000
39
8.000000
10
635.000000
20
2475.000000
10
625.000000
20
2475.000000
0
LWPOLYLINE
5
1E8
100
AcDbEntity
8
SILKSCREEN_TOP
62
4
100
AcDbPolyline
90
2
70
0
43
8.000000
39
8.000000
10
675.000000
20
2495.000000
10
675.000000
20
2485.000000
0
LWPOLYLINE
5
1E9
100
AcDbEntity
8
SILKSCREEN_TOP
62
4
100
AcDbPolyline
90
2
70
0
43
8.000000
39
8.000000
10
665.000000
20
2505.000000
10
675.000000
20
2495.000000
0
LWPOLYLINE
5
1EA
100
AcDbEntity
8
SILKSCREEN_TOP
62
4
100
AcDbPolyline
90
2
70
0
43
8.000000
39
8.000000
10
675.000000
20
2485.000000
10
665.000000
20
2475.000000
0
LWPOLYLINE
5
1EB
100
AcDbEntity
8
SILKSCREEN_TOP
62
4
100
AcDbPolyline
90
2
70
0
43
8.000000
39
8.000000
10
715.000000
20
2475.000000
10
715.000000
20
2495.000000
0
LWPOLYLINE
5
1EC
100
AcDbEntity
8
SILKSCREEN_TOP
62
4
100
AcDbPolyline
90
2
70
0
43
8.000000
39
8.000000
10
775.000000
20
2485.000000
10
765.000000
20
2495.000000
0
LWPOLYLINE
5
1ED
100
AcDbEntity
8
SILKSCREEN_TOP
62
4
100
AcDbPolyline
90
2
70
0
43
8.000000
39
8.000000
10
705.000000
20
2275.000000
10
675.000000
20
2305.000000
0
LWPOLYLINE
5
1EE
100
AcDbEntity
8
SILKSCREEN_TOP
62
4
100
AcDbPolyline
90
2
70
0
43
8.000000
39
8.000000
10
665.000000
20
2305.000000
10
665.000000
20
2275.000000
0
LWPOLYLINE
5
1EF
100
AcDbEntity
8
SILKSCREEN_TOP
62
4
100
AcDbPolyline
90
2
70
0
43
8.000000
39
8.000000
10
725.000000
20
2285.000000
10
715.000000
20
2275.000000
0
LWPOLYLINE
5
1F0
100
AcDbEntity
8
SILKSCREEN_TOP
62
4
100
AcDbPolyline
90
2
70
0
43
8.000000
39
8.000000
10
725.000000
20
2295.000000
10
725.000000
20
2285.000000
0
LWPOLYLINE
5
1F1
100
AcDbEntity
8
SILKSCREEN_TOP
62
4
100
AcDbPolyline
90
2
70
0
43
8.000000
39
8.000000
10
675.000000
20
2305.000000
10
665.000000
20
2305.000000
0
LWPOLYLINE
5
1F2
100
AcDbEntity
8
SILKSCREEN_TOP
62
4
100
AcDbPolyline
90
2
70
0
43
8.000000
39
8.000000
10
715.000000
20
2304.999921
10
725.000000
20
2295.000000
0
LWPOLYLINE
5
1F3
100
AcDbEntity
8
SILKSCREEN_TOP
62
4
100
AcDbPolyline
90
2
70
0
43
8.000000
39
8.000000
10
715.000000
20
2275.000000
10
705.000000
20
2275.000000
0
TEXT
5
1F4
100
AcDbEntity
8
SILKSCREEN_TOP
100
AcDbText
39
8.000000
10
565.000000
20
2405.000000
30
0.0
40
27.777769
1
Q2
41
1.866667
7
MONOTxtStyle
50
270.000000
72
1
11
565.000000
21
2405.000000
31
0.0
100
AcDbText
73
2
0
LWPOLYLINE
5
1F5
100
AcDbEntity
8
SILKSCREEN_TOP
62
4
100
AcDbPolyline
90
2
70
0
43
8.000000
39
8.000000
10
1907.250669
20
3682.119764
10
1897.751969
20
3695.436496
0
LWPOLYLINE
5
1F6
100
AcDbEntity
8
SILKSCREEN_TOP
62
4
100
AcDbPolyline
90
2
70
0
43
8.000000
39
8.000000
10
1897.751969
20
3695.436496
10
1887.128780
20
3707.874646
0
LWPOLYLINE
5
1F7
100
AcDbEntity
8
SILKSCREEN_TOP
62
4
100
AcDbPolyline
90
2
70
0
43
8.000000
39
8.000000
10
1887.128780
20
3707.874646
10
1875.461929
20
3719.339606
0
LWPOLYLINE
5
1F8
100
AcDbEntity
8
SILKSCREEN_TOP
62
4
100
AcDbPolyline
90
2
70
0
43
8.000000
39
8.000000
10
1875.461929
20
3719.339606
10
1862.840276
20
3729.744094
0
LWPOLYLINE
5
1F9
100
AcDbEntity
8
SILKSCREEN_TOP
62
4
100
AcDbPolyline
90
2
70
0
43
8.000000
39
8.000000
10
1862.840276
20
3729.744094
10
1849.359803
20
3739.008976
0
LWPOLYLINE
5
1FA
100
AcDbEntity
8
SILKSCREEN_TOP
62
4
100
AcDbPolyline
90
2
70
0
43
8.000000
39
8.000000
10
1849.359803
20
3739.008976
10
1835.123189
20
3747.063661
0
LWPOLYLINE
5
1FB
100
AcDbEntity
8
SILKSCREEN_TOP
62
4
100
AcDbPolyline
90
2
70
0
43
8.000000
39
8.000000
10
1835.123189
20
3747.063661
10
1820.238701
20
3753.846929
0
LWPOLYLINE
5
1FC
100
AcDbEntity
8
SILKSCREEN_TOP
62
4
100
AcDbPolyline
90
2
70
0
43
8.000000
39
8.000000
10
1820.238701
20
3753.846929
10
1804.819646
20
3759.307087
0
LWPOLYLINE
5
1FD
100
AcDbEntity
8
SILKSCREEN_TOP
62
4
100
AcDbPolyline
90
2
70
0
43
8.000000
39
8.000000
10
1804.819646
20
3759.307087
10
1788.983425
20
3763.402598
0
LWPOLYLINE
5
1FE
100
AcDbEntity
8
SILKSCREEN_TOP
62
4
100
AcDbPolyline
90
2
70
0
43
8.000000
39
8.000000
10
1788.983425
20
3763.402598
10
1772.850472
20
3766.102362
0
LWPOLYLINE
5
1FF
100
AcDbEntity
8
SILKSCREEN_TOP
62
4
100
AcDbPolyline
90
2
70
0
43
8.000000
39
8.000000
10
1772.850472
20
3766.102362
10
1756.543622
20
3767.385709
0
LWPOLYLINE
5
200
100
AcDbEntity
8
SILKSCREEN_TOP
62
4
100
AcDbPolyline
90
2
70
0
43
8.000000
39
8.000000
10
1756.543622
20
3767.385709
10
1740.187008
20
3767.242992
0
LWPOLYLINE
5
201
100
AcDbEntity
8
SILKSCREEN_TOP
62
4
100
AcDbPolyline
90
2
70
0
43
8.000000
39
8.000000
10
1740.187008
20
3767.242992
10
1723.905039
20
3765.675197
0
LWPOLYLINE
5
202
100
AcDbEntity
8
SILKSCREEN_TOP
62
4
100
AcDbPolyline
90
2
70
0
43
8.000000
39
8.000000
10
1723.905039
20
3765.675197
10
1707.821654
20
3762.694331
0
LWPOLYLINE
5
203
100
AcDbEntity
8
SILKSCREEN_TOP
62
4
100
AcDbPolyline
90
2
70
0
43
8.000000
39
8.000000
10
1707.821654
20
3762.694331
10
1692.059291
20
3758.323031
0
LWPOLYLINE
5
204
100
AcDbEntity
8
SILKSCREEN_TOP
62
4
100
AcDbPolyline
90
2
70
0
43
8.000000
39
8.000000
10
1692.059291
20
3758.323031
10
1676.737913
20
3752.594606
0
LWPOLYLINE
5
205
100
AcDbEntity
8
SILKSCREEN_TOP
62
4
100
AcDbPolyline
90
2
70
0
43
8.000000
39
8.000000
10
1676.737913
20
3752.594606
10
1661.974094
20
3745.552638
0
LWPOLYLINE
5
206
100
AcDbEntity
8
SILKSCREEN_TOP
62
4
100
AcDbPolyline
90
2
70
0
43
8.000000
39
8.000000
10
1661.974094
20
3745.552638
10
1647.880197
20
3737.250669
0
LWPOLYLINE
5
207
100
AcDbEntity
8
SILKSCREEN_TOP
62
4
100
AcDbPolyline
90
2
70
0
43
8.000000
39
8.000000
10
1647.880197
20
3737.250669
10
1634.563465
20
3727.751969
0
LWPOLYLINE
5
208
100
AcDbEntity
8
SILKSCREEN_TOP
62
4
100
AcDbPolyline
90
2
70
0
43
8.000000
39
8.000000
10
1634.563465
20
3727.751969
10
1622.125315
20
3717.128780
0
LWPOLYLINE
5
209
100
AcDbEntity
8
SILKSCREEN_TOP
62
4
100
AcDbPolyline
90
2
70
0
43
8.000000
39
8.000000
10
1622.125315
20
3717.128780
10
1610.660354
20
3705.461929
0
LWPOLYLINE
5
20A
100
AcDbEntity
8
SILKSCREEN_TOP
62
4
100
AcDbPolyline
90
2
70
0
43
8.000000
39
8.000000
10
1610.660354
20
3705.461929
10
1600.255866
20
3692.840276
0
LWPOLYLINE
5
20B
100
AcDbEntity
8
SILKSCREEN_TOP
62
4
100
AcDbPolyline
90
2
70
0
43
8.000000
39
8.000000
10
1600.255866
20
3692.840276
10
1590.990984
20
3679.359803
0
LWPOLYLINE
5
20C
100
AcDbEntity
8
SILKSCREEN_TOP
62
4
100
AcDbPolyline
90
2
70
0
43
8.000000
39
8.000000
10
1590.990984
20
3679.359803
10
1582.936299
20
3665.123189
0
LWPOLYLINE
5
20D
100
AcDbEntity
8
SILKSCREEN_TOP
62
4
100
AcDbPolyline
90
2
70
0
43
8.000000
39
8.000000
10
1582.936299
20
3665.123189
10
1576.153031
20
3650.238701
0
LWPOLYLINE
5
20E
100
AcDbEntity
8
SILKSCREEN_TOP
62
4
100
AcDbPolyline
90
2
70
0
43
8.000000
39
8.000000
10
1576.153031
20
3650.238701
10
1570.692874
20
3634.819646
0
LWPOLYLINE
5
20F
100
AcDbEntity
8
SILKSCREEN_TOP
62
4
100
AcDbPolyline
90
2
70
0
43
8.000000
39
8.000000
10
1570.692874
20
3634.819646
10
1566.597362
20
3618.983425
0
LWPOLYLINE
5
210
100
AcDbEntity
8
SILKSCREEN_TOP
62
4
100
AcDbPolyline
90
2
70
0
43
8.000000
39
8.000000
10
1566.597362
20
3618.983425
10
1563.897598
20
3602.850472
0
LWPOLYLINE
5
211
100
AcDbEntity
8
SILKSCREEN_TOP
62
4
100
AcDbPolyline
90
2
70
0
43
8.000000
39
8.000000
10
1563.897598
20
3602.850472
10
1562.614252
20
3586.543622
0
LWPOLYLINE
5
212
100
AcDbEntity
8
SILKSCREEN_TOP
62
4
100
AcDbPolyline
90
2
70
0
43
8.000000
39
8.000000
10
1562.614252
20
3586.543622
10
1562.756969
20
3570.187008
0
LWPOLYLINE
5
213
100
AcDbEntity
8
SILKSCREEN_TOP
62
4
100
AcDbPolyline
90
2
70
0
43
8.000000
39
8.000000
10
1562.756969
20
3570.187008
10
1564.324764
20
3553.905039
0
LWPOLYLINE
5
214
100
AcDbEntity
8
SILKSCREEN_TOP
62
4
100
AcDbPolyline
90
2
70
0
43
8.000000
39
8.000000
10
1564.324764
20
3553.905039
10
1567.305630
20
3537.821654
0
LWPOLYLINE
5
215
100
AcDbEntity
8
SILKSCREEN_TOP
62
4
100
AcDbPolyline
90
2
70
0
43
8.000000
39
8.000000
10
1567.305630
20
3537.821654
10
1571.676929
20
3522.059291
0
LWPOLYLINE
5
216
100
AcDbEntity
8
SILKSCREEN_TOP
62
4
100
AcDbPolyline
90
2
70
0
43
8.000000
39
8.000000
10
1571.676929
20
3522.059291
10
1577.405354
20
3506.737913
0
LWPOLYLINE
5
217
100
AcDbEntity
8
SILKSCREEN_TOP
62
4
100
AcDbPolyline
90
2
70
0
43
8.000000
39
8.000000
10
1577.405354
20
3506.737913
10
1584.447323
20
3491.974094
0
LWPOLYLINE
5
218
100
AcDbEntity
8
SILKSCREEN_TOP
62
4
100
AcDbPolyline
90
2
70
0
43
8.000000
39
8.000000
10
1584.447323
20
3491.974094
10
1592.749291
20
3477.880197
0
LWPOLYLINE
5
219
100
AcDbEntity
8
SILKSCREEN_TOP
62
4
100
AcDbPolyline
90
2
70
0
43
8.000000
39
8.000000
10
1592.749291
20
3477.880197
10
1602.247992
20
3464.563465
0
LWPOLYLINE
5
21A
100
AcDbEntity
8
SILKSCREEN_TOP
62
4
100
AcDbPolyline
90
2
70
0
43
8.000000
39
8.000000
10
1602.247992
20
3464.563465
10
1612.871181
20
3452.125315
0
LWPOLYLINE
5
21B
100
AcDbEntity
8
SILKSCREEN_TOP
62
4
100
AcDbPolyline
90
2
70
0
43
8.000000
39
8.000000
10
1612.871181
20
3452.125315
10
1624.538031
20
3440.660354
0
LWPOLYLINE
5
21C
100
AcDbEntity
8
SILKSCREEN_TOP
62
4
100
AcDbPolyline
90
2
70
0
43
8.000000
39
8.000000
10
1624.538031
20
3440.660354
10
1637.159685
20
3430.255866
0
LWPOLYLINE
5
21D
100
AcDbEntity
8
SILKSCREEN_TOP
62
4
100
AcDbPolyline
90
2
70
0
43
8.000000
39
8.000000
10
1637.159685
20
3430.255866
10
1650.640157
20
3420.990984
0
LWPOLYLINE
5
21E
100
AcDbEntity
8
SILKSCREEN_TOP
62
4
100
AcDbPolyline
90
2
70
0
43
8.000000
39
8.000000
10
1650.640157
20
3420.990984
10
1664.876772
20
3412.936299
0
LWPOLYLINE
5
21F
100
AcDbEntity
8
SILKSCREEN_TOP
62
4
100
AcDbPolyline
90
2
70
0
43
8.000000
39
8.000000
10
1664.876772
20
3412.936299
10
1679.761260
20
3406.153031
0
LWPOLYLINE
5
220
100
AcDbEntity
8
SILKSCREEN_TOP
62
4
100
AcDbPolyline
90
2
70
0
43
8.000000
39
8.000000
10
1679.761260
20
3406.153031
10
1695.180315
20
3400.692874
0
LWPOLYLINE
5
221
100
AcDbEntity
8
SILKSCREEN_TOP
62
4
100
AcDbPolyline
90
2
70
0
43
8.000000
39
8.000000
10
1695.180315
20
3400.692874
10
1711.016535
20
3396.597362
0
LWPOLYLINE
5
222
100
AcDbEntity
8
SILKSCREEN_TOP
62
4
100
AcDbPolyline
90
2
70
0
43
8.000000
39
8.000000
10
1711.016535
20
3396.597362
10
1727.149488
20
3393.897598
0
LWPOLYLINE
5
223
100
AcDbEntity
8
SILKSCREEN_TOP
62
4
100
AcDbPolyline
90
2
70
0
43
8.000000
39
8.000000
10
1727.149488
20
3393.897598
10
1743.456339
20
3392.614252
0
LWPOLYLINE
5
224
100
AcDbEntity
8
SILKSCREEN_TOP
62
4
100
AcDbPolyline
90
2
70
0
43
8.000000
39
8.000000
10
1743.456339
20
3392.614252
10
1759.812953
20
3392.756969
0
LWPOLYLINE
5
225
100
AcDbEntity
8
SILKSCREEN_TOP
62
4
100
AcDbPolyline
90
2
70
0
43
8.000000
39
8.000000
10
1759.812953
20
3392.756969
10
1776.094921
20
3394.324764
0
LWPOLYLINE
5
226
100
AcDbEntity
8
SILKSCREEN_TOP
62
4
100
AcDbPolyline
90
2
70
0
43
8.000000
39
8.000000
10
1776.094921
20
3394.324764
10
1792.178307
20
3397.305630
0
LWPOLYLINE
5
227
100
AcDbEntity
8
SILKSCREEN_TOP
62
4
100
AcDbPolyline
90
2
70
0
43
8.000000
39
8.000000
10
1792.178307
20
3397.305630
10
1807.940669
20
3401.676929
0
LWPOLYLINE
5
228
100
AcDbEntity
8
SILKSCREEN_TOP
62
4
100
AcDbPolyline
90
2
70
0
43
8.000000
39
8.000000
10
1807.940669
20
3401.676929
10
1823.262047
20
3407.405354
0
LWPOLYLINE
5
229
100
AcDbEntity
8
SILKSCREEN_TOP
62
4
100
AcDbPolyline
90
2
70
0
43
8.000000
39
8.000000
10
1823.262047
20
3407.405354
10
1838.025866
20
3414.447323
0
LWPOLYLINE
5
22A
100
AcDbEntity
8
SILKSCREEN_TOP
62
4
100
AcDbPolyline
90
2
70
0
43
8.000000
39
8.000000
10
1838.025866
20
3414.447323
10
1852.119764
20
3422.749291
0
LWPOLYLINE
5
22B
100
AcDbEntity
8
SILKSCREEN_TOP
62
4
100
AcDbPolyline
90
2
70
0
43
8.000000
39
8.000000
10
1852.119764
20
3422.749291
10
1865.436496
20
3432.247992
0
LWPOLYLINE
5
22C
100
AcDbEntity
8
SILKSCREEN_TOP
62
4
100
AcDbPolyline
90
2
70
0
43
8.000000
39
8.000000
10
1865.436496
20
3432.247992
10
1877.874646
20
3442.871181
0
LWPOLYLINE
5
22D
100
AcDbEntity
8
SILKSCREEN_TOP
62
4
100
AcDbPolyline
90
2
70
0
43
8.000000
39
8.000000
10
1877.874646
20
3442.871181
10
1889.339606
20
3454.538031
0
LWPOLYLINE
5
22E
100
AcDbEntity
8
SILKSCREEN_TOP
62
4
100
AcDbPolyline
90
2
70
0
43
8.000000
39
8.000000
10
1889.339606
20
3454.538031
10
1899.744094
20
3467.159685
0
LWPOLYLINE
5
22F
100
AcDbEntity
8
SILKSCREEN_TOP
62
4
100
AcDbPolyline
90
2
70
0
43
8.000000
39
8.000000
10
1899.744094
20
3467.159685
10
1907.250669
20
3477.880197
0
LWPOLYLINE
5
230
100
AcDbEntity
8
SILKSCREEN_TOP
62
4
100
AcDbPolyline
90
2
70
0
43
8.000000
39
8.000000
10
1591.666693
20
3580.000000
10
1592.269173
20
3566.200315
0
LWPOLYLINE
5
231
100
AcDbEntity
8
SILKSCREEN_TOP
62
4
100
AcDbPolyline
90
2
70
0
43
8.000000
39
8.000000
10
1592.269173
20
3566.200315
10
1594.072126
20
3552.505709
0
LWPOLYLINE
5
232
100
AcDbEntity
8
SILKSCREEN_TOP
62
4
100
AcDbPolyline
90
2
70
0
43
8.000000
39
8.000000
10
1594.072126
20
3552.505709
10
1597.061732
20
3539.020315
0
LWPOLYLINE
5
233
100
AcDbEntity
8
SILKSCREEN_TOP
62
4
100
AcDbPolyline
90
2
70
0
43
8.000000
39
8.000000
10
1597.061732
20
3539.020315
10
1601.215354
20
3525.846811
0
LWPOLYLINE
5
234
100
AcDbEntity
8
SILKSCREEN_TOP
62
4
100
AcDbPolyline
90
2
70
0
43
8.000000
39
8.000000
10
1601.215354
20
3525.846811
10
1606.501260
20
3513.085433
0
LWPOLYLINE
5
235
100
AcDbEntity
8
SILKSCREEN_TOP
62
4
100
AcDbPolyline
90
2
70
0
43
8.000000
39
8.000000
10
1606.501260
20
3513.085433
10
1612.879331
20
3500.833346
0
LWPOLYLINE
5
236
100
AcDbEntity
8
SILKSCREEN_TOP
62
4
100
AcDbPolyline
90
2
70
0
43
8.000000
39
8.000000
10
1612.879331
20
3500.833346
10
1620.300945
20
3489.183740
0
LWPOLYLINE
5
237
100
AcDbEntity
8
SILKSCREEN_TOP
62
4
100
AcDbPolyline
90
2
70
0
43
8.000000
39
8.000000
10
1620.300945
20
3489.183740
10
1628.709646
20
3478.225276
0
LWPOLYLINE
5
238
100
AcDbEntity
8
SILKSCREEN_TOP
62
4
100
AcDbPolyline
90
2
70
0
43
8.000000
39
8.000000
10
1628.709646
20
3478.225276
10
1638.041417
20
3468.041417
0
LWPOLYLINE
5
239
100
AcDbEntity
8
SILKSCREEN_TOP
62
4
100
AcDbPolyline
90
2
70
0
43
8.000000
39
8.000000
10
1638.041417
20
3468.041417
10
1648.225276
20
3458.709646
0
LWPOLYLINE
5
23A
100
AcDbEntity
8
SILKSCREEN_TOP
62
4
100
AcDbPolyline
90
2
70
0
43
8.000000
39
8.000000
10
1648.225276
20
3458.709646
10
1659.183740
20
3450.300945
0
LWPOLYLINE
5
23B
100
AcDbEntity
8
SILKSCREEN_TOP
62
4
100
AcDbPolyline
90
2
70
0
43
8.000000
39
8.000000
10
1659.183740
20
3450.300945
10
1670.833307
20
3442.879331
0
LWPOLYLINE
5
23C
100
AcDbEntity
8
SILKSCREEN_TOP
62
4
100
AcDbPolyline
90
2
70
0
43
8.000000
39
8.000000
10
1670.833307
20
3442.879331
10
1683.085433
20
3436.501260
0
LWPOLYLINE
5
23D
100
AcDbEntity
8
SILKSCREEN_TOP
62
4
100
AcDbPolyline
90
2
70
0
43
8.000000
39
8.000000
10
1683.085433
20
3436.501260
10
1695.846811
20
3431.215354
0
LWPOLYLINE
5
23E
100
AcDbEntity
8
SILKSCREEN_TOP
62
4
100
AcDbPolyline
90
2
70
0
43
8.000000
39
8.000000
10
1695.846811
20
3431.215354
10
1709.020315
20
3427.061732
0
LWPOLYLINE
5
23F
100
AcDbEntity
8
SILKSCREEN_TOP
62
4
100
AcDbPolyline
90
2
70
0
43
8.000000
39
8.000000
10
1709.020315
20
3427.061732
10
1722.505709
20
3424.072126
0
LWPOLYLINE
5
240
100
AcDbEntity
8
SILKSCREEN_TOP
62
4
100
AcDbPolyline
90
2
70
0
43
8.000000
39
8.000000
10
1722.505709
20
3424.072126
10
1736.200315
20
3422.269173
0
LWPOLYLINE
5
241
100
AcDbEntity
8
SILKSCREEN_TOP
62
4
100
AcDbPolyline
90
2
70
0
43
8.000000
39
8.000000
10
1736.200315
20
3422.269173
10
1749.999961
20
3421.666693
0
LWPOLYLINE
5
242
100
AcDbEntity
8
SILKSCREEN_TOP
62
4
100
AcDbPolyline
90
2
70
0
43
8.000000
39
8.000000
10
1749.999961
20
3421.666693
10
1763.799646
20
3422.269173
0
LWPOLYLINE
5
243
100
AcDbEntity
8
SILKSCREEN_TOP
62
4
100
AcDbPolyline
90
2
70
0
43
8.000000
39
8.000000
10
1763.799646
20
3422.269173
10
1777.494252
20
3424.072126
0
LWPOLYLINE
5
244
100
AcDbEntity
8
SILKSCREEN_TOP
62
4
100
AcDbPolyline
90
2
70
0
43
8.000000
39
8.000000
10
1777.494252
20
3424.072126
10
1790.979646
20
3427.061732
0
LWPOLYLINE
5
245
100
AcDbEntity
8
SILKSCREEN_TOP
62
4
100
AcDbPolyline
90
2
70
0
43
8.000000
39
8.000000
10
1790.979646
20
3427.061732
10
1804.153150
20
3431.215354
0
LWPOLYLINE
5
246
100
AcDbEntity
8
SILKSCREEN_TOP
62
4
100
AcDbPolyline
90
2
70
0
43
8.000000
39
8.000000
10
1804.153150
20
3431.215354
10
1816.914528
20
3436.501260
0
LWPOLYLINE
5
247
100
AcDbEntity
8
SILKSCREEN_TOP
62
4
100
AcDbPolyline
90
2
70
0
43
8.000000
39
8.000000
10
1816.914528
20
3436.501260
10
1829.166614
20
3442.879331
0
LWPOLYLINE
5
248
100
AcDbEntity
8
SILKSCREEN_TOP
62
4
100
AcDbPolyline
90
2
70
0
43
8.000000
39
8.000000
10
1829.166614
20
3442.879331
10
1840.816220
20
3450.300945
0
LWPOLYLINE
5
249
100
AcDbEntity
8
SILKSCREEN_TOP
62
4
100
AcDbPolyline
90
2
70
0
43
8.000000
39
8.000000
10
1840.816220
20
3450.300945
10
1851.774685
20
3458.709646
0
LWPOLYLINE
5
24A
100
AcDbEntity
8
SILKSCREEN_TOP
62
4
100
AcDbPolyline
90
2
70
0
43
8.000000
39
8.000000
10
1851.774685
20
3458.709646
10
1861.958543
20
3468.041417
0
LWPOLYLINE
5
24B
100
AcDbEntity
8
SILKSCREEN_TOP
62
4
100
AcDbPolyline
90
2
70
0
43
8.000000
39
8.000000
10
1861.958543
20
3468.041417
10
1871.290315
20
3478.225276
0
LWPOLYLINE
5
24C
100
AcDbEntity
8
SILKSCREEN_TOP
62
4
100
AcDbPolyline
90
2
70
0
43
8.000000
39
8.000000
10
1871.290315
20
3478.225276
10
1879.699016
20
3489.183740
0
LWPOLYLINE
5
24D
100
AcDbEntity
8
SILKSCREEN_TOP
62
4
100
AcDbPolyline
90
2
70
0
43
8.000000
39
8.000000
10
1879.699016
20
3489.183740
10
1887.120630
20
3500.833307
0
LWPOLYLINE
5
24E
100
AcDbEntity
8
SILKSCREEN_TOP
62
4
100
AcDbPolyline
90
2
70
0
43
8.000000
39
8.000000
10
1887.120630
20
3500.833307
10
1893.498701
20
3513.085433
0
LWPOLYLINE
5
24F
100
AcDbEntity
8
SILKSCREEN_TOP
62
4
100
AcDbPolyline
90
2
70
0
43
8.000000
39
8.000000
10
1893.498701
20
3513.085433
10
1898.784606
20
3525.846811
0
LWPOLYLINE
5
250
100
AcDbEntity
8
SILKSCREEN_TOP
62
4
100
AcDbPolyline
90
2
70
0
43
8.000000
39
8.000000
10
1898.784606
20
3525.846811
10
1902.938228
20
3539.020315
0
LWPOLYLINE
5
251
100
AcDbEntity
8
SILKSCREEN_TOP
62
4
100
AcDbPolyline
90
2
70
0
43
8.000000
39
8.000000
10
1902.938228
20
3539.020315
10
1905.927835
20
3552.505709
0
LWPOLYLINE
5
252
100
AcDbEntity
8
SILKSCREEN_TOP
62
4
100
AcDbPolyline
90
2
70
0
43
8.000000
39
8.000000
10
1905.927835
20
3552.505709
10
1907.730787
20
3566.200315
0
LWPOLYLINE
5
253
100
AcDbEntity
8
SILKSCREEN_TOP
62
4
100
AcDbPolyline
90
2
70
0
43
8.000000
39
8.000000
10
1907.730787
20
3566.200315
10
1908.333307
20
3579.999961
0
LWPOLYLINE
5
254
100
AcDbEntity
8
SILKSCREEN_TOP
62
4
100
AcDbPolyline
90
2
70
0
43
8.000000
39
8.000000
10
1908.333307
20
3579.999961
10
1907.730787
20
3593.799646
0
LWPOLYLINE
5
255
100
AcDbEntity
8
SILKSCREEN_TOP
62
4
100
AcDbPolyline
90
2
70
0
43
8.000000
39
8.000000
10
1907.730787
20
3593.799646
10
1905.927835
20
3607.494252
0
LWPOLYLINE
5
256
100
AcDbEntity
8
SILKSCREEN_TOP
62
4
100
AcDbPolyline
90
2
70
0
43
8.000000
39
8.000000
10
1905.927835
20
3607.494252
10
1902.938228
20
3620.979646
0
LWPOLYLINE
5
257
100
AcDbEntity
8
SILKSCREEN_TOP
62
4
100
AcDbPolyline
90
2
70
0
43
8.000000
39
8.000000
10
1902.938228
20
3620.979646
10
1898.784606
20
3634.153150
0
LWPOLYLINE
5
258
100
AcDbEntity
8
SILKSCREEN_TOP
62
4
100
AcDbPolyline
90
2
70
0
43
8.000000
39
8.000000
10
1898.784606
20
3634.153150
10
1893.498701
20
3646.914528
0
LWPOLYLINE
5
259
100
AcDbEntity
8
SILKSCREEN_TOP
62
4
100
AcDbPolyline
90
2
70
0
43
8.000000
39
8.000000
10
1893.498701
20
3646.914528
10
1887.120630
20
3659.166614
0
LWPOLYLINE
5
25A
100
AcDbEntity
8
SILKSCREEN_TOP
62
4
100
AcDbPolyline
90
2
70
0
43
8.000000
39
8.000000
10
1887.120630
20
3659.166614
10
1879.699016
20
3670.816220
0
LWPOLYLINE
5
25B
100
AcDbEntity
8
SILKSCREEN_TOP
62
4
100
AcDbPolyline
90
2
70
0
43
8.000000
39
8.000000
10
1879.699016
20
3670.816220
10
1871.290315
20
3681.774685
0
LWPOLYLINE
5
25C
100
AcDbEntity
8
SILKSCREEN_TOP
62
4
100
AcDbPolyline
90
2
70
0
43
8.000000
39
8.000000
10
1871.290315
20
3681.774685
10
1861.958543
20
3691.958543
0
LWPOLYLINE
5
25D
100
AcDbEntity
8
SILKSCREEN_TOP
62
4
100
AcDbPolyline
90
2
70
0
43
8.000000
39
8.000000
10
1861.958543
20
3691.958543
10
1851.774685
20
3701.290315
0
LWPOLYLINE
5
25E
100
AcDbEntity
8
SILKSCREEN_TOP
62
4
100
AcDbPolyline
90
2
70
0
43
8.000000
39
8.000000
10
1851.774685
20
3701.290315
10
1840.816220
20
3709.699016
0
LWPOLYLINE
5
25F
100
AcDbEntity
8
SILKSCREEN_TOP
62
4
100
AcDbPolyline
90
2
70
0
43
8.000000
39
8.000000
10
1840.816220
20
3709.699016
10
1829.166654
20
3717.120630
0
LWPOLYLINE
5
260
100
AcDbEntity
8
SILKSCREEN_TOP
62
4
100
AcDbPolyline
90
2
70
0
43
8.000000
39
8.000000
10
1829.166654
20
3717.120630
10
1816.914528
20
3723.498701
0
LWPOLYLINE
5
261
100
AcDbEntity
8
SILKSCREEN_TOP
62
4
100
AcDbPolyline
90
2
70
0
43
8.000000
39
8.000000
10
1816.914528
20
3723.498701
10
1804.153150
20
3728.784606
0
LWPOLYLINE
5
262
100
AcDbEntity
8
SILKSCREEN_TOP
62
4
100
AcDbPolyline
90
2
70
0
43
8.000000
39
8.000000
10
1804.153150
20
3728.784606
10
1790.979646
20
3732.938228
0
LWPOLYLINE
5
263
100
AcDbEntity
8
SILKSCREEN_TOP
62
4
100
AcDbPolyline
90
2
70
0
43
8.000000
39
8.000000
10
1790.979646
20
3732.938228
10
1777.494252
20
3735.927835
0
LWPOLYLINE
5
264
100
AcDbEntity
8
SILKSCREEN_TOP
62
4
100
AcDbPolyline
90
2
70
0
43
8.000000
39
8.000000
10
1777.494252
20
3735.927835
10
1763.799646
20
3737.730787
0
LWPOLYLINE
5
265
100
AcDbEntity
8
SILKSCREEN_TOP
62
4
100
AcDbPolyline
90
2
70
0
43
8.000000
39
8.000000
10
1763.799646
20
3737.730787
10
1750.000000
20
3738.333307
0
LWPOLYLINE
5
266
100
AcDbEntity
8
SILKSCREEN_TOP
62
4
100
AcDbPolyline
90
2
70
0
43
8.000000
39
8.000000
10
1750.000000
20
3738.333307
10
1736.200315
20
3737.730787
0
LWPOLYLINE
5
267
100
AcDbEntity
8
SILKSCREEN_TOP
62
4
100
AcDbPolyline
90
2
70
0
43
8.000000
39
8.000000
10
1736.200315
20
3737.730787
10
1722.505709
20
3735.927835
0
LWPOLYLINE
5
268
100
AcDbEntity
8
SILKSCREEN_TOP
62
4
100
AcDbPolyline
90
2
70
0
43
8.000000
39
8.000000
10
1722.505709
20
3735.927835
10
1709.020315
20
3732.938228
0
LWPOLYLINE
5
269
100
AcDbEntity
8
SILKSCREEN_TOP
62
4
100
AcDbPolyline
90
2
70
0
43
8.000000
39
8.000000
10
1709.020315
20
3732.938228
10
1695.846811
20
3728.784606
0
LWPOLYLINE
5
26A
100
AcDbEntity
8
SILKSCREEN_TOP
62
4
100
AcDbPolyline
90
2
70
0
43
8.000000
39
8.000000
10
1695.846811
20
3728.784606
10
1683.085433
20
3723.498701
0
LWPOLYLINE
5
26B
100
AcDbEntity
8
SILKSCREEN_TOP
62
4
100
AcDbPolyline
90
2
70
0
43
8.000000
39
8.000000
10
1683.085433
20
3723.498701
10
1670.833346
20
3717.120630
0
LWPOLYLINE
5
26C
100
AcDbEntity
8
SILKSCREEN_TOP
62
4
100
AcDbPolyline
90
2
70
0
43
8.000000
39
8.000000
10
1670.833346
20
3717.120630
10
1659.183740
20
3709.699016
0
LWPOLYLINE
5
26D
100
AcDbEntity
8
SILKSCREEN_TOP
62
4
100
AcDbPolyline
90
2
70
0
43
8.000000
39
8.000000
10
1659.183740
20
3709.699016
10
1648.225276
20
3701.290315
0
LWPOLYLINE
5
26E
100
AcDbEntity
8
SILKSCREEN_TOP
62
4
100
AcDbPolyline
90
2
70
0
43
8.000000
39
8.000000
10
1648.225276
20
3701.290315
10
1638.041417
20
3691.958543
0
LWPOLYLINE
5
26F
100
AcDbEntity
8
SILKSCREEN_TOP
62
4
100
AcDbPolyline
90
2
70
0
43
8.000000
39
8.000000
10
1638.041417
20
3691.958543
10
1628.709646
20
3681.774685
0
LWPOLYLINE
5
270
100
AcDbEntity
8
SILKSCREEN_TOP
62
4
100
AcDbPolyline
90
2
70
0
43
8.000000
39
8.000000
10
1628.709646
20
3681.774685
10
1620.300945
20
3670.816220
0
LWPOLYLINE
5
271
100
AcDbEntity
8
SILKSCREEN_TOP
62
4
100
AcDbPolyline
90
2
70
0
43
8.000000
39
8.000000
10
1620.300945
20
3670.816220
10
1612.879331
20
3659.166654
0
LWPOLYLINE
5
272
100
AcDbEntity
8
SILKSCREEN_TOP
62
4
100
AcDbPolyline
90
2
70
0
43
8.000000
39
8.000000
10
1612.879331
20
3659.166654
10
1606.501260
20
3646.914528
0
LWPOLYLINE
5
273
100
AcDbEntity
8
SILKSCREEN_TOP
62
4
100
AcDbPolyline
90
2
70
0
43
8.000000
39
8.000000
10
1606.501260
20
3646.914528
10
1601.215354
20
3634.153150
0
LWPOLYLINE
5
274
100
AcDbEntity
8
SILKSCREEN_TOP
62
4
100
AcDbPolyline
90
2
70
0
43
8.000000
39
8.000000
10
1601.215354
20
3634.153150
10
1597.061732
20
3620.979646
0
LWPOLYLINE
5
275
100
AcDbEntity
8
SILKSCREEN_TOP
62
4
100
AcDbPolyline
90
2
70
0
43
8.000000
39
8.000000
10
1597.061732
20
3620.979646
10
1594.072126
20
3607.494252
0
LWPOLYLINE
5
276
100
AcDbEntity
8
SILKSCREEN_TOP
62
4
100
AcDbPolyline
90
2
70
0
43
8.000000
39
8.000000
10
1594.072126
20
3607.494252
10
1592.269173
20
3593.799646
0
LWPOLYLINE
5
277
100
AcDbEntity
8
SILKSCREEN_TOP
62
4
100
AcDbPolyline
90
2
70
0
43
8.000000
39
8.000000
10
1592.269173
20
3593.799646
10
1591.666693
20
3580.000000
0
LWPOLYLINE
5
278
100
AcDbEntity
8
SILKSCREEN_TOP
62
4
100
AcDbPolyline
90
2
70
0
43
8.000000
39
8.000000
10
1591.666693
20
3580.000000
10
1591.666693
20
3580.000000
0
LWPOLYLINE
5
279
100
AcDbEntity
8
SILKSCREEN_TOP
62
4
100
AcDbPolyline
90
2
70
0
43
8.000000
39
8.000000
10
1708.333386
20
3638.333346
10
1691.666693
20
3638.333346
0
LWPOLYLINE
5
27A
100
AcDbEntity
8
SILKSCREEN_TOP
62
4
100
AcDbPolyline
90
2
70
0
43
8.000000
39
8.000000
10
1691.666693
20
3629.999961
10
1691.698386
20
3629.273661
0
LWPOLYLINE
5
27B
100
AcDbEntity
8
SILKSCREEN_TOP
62
4
100
AcDbPolyline
90
2
70
0
43
8.000000
39
8.000000
10
1691.698386
20
3629.273661
10
1691.793268
20
3628.552874
0
LWPOLYLINE
5
27C
100
AcDbEntity
8
SILKSCREEN_TOP
62
4
100
AcDbPolyline
90
2
70
0
43
8.000000
39
8.000000
10
1691.793268
20
3628.552874
10
1691.950630
20
3627.843110
0
LWPOLYLINE
5
27D
100
AcDbEntity
8
SILKSCREEN_TOP
62
4
100
AcDbPolyline
90
2
70
0
43
8.000000
39
8.000000
10
1691.950630
20
3627.843110
10
1692.169252
20
3627.149803
0
LWPOLYLINE
5
27E
100
AcDbEntity
8
SILKSCREEN_TOP
62
4
100
AcDbPolyline
90
2
70
0
43
8.000000
39
8.000000
10
1692.169252
20
3627.149803
10
1692.447441
20
3626.478150
0
LWPOLYLINE
5
27F
100
AcDbEntity
8
SILKSCREEN_TOP
62
4
100
AcDbPolyline
90
2
70
0
43
8.000000
39
8.000000
10
1692.447441
20
3626.478150
10
1692.783150
20
3625.833307
0
LWPOLYLINE
5
280
100
AcDbEntity
8
SILKSCREEN_TOP
62
4
100
AcDbPolyline
90
2
70
0
43
8.000000
39
8.000000
10
1692.783150
20
3625.833307
10
1693.173740
20
3625.220157
0
LWPOLYLINE
5
281
100
AcDbEntity
8
SILKSCREEN_TOP
62
4
100
AcDbPolyline
90
2
70
0
43
8.000000
39
8.000000
10
1693.173740
20
3625.220157
10
1693.616339
20
3624.643386
0
LWPOLYLINE
5
282
100
AcDbEntity
8
SILKSCREEN_TOP
62
4
100
AcDbPolyline
90
2
70
0
43
8.000000
39
8.000000
10
1693.616339
20
3624.643386
10
1694.107480
20
3624.107402
0
LWPOLYLINE
5
283
100
AcDbEntity
8
SILKSCREEN_TOP
62
4
100
AcDbPolyline
90
2
70
0
43
8.000000
39
8.000000
10
1694.107480
20
3624.107402
10
1694.643465
20
3623.616260
0
LWPOLYLINE
5
284
100
AcDbEntity
8
SILKSCREEN_TOP
62
4
100
AcDbPolyline
90
2
70
0
43
8.000000
39
8.000000
10
1694.643465
20
3623.616260
10
1695.220236
20
3623.173701
0
LWPOLYLINE
5
285
100
AcDbEntity
8
SILKSCREEN_TOP
62
4
100
AcDbPolyline
90
2
70
0
43
8.000000
39
8.000000
10
1695.220236
20
3623.173701
10
1695.833346
20
3622.783110
0
LWPOLYLINE
5
286
100
AcDbEntity
8
SILKSCREEN_TOP
62
4
100
AcDbPolyline
90
2
70
0
43
8.000000
39
8.000000
10
1695.833346
20
3622.783110
10
1696.478189
20
3622.447441
0
LWPOLYLINE
5
287
100
AcDbEntity
8
SILKSCREEN_TOP
62
4
100
AcDbPolyline
90
2
70
0
43
8.000000
39
8.000000
10
1696.478189
20
3622.447441
10
1697.149843
20
3622.169213
0
LWPOLYLINE
5
288
100
AcDbEntity
8
SILKSCREEN_TOP
62
4
100
AcDbPolyline
90
2
70
0
43
8.000000
39
8.000000
10
1697.149843
20
3622.169213
10
1697.843189
20
3621.950630
0
LWPOLYLINE
5
289
100
AcDbEntity
8
SILKSCREEN_TOP
62
4
100
AcDbPolyline
90
2
70
0
43
8.000000
39
8.000000
10
1697.843189
20
3621.950630
10
1698.552953
20
3621.793268
0
LWPOLYLINE
5
28A
100
AcDbEntity
8
SILKSCREEN_TOP
62
4
100
AcDbPolyline
90
2
70
0
43
8.000000
39
8.000000
10
1698.552953
20
3621.793268
10
1699.273740
20
3621.698386
0
LWPOLYLINE
5
28B
100
AcDbEntity
8
SILKSCREEN_TOP
62
4
100
AcDbPolyline
90
2
70
0
43
8.000000
39
8.000000
10
1699.273740
20
3621.698386
10
1700.000039
20
3621.666693
0
LWPOLYLINE
5
28C
100
AcDbEntity
8
SILKSCREEN_TOP
62
4
100
AcDbPolyline
90
2
70
0
43
8.000000
39
8.000000
10
1700.000039
20
3621.666693
10
1700.726299
20
3621.698386
0
LWPOLYLINE
5
28D
100
AcDbEntity
8
SILKSCREEN_TOP
62
4
100
AcDbPolyline
90
2
70
0
43
8.000000
39
8.000000
10
1700.726299
20
3621.698386
10
1701.447087
20
3621.793268
0
LWPOLYLINE
5
28E
100
AcDbEntity
8
SILKSCREEN_TOP
62
4
100
AcDbPolyline
90
2
70
0
43
8.000000
39
8.000000
10
1701.447087
20
3621.793268
10
1702.156850
20
3621.950630
0
LWPOLYLINE
5
28F
100
AcDbEntity
8
SILKSCREEN_TOP
62
4
100
AcDbPolyline
90
2
70
0
43
8.000000
39
8.000000
10
1702.156850
20
3621.950630
10
1702.850157
20
3622.169252
0
LWPOLYLINE
5
290
100
AcDbEntity
8
SILKSCREEN_TOP
62
4
100
AcDbPolyline
90
2
70
0
43
8.000000
39
8.000000
10
1702.850157
20
3622.169252
10
1703.521811
20
3622.447441
0
LWPOLYLINE
5
291
100
AcDbEntity
8
SILKSCREEN_TOP
62
4
100
AcDbPolyline
90
2
70
0
43
8.000000
39
8.000000
10
1703.521811
20
3622.447441
10
1704.166654
20
3622.783150
0
LWPOLYLINE
5
292
100
AcDbEntity
8
SILKSCREEN_TOP
62
4
100
AcDbPolyline
90
2
70
0
43
8.000000
39
8.000000
10
1704.166654
20
3622.783150
10
1704.779803
20
3623.173740
0
LWPOLYLINE
5
293
100
AcDbEntity
8
SILKSCREEN_TOP
62
4
100
AcDbPolyline
90
2
70
0
43
8.000000
39
8.000000
10
1704.779803
20
3623.173740
10
1705.356575
20
3623.616339
0
LWPOLYLINE
5
294
100
AcDbEntity
8
SILKSCREEN_TOP
62
4
100
AcDbPolyline
90
2
70
0
43
8.000000
39
8.000000
10
1705.356575
20
3623.616339
10
1705.892559
20
3624.107480
0
LWPOLYLINE
5
295
100
AcDbEntity
8
SILKSCREEN_TOP
62
4
100
AcDbPolyline
90
2
70
0
43
8.000000
39
8.000000
10
1705.892559
20
3624.107480
10
1706.383701
20
3624.643465
0
LWPOLYLINE
5
296
100
AcDbEntity
8
SILKSCREEN_TOP
62
4
100
AcDbPolyline
90
2
70
0
43
8.000000
39
8.000000
10
1706.383701
20
3624.643465
10
1706.826260
20
3625.220236
0
LWPOLYLINE
5
297
100
AcDbEntity
8
SILKSCREEN_TOP
62
4
100
AcDbPolyline
90
2
70
0
43
8.000000
39
8.000000
10
1706.826260
20
3625.220236
10
1707.216850
20
3625.833346
0
LWPOLYLINE
5
298
100
AcDbEntity
8
SILKSCREEN_TOP
62
4
100
AcDbPolyline
90
2
70
0
43
8.000000
39
8.000000
10
1707.216850
20
3625.833346
10
1707.552520
20
3626.478189
0
LWPOLYLINE
5
299
100
AcDbEntity
8
SILKSCREEN_TOP
62
4
100
AcDbPolyline
90
2
70
0
43
8.000000
39
8.000000
10
1707.552520
20
3626.478189
10
1707.830748
20
3627.149843
0
LWPOLYLINE
5
29A
100
AcDbEntity
8
SILKSCREEN_TOP
62
4
100
AcDbPolyline
90
2
70
0
43
8.000000
39
8.000000
10
1707.830748
20
3627.149843
10
1708.049331
20
3627.843189
0
LWPOLYLINE
5
29B
100
AcDbEntity
8
SILKSCREEN_TOP
62
4
100
AcDbPolyline
90
2
70
0
43
8.000000
39
8.000000
10
1708.049331
20
3627.843189
10
1708.206693
20
3628.552953
0
LWPOLYLINE
5
29C
100
AcDbEntity
8
SILKSCREEN_TOP
62
4
100
AcDbPolyline
90
2
70
0
43
8.000000
39
8.000000
10
1708.206693
20
3628.552953
10
1708.301575
20
3629.273740
0
LWPOLYLINE
5
29D
100
AcDbEntity
8
SILKSCREEN_TOP
62
4
100
AcDbPolyline
90
2
70
0
43
8.000000
39
8.000000
10
1708.301575
20
3629.273740
10
1708.333268
20
3629.999961
0
LWPOLYLINE
5
29E
100
AcDbEntity
8
SILKSCREEN_TOP
62
4
100
AcDbPolyline
90
2
70
0
43
8.000000
39
8.000000
10
1908.333386
20
3480.000000
10
1908.333386
20
3680.000000
0
LWPOLYLINE
5
29F
100
AcDbEntity
8
SILKSCREEN_TOP
62
4
100
AcDbPolyline
90
2
70
0
43
8.000000
39
8.000000
10
1708.333386
20
3655.000000
10
1708.333386
20
3630.000000
0
LWPOLYLINE
5
2A0
100
AcDbEntity
8
SILKSCREEN_TOP
62
4
100
AcDbPolyline
90
2
70
0
43
8.000000
39
8.000000
10
1808.333268
20
3646.665315
10
1808.301575
20
3647.391575
0
LWPOLYLINE
5
2A1
100
AcDbEntity
8
SILKSCREEN_TOP
62
4
100
AcDbPolyline
90
2
70
0
43
8.000000
39
8.000000
10
1808.301575
20
3647.391575
10
1808.206693
20
3648.112362
0
LWPOLYLINE
5
2A2
100
AcDbEntity
8
SILKSCREEN_TOP
62
4
100
AcDbPolyline
90
2
70
0
43
8.000000
39
8.000000
10
1808.206693
20
3648.112362
10
1808.049331
20
3648.822126
0
LWPOLYLINE
5
2A3
100
AcDbEntity
8
SILKSCREEN_TOP
62
4
100
AcDbPolyline
90
2
70
0
43
8.000000
39
8.000000
10
1808.049331
20
3648.822126
10
1807.830748
20
3649.515472
0
LWPOLYLINE
5
2A4
100
AcDbEntity
8
SILKSCREEN_TOP
62
4
100
AcDbPolyline
90
2
70
0
43
8.000000
39
8.000000
10
1807.830748
20
3649.515472
10
1807.552520
20
3650.187126
0
LWPOLYLINE
5
2A5
100
AcDbEntity
8
SILKSCREEN_TOP
62
4
100
AcDbPolyline
90
2
70
0
43
8.000000
39
8.000000
10
1807.552520
20
3650.187126
10
1807.216850
20
3650.831969
0
LWPOLYLINE
5
2A6
100
AcDbEntity
8
SILKSCREEN_TOP
62
4
100
AcDbPolyline
90
2
70
0
43
8.000000
39
8.000000
10
1807.216850
20
3650.831969
10
1806.826260
20
3651.445079
0
LWPOLYLINE
5
2A7
100
AcDbEntity
8
SILKSCREEN_TOP
62
4
100
AcDbPolyline
90
2
70
0
43
8.000000
39
8.000000
10
1806.826260
20
3651.445079
10
1806.383701
20
3652.021850
0
LWPOLYLINE
5
2A8
100
AcDbEntity
8
SILKSCREEN_TOP
62
4
100
AcDbPolyline
90
2
70
0
43
8.000000
39
8.000000
10
1806.383701
20
3652.021850
10
1805.892559
20
3652.557835
0
LWPOLYLINE
5
2A9
100
AcDbEntity
8
SILKSCREEN_TOP
62
4
100
AcDbPolyline
90
2
70
0
43
8.000000
39
8.000000
10
1805.892559
20
3652.557835
10
1805.356575
20
3653.048976
0
LWPOLYLINE
5
2AA
100
AcDbEntity
8
SILKSCREEN_TOP
62
4
100
AcDbPolyline
90
2
70
0
43
8.000000
39
8.000000
10
1805.356575
20
3653.048976
10
1804.779803
20
3653.491575
0
LWPOLYLINE
5
2AB
100
AcDbEntity
8
SILKSCREEN_TOP
62
4
100
AcDbPolyline
90
2
70
0
43
8.000000
39
8.000000
10
1804.779803
20
3653.491575
10
1804.166654
20
3653.882165
0
LWPOLYLINE
5
2AC
100
AcDbEntity
8
SILKSCREEN_TOP
62
4
100
AcDbPolyline
90
2
70
0
43
8.000000
39
8.000000
10
1804.166654
20
3653.882165
10
1803.521811
20
3654.217874
0
LWPOLYLINE
5
2AD
100
AcDbEntity
8
SILKSCREEN_TOP
62
4
100
AcDbPolyline
90
2
70
0
43
8.000000
39
8.000000
10
1803.521811
20
3654.217874
10
1802.850157
20
3654.496063
0
LWPOLYLINE
5
2AE
100
AcDbEntity
8
SILKSCREEN_TOP
62
4
100
AcDbPolyline
90
2
70
0
43
8.000000
39
8.000000
10
1802.850157
20
3654.496063
10
1802.156850
20
3654.714685
0
LWPOLYLINE
5
2AF
100
AcDbEntity
8
SILKSCREEN_TOP
62
4
100
AcDbPolyline
90
2
70
0
43
8.000000
39
8.000000
10
1802.156850
20
3654.714685
10
1801.447087
20
3654.872047
0
LWPOLYLINE
5
2B0
100
AcDbEntity
8
SILKSCREEN_TOP
62
4
100
AcDbPolyline
90
2
70
0
43
8.000000
39
8.000000
10
1801.447087
20
3654.872047
10
1800.726299
20
3654.966929
0
LWPOLYLINE
5
2B1
100
AcDbEntity
8
SILKSCREEN_TOP
62
4
100
AcDbPolyline
90
2
70
0
43
8.000000
39
8.000000
10
1800.726299
20
3654.966929
10
1800.000039
20
3654.998622
0
LWPOLYLINE
5
2B2
100
AcDbEntity
8
SILKSCREEN_TOP
62
4
100
AcDbPolyline
90
2
70
0
43
8.000000
39
8.000000
10
1800.000039
20
3654.998622
10
1799.273740
20
3654.966929
0
LWPOLYLINE
5
2B3
100
AcDbEntity
8
SILKSCREEN_TOP
62
4
100
AcDbPolyline
90
2
70
0
43
8.000000
39
8.000000
10
1799.273740
20
3654.966929
10
1798.552953
20
3654.872047
0
LWPOLYLINE
5
2B4
100
AcDbEntity
8
SILKSCREEN_TOP
62
4
100
AcDbPolyline
90
2
70
0
43
8.000000
39
8.000000
10
1798.552953
20
3654.872047
10
1797.843189
20
3654.714685
0
LWPOLYLINE
5
2B5
100
AcDbEntity
8
SILKSCREEN_TOP
62
4
100
AcDbPolyline
90
2
70
0
43
8.000000
39
8.000000
10
1797.843189
20
3654.714685
10
1797.149843
20
3654.496102
0
LWPOLYLINE
5
2B6
100
AcDbEntity
8
SILKSCREEN_TOP
62
4
100
AcDbPolyline
90
2
70
0
43
8.000000
39
8.000000
10
1797.149843
20
3654.496102
10
1796.478189
20
3654.217874
0
LWPOLYLINE
5
2B7
100
AcDbEntity
8
SILKSCREEN_TOP
62
4
100
AcDbPolyline
90
2
70
0
43
8.000000
39
8.000000
10
1796.478189
20
3654.217874
10
1795.833346
20
3653.882205
0
LWPOLYLINE
5
2B8
100
AcDbEntity
8
SILKSCREEN_TOP
62
4
100
AcDbPolyline
90
2
70
0
43
8.000000
39
8.000000
10
1795.833346
20
3653.882205
10
1795.220236
20
3653.491614
0
LWPOLYLINE
5
2B9
100
AcDbEntity
8
SILKSCREEN_TOP
62
4
100
AcDbPolyline
90
2
70
0
43
8.000000
39
8.000000
10
1795.220236
20
3653.491614
10
1794.643465
20
3653.049055
0
LWPOLYLINE
5
2BA
100
AcDbEntity
8
SILKSCREEN_TOP
62
4
100
AcDbPolyline
90
2
70
0
43
8.000000
39
8.000000
10
1794.643465
20
3653.049055
10
1794.107480
20
3652.557913
0
LWPOLYLINE
5
2BB
100
AcDbEntity
8
SILKSCREEN_TOP
62
4
100
AcDbPolyline
90
2
70
0
43
8.000000
39
8.000000
10
1794.107480
20
3652.557913
10
1793.616339
20
3652.021929
0
LWPOLYLINE
5
2BC
100
AcDbEntity
8
SILKSCREEN_TOP
62
4
100
AcDbPolyline
90
2
70
0
43
8.000000
39
8.000000
10
1793.616339
20
3652.021929
10
1793.173740
20
3651.445157
0
LWPOLYLINE
5
2BD
100
AcDbEntity
8
SILKSCREEN_TOP
62
4
100
AcDbPolyline
90
2
70
0
43
8.000000
39
8.000000
10
1793.173740
20
3651.445157
10
1792.783150
20
3650.832008
0
LWPOLYLINE
5
2BE
100
AcDbEntity
8
SILKSCREEN_TOP
62
4
100
AcDbPolyline
90
2
70
0
43
8.000000
39
8.000000
10
1792.783150
20
3650.832008
10
1792.447441
20
3650.187165
0
LWPOLYLINE
5
2BF
100
AcDbEntity
8
SILKSCREEN_TOP
62
4
100
AcDbPolyline
90
2
70
0
43
8.000000
39
8.000000
10
1792.447441
20
3650.187165
10
1792.169252
20
3649.515512
0
LWPOLYLINE
5
2C0
100
AcDbEntity
8
SILKSCREEN_TOP
62
4
100
AcDbPolyline
90
2
70
0
43
8.000000
39
8.000000
10
1792.169252
20
3649.515512
10
1791.950630
20
3648.822205
0
LWPOLYLINE
5
2C1
100
AcDbEntity
8
SILKSCREEN_TOP
62
4
100
AcDbPolyline
90
2
70
0
43
8.000000
39
8.000000
10
1791.950630
20
3648.822205
10
1791.793268
20
3648.112441
0
LWPOLYLINE
5
2C2
100
AcDbEntity
8
SILKSCREEN_TOP
62
4
100
AcDbPolyline
90
2
70
0
43
8.000000
39
8.000000
10
1791.793268
20
3648.112441
10
1791.698386
20
3647.391654
0
LWPOLYLINE
5
2C3
100
AcDbEntity
8
SILKSCREEN_TOP
62
4
100
AcDbPolyline
90
2
70
0
43
8.000000
39
8.000000
10
1791.698386
20
3647.391654
10
1791.666693
20
3646.665394
0
LWPOLYLINE
5
2C4
100
AcDbEntity
8
SILKSCREEN_TOP
62
4
100
AcDbPolyline
90
2
70
0
43
8.000000
39
8.000000
10
1791.666693
20
3646.665394
10
1791.666693
20
3646.665315
0
LWPOLYLINE
5
2C5
100
AcDbEntity
8
SILKSCREEN_TOP
62
4
100
AcDbPolyline
90
2
70
0
43
8.000000
39
8.000000
10
1808.333386
20
3646.666654
10
1808.333386
20
3630.000000
0
LWPOLYLINE
5
2C6
100
AcDbEntity
8
SILKSCREEN_TOP
62
4
100
AcDbPolyline
90
2
70
0
43
8.000000
39
8.000000
10
1791.666654
20
3629.999961
10
1791.698346
20
3629.273661
0
LWPOLYLINE
5
2C7
100
AcDbEntity
8
SILKSCREEN_TOP
62
4
100
AcDbPolyline
90
2
70
0
43
8.000000
39
8.000000
10
1791.698346
20
3629.273661
10
1791.793228
20
3628.552874
0
LWPOLYLINE
5
2C8
100
AcDbEntity
8
SILKSCREEN_TOP
62
4
100
AcDbPolyline
90
2
70
0
43
8.000000
39
8.000000
10
1791.793228
20
3628.552874
10
1791.950591
20
3627.843110
0
LWPOLYLINE
5
2C9
100
AcDbEntity
8
SILKSCREEN_TOP
62
4
100
AcDbPolyline
90
2
70
0
43
8.000000
39
8.000000
10
1791.950591
20
3627.843110
10
1792.169213
20
3627.149764
0
LWPOLYLINE
5
2CA
100
AcDbEntity
8
SILKSCREEN_TOP
62
4
100
AcDbPolyline
90
2
70
0
43
8.000000
39
8.000000
10
1792.169213
20
3627.149764
10
1792.447402
20
3626.478110
0
LWPOLYLINE
5
2CB
100
AcDbEntity
8
SILKSCREEN_TOP
62
4
100
AcDbPolyline
90
2
70
0
43
8.000000
39
8.000000
10
1792.447402
20
3626.478110
10
1792.783110
20
3625.833268
0
LWPOLYLINE
5
2CC
100
AcDbEntity
8
SILKSCREEN_TOP
62
4
100
AcDbPolyline
90
2
70
0
43
8.000000
39
8.000000
10
1792.783110
20
3625.833268
10
1793.173740
20
3625.220118
0
LWPOLYLINE
5
2CD
100
AcDbEntity
8
SILKSCREEN_TOP
62
4
100
AcDbPolyline
90
2
70
0
43
8.000000
39
8.000000
10
1793.173740
20
3625.220118
10
1793.616299
20
3624.643386
0
LWPOLYLINE
5
2CE
100
AcDbEntity
8
SILKSCREEN_TOP
62
4
100
AcDbPolyline
90
2
70
0
43
8.000000
39
8.000000
10
1793.616299
20
3624.643386
10
1794.107441
20
3624.107402
0
LWPOLYLINE
5
2CF
100
AcDbEntity
8
SILKSCREEN_TOP
62
4
100
AcDbPolyline
90
2
70
0
43
8.000000
39
8.000000
10
1794.107441
20
3624.107402
10
1794.643425
20
3623.616260
0
LWPOLYLINE
5
2D0
100
AcDbEntity
8
SILKSCREEN_TOP
62
4
100
AcDbPolyline
90
2
70
0
43
8.000000
39
8.000000
10
1794.643425
20
3623.616260
10
1795.220197
20
3623.173661
0
LWPOLYLINE
5
2D1
100
AcDbEntity
8
SILKSCREEN_TOP
62
4
100
AcDbPolyline
90
2
70
0
43
8.000000
39
8.000000
10
1795.220197
20
3623.173661
10
1795.833346
20
3622.783071
0
LWPOLYLINE
5
2D2
100
AcDbEntity
8
SILKSCREEN_TOP
62
4
100
AcDbPolyline
90
2
70
0
43
8.000000
39
8.000000
10
1795.833346
20
3622.783071
10
1796.478189
20
3622.447402
0
LWPOLYLINE
5
2D3
100
AcDbEntity
8
SILKSCREEN_TOP
62
4
100
AcDbPolyline
90
2
70
0
43
8.000000
39
8.000000
10
1796.478189
20
3622.447402
10
1797.149843
20
3622.169173
0
LWPOLYLINE
5
2D4
100
AcDbEntity
8
SILKSCREEN_TOP
62
4
100
AcDbPolyline
90
2
70
0
43
8.000000
39
8.000000
10
1797.149843
20
3622.169173
10
1797.843189
20
3621.950591
0
LWPOLYLINE
5
2D5
100
AcDbEntity
8
SILKSCREEN_TOP
62
4
100
AcDbPolyline
90
2
70
0
43
8.000000
39
8.000000
10
1797.843189
20
3621.950591
10
1798.552953
20
3621.793228
0
LWPOLYLINE
5
2D6
100
AcDbEntity
8
SILKSCREEN_TOP
62
4
100
AcDbPolyline
90
2
70
0
43
8.000000
39
8.000000
10
1798.552953
20
3621.793228
10
1799.273740
20
3621.698346
0
LWPOLYLINE
5
2D7
100
AcDbEntity
8
SILKSCREEN_TOP
62
4
100
AcDbPolyline
90
2
70
0
43
8.000000
39
8.000000
10
1799.273740
20
3621.698346
10
1800.000039
20
3621.666654
0
LWPOLYLINE
5
2D8
100
AcDbEntity
8
SILKSCREEN_TOP
62
4
100
AcDbPolyline
90
2
70
0
43
8.000000
39
8.000000
10
1800.000039
20
3621.666654
10
1800.726299
20
3621.698346
0
LWPOLYLINE
5
2D9
100
AcDbEntity
8
SILKSCREEN_TOP
62
4
100
AcDbPolyline
90
2
70
0
43
8.000000
39
8.000000
10
1800.726299
20
3621.698346
10
1801.447087
20
3621.793228
0
LWPOLYLINE
5
2DA
100
AcDbEntity
8
SILKSCREEN_TOP
62
4
100
AcDbPolyline
90
2
70
0
43
8.000000
39
8.000000
10
1801.447087
20
3621.793228
10
1802.156850
20
3621.950591
0
LWPOLYLINE
5
2DB
100
AcDbEntity
8
SILKSCREEN_TOP
62
4
100
AcDbPolyline
90
2
70
0
43
8.000000
39
8.000000
10
1802.156850
20
3621.950591
10
1802.850197
20
3622.169213
0
LWPOLYLINE
5
2DC
100
AcDbEntity
8
SILKSCREEN_TOP
62
4
100
AcDbPolyline
90
2
70
0
43
8.000000
39
8.000000
10
1802.850197
20
3622.169213
10
1803.521850
20
3622.447402
0
LWPOLYLINE
5
2DD
100
AcDbEntity
8
SILKSCREEN_TOP
62
4
100
AcDbPolyline
90
2
70
0
43
8.000000
39
8.000000
10
1803.521850
20
3622.447402
10
1804.166693
20
3622.783110
0
LWPOLYLINE
5
2DE
100
AcDbEntity
8
SILKSCREEN_TOP
62
4
100
AcDbPolyline
90
2
70
0
43
8.000000
39
8.000000
10
1804.166693
20
3622.783110
10
1804.779843
20
3623.173740
0
LWPOLYLINE
5
2DF
100
AcDbEntity
8
SILKSCREEN_TOP
62
4
100
AcDbPolyline
90
2
70
0
43
8.000000
39
8.000000
10
1804.779843
20
3623.173740
10
1805.356575
20
3623.616299
0
LWPOLYLINE
5
2E0
100
AcDbEntity
8
SILKSCREEN_TOP
62
4
100
AcDbPolyline
90
2
70
0
43
8.000000
39
8.000000
10
1805.356575
20
3623.616299
10
1805.892559
20
3624.107441
0
LWPOLYLINE
5
2E1
100
AcDbEntity
8
SILKSCREEN_TOP
62
4
100
AcDbPolyline
90
2
70
0
43
8.000000
39
8.000000
10
1805.892559
20
3624.107441
10
1806.383701
20
3624.643425
0
LWPOLYLINE
5
2E2
100
AcDbEntity
8
SILKSCREEN_TOP
62
4
100
AcDbPolyline
90
2
70
0
43
8.000000
39
8.000000
10
1806.383701
20
3624.643425
10
1806.826299
20
3625.220197
0
LWPOLYLINE
5
2E3
100
AcDbEntity
8
SILKSCREEN_TOP
62
4
100
AcDbPolyline
90
2
70
0
43
8.000000
39
8.000000
10
1806.826299
20
3625.220197
10
1807.216890
20
3625.833346
0
LWPOLYLINE
5
2E4
100
AcDbEntity
8
SILKSCREEN_TOP
62
4
100
AcDbPolyline
90
2
70
0
43
8.000000
39
8.000000
10
1807.216890
20
3625.833346
10
1807.552559
20
3626.478189
0
LWPOLYLINE
5
2E5
100
AcDbEntity
8
SILKSCREEN_TOP
62
4
100
AcDbPolyline
90
2
70
0
43
8.000000
39
8.000000
10
1807.552559
20
3626.478189
10
1807.830787
20
3627.149843
0
LWPOLYLINE
5
2E6
100
AcDbEntity
8
SILKSCREEN_TOP
62
4
100
AcDbPolyline
90
2
70
0
43
8.000000
39
8.000000
10
1807.830787
20
3627.149843
10
1808.049370
20
3627.843189
0
LWPOLYLINE
5
2E7
100
AcDbEntity
8
SILKSCREEN_TOP
62
4
100
AcDbPolyline
90
2
70
0
43
8.000000
39
8.000000
10
1808.049370
20
3627.843189
10
1808.206732
20
3628.552953
0
LWPOLYLINE
5
2E8
100
AcDbEntity
8
SILKSCREEN_TOP
62
4
100
AcDbPolyline
90
2
70
0
43
8.000000
39
8.000000
10
1808.206732
20
3628.552953
10
1808.301614
20
3629.273740
0
LWPOLYLINE
5
2E9
100
AcDbEntity
8
SILKSCREEN_TOP
62
4
100
AcDbPolyline
90
2
70
0
43
8.000000
39
8.000000
10
1808.301614
20
3629.273740
10
1808.333307
20
3629.999921
0
LWPOLYLINE
5
2EA
100
AcDbEntity
8
SILKSCREEN_TOP
62
4
100
AcDbPolyline
90
2
70
0
43
8.000000
39
8.000000
10
1691.666614
20
3655.000000
10
1691.666693
20
3630.000000
0
TEXT
5
2EB
100
AcDbEntity
8
SILKSCREEN_TOP
100
AcDbText
39
8.000000
10
1509.166654
20
3580.000000
30
0.0
40
27.777769
1
LED1
41
1.866667
7
MONOTxtStyle
50
270.000000
72
1
11
1509.166654
21
3580.000000
31
0.0
100
AcDbText
73
2
0
LWPOLYLINE
5
2EC
100
AcDbEntity
8
SILKSCREEN_TOP
62
4
100
AcDbPolyline
90
2
70
0
43
8.000000
39
8.000000
10
1805.517677
20
2320.999134
10
1810.372559
20
2327.805433
0
LWPOLYLINE
5
2ED
100
AcDbEntity
8
SILKSCREEN_TOP
62
4
100
AcDbPolyline
90
2
70
0
43
8.000000
39
8.000000
10
1810.372559
20
2327.805433
10
1814.615787
20
2335.008976
0
LWPOLYLINE
5
2EE
100
AcDbEntity
8
SILKSCREEN_TOP
62
4
100
AcDbPolyline
90
2
70
0
43
8.000000
39
8.000000
10
1814.615787
20
2335.008976
10
1818.215000
20
2342.554961
0
LWPOLYLINE
5
2EF
100
AcDbEntity
8
SILKSCREEN_TOP
62
4
100
AcDbPolyline
90
2
70
0
43
8.000000
39
8.000000
10
1818.215000
20
2342.554961
10
1821.142874
20
2350.385906
0
LWPOLYLINE
5
2F0
100
AcDbEntity
8
SILKSCREEN_TOP
62
4
100
AcDbPolyline
90
2
70
0
43
8.000000
39
8.000000
10
1821.142874
20
2350.385906
10
1823.377087
20
2358.442205
0
LWPOLYLINE
5
2F1
100
AcDbEntity
8
SILKSCREEN_TOP
62
4
100
AcDbPolyline
90
2
70
0
43
8.000000
39
8.000000
10
1823.377087
20
2358.442205
10
1824.900630
20
2366.662598
0
LWPOLYLINE
5
2F2
100
AcDbEntity
8
SILKSCREEN_TOP
62
4
100
AcDbPolyline
90
2
70
0
43
8.000000
39
8.000000
10
1824.900630
20
2366.662598
10
1825.701969
20
2374.984488
0
LWPOLYLINE
5
2F3
100
AcDbEntity
8
SILKSCREEN_TOP
62
4
100
AcDbPolyline
90
2
70
0
43
8.000000
39
8.000000
10
1825.701969
20
2374.984488
10
1825.774921
20
2383.344528
0
LWPOLYLINE
5
2F4
100
AcDbEntity
8
SILKSCREEN_TOP
62
4
100
AcDbPolyline
90
2
70
0
43
8.000000
39
8.000000
10
1825.774921
20
2383.344528
10
1825.118937
20
2391.679173
0
LWPOLYLINE
5
2F5
100
AcDbEntity
8
SILKSCREEN_TOP
62
4
100
AcDbPolyline
90
2
70
0
43
8.000000
39
8.000000
10
1825.118937
20
2391.679173
10
1823.739094
20
2399.924882
0
LWPOLYLINE
5
2F6
100
AcDbEntity
8
SILKSCREEN_TOP
62
4
100
AcDbPolyline
90
2
70
0
43
8.000000
39
8.000000
10
1823.739094
20
2399.924882
10
1821.645827
20
2408.018976
0
LWPOLYLINE
5
2F7
100
AcDbEntity
8
SILKSCREEN_TOP
62
4
100
AcDbPolyline
90
2
70
0
43
8.000000
39
8.000000
10
1821.645827
20
2408.018976
10
1818.855079
20
2415.899803
0
LWPOLYLINE
5
2F8
100
AcDbEntity
8
SILKSCREEN_TOP
62
4
100
AcDbPolyline
90
2
70
0
43
8.000000
39
8.000000
10
1818.855079
20
2415.899803
10
1815.388071
20
2423.507402
0
LWPOLYLINE
5
2F9
100
AcDbEntity
8
SILKSCREEN_TOP
62
4
100
AcDbPolyline
90
2
70
0
43
8.000000
39
8.000000
10
1815.388071
20
2423.507402
10
1811.271220
20
2430.783937
0
LWPOLYLINE
5
2FA
100
AcDbEntity
8
SILKSCREEN_TOP
62
4
100
AcDbPolyline
90
2
70
0
43
8.000000
39
8.000000
10
1811.271220
20
2430.783937
10
1806.535827
20
2437.673937
0
LWPOLYLINE
5
2FB
100
AcDbEntity
8
SILKSCREEN_TOP
62
4
100
AcDbPolyline
90
2
70
0
43
8.000000
39
8.000000
10
1806.535827
20
2437.673937
10
1801.217992
20
2444.125000
0
LWPOLYLINE
5
2FC
100
AcDbEntity
8
SILKSCREEN_TOP
62
4
100
AcDbPolyline
90
2
70
0
43
8.000000
39
8.000000
10
1801.217992
20
2444.125000
10
1795.358110
20
2450.088031
0
LWPOLYLINE
5
2FD
100
AcDbEntity
8
SILKSCREEN_TOP
62
4
100
AcDbPolyline
90
2
70
0
43
8.000000
39
8.000000
10
1795.358110
20
2450.088031
10
1789.000827
20
2455.517677
0
LWPOLYLINE
5
2FE
100
AcDbEntity
8
SILKSCREEN_TOP
62
4
100
AcDbPolyline
90
2
70
0
43
8.000000
39
8.000000
10
1789.000827
20
2455.517677
10
1782.194528
20
2460.372559
0
LWPOLYLINE
5
2FF
100
AcDbEntity
8
SILKSCREEN_TOP
62
4
100
AcDbPolyline
90
2
70
0
43
8.000000
39
8.000000
10
1782.194528
20
2460.372559
10
1774.990984
20
2464.615787
0
LWPOLYLINE
5
300
100
AcDbEntity
8
SILKSCREEN_TOP
62
4
100
AcDbPolyline
90
2
70
0
43
8.000000
39
8.000000
10
1774.990984
20
2464.615787
10
1767.445000
20
2468.215000
0
LWPOLYLINE
5
301
100
AcDbEntity
8
SILKSCREEN_TOP
62
4
100
AcDbPolyline
90
2
70
0
43
8.000000
39
8.000000
10
1767.445000
20
2468.215000
10
1759.614055
20
2471.142874
0
LWPOLYLINE
5
302
100
AcDbEntity
8
SILKSCREEN_TOP
62
4
100
AcDbPolyline
90
2
70
0
43
8.000000
39
8.000000
10
1759.614055
20
2471.142874
10
1751.557756
20
2473.377087
0
LWPOLYLINE
5
303
100
AcDbEntity
8
SILKSCREEN_TOP
62
4
100
AcDbPolyline
90
2
70
0
43
8.000000
39
8.000000
10
1751.557756
20
2473.377087
10
1743.337362
20
2474.900630
0
LWPOLYLINE
5
304
100
AcDbEntity
8
SILKSCREEN_TOP
62
4
100
AcDbPolyline
90
2
70
0
43
8.000000
39
8.000000
10
1743.337362
20
2474.900630
10
1735.015472
20
2475.701969
0
LWPOLYLINE
5
305
100
AcDbEntity
8
SILKSCREEN_TOP
62
4
100
AcDbPolyline
90
2
70
0
43
8.000000
39
8.000000
10
1735.015472
20
2475.701969
10
1726.655433
20
2475.774921
0
LWPOLYLINE
5
306
100
AcDbEntity
8
SILKSCREEN_TOP
62
4
100
AcDbPolyline
90
2
70
0
43
8.000000
39
8.000000
10
1726.655433
20
2475.774921
10
1718.320787
20
2475.118937
0
LWPOLYLINE
5
307
100
AcDbEntity
8
SILKSCREEN_TOP
62
4
100
AcDbPolyline
90
2
70
0
43
8.000000
39
8.000000
10
1718.320787
20
2475.118937
10
1710.075079
20
2473.739094
0
LWPOLYLINE
5
308
100
AcDbEntity
8
SILKSCREEN_TOP
62
4
100
AcDbPolyline
90
2
70
0
43
8.000000
39
8.000000
10
1710.075079
20
2473.739094
10
1701.980984
20
2471.645827
0
LWPOLYLINE
5
309
100
AcDbEntity
8
SILKSCREEN_TOP
62
4
100
AcDbPolyline
90
2
70
0
43
8.000000
39
8.000000
10
1701.980984
20
2471.645827
10
1694.100157
20
2468.855079
0
LWPOLYLINE
5
30A
100
AcDbEntity
8
SILKSCREEN_TOP
62
4
100
AcDbPolyline
90
2
70
0
43
8.000000
39
8.000000
10
1694.100157
20
2468.855079
10
1686.492559
20
2465.388071
0
LWPOLYLINE
5
30B
100
AcDbEntity
8
SILKSCREEN_TOP
62
4
100
AcDbPolyline
90
2
70
0
43
8.000000
39
8.000000
10
1686.492559
20
2465.388071
10
1679.216024
20
2461.271220
0
LWPOLYLINE
5
30C
100
AcDbEntity
8
SILKSCREEN_TOP
62
4
100
AcDbPolyline
90
2
70
0
43
8.000000
39
8.000000
10
1679.216024
20
2461.271220
10
1672.326024
20
2456.535827
0
LWPOLYLINE
5
30D
100
AcDbEntity
8
SILKSCREEN_TOP
62
4
100
AcDbPolyline
90
2
70
0
43
8.000000
39
8.000000
10
1672.326024
20
2456.535827
10
1665.874961
20
2451.217992
0
LWPOLYLINE
5
30E
100
AcDbEntity
8
SILKSCREEN_TOP
62
4
100
AcDbPolyline
90
2
70
0
43
8.000000
39
8.000000
10
1665.874961
20
2451.217992
10
1659.911929
20
2445.358110
0
LWPOLYLINE
5
30F
100
AcDbEntity
8
SILKSCREEN_TOP
62
4
100
AcDbPolyline
90
2
70
0
43
8.000000
39
8.000000
10
1659.911929
20
2445.358110
10
1654.482283
20
2439.000827
0
LWPOLYLINE
5
310
100
AcDbEntity
8
SILKSCREEN_TOP
62
4
100
AcDbPolyline
90
2
70
0
43
8.000000
39
8.000000
10
1654.482283
20
2439.000827
10
1649.627402
20
2432.194528
0
LWPOLYLINE
5
311
100
AcDbEntity
8
SILKSCREEN_TOP
62
4
100
AcDbPolyline
90
2
70
0
43
8.000000
39
8.000000
10
1649.627402
20
2432.194528
10
1645.384173
20
2424.990984
0
LWPOLYLINE
5
312
100
AcDbEntity
8
SILKSCREEN_TOP
62
4
100
AcDbPolyline
90
2
70
0
43
8.000000
39
8.000000
10
1645.384173
20
2424.990984
10
1641.784961
20
2417.445000
0
LWPOLYLINE
5
313
100
AcDbEntity
8
SILKSCREEN_TOP
62
4
100
AcDbPolyline
90
2
70
0
43
8.000000
39
8.000000
10
1641.784961
20
2417.445000
10
1638.857087
20
2409.614055
0
LWPOLYLINE
5
314
100
AcDbEntity
8
SILKSCREEN_TOP
62
4
100
AcDbPolyline
90
2
70
0
43
8.000000
39
8.000000
10
1638.857087
20
2409.614055
10
1636.622874
20
2401.557756
0
LWPOLYLINE
5
315
100
AcDbEntity
8
SILKSCREEN_TOP
62
4
100
AcDbPolyline
90
2
70
0
43
8.000000
39
8.000000
10
1636.622874
20
2401.557756
10
1635.099331
20
2393.337362
0
LWPOLYLINE
5
316
100
AcDbEntity
8
SILKSCREEN_TOP
62
4
100
AcDbPolyline
90
2
70
0
43
8.000000
39
8.000000
10
1635.099331
20
2393.337362
10
1634.297992
20
2385.015472
0
LWPOLYLINE
5
317
100
AcDbEntity
8
SILKSCREEN_TOP
62
4
100
AcDbPolyline
90
2
70
0
43
8.000000
39
8.000000
10
1634.297992
20
2385.015472
10
1634.225039
20
2376.655433
0
LWPOLYLINE
5
318
100
AcDbEntity
8
SILKSCREEN_TOP
62
4
100
AcDbPolyline
90
2
70
0
43
8.000000
39
8.000000
10
1634.225039
20
2376.655433
10
1634.881024
20
2368.320787
0
LWPOLYLINE
5
319
100
AcDbEntity
8
SILKSCREEN_TOP
62
4
100
AcDbPolyline
90
2
70
0
43
8.000000
39
8.000000
10
1634.881024
20
2368.320787
10
1636.260866
20
2360.075079
0
LWPOLYLINE
5
31A
100
AcDbEntity
8
SILKSCREEN_TOP
62
4
100
AcDbPolyline
90
2
70
0
43
8.000000
39
8.000000
10
1636.260866
20
2360.075079
10
1638.354134
20
2351.980984
0
LWPOLYLINE
5
31B
100
AcDbEntity
8
SILKSCREEN_TOP
62
4
100
AcDbPolyline
90
2
70
0
43
8.000000
39
8.000000
10
1638.354134
20
2351.980984
10
1641.144882
20
2344.100157
0
LWPOLYLINE
5
31C
100
AcDbEntity
8
SILKSCREEN_TOP
62
4
100
AcDbPolyline
90
2
70
0
43
8.000000
39
8.000000
10
1641.144882
20
2344.100157
10
1644.611890
20
2336.492559
0
LWPOLYLINE
5
31D
100
AcDbEntity
8
SILKSCREEN_TOP
62
4
100
AcDbPolyline
90
2
70
0
43
8.000000
39
8.000000
10
1644.611890
20
2336.492559
10
1648.728740
20
2329.216024
0
LWPOLYLINE
5
31E
100
AcDbEntity
8
SILKSCREEN_TOP
62
4
100
AcDbPolyline
90
2
70
0
43
8.000000
39
8.000000
10
1648.728740
20
2329.216024
10
1653.464134
20
2322.326024
0
LWPOLYLINE
5
31F
100
AcDbEntity
8
SILKSCREEN_TOP
62
4
100
AcDbPolyline
90
2
70
0
43
8.000000
39
8.000000
10
1653.464134
20
2322.326024
10
1654.482283
20
2320.999134
0
LWPOLYLINE
5
320
100
AcDbEntity
8
SILKSCREEN_TOP
62
4
100
AcDbPolyline
90
2
70
0
43
8.000000
39
8.000000
10
1710.000000
20
2300.000000
10
1650.000000
20
2300.000000
0
LWPOLYLINE
5
321
100
AcDbEntity
8
SILKSCREEN_TOP
62
4
100
AcDbPolyline
90
2
70
0
43
8.000000
39
8.000000
10
1805.000000
20
2320.000000
10
1655.000000
20
2320.000000
0
LWPOLYLINE
5
322
100
AcDbEntity
8
SILKSCREEN_TOP
62
4
100
AcDbPolyline
90
2
70
0
43
8.000000
39
8.000000
10
1810.000000
20
2290.000000
10
1800.000000
20
2280.000000
0
LWPOLYLINE
5
323
100
AcDbEntity
8
SILKSCREEN_TOP
62
4
100
AcDbPolyline
90
2
70
0
43
8.000000
39
8.000000
10
1810.000000
20
2300.000000
10
1810.000000
20
2290.000000
0
LWPOLYLINE
5
324
100
AcDbEntity
8
SILKSCREEN_TOP
62
4
100
AcDbPolyline
90
2
70
0
43
8.000000
39
8.000000
10
1800.000000
20
2310.000000
10
1810.000000
20
2300.000000
0
LWPOLYLINE
5
325
100
AcDbEntity
8
SILKSCREEN_TOP
62
4
100
AcDbPolyline
90
2
70
0
43
8.000000
39
8.000000
10
1770.000000
20
2310.000000
10
1780.000000
20
2300.000000
0
LWPOLYLINE
5
326
100
AcDbEntity
8
SILKSCREEN_TOP
62
4
100
AcDbPolyline
90
2
70
0
43
8.000000
39
8.000000
10
1760.000000
20
2310.000000
10
1770.000000
20
2310.000000
0
LWPOLYLINE
5
327
100
AcDbEntity
8
SILKSCREEN_TOP
62
4
100
AcDbPolyline
90
2
70
0
43
8.000000
39
8.000000
10
1780.000000
20
2300.000000
10
1780.000000
20
2290.000000
0
LWPOLYLINE
5
328
100
AcDbEntity
8
SILKSCREEN_TOP
62
4
100
AcDbPolyline
90
2
70
0
43
8.000000
39
8.000000
10
1780.000000
20
2300.000000
10
1790.000000
20
2310.000000
0
LWPOLYLINE
5
329
100
AcDbEntity
8
SILKSCREEN_TOP
62
4
100
AcDbPolyline
90
2
70
0
43
8.000000
39
8.000000
10
1790.000000
20
2310.000000
10
1800.000000
20
2310.000000
0
LWPOLYLINE
5
32A
100
AcDbEntity
8
SILKSCREEN_TOP
62
4
100
AcDbPolyline
90
2
70
0
43
8.000000
39
8.000000
10
1750.000000
20
2290.000000
10
1750.000000
20
2300.000000
0
LWPOLYLINE
5
32B
100
AcDbEntity
8
SILKSCREEN_TOP
62
4
100
AcDbPolyline
90
2
70
0
43
8.000000
39
8.000000
10
1760.000000
20
2280.000000
10
1750.000000
20
2290.000000
0
LWPOLYLINE
5
32C
100
AcDbEntity
8
SILKSCREEN_TOP
62
4
100
AcDbPolyline
90
2
70
0
43
8.000000
39
8.000000
10
1750.000000
20
2300.000000
10
1760.000000
20
2310.000000
0
LWPOLYLINE
5
32D
100
AcDbEntity
8
SILKSCREEN_TOP
62
4
100
AcDbPolyline
90
2
70
0
43
8.000000
39
8.000000
10
1710.000000
20
2310.000000
10
1710.000000
20
2290.000000
0
LWPOLYLINE
5
32E
100
AcDbEntity
8
SILKSCREEN_TOP
62
4
100
AcDbPolyline
90
2
70
0
43
8.000000
39
8.000000
10
1650.000000
20
2300.000000
10
1660.000000
20
2290.000000
0
LWPOLYLINE
5
32F
100
AcDbEntity
8
SILKSCREEN_TOP
62
4
100
AcDbPolyline
90
2
70
0
43
8.000000
39
8.000000
10
1720.000000
20
2510.000000
10
1750.000000
20
2480.000000
0
LWPOLYLINE
5
330
100
AcDbEntity
8
SILKSCREEN_TOP
62
4
100
AcDbPolyline
90
2
70
0
43
8.000000
39
8.000000
10
1760.000000
20
2480.000000
10
1760.000000
20
2510.000000
0
LWPOLYLINE
5
331
100
AcDbEntity
8
SILKSCREEN_TOP
62
4
100
AcDbPolyline
90
2
70
0
43
8.000000
39
8.000000
10
1700.000000
20
2500.000000
10
1710.000000
20
2510.000000
0
LWPOLYLINE
5
332
100
AcDbEntity
8
SILKSCREEN_TOP
62
4
100
AcDbPolyline
90
2
70
0
43
8.000000
39
8.000000
10
1700.000000
20
2490.000000
10
1700.000000
20
2500.000000
0
LWPOLYLINE
5
333
100
AcDbEntity
8
SILKSCREEN_TOP
62
4
100
AcDbPolyline
90
2
70
0
43
8.000000
39
8.000000
10
1750.000000
20
2480.000000
10
1760.000000
20
2480.000000
0
LWPOLYLINE
5
334
100
AcDbEntity
8
SILKSCREEN_TOP
62
4
100
AcDbPolyline
90
2
70
0
43
8.000000
39
8.000000
10
1710.000000
20
2480.000079
10
1700.000000
20
2490.000000
0
LWPOLYLINE
5
335
100
AcDbEntity
8
SILKSCREEN_TOP
62
4
100
AcDbPolyline
90
2
70
0
43
8.000000
39
8.000000
10
1710.000000
20
2510.000000
10
1720.000000
20
2510.000000
0
TEXT
5
336
100
AcDbEntity
8
SILKSCREEN_TOP
100
AcDbText
39
8.000000
10
1860.000000
20
2380.000000
30
0.0
40
27.777769
1
Q1
41
1.866667
7
MONOTxtStyle
50
90.000000
72
1
11
1860.000000
21
2380.000000
31
0.0
100
AcDbText
73
2
0
LWPOLYLINE
5
337
100
AcDbEntity
8
SILKSCREEN_TOP
62
4
100
AcDbPolyline
90
2
70
0
43
8.000000
39
8.000000
10
169.448819
20
2757.952756
10
342.677165
20
2757.952756
0
LWPOLYLINE
5
338
100
AcDbEntity
8
SILKSCREEN_TOP
62
4
100
AcDbPolyline
90
2
70
0
43
8.000000
39
8.000000
10
342.677165
20
2364.251969
10
173.385827
20
2364.251969
0
LWPOLYLINE
5
339
100
AcDbEntity
8
SILKSCREEN_TOP
62
4
100
AcDbPolyline
90
2
70
0
43
8.000000
39
8.000000
10
260.000000
20
2760.629843
10
260.000000
20
2832.755906
0
LWPOLYLINE
5
33A
100
AcDbEntity
8
SILKSCREEN_TOP
62
4
100
AcDbPolyline
90
2
70
0
43
8.000000
39
8.000000
10
260.000000
20
2293.385827
10
260.000000
20
2364.251969
0
LWPOLYLINE
5
33B
100
AcDbEntity
8
SILKSCREEN_TOP
62
4
100
AcDbPolyline
90
2
70
0
43
8.000000
39
8.000000
10
169.448819
20
2651.653543
10
169.448819
20
2364.251969
0
LWPOLYLINE
5
33C
100
AcDbEntity
8
SILKSCREEN_TOP
62
4
100
AcDbPolyline
90
2
70
0
43
8.000000
39
8.000000
10
169.881890
20
2716.850315
10
169.881890
20
2756.850394
0
LWPOLYLINE
5
33D
100
AcDbEntity
8
SILKSCREEN_TOP
62
4
100
AcDbPolyline
90
2
70
0
43
8.000000
39
8.000000
10
346.614173
20
2651.653543
10
346.614173
20
2364.251969
0
LWPOLYLINE
5
33E
100
AcDbEntity
8
SILKSCREEN_TOP
62
4
100
AcDbPolyline
90
2
70
0
43
8.000000
39
8.000000
10
346.614173
20
2754.645669
10
346.614173
20
2714.645669
0
LWPOLYLINE
5
33F
100
AcDbEntity
8
SILKSCREEN_TOP
62
4
100
AcDbPolyline
90
2
70
0
43
8.000000
39
8.000000
10
346.614173
20
2713.149606
10
343.999488
20
2713.035433
0
LWPOLYLINE
5
340
100
AcDbEntity
8
SILKSCREEN_TOP
62
4
100
AcDbPolyline
90
2
70
0
43
8.000000
39
8.000000
10
343.999488
20
2713.035433
10
341.404724
20
2712.693819
0
LWPOLYLINE
5
341
100
AcDbEntity
8
SILKSCREEN_TOP
62
4
100
AcDbPolyline
90
2
70
0
43
8.000000
39
8.000000
10
341.404724
20
2712.693819
10
338.849567
20
2712.127362
0
LWPOLYLINE
5
342
100
AcDbEntity
8
SILKSCREEN_TOP
62
4
100
AcDbPolyline
90
2
70
0
43
8.000000
39
8.000000
10
338.849567
20
2712.127362
10
336.353543
20
2711.340354
0
LWPOLYLINE
5
343
100
AcDbEntity
8
SILKSCREEN_TOP
62
4
100
AcDbPolyline
90
2
70
0
43
8.000000
39
8.000000
10
336.353543
20
2711.340354
10
333.935591
20
2710.338819
0
LWPOLYLINE
5
344
100
AcDbEntity
8
SILKSCREEN_TOP
62
4
100
AcDbPolyline
90
2
70
0
43
8.000000
39
8.000000
10
333.935591
20
2710.338819
10
331.614173
20
2709.130354
0
LWPOLYLINE
5
345
100
AcDbEntity
8
SILKSCREEN_TOP
62
4
100
AcDbPolyline
90
2
70
0
43
8.000000
39
8.000000
10
331.614173
20
2709.130354
10
329.406850
20
2707.724134
0
LWPOLYLINE
5
346
100
AcDbEntity
8
SILKSCREEN_TOP
62
4
100
AcDbPolyline
90
2
70
0
43
8.000000
39
8.000000
10
329.406850
20
2707.724134
10
327.330512
20
2706.130906
0
LWPOLYLINE
5
347
100
AcDbEntity
8
SILKSCREEN_TOP
62
4
100
AcDbPolyline
90
2
70
0
43
8.000000
39
8.000000
10
327.330512
20
2706.130906
10
325.400945
20
2704.362795
0
LWPOLYLINE
5
348
100
AcDbEntity
8
SILKSCREEN_TOP
62
4
100
AcDbPolyline
90
2
70
0
43
8.000000
39
8.000000
10
325.400945
20
2704.362795
10
323.632835
20
2702.433228
0
LWPOLYLINE
5
349
100
AcDbEntity
8
SILKSCREEN_TOP
62
4
100
AcDbPolyline
90
2
70
0
43
8.000000
39
8.000000
10
323.632835
20
2702.433228
10
322.039606
20
2700.356890
0
LWPOLYLINE
5
34A
100
AcDbEntity
8
SILKSCREEN_TOP
62
4
100
AcDbPolyline
90
2
70
0
43
8.000000
39
8.000000
10
322.039606
20
2700.356890
10
320.633386
20
2698.149606
0
LWPOLYLINE
5
34B
100
AcDbEntity
8
SILKSCREEN_TOP
62
4
100
AcDbPolyline
90
2
70
0
43
8.000000
39
8.000000
10
320.633386
20
2698.149606
10
319.424921
20
2695.828150
0
LWPOLYLINE
5
34C
100
AcDbEntity
8
SILKSCREEN_TOP
62
4
100
AcDbPolyline
90
2
70
0
43
8.000000
39
8.000000
10
319.424921
20
2695.828150
10
318.423386
20
2693.410197
0
LWPOLYLINE
5
34D
100
AcDbEntity
8
SILKSCREEN_TOP
62
4
100
AcDbPolyline
90
2
70
0
43
8.000000
39
8.000000
10
318.423386
20
2693.410197
10
317.636378
20
2690.914173
0
LWPOLYLINE
5
34E
100
AcDbEntity
8
SILKSCREEN_TOP
62
4
100
AcDbPolyline
90
2
70
0
43
8.000000
39
8.000000
10
317.636378
20
2690.914173
10
317.069921
20
2688.359016
0
LWPOLYLINE
5
34F
100
AcDbEntity
8
SILKSCREEN_TOP
62
4
100
AcDbPolyline
90
2
70
0
43
8.000000
39
8.000000
10
317.069921
20
2688.359016
10
316.728307
20
2685.764252
0
LWPOLYLINE
5
350
100
AcDbEntity
8
SILKSCREEN_TOP
62
4
100
AcDbPolyline
90
2
70
0
43
8.000000
39
8.000000
10
316.728307
20
2685.764252
10
316.614173
20
2683.149606
0
LWPOLYLINE
5
351
100
AcDbEntity
8
SILKSCREEN_TOP
62
4
100
AcDbPolyline
90
2
70
0
43
8.000000
39
8.000000
10
316.614173
20
2683.149606
10
316.728307
20
2680.534921
0
LWPOLYLINE
5
352
100
AcDbEntity
8
SILKSCREEN_TOP
62
4
100
AcDbPolyline
90
2
70
0
43
8.000000
39
8.000000
10
316.728307
20
2680.534921
10
317.069921
20
2677.940157
0
LWPOLYLINE
5
353
100
AcDbEntity
8
SILKSCREEN_TOP
62
4
100
AcDbPolyline
90
2
70
0
43
8.000000
39
8.000000
10
317.069921
20
2677.940157
10
317.636378
20
2675.385000
0
LWPOLYLINE
5
354
100
AcDbEntity
8
SILKSCREEN_TOP
62
4
100
AcDbPolyline
90
2
70
0
43
8.000000
39
8.000000
10
317.636378
20
2675.385000
10
318.423386
20
2672.888976
0
LWPOLYLINE
5
355
100
AcDbEntity
8
SILKSCREEN_TOP
62
4
100
AcDbPolyline
90
2
70
0
43
8.000000
39
8.000000
10
318.423386
20
2672.888976
10
319.424921
20
2670.471024
0
LWPOLYLINE
5
356
100
AcDbEntity
8
SILKSCREEN_TOP
62
4
100
AcDbPolyline
90
2
70
0
43
8.000000
39
8.000000
10
319.424921
20
2670.471024
10
320.633386
20
2668.149606
0
LWPOLYLINE
5
357
100
AcDbEntity
8
SILKSCREEN_TOP
62
4
100
AcDbPolyline
90
2
70
0
43
8.000000
39
8.000000
10
320.633386
20
2668.149606
10
322.039606
20
2665.942283
0
LWPOLYLINE
5
358
100
AcDbEntity
8
SILKSCREEN_TOP
62
4
100
AcDbPolyline
90
2
70
0
43
8.000000
39
8.000000
10
322.039606
20
2665.942283
10
323.632835
20
2663.865945
0
LWPOLYLINE
5
359
100
AcDbEntity
8
SILKSCREEN_TOP
62
4
100
AcDbPolyline
90
2
70
0
43
8.000000
39
8.000000
10
323.632835
20
2663.865945
10
325.400945
20
2661.936378
0
LWPOLYLINE
5
35A
100
AcDbEntity
8
SILKSCREEN_TOP
62
4
100
AcDbPolyline
90
2
70
0
43
8.000000
39
8.000000
10
325.400945
20
2661.936378
10
327.330512
20
2660.168268
0
LWPOLYLINE
5
35B
100
AcDbEntity
8
SILKSCREEN_TOP
62
4
100
AcDbPolyline
90
2
70
0
43
8.000000
39
8.000000
10
327.330512
20
2660.168268
10
329.406850
20
2658.575039
0
LWPOLYLINE
5
35C
100
AcDbEntity
8
SILKSCREEN_TOP
62
4
100
AcDbPolyline
90
2
70
0
43
8.000000
39
8.000000
10
329.406850
20
2658.575039
10
331.614134
20
2657.168819
0
LWPOLYLINE
5
35D
100
AcDbEntity
8
SILKSCREEN_TOP
62
4
100
AcDbPolyline
90
2
70
0
43
8.000000
39
8.000000
10
331.614134
20
2657.168819
10
333.935591
20
2655.960354
0
LWPOLYLINE
5
35E
100
AcDbEntity
8
SILKSCREEN_TOP
62
4
100
AcDbPolyline
90
2
70
0
43
8.000000
39
8.000000
10
333.935591
20
2655.960354
10
336.353543
20
2654.958819
0
LWPOLYLINE
5
35F
100
AcDbEntity
8
SILKSCREEN_TOP
62
4
100
AcDbPolyline
90
2
70
0
43
8.000000
39
8.000000
10
336.353543
20
2654.958819
10
338.849567
20
2654.171811
0
LWPOLYLINE
5
360
100
AcDbEntity
8
SILKSCREEN_TOP
62
4
100
AcDbPolyline
90
2
70
0
43
8.000000
39
8.000000
10
338.849567
20
2654.171811
10
341.404724
20
2653.605354
0
LWPOLYLINE
5
361
100
AcDbEntity
8
SILKSCREEN_TOP
62
4
100
AcDbPolyline
90
2
70
0
43
8.000000
39
8.000000
10
341.404724
20
2653.605354
10
343.999488
20
2653.263740
0
LWPOLYLINE
5
362
100
AcDbEntity
8
SILKSCREEN_TOP
62
4
100
AcDbPolyline
90
2
70
0
43
8.000000
39
8.000000
10
343.999488
20
2653.263740
10
346.614134
20
2653.149606
0
LWPOLYLINE
5
363
100
AcDbEntity
8
SILKSCREEN_TOP
62
4
100
AcDbPolyline
90
2
70
0
43
8.000000
39
8.000000
10
346.614134
20
2653.149606
10
346.614173
20
2653.149606
0
LWPOLYLINE
5
364
100
AcDbEntity
8
SILKSCREEN_TOP
62
4
100
AcDbPolyline
90
2
70
0
43
8.000000
39
8.000000
10
283.295315
20
2720.232480
10
243.295315
20
2720.232480
0
LWPOLYLINE
5
365
100
AcDbEntity
8
SILKSCREEN_TOP
62
4
100
AcDbPolyline
90
2
70
0
43
8.000000
39
8.000000
10
263.295315
20
2700.232480
10
263.295315
20
2740.232480
0
LWPOLYLINE
5
366
100
AcDbEntity
8
SILKSCREEN_TOP
62
4
100
AcDbPolyline
90
2
70
0
43
8.000000
39
8.000000
10
169.881929
20
2656.850433
10
172.496575
20
2656.964567
0
LWPOLYLINE
5
367
100
AcDbEntity
8
SILKSCREEN_TOP
62
4
100
AcDbPolyline
90
2
70
0
43
8.000000
39
8.000000
10
172.496575
20
2656.964567
10
175.091339
20
2657.306181
0
LWPOLYLINE
5
368
100
AcDbEntity
8
SILKSCREEN_TOP
62
4
100
AcDbPolyline
90
2
70
0
43
8.000000
39
8.000000
10
175.091339
20
2657.306181
10
177.646457
20
2657.872638
0
LWPOLYLINE
5
369
100
AcDbEntity
8
SILKSCREEN_TOP
62
4
100
AcDbPolyline
90
2
70
0
43
8.000000
39
8.000000
10
177.646457
20
2657.872638
10
180.142480
20
2658.659646
0
LWPOLYLINE
5
36A
100
AcDbEntity
8
SILKSCREEN_TOP
62
4
100
AcDbPolyline
90
2
70
0
43
8.000000
39
8.000000
10
180.142480
20
2658.659646
10
182.560433
20
2659.661181
0
LWPOLYLINE
5
36B
100
AcDbEntity
8
SILKSCREEN_TOP
62
4
100
AcDbPolyline
90
2
70
0
43
8.000000
39
8.000000
10
182.560433
20
2659.661181
10
184.881890
20
2660.869685
0
LWPOLYLINE
5
36C
100
AcDbEntity
8
SILKSCREEN_TOP
62
4
100
AcDbPolyline
90
2
70
0
43
8.000000
39
8.000000
10
184.881890
20
2660.869685
10
187.089173
20
2662.275866
0
LWPOLYLINE
5
36D
100
AcDbEntity
8
SILKSCREEN_TOP
62
4
100
AcDbPolyline
90
2
70
0
43
8.000000
39
8.000000
10
187.089173
20
2662.275866
10
189.165512
20
2663.869094
0
LWPOLYLINE
5
36E
100
AcDbEntity
8
SILKSCREEN_TOP
62
4
100
AcDbPolyline
90
2
70
0
43
8.000000
39
8.000000
10
189.165512
20
2663.869094
10
191.095079
20
2665.637244
0
LWPOLYLINE
5
36F
100
AcDbEntity
8
SILKSCREEN_TOP
62
4
100
AcDbPolyline
90
2
70
0
43
8.000000
39
8.000000
10
191.095079
20
2665.637244
10
192.863189
20
2667.566811
0
LWPOLYLINE
5
370
100
AcDbEntity
8
SILKSCREEN_TOP
62
4
100
AcDbPolyline
90
2
70
0
43
8.000000
39
8.000000
10
192.863189
20
2667.566811
10
194.456417
20
2669.643150
0
LWPOLYLINE
5
371
100
AcDbEntity
8
SILKSCREEN_TOP
62
4
100
AcDbPolyline
90
2
70
0
43
8.000000
39
8.000000
10
194.456417
20
2669.643150
10
195.862598
20
2671.850433
0
LWPOLYLINE
5
372
100
AcDbEntity
8
SILKSCREEN_TOP
62
4
100
AcDbPolyline
90
2
70
0
43
8.000000
39
8.000000
10
195.862598
20
2671.850433
10
197.071102
20
2674.171890
0
LWPOLYLINE
5
373
100
AcDbEntity
8
SILKSCREEN_TOP
62
4
100
AcDbPolyline
90
2
70
0
43
8.000000
39
8.000000
10
197.071102
20
2674.171890
10
198.072638
20
2676.589803
0
LWPOLYLINE
5
374
100
AcDbEntity
8
SILKSCREEN_TOP
62
4
100
AcDbPolyline
90
2
70
0
43
8.000000
39
8.000000
10
198.072638
20
2676.589803
10
198.859606
20
2679.085866
0
LWPOLYLINE
5
375
100
AcDbEntity
8
SILKSCREEN_TOP
62
4
100
AcDbPolyline
90
2
70
0
43
8.000000
39
8.000000
10
198.859606
20
2679.085866
10
199.426063
20
2681.640984
0
LWPOLYLINE
5
376
100
AcDbEntity
8
SILKSCREEN_TOP
62
4
100
AcDbPolyline
90
2
70
0
43
8.000000
39
8.000000
10
199.426063
20
2681.640984
10
199.767677
20
2684.235748
0
LWPOLYLINE
5
377
100
AcDbEntity
8
SILKSCREEN_TOP
62
4
100
AcDbPolyline
90
2
70
0
43
8.000000
39
8.000000
10
199.767677
20
2684.235748
10
199.881811
20
2686.850433
0
LWPOLYLINE
5
378
100
AcDbEntity
8
SILKSCREEN_TOP
62
4
100
AcDbPolyline
90
2
70
0
43
8.000000
39
8.000000
10
199.881811
20
2686.850433
10
199.767677
20
2689.465079
0
LWPOLYLINE
5
379
100
AcDbEntity
8
SILKSCREEN_TOP
62
4
100
AcDbPolyline
90
2
70
0
43
8.000000
39
8.000000
10
199.767677
20
2689.465079
10
199.426063
20
2692.059843
0
LWPOLYLINE
5
37A
100
AcDbEntity
8
SILKSCREEN_TOP
62
4
100
AcDbPolyline
90
2
70
0
43
8.000000
39
8.000000
10
199.426063
20
2692.059843
10
198.859606
20
2694.614961
0
LWPOLYLINE
5
37B
100
AcDbEntity
8
SILKSCREEN_TOP
62
4
100
AcDbPolyline
90
2
70
0
43
8.000000
39
8.000000
10
198.859606
20
2694.614961
10
198.072598
20
2697.110984
0
LWPOLYLINE
5
37C
100
AcDbEntity
8
SILKSCREEN_TOP
62
4
100
AcDbPolyline
90
2
70
0
43
8.000000
39
8.000000
10
198.072598
20
2697.110984
10
197.071063
20
2699.528937
0
LWPOLYLINE
5
37D
100
AcDbEntity
8
SILKSCREEN_TOP
62
4
100
AcDbPolyline
90
2
70
0
43
8.000000
39
8.000000
10
197.071063
20
2699.528937
10
195.862559
20
2701.850394
0
LWPOLYLINE
5
37E
100
AcDbEntity
8
SILKSCREEN_TOP
62
4
100
AcDbPolyline
90
2
70
0
43
8.000000
39
8.000000
10
195.862559
20
2701.850394
10
194.456378
20
2704.057677
0
LWPOLYLINE
5
37F
100
AcDbEntity
8
SILKSCREEN_TOP
62
4
100
AcDbPolyline
90
2
70
0
43
8.000000
39
8.000000
10
194.456378
20
2704.057677
10
192.863150
20
2706.134016
0
LWPOLYLINE
5
380
100
AcDbEntity
8
SILKSCREEN_TOP
62
4
100
AcDbPolyline
90
2
70
0
43
8.000000
39
8.000000
10
192.863150
20
2706.134016
10
191.095000
20
2708.063583
0
LWPOLYLINE
5
381
100
AcDbEntity
8
SILKSCREEN_TOP
62
4
100
AcDbPolyline
90
2
70
0
43
8.000000
39
8.000000
10
191.095000
20
2708.063583
10
189.165433
20
2709.831693
0
LWPOLYLINE
5
382
100
AcDbEntity
8
SILKSCREEN_TOP
62
4
100
AcDbPolyline
90
2
70
0
43
8.000000
39
8.000000
10
189.165433
20
2709.831693
10
187.089094
20
2711.424921
0
LWPOLYLINE
5
383
100
AcDbEntity
8
SILKSCREEN_TOP
62
4
100
AcDbPolyline
90
2
70
0
43
8.000000
39
8.000000
10
187.089094
20
2711.424921
10
184.881811
20
2712.831102
0
LWPOLYLINE
5
384
100
AcDbEntity
8
SILKSCREEN_TOP
62
4
100
AcDbPolyline
90
2
70
0
43
8.000000
39
8.000000
10
184.881811
20
2712.831102
10
182.560354
20
2714.039606
0
LWPOLYLINE
5
385
100
AcDbEntity
8
SILKSCREEN_TOP
62
4
100
AcDbPolyline
90
2
70
0
43
8.000000
39
8.000000
10
182.560354
20
2714.039606
10
180.142441
20
2715.041142
0
LWPOLYLINE
5
386
100
AcDbEntity
8
SILKSCREEN_TOP
62
4
100
AcDbPolyline
90
2
70
0
43
8.000000
39
8.000000
10
180.142441
20
2715.041142
10
177.646378
20
2715.828110
0
LWPOLYLINE
5
387
100
AcDbEntity
8
SILKSCREEN_TOP
62
4
100
AcDbPolyline
90
2
70
0
43
8.000000
39
8.000000
10
177.646378
20
2715.828110
10
175.091260
20
2716.394567
0
LWPOLYLINE
5
388
100
AcDbEntity
8
SILKSCREEN_TOP
62
4
100
AcDbPolyline
90
2
70
0
43
8.000000
39
8.000000
10
175.091260
20
2716.394567
10
172.496496
20
2716.736181
0
LWPOLYLINE
5
389
100
AcDbEntity
8
SILKSCREEN_TOP
62
4
100
AcDbPolyline
90
2
70
0
43
8.000000
39
8.000000
10
172.496496
20
2716.736181
10
169.881890
20
2716.850315
0
TEXT
5
38A
100
AcDbEntity
8
SILKSCREEN_TOP
100
AcDbText
39
8.000000
10
105.308386
20
2553.031496
30
0.0
40
36.745407
1
C2
41
0.995556
7
MONOTxtStyle
50
270.000000
72
1
11
105.308386
21
2553.031496
31
0.0
100
AcDbText
73
2
0
LWPOLYLINE
5
38B
100
AcDbEntity
8
SILKSCREEN_TOP
62
4
100
AcDbPolyline
90
2
70
0
43
3.937008
39
3.937008
10
526.480945
20
2853.015748
10
626.874606
20
2853.015748
0
LWPOLYLINE
5
38C
100
AcDbEntity
8
SILKSCREEN_TOP
62
4
100
AcDbPolyline
90
2
70
0
43
3.937008
39
3.937008
10
626.874606
20
2853.015748
10
626.874606
20
3128.606299
0
LWPOLYLINE
5
38D
100
AcDbEntity
8
SILKSCREEN_TOP
62
4
100
AcDbPolyline
90
2
70
0
43
3.937008
39
3.937008
10
626.874606
20
3128.606299
10
526.480945
20
3128.606299
0
LWPOLYLINE
5
38E
100
AcDbEntity
8
SILKSCREEN_TOP
62
4
100
AcDbPolyline
90
2
70
0
43
3.937008
39
3.937008
10
526.480945
20
3128.606299
10
526.480945
20
2853.015748
0
LWPOLYLINE
5
38F
100
AcDbEntity
8
SILKSCREEN_TOP
62
4
100
AcDbPolyline
90
2
70
0
43
3.937008
39
3.937008
10
577.268307
20
2790.023622
10
577.268307
20
2853.015748
0
LWPOLYLINE
5
390
100
AcDbEntity
8
SILKSCREEN_TOP
62
4
100
AcDbPolyline
90
2
70
0
43
3.937008
39
3.937008
10
577.268307
20
3128.606299
10
577.268307
20
3128.606299
0
LWPOLYLINE
5
391
100
AcDbEntity
8
SILKSCREEN_TOP
62
4
100
AcDbPolyline
90
2
70
0
43
3.937008
39
3.937008
10
577.268307
20
3128.606299
10
577.268307
20
3195.535433
0
TEXT
5
392
100
AcDbEntity
8
SILKSCREEN_TOP
100
AcDbText
39
8.000000
10
683.567520
20
2986.716535
30
0.0
40
36.745407
1
R4
41
0.995556
7
MONOTxtStyle
50
90.000000
72
1
11
683.567520
21
2986.716535
31
0.0
100
AcDbText
73
2
0
LWPOLYLINE
5
393
100
AcDbEntity
8
SILKSCREEN_TOP
62
4
100
AcDbPolyline
90
2
70
0
43
3.937008
39
3.937008
10
670.181693
20
2853.015748
10
770.575354
20
2853.015748
0
LWPOLYLINE
5
394
100
AcDbEntity
8
SILKSCREEN_TOP
62
4
100
AcDbPolyline
90
2
70
0
43
3.937008
39
3.937008
10
770.575354
20
2853.015748
10
770.575354
20
3128.606299
0
LWPOLYLINE
5
395
100
AcDbEntity
8
SILKSCREEN_TOP
62
4
100
AcDbPolyline
90
2
70
0
43
3.937008
39
3.937008
10
770.575354
20
3128.606299
10
670.181693
20
3128.606299
0
LWPOLYLINE
5
396
100
AcDbEntity
8
SILKSCREEN_TOP
62
4
100
AcDbPolyline
90
2
70
0
43
3.937008
39
3.937008
10
670.181693
20
3128.606299
10
670.181693
20
2853.015748
0
LWPOLYLINE
5
397
100
AcDbEntity
8
SILKSCREEN_TOP
62
4
100
AcDbPolyline
90
2
70
0
43
3.937008
39
3.937008
10
720.969055
20
2790.023622
10
720.969055
20
2853.015748
0
LWPOLYLINE
5
398
100
AcDbEntity
8
SILKSCREEN_TOP
62
4
100
AcDbPolyline
90
2
70
0
43
3.937008
39
3.937008
10
720.969055
20
3128.606299
10
720.969055
20
3128.606299
0
LWPOLYLINE
5
399
100
AcDbEntity
8
SILKSCREEN_TOP
62
4
100
AcDbPolyline
90
2
70
0
43
3.937008
39
3.937008
10
720.969055
20
3128.606299
10
720.969055
20
3195.535433
0
TEXT
5
39A
100
AcDbEntity
8
SILKSCREEN_TOP
100
AcDbText
39
8.000000
10
827.268268
20
2986.716535
30
0.0
40
36.745407
1
R3
41
0.995556
7
MONOTxtStyle
50
90.000000
72
1
11
827.268268
21
2986.716535
31
0.0
100
AcDbText
73
2
0
LWPOLYLINE
5
39B
100
AcDbEntity
8
SILKSCREEN_TOP
62
4
100
AcDbPolyline
90
2
70
0
43
3.937008
39
3.937008
10
1757.583189
20
2853.015748
10
1857.976850
20
2853.015748
0
LWPOLYLINE
5
39C
100
AcDbEntity
8
SILKSCREEN_TOP
62
4
100
AcDbPolyline
90
2
70
0
43
3.937008
39
3.937008
10
1857.976850
20
2853.015748
10
1857.976850
20
3128.606299
0
LWPOLYLINE
5
39D
100
AcDbEntity
8
SILKSCREEN_TOP
62
4
100
AcDbPolyline
90
2
70
0
43
3.937008
39
3.937008
10
1857.976850
20
3128.606299
10
1757.583189
20
3128.606299
0
LWPOLYLINE
5
39E
100
AcDbEntity
8
SILKSCREEN_TOP
62
4
100
AcDbPolyline
90
2
70
0
43
3.937008
39
3.937008
10
1757.583189
20
3128.606299
10
1757.583189
20
2853.015748
0
LWPOLYLINE
5
39F
100
AcDbEntity
8
SILKSCREEN_TOP
62
4
100
AcDbPolyline
90
2
70
0
43
3.937008
39
3.937008
10
1808.370551
20
2790.023622
10
1808.370551
20
2853.015748
0
LWPOLYLINE
5
3A0
100
AcDbEntity
8
SILKSCREEN_TOP
62
4
100
AcDbPolyline
90
2
70
0
43
3.937008
39
3.937008
10
1808.370551
20
3128.606299
10
1808.370551
20
3128.606299
0
LWPOLYLINE
5
3A1
100
AcDbEntity
8
SILKSCREEN_TOP
62
4
100
AcDbPolyline
90
2
70
0
43
3.937008
39
3.937008
10
1808.370551
20
3128.606299
10
1808.370551
20
3195.535433
0
TEXT
5
3A2
100
AcDbEntity
8
SILKSCREEN_TOP
100
AcDbText
39
8.000000
10
1914.669764
20
2986.716535
30
0.0
40
36.745407
1
R1
41
0.995556
7
MONOTxtStyle
50
90.000000
72
1
11
1914.669764
21
2986.716535
31
0.0
100
AcDbText
73
2
0
LWPOLYLINE
5
3A3
100
AcDbEntity
8
SILKSCREEN_TOP
62
4
100
AcDbPolyline
90
2
70
0
43
3.937008
39
3.937008
10
1613.882441
20
2853.015748
10
1714.276102
20
2853.015748
0
LWPOLYLINE
5
3A4
100
AcDbEntity
8
SILKSCREEN_TOP
62
4
100
AcDbPolyline
90
2
70
0
43
3.937008
39
3.937008
10
1714.276102
20
2853.015748
10
1714.276102
20
3128.606299
0
LWPOLYLINE
5
3A5
100
AcDbEntity
8
SILKSCREEN_TOP
62
4
100
AcDbPolyline
90
2
70
0
43
3.937008
39
3.937008
10
1714.276102
20
3128.606299
10
1613.882441
20
3128.606299
0
LWPOLYLINE
5
3A6
100
AcDbEntity
8
SILKSCREEN_TOP
62
4
100
AcDbPolyline
90
2
70
0
43
3.937008
39
3.937008
10
1613.882441
20
3128.606299
10
1613.882441
20
2853.015748
0
LWPOLYLINE
5
3A7
100
AcDbEntity
8
SILKSCREEN_TOP
62
4
100
AcDbPolyline
90
2
70
0
43
3.937008
39
3.937008
10
1664.669803
20
2790.023622
10
1664.669803
20
2853.015748
0
LWPOLYLINE
5
3A8
100
AcDbEntity
8
SILKSCREEN_TOP
62
4
100
AcDbPolyline
90
2
70
0
43
3.937008
39
3.937008
10
1664.669803
20
3128.606299
10
1664.669803
20
3128.606299
0
LWPOLYLINE
5
3A9
100
AcDbEntity
8
SILKSCREEN_TOP
62
4
100
AcDbPolyline
90
2
70
0
43
3.937008
39
3.937008
10
1664.669803
20
3128.606299
10
1664.669803
20
3195.535433
0
TEXT
5
3AA
100
AcDbEntity
8
SILKSCREEN_TOP
100
AcDbText
39
8.000000
10
1770.969016
20
2986.716535
30
0.0
40
36.745407
1
R2
41
0.995556
7
MONOTxtStyle
50
90.000000
72
1
11
1770.969016
21
2986.716535
31
0.0
100
AcDbText
73
2
0
LWPOLYLINE
5
3AB
100
AcDbEntity
8
SILKSCREEN_TOP
62
4
100
AcDbPolyline
90
2
70
0
43
8.000000
39
8.000000
10
2009.448819
20
2717.952756
10
2182.677165
20
2717.952756
0
LWPOLYLINE
5
3AC
100
AcDbEntity
8
SILKSCREEN_TOP
62
4
100
AcDbPolyline
90
2
70
0
43
8.000000
39
8.000000
10
2182.677165
20
2324.251969
10
2013.385827
20
2324.251969
0
LWPOLYLINE
5
3AD
100
AcDbEntity
8
SILKSCREEN_TOP
62
4
100
AcDbPolyline
90
2
70
0
43
8.000000
39
8.000000
10
2100.000000
20
2720.629843
10
2100.000000
20
2792.755906
0
LWPOLYLINE
5
3AE
100
AcDbEntity
8
SILKSCREEN_TOP
62
4
100
AcDbPolyline
90
2
70
0
43
8.000000
39
8.000000
10
2100.000000
20
2253.385827
10
2100.000000
20
2324.251969
0
LWPOLYLINE
5
3AF
100
AcDbEntity
8
SILKSCREEN_TOP
62
4
100
AcDbPolyline
90
2
70
0
43
8.000000
39
8.000000
10
2009.448819
20
2611.653543
10
2009.448819
20
2324.251969
0
LWPOLYLINE
5
3B0
100
AcDbEntity
8
SILKSCREEN_TOP
62
4
100
AcDbPolyline
90
2
70
0
43
8.000000
39
8.000000
10
2009.881890
20
2676.850315
10
2009.881890
20
2716.850394
0
LWPOLYLINE
5
3B1
100
AcDbEntity
8
SILKSCREEN_TOP
62
4
100
AcDbPolyline
90
2
70
0
43
8.000000
39
8.000000
10
2186.614173
20
2611.653543
10
2186.614173
20
2324.251969
0
LWPOLYLINE
5
3B2
100
AcDbEntity
8
SILKSCREEN_TOP
62
4
100
AcDbPolyline
90
2
70
0
43
8.000000
39
8.000000
10
2186.614173
20
2714.645669
10
2186.614173
20
2674.645669
0
LWPOLYLINE
5
3B3
100
AcDbEntity
8
SILKSCREEN_TOP
62
4
100
AcDbPolyline
90
2
70
0
43
8.000000
39
8.000000
10
2186.614173
20
2673.149606
10
2183.999488
20
2673.035433
0
LWPOLYLINE
5
3B4
100
AcDbEntity
8
SILKSCREEN_TOP
62
4
100
AcDbPolyline
90
2
70
0
43
8.000000
39
8.000000
10
2183.999488
20
2673.035433
10
2181.404724
20
2672.693819
0
LWPOLYLINE
5
3B5
100
AcDbEntity
8
SILKSCREEN_TOP
62
4
100
AcDbPolyline
90
2
70
0
43
8.000000
39
8.000000
10
2181.404724
20
2672.693819
10
2178.849567
20
2672.127362
0
LWPOLYLINE
5
3B6
100
AcDbEntity
8
SILKSCREEN_TOP
62
4
100
AcDbPolyline
90
2
70
0
43
8.000000
39
8.000000
10
2178.849567
20
2672.127362
10
2176.353543
20
2671.340354
0
LWPOLYLINE
5
3B7
100
AcDbEntity
8
SILKSCREEN_TOP
62
4
100
AcDbPolyline
90
2
70
0
43
8.000000
39
8.000000
10
2176.353543
20
2671.340354
10
2173.935591
20
2670.338819
0
LWPOLYLINE
5
3B8
100
AcDbEntity
8
SILKSCREEN_TOP
62
4
100
AcDbPolyline
90
2
70
0
43
8.000000
39
8.000000
10
2173.935591
20
2670.338819
10
2171.614173
20
2669.130354
0
LWPOLYLINE
5
3B9
100
AcDbEntity
8
SILKSCREEN_TOP
62
4
100
AcDbPolyline
90
2
70
0
43
8.000000
39
8.000000
10
2171.614173
20
2669.130354
10
2169.406850
20
2667.724134
0
LWPOLYLINE
5
3BA
100
AcDbEntity
8
SILKSCREEN_TOP
62
4
100
AcDbPolyline
90
2
70
0
43
8.000000
39
8.000000
10
2169.406850
20
2667.724134
10
2167.330512
20
2666.130906
0
LWPOLYLINE
5
3BB
100
AcDbEntity
8
SILKSCREEN_TOP
62
4
100
AcDbPolyline
90
2
70
0
43
8.000000
39
8.000000
10
2167.330512
20
2666.130906
10
2165.400945
20
2664.362795
0
LWPOLYLINE
5
3BC
100
AcDbEntity
8
SILKSCREEN_TOP
62
4
100
AcDbPolyline
90
2
70
0
43
8.000000
39
8.000000
10
2165.400945
20
2664.362795
10
2163.632835
20
2662.433228
0
LWPOLYLINE
5
3BD
100
AcDbEntity
8
SILKSCREEN_TOP
62
4
100
AcDbPolyline
90
2
70
0
43
8.000000
39
8.000000
10
2163.632835
20
2662.433228
10
2162.039606
20
2660.356890
0
LWPOLYLINE
5
3BE
100
AcDbEntity
8
SILKSCREEN_TOP
62
4
100
AcDbPolyline
90
2
70
0
43
8.000000
39
8.000000
10
2162.039606
20
2660.356890
10
2160.633386
20
2658.149606
0
LWPOLYLINE
5
3BF
100
AcDbEntity
8
SILKSCREEN_TOP
62
4
100
AcDbPolyline
90
2
70
0
43
8.000000
39
8.000000
10
2160.633386
20
2658.149606
10
2159.424921
20
2655.828150
0
LWPOLYLINE
5
3C0
100
AcDbEntity
8
SILKSCREEN_TOP
62
4
100
AcDbPolyline
90
2
70
0
43
8.000000
39
8.000000
10
2159.424921
20
2655.828150
10
2158.423386
20
2653.410197
0
LWPOLYLINE
5
3C1
100
AcDbEntity
8
SILKSCREEN_TOP
62
4
100
AcDbPolyline
90
2
70
0
43
8.000000
39
8.000000
10
2158.423386
20
2653.410197
10
2157.636378
20
2650.914173
0
LWPOLYLINE
5
3C2
100
AcDbEntity
8
SILKSCREEN_TOP
62
4
100
AcDbPolyline
90
2
70
0
43
8.000000
39
8.000000
10
2157.636378
20
2650.914173
10
2157.069921
20
2648.359016
0
LWPOLYLINE
5
3C3
100
AcDbEntity
8
SILKSCREEN_TOP
62
4
100
AcDbPolyline
90
2
70
0
43
8.000000
39
8.000000
10
2157.069921
20
2648.359016
10
2156.728307
20
2645.764252
0
LWPOLYLINE
5
3C4
100
AcDbEntity
8
SILKSCREEN_TOP
62
4
100
AcDbPolyline
90
2
70
0
43
8.000000
39
8.000000
10
2156.728307
20
2645.764252
10
2156.614173
20
2643.149606
0
LWPOLYLINE
5
3C5
100
AcDbEntity
8
SILKSCREEN_TOP
62
4
100
AcDbPolyline
90
2
70
0
43
8.000000
39
8.000000
10
2156.614173
20
2643.149606
10
2156.728307
20
2640.534921
0
LWPOLYLINE
5
3C6
100
AcDbEntity
8
SILKSCREEN_TOP
62
4
100
AcDbPolyline
90
2
70
0
43
8.000000
39
8.000000
10
2156.728307
20
2640.534921
10
2157.069921
20
2637.940157
0
LWPOLYLINE
5
3C7
100
AcDbEntity
8
SILKSCREEN_TOP
62
4
100
AcDbPolyline
90
2
70
0
43
8.000000
39
8.000000
10
2157.069921
20
2637.940157
10
2157.636378
20
2635.385000
0
LWPOLYLINE
5
3C8
100
AcDbEntity
8
SILKSCREEN_TOP
62
4
100
AcDbPolyline
90
2
70
0
43
8.000000
39
8.000000
10
2157.636378
20
2635.385000
10
2158.423386
20
2632.888976
0
LWPOLYLINE
5
3C9
100
AcDbEntity
8
SILKSCREEN_TOP
62
4
100
AcDbPolyline
90
2
70
0
43
8.000000
39
8.000000
10
2158.423386
20
2632.888976
10
2159.424921
20
2630.471024
0
LWPOLYLINE
5
3CA
100
AcDbEntity
8
SILKSCREEN_TOP
62
4
100
AcDbPolyline
90
2
70
0
43
8.000000
39
8.000000
10
2159.424921
20
2630.471024
10
2160.633386
20
2628.149606
0
LWPOLYLINE
5
3CB
100
AcDbEntity
8
SILKSCREEN_TOP
62
4
100
AcDbPolyline
90
2
70
0
43
8.000000
39
8.000000
10
2160.633386
20
2628.149606
10
2162.039606
20
2625.942283
0
LWPOLYLINE
5
3CC
100
AcDbEntity
8
SILKSCREEN_TOP
62
4
100
AcDbPolyline
90
2
70
0
43
8.000000
39
8.000000
10
2162.039606
20
2625.942283
10
2163.632835
20
2623.865945
0
LWPOLYLINE
5
3CD
100
AcDbEntity
8
SILKSCREEN_TOP
62
4
100
AcDbPolyline
90
2
70
0
43
8.000000
39
8.000000
10
2163.632835
20
2623.865945
10
2165.400945
20
2621.936378
0
LWPOLYLINE
5
3CE
100
AcDbEntity
8
SILKSCREEN_TOP
62
4
100
AcDbPolyline
90
2
70
0
43
8.000000
39
8.000000
10
2165.400945
20
2621.936378
10
2167.330512
20
2620.168268
0
LWPOLYLINE
5
3CF
100
AcDbEntity
8
SILKSCREEN_TOP
62
4
100
AcDbPolyline
90
2
70
0
43
8.000000
39
8.000000
10
2167.330512
20
2620.168268
10
2169.406850
20
2618.575039
0
LWPOLYLINE
5
3D0
100
AcDbEntity
8
SILKSCREEN_TOP
62
4
100
AcDbPolyline
90
2
70
0
43
8.000000
39
8.000000
10
2169.406850
20
2618.575039
10
2171.614173
20
2617.168819
0
LWPOLYLINE
5
3D1
100
AcDbEntity
8
SILKSCREEN_TOP
62
4
100
AcDbPolyline
90
2
70
0
43
8.000000
39
8.000000
10
2171.614173
20
2617.168819
10
2173.935591
20
2615.960354
0
LWPOLYLINE
5
3D2
100
AcDbEntity
8
SILKSCREEN_TOP
62
4
100
AcDbPolyline
90
2
70
0
43
8.000000
39
8.000000
10
2173.935591
20
2615.960354
10
2176.353543
20
2614.958819
0
LWPOLYLINE
5
3D3
100
AcDbEntity
8
SILKSCREEN_TOP
62
4
100
AcDbPolyline
90
2
70
0
43
8.000000
39
8.000000
10
2176.353543
20
2614.958819
10
2178.849567
20
2614.171811
0
LWPOLYLINE
5
3D4
100
AcDbEntity
8
SILKSCREEN_TOP
62
4
100
AcDbPolyline
90
2
70
0
43
8.000000
39
8.000000
10
2178.849567
20
2614.171811
10
2181.404724
20
2613.605354
0
LWPOLYLINE
5
3D5
100
AcDbEntity
8
SILKSCREEN_TOP
62
4
100
AcDbPolyline
90
2
70
0
43
8.000000
39
8.000000
10
2181.404724
20
2613.605354
10
2183.999488
20
2613.263740
0
LWPOLYLINE
5
3D6
100
AcDbEntity
8
SILKSCREEN_TOP
62
4
100
AcDbPolyline
90
2
70
0
43
8.000000
39
8.000000
10
2183.999488
20
2613.263740
10
2186.614173
20
2613.149606
0
LWPOLYLINE
5
3D7
100
AcDbEntity
8
SILKSCREEN_TOP
62
4
100
AcDbPolyline
90
2
70
0
43
8.000000
39
8.000000
10
2186.614173
20
2613.149606
10
2186.614173
20
2613.149606
0
LWPOLYLINE
5
3D8
100
AcDbEntity
8
SILKSCREEN_TOP
62
4
100
AcDbPolyline
90
2
70
0
43
8.000000
39
8.000000
10
2123.295315
20
2680.232480
10
2083.295315
20
2680.232480
0
LWPOLYLINE
5
3D9
100
AcDbEntity
8
SILKSCREEN_TOP
62
4
100
AcDbPolyline
90
2
70
0
43
8.000000
39
8.000000
10
2103.295315
20
2660.232480
10
2103.295315
20
2700.232480
0
LWPOLYLINE
5
3DA
100
AcDbEntity
8
SILKSCREEN_TOP
62
4
100
AcDbPolyline
90
2
70
0
43
8.000000
39
8.000000
10
2009.881929
20
2616.850433
10
2012.496575
20
2616.964567
0
LWPOLYLINE
5
3DB
100
AcDbEntity
8
SILKSCREEN_TOP
62
4
100
AcDbPolyline
90
2
70
0
43
8.000000
39
8.000000
10
2012.496575
20
2616.964567
10
2015.091339
20
2617.306181
0
LWPOLYLINE
5
3DC
100
AcDbEntity
8
SILKSCREEN_TOP
62
4
100
AcDbPolyline
90
2
70
0
43
8.000000
39
8.000000
10
2015.091339
20
2617.306181
10
2017.646457
20
2617.872638
0
LWPOLYLINE
5
3DD
100
AcDbEntity
8
SILKSCREEN_TOP
62
4
100
AcDbPolyline
90
2
70
0
43
8.000000
39
8.000000
10
2017.646457
20
2617.872638
10
2020.142480
20
2618.659646
0
LWPOLYLINE
5
3DE
100
AcDbEntity
8
SILKSCREEN_TOP
62
4
100
AcDbPolyline
90
2
70
0
43
8.000000
39
8.000000
10
2020.142480
20
2618.659646
10
2022.560433
20
2619.661181
0
LWPOLYLINE
5
3DF
100
AcDbEntity
8
SILKSCREEN_TOP
62
4
100
AcDbPolyline
90
2
70
0
43
8.000000
39
8.000000
10
2022.560433
20
2619.661181
10
2024.881890
20
2620.869685
0
LWPOLYLINE
5
3E0
100
AcDbEntity
8
SILKSCREEN_TOP
62
4
100
AcDbPolyline
90
2
70
0
43
8.000000
39
8.000000
10
2024.881890
20
2620.869685
10
2027.089173
20
2622.275866
0
LWPOLYLINE
5
3E1
100
AcDbEntity
8
SILKSCREEN_TOP
62
4
100
AcDbPolyline
90
2
70
0
43
8.000000
39
8.000000
10
2027.089173
20
2622.275866
10
2029.165512
20
2623.869094
0
LWPOLYLINE
5
3E2
100
AcDbEntity
8
SILKSCREEN_TOP
62
4
100
AcDbPolyline
90
2
70
0
43
8.000000
39
8.000000
10
2029.165512
20
2623.869094
10
2031.095079
20
2625.637244
0
LWPOLYLINE
5
3E3
100
AcDbEntity
8
SILKSCREEN_TOP
62
4
100
AcDbPolyline
90
2
70
0
43
8.000000
39
8.000000
10
2031.095079
20
2625.637244
10
2032.863189
20
2627.566811
0
LWPOLYLINE
5
3E4
100
AcDbEntity
8
SILKSCREEN_TOP
62
4
100
AcDbPolyline
90
2
70
0
43
8.000000
39
8.000000
10
2032.863189
20
2627.566811
10
2034.456417
20
2629.643150
0
LWPOLYLINE
5
3E5
100
AcDbEntity
8
SILKSCREEN_TOP
62
4
100
AcDbPolyline
90
2
70
0
43
8.000000
39
8.000000
10
2034.456417
20
2629.643150
10
2035.862598
20
2631.850433
0
LWPOLYLINE
5
3E6
100
AcDbEntity
8
SILKSCREEN_TOP
62
4
100
AcDbPolyline
90
2
70
0
43
8.000000
39
8.000000
10
2035.862598
20
2631.850433
10
2037.071102
20
2634.171890
0
LWPOLYLINE
5
3E7
100
AcDbEntity
8
SILKSCREEN_TOP
62
4
100
AcDbPolyline
90
2
70
0
43
8.000000
39
8.000000
10
2037.071102
20
2634.171890
10
2038.072638
20
2636.589803
0
LWPOLYLINE
5
3E8
100
AcDbEntity
8
SILKSCREEN_TOP
62
4
100
AcDbPolyline
90
2
70
0
43
8.000000
39
8.000000
10
2038.072638
20
2636.589803
10
2038.859606
20
2639.085866
0
LWPOLYLINE
5
3E9
100
AcDbEntity
8
SILKSCREEN_TOP
62
4
100
AcDbPolyline
90
2
70
0
43
8.000000
39
8.000000
10
2038.859606
20
2639.085866
10
2039.426063
20
2641.640984
0
LWPOLYLINE
5
3EA
100
AcDbEntity
8
SILKSCREEN_TOP
62
4
100
AcDbPolyline
90
2
70
0
43
8.000000
39
8.000000
10
2039.426063
20
2641.640984
10
2039.767677
20
2644.235748
0
LWPOLYLINE
5
3EB
100
AcDbEntity
8
SILKSCREEN_TOP
62
4
100
AcDbPolyline
90
2
70
0
43
8.000000
39
8.000000
10
2039.767677
20
2644.235748
10
2039.881811
20
2646.850433
0
LWPOLYLINE
5
3EC
100
AcDbEntity
8
SILKSCREEN_TOP
62
4
100
AcDbPolyline
90
2
70
0
43
8.000000
39
8.000000
10
2039.881811
20
2646.850433
10
2039.767677
20
2649.465079
0
LWPOLYLINE
5
3ED
100
AcDbEntity
8
SILKSCREEN_TOP
62
4
100
AcDbPolyline
90
2
70
0
43
8.000000
39
8.000000
10
2039.767677
20
2649.465079
10
2039.426063
20
2652.059843
0
LWPOLYLINE
5
3EE
100
AcDbEntity
8
SILKSCREEN_TOP
62
4
100
AcDbPolyline
90
2
70
0
43
8.000000
39
8.000000
10
2039.426063
20
2652.059843
10
2038.859606
20
2654.614961
0
LWPOLYLINE
5
3EF
100
AcDbEntity
8
SILKSCREEN_TOP
62
4
100
AcDbPolyline
90
2
70
0
43
8.000000
39
8.000000
10
2038.859606
20
2654.614961
10
2038.072598
20
2657.110984
0
LWPOLYLINE
5
3F0
100
AcDbEntity
8
SILKSCREEN_TOP
62
4
100
AcDbPolyline
90
2
70
0
43
8.000000
39
8.000000
10
2038.072598
20
2657.110984
10
2037.071063
20
2659.528937
0
LWPOLYLINE
5
3F1
100
AcDbEntity
8
SILKSCREEN_TOP
62
4
100
AcDbPolyline
90
2
70
0
43
8.000000
39
8.000000
10
2037.071063
20
2659.528937
10
2035.862559
20
2661.850394
0
LWPOLYLINE
5
3F2
100
AcDbEntity
8
SILKSCREEN_TOP
62
4
100
AcDbPolyline
90
2
70
0
43
8.000000
39
8.000000
10
2035.862559
20
2661.850394
10
2034.456378
20
2664.057677
0
LWPOLYLINE
5
3F3
100
AcDbEntity
8
SILKSCREEN_TOP
62
4
100
AcDbPolyline
90
2
70
0
43
8.000000
39
8.000000
10
2034.456378
20
2664.057677
10
2032.863150
20
2666.134016
0
LWPOLYLINE
5
3F4
100
AcDbEntity
8
SILKSCREEN_TOP
62
4
100
AcDbPolyline
90
2
70
0
43
8.000000
39
8.000000
10
2032.863150
20
2666.134016
10
2031.095000
20
2668.063583
0
LWPOLYLINE
5
3F5
100
AcDbEntity
8
SILKSCREEN_TOP
62
4
100
AcDbPolyline
90
2
70
0
43
8.000000
39
8.000000
10
2031.095000
20
2668.063583
10
2029.165433
20
2669.831693
0
LWPOLYLINE
5
3F6
100
AcDbEntity
8
SILKSCREEN_TOP
62
4
100
AcDbPolyline
90
2
70
0
43
8.000000
39
8.000000
10
2029.165433
20
2669.831693
10
2027.089094
20
2671.424921
0
LWPOLYLINE
5
3F7
100
AcDbEntity
8
SILKSCREEN_TOP
62
4
100
AcDbPolyline
90
2
70
0
43
8.000000
39
8.000000
10
2027.089094
20
2671.424921
10
2024.881811
20
2672.831102
0
LWPOLYLINE
5
3F8
100
AcDbEntity
8
SILKSCREEN_TOP
62
4
100
AcDbPolyline
90
2
70
0
43
8.000000
39
8.000000
10
2024.881811
20
2672.831102
10
2022.560354
20
2674.039606
0
LWPOLYLINE
5
3F9
100
AcDbEntity
8
SILKSCREEN_TOP
62
4
100
AcDbPolyline
90
2
70
0
43
8.000000
39
8.000000
10
2022.560354
20
2674.039606
10
2020.142441
20
2675.041142
0
LWPOLYLINE
5
3FA
100
AcDbEntity
8
SILKSCREEN_TOP
62
4
100
AcDbPolyline
90
2
70
0
43
8.000000
39
8.000000
10
2020.142441
20
2675.041142
10
2017.646378
20
2675.828110
0
LWPOLYLINE
5
3FB
100
AcDbEntity
8
SILKSCREEN_TOP
62
4
100
AcDbPolyline
90
2
70
0
43
8.000000
39
8.000000
10
2017.646378
20
2675.828110
10
2015.091260
20
2676.394567
0
LWPOLYLINE
5
3FC
100
AcDbEntity
8
SILKSCREEN_TOP
62
4
100
AcDbPolyline
90
2
70
0
43
8.000000
39
8.000000
10
2015.091260
20
2676.394567
10
2012.496496
20
2676.736181
0
LWPOLYLINE
5
3FD
100
AcDbEntity
8
SILKSCREEN_TOP
62
4
100
AcDbPolyline
90
2
70
0
43
8.000000
39
8.000000
10
2012.496496
20
2676.736181
10
2009.881890
20
2676.850315
0
TEXT
5
3FE
100
AcDbEntity
8
SILKSCREEN_TOP
100
AcDbText
39
8.000000
10
1945.308386
20
2513.031496
30
0.0
40
36.745407
1
C1
41
0.995556
7
MONOTxtStyle
50
270.000000
72
1
11
1945.308386
21
2513.031496
31
0.0
100
AcDbText
73
2
0
ENDSEC
0
SECTION
2
OBJECTS
0
DICTIONARY
5
3FF
100
AcDbDictionary
3
ACAD_GROUP
350
400
3
ACAD_LAYOUT
350
401
3
ACAD_MLINESTYLE
350
402
0
DICTIONARY
5
400
100
AcDbDictionary
0
DICTIONARY
5
401
100
AcDbDictionary
0
DICTIONARY
5
402
100
AcDbDictionary
3
STANDARD
350
403
0
MLINESTYLE
5
403
100
AcDbMlineStyle
2
Standard
70
0
3

62
256
51
90.0
52
90.0
71
2
49
0.5
62
256
6
BYLAYER
49
-0.5
62
256
6
BYLAYER
0
ENDSEC
0
EOF
