999
DXF created by UltiBoard 14.2.0.0
0
SECTION
2
HEADER
9
$ACADVER
1
AC1014
9
$EXTMIN
10
-290.041378
20
979.979370
30
0.0
9
$EXTMAX
10
3860.014173
20
4220.001890
30
0.0
9
$LUNITS
70
2
9
$HANDSEED
5
179
0
ENDSEC
0
SECTION
2
TABLES
0
TABLE
2
VPORT
5
1
100
AcDbSymbolTable
70
1
0
VPORT
5
2
100
AcDbSymbolTableRecord
100
AcDbViewportTableRecord
2
*ACTIVE
70
0
0
ENDTAB
0
TABLE
2
LTYPE
5
3
100
AcDbSymbolTable
70
1
0
LTYPE
5
4
100
AcDbSymbolTableRecord
100
AcDbLinetypeTableRecord
2
BYBLOCK
70
0
3

72
65
73
0
40
0.0
0
LTYPE
5
5
100
AcDbSymbolTableRecord
100
AcDbLinetypeTableRecord
2
BYLAYER
70
0
3

72
65
73
0
40
0.0
0
LTYPE
5
6
100
AcDbSymbolTableRecord
100
AcDbLinetypeTableRecord
2
CONTINUOUS
70
0
3
Solid line
72
65
73
0
40
0.0
0
ENDTAB
0
TABLE
2
LAYER
5
7
100
AcDbSymbolTable
70
3
0
LAYER
5
8
100
AcDbSymbolTableRecord
100
AcDbLayerTableRecord
2
0
70
0
62
7
6
CONTINUOUS
0
LAYER
5
9
100
AcDbSymbolTableRecord
100
AcDbLayerTableRecord
2
COPPER_BOTTOM
70
0
62
1
6
CONTINUOUS
0
LAYER
5
A
100
AcDbSymbolTableRecord
100
AcDbLayerTableRecord
2
DRILL
70
0
62
255
6
CONTINUOUS
0
ENDTAB
0
TABLE
2
STYLE
5
B
100
AcDbSymbolTable
70
2
0
STYLE
5
C
100
AcDbSymbolTableRecord
100
AcDbTextStyleTableRecord
2
MONOTxtStyle
70
0
40
0.0
41
1.0
50
0.0
71
0
42
0.2
3
monotxt
4

0
STYLE
5
D
100
AcDbSymbolTableRecord
100
AcDbTextStyleTableRecord
2
MONOTxtStyle_M
70
0
40
0.0
41
1.0
50
0.0
71
2
42
0.2
3
monotxt
4

0
ENDTAB
0
TABLE
2
VIEW
5
E
100
AcDbSymbolTable
70
0
0
ENDTAB
0
TABLE
2
UCS
5
F
100
AcDbSymbolTable
70
0
0
ENDTAB
0
TABLE
2
APPID
5
10
100
AcDbSymbolTable
70
1
0
APPID
5
11
100
AcDbSymbolTableRecord
100
AcDbRegAppTableRecord
2
ACAD
70
0
0
ENDTAB
0
TABLE
2
DIMSTYLE
5
12
100
AcDbSymbolTable
70
1
0
DIMSTYLE
105
13
100
AcDbSymbolTableRecord
100
AcDbDimStyleTableRecord
2
STANDARD
70
0
0
ENDTAB
0
TABLE
2
BLOCK_RECORD
5
14
100
AcDbSymbolTable
70
0
0
BLOCK_RECORD
5
15
100
AcDbSymbolTableRecord
100
AcDbBlockTableRecord
2
*MODEL_SPACE
0
BLOCK_RECORD
5
16
100
AcDbSymbolTableRecord
100
AcDbBlockTableRecord
2
*PAPER_SPACE
0
ENDTAB
0
ENDSEC
0
SECTION
2
BLOCKS
0
BLOCK
5
17
100
AcDbEntity
8
0
100
AcDbBlockBegin
2
*MODEL_SPACE
70
0
0
ENDBLK
5
18
100
AcDbEntity
8
0
100
AcDbBlockEnd
0
BLOCK
5
19
100
AcDbEntity
8
0
100
AcDbBlockBegin
2
*PAPER_SPACE
70
0
0
ENDBLK
5
1A
100
AcDbEntity
8
0
100
AcDbBlockEnd
0
ENDSEC
0
SECTION
2
ENTITIES
0
HATCH
5
1B
100
AcDbEntity
8
COPPER_BOTTOM
100
AcDbHatch
10
0.0
20
0.0
30
0.0
210
0.0
220
0.0
230
1.0
2
SOLID
70
1
71
0
91
2
92
1
93
1
72
2
10
2860.000000
20
3720.000000
40
30.250000
50
0.000000
51
360.000000
73
1
97
0
92
1
93
1
72
2
10
2860.000000
20
3720.000000
40
23.250000
50
0.000000
51
360.000000
73
1
97
0
75
0
76
0
98
1
10
0.0
20
0.0
0
HATCH
5
1C
100
AcDbEntity
8
COPPER_BOTTOM
100
AcDbHatch
10
0.0
20
0.0
30
0.0
210
0.0
220
0.0
230
1.0
2
SOLID
70
1
71
0
91
2
92
1
93
1
72
2
10
2860.000000
20
1560.000000
40
30.250000
50
0.000000
51
360.000000
73
1
97
0
92
1
93
1
72
2
10
2860.000000
20
1560.000000
40
23.250000
50
0.000000
51
360.000000
73
1
97
0
75
0
76
0
98
1
10
0.0
20
0.0
0
HATCH
5
1D
100
AcDbEntity
8
COPPER_BOTTOM
100
AcDbHatch
10
0.0
20
0.0
30
0.0
210
0.0
220
0.0
230
1.0
2
SOLID
70
1
71
0
91
2
92
1
93
1
72
2
10
680.000000
20
3600.000000
40
31.670000
50
0.000000
51
360.000000
73
1
97
0
92
1
93
1
72
2
10
680.000000
20
3600.000000
40
17.500000
50
0.000000
51
360.000000
73
1
97
0
75
0
76
0
98
1
10
0.0
20
0.0
0
HATCH
5
1E
100
AcDbEntity
8
COPPER_BOTTOM
100
AcDbHatch
10
0.0
20
0.0
30
0.0
210
0.0
220
0.0
230
1.0
2
SOLID
70
1
71
0
91
2
92
1
93
1
72
2
10
580.000000
20
3600.000000
40
31.670000
50
0.000000
51
360.000000
73
1
97
0
92
1
93
1
72
2
10
580.000000
20
3600.000000
40
17.500000
50
0.000000
51
360.000000
73
1
97
0
75
0
76
0
98
1
10
0.0
20
0.0
0
HATCH
5
1F
100
AcDbEntity
8
COPPER_BOTTOM
100
AcDbHatch
10
0.0
20
0.0
30
0.0
210
0.0
220
0.0
230
1.0
2
SOLID
70
1
71
0
91
2
92
1
93
1
72
2
10
645.000000
20
2405.000000
40
27.500000
50
0.000000
51
360.000000
73
1
97
0
92
1
93
1
72
2
10
645.000000
20
2405.000000
40
20.000000
50
0.000000
51
360.000000
73
1
97
0
75
0
76
0
98
1
10
0.0
20
0.0
0
HATCH
5
20
100
AcDbEntity
8
COPPER_BOTTOM
100
AcDbHatch
10
0.0
20
0.0
30
0.0
210
0.0
220
0.0
230
1.0
2
SOLID
70
1
71
0
91
2
92
1
93
1
72
2
10
745.000000
20
2405.000000
40
27.500000
50
0.000000
51
360.000000
73
1
97
0
92
1
93
1
72
2
10
745.000000
20
2405.000000
40
20.000000
50
0.000000
51
360.000000
73
1
97
0
75
0
76
0
98
1
10
0.0
20
0.0
0
HATCH
5
21
100
AcDbEntity
8
COPPER_BOTTOM
100
AcDbHatch
10
0.0
20
0.0
30
0.0
210
0.0
220
0.0
230
1.0
2
SOLID
70
1
71
0
91
2
92
1
93
1
72
2
10
695.000000
20
2355.000000
40
27.500000
50
0.000000
51
360.000000
73
1
97
0
92
1
93
1
72
2
10
695.000000
20
2355.000000
40
20.000000
50
0.000000
51
360.000000
73
1
97
0
75
0
76
0
98
1
10
0.0
20
0.0
0
HATCH
5
22
100
AcDbEntity
8
COPPER_BOTTOM
100
AcDbHatch
10
0.0
20
0.0
30
0.0
210
0.0
220
0.0
230
1.0
2
SOLID
70
1
71
0
91
2
92
1
93
1
72
2
10
1700.000000
20
3580.000000
40
31.670000
50
0.000000
51
360.000000
73
1
97
0
92
1
93
1
72
2
10
1700.000000
20
3580.000000
40
17.500000
50
0.000000
51
360.000000
73
1
97
0
75
0
76
0
98
1
10
0.0
20
0.0
0
HATCH
5
23
100
AcDbEntity
8
COPPER_BOTTOM
100
AcDbHatch
10
0.0
20
0.0
30
0.0
210
0.0
220
0.0
230
1.0
2
SOLID
70
1
71
0
91
2
92
1
93
1
72
2
10
1800.000000
20
3580.000000
40
31.670000
50
0.000000
51
360.000000
73
1
97
0
92
1
93
1
72
2
10
1800.000000
20
3580.000000
40
17.500000
50
0.000000
51
360.000000
73
1
97
0
75
0
76
0
98
1
10
0.0
20
0.0
0
HATCH
5
24
100
AcDbEntity
8
COPPER_BOTTOM
100
AcDbHatch
10
0.0
20
0.0
30
0.0
210
0.0
220
0.0
230
1.0
2
SOLID
70
1
71
0
91
2
92
1
93
1
72
2
10
1680.000000
20
2380.000000
40
27.500000
50
0.000000
51
360.000000
73
1
97
0
92
1
93
1
72
2
10
1680.000000
20
2380.000000
40
20.000000
50
0.000000
51
360.000000
73
1
97
0
75
0
76
0
98
1
10
0.0
20
0.0
0
HATCH
5
25
100
AcDbEntity
8
COPPER_BOTTOM
100
AcDbHatch
10
0.0
20
0.0
30
0.0
210
0.0
220
0.0
230
1.0
2
SOLID
70
1
71
0
91
2
92
1
93
1
72
2
10
1780.000000
20
2380.000000
40
27.500000
50
0.000000
51
360.000000
73
1
97
0
92
1
93
1
72
2
10
1780.000000
20
2380.000000
40
20.000000
50
0.000000
51
360.000000
73
1
97
0
75
0
76
0
98
1
10
0.0
20
0.0
0
HATCH
5
26
100
AcDbEntity
8
COPPER_BOTTOM
100
AcDbHatch
10
0.0
20
0.0
30
0.0
210
0.0
220
0.0
230
1.0
2
SOLID
70
1
71
0
91
2
92
1
93
1
72
2
10
1730.000000
20
2430.000000
40
27.500000
50
0.000000
51
360.000000
73
1
97
0
92
1
93
1
72
2
10
1730.000000
20
2430.000000
40
20.000000
50
0.000000
51
360.000000
73
1
97
0
75
0
76
0
98
1
10
0.0
20
0.0
0
HATCH
5
27
100
AcDbEntity
8
COPPER_BOTTOM
62
1
100
AcDbHatch
10
0.0
20
0.0
30
0.0
210
0.0
220
0.0
230
1.0
2
SOLID
70
1
71
0
91
1
92
1
93
3
72
2
10
1680.000000
20
2380.000000
40
37.525000
50
291.548260
51
295.421100
73
0
72
2
10
1730.000000
20
2430.000000
40
37.525000
50
154.578900
51
156.275674
73
0
72
1
10
1695.646168
20
2414.902323
11
1693.782361
21
2414.902323
97
0
75
0
76
0
98
1
10
0.0
20
0.0
0
ARC
5
28
100
AcDbEntity
8
COPPER_BOTTOM
62
1
100
AcDbCircle
39
0.050000
10
1680.000000
20
2380.000000
30
0.0
40
37.525000
100
AcDbArc
50
64.578900
51
68.451740
0
ARC
5
29
100
AcDbEntity
8
COPPER_BOTTOM
62
1
100
AcDbCircle
39
0.050000
10
1730.000000
20
2430.000000
30
0.0
40
37.525000
100
AcDbArc
50
203.724326
51
205.421100
0
LWPOLYLINE
5
2A
100
AcDbEntity
8
COPPER_BOTTOM
62
1
100
AcDbPolyline
90
2
70
0
43
0.050000
39
0.050000
10
1695.646168
20
2414.902323
10
1693.782361
20
2414.902323
0
HATCH
5
2B
100
AcDbEntity
8
COPPER_BOTTOM
62
1
100
AcDbHatch
10
0.0
20
0.0
30
0.0
210
0.0
220
0.0
230
1.0
2
SOLID
70
1
71
0
91
5
92
1
93
4
72
1
10
3540.000000
20
3929.926496
11
0.033976
21
3929.926496
72
1
10
0.033976
20
3929.926496
11
0.033976
21
1280.000000
72
1
10
0.033976
20
1280.000000
11
3540.000000
21
1280.000000
72
1
10
3540.000000
20
1280.000000
11
3540.000000
21
3929.926496
97
0
92
1
93
166
72
1
10
1714.902323
20
1657.531888
11
1714.902323
21
2350.817527
72
1
10
1714.902323
20
2350.817527
11
1710.614918
21
2355.104903
72
2
10
1707.071102
20
2380.000000
40
25.146063
50
81.898379
51
88.191917
73
0
72
2
10
1680.000000
20
2380.000000
40
37.525000
50
42.050188
51
137.924064
73
0
72
1
10
1652.146793
20
2354.853937
11
760.000000
21
2354.853937
72
2
10
760.000000
20
2380.000000
40
25.146063
50
90.000000
51
151.936898
73
0
72
2
10
745.000000
20
2405.000000
40
37.525000
50
101.045941
51
115.421100
73
0
72
2
10
695.000000
20
2355.000000
40
37.525000
50
334.578900
51
2.924121
73
0
72
1
10
732.476141
20
2353.085723
11
890.772269
21
2194.789594
72
1
10
890.772269
20
2194.789594
11
924.768846
21
2160.793017
72
1
10
924.768846
20
2160.793017
11
1660.415801
21
1425.146063
72
1
10
1660.415801
20
1425.146063
11
3379.584120
21
1425.146063
72
1
10
3379.584120
20
1425.146063
11
3414.853937
21
1460.415880
72
1
10
3414.853937
20
1460.415880
11
3414.853937
21
2324.584120
72
1
10
3414.853937
20
2324.584120
11
2924.584120
21
2814.853937
72
1
10
2924.584120
20
2814.853937
11
2130.529993
21
2814.853937
72
2
10
2100.000000
20
2840.000000
40
39.552559
50
39.476615
51
82.524227
73
0
72
1
10
2105.146063
20
2800.783639
11
2105.146063
21
2800.000000
72
2
10
2080.000000
20
2800.000000
40
25.146063
50
360.000000
51
45.085257
73
0
72
1
10
2097.754474
20
2782.192610
11
2077.807390
21
2762.245526
72
2
10
2060.000000
20
2780.000000
40
25.146063
50
44.914743
51
70.807083
73
0
72
2
10
2059.999940
20
2779.999979
40
25.146063
50
70.806937
51
90.074088
73
0
72
1
10
2059.967424
20
2754.853937
11
1862.268322
21
2754.853937
72
2
10
1840.000000
20
2766.534961
40
25.146063
50
27.679611
51
45.085257
73
0
72
1
10
1857.754474
20
2748.727570
11
1847.739464
21
2738.712561
72
2
10
1808.370551
20
2734.905512
40
39.552559
50
354.476563
51
275.523332
73
0
72
1
10
1812.177528
20
2774.274432
11
1814.853937
21
2776.950840
72
1
10
1814.853937
20
2776.950840
11
1814.853937
21
2780.000000
72
2
10
1840.000000
20
2780.000000
40
25.146063
50
180.000000
51
270.000000
73
0
72
1
10
1840.000000
20
2805.146063
11
2049.584120
21
2805.146063
72
1
10
2049.584120
20
2805.146063
11
2054.853937
21
2810.415880
72
1
10
2054.853937
20
2810.415880
11
2054.853937
21
2840.000000
72
2
10
2080.000000
20
2840.000000
40
25.146063
50
180.000000
51
238.062774
73
0
72
2
10
2100.000000
20
2840.000000
40
39.552559
50
212.651418
51
320.523385
73
0
72
1
10
2130.529993
20
2865.146063
11
2934.978861
21
2865.146063
72
2
10
2934.999952
20
2840.000009
40
25.146063
50
269.951944
51
280.395282
73
0
72
2
10
2935.000000
20
2840.000000
40
25.146063
50
280.395171
51
315.085257
73
0
72
1
10
2952.807390
20
2857.754474
11
3457.754474
21
2352.807390
72
2
10
3440.000000
20
2335.000000
40
25.146063
50
314.914743
51
360.000000
73
0
72
1
10
3465.146063
20
2335.000000
11
3465.146063
21
1450.000000
72
2
10
3440.000000
20
1450.000000
40
25.146063
50
360.000000
51
45.085257
73
0
72
1
10
3457.754474
20
1432.192610
11
3407.807390
21
1382.245526
72
2
10
3390.000000
20
1400.000000
40
25.146063
50
44.914743
51
90.000000
73
0
72
1
10
3390.000000
20
1374.853937
11
1650.033633
21
1374.853937
72
2
10
1649.999983
20
1399.999977
40
25.146063
50
89.923328
51
135.000000
73
0
72
1
10
1632.219031
20
1382.219026
11
924.768846
21
2089.669211
72
1
10
924.768846
20
2089.669211
11
819.648463
21
2194.789594
72
1
10
819.648463
20
2194.789594
11
819.648439
21
2194.789618
72
1
10
819.648439
20
2194.789618
11
696.914202
21
2317.523855
72
2
10
695.000000
20
2355.000000
40
37.525000
50
87.075994
51
205.421100
73
0
72
2
10
645.000000
20
2405.000000
40
37.525000
50
64.578900
51
89.776980
73
0
72
1
10
645.146063
20
2367.475284
11
645.146063
21
2300.000000
72
2
10
620.000000
20
2300.000000
40
25.146063
50
360.000000
51
45.085257
73
0
72
1
10
637.754474
20
2282.192610
11
607.807390
21
2252.245526
72
2
10
590.000000
20
2270.000000
40
25.146063
50
44.914743
51
72.823081
73
0
72
2
10
589.999943
20
2269.999982
40
25.146063
50
72.822945
51
90.067817
73
0
72
1
10
589.970179
20
2244.853937
11
299.205948
21
2244.853937
72
2
10
260.000000
20
2250.078740
40
39.552559
50
7.590829
51
275.748538
73
0
72
2
10
279.921220
20
2269.999999
40
25.146063
50
230.604258
51
268.760362
73
0
72
2
10
279.921260
20
2270.000000
40
25.146063
50
268.760271
51
270.000000
73
0
72
1
10
279.921260
20
2295.146063
11
579.584120
21
2295.146063
72
1
10
579.584120
20
2295.146063
11
594.853937
21
2310.415880
72
1
10
594.853937
20
2310.415880
11
594.853937
21
2379.952544
72
2
10
619.999955
20
2379.999995
40
25.146063
50
179.891883
51
225.000000
73
0
72
1
10
602.219004
20
2397.780946
11
607.523855
21
2403.085798
72
2
10
645.000000
20
2405.000000
40
37.525000
50
177.075994
51
285.224191
73
0
72
1
10
654.853937
20
2441.208087
11
654.853937
21
2713.887306
72
2
10
679.999952
20
2713.936605
40
25.146063
50
179.887670
51
225.000538
73
0
72
1
10
662.219167
20
2731.717724
11
683.188448
21
2752.686612
72
2
10
700.969233
20
2734.905493
40
25.146063
50
225.000538
51
238.061924
73
0
72
2
10
720.969055
20
2734.905512
40
39.552559
50
212.651046
51
113.581290
73
0
72
1
10
705.146063
20
2698.655852
11
705.146063
21
2420.000000
72
2
10
680.000000
20
2420.000000
40
25.146063
50
360.000000
51
45.085257
73
0
72
1
10
697.754474
20
2402.192610
11
687.285270
21
2391.723406
72
2
10
695.000000
20
2355.000000
40
37.525000
50
258.136015
51
295.421100
73
0
72
2
10
745.000000
20
2405.000000
40
37.525000
50
154.578900
51
359.776980
73
0
72
1
10
782.524716
20
2405.146063
11
1652.146793
21
2405.146063
72
2
10
1680.000000
20
2380.000000
40
37.525000
50
222.075936
51
248.451740
73
0
72
1
10
1666.217639
20
2414.902323
11
1600.000000
21
2414.902323
72
2
10
1600.000000
20
2430.000000
40
15.097677
50
90.000000
51
180.000000
73
0
72
1
10
1584.902323
20
2430.000000
11
1584.902323
21
2759.890655
72
2
10
1599.999954
20
2780.000007
40
25.146063
50
126.898365
51
135.000000
73
0
72
1
10
1582.219002
20
2762.219055
11
1569.584120
21
2774.853937
72
1
10
1569.584120
20
2774.853937
11
650.415801
21
2774.853937
72
1
10
650.415801
20
2774.853937
11
645.146063
21
2769.584199
72
1
10
645.146063
20
2769.584199
11
645.146063
21
2732.928898
72
2
10
620.000000
20
2732.928898
40
25.146063
50
360.000000
51
45.085257
73
0
72
1
10
637.754474
20
2715.121507
11
634.878493
21
2712.245526
72
2
10
617.071102
20
2730.000000
40
25.146063
50
44.914743
51
90.000000
73
0
72
1
10
617.071102
20
2704.853937
11
602.984212
21
2704.853937
72
2
10
577.268307
20
2734.905512
40
39.552559
50
49.445546
51
133.104429
73
0
72
2
10
557.834224
20
2729.999989
40
25.146063
50
107.576010
51
135.000576
73
0
72
1
10
540.053094
20
2712.219216
11
532.218847
21
2720.053620
72
2
10
549.999977
20
2737.834393
40
25.146063
50
135.000576
51
180.077279
73
0
72
1
10
524.853937
20
2737.868309
11
524.853937
21
2814.853937
72
1
10
524.853937
20
2814.853937
11
280.000000
21
2814.853937
72
2
10
280.000000
20
2840.000000
40
25.146063
50
90.000000
51
180.000000
73
0
72
1
10
254.853937
20
2840.000000
11
254.853937
21
2840.783639
72
2
10
260.000000
20
2880.000000
40
39.552559
50
97.475773
51
327.348582
73
0
72
2
10
280.000000
20
2880.000000
40
25.146063
50
301.937226
51
360.000000
73
0
72
1
10
305.146063
20
2880.000000
11
305.146063
21
2865.146063
72
1
10
305.146063
20
2865.146063
11
539.964884
21
2865.146063
72
2
10
539.999936
20
2840.000024
40
25.146063
50
269.920132
51
290.953042
73
0
72
2
10
540.000000
20
2840.000000
40
25.146063
50
290.952886
51
315.085257
73
0
72
1
10
557.807390
20
2857.754474
11
567.754474
21
2847.807390
72
2
10
550.000000
20
2830.000000
40
25.146063
50
314.914743
51
360.000000
73
0
72
1
10
575.146063
20
2830.000000
11
575.146063
21
2774.401094
72
2
10
577.268307
20
2734.905512
40
39.552559
50
266.924243
51
296.398659
73
0
72
1
10
594.853937
20
2770.333616
11
594.853937
21
2779.944867
72
2
10
619.999940
20
2779.999979
40
25.146063
50
179.874427
51
225.000000
73
0
72
1
10
602.218988
20
2797.780931
11
622.219002
21
2817.780945
72
2
10
639.999954
20
2799.999993
40
25.146063
50
225.000000
51
261.604966
73
0
72
2
10
640.000000
20
2800.000000
40
25.146063
50
261.604860
51
270.000000
73
0
72
1
10
640.000000
20
2825.146063
11
1579.967424
21
2825.146063
72
2
10
1579.999940
20
2800.000021
40
25.146063
50
269.925912
51
289.193062
73
0
72
2
10
1580.000000
20
2800.000000
40
25.146063
50
289.192917
51
315.085257
73
0
72
1
10
1597.807390
20
2817.754474
11
1617.780905
21
2797.780958
72
2
10
1599.999954
20
2780.000007
40
25.146063
50
315.000000
51
53.101372
73
0
72
1
10
1615.097677
20
2759.890725
11
1615.097677
21
2445.097677
72
1
10
1615.097677
20
2445.097677
11
1695.646168
21
2445.097677
72
2
10
1730.000000
20
2430.000000
40
37.525000
50
203.724326
51
221.520366
73
0
72
2
10
1702.928872
20
2479.999986
40
25.146063
50
92.335206
51
135.000000
73
0
72
1
10
1685.147920
20
2462.219034
11
1682.219023
21
2465.147932
72
2
10
1699.999975
20
2482.928884
40
25.146063
50
135.000000
51
180.081434
73
0
72
1
10
1674.853937
20
2482.964623
11
1674.853937
21
2696.686559
72
2
10
1664.669803
20
2734.905512
40
39.552559
50
75.079202
51
327.348793
73
0
72
2
10
1684.669685
20
2734.905512
40
25.146063
50
301.937754
51
315.085257
73
0
72
1
10
1702.477075
20
2752.659986
11
1717.754474
21
2737.382587
72
2
10
1700.000000
20
2719.575197
40
25.146063
50
314.914743
51
360.000000
73
0
72
1
10
1725.146063
20
2719.575197
11
1725.146063
21
2495.097677
72
1
10
1725.146063
20
2495.097677
11
1739.890607
21
2495.097677
72
2
10
1759.999940
20
2480.000021
40
25.146063
50
216.898437
51
315.000000
73
0
72
1
10
1777.780891
20
2497.780973
11
1797.780905
21
2477.780958
72
2
10
1779.999954
20
2460.000007
40
25.146063
50
315.000000
51
53.101372
73
0
72
1
10
1795.097677
20
2439.890725
11
1795.097677
21
2414.353832
72
2
10
1780.000000
20
2380.000000
40
37.525000
50
293.724326
51
23.318441
73
0
72
1
10
1814.459921
20
2365.146063
11
2059.967424
21
2365.146063
72
2
10
2059.999940
20
2340.000021
40
25.146063
50
269.925912
51
289.193063
73
0
72
2
10
2060.000000
20
2340.000000
40
25.146063
50
289.192917
51
315.085257
73
0
72
1
10
2077.807390
20
2357.754474
11
2097.754474
21
2337.807390
72
2
10
2080.000000
20
2320.000000
40
25.146063
50
314.914743
51
360.000000
73
0
72
1
10
2105.146063
20
2320.000000
11
2105.146063
21
2249.295101
72
2
10
2100.000000
20
2210.078740
40
39.552559
50
277.475773
51
185.726894
73
0
72
2
10
2079.999940
20
2230.078761
40
25.146063
50
140.327531
51
180.125573
73
0
72
1
10
2054.853937
20
2230.133873
11
2054.853937
21
2309.584120
72
1
10
2054.853937
20
2309.584120
11
2049.584120
21
2314.853937
72
1
10
2049.584120
20
2314.853937
11
1780.000000
21
2314.853937
72
2
10
1780.000000
20
2340.000000
40
25.146063
50
90.000000
51
180.000000
73
0
72
1
10
1754.853937
20
2340.000000
11
1754.853937
21
2352.146793
72
2
10
1780.000000
20
2380.000000
40
37.525000
50
132.075936
51
179.923657
73
0
72
1
10
1742.475033
20
2379.950000
11
1732.217116
21
2379.950000
72
2
10
1707.071102
20
2380.000000
40
25.146063
50
0.113926
51
8.101386
73
0
72
1
10
1731.966214
20
2376.456287
11
1740.655112
21
2367.767448
72
2
10
1730.000000
20
2357.071260
40
15.097677
50
314.889774
51
360.000000
73
0
72
1
10
1745.097677
20
2357.071260
11
1745.097677
21
1665.146063
72
1
10
1745.097677
20
1665.146063
11
2839.967424
21
1665.146063
72
2
10
2839.999940
20
1640.000021
40
25.146063
50
269.925912
51
289.193062
73
0
72
2
10
2840.000000
20
1640.000000
40
25.146063
50
289.192916
51
315.085257
73
0
72
1
10
2857.807390
20
1657.754474
11
2877.754474
21
1637.807390
72
2
10
2860.000000
20
1620.000000
40
25.146063
50
314.914743
51
360.000000
73
0
72
1
10
2885.146063
20
1620.000000
11
2885.146063
21
1591.460311
72
2
10
2860.000000
20
1560.000000
40
40.275000
50
308.635163
51
231.364837
73
0
72
1
10
2834.853937
20
1591.460311
11
2834.853937
21
1609.584120
72
1
10
2834.853937
20
1609.584120
11
2829.584120
21
1614.853937
72
1
10
2829.584120
20
1614.853937
11
1732.928898
21
1614.853937
72
2
10
1732.928898
20
1640.000000
40
25.146063
50
90.000000
51
224.202956
73
0
97
0
92
1
93
29
72
1
10
1720.000000
20
3745.146063
11
2828.539689
21
3745.146063
72
2
10
2860.000000
20
3720.000000
40
40.275000
50
218.635163
51
141.364837
73
0
72
1
10
2828.539689
20
3694.853937
11
1730.415801
21
3694.853937
72
1
10
1730.415801
20
3694.853937
11
1725.146063
21
3689.584199
72
1
10
1725.146063
20
3689.584199
11
1725.146063
21
3613.258811
72
2
10
1700.000000
20
3580.000000
40
41.695000
50
307.091913
51
97.908135
73
0
72
1
10
1694.263386
20
3538.701522
11
1685.146063
21
3529.584199
72
1
10
1685.146063
20
3529.584199
11
1685.146063
21
3280.556271
72
2
10
1664.669803
20
3246.716535
40
39.552559
50
301.177929
51
140.523385
73
0
72
1
10
1634.139811
20
3221.570472
11
751.499048
21
3221.570472
72
2
10
720.969055
20
3246.716535
40
39.552559
50
39.476615
51
140.775970
73
0
72
2
10
692.929098
20
3246.716532
40
25.146063
50
95.936116
51
135.000000
73
0
72
1
10
675.148147
20
3228.935580
11
662.219033
21
3241.864693
72
2
10
679.999985
20
3259.645645
40
25.146063
50
135.000000
51
180.063071
73
0
72
1
10
654.853937
20
3259.673326
11
654.853937
21
3566.741189
72
2
10
680.000000
20
3600.000000
40
41.695000
50
127.091913
51
52.908087
73
0
72
1
10
705.146063
20
3566.741189
11
705.146063
21
3282.966195
72
2
10
720.969055
20
3246.716535
40
39.552559
50
246.418710
51
320.523385
73
0
72
1
10
751.499048
20
3271.862598
11
1634.139811
21
3271.862598
72
2
10
1664.669803
20
3246.716535
40
39.552559
50
219.476615
51
221.076844
73
0
72
1
10
1634.853937
20
3272.705361
11
1634.853937
21
3539.948077
72
2
10
1659.999946
20
3539.999986
40
25.146063
50
179.881726
51
225.000000
73
0
72
1
10
1642.218995
20
3557.780937
11
1658.701512
21
3574.263455
72
2
10
1700.000000
20
3580.000000
40
41.695000
50
172.091961
51
232.908087
73
0
72
1
10
1674.853937
20
3613.258811
11
1674.853937
21
3699.944867
72
2
10
1699.999940
20
3699.999979
40
25.146063
50
179.874427
51
225.000000
73
0
72
1
10
1682.218988
20
3717.780931
11
1702.219002
21
3737.780945
72
2
10
1719.999954
20
3719.999993
40
25.146063
50
225.000000
51
261.604966
73
0
72
2
10
1720.000000
20
3720.000000
40
25.146063
50
261.604860
51
270.000000
73
0
97
0
92
1
93
4
72
2
10
1800.000000
20
3580.000000
40
41.695000
50
111.300447
51
32.548927
73
0
72
1
10
1835.146063
20
3557.567272
11
1835.146063
21
3275.827992
72
2
10
1808.370551
20
3246.716535
40
39.552559
50
312.606564
51
233.518287
73
0
72
1
10
1784.853937
20
3278.518639
11
1784.853937
21
3541.153252
97
0
92
1
93
9
72
2
10
580.000000
20
3580.000000
40
25.146063
50
44.591452
51
45.085257
73
0
72
1
10
597.754474
20
3562.192610
11
585.146063
21
3549.584199
72
1
10
585.146063
20
3549.584199
11
585.146063
21
3285.476642
72
2
10
577.268307
20
3246.716535
40
39.552559
50
281.488535
51
187.297850
73
0
72
2
10
559.999959
20
3263.984805
40
25.146063
50
150.861944
51
180.103736
73
0
72
1
10
534.853937
20
3264.030333
11
534.853937
21
3559.944867
72
2
10
559.999940
20
3559.999979
40
25.146063
50
179.874427
51
225.000000
73
0
72
1
10
542.218988
20
3577.780931
11
543.781501
21
3579.343443
72
2
10
580.000000
20
3600.000000
40
41.695000
50
150.302519
51
64.565258
73
0
97
0
75
0
76
0
98
1
10
0.0
20
0.0
0
LWPOLYLINE
5
2C
100
AcDbEntity
8
COPPER_BOTTOM
62
1
100
AcDbPolyline
90
3
70
0
43
0.050000
39
0.050000
10
1714.902323
20
1657.531888
10
1714.902323
20
2350.817527
10
1710.614918
20
2355.104903
0
ARC
5
2D
100
AcDbEntity
8
COPPER_BOTTOM
62
1
100
AcDbCircle
39
0.050000
10
1707.071102
20
2380.000000
30
0.0
40
25.146063
100
AcDbArc
50
271.808083
51
278.101621
0
ARC
5
2E
100
AcDbEntity
8
COPPER_BOTTOM
62
1
100
AcDbCircle
39
0.050000
10
1680.000000
20
2380.000000
30
0.0
40
37.525000
100
AcDbArc
50
222.075936
51
317.949812
0
LWPOLYLINE
5
2F
100
AcDbEntity
8
COPPER_BOTTOM
62
1
100
AcDbPolyline
90
2
70
0
43
0.050000
39
0.050000
10
1652.146793
20
2354.853937
10
760.000000
20
2354.853937
0
ARC
5
30
100
AcDbEntity
8
COPPER_BOTTOM
62
1
100
AcDbCircle
39
0.050000
10
760.000000
20
2380.000000
30
0.0
40
25.146063
100
AcDbArc
50
208.063102
51
270.000000
0
ARC
5
31
100
AcDbEntity
8
COPPER_BOTTOM
62
1
100
AcDbCircle
39
0.050000
10
745.000000
20
2405.000000
30
0.0
40
37.525000
100
AcDbArc
50
244.578900
51
258.954059
0
ARC
5
32
100
AcDbEntity
8
COPPER_BOTTOM
62
1
100
AcDbCircle
39
0.050000
10
695.000000
20
2355.000000
30
0.0
40
37.525000
100
AcDbArc
50
357.075879
51
25.421100
0
LWPOLYLINE
5
33
100
AcDbEntity
8
COPPER_BOTTOM
62
1
100
AcDbPolyline
90
9
70
0
43
0.050000
39
0.050000
10
732.476141
20
2353.085723
10
890.772269
20
2194.789594
10
924.768846
20
2160.793017
10
1660.415801
20
1425.146063
10
3379.584120
20
1425.146063
10
3414.853937
20
1460.415880
10
3414.853937
20
2324.584120
10
2924.584120
20
2814.853937
10
2130.529993
20
2814.853937
0
ARC
5
34
100
AcDbEntity
8
COPPER_BOTTOM
62
1
100
AcDbCircle
39
0.050000
10
2100.000000
20
2840.000000
30
0.0
40
39.552559
100
AcDbArc
50
277.475773
51
320.523385
0
LWPOLYLINE
5
35
100
AcDbEntity
8
COPPER_BOTTOM
62
1
100
AcDbPolyline
90
2
70
0
43
0.050000
39
0.050000
10
2105.146063
20
2800.783639
10
2105.146063
20
2800.000000
0
ARC
5
36
100
AcDbEntity
8
COPPER_BOTTOM
62
1
100
AcDbCircle
39
0.050000
10
2080.000000
20
2800.000000
30
0.0
40
25.146063
100
AcDbArc
50
314.914743
51
0.000000
0
LWPOLYLINE
5
37
100
AcDbEntity
8
COPPER_BOTTOM
62
1
100
AcDbPolyline
90
2
70
0
43
0.050000
39
0.050000
10
2097.754474
20
2782.192610
10
2077.807390
20
2762.245526
0
ARC
5
38
100
AcDbEntity
8
COPPER_BOTTOM
62
1
100
AcDbCircle
39
0.050000
10
2060.000000
20
2780.000000
30
0.0
40
25.146063
100
AcDbArc
50
289.192917
51
315.085257
0
ARC
5
39
100
AcDbEntity
8
COPPER_BOTTOM
62
1
100
AcDbCircle
39
0.050000
10
2059.999940
20
2779.999979
30
0.0
40
25.146063
100
AcDbArc
50
269.925912
51
289.193063
0
LWPOLYLINE
5
3A
100
AcDbEntity
8
COPPER_BOTTOM
62
1
100
AcDbPolyline
90
2
70
0
43
0.050000
39
0.050000
10
2059.967424
20
2754.853937
10
1862.268322
20
2754.853937
0
ARC
5
3B
100
AcDbEntity
8
COPPER_BOTTOM
62
1
100
AcDbCircle
39
0.050000
10
1840.000000
20
2766.534961
30
0.0
40
25.146063
100
AcDbArc
50
314.914743
51
332.320389
0
LWPOLYLINE
5
3C
100
AcDbEntity
8
COPPER_BOTTOM
62
1
100
AcDbPolyline
90
2
70
0
43
0.050000
39
0.050000
10
1857.754474
20
2748.727570
10
1847.739464
20
2738.712561
0
ARC
5
3D
100
AcDbEntity
8
COPPER_BOTTOM
62
1
100
AcDbCircle
39
0.050000
10
1808.370551
20
2734.905512
30
0.0
40
39.552559
100
AcDbArc
50
84.476668
51
5.523437
0
LWPOLYLINE
5
3E
100
AcDbEntity
8
COPPER_BOTTOM
62
1
100
AcDbPolyline
90
3
70
0
43
0.050000
39
0.050000
10
1812.177528
20
2774.274432
10
1814.853937
20
2776.950840
10
1814.853937
20
2780.000000
0
ARC
5
3F
100
AcDbEntity
8
COPPER_BOTTOM
62
1
100
AcDbCircle
39
0.050000
10
1840.000000
20
2780.000000
30
0.0
40
25.146063
100
AcDbArc
50
90.000000
51
180.000000
0
LWPOLYLINE
5
40
100
AcDbEntity
8
COPPER_BOTTOM
62
1
100
AcDbPolyline
90
4
70
0
43
0.050000
39
0.050000
10
1840.000000
20
2805.146063
10
2049.584120
20
2805.146063
10
2054.853937
20
2810.415880
10
2054.853937
20
2840.000000
0
ARC
5
41
100
AcDbEntity
8
COPPER_BOTTOM
62
1
100
AcDbCircle
39
0.050000
10
2080.000000
20
2840.000000
30
0.0
40
25.146063
100
AcDbArc
50
121.937226
51
180.000000
0
ARC
5
42
100
AcDbEntity
8
COPPER_BOTTOM
62
1
100
AcDbCircle
39
0.050000
10
2100.000000
20
2840.000000
30
0.0
40
39.552559
100
AcDbArc
50
39.476615
51
147.348582
0
LWPOLYLINE
5
43
100
AcDbEntity
8
COPPER_BOTTOM
62
1
100
AcDbPolyline
90
2
70
0
43
0.050000
39
0.050000
10
2130.529993
20
2865.146063
10
2934.978861
20
2865.146063
0
ARC
5
44
100
AcDbEntity
8
COPPER_BOTTOM
62
1
100
AcDbCircle
39
0.050000
10
2934.999952
20
2840.000009
30
0.0
40
25.146063
100
AcDbArc
50
79.604718
51
90.048056
0
ARC
5
45
100
AcDbEntity
8
COPPER_BOTTOM
62
1
100
AcDbCircle
39
0.050000
10
2935.000000
20
2840.000000
30
0.0
40
25.146063
100
AcDbArc
50
44.914743
51
79.604829
0
LWPOLYLINE
5
46
100
AcDbEntity
8
COPPER_BOTTOM
62
1
100
AcDbPolyline
90
2
70
0
43
0.050000
39
0.050000
10
2952.807390
20
2857.754474
10
3457.754474
20
2352.807390
0
ARC
5
47
100
AcDbEntity
8
COPPER_BOTTOM
62
1
100
AcDbCircle
39
0.050000
10
3440.000000
20
2335.000000
30
0.0
40
25.146063
100
AcDbArc
50
0.000000
51
45.085257
0
LWPOLYLINE
5
48
100
AcDbEntity
8
COPPER_BOTTOM
62
1
100
AcDbPolyline
90
2
70
0
43
0.050000
39
0.050000
10
3465.146063
20
2335.000000
10
3465.146063
20
1450.000000
0
ARC
5
49
100
AcDbEntity
8
COPPER_BOTTOM
62
1
100
AcDbCircle
39
0.050000
10
3440.000000
20
1450.000000
30
0.0
40
25.146063
100
AcDbArc
50
314.914743
51
0.000000
0
LWPOLYLINE
5
4A
100
AcDbEntity
8
COPPER_BOTTOM
62
1
100
AcDbPolyline
90
2
70
0
43
0.050000
39
0.050000
10
3457.754474
20
1432.192610
10
3407.807390
20
1382.245526
0
ARC
5
4B
100
AcDbEntity
8
COPPER_BOTTOM
62
1
100
AcDbCircle
39
0.050000
10
3390.000000
20
1400.000000
30
0.0
40
25.146063
100
AcDbArc
50
270.000000
51
315.085257
0
LWPOLYLINE
5
4C
100
AcDbEntity
8
COPPER_BOTTOM
62
1
100
AcDbPolyline
90
2
70
0
43
0.050000
39
0.050000
10
3390.000000
20
1374.853937
10
1650.033633
20
1374.853937
0
ARC
5
4D
100
AcDbEntity
8
COPPER_BOTTOM
62
1
100
AcDbCircle
39
0.050000
10
1649.999983
20
1399.999977
30
0.0
40
25.146063
100
AcDbArc
50
225.000000
51
270.076672
0
LWPOLYLINE
5
4E
100
AcDbEntity
8
COPPER_BOTTOM
62
1
100
AcDbPolyline
90
5
70
0
43
0.050000
39
0.050000
10
1632.219031
20
1382.219026
10
924.768846
20
2089.669211
10
819.648463
20
2194.789594
10
819.648439
20
2194.789618
10
696.914202
20
2317.523855
0
ARC
5
4F
100
AcDbEntity
8
COPPER_BOTTOM
62
1
100
AcDbCircle
39
0.050000
10
695.000000
20
2355.000000
30
0.0
40
37.525000
100
AcDbArc
50
154.578900
51
272.924006
0
ARC
5
50
100
AcDbEntity
8
COPPER_BOTTOM
62
1
100
AcDbCircle
39
0.050000
10
645.000000
20
2405.000000
30
0.0
40
37.525000
100
AcDbArc
50
270.223020
51
295.421100
0
LWPOLYLINE
5
51
100
AcDbEntity
8
COPPER_BOTTOM
62
1
100
AcDbPolyline
90
2
70
0
43
0.050000
39
0.050000
10
645.146063
20
2367.475284
10
645.146063
20
2300.000000
0
ARC
5
52
100
AcDbEntity
8
COPPER_BOTTOM
62
1
100
AcDbCircle
39
0.050000
10
620.000000
20
2300.000000
30
0.0
40
25.146063
100
AcDbArc
50
314.914743
51
0.000000
0
LWPOLYLINE
5
53
100
AcDbEntity
8
COPPER_BOTTOM
62
1
100
AcDbPolyline
90
2
70
0
43
0.050000
39
0.050000
10
637.754474
20
2282.192610
10
607.807390
20
2252.245526
0
ARC
5
54
100
AcDbEntity
8
COPPER_BOTTOM
62
1
100
AcDbCircle
39
0.050000
10
590.000000
20
2270.000000
30
0.0
40
25.146063
100
AcDbArc
50
287.176919
51
315.085257
0
ARC
5
55
100
AcDbEntity
8
COPPER_BOTTOM
62
1
100
AcDbCircle
39
0.050000
10
589.999943
20
2269.999982
30
0.0
40
25.146063
100
AcDbArc
50
269.932183
51
287.177055
0
LWPOLYLINE
5
56
100
AcDbEntity
8
COPPER_BOTTOM
62
1
100
AcDbPolyline
90
2
70
0
43
0.050000
39
0.050000
10
589.970179
20
2244.853937
10
299.205948
20
2244.853937
0
ARC
5
57
100
AcDbEntity
8
COPPER_BOTTOM
62
1
100
AcDbCircle
39
0.050000
10
260.000000
20
2250.078740
30
0.0
40
39.552559
100
AcDbArc
50
84.251462
51
352.409171
0
ARC
5
58
100
AcDbEntity
8
COPPER_BOTTOM
62
1
100
AcDbCircle
39
0.050000
10
279.921220
20
2269.999999
30
0.0
40
25.146063
100
AcDbArc
50
91.239638
51
129.395742
0
ARC
5
59
100
AcDbEntity
8
COPPER_BOTTOM
62
1
100
AcDbCircle
39
0.050000
10
279.921260
20
2270.000000
30
0.0
40
25.146063
100
AcDbArc
50
90.000000
51
91.239729
0
LWPOLYLINE
5
5A
100
AcDbEntity
8
COPPER_BOTTOM
62
1
100
AcDbPolyline
90
4
70
0
43
0.050000
39
0.050000
10
279.921260
20
2295.146063
10
579.584120
20
2295.146063
10
594.853937
20
2310.415880
10
594.853937
20
2379.952544
0
ARC
5
5B
100
AcDbEntity
8
COPPER_BOTTOM
62
1
100
AcDbCircle
39
0.050000
10
619.999955
20
2379.999995
30
0.0
40
25.146063
100
AcDbArc
50
135.000000
51
180.108117
0
LWPOLYLINE
5
5C
100
AcDbEntity
8
COPPER_BOTTOM
62
1
100
AcDbPolyline
90
2
70
0
43
0.050000
39
0.050000
10
602.219004
20
2397.780946
10
607.523855
20
2403.085798
0
ARC
5
5D
100
AcDbEntity
8
COPPER_BOTTOM
62
1
100
AcDbCircle
39
0.050000
10
645.000000
20
2405.000000
30
0.0
40
37.525000
100
AcDbArc
50
74.775809
51
182.924006
0
LWPOLYLINE
5
5E
100
AcDbEntity
8
COPPER_BOTTOM
62
1
100
AcDbPolyline
90
2
70
0
43
0.050000
39
0.050000
10
654.853937
20
2441.208087
10
654.853937
20
2713.887306
0
ARC
5
5F
100
AcDbEntity
8
COPPER_BOTTOM
62
1
100
AcDbCircle
39
0.050000
10
679.999952
20
2713.936605
30
0.0
40
25.146063
100
AcDbArc
50
134.999462
51
180.112330
0
LWPOLYLINE
5
60
100
AcDbEntity
8
COPPER_BOTTOM
62
1
100
AcDbPolyline
90
2
70
0
43
0.050000
39
0.050000
10
662.219167
20
2731.717724
10
683.188448
20
2752.686612
0
ARC
5
61
100
AcDbEntity
8
COPPER_BOTTOM
62
1
100
AcDbCircle
39
0.050000
10
700.969233
20
2734.905493
30
0.0
40
25.146063
100
AcDbArc
50
121.938076
51
134.999462
0
ARC
5
62
100
AcDbEntity
8
COPPER_BOTTOM
62
1
100
AcDbCircle
39
0.050000
10
720.969055
20
2734.905512
30
0.0
40
39.552559
100
AcDbArc
50
246.418710
51
147.348954
0
LWPOLYLINE
5
63
100
AcDbEntity
8
COPPER_BOTTOM
62
1
100
AcDbPolyline
90
2
70
0
43
0.050000
39
0.050000
10
705.146063
20
2698.655852
10
705.146063
20
2420.000000
0
ARC
5
64
100
AcDbEntity
8
COPPER_BOTTOM
62
1
100
AcDbCircle
39
0.050000
10
680.000000
20
2420.000000
30
0.0
40
25.146063
100
AcDbArc
50
314.914743
51
0.000000
0
LWPOLYLINE
5
65
100
AcDbEntity
8
COPPER_BOTTOM
62
1
100
AcDbPolyline
90
2
70
0
43
0.050000
39
0.050000
10
697.754474
20
2402.192610
10
687.285270
20
2391.723406
0
ARC
5
66
100
AcDbEntity
8
COPPER_BOTTOM
62
1
100
AcDbCircle
39
0.050000
10
695.000000
20
2355.000000
30
0.0
40
37.525000
100
AcDbArc
50
64.578900
51
101.863985
0
ARC
5
67
100
AcDbEntity
8
COPPER_BOTTOM
62
1
100
AcDbCircle
39
0.050000
10
745.000000
20
2405.000000
30
0.0
40
37.525000
100
AcDbArc
50
0.223020
51
205.421100
0
LWPOLYLINE
5
68
100
AcDbEntity
8
COPPER_BOTTOM
62
1
100
AcDbPolyline
90
2
70
0
43
0.050000
39
0.050000
10
782.524716
20
2405.146063
10
1652.146793
20
2405.146063
0
ARC
5
69
100
AcDbEntity
8
COPPER_BOTTOM
62
1
100
AcDbCircle
39
0.050000
10
1680.000000
20
2380.000000
30
0.0
40
37.525000
100
AcDbArc
50
111.548260
51
137.924064
0
LWPOLYLINE
5
6A
100
AcDbEntity
8
COPPER_BOTTOM
62
1
100
AcDbPolyline
90
2
70
0
43
0.050000
39
0.050000
10
1666.217639
20
2414.902323
10
1600.000000
20
2414.902323
0
ARC
5
6B
100
AcDbEntity
8
COPPER_BOTTOM
62
1
100
AcDbCircle
39
0.050000
10
1600.000000
20
2430.000000
30
0.0
40
15.097677
100
AcDbArc
50
180.000000
51
270.000000
0
LWPOLYLINE
5
6C
100
AcDbEntity
8
COPPER_BOTTOM
62
1
100
AcDbPolyline
90
2
70
0
43
0.050000
39
0.050000
10
1584.902323
20
2430.000000
10
1584.902323
20
2759.890655
0
ARC
5
6D
100
AcDbEntity
8
COPPER_BOTTOM
62
1
100
AcDbCircle
39
0.050000
10
1599.999954
20
2780.000007
30
0.0
40
25.146063
100
AcDbArc
50
225.000000
51
233.101635
0
LWPOLYLINE
5
6E
100
AcDbEntity
8
COPPER_BOTTOM
62
1
100
AcDbPolyline
90
5
70
0
43
0.050000
39
0.050000
10
1582.219002
20
2762.219055
10
1569.584120
20
2774.853937
10
650.415801
20
2774.853937
10
645.146063
20
2769.584199
10
645.146063
20
2732.928898
0
ARC
5
6F
100
AcDbEntity
8
COPPER_BOTTOM
62
1
100
AcDbCircle
39
0.050000
10
620.000000
20
2732.928898
30
0.0
40
25.146063
100
AcDbArc
50
314.914743
51
0.000000
0
LWPOLYLINE
5
70
100
AcDbEntity
8
COPPER_BOTTOM
62
1
100
AcDbPolyline
90
2
70
0
43
0.050000
39
0.050000
10
637.754474
20
2715.121507
10
634.878493
20
2712.245526
0
ARC
5
71
100
AcDbEntity
8
COPPER_BOTTOM
62
1
100
AcDbCircle
39
0.050000
10
617.071102
20
2730.000000
30
0.0
40
25.146063
100
AcDbArc
50
270.000000
51
315.085257
0
LWPOLYLINE
5
72
100
AcDbEntity
8
COPPER_BOTTOM
62
1
100
AcDbPolyline
90
2
70
0
43
0.050000
39
0.050000
10
617.071102
20
2704.853937
10
602.984212
20
2704.853937
0
ARC
5
73
100
AcDbEntity
8
COPPER_BOTTOM
62
1
100
AcDbCircle
39
0.050000
10
577.268307
20
2734.905512
30
0.0
40
39.552559
100
AcDbArc
50
226.895571
51
310.554454
0
ARC
5
74
100
AcDbEntity
8
COPPER_BOTTOM
62
1
100
AcDbCircle
39
0.050000
10
557.834224
20
2729.999989
30
0.0
40
25.146063
100
AcDbArc
50
224.999424
51
252.423990
0
LWPOLYLINE
5
75
100
AcDbEntity
8
COPPER_BOTTOM
62
1
100
AcDbPolyline
90
2
70
0
43
0.050000
39
0.050000
10
540.053094
20
2712.219216
10
532.218847
20
2720.053620
0
ARC
5
76
100
AcDbEntity
8
COPPER_BOTTOM
62
1
100
AcDbCircle
39
0.050000
10
549.999977
20
2737.834393
30
0.0
40
25.146063
100
AcDbArc
50
179.922721
51
224.999424
0
LWPOLYLINE
5
77
100
AcDbEntity
8
COPPER_BOTTOM
62
1
100
AcDbPolyline
90
3
70
0
43
0.050000
39
0.050000
10
524.853937
20
2737.868309
10
524.853937
20
2814.853937
10
280.000000
20
2814.853937
0
ARC
5
78
100
AcDbEntity
8
COPPER_BOTTOM
62
1
100
AcDbCircle
39
0.050000
10
280.000000
20
2840.000000
30
0.0
40
25.146063
100
AcDbArc
50
180.000000
51
270.000000
0
LWPOLYLINE
5
79
100
AcDbEntity
8
COPPER_BOTTOM
62
1
100
AcDbPolyline
90
2
70
0
43
0.050000
39
0.050000
10
254.853937
20
2840.000000
10
254.853937
20
2840.783639
0
ARC
5
7A
100
AcDbEntity
8
COPPER_BOTTOM
62
1
100
AcDbCircle
39
0.050000
10
260.000000
20
2880.000000
30
0.0
40
39.552559
100
AcDbArc
50
32.651418
51
262.524227
0
ARC
5
7B
100
AcDbEntity
8
COPPER_BOTTOM
62
1
100
AcDbCircle
39
0.050000
10
280.000000
20
2880.000000
30
0.0
40
25.146063
100
AcDbArc
50
0.000000
51
58.062774
0
LWPOLYLINE
5
7C
100
AcDbEntity
8
COPPER_BOTTOM
62
1
100
AcDbPolyline
90
3
70
0
43
0.050000
39
0.050000
10
305.146063
20
2880.000000
10
305.146063
20
2865.146063
10
539.964884
20
2865.146063
0
ARC
5
7D
100
AcDbEntity
8
COPPER_BOTTOM
62
1
100
AcDbCircle
39
0.050000
10
539.999936
20
2840.000024
30
0.0
40
25.146063
100
AcDbArc
50
69.046958
51
90.079868
0
ARC
5
7E
100
AcDbEntity
8
COPPER_BOTTOM
62
1
100
AcDbCircle
39
0.050000
10
540.000000
20
2840.000000
30
0.0
40
25.146063
100
AcDbArc
50
44.914743
51
69.047114
0
LWPOLYLINE
5
7F
100
AcDbEntity
8
COPPER_BOTTOM
62
1
100
AcDbPolyline
90
2
70
0
43
0.050000
39
0.050000
10
557.807390
20
2857.754474
10
567.754474
20
2847.807390
0
ARC
5
80
100
AcDbEntity
8
COPPER_BOTTOM
62
1
100
AcDbCircle
39
0.050000
10
550.000000
20
2830.000000
30
0.0
40
25.146063
100
AcDbArc
50
0.000000
51
45.085257
0
LWPOLYLINE
5
81
100
AcDbEntity
8
COPPER_BOTTOM
62
1
100
AcDbPolyline
90
2
70
0
43
0.050000
39
0.050000
10
575.146063
20
2830.000000
10
575.146063
20
2774.401094
0
ARC
5
82
100
AcDbEntity
8
COPPER_BOTTOM
62
1
100
AcDbCircle
39
0.050000
10
577.268307
20
2734.905512
30
0.0
40
39.552559
100
AcDbArc
50
63.601341
51
93.075757
0
LWPOLYLINE
5
83
100
AcDbEntity
8
COPPER_BOTTOM
62
1
100
AcDbPolyline
90
2
70
0
43
0.050000
39
0.050000
10
594.853937
20
2770.333616
10
594.853937
20
2779.944867
0
ARC
5
84
100
AcDbEntity
8
COPPER_BOTTOM
62
1
100
AcDbCircle
39
0.050000
10
619.999940
20
2779.999979
30
0.0
40
25.146063
100
AcDbArc
50
135.000000
51
180.125573
0
LWPOLYLINE
5
85
100
AcDbEntity
8
COPPER_BOTTOM
62
1
100
AcDbPolyline
90
2
70
0
43
0.050000
39
0.050000
10
602.218988
20
2797.780931
10
622.219002
20
2817.780945
0
ARC
5
86
100
AcDbEntity
8
COPPER_BOTTOM
62
1
100
AcDbCircle
39
0.050000
10
639.999954
20
2799.999993
30
0.0
40
25.146063
100
AcDbArc
50
98.395034
51
135.000000
0
ARC
5
87
100
AcDbEntity
8
COPPER_BOTTOM
62
1
100
AcDbCircle
39
0.050000
10
640.000000
20
2800.000000
30
0.0
40
25.146063
100
AcDbArc
50
90.000000
51
98.395140
0
LWPOLYLINE
5
88
100
AcDbEntity
8
COPPER_BOTTOM
62
1
100
AcDbPolyline
90
2
70
0
43
0.050000
39
0.050000
10
640.000000
20
2825.146063
10
1579.967424
20
2825.146063
0
ARC
5
89
100
AcDbEntity
8
COPPER_BOTTOM
62
1
100
AcDbCircle
39
0.050000
10
1579.999940
20
2800.000021
30
0.0
40
25.146063
100
AcDbArc
50
70.806938
51
90.074088
0
ARC
5
8A
100
AcDbEntity
8
COPPER_BOTTOM
62
1
100
AcDbCircle
39
0.050000
10
1580.000000
20
2800.000000
30
0.0
40
25.146063
100
AcDbArc
50
44.914743
51
70.807083
0
LWPOLYLINE
5
8B
100
AcDbEntity
8
COPPER_BOTTOM
62
1
100
AcDbPolyline
90
2
70
0
43
0.050000
39
0.050000
10
1597.807390
20
2817.754474
10
1617.780905
20
2797.780958
0
ARC
5
8C
100
AcDbEntity
8
COPPER_BOTTOM
62
1
100
AcDbCircle
39
0.050000
10
1599.999954
20
2780.000007
30
0.0
40
25.146063
100
AcDbArc
50
306.898628
51
45.000000
0
LWPOLYLINE
5
8D
100
AcDbEntity
8
COPPER_BOTTOM
62
1
100
AcDbPolyline
90
3
70
0
43
0.050000
39
0.050000
10
1615.097677
20
2759.890725
10
1615.097677
20
2445.097677
10
1695.646168
20
2445.097677
0
ARC
5
8E
100
AcDbEntity
8
COPPER_BOTTOM
62
1
100
AcDbCircle
39
0.050000
10
1730.000000
20
2430.000000
30
0.0
40
37.525000
100
AcDbArc
50
138.479634
51
156.275674
0
ARC
5
8F
100
AcDbEntity
8
COPPER_BOTTOM
62
1
100
AcDbCircle
39
0.050000
10
1702.928872
20
2479.999986
30
0.0
40
25.146063
100
AcDbArc
50
225.000000
51
267.664794
0
LWPOLYLINE
5
90
100
AcDbEntity
8
COPPER_BOTTOM
62
1
100
AcDbPolyline
90
2
70
0
43
0.050000
39
0.050000
10
1685.147920
20
2462.219034
10
1682.219023
20
2465.147932
0
ARC
5
91
100
AcDbEntity
8
COPPER_BOTTOM
62
1
100
AcDbCircle
39
0.050000
10
1699.999975
20
2482.928884
30
0.0
40
25.146063
100
AcDbArc
50
179.918566
51
225.000000
0
LWPOLYLINE
5
92
100
AcDbEntity
8
COPPER_BOTTOM
62
1
100
AcDbPolyline
90
2
70
0
43
0.050000
39
0.050000
10
1674.853937
20
2482.964623
10
1674.853937
20
2696.686559
0
ARC
5
93
100
AcDbEntity
8
COPPER_BOTTOM
62
1
100
AcDbCircle
39
0.050000
10
1664.669803
20
2734.905512
30
0.0
40
39.552559
100
AcDbArc
50
32.651207
51
284.920798
0
ARC
5
94
100
AcDbEntity
8
COPPER_BOTTOM
62
1
100
AcDbCircle
39
0.050000
10
1684.669685
20
2734.905512
30
0.0
40
25.146063
100
AcDbArc
50
44.914743
51
58.062246
0
LWPOLYLINE
5
95
100
AcDbEntity
8
COPPER_BOTTOM
62
1
100
AcDbPolyline
90
2
70
0
43
0.050000
39
0.050000
10
1702.477075
20
2752.659986
10
1717.754474
20
2737.382587
0
ARC
5
96
100
AcDbEntity
8
COPPER_BOTTOM
62
1
100
AcDbCircle
39
0.050000
10
1700.000000
20
2719.575197
30
0.0
40
25.146063
100
AcDbArc
50
0.000000
51
45.085257
0
LWPOLYLINE
5
97
100
AcDbEntity
8
COPPER_BOTTOM
62
1
100
AcDbPolyline
90
3
70
0
43
0.050000
39
0.050000
10
1725.146063
20
2719.575197
10
1725.146063
20
2495.097677
10
1739.890607
20
2495.097677
0
ARC
5
98
100
AcDbEntity
8
COPPER_BOTTOM
62
1
100
AcDbCircle
39
0.050000
10
1759.999940
20
2480.000021
30
0.0
40
25.146063
100
AcDbArc
50
45.000000
51
143.101563
0
LWPOLYLINE
5
99
100
AcDbEntity
8
COPPER_BOTTOM
62
1
100
AcDbPolyline
90
2
70
0
43
0.050000
39
0.050000
10
1777.780891
20
2497.780973
10
1797.780905
20
2477.780958
0
ARC
5
9A
100
AcDbEntity
8
COPPER_BOTTOM
62
1
100
AcDbCircle
39
0.050000
10
1779.999954
20
2460.000007
30
0.0
40
25.146063
100
AcDbArc
50
306.898628
51
45.000000
0
LWPOLYLINE
5
9B
100
AcDbEntity
8
COPPER_BOTTOM
62
1
100
AcDbPolyline
90
2
70
0
43
0.050000
39
0.050000
10
1795.097677
20
2439.890725
10
1795.097677
20
2414.353832
0
ARC
5
9C
100
AcDbEntity
8
COPPER_BOTTOM
62
1
100
AcDbCircle
39
0.050000
10
1780.000000
20
2380.000000
30
0.0
40
37.525000
100
AcDbArc
50
336.681559
51
66.275674
0
LWPOLYLINE
5
9D
100
AcDbEntity
8
COPPER_BOTTOM
62
1
100
AcDbPolyline
90
2
70
0
43
0.050000
39
0.050000
10
1814.459921
20
2365.146063
10
2059.967424
20
2365.146063
0
ARC
5
9E
100
AcDbEntity
8
COPPER_BOTTOM
62
1
100
AcDbCircle
39
0.050000
10
2059.999940
20
2340.000021
30
0.0
40
25.146063
100
AcDbArc
50
70.806937
51
90.074088
0
ARC
5
9F
100
AcDbEntity
8
COPPER_BOTTOM
62
1
100
AcDbCircle
39
0.050000
10
2060.000000
20
2340.000000
30
0.0
40
25.146063
100
AcDbArc
50
44.914743
51
70.807083
0
LWPOLYLINE
5
A0
100
AcDbEntity
8
COPPER_BOTTOM
62
1
100
AcDbPolyline
90
2
70
0
43
0.050000
39
0.050000
10
2077.807390
20
2357.754474
10
2097.754474
20
2337.807390
0
ARC
5
A1
100
AcDbEntity
8
COPPER_BOTTOM
62
1
100
AcDbCircle
39
0.050000
10
2080.000000
20
2320.000000
30
0.0
40
25.146063
100
AcDbArc
50
0.000000
51
45.085257
0
LWPOLYLINE
5
A2
100
AcDbEntity
8
COPPER_BOTTOM
62
1
100
AcDbPolyline
90
2
70
0
43
0.050000
39
0.050000
10
2105.146063
20
2320.000000
10
2105.146063
20
2249.295101
0
ARC
5
A3
100
AcDbEntity
8
COPPER_BOTTOM
62
1
100
AcDbCircle
39
0.050000
10
2100.000000
20
2210.078740
30
0.0
40
39.552559
100
AcDbArc
50
174.273106
51
82.524227
0
ARC
5
A4
100
AcDbEntity
8
COPPER_BOTTOM
62
1
100
AcDbCircle
39
0.050000
10
2079.999940
20
2230.078761
30
0.0
40
25.146063
100
AcDbArc
50
179.874427
51
219.672469
0
LWPOLYLINE
5
A5
100
AcDbEntity
8
COPPER_BOTTOM
62
1
100
AcDbPolyline
90
4
70
0
43
0.050000
39
0.050000
10
2054.853937
20
2230.133873
10
2054.853937
20
2309.584120
10
2049.584120
20
2314.853937
10
1780.000000
20
2314.853937
0
ARC
5
A6
100
AcDbEntity
8
COPPER_BOTTOM
62
1
100
AcDbCircle
39
0.050000
10
1780.000000
20
2340.000000
30
0.0
40
25.146063
100
AcDbArc
50
180.000000
51
270.000000
0
LWPOLYLINE
5
A7
100
AcDbEntity
8
COPPER_BOTTOM
62
1
100
AcDbPolyline
90
2
70
0
43
0.050000
39
0.050000
10
1754.853937
20
2340.000000
10
1754.853937
20
2352.146793
0
ARC
5
A8
100
AcDbEntity
8
COPPER_BOTTOM
62
1
100
AcDbCircle
39
0.050000
10
1780.000000
20
2380.000000
30
0.0
40
37.525000
100
AcDbArc
50
180.076343
51
227.924064
0
LWPOLYLINE
5
A9
100
AcDbEntity
8
COPPER_BOTTOM
62
1
100
AcDbPolyline
90
2
70
0
43
0.050000
39
0.050000
10
1742.475033
20
2379.950000
10
1732.217116
20
2379.950000
0
ARC
5
AA
100
AcDbEntity
8
COPPER_BOTTOM
62
1
100
AcDbCircle
39
0.050000
10
1707.071102
20
2380.000000
30
0.0
40
25.146063
100
AcDbArc
50
351.898614
51
359.886074
0
LWPOLYLINE
5
AB
100
AcDbEntity
8
COPPER_BOTTOM
62
1
100
AcDbPolyline
90
2
70
0
43
0.050000
39
0.050000
10
1731.966214
20
2376.456287
10
1740.655112
20
2367.767448
0
ARC
5
AC
100
AcDbEntity
8
COPPER_BOTTOM
62
1
100
AcDbCircle
39
0.050000
10
1730.000000
20
2357.071260
30
0.0
40
15.097677
100
AcDbArc
50
0.000000
51
45.110226
0
LWPOLYLINE
5
AD
100
AcDbEntity
8
COPPER_BOTTOM
62
1
100
AcDbPolyline
90
3
70
0
43
0.050000
39
0.050000
10
1745.097677
20
2357.071260
10
1745.097677
20
1665.146063
10
2839.967424
20
1665.146063
0
ARC
5
AE
100
AcDbEntity
8
COPPER_BOTTOM
62
1
100
AcDbCircle
39
0.050000
10
2839.999940
20
1640.000021
30
0.0
40
25.146063
100
AcDbArc
50
70.806938
51
90.074088
0
ARC
5
AF
100
AcDbEntity
8
COPPER_BOTTOM
62
1
100
AcDbCircle
39
0.050000
10
2840.000000
20
1640.000000
30
0.0
40
25.146063
100
AcDbArc
50
44.914743
51
70.807084
0
LWPOLYLINE
5
B0
100
AcDbEntity
8
COPPER_BOTTOM
62
1
100
AcDbPolyline
90
2
70
0
43
0.050000
39
0.050000
10
2857.807390
20
1657.754474
10
2877.754474
20
1637.807390
0
ARC
5
B1
100
AcDbEntity
8
COPPER_BOTTOM
62
1
100
AcDbCircle
39
0.050000
10
2860.000000
20
1620.000000
30
0.0
40
25.146063
100
AcDbArc
50
0.000000
51
45.085257
0
LWPOLYLINE
5
B2
100
AcDbEntity
8
COPPER_BOTTOM
62
1
100
AcDbPolyline
90
2
70
0
43
0.050000
39
0.050000
10
2885.146063
20
1620.000000
10
2885.146063
20
1591.460311
0
ARC
5
B3
100
AcDbEntity
8
COPPER_BOTTOM
62
1
100
AcDbCircle
39
0.050000
10
2860.000000
20
1560.000000
30
0.0
40
40.275000
100
AcDbArc
50
128.635163
51
51.364837
0
LWPOLYLINE
5
B4
100
AcDbEntity
8
COPPER_BOTTOM
62
1
100
AcDbPolyline
90
4
70
0
43
0.050000
39
0.050000
10
2834.853937
20
1591.460311
10
2834.853937
20
1609.584120
10
2829.584120
20
1614.853937
10
1732.928898
20
1614.853937
0
ARC
5
B5
100
AcDbEntity
8
COPPER_BOTTOM
62
1
100
AcDbCircle
39
0.050000
10
1732.928898
20
1640.000000
30
0.0
40
25.146063
100
AcDbArc
50
135.797044
51
270.000000
0
LWPOLYLINE
5
B6
100
AcDbEntity
8
COPPER_BOTTOM
62
1
100
AcDbPolyline
90
2
70
0
43
0.050000
39
0.050000
10
1720.000000
20
3745.146063
10
2828.539689
20
3745.146063
0
ARC
5
B7
100
AcDbEntity
8
COPPER_BOTTOM
62
1
100
AcDbCircle
39
0.050000
10
2860.000000
20
3720.000000
30
0.0
40
40.275000
100
AcDbArc
50
218.635163
51
141.364837
0
LWPOLYLINE
5
B8
100
AcDbEntity
8
COPPER_BOTTOM
62
1
100
AcDbPolyline
90
4
70
0
43
0.050000
39
0.050000
10
2828.539689
20
3694.853937
10
1730.415801
20
3694.853937
10
1725.146063
20
3689.584199
10
1725.146063
20
3613.258811
0
ARC
5
B9
100
AcDbEntity
8
COPPER_BOTTOM
62
1
100
AcDbCircle
39
0.050000
10
1700.000000
20
3580.000000
30
0.0
40
41.695000
100
AcDbArc
50
262.091865
51
52.908087
0
LWPOLYLINE
5
BA
100
AcDbEntity
8
COPPER_BOTTOM
62
1
100
AcDbPolyline
90
3
70
0
43
0.050000
39
0.050000
10
1694.263386
20
3538.701522
10
1685.146063
20
3529.584199
10
1685.146063
20
3280.556271
0
ARC
5
BB
100
AcDbEntity
8
COPPER_BOTTOM
62
1
100
AcDbCircle
39
0.050000
10
1664.669803
20
3246.716535
30
0.0
40
39.552559
100
AcDbArc
50
219.476615
51
58.822071
0
LWPOLYLINE
5
BC
100
AcDbEntity
8
COPPER_BOTTOM
62
1
100
AcDbPolyline
90
2
70
0
43
0.050000
39
0.050000
10
1634.139811
20
3221.570472
10
751.499048
20
3221.570472
0
ARC
5
BD
100
AcDbEntity
8
COPPER_BOTTOM
62
1
100
AcDbCircle
39
0.050000
10
720.969055
20
3246.716535
30
0.0
40
39.552559
100
AcDbArc
50
219.224030
51
320.523385
0
ARC
5
BE
100
AcDbEntity
8
COPPER_BOTTOM
62
1
100
AcDbCircle
39
0.050000
10
692.929098
20
3246.716532
30
0.0
40
25.146063
100
AcDbArc
50
225.000000
51
264.063884
0
LWPOLYLINE
5
BF
100
AcDbEntity
8
COPPER_BOTTOM
62
1
100
AcDbPolyline
90
2
70
0
43
0.050000
39
0.050000
10
675.148147
20
3228.935580
10
662.219033
20
3241.864693
0
ARC
5
C0
100
AcDbEntity
8
COPPER_BOTTOM
62
1
100
AcDbCircle
39
0.050000
10
679.999985
20
3259.645645
30
0.0
40
25.146063
100
AcDbArc
50
179.936929
51
225.000000
0
LWPOLYLINE
5
C1
100
AcDbEntity
8
COPPER_BOTTOM
62
1
100
AcDbPolyline
90
2
70
0
43
0.050000
39
0.050000
10
654.853937
20
3259.673326
10
654.853937
20
3566.741189
0
ARC
5
C2
100
AcDbEntity
8
COPPER_BOTTOM
62
1
100
AcDbCircle
39
0.050000
10
680.000000
20
3600.000000
30
0.0
40
41.695000
100
AcDbArc
50
307.091913
51
232.908087
0
LWPOLYLINE
5
C3
100
AcDbEntity
8
COPPER_BOTTOM
62
1
100
AcDbPolyline
90
2
70
0
43
0.050000
39
0.050000
10
705.146063
20
3566.741189
10
705.146063
20
3282.966195
0
ARC
5
C4
100
AcDbEntity
8
COPPER_BOTTOM
62
1
100
AcDbCircle
39
0.050000
10
720.969055
20
3246.716535
30
0.0
40
39.552559
100
AcDbArc
50
39.476615
51
113.581290
0
LWPOLYLINE
5
C5
100
AcDbEntity
8
COPPER_BOTTOM
62
1
100
AcDbPolyline
90
2
70
0
43
0.050000
39
0.050000
10
751.499048
20
3271.862598
10
1634.139811
20
3271.862598
0
ARC
5
C6
100
AcDbEntity
8
COPPER_BOTTOM
62
1
100
AcDbCircle
39
0.050000
10
1664.669803
20
3246.716535
30
0.0
40
39.552559
100
AcDbArc
50
138.923156
51
140.523385
0
LWPOLYLINE
5
C7
100
AcDbEntity
8
COPPER_BOTTOM
62
1
100
AcDbPolyline
90
2
70
0
43
0.050000
39
0.050000
10
1634.853937
20
3272.705361
10
1634.853937
20
3539.948077
0
ARC
5
C8
100
AcDbEntity
8
COPPER_BOTTOM
62
1
100
AcDbCircle
39
0.050000
10
1659.999946
20
3539.999986
30
0.0
40
25.146063
100
AcDbArc
50
135.000000
51
180.118274
0
LWPOLYLINE
5
C9
100
AcDbEntity
8
COPPER_BOTTOM
62
1
100
AcDbPolyline
90
2
70
0
43
0.050000
39
0.050000
10
1642.218995
20
3557.780937
10
1658.701512
20
3574.263455
0
ARC
5
CA
100
AcDbEntity
8
COPPER_BOTTOM
62
1
100
AcDbCircle
39
0.050000
10
1700.000000
20
3580.000000
30
0.0
40
41.695000
100
AcDbArc
50
127.091913
51
187.908039
0
LWPOLYLINE
5
CB
100
AcDbEntity
8
COPPER_BOTTOM
62
1
100
AcDbPolyline
90
2
70
0
43
0.050000
39
0.050000
10
1674.853937
20
3613.258811
10
1674.853937
20
3699.944867
0
ARC
5
CC
100
AcDbEntity
8
COPPER_BOTTOM
62
1
100
AcDbCircle
39
0.050000
10
1699.999940
20
3699.999979
30
0.0
40
25.146063
100
AcDbArc
50
135.000000
51
180.125573
0
LWPOLYLINE
5
CD
100
AcDbEntity
8
COPPER_BOTTOM
62
1
100
AcDbPolyline
90
2
70
0
43
0.050000
39
0.050000
10
1682.218988
20
3717.780931
10
1702.219002
20
3737.780945
0
ARC
5
CE
100
AcDbEntity
8
COPPER_BOTTOM
62
1
100
AcDbCircle
39
0.050000
10
1719.999954
20
3719.999993
30
0.0
40
25.146063
100
AcDbArc
50
98.395034
51
135.000000
0
ARC
5
CF
100
AcDbEntity
8
COPPER_BOTTOM
62
1
100
AcDbCircle
39
0.050000
10
1720.000000
20
3720.000000
30
0.0
40
25.146063
100
AcDbArc
50
90.000000
51
98.395140
0
ARC
5
D0
100
AcDbEntity
8
COPPER_BOTTOM
62
1
100
AcDbCircle
39
0.050000
10
1800.000000
20
3580.000000
30
0.0
40
41.695000
100
AcDbArc
50
327.451073
51
248.699553
0
LWPOLYLINE
5
D1
100
AcDbEntity
8
COPPER_BOTTOM
62
1
100
AcDbPolyline
90
2
70
0
43
0.050000
39
0.050000
10
1835.146063
20
3557.567272
10
1835.146063
20
3275.827992
0
ARC
5
D2
100
AcDbEntity
8
COPPER_BOTTOM
62
1
100
AcDbCircle
39
0.050000
10
1808.370551
20
3246.716535
30
0.0
40
39.552559
100
AcDbArc
50
126.481713
51
47.393436
0
LWPOLYLINE
5
D3
100
AcDbEntity
8
COPPER_BOTTOM
62
1
100
AcDbPolyline
90
2
70
0
43
0.050000
39
0.050000
10
1784.853937
20
3278.518639
10
1784.853937
20
3541.153252
0
ARC
5
D4
100
AcDbEntity
8
COPPER_BOTTOM
62
1
100
AcDbCircle
39
0.050000
10
580.000000
20
3580.000000
30
0.0
40
25.146063
100
AcDbArc
50
314.914743
51
315.408548
0
LWPOLYLINE
5
D5
100
AcDbEntity
8
COPPER_BOTTOM
62
1
100
AcDbPolyline
90
3
70
0
43
0.050000
39
0.050000
10
597.754474
20
3562.192610
10
585.146063
20
3549.584199
10
585.146063
20
3285.476642
0
ARC
5
D6
100
AcDbEntity
8
COPPER_BOTTOM
62
1
100
AcDbCircle
39
0.050000
10
577.268307
20
3246.716535
30
0.0
40
39.552559
100
AcDbArc
50
172.702150
51
78.511465
0
ARC
5
D7
100
AcDbEntity
8
COPPER_BOTTOM
62
1
100
AcDbCircle
39
0.050000
10
559.999959
20
3263.984805
30
0.0
40
25.146063
100
AcDbArc
50
179.896264
51
209.138056
0
LWPOLYLINE
5
D8
100
AcDbEntity
8
COPPER_BOTTOM
62
1
100
AcDbPolyline
90
2
70
0
43
0.050000
39
0.050000
10
534.853937
20
3264.030333
10
534.853937
20
3559.944867
0
ARC
5
D9
100
AcDbEntity
8
COPPER_BOTTOM
62
1
100
AcDbCircle
39
0.050000
10
559.999940
20
3559.999979
30
0.0
40
25.146063
100
AcDbArc
50
135.000000
51
180.125573
0
LWPOLYLINE
5
DA
100
AcDbEntity
8
COPPER_BOTTOM
62
1
100
AcDbPolyline
90
2
70
0
43
0.050000
39
0.050000
10
542.218988
20
3577.780931
10
543.781501
20
3579.343443
0
ARC
5
DB
100
AcDbEntity
8
COPPER_BOTTOM
62
1
100
AcDbCircle
39
0.050000
10
580.000000
20
3600.000000
30
0.0
40
41.695000
100
AcDbArc
50
295.434742
51
209.697481
0
LWPOLYLINE
5
DC
100
AcDbEntity
8
COPPER_BOTTOM
62
1
100
AcDbPolyline
90
5
70
0
43
0.050000
39
0.050000
10
3540.000000
20
3929.926496
10
0.033976
20
3929.926496
10
0.033976
20
1280.000000
10
3540.000000
20
1280.000000
10
3540.000000
20
3929.926496
0
LWPOLYLINE
5
DD
100
AcDbEntity
8
COPPER_BOTTOM
62
1
100
AcDbPolyline
90
2
70
0
43
10.000000
39
10.000000
10
540.000000
20
2840.000000
10
280.000000
20
2840.000000
0
LWPOLYLINE
5
DE
100
AcDbEntity
8
COPPER_BOTTOM
62
1
100
AcDbPolyline
90
2
70
0
43
10.000000
39
10.000000
10
2100.000000
20
2210.078740
10
2080.000000
20
2230.078740
0
LWPOLYLINE
5
DF
100
AcDbEntity
8
COPPER_BOTTOM
62
1
100
AcDbPolyline
90
2
70
0
43
10.000000
39
10.000000
10
2080.000000
20
2230.078740
10
2080.000000
20
2320.000000
0
LWPOLYLINE
5
E0
100
AcDbEntity
8
COPPER_BOTTOM
62
1
100
AcDbPolyline
90
2
70
0
43
10.000000
39
10.000000
10
2080.000000
20
2320.000000
10
2060.000000
20
2340.000000
0
LWPOLYLINE
5
E1
100
AcDbEntity
8
COPPER_BOTTOM
62
1
100
AcDbPolyline
90
2
70
0
43
10.000000
39
10.000000
10
2060.000000
20
2340.000000
10
1780.000000
20
2340.000000
0
LWPOLYLINE
5
E2
100
AcDbEntity
8
COPPER_BOTTOM
62
1
100
AcDbPolyline
90
2
70
0
43
10.000000
39
10.000000
10
1780.000000
20
2340.000000
10
1780.000000
20
2380.000000
0
LWPOLYLINE
5
E3
100
AcDbEntity
8
COPPER_BOTTOM
62
1
100
AcDbPolyline
90
2
70
0
43
10.000000
39
10.000000
10
1780.000000
20
2460.000000
10
1760.000000
20
2480.000000
0
LWPOLYLINE
5
E4
100
AcDbEntity
8
COPPER_BOTTOM
62
1
100
AcDbPolyline
90
2
70
0
43
10.000000
39
10.000000
10
645.000000
20
2405.000000
10
620.000000
20
2380.000000
0
LWPOLYLINE
5
E5
100
AcDbEntity
8
COPPER_BOTTOM
62
1
100
AcDbPolyline
90
2
70
0
43
10.000000
39
10.000000
10
620.000000
20
2380.000000
10
620.000000
20
2300.000000
0
LWPOLYLINE
5
E6
100
AcDbEntity
8
COPPER_BOTTOM
62
1
100
AcDbPolyline
90
2
70
0
43
10.000000
39
10.000000
10
680.000000
20
2420.000000
10
665.000000
20
2405.000000
0
LWPOLYLINE
5
E7
100
AcDbEntity
8
COPPER_BOTTOM
62
1
100
AcDbPolyline
90
2
70
0
43
10.000000
39
10.000000
10
665.000000
20
2405.000000
10
645.000000
20
2405.000000
0
LWPOLYLINE
5
E8
100
AcDbEntity
8
COPPER_BOTTOM
62
1
100
AcDbPolyline
90
2
70
0
43
10.000000
39
10.000000
10
280.000000
20
2840.000000
10
280.000000
20
2880.000000
0
LWPOLYLINE
5
E9
100
AcDbEntity
8
COPPER_BOTTOM
62
1
100
AcDbPolyline
90
2
70
0
43
10.000000
39
10.000000
10
280.000000
20
2880.000000
10
260.000000
20
2880.000000
0
LWPOLYLINE
5
EA
100
AcDbEntity
8
COPPER_BOTTOM
62
1
100
AcDbPolyline
90
2
70
0
43
10.000000
39
10.000000
10
2860.000000
20
1560.000000
10
2860.000000
20
1620.000000
0
LWPOLYLINE
5
EB
100
AcDbEntity
8
COPPER_BOTTOM
62
1
100
AcDbPolyline
90
2
70
0
43
10.000000
39
10.000000
10
2860.000000
20
1620.000000
10
2840.000000
20
1640.000000
0
LWPOLYLINE
5
EC
100
AcDbEntity
8
COPPER_BOTTOM
62
1
100
AcDbPolyline
90
2
70
0
43
10.000000
39
10.000000
10
2100.000000
20
2840.000000
10
2080.000000
20
2840.000000
0
LWPOLYLINE
5
ED
100
AcDbEntity
8
COPPER_BOTTOM
62
1
100
AcDbPolyline
90
2
70
0
43
10.000000
39
10.000000
10
2080.000000
20
2840.000000
10
2080.000000
20
2800.000000
0
LWPOLYLINE
5
EE
100
AcDbEntity
8
COPPER_BOTTOM
62
1
100
AcDbPolyline
90
2
70
0
43
10.000000
39
10.000000
10
2080.000000
20
2800.000000
10
2060.000000
20
2780.000000
0
LWPOLYLINE
5
EF
100
AcDbEntity
8
COPPER_BOTTOM
62
1
100
AcDbPolyline
90
2
70
0
43
10.000000
39
10.000000
10
2060.000000
20
2780.000000
10
1840.000000
20
2780.000000
0
LWPOLYLINE
5
F0
100
AcDbEntity
8
COPPER_BOTTOM
62
1
100
AcDbPolyline
90
2
70
0
43
10.000000
39
10.000000
10
1840.000000
20
2780.000000
10
1840.000000
20
2766.534961
0
LWPOLYLINE
5
F1
100
AcDbEntity
8
COPPER_BOTTOM
62
1
100
AcDbPolyline
90
2
70
0
43
10.000000
39
10.000000
10
1840.000000
20
2766.534961
10
1808.370551
20
2734.905512
0
LWPOLYLINE
5
F2
100
AcDbEntity
8
COPPER_BOTTOM
62
1
100
AcDbPolyline
90
2
70
0
43
10.000000
39
10.000000
10
1680.000000
20
2380.000000
10
760.000000
20
2380.000000
0
LWPOLYLINE
5
F3
100
AcDbEntity
8
COPPER_BOTTOM
62
1
100
AcDbPolyline
90
2
70
0
43
10.000000
39
10.000000
10
760.000000
20
2380.000000
10
760.000000
20
2390.000000
0
LWPOLYLINE
5
F4
100
AcDbEntity
8
COPPER_BOTTOM
62
1
100
AcDbPolyline
90
2
70
0
43
10.000000
39
10.000000
10
760.000000
20
2390.000000
10
745.000000
20
2405.000000
0
LWPOLYLINE
5
F5
100
AcDbEntity
8
COPPER_BOTTOM
62
1
100
AcDbPolyline
90
2
70
0
43
10.000000
39
10.000000
10
1664.669803
20
3246.716535
10
1626.716535
20
3246.716535
0
LWPOLYLINE
5
F6
100
AcDbEntity
8
COPPER_BOTTOM
62
1
100
AcDbPolyline
90
2
70
0
43
10.000000
39
10.000000
10
1600.000000
20
2780.000000
10
1580.000000
20
2800.000000
0
LWPOLYLINE
5
F7
100
AcDbEntity
8
COPPER_BOTTOM
62
1
100
AcDbPolyline
90
2
70
0
43
10.000000
39
10.000000
10
1580.000000
20
2800.000000
10
640.000000
20
2800.000000
0
LWPOLYLINE
5
F8
100
AcDbEntity
8
COPPER_BOTTOM
62
1
100
AcDbPolyline
90
2
70
0
43
10.000000
39
10.000000
10
640.000000
20
2800.000000
10
620.000000
20
2780.000000
0
LWPOLYLINE
5
F9
100
AcDbEntity
8
COPPER_BOTTOM
62
1
100
AcDbPolyline
90
2
70
0
43
10.000000
39
10.000000
10
580.000000
20
3600.000000
10
580.000000
20
3580.000000
0
LWPOLYLINE
5
FA
100
AcDbEntity
8
COPPER_BOTTOM
62
1
100
AcDbPolyline
90
2
70
0
43
10.000000
39
10.000000
10
580.000000
20
3580.000000
10
560.000000
20
3560.000000
0
LWPOLYLINE
5
FB
100
AcDbEntity
8
COPPER_BOTTOM
62
1
100
AcDbPolyline
90
2
70
0
43
10.000000
39
10.000000
10
560.000000
20
3560.000000
10
560.000000
20
3263.984843
0
LWPOLYLINE
5
FC
100
AcDbEntity
8
COPPER_BOTTOM
62
1
100
AcDbPolyline
90
2
70
0
43
10.000000
39
10.000000
10
560.000000
20
3263.984843
10
577.268307
20
3246.716535
0
LWPOLYLINE
5
FD
100
AcDbEntity
8
COPPER_BOTTOM
62
1
100
AcDbPolyline
90
2
70
0
43
10.000000
39
10.000000
10
680.000000
20
3580.000000
10
680.000000
20
3600.000000
0
LWPOLYLINE
5
FE
100
AcDbEntity
8
COPPER_BOTTOM
62
1
100
AcDbPolyline
90
2
70
0
43
10.000000
39
10.000000
10
695.000000
20
2355.000000
10
1650.000000
20
1400.000000
0
LWPOLYLINE
5
FF
100
AcDbEntity
8
COPPER_BOTTOM
62
1
100
AcDbPolyline
90
2
70
0
43
10.000000
39
10.000000
10
1650.000000
20
1400.000000
10
3390.000000
20
1400.000000
0
LWPOLYLINE
5
100
100
AcDbEntity
8
COPPER_BOTTOM
62
1
100
AcDbPolyline
90
2
70
0
43
10.000000
39
10.000000
10
3390.000000
20
1400.000000
10
3440.000000
20
1450.000000
0
LWPOLYLINE
5
101
100
AcDbEntity
8
COPPER_BOTTOM
62
1
100
AcDbPolyline
90
2
70
0
43
10.000000
39
10.000000
10
3440.000000
20
1450.000000
10
3440.000000
20
2335.000000
0
LWPOLYLINE
5
102
100
AcDbEntity
8
COPPER_BOTTOM
62
1
100
AcDbPolyline
90
2
70
0
43
10.000000
39
10.000000
10
3440.000000
20
2335.000000
10
2935.000000
20
2840.000000
0
LWPOLYLINE
5
103
100
AcDbEntity
8
COPPER_BOTTOM
62
1
100
AcDbPolyline
90
2
70
0
43
10.000000
39
10.000000
10
2935.000000
20
2840.000000
10
2100.000000
20
2840.000000
0
LWPOLYLINE
5
104
100
AcDbEntity
8
COPPER_BOTTOM
62
1
100
AcDbPolyline
90
2
70
0
43
10.000000
39
10.000000
10
1684.669685
20
2734.905512
10
1664.669803
20
2734.905512
0
LWPOLYLINE
5
105
100
AcDbEntity
8
COPPER_BOTTOM
62
1
100
AcDbPolyline
90
2
70
0
43
10.000000
39
10.000000
10
1700.000000
20
2482.928898
10
1702.928898
20
2480.000000
0
LWPOLYLINE
5
106
100
AcDbEntity
8
COPPER_BOTTOM
62
1
100
AcDbPolyline
90
2
70
0
43
10.000000
39
10.000000
10
1700.000000
20
2719.575197
10
1684.669685
20
2734.905512
0
LWPOLYLINE
5
107
100
AcDbEntity
8
COPPER_BOTTOM
62
1
100
AcDbPolyline
90
2
70
0
43
10.000000
39
10.000000
10
1700.000000
20
2482.928898
10
1700.000000
20
2719.575197
0
HATCH
5
108
100
AcDbEntity
8
COPPER_BOTTOM
100
AcDbHatch
10
0.0
20
0.0
30
0.0
210
0.0
220
0.0
230
1.0
2
SOLID
70
1
71
0
91
2
92
1
93
1
72
2
10
260.000000
20
2880.000000
40
29.527559
50
0.000000
51
360.000000
73
1
97
0
92
1
93
1
72
2
10
260.000000
20
2880.000000
40
17.716535
50
0.000000
51
360.000000
73
1
97
0
75
0
76
0
98
1
10
0.0
20
0.0
0
HATCH
5
109
100
AcDbEntity
8
COPPER_BOTTOM
100
AcDbHatch
10
0.0
20
0.0
30
0.0
210
0.0
220
0.0
230
1.0
2
SOLID
70
1
71
0
91
2
92
1
93
1
72
2
10
260.000000
20
2250.078740
40
29.527559
50
0.000000
51
360.000000
73
1
97
0
92
1
93
1
72
2
10
260.000000
20
2250.078740
40
17.716535
50
0.000000
51
360.000000
73
1
97
0
75
0
76
0
98
1
10
0.0
20
0.0
0
HATCH
5
10A
100
AcDbEntity
8
COPPER_BOTTOM
100
AcDbHatch
10
0.0
20
0.0
30
0.0
210
0.0
220
0.0
230
1.0
2
SOLID
70
1
71
0
91
2
92
1
93
1
72
2
10
577.268307
20
2734.905512
40
29.527559
50
0.000000
51
360.000000
73
1
97
0
92
1
93
1
72
2
10
577.268307
20
2734.905512
40
17.716535
50
0.000000
51
360.000000
73
1
97
0
75
0
76
0
98
1
10
0.0
20
0.0
0
HATCH
5
10B
100
AcDbEntity
8
COPPER_BOTTOM
100
AcDbHatch
10
0.0
20
0.0
30
0.0
210
0.0
220
0.0
230
1.0
2
SOLID
70
1
71
0
91
2
92
1
93
1
72
2
10
577.268307
20
3246.716535
40
29.527559
50
0.000000
51
360.000000
73
1
97
0
92
1
93
1
72
2
10
577.268307
20
3246.716535
40
17.716535
50
0.000000
51
360.000000
73
1
97
0
75
0
76
0
98
1
10
0.0
20
0.0
0
HATCH
5
10C
100
AcDbEntity
8
COPPER_BOTTOM
100
AcDbHatch
10
0.0
20
0.0
30
0.0
210
0.0
220
0.0
230
1.0
2
SOLID
70
1
71
0
91
2
92
1
93
1
72
2
10
720.969055
20
2734.905512
40
29.527559
50
0.000000
51
360.000000
73
1
97
0
92
1
93
1
72
2
10
720.969055
20
2734.905512
40
17.716535
50
0.000000
51
360.000000
73
1
97
0
75
0
76
0
98
1
10
0.0
20
0.0
0
HATCH
5
10D
100
AcDbEntity
8
COPPER_BOTTOM
100
AcDbHatch
10
0.0
20
0.0
30
0.0
210
0.0
220
0.0
230
1.0
2
SOLID
70
1
71
0
91
2
92
1
93
1
72
2
10
720.969055
20
3246.716535
40
29.527559
50
0.000000
51
360.000000
73
1
97
0
92
1
93
1
72
2
10
720.969055
20
3246.716535
40
17.716535
50
0.000000
51
360.000000
73
1
97
0
75
0
76
0
98
1
10
0.0
20
0.0
0
HATCH
5
10E
100
AcDbEntity
8
COPPER_BOTTOM
100
AcDbHatch
10
0.0
20
0.0
30
0.0
210
0.0
220
0.0
230
1.0
2
SOLID
70
1
71
0
91
2
92
1
93
1
72
2
10
1808.370551
20
3246.716535
40
29.527559
50
0.000000
51
360.000000
73
1
97
0
92
1
93
1
72
2
10
1808.370551
20
3246.716535
40
17.716535
50
0.000000
51
360.000000
73
1
97
0
75
0
76
0
98
1
10
0.0
20
0.0
0
HATCH
5
10F
100
AcDbEntity
8
COPPER_BOTTOM
100
AcDbHatch
10
0.0
20
0.0
30
0.0
210
0.0
220
0.0
230
1.0
2
SOLID
70
1
71
0
91
2
92
1
93
1
72
2
10
1808.370551
20
2734.905512
40
29.527559
50
0.000000
51
360.000000
73
1
97
0
92
1
93
1
72
2
10
1808.370551
20
2734.905512
40
17.716535
50
0.000000
51
360.000000
73
1
97
0
75
0
76
0
98
1
10
0.0
20
0.0
0
HATCH
5
110
100
AcDbEntity
8
COPPER_BOTTOM
100
AcDbHatch
10
0.0
20
0.0
30
0.0
210
0.0
220
0.0
230
1.0
2
SOLID
70
1
71
0
91
2
92
1
93
1
72
2
10
1664.669803
20
2734.905512
40
29.527559
50
0.000000
51
360.000000
73
1
97
0
92
1
93
1
72
2
10
1664.669803
20
2734.905512
40
17.716535
50
0.000000
51
360.000000
73
1
97
0
75
0
76
0
98
1
10
0.0
20
0.0
0
HATCH
5
111
100
AcDbEntity
8
COPPER_BOTTOM
100
AcDbHatch
10
0.0
20
0.0
30
0.0
210
0.0
220
0.0
230
1.0
2
SOLID
70
1
71
0
91
2
92
1
93
1
72
2
10
1664.669803
20
3246.716535
40
29.527559
50
0.000000
51
360.000000
73
1
97
0
92
1
93
1
72
2
10
1664.669803
20
3246.716535
40
17.716535
50
0.000000
51
360.000000
73
1
97
0
75
0
76
0
98
1
10
0.0
20
0.0
0
HATCH
5
112
100
AcDbEntity
8
COPPER_BOTTOM
100
AcDbHatch
10
0.0
20
0.0
30
0.0
210
0.0
220
0.0
230
1.0
2
SOLID
70
1
71
0
91
2
92
1
93
1
72
2
10
2100.000000
20
2210.078740
40
29.527559
50
0.000000
51
360.000000
73
1
97
0
92
1
93
1
72
2
10
2100.000000
20
2210.078740
40
17.716535
50
0.000000
51
360.000000
73
1
97
0
75
0
76
0
98
1
10
0.0
20
0.0
0
HATCH
5
113
100
AcDbEntity
8
COPPER_BOTTOM
100
AcDbHatch
10
0.0
20
0.0
30
0.0
210
0.0
220
0.0
230
1.0
2
SOLID
70
1
71
0
91
2
92
1
93
1
72
2
10
2100.000000
20
2840.000000
40
29.527559
50
0.000000
51
360.000000
73
1
97
0
92
1
93
1
72
2
10
2100.000000
20
2840.000000
40
17.716535
50
0.000000
51
360.000000
73
1
97
0
75
0
76
0
98
1
10
0.0
20
0.0
0
LWPOLYLINE
5
114
100
AcDbEntity
8
COPPER_BOTTOM
62
1
100
AcDbPolyline
90
2
70
0
43
10.000000
39
10.000000
10
1760.000000
20
2480.000000
10
1702.928898
20
2480.000000
0
LWPOLYLINE
5
115
100
AcDbEntity
8
COPPER_BOTTOM
62
1
100
AcDbPolyline
90
2
70
0
43
10.000000
39
10.000000
10
1780.000000
20
2380.000000
10
1780.000000
20
2460.000000
0
LWPOLYLINE
5
116
100
AcDbEntity
8
COPPER_BOTTOM
62
1
100
AcDbPolyline
90
2
70
0
43
10.000000
39
10.000000
10
1707.071102
20
2380.000000
10
1680.000000
20
2380.000000
0
LWPOLYLINE
5
117
100
AcDbEntity
8
COPPER_BOTTOM
62
1
100
AcDbPolyline
90
2
70
0
43
10.000000
39
10.000000
10
1730.000000
20
1642.928898
10
1732.928898
20
1640.000000
0
LWPOLYLINE
5
118
100
AcDbEntity
8
COPPER_BOTTOM
62
1
100
AcDbPolyline
90
2
70
0
43
10.000000
39
10.000000
10
1730.000000
20
2357.071260
10
1707.071102
20
2380.000000
0
LWPOLYLINE
5
119
100
AcDbEntity
8
COPPER_BOTTOM
62
1
100
AcDbPolyline
90
2
70
0
43
10.000000
39
10.000000
10
2840.000000
20
1640.000000
10
1732.928898
20
1640.000000
0
LWPOLYLINE
5
11A
100
AcDbEntity
8
COPPER_BOTTOM
62
1
100
AcDbPolyline
90
2
70
0
43
10.000000
39
10.000000
10
1730.000000
20
1642.928898
10
1730.000000
20
2357.071260
0
HATCH
5
11B
100
AcDbEntity
8
COPPER_BOTTOM
62
1
100
AcDbHatch
10
0.0
20
0.0
30
0.0
210
0.0
220
0.0
230
1.0
2
SOLID
70
1
71
0
91
1
92
1
93
3
72
1
10
1764.902323
20
2416.217639
11
1764.902323
21
2414.353832
72
2
10
1780.000000
20
2380.000000
40
37.525000
50
113.724326
51
115.421100
73
1
72
2
10
1730.000000
20
2430.000000
40
37.525000
50
334.578900
51
338.451740
73
1
97
0
75
0
76
0
98
1
10
0.0
20
0.0
0
LWPOLYLINE
5
11C
100
AcDbEntity
8
COPPER_BOTTOM
62
1
100
AcDbPolyline
90
2
70
0
43
0.050000
39
0.050000
10
1764.902323
20
2416.217639
10
1764.902323
20
2414.353832
0
ARC
5
11D
100
AcDbEntity
8
COPPER_BOTTOM
62
1
100
AcDbCircle
39
0.050000
10
1780.000000
20
2380.000000
30
0.0
40
37.525000
100
AcDbArc
50
113.724326
51
115.421100
0
ARC
5
11E
100
AcDbEntity
8
COPPER_BOTTOM
62
1
100
AcDbCircle
39
0.050000
10
1730.000000
20
2430.000000
30
0.0
40
37.525000
100
AcDbArc
50
334.578900
51
338.451740
0
HATCH
5
11F
100
AcDbEntity
8
COPPER_BOTTOM
62
1
100
AcDbHatch
10
0.0
20
0.0
30
0.0
210
0.0
220
0.0
230
1.0
2
SOLID
70
1
71
0
91
1
92
1
93
4
72
2
10
1707.071102
20
2380.000000
40
25.146063
50
330.214893
51
336.566990
73
0
72
1
10
1730.143261
20
2390.000000
11
1740.000000
21
2390.000000
72
1
10
1740.000000
20
2390.000000
11
1740.000000
21
2393.831981
72
2
10
1730.000000
20
2430.000000
40
37.525000
50
74.544551
51
91.687076
73
0
97
0
75
0
76
0
98
1
10
0.0
20
0.0
0
ARC
5
120
100
AcDbEntity
8
COPPER_BOTTOM
62
1
100
AcDbCircle
39
0.050000
10
1707.071102
20
2380.000000
30
0.0
40
25.146063
100
AcDbArc
50
23.433010
51
29.785107
0
LWPOLYLINE
5
121
100
AcDbEntity
8
COPPER_BOTTOM
62
1
100
AcDbPolyline
90
3
70
0
43
0.050000
39
0.050000
10
1730.143261
20
2390.000000
10
1740.000000
20
2390.000000
10
1740.000000
20
2393.831981
0
ARC
5
122
100
AcDbEntity
8
COPPER_BOTTOM
62
1
100
AcDbCircle
39
0.050000
10
1730.000000
20
2430.000000
30
0.0
40
37.525000
100
AcDbArc
50
268.312924
51
285.455449
0
LWPOLYLINE
5
123
100
AcDbEntity
8
COPPER_BOTTOM
62
1
100
AcDbPolyline
90
2
70
0
43
10.000000
39
10.000000
10
1660.000000
20
3540.000000
10
1660.000000
20
3251.386220
0
LWPOLYLINE
5
124
100
AcDbEntity
8
COPPER_BOTTOM
62
1
100
AcDbPolyline
90
2
70
0
43
10.000000
39
10.000000
10
1660.000000
20
3251.386220
10
1664.669685
20
3246.716535
0
LWPOLYLINE
5
125
100
AcDbEntity
8
COPPER_BOTTOM
62
1
100
AcDbPolyline
90
2
70
0
43
10.000000
39
10.000000
10
1700.000000
20
3580.000000
10
1660.000000
20
3540.000000
0
LWPOLYLINE
5
126
100
AcDbEntity
8
COPPER_BOTTOM
62
1
100
AcDbPolyline
90
2
70
0
43
10.000000
39
10.000000
10
1626.716535
20
3246.716535
10
740.968898
20
3246.716535
0
LWPOLYLINE
5
127
100
AcDbEntity
8
COPPER_BOTTOM
62
1
100
AcDbPolyline
90
2
70
0
43
10.000000
39
10.000000
10
680.000000
20
3259.645669
10
692.929134
20
3246.716535
0
LWPOLYLINE
5
128
100
AcDbEntity
8
COPPER_BOTTOM
62
1
100
AcDbPolyline
90
2
70
0
43
10.000000
39
10.000000
10
692.929134
20
3246.716535
10
740.968898
20
3246.716535
0
LWPOLYLINE
5
129
100
AcDbEntity
8
COPPER_BOTTOM
62
1
100
AcDbPolyline
90
2
70
0
43
10.000000
39
10.000000
10
680.000000
20
3259.645669
10
680.000000
20
3580.000000
0
LWPOLYLINE
5
12A
100
AcDbEntity
8
COPPER_BOTTOM
62
1
100
AcDbPolyline
90
2
70
0
43
10.000000
39
10.000000
10
1720.000000
20
3720.000000
10
1700.000000
20
3700.000000
0
LWPOLYLINE
5
12B
100
AcDbEntity
8
COPPER_BOTTOM
62
1
100
AcDbPolyline
90
2
70
0
43
10.000000
39
10.000000
10
1700.000000
20
3700.000000
10
1700.000000
20
3580.000000
0
LWPOLYLINE
5
12C
100
AcDbEntity
8
COPPER_BOTTOM
62
1
100
AcDbPolyline
90
2
70
0
43
10.000000
39
10.000000
10
2860.000000
20
3720.000000
10
1720.000000
20
3720.000000
0
LWPOLYLINE
5
12D
100
AcDbEntity
8
COPPER_BOTTOM
62
1
100
AcDbPolyline
90
2
70
0
43
10.000000
39
10.000000
10
1810.000000
20
3570.000000
10
1810.000000
20
3248.346063
0
LWPOLYLINE
5
12E
100
AcDbEntity
8
COPPER_BOTTOM
62
1
100
AcDbPolyline
90
2
70
0
43
10.000000
39
10.000000
10
1810.000000
20
3248.346063
10
1808.370472
20
3246.716535
0
LWPOLYLINE
5
12F
100
AcDbEntity
8
COPPER_BOTTOM
62
1
100
AcDbPolyline
90
2
70
0
43
10.000000
39
10.000000
10
1810.000000
20
3570.000000
10
1800.000000
20
3580.000000
0
LWPOLYLINE
5
130
100
AcDbEntity
8
COPPER_BOTTOM
62
1
100
AcDbPolyline
90
2
70
0
43
10.000000
39
10.000000
10
1600.000000
20
2430.000000
10
1730.000000
20
2430.000000
0
LWPOLYLINE
5
131
100
AcDbEntity
8
COPPER_BOTTOM
62
1
100
AcDbPolyline
90
2
70
0
43
10.000000
39
10.000000
10
1600.000000
20
2430.000000
10
1600.000000
20
2780.000000
0
LWPOLYLINE
5
132
100
AcDbEntity
8
COPPER_BOTTOM
62
1
100
AcDbPolyline
90
2
70
0
43
10.000000
39
10.000000
10
279.921260
20
2270.000000
10
590.000000
20
2270.000000
0
LWPOLYLINE
5
133
100
AcDbEntity
8
COPPER_BOTTOM
62
1
100
AcDbPolyline
90
2
70
0
43
10.000000
39
10.000000
10
279.921260
20
2270.000000
10
260.000000
20
2250.078740
0
LWPOLYLINE
5
134
100
AcDbEntity
8
COPPER_BOTTOM
62
1
100
AcDbPolyline
90
2
70
0
43
10.000000
39
10.000000
10
620.000000
20
2300.000000
10
590.000000
20
2270.000000
0
LWPOLYLINE
5
135
100
AcDbEntity
8
COPPER_BOTTOM
62
1
100
AcDbPolyline
90
2
70
0
43
10.000000
39
10.000000
10
550.000000
20
2830.000000
10
540.000000
20
2840.000000
0
LWPOLYLINE
5
136
100
AcDbEntity
8
COPPER_BOTTOM
62
1
100
AcDbPolyline
90
2
70
0
43
10.000000
39
10.000000
10
550.000000
20
2737.834409
10
550.000000
20
2830.000000
0
LWPOLYLINE
5
137
100
AcDbEntity
8
COPPER_BOTTOM
62
1
100
AcDbPolyline
90
2
70
0
43
10.000000
39
10.000000
10
617.071102
20
2730.000000
10
620.000000
20
2732.928898
0
LWPOLYLINE
5
138
100
AcDbEntity
8
COPPER_BOTTOM
62
1
100
AcDbPolyline
90
2
70
0
43
10.000000
39
10.000000
10
550.000000
20
2737.834409
10
557.834252
20
2730.000000
0
LWPOLYLINE
5
139
100
AcDbEntity
8
COPPER_BOTTOM
62
1
100
AcDbPolyline
90
2
70
0
43
10.000000
39
10.000000
10
620.000000
20
2780.000000
10
620.000000
20
2732.928898
0
LWPOLYLINE
5
13A
100
AcDbEntity
8
COPPER_BOTTOM
62
1
100
AcDbPolyline
90
2
70
0
43
10.000000
39
10.000000
10
617.071102
20
2730.000000
10
557.834252
20
2730.000000
0
LWPOLYLINE
5
13B
100
AcDbEntity
8
COPPER_BOTTOM
62
1
100
AcDbPolyline
90
2
70
0
43
10.000000
39
10.000000
10
700.969291
20
2734.905512
10
680.000000
20
2713.936614
0
LWPOLYLINE
5
13C
100
AcDbEntity
8
COPPER_BOTTOM
62
1
100
AcDbPolyline
90
2
70
0
43
10.000000
39
10.000000
10
700.969291
20
2734.905512
10
720.969055
20
2734.905512
0
LWPOLYLINE
5
13D
100
AcDbEntity
8
COPPER_BOTTOM
62
1
100
AcDbPolyline
90
2
70
0
43
10.000000
39
10.000000
10
680.000000
20
2713.936614
10
680.000000
20
2420.000000
0
HATCH
5
13E
100
AcDbEntity
8
DRILL
62
255
100
AcDbHatch
10
0.0
20
0.0
30
0.0
210
0.0
220
0.0
230
1.0
2
SOLID
70
1
71
0
91
1
92
1
93
1
72
2
10
2860.000000
20
1835.000000
40
64.250000
50
0.000000
51
360.000000
73
1
97
0
75
0
76
0
98
1
10
0.0
20
0.0
0
CIRCLE
5
13F
100
AcDbEntity
8
DRILL
62
255
100
AcDbCircle
39
0.000039
10
2860.000000
20
1835.000000
30
0
40
64.250000
0
HATCH
5
140
100
AcDbEntity
8
DRILL
62
255
100
AcDbHatch
10
0.0
20
0.0
30
0.0
210
0.0
220
0.0
230
1.0
2
SOLID
70
1
71
0
91
1
92
1
93
1
72
2
10
2860.000000
20
3445.000000
40
64.250000
50
0.000000
51
360.000000
73
1
97
0
75
0
76
0
98
1
10
0.0
20
0.0
0
CIRCLE
5
141
100
AcDbEntity
8
DRILL
62
255
100
AcDbCircle
39
0.000039
10
2860.000000
20
3445.000000
30
0
40
64.250000
0
HATCH
5
142
100
AcDbEntity
8
DRILL
62
255
100
AcDbHatch
10
0.0
20
0.0
30
0.0
210
0.0
220
0.0
230
1.0
2
SOLID
70
1
71
0
91
1
92
1
93
1
72
2
10
2581.000000
20
1560.000000
40
46.750000
50
0.000000
51
360.000000
73
1
97
0
75
0
76
0
98
1
10
0.0
20
0.0
0
CIRCLE
5
143
100
AcDbEntity
8
DRILL
62
255
100
AcDbCircle
39
0.000039
10
2581.000000
20
1560.000000
30
0
40
46.750000
0
HATCH
5
144
100
AcDbEntity
8
DRILL
62
255
100
AcDbHatch
10
0.0
20
0.0
30
0.0
210
0.0
220
0.0
230
1.0
2
SOLID
70
1
71
0
91
1
92
1
93
1
72
2
10
2860.000000
20
3720.000000
40
23.250000
50
0.000000
51
360.000000
73
1
97
0
75
0
76
0
98
1
10
0.0
20
0.0
0
CIRCLE
5
145
100
AcDbEntity
8
DRILL
62
255
100
AcDbCircle
39
0.000039
10
2860.000000
20
3720.000000
30
0
40
23.250000
0
HATCH
5
146
100
AcDbEntity
8
DRILL
62
255
100
AcDbHatch
10
0.0
20
0.0
30
0.0
210
0.0
220
0.0
230
1.0
2
SOLID
70
1
71
0
91
1
92
1
93
1
72
2
10
2860.000000
20
1560.000000
40
23.250000
50
0.000000
51
360.000000
73
1
97
0
75
0
76
0
98
1
10
0.0
20
0.0
0
CIRCLE
5
147
100
AcDbEntity
8
DRILL
62
255
100
AcDbCircle
39
0.000039
10
2860.000000
20
1560.000000
30
0
40
23.250000
0
HATCH
5
148
100
AcDbEntity
8
DRILL
62
255
100
AcDbHatch
10
0.0
20
0.0
30
0.0
210
0.0
220
0.0
230
1.0
2
SOLID
70
1
71
0
91
1
92
1
93
1
72
2
10
680.000000
20
3600.000000
40
17.500000
50
0.000000
51
360.000000
73
1
97
0
75
0
76
0
98
1
10
0.0
20
0.0
0
CIRCLE
5
149
100
AcDbEntity
8
DRILL
62
255
100
AcDbCircle
39
0.000039
10
680.000000
20
3600.000000
30
0
40
17.500000
0
HATCH
5
14A
100
AcDbEntity
8
DRILL
62
255
100
AcDbHatch
10
0.0
20
0.0
30
0.0
210
0.0
220
0.0
230
1.0
2
SOLID
70
1
71
0
91
1
92
1
93
1
72
2
10
580.000000
20
3600.000000
40
17.500000
50
0.000000
51
360.000000
73
1
97
0
75
0
76
0
98
1
10
0.0
20
0.0
0
CIRCLE
5
14B
100
AcDbEntity
8
DRILL
62
255
100
AcDbCircle
39
0.000039
10
580.000000
20
3600.000000
30
0
40
17.500000
0
HATCH
5
14C
100
AcDbEntity
8
DRILL
62
255
100
AcDbHatch
10
0.0
20
0.0
30
0.0
210
0.0
220
0.0
230
1.0
2
SOLID
70
1
71
0
91
1
92
1
93
1
72
2
10
645.000000
20
2405.000000
40
20.000000
50
0.000000
51
360.000000
73
1
97
0
75
0
76
0
98
1
10
0.0
20
0.0
0
CIRCLE
5
14D
100
AcDbEntity
8
DRILL
62
255
100
AcDbCircle
39
0.000039
10
645.000000
20
2405.000000
30
0
40
20.000000
0
HATCH
5
14E
100
AcDbEntity
8
DRILL
62
255
100
AcDbHatch
10
0.0
20
0.0
30
0.0
210
0.0
220
0.0
230
1.0
2
SOLID
70
1
71
0
91
1
92
1
93
1
72
2
10
745.000000
20
2405.000000
40
20.000000
50
0.000000
51
360.000000
73
1
97
0
75
0
76
0
98
1
10
0.0
20
0.0
0
CIRCLE
5
14F
100
AcDbEntity
8
DRILL
62
255
100
AcDbCircle
39
0.000039
10
745.000000
20
2405.000000
30
0
40
20.000000
0
HATCH
5
150
100
AcDbEntity
8
DRILL
62
255
100
AcDbHatch
10
0.0
20
0.0
30
0.0
210
0.0
220
0.0
230
1.0
2
SOLID
70
1
71
0
91
1
92
1
93
1
72
2
10
695.000000
20
2355.000000
40
20.000000
50
0.000000
51
360.000000
73
1
97
0
75
0
76
0
98
1
10
0.0
20
0.0
0
CIRCLE
5
151
100
AcDbEntity
8
DRILL
62
255
100
AcDbCircle
39
0.000039
10
695.000000
20
2355.000000
30
0
40
20.000000
0
HATCH
5
152
100
AcDbEntity
8
DRILL
62
255
100
AcDbHatch
10
0.0
20
0.0
30
0.0
210
0.0
220
0.0
230
1.0
2
SOLID
70
1
71
0
91
1
92
1
93
1
72
2
10
1700.000000
20
3580.000000
40
17.500000
50
0.000000
51
360.000000
73
1
97
0
75
0
76
0
98
1
10
0.0
20
0.0
0
CIRCLE
5
153
100
AcDbEntity
8
DRILL
62
255
100
AcDbCircle
39
0.000039
10
1700.000000
20
3580.000000
30
0
40
17.500000
0
HATCH
5
154
100
AcDbEntity
8
DRILL
62
255
100
AcDbHatch
10
0.0
20
0.0
30
0.0
210
0.0
220
0.0
230
1.0
2
SOLID
70
1
71
0
91
1
92
1
93
1
72
2
10
1800.000000
20
3580.000000
40
17.500000
50
0.000000
51
360.000000
73
1
97
0
75
0
76
0
98
1
10
0.0
20
0.0
0
CIRCLE
5
155
100
AcDbEntity
8
DRILL
62
255
100
AcDbCircle
39
0.000039
10
1800.000000
20
3580.000000
30
0
40
17.500000
0
HATCH
5
156
100
AcDbEntity
8
DRILL
62
255
100
AcDbHatch
10
0.0
20
0.0
30
0.0
210
0.0
220
0.0
230
1.0
2
SOLID
70
1
71
0
91
1
92
1
93
1
72
2
10
1680.000000
20
2380.000000
40
20.000000
50
0.000000
51
360.000000
73
1
97
0
75
0
76
0
98
1
10
0.0
20
0.0
0
CIRCLE
5
157
100
AcDbEntity
8
DRILL
62
255
100
AcDbCircle
39
0.000039
10
1680.000000
20
2380.000000
30
0
40
20.000000
0
HATCH
5
158
100
AcDbEntity
8
DRILL
62
255
100
AcDbHatch
10
0.0
20
0.0
30
0.0
210
0.0
220
0.0
230
1.0
2
SOLID
70
1
71
0
91
1
92
1
93
1
72
2
10
1780.000000
20
2380.000000
40
20.000000
50
0.000000
51
360.000000
73
1
97
0
75
0
76
0
98
1
10
0.0
20
0.0
0
CIRCLE
5
159
100
AcDbEntity
8
DRILL
62
255
100
AcDbCircle
39
0.000039
10
1780.000000
20
2380.000000
30
0
40
20.000000
0
HATCH
5
15A
100
AcDbEntity
8
DRILL
62
255
100
AcDbHatch
10
0.0
20
0.0
30
0.0
210
0.0
220
0.0
230
1.0
2
SOLID
70
1
71
0
91
1
92
1
93
1
72
2
10
1730.000000
20
2430.000000
40
20.000000
50
0.000000
51
360.000000
73
1
97
0
75
0
76
0
98
1
10
0.0
20
0.0
0
CIRCLE
5
15B
100
AcDbEntity
8
DRILL
62
255
100
AcDbCircle
39
0.000039
10
1730.000000
20
2430.000000
30
0
40
20.000000
0
HATCH
5
15C
100
AcDbEntity
8
DRILL
62
255
100
AcDbHatch
10
0.0
20
0.0
30
0.0
210
0.0
220
0.0
230
1.0
2
SOLID
70
1
71
0
91
1
92
1
93
1
72
2
10
260.000000
20
2880.000000
40
17.716535
50
0.000000
51
360.000000
73
1
97
0
75
0
76
0
98
1
10
0.0
20
0.0
0
CIRCLE
5
15D
100
AcDbEntity
8
DRILL
62
255
100
AcDbCircle
39
0.000039
10
260.000000
20
2880.000000
30
0
40
17.716535
0
HATCH
5
15E
100
AcDbEntity
8
DRILL
62
255
100
AcDbHatch
10
0.0
20
0.0
30
0.0
210
0.0
220
0.0
230
1.0
2
SOLID
70
1
71
0
91
1
92
1
93
1
72
2
10
260.000000
20
2250.078740
40
17.716535
50
0.000000
51
360.000000
73
1
97
0
75
0
76
0
98
1
10
0.0
20
0.0
0
CIRCLE
5
15F
100
AcDbEntity
8
DRILL
62
255
100
AcDbCircle
39
0.000039
10
260.000000
20
2250.078740
30
0
40
17.716535
0
HATCH
5
160
100
AcDbEntity
8
DRILL
62
255
100
AcDbHatch
10
0.0
20
0.0
30
0.0
210
0.0
220
0.0
230
1.0
2
SOLID
70
1
71
0
91
1
92
1
93
1
72
2
10
577.268307
20
2734.905512
40
17.716535
50
0.000000
51
360.000000
73
1
97
0
75
0
76
0
98
1
10
0.0
20
0.0
0
CIRCLE
5
161
100
AcDbEntity
8
DRILL
62
255
100
AcDbCircle
39
0.000039
10
577.268307
20
2734.905512
30
0
40
17.716535
0
HATCH
5
162
100
AcDbEntity
8
DRILL
62
255
100
AcDbHatch
10
0.0
20
0.0
30
0.0
210
0.0
220
0.0
230
1.0
2
SOLID
70
1
71
0
91
1
92
1
93
1
72
2
10
577.268307
20
3246.716535
40
17.716535
50
0.000000
51
360.000000
73
1
97
0
75
0
76
0
98
1
10
0.0
20
0.0
0
CIRCLE
5
163
100
AcDbEntity
8
DRILL
62
255
100
AcDbCircle
39
0.000039
10
577.268307
20
3246.716535
30
0
40
17.716535
0
HATCH
5
164
100
AcDbEntity
8
DRILL
62
255
100
AcDbHatch
10
0.0
20
0.0
30
0.0
210
0.0
220
0.0
230
1.0
2
SOLID
70
1
71
0
91
1
92
1
93
1
72
2
10
720.969055
20
2734.905512
40
17.716535
50
0.000000
51
360.000000
73
1
97
0
75
0
76
0
98
1
10
0.0
20
0.0
0
CIRCLE
5
165
100
AcDbEntity
8
DRILL
62
255
100
AcDbCircle
39
0.000039
10
720.969055
20
2734.905512
30
0
40
17.716535
0
HATCH
5
166
100
AcDbEntity
8
DRILL
62
255
100
AcDbHatch
10
0.0
20
0.0
30
0.0
210
0.0
220
0.0
230
1.0
2
SOLID
70
1
71
0
91
1
92
1
93
1
72
2
10
720.969055
20
3246.716535
40
17.716535
50
0.000000
51
360.000000
73
1
97
0
75
0
76
0
98
1
10
0.0
20
0.0
0
CIRCLE
5
167
100
AcDbEntity
8
DRILL
62
255
100
AcDbCircle
39
0.000039
10
720.969055
20
3246.716535
30
0
40
17.716535
0
HATCH
5
168
100
AcDbEntity
8
DRILL
62
255
100
AcDbHatch
10
0.0
20
0.0
30
0.0
210
0.0
220
0.0
230
1.0
2
SOLID
70
1
71
0
91
1
92
1
93
1
72
2
10
1808.370551
20
3246.716535
40
17.716535
50
0.000000
51
360.000000
73
1
97
0
75
0
76
0
98
1
10
0.0
20
0.0
0
CIRCLE
5
169
100
AcDbEntity
8
DRILL
62
255
100
AcDbCircle
39
0.000039
10
1808.370551
20
3246.716535
30
0
40
17.716535
0
HATCH
5
16A
100
AcDbEntity
8
DRILL
62
255
100
AcDbHatch
10
0.0
20
0.0
30
0.0
210
0.0
220
0.0
230
1.0
2
SOLID
70
1
71
0
91
1
92
1
93
1
72
2
10
1808.370551
20
2734.905512
40
17.716535
50
0.000000
51
360.000000
73
1
97
0
75
0
76
0
98
1
10
0.0
20
0.0
0
CIRCLE
5
16B
100
AcDbEntity
8
DRILL
62
255
100
AcDbCircle
39
0.000039
10
1808.370551
20
2734.905512
30
0
40
17.716535
0
HATCH
5
16C
100
AcDbEntity
8
DRILL
62
255
100
AcDbHatch
10
0.0
20
0.0
30
0.0
210
0.0
220
0.0
230
1.0
2
SOLID
70
1
71
0
91
1
92
1
93
1
72
2
10
1664.669803
20
2734.905512
40
17.716535
50
0.000000
51
360.000000
73
1
97
0
75
0
76
0
98
1
10
0.0
20
0.0
0
CIRCLE
5
16D
100
AcDbEntity
8
DRILL
62
255
100
AcDbCircle
39
0.000039
10
1664.669803
20
2734.905512
30
0
40
17.716535
0
HATCH
5
16E
100
AcDbEntity
8
DRILL
62
255
100
AcDbHatch
10
0.0
20
0.0
30
0.0
210
0.0
220
0.0
230
1.0
2
SOLID
70
1
71
0
91
1
92
1
93
1
72
2
10
1664.669803
20
3246.716535
40
17.716535
50
0.000000
51
360.000000
73
1
97
0
75
0
76
0
98
1
10
0.0
20
0.0
0
CIRCLE
5
16F
100
AcDbEntity
8
DRILL
62
255
100
AcDbCircle
39
0.000039
10
1664.669803
20
3246.716535
30
0
40
17.716535
0
HATCH
5
170
100
AcDbEntity
8
DRILL
62
255
100
AcDbHatch
10
0.0
20
0.0
30
0.0
210
0.0
220
0.0
230
1.0
2
SOLID
70
1
71
0
91
1
92
1
93
1
72
2
10
2100.000000
20
2210.078740
40
17.716535
50
0.000000
51
360.000000
73
1
97
0
75
0
76
0
98
1
10
0.0
20
0.0
0
CIRCLE
5
171
100
AcDbEntity
8
DRILL
62
255
100
AcDbCircle
39
0.000039
10
2100.000000
20
2210.078740
30
0
40
17.716535
0
HATCH
5
172
100
AcDbEntity
8
DRILL
62
255
100
AcDbHatch
10
0.0
20
0.0
30
0.0
210
0.0
220
0.0
230
1.0
2
SOLID
70
1
71
0
91
1
92
1
93
1
72
2
10
2100.000000
20
2840.000000
40
17.716535
50
0.000000
51
360.000000
73
1
97
0
75
0
76
0
98
1
10
0.0
20
0.0
0
CIRCLE
5
173
100
AcDbEntity
8
DRILL
62
255
100
AcDbCircle
39
0.000039
10
2100.000000
20
2840.000000
30
0
40
17.716535
0
ENDSEC
0
SECTION
2
OBJECTS
0
DICTIONARY
5
174
100
AcDbDictionary
3
ACAD_GROUP
350
175
3
ACAD_LAYOUT
350
176
3
ACAD_MLINESTYLE
350
177
0
DICTIONARY
5
175
100
AcDbDictionary
0
DICTIONARY
5
176
100
AcDbDictionary
0
DICTIONARY
5
177
100
AcDbDictionary
3
STANDARD
350
178
0
MLINESTYLE
5
178
100
AcDbMlineStyle
2
Standard
70
0
3

62
256
51
90.0
52
90.0
71
2
49
0.5
62
256
6
BYLAYER
49
-0.5
62
256
6
BYLAYER
0
ENDSEC
0
EOF
