G04 Generated by Ultiboard 14.3 *
%FSLAX34Y34*%
%MOMM*%

%ADD10C,0.0001*%
%ADD11C,0.2540*%
%ADD12C,0.0010*%
%ADD13C,0.1270*%
%ADD14C,0.84658*%
%ADD15C,0.99492*%
%ADD16C,1.2700*%
%ADD17C,2.1168*%
%ADD18C,1.6088*%
%ADD19C,1.5000*%
%ADD20R,1.5000X1.5000*%


G04 ColorRGB 00FF00 for the following layer *
%LNCopper Top*%
%LPD*%
G54D10*
G36*
X263152Y283192D02*
X263152Y283192D01*
X-29192Y283192D01*
X-29192Y-9152D01*
X263152Y-9152D01*
X263152Y283192D01*
D02*
G37*
%LPC*%
G36*
X15332Y132220D02*
G74*
D01*
G02X22212Y139100I11084J4204*
G01*
X22212Y139100D01*
X22212Y132220D01*
X15332Y132220D01*
D02*
G37*
G36*
X30620Y139100D02*
G74*
D01*
G02X37500Y132220I4204J11084*
G01*
X37500Y132220D01*
X30620Y132220D01*
X30620Y139100D01*
D02*
G37*
G36*
X37500Y123812D02*
G74*
D01*
G02X30620Y116932I11084J4204*
G01*
X30620Y116932D01*
X30620Y123812D01*
X37500Y123812D01*
D02*
G37*
G36*
X22212Y116932D02*
G74*
D01*
G02X15332Y123812I4204J11084*
G01*
X15332Y123812D01*
X22212Y123812D01*
X22212Y116932D01*
D02*
G37*
G36*
X21971Y128016D02*
G75*
D01*
G02X21971Y128016I4445J0*
G01*
D02*
G37*
G36*
X129797Y21311D02*
X129797Y21311D01*
X92456Y21311D01*
G75*
D01*
G02X91184Y21472I0J5105*
G01*
G74*
D01*
G02X88847Y22807I1272J4944*
G01*
X88847Y22807D01*
X78687Y32967D01*
G75*
D01*
G02X77191Y36588I3609J3609*
G01*
X77191Y36588D01*
X77191Y40532D01*
G75*
D01*
G02X70827Y48429I1718J7897*
G01*
X70827Y48429D01*
X70827Y55203D01*
G75*
D01*
G02X78909Y63285I8082J0*
G01*
X78909Y63285D01*
X85683Y63285D01*
G74*
D01*
G02X93765Y55203I0J8082*
G01*
X93765Y55203D01*
X93765Y48429D01*
G75*
D01*
G02X87401Y40532I-8082J0*
G01*
X87401Y40532D01*
X87401Y38690D01*
X94570Y31521D01*
X129797Y31521D01*
G75*
D01*
G02X129797Y21311I13459J-5105*
G01*
D02*
G37*
G36*
X189043Y151311D02*
X189043Y151311D01*
X173770Y151311D01*
X172271Y149813D01*
G74*
D01*
G02X170575Y148686I3615J3603*
G01*
G75*
D01*
G02X168648Y148311I-1919J4730*
G01*
X168648Y148311D01*
X156715Y148311D01*
G75*
D01*
G02X156715Y158521I-13459J5105*
G01*
X156715Y158521D01*
X166542Y158521D01*
X168047Y160025D01*
G74*
D01*
G02X171535Y161519I3609J3609*
G01*
G75*
D01*
G02X171656Y161521I121J-5103*
G01*
X171656Y161521D01*
X189043Y161521D01*
G75*
D01*
G02X189043Y151311I10093J-5105*
G01*
D02*
G37*
G36*
X25219Y250948D02*
X25219Y250948D01*
X32508Y250948D01*
X32508Y243659D01*
G74*
D01*
G02X25219Y250948I1423J8712*
G01*
D02*
G37*
G36*
X40644Y243659D02*
X40644Y243659D01*
X40644Y250948D01*
X47933Y250948D01*
G74*
D01*
G02X40644Y243659I8712J1423*
G01*
D02*
G37*
G36*
X47933Y259084D02*
X47933Y259084D01*
X40644Y259084D01*
X40644Y266373D01*
G74*
D01*
G02X47933Y259084I1423J8712*
G01*
D02*
G37*
G36*
X32508Y266373D02*
X32508Y266373D01*
X32508Y259084D01*
X25219Y259084D01*
G74*
D01*
G02X32508Y266373I8712J1423*
G01*
D02*
G37*
G36*
X31601Y255016D02*
G75*
D01*
G02X31601Y255016I4975J0*
G01*
D02*
G37*
G36*
X129391Y219431D02*
X129391Y219431D01*
X87401Y219431D01*
X87401Y138715D01*
G75*
D01*
G02X77191Y138715I-5105J-10699*
G01*
X77191Y138715D01*
X77191Y219431D01*
X74676Y219431D01*
G75*
D01*
G02X73200Y219650I0J5105*
G01*
G74*
D01*
G02X71067Y220927I1476J4886*
G01*
X71067Y220927D01*
X58367Y233627D01*
G75*
D01*
G02X56871Y237247I3609J3609*
G01*
X56871Y237247D01*
X56871Y244317D01*
G75*
D01*
G02X67081Y244317I5105J10699*
G01*
X67081Y244317D01*
X67081Y239350D01*
X76790Y229641D01*
X129391Y229641D01*
G75*
D01*
G02X129391Y219431I8785J-5105*
G01*
D02*
G37*
G36*
X210371Y228139D02*
X210371Y228139D01*
X225599Y212911D01*
G74*
D01*
G02X227101Y209296I3603J3615*
G01*
X227101Y209296D01*
X227101Y64516D01*
G75*
D01*
G02X225599Y60901I-5105J0*
G01*
X225599Y60901D01*
X204241Y39542D01*
X204241Y37744D01*
X206636Y37744D01*
G74*
D01*
G02X210464Y33916I0J3828*
G01*
X210464Y33916D01*
X210464Y18916D01*
G75*
D01*
G02X206636Y15088I-3828J0*
G01*
X206636Y15088D01*
X204105Y15088D01*
G74*
D01*
G02X202739Y12641I4969J1168*
G01*
X202739Y12641D01*
X190051Y-47D01*
G74*
D01*
G02X187510Y-1434I3615J3603*
G01*
G75*
D01*
G02X186431Y-1549I-1074J4990*
G01*
X186431Y-1549D01*
X44196Y-1549D01*
G75*
D01*
G02X42394Y-1220I0J5105*
G01*
G74*
D01*
G02X40587Y-53I1802J4776*
G01*
X40587Y-53D01*
X22807Y17727D01*
G75*
D01*
G02X21311Y21347I3609J3609*
G01*
X21311Y21347D01*
X21311Y40532D01*
G75*
D01*
G02X14947Y48429I1718J7897*
G01*
X14947Y48429D01*
X14947Y55203D01*
G75*
D01*
G02X23029Y63285I8082J0*
G01*
X23029Y63285D01*
X29803Y63285D01*
G74*
D01*
G02X37885Y55203I0J8082*
G01*
X37885Y55203D01*
X37885Y48429D01*
G75*
D01*
G02X31521Y40532I-8082J0*
G01*
X31521Y40532D01*
X31521Y23450D01*
X46310Y8661D01*
X184322Y8661D01*
X190834Y15173D01*
G75*
D01*
G02X187808Y18916I802J3743*
G01*
X187808Y18916D01*
X187808Y33916D01*
G75*
D01*
G02X191636Y37744I3828J0*
G01*
X191636Y37744D01*
X194031Y37744D01*
X194031Y41643D01*
G75*
D01*
G02X195527Y45265I5105J13*
G01*
X195527Y45265D01*
X216891Y66630D01*
X216891Y207182D01*
X204642Y219431D01*
X197761Y219431D01*
G75*
D01*
G02X197761Y229641I-8785J5105*
G01*
X197761Y229641D01*
X206756Y229641D01*
G74*
D01*
G02X210371Y228139I0J5105*
G01*
D02*
G37*
%LPD*%
G54D11*
X15332Y132220D02*
G74*
D01*
G02X22212Y139100I11084J4204*
G01*
X22212Y132220D01*
X15332Y132220D01*
X30620Y139100D02*
G74*
D01*
G02X37500Y132220I4204J11084*
G01*
X30620Y132220D01*
X30620Y139100D01*
X37500Y123812D02*
G74*
D01*
G02X30620Y116932I11084J4204*
G01*
X30620Y123812D01*
X37500Y123812D01*
X22212Y116932D02*
G74*
D01*
G02X15332Y123812I4204J11084*
G01*
X22212Y123812D01*
X22212Y116932D01*
X21971Y128016D02*
G75*
D01*
G02X21971Y128016I4445J0*
G01*
X129797Y21311D02*
X92456Y21311D01*
G75*
D01*
G02X91184Y21472I0J5105*
G01*
G74*
D01*
G02X88847Y22807I1272J4944*
G01*
X78687Y32967D01*
G75*
D01*
G02X77191Y36588I3609J3609*
G01*
X77191Y40532D01*
G75*
D01*
G02X70827Y48429I1718J7897*
G01*
X70827Y55203D01*
G75*
D01*
G02X78909Y63285I8082J0*
G01*
X85683Y63285D01*
G74*
D01*
G02X93765Y55203I0J8082*
G01*
X93765Y48429D01*
G75*
D01*
G02X87401Y40532I-8082J0*
G01*
X87401Y38690D01*
X94570Y31521D01*
X129797Y31521D01*
G75*
D01*
G02X129797Y21311I13459J-5105*
G01*
X189043Y151311D02*
X173770Y151311D01*
X172271Y149813D01*
G74*
D01*
G02X170575Y148686I3615J3603*
G01*
G75*
D01*
G02X168648Y148311I-1919J4730*
G01*
X156715Y148311D01*
G75*
D01*
G02X156715Y158521I-13459J5105*
G01*
X166542Y158521D01*
X168047Y160025D01*
G74*
D01*
G02X171535Y161519I3609J3609*
G01*
G75*
D01*
G02X171656Y161521I121J-5103*
G01*
X189043Y161521D01*
G75*
D01*
G02X189043Y151311I10093J-5105*
G01*
X25219Y250948D02*
X32508Y250948D01*
X32508Y243659D01*
G74*
D01*
G02X25219Y250948I1423J8712*
G01*
X40644Y243659D02*
X40644Y250948D01*
X47933Y250948D01*
G74*
D01*
G02X40644Y243659I8712J1423*
G01*
X47933Y259084D02*
X40644Y259084D01*
X40644Y266373D01*
G74*
D01*
G02X47933Y259084I1423J8712*
G01*
X32508Y266373D02*
X32508Y259084D01*
X25219Y259084D01*
G74*
D01*
G02X32508Y266373I8712J1423*
G01*
X31601Y255016D02*
G75*
D01*
G02X31601Y255016I4975J0*
G01*
X129391Y219431D02*
X87401Y219431D01*
X87401Y138715D01*
G75*
D01*
G02X77191Y138715I-5105J-10699*
G01*
X77191Y219431D01*
X74676Y219431D01*
G75*
D01*
G02X73200Y219650I0J5105*
G01*
G74*
D01*
G02X71067Y220927I1476J4886*
G01*
X58367Y233627D01*
G75*
D01*
G02X56871Y237247I3609J3609*
G01*
X56871Y244317D01*
G75*
D01*
G02X67081Y244317I5105J10699*
G01*
X67081Y239350D01*
X76790Y229641D01*
X129391Y229641D01*
G75*
D01*
G02X129391Y219431I8785J-5105*
G01*
X210371Y228139D02*
X225599Y212911D01*
G74*
D01*
G02X227101Y209296I3603J3615*
G01*
X227101Y64516D01*
G75*
D01*
G02X225599Y60901I-5105J0*
G01*
X204241Y39542D01*
X204241Y37744D01*
X206636Y37744D01*
G74*
D01*
G02X210464Y33916I0J3828*
G01*
X210464Y18916D01*
G75*
D01*
G02X206636Y15088I-3828J0*
G01*
X204105Y15088D01*
G74*
D01*
G02X202739Y12641I4969J1168*
G01*
X190051Y-47D01*
G74*
D01*
G02X187510Y-1434I3615J3603*
G01*
G75*
D01*
G02X186431Y-1549I-1074J4990*
G01*
X44196Y-1549D01*
G75*
D01*
G02X42394Y-1220I0J5105*
G01*
G74*
D01*
G02X40587Y-53I1802J4776*
G01*
X22807Y17727D01*
G75*
D01*
G02X21311Y21347I3609J3609*
G01*
X21311Y40532D01*
G75*
D01*
G02X14947Y48429I1718J7897*
G01*
X14947Y55203D01*
G75*
D01*
G02X23029Y63285I8082J0*
G01*
X29803Y63285D01*
G74*
D01*
G02X37885Y55203I0J8082*
G01*
X37885Y48429D01*
G75*
D01*
G02X31521Y40532I-8082J0*
G01*
X31521Y23450D01*
X46310Y8661D01*
X184322Y8661D01*
X190834Y15173D01*
G75*
D01*
G02X187808Y18916I802J3743*
G01*
X187808Y33916D01*
G75*
D01*
G02X191636Y37744I3828J0*
G01*
X194031Y37744D01*
X194031Y41643D01*
G75*
D01*
G02X195527Y45265I5105J13*
G01*
X216891Y66630D01*
X216891Y207182D01*
X204642Y219431D01*
X197761Y219431D01*
G75*
D01*
G02X197761Y229641I-8785J5105*
G01*
X206756Y229641D01*
G74*
D01*
G02X210371Y228139I0J5105*
G01*
X263152Y283192D02*
X-29192Y283192D01*
X-29192Y-9152D01*
X263152Y-9152D01*
X263152Y283192D01*
X199136Y41656D02*
X199136Y16256D01*
X221996Y64516D02*
X199136Y41656D01*
X221996Y209296D02*
X221996Y64516D01*
X26416Y191516D02*
X26416Y128016D01*
X168656Y153416D02*
X143256Y153416D01*
X171656Y156416D02*
X168656Y153416D01*
X199136Y156416D02*
X171656Y156416D01*
X36576Y201676D02*
X26416Y191516D01*
X36576Y255016D02*
X36576Y201676D01*
X206756Y224536D02*
X221996Y209296D01*
X188976Y224536D02*
X206756Y224536D01*
X92456Y26416D02*
X82296Y36576D01*
X143256Y26416D02*
X92456Y26416D01*
X82296Y36576D02*
X82296Y51816D01*
X199136Y16256D02*
X186436Y3556D01*
X44196Y3556D02*
X26416Y21336D01*
X26416Y51816D01*
X186436Y3556D02*
X44196Y3556D01*
X74676Y224536D02*
X61976Y237236D01*
X61976Y255016D01*
X138176Y224536D02*
X74676Y224536D01*
X82296Y224536D02*
X82296Y128016D01*
G54D12*
G36*
X18796Y48429D02*
X18796Y55203D01*
X34036Y55203D01*
X34036Y48429D01*
X18796Y48429D01*
G37*
G36*
X23029Y44196D02*
X23029Y59436D01*
X29803Y59436D01*
X29803Y44196D01*
X23029Y44196D01*
G37*
G36*
X28956Y252371D02*
X28956Y257661D01*
X44196Y257661D01*
X44196Y252371D01*
X28956Y252371D01*
G37*
G36*
X33931Y247396D02*
X33931Y262636D01*
X39221Y262636D01*
X39221Y247396D01*
X33931Y247396D01*
G37*
G36*
X74676Y48429D02*
X74676Y55203D01*
X89916Y55203D01*
X89916Y48429D01*
X74676Y48429D01*
G37*
G36*
X78909Y44196D02*
X78909Y59436D01*
X85683Y59436D01*
X85683Y44196D01*
X78909Y44196D01*
G37*
G54D13*
X-35560Y-15520D02*
X-35560Y14988D01*
X-35560Y-15520D02*
X-5052Y-15520D01*
X269520Y-15520D02*
X239012Y-15520D01*
X269520Y-15520D02*
X269520Y14988D01*
X269520Y289560D02*
X269520Y259052D01*
X269520Y289560D02*
X239012Y289560D01*
X-35560Y289560D02*
X-5052Y289560D01*
X-35560Y289560D02*
X-35560Y259052D01*
X-85560Y-15520D02*
X-185560Y-15520D01*
X-135560Y-65520D02*
X-135560Y34480D01*
X-173060Y-15520D02*
G75*
D01*
G02X-173060Y-15520I37500J0*
G01*
X319520Y-15520D02*
X419520Y-15520D01*
X369520Y-65520D02*
X369520Y34480D01*
X332020Y-15520D02*
G75*
D01*
G02X332020Y-15520I37500J0*
G01*
X357020Y-15520D02*
G75*
D01*
G02X357020Y-15520I12500J0*
G01*
X-85560Y289560D02*
X-185560Y289560D01*
X-135560Y239560D02*
X-135560Y339560D01*
X-173060Y289560D02*
G75*
D01*
G02X-173060Y289560I37500J0*
G01*
X-160560Y289560D02*
G75*
D01*
G02X-160560Y289560I25000J0*
G01*
X-148060Y289560D02*
G75*
D01*
G02X-148060Y289560I12500J0*
G01*
G54D14*
X23029Y55203D03*
X29803Y55203D03*
X23029Y48429D03*
X29803Y48429D03*
X78909Y55203D03*
X85683Y55203D03*
X78909Y48429D03*
X85683Y48429D03*
G54D15*
X33931Y257661D03*
X39221Y257661D03*
X33931Y252371D03*
X39221Y252371D03*
G54D16*
X138176Y224536D03*
X188976Y224536D03*
G54D17*
X143256Y153416D03*
X143256Y26416D03*
G54D18*
X26416Y128016D03*
X61976Y255016D03*
X82296Y128016D03*
G54D19*
X199136Y156416D03*
G54D20*
X199136Y26416D03*

M02*
