G04 Generated by Ultiboard 14.3 *
%FSLAX34Y34*%
%MOMM*%

%ADD10C,0.0001*%
%ADD11C,0.1270*%
%ADD12C,0.0010*%


G04 ColorRGB CBCBCB for the following layer *
%LNMechanical 1*%
%LPD*%
G54D10*
G54D11*
X35560Y-15520D02*
X35560Y14988D01*
X35560Y-15520D02*
X5052Y-15520D01*
X-269520Y-15520D02*
X-239012Y-15520D01*
X-269520Y-15520D02*
X-269520Y14988D01*
X-269520Y289560D02*
X-269520Y259052D01*
X-269520Y289560D02*
X-239012Y289560D01*
X35560Y289560D02*
X5052Y289560D01*
X35560Y289560D02*
X35560Y259052D01*
X85560Y-15520D02*
X185560Y-15520D01*
X135560Y-65520D02*
X135560Y34480D01*
X173060Y-15520D02*
G75*
D01*
G02X173060Y-15520I-37500J0*
G01*
X-319520Y-15520D02*
X-419520Y-15520D01*
X-369520Y-65520D02*
X-369520Y34480D01*
X-332020Y-15520D02*
G75*
D01*
G02X-332020Y-15520I-37500J0*
G01*
X-357020Y-15520D02*
G75*
D01*
G02X-357020Y-15520I-12500J0*
G01*
X85560Y289560D02*
X185560Y289560D01*
X135560Y239560D02*
X135560Y339560D01*
X173060Y289560D02*
G75*
D01*
G02X173060Y289560I-37500J0*
G01*
X160560Y289560D02*
G75*
D01*
G02X160560Y289560I-25000J0*
G01*
X148060Y289560D02*
G75*
D01*
G02X148060Y289560I-12500J0*
G01*
X35560Y-15520D02*
X35560Y14988D01*
X35560Y-15520D02*
X5052Y-15520D01*
X-269520Y-15520D02*
X-239012Y-15520D01*
X-269520Y-15520D02*
X-269520Y14988D01*
X-269520Y289560D02*
X-269520Y259052D01*
X-269520Y289560D02*
X-239012Y289560D01*
X35560Y289560D02*
X5052Y289560D01*
X35560Y289560D02*
X35560Y259052D01*
X85560Y-15520D02*
X185560Y-15520D01*
X135560Y-65520D02*
X135560Y34480D01*
X173060Y-15520D02*
G75*
D01*
G02X173060Y-15520I-37500J0*
G01*
X-319520Y-15520D02*
X-419520Y-15520D01*
X-369520Y-65520D02*
X-369520Y34480D01*
X-332020Y-15520D02*
G75*
D01*
G02X-332020Y-15520I-37500J0*
G01*
X-357020Y-15520D02*
G75*
D01*
G02X-357020Y-15520I-12500J0*
G01*
X85560Y289560D02*
X185560Y289560D01*
X135560Y239560D02*
X135560Y339560D01*
X173060Y289560D02*
G75*
D01*
G02X173060Y289560I-37500J0*
G01*
X160560Y289560D02*
G75*
D01*
G02X160560Y289560I-25000J0*
G01*
X148060Y289560D02*
G75*
D01*
G02X148060Y289560I-12500J0*
G01*
G54D12*
X33020Y-12980D02*
X-266980Y-12980D01*
X-266980Y287020D01*
X33020Y287020D01*
X33020Y-12980D01*

M02*
