999
DXF created by UltiBoard 14.3.0.0
0
SECTION
2
HEADER
9
$ACADVER
1
AC1014
9
$EXTMIN
10
-6.756400
20
-4.724400
30
0.0
9
$EXTMAX
10
32.156400
20
32.156400
30
0.0
9
$LUNITS
70
2
9
$HANDSEED
5
192
0
ENDSEC
0
SECTION
2
TABLES
0
TABLE
2
VPORT
5
CC
100
AcDbSymbolTable
70
1
0
VPORT
5
CD
100
AcDbSymbolTableRecord
100
AcDbViewportTableRecord
2
*ACTIVE
70
0
0
ENDTAB
0
TABLE
2
LTYPE
5
CE
100
AcDbSymbolTable
70
1
0
LTYPE
5
CF
100
AcDbSymbolTableRecord
100
AcDbLinetypeTableRecord
2
BYBLOCK
70
0
3

72
65
73
0
40
0.0
0
LTYPE
5
D0
100
AcDbSymbolTableRecord
100
AcDbLinetypeTableRecord
2
BYLAYER
70
0
3

72
65
73
0
40
0.0
0
LTYPE
5
D1
100
AcDbSymbolTableRecord
100
AcDbLinetypeTableRecord
2
CONTINUOUS
70
0
3
Solid line
72
65
73
0
40
0.0
0
ENDTAB
0
TABLE
2
LAYER
5
D2
100
AcDbSymbolTable
70
7
0
LAYER
5
D3
100
AcDbSymbolTableRecord
100
AcDbLayerTableRecord
2
0
70
0
62
7
6
CONTINUOUS
0
LAYER
5
D4
100
AcDbSymbolTableRecord
100
AcDbLayerTableRecord
2
BOARD_OUTLINE
70
0
62
2
6
CONTINUOUS
0
LAYER
5
D5
100
AcDbSymbolTableRecord
100
AcDbLayerTableRecord
2
KEEP_IN_KEEP_OUT
70
0
62
253
6
CONTINUOUS
0
LAYER
5
D6
100
AcDbSymbolTableRecord
100
AcDbLayerTableRecord
2
COPPER_TOP
70
0
62
3
6
CONTINUOUS
0
LAYER
5
D7
100
AcDbSymbolTableRecord
100
AcDbLayerTableRecord
2
MECHANICAL_1
70
0
62
253
6
CONTINUOUS
0
LAYER
5
D8
100
AcDbSymbolTableRecord
100
AcDbLayerTableRecord
2
MECHANICAL_2
70
0
62
253
6
CONTINUOUS
0
LAYER
5
D9
100
AcDbSymbolTableRecord
100
AcDbLayerTableRecord
2
DRILL
70
0
62
255
6
CONTINUOUS
0
ENDTAB
0
TABLE
2
STYLE
5
DA
100
AcDbSymbolTable
70
2
0
STYLE
5
DB
100
AcDbSymbolTableRecord
100
AcDbTextStyleTableRecord
2
MONOTxtStyle
70
0
40
0.0
41
1.0
50
0.0
71
0
42
0.2
3
monotxt
4

0
ENDTAB
0
TABLE
2
VIEW
5
DC
100
AcDbSymbolTable
70
0
0
ENDTAB
0
TABLE
2
UCS
5
DD
100
AcDbSymbolTable
70
0
0
ENDTAB
0
TABLE
2
APPID
5
DE
100
AcDbSymbolTable
70
1
0
APPID
5
DF
100
AcDbSymbolTableRecord
100
AcDbRegAppTableRecord
2
ACAD
70
0
0
ENDTAB
0
TABLE
2
DIMSTYLE
5
E0
100
AcDbSymbolTable
70
1
0
DIMSTYLE
105
E1
100
AcDbSymbolTableRecord
100
AcDbDimStyleTableRecord
2
STANDARD
70
0
0
ENDTAB
0
TABLE
2
BLOCK_RECORD
5
E2
100
AcDbSymbolTable
70
0
0
BLOCK_RECORD
5
E3
100
AcDbSymbolTableRecord
100
AcDbBlockTableRecord
2
*MODEL_SPACE
0
BLOCK_RECORD
5
E4
100
AcDbSymbolTableRecord
100
AcDbBlockTableRecord
2
*PAPER_SPACE
0
ENDTAB
0
ENDSEC
0
SECTION
2
BLOCKS
0
BLOCK
5
E5
100
AcDbEntity
8
0
100
AcDbBlockBegin
2
*MODEL_SPACE
70
0
0
ENDBLK
5
E6
100
AcDbEntity
8
0
100
AcDbBlockEnd
0
BLOCK
5
E7
100
AcDbEntity
8
0
100
AcDbBlockBegin
2
*PAPER_SPACE
70
0
0
ENDBLK
5
E8
100
AcDbEntity
8
0
100
AcDbBlockEnd
0
ENDSEC
0
SECTION
2
ENTITIES
0
LWPOLYLINE
5
E9
100
AcDbEntity
8
BOARD_OUTLINE
62
2
100
AcDbPolyline
90
2
70
0
43
0.000001
39
0.000001
10
-3.302000
20
-1.270000
10
28.702000
20
-1.270000
0
LWPOLYLINE
5
EA
100
AcDbEntity
8
BOARD_OUTLINE
62
2
100
AcDbPolyline
90
2
70
0
43
0.000001
39
0.000001
10
28.702000
20
-1.270000
10
28.702000
20
28.702000
0
LWPOLYLINE
5
EB
100
AcDbEntity
8
BOARD_OUTLINE
62
2
100
AcDbPolyline
90
2
70
0
43
0.000001
39
0.000001
10
28.702000
20
28.702000
10
-3.302000
20
28.702000
0
LWPOLYLINE
5
EC
100
AcDbEntity
8
BOARD_OUTLINE
62
2
100
AcDbPolyline
90
2
70
0
43
0.000001
39
0.000001
10
-3.302000
20
28.702000
10
-3.302000
20
-1.270000
0
HATCH
5
ED
100
AcDbEntity
8
COPPER_TOP
100
AcDbHatch
10
0.0
20
0.0
30
0.0
210
0.0
220
0.0
230
1.0
2
SOLID
70
1
71
0
91
2
92
1
93
1
72
2
10
13.817600
20
22.453600
40
0.635000
50
0.000000
51
360.000000
73
1
97
0
92
1
93
1
72
2
10
13.817600
20
22.453600
40
0.444500
50
0.000000
51
360.000000
73
1
97
0
75
0
76
0
98
1
10
0.0
20
0.0
0
HATCH
5
EE
100
AcDbEntity
8
COPPER_TOP
100
AcDbHatch
10
0.0
20
0.0
30
0.0
210
0.0
220
0.0
230
1.0
2
SOLID
70
1
71
0
91
2
92
1
93
1
72
2
10
18.897600
20
22.453600
40
0.635000
50
0.000000
51
360.000000
73
1
97
0
92
1
93
1
72
2
10
18.897600
20
22.453600
40
0.444500
50
0.000000
51
360.000000
73
1
97
0
75
0
76
0
98
1
10
0.0
20
0.0
0
HATCH
5
EF
100
AcDbEntity
8
COPPER_TOP
100
AcDbHatch
10
0.0
20
0.0
30
0.0
210
0.0
220
0.0
230
1.0
2
SOLID
70
1
71
0
91
2
92
1
93
1
72
2
10
14.325600
20
15.341600
40
1.058418
50
0.000000
51
360.000000
73
1
97
0
92
1
93
1
72
2
10
14.325600
20
15.341600
40
0.550291
50
0.000000
51
360.000000
73
1
97
0
75
0
76
0
98
1
10
0.0
20
0.0
0
HATCH
5
F0
100
AcDbEntity
8
COPPER_TOP
100
AcDbHatch
10
0.0
20
0.0
30
0.0
210
0.0
220
0.0
230
1.0
2
SOLID
70
1
71
0
91
2
92
1
93
1
72
2
10
14.325600
20
2.641600
40
1.058418
50
0.000000
51
360.000000
73
1
97
0
92
1
93
1
72
2
10
14.325600
20
2.641600
40
0.550291
50
0.000000
51
360.000000
73
1
97
0
75
0
76
0
98
1
10
0.0
20
0.0
0
HATCH
5
F1
100
AcDbEntity
8
COPPER_TOP
100
AcDbHatch
10
0.0
20
0.0
30
0.0
210
0.0
220
0.0
230
1.0
2
SOLID
70
1
71
0
91
2
92
1
93
8
72
1
10
1.879600
20
5.520309
11
1.879600
21
4.842891
72
2
10
2.302891
20
4.842891
40
0.423291
50
180.000000
51
270.000000
73
1
72
1
10
2.302891
20
4.419600
11
2.980309
21
4.419600
72
2
10
2.980309
20
4.842891
40
0.423291
50
270.000000
51
0.000000
73
1
72
1
10
3.403600
20
4.842891
11
3.403600
21
5.520309
72
2
10
2.980309
20
5.520309
40
0.423291
50
0.000000
51
90.000000
73
1
72
1
10
2.980309
20
5.943600
11
2.302891
21
5.943600
72
2
10
2.302891
20
5.520309
40
0.423291
50
90.000000
51
180.000000
73
1
97
0
92
1
93
1
72
2
10
2.641600
20
5.181600
40
0.423291
50
0.000000
51
360.000000
73
1
97
0
75
0
76
0
98
1
10
0.0
20
0.0
0
HATCH
5
F2
100
AcDbEntity
8
COPPER_TOP
100
AcDbHatch
10
0.0
20
0.0
30
0.0
210
0.0
220
0.0
230
1.0
2
SOLID
70
1
71
0
91
2
92
1
93
1
72
2
10
2.641600
20
12.801600
40
0.804418
50
0.000000
51
360.000000
73
1
97
0
92
1
93
1
72
2
10
2.641600
20
12.801600
40
0.444500
50
0.000000
51
360.000000
73
1
97
0
75
0
76
0
98
1
10
0.0
20
0.0
0
HATCH
5
F3
100
AcDbEntity
8
COPPER_TOP
100
AcDbHatch
10
0.0
20
0.0
30
0.0
210
0.0
220
0.0
230
1.0
2
SOLID
70
1
71
0
91
2
92
1
93
8
72
1
10
2.895600
20
25.766141
11
2.895600
21
25.237059
72
2
10
3.393059
20
25.237059
40
0.497459
50
180.000000
51
270.000000
73
1
72
1
10
3.393059
20
24.739600
11
3.922141
21
24.739600
72
2
10
3.922141
20
25.237059
40
0.497459
50
270.000000
51
0.000000
73
1
72
1
10
4.419600
20
25.237059
11
4.419600
21
25.766141
72
2
10
3.922141
20
25.766141
40
0.497459
50
0.000000
51
90.000000
73
1
72
1
10
3.922141
20
26.263600
11
3.393059
21
26.263600
72
2
10
3.393059
20
25.766141
40
0.497459
50
90.000000
51
180.000000
73
1
97
0
92
1
93
1
72
2
10
3.657600
20
25.501600
40
0.497459
50
0.000000
51
360.000000
73
1
97
0
75
0
76
0
98
1
10
0.0
20
0.0
0
HATCH
5
F4
100
AcDbEntity
8
COPPER_TOP
100
AcDbHatch
10
0.0
20
0.0
30
0.0
210
0.0
220
0.0
230
1.0
2
SOLID
70
1
71
0
91
2
92
1
93
1
72
2
10
6.197600
20
25.501600
40
0.804418
50
0.000000
51
360.000000
73
1
97
0
92
1
93
1
72
2
10
6.197600
20
25.501600
40
0.444500
50
0.000000
51
360.000000
73
1
97
0
75
0
76
0
98
1
10
0.0
20
0.0
0
HATCH
5
F5
100
AcDbEntity
8
COPPER_TOP
100
AcDbHatch
10
0.0
20
0.0
30
0.0
210
0.0
220
0.0
230
1.0
2
SOLID
70
1
71
0
91
2
92
1
93
1
72
2
10
8.229600
20
12.801600
40
0.804418
50
0.000000
51
360.000000
73
1
97
0
92
1
93
1
72
2
10
8.229600
20
12.801600
40
0.444500
50
0.000000
51
360.000000
73
1
97
0
75
0
76
0
98
1
10
0.0
20
0.0
0
HATCH
5
F6
100
AcDbEntity
8
COPPER_TOP
100
AcDbHatch
10
0.0
20
0.0
30
0.0
210
0.0
220
0.0
230
1.0
2
SOLID
70
1
71
0
91
2
92
1
93
8
72
1
10
7.467600
20
5.520309
11
7.467600
21
4.842891
72
2
10
7.890891
20
4.842891
40
0.423291
50
180.000000
51
270.000000
73
1
72
1
10
7.890891
20
4.419600
11
8.568309
21
4.419600
72
2
10
8.568309
20
4.842891
40
0.423291
50
270.000000
51
0.000000
73
1
72
1
10
8.991600
20
4.842891
11
8.991600
21
5.520309
72
2
10
8.568309
20
5.520309
40
0.423291
50
0.000000
51
90.000000
73
1
72
1
10
8.568309
20
5.943600
11
7.890891
21
5.943600
72
2
10
7.890891
20
5.520309
40
0.423291
50
90.000000
51
180.000000
73
1
97
0
92
1
93
1
72
2
10
8.229600
20
5.181600
40
0.423291
50
0.000000
51
360.000000
73
1
97
0
75
0
76
0
98
1
10
0.0
20
0.0
0
LWPOLYLINE
5
F7
100
AcDbEntity
8
COPPER_TOP
62
3
100
AcDbPolyline
90
2
70
0
43
0.512000
39
0.512000
10
2.641600
20
19.659600
10
3.657600
20
20.675600
0
LWPOLYLINE
5
F8
100
AcDbEntity
8
COPPER_TOP
62
3
100
AcDbPolyline
90
2
70
0
43
0.512000
39
0.512000
10
3.657600
20
20.675600
10
3.657600
20
25.501600
0
LWPOLYLINE
5
F9
100
AcDbEntity
8
COPPER_TOP
62
3
100
AcDbPolyline
90
2
70
0
43
0.512000
39
0.512000
10
2.641600
20
12.801600
10
2.641600
20
19.659600
0
LWPOLYLINE
5
FA
100
AcDbEntity
8
COPPER_TOP
62
3
100
AcDbPolyline
90
2
70
0
43
0.512000
39
0.512000
10
8.229600
20
12.801600
10
8.229600
20
18.694400
0
LWPOLYLINE
5
FB
100
AcDbEntity
8
COPPER_TOP
62
3
100
AcDbPolyline
90
2
70
0
43
0.512000
39
0.512000
10
8.229600
20
18.694400
10
6.197600
20
20.726400
0
LWPOLYLINE
5
FC
100
AcDbEntity
8
COPPER_TOP
62
3
100
AcDbPolyline
90
2
70
0
43
0.512000
39
0.512000
10
6.197600
20
20.726400
10
6.197600
20
25.501600
0
LWPOLYLINE
5
FD
100
AcDbEntity
8
COPPER_TOP
62
3
100
AcDbPolyline
90
2
70
0
43
0.512000
39
0.512000
10
13.817600
20
22.453600
10
6.350000
20
22.453600
0
LWPOLYLINE
5
FE
100
AcDbEntity
8
COPPER_TOP
62
3
100
AcDbPolyline
90
2
70
0
43
0.512000
39
0.512000
10
6.350000
20
22.453600
10
6.197600
20
22.606000
0
HATCH
5
FF
100
AcDbEntity
8
COPPER_TOP
100
AcDbHatch
10
0.0
20
0.0
30
0.0
210
0.0
220
0.0
230
1.0
2
SOLID
70
1
71
0
91
2
92
1
93
1
72
2
10
19.507200
20
13.406400
40
0.750000
50
0.000000
51
360.000000
73
1
97
0
92
1
93
1
72
2
10
19.507200
20
13.406400
40
0.450000
50
0.000000
51
360.000000
73
1
97
0
75
0
76
0
98
1
10
0.0
20
0.0
0
HATCH
5
100
100
AcDbEntity
8
COPPER_TOP
100
AcDbHatch
10
0.0
20
0.0
30
0.0
210
0.0
220
0.0
230
1.0
2
SOLID
70
1
71
0
91
2
92
1
93
4
72
1
10
20.257200
20
-0.343600
11
18.757200
21
-0.343600
72
1
10
18.757200
20
-0.343600
11
18.757200
21
1.156400
72
1
10
18.757200
20
1.156400
11
20.257200
21
1.156400
72
1
10
20.257200
20
1.156400
11
20.257200
21
-0.343600
97
0
92
1
93
1
72
2
10
19.507200
20
0.406400
40
0.450000
50
0.000000
51
360.000000
73
1
97
0
75
0
76
0
98
1
10
0.0
20
0.0
0
LWPOLYLINE
5
101
100
AcDbEntity
8
COPPER_TOP
62
3
100
AcDbPolyline
90
2
70
0
43
0.512000
39
0.512000
10
2.641600
20
5.181600
10
2.641600
20
1.676400
0
LWPOLYLINE
5
102
100
AcDbEntity
8
COPPER_TOP
62
3
100
AcDbPolyline
90
2
70
0
43
0.512000
39
0.512000
10
2.641600
20
1.676400
10
3.911600
20
0.406400
0
LWPOLYLINE
5
103
100
AcDbEntity
8
COPPER_TOP
62
3
100
AcDbPolyline
90
2
70
0
43
0.512000
39
0.512000
10
3.911600
20
0.406400
10
21.742400
20
0.406400
0
LWPOLYLINE
5
104
100
AcDbEntity
8
COPPER_TOP
62
3
100
AcDbPolyline
90
2
70
0
43
0.512000
39
0.512000
10
21.742400
20
0.406400
10
22.606000
20
1.270000
0
LWPOLYLINE
5
105
100
AcDbEntity
8
COPPER_TOP
62
3
100
AcDbPolyline
90
2
70
0
43
0.512000
39
0.512000
10
22.606000
20
1.270000
10
22.606000
20
21.844000
0
LWPOLYLINE
5
106
100
AcDbEntity
8
COPPER_TOP
62
3
100
AcDbPolyline
90
2
70
0
43
0.512000
39
0.512000
10
22.606000
20
21.844000
10
21.996400
20
22.453600
0
LWPOLYLINE
5
107
100
AcDbEntity
8
COPPER_TOP
62
3
100
AcDbPolyline
90
2
70
0
43
0.512000
39
0.512000
10
21.996400
20
22.453600
10
18.897600
20
22.453600
0
LWPOLYLINE
5
108
100
AcDbEntity
8
COPPER_TOP
62
3
100
AcDbPolyline
90
2
70
0
43
0.512000
39
0.512000
10
19.507200
20
13.406400
10
19.507200
20
14.782800
0
LWPOLYLINE
5
109
100
AcDbEntity
8
COPPER_TOP
62
3
100
AcDbPolyline
90
2
70
0
43
0.512000
39
0.512000
10
19.507200
20
14.782800
10
18.948400
20
15.341600
0
LWPOLYLINE
5
10A
100
AcDbEntity
8
COPPER_TOP
62
3
100
AcDbPolyline
90
2
70
0
43
0.512000
39
0.512000
10
18.948400
20
15.341600
10
14.325600
20
15.341600
0
LWPOLYLINE
5
10B
100
AcDbEntity
8
COPPER_TOP
62
3
100
AcDbPolyline
90
2
70
0
43
0.512000
39
0.512000
10
14.325600
20
2.641600
10
8.788400
20
2.641600
0
LWPOLYLINE
5
10C
100
AcDbEntity
8
COPPER_TOP
62
3
100
AcDbPolyline
90
2
70
0
43
0.512000
39
0.512000
10
8.788400
20
2.641600
10
8.229600
20
3.200400
0
LWPOLYLINE
5
10D
100
AcDbEntity
8
COPPER_TOP
62
3
100
AcDbPolyline
90
2
70
0
43
0.512000
39
0.512000
10
8.229600
20
3.200400
10
8.229600
20
5.181600
0
HATCH
5
10E
100
AcDbEntity
8
COPPER_TOP
62
3
100
AcDbHatch
10
0.0
20
0.0
30
0.0
210
0.0
220
0.0
230
1.0
2
SOLID
70
1
71
0
91
19
92
1
93
4
72
1
10
28.319157
20
28.319157
11
-2.919157
21
28.319157
72
1
10
-2.919157
20
28.319157
11
-2.919157
21
-0.887157
72
1
10
-2.919157
20
-0.887157
11
28.319157
21
-0.887157
72
1
10
28.319157
20
-0.887157
11
28.319157
21
28.319157
97
0
92
1
93
1
72
2
10
-0.762000
20
1.270000
40
1.881000
50
0.000000
51
360.000000
73
1
97
0
92
1
93
1
72
2
10
25.908000
20
1.524000
40
1.881000
50
0.000000
51
360.000000
73
1
97
0
92
1
93
3
72
2
10
2.641600
20
12.801600
40
1.185418
50
200.769488
51
249.230512
73
0
72
1
10
2.221240
20
13.909983
11
2.221240
21
13.221960
72
1
10
2.221240
20
13.221960
11
1.533217
21
13.221960
97
0
92
1
93
3
72
2
10
2.641600
20
12.801600
40
1.185418
50
290.769488
51
339.230512
73
0
72
1
10
3.749983
20
13.221960
11
3.061960
21
13.221960
72
1
10
3.061960
20
13.221960
11
3.061960
21
13.909983
97
0
92
1
93
3
72
2
10
2.641600
20
12.801600
40
1.185418
50
20.769488
51
69.230512
73
0
72
1
10
3.061960
20
11.693217
11
3.061960
21
12.381240
72
1
10
3.061960
20
12.381240
11
3.749983
21
12.381240
97
0
92
1
93
3
72
2
10
2.641600
20
12.801600
40
1.185418
50
110.769488
51
159.230512
73
0
72
1
10
1.533217
20
12.381240
11
2.221240
21
12.381240
72
1
10
2.221240
20
12.381240
11
2.221240
21
11.693217
97
0
92
1
93
1
72
2
10
2.641600
20
12.801600
40
0.444500
50
0.000000
51
360.000000
73
1
97
0
92
1
93
17
72
1
10
13.036329
20
2.001518
11
8.788400
21
2.001518
72
2
10
8.788400
20
2.641600
40
0.640082
50
90.000000
51
99.089022
73
0
72
2
10
8.788399
20
2.641600
40
0.640082
50
99.088914
51
135.000000
73
0
72
1
10
8.335792
20
2.188994
11
7.776992
21
2.747794
72
2
10
8.229598
20
3.200401
40
0.640082
50
135.000000
51
180.124728
73
0
72
1
10
7.589518
20
3.201794
11
7.589518
21
4.093003
72
2
10
7.890891
20
4.842891
40
0.808182
50
111.894727
51
180.000000
73
0
72
1
10
7.082709
20
4.842891
11
7.082709
21
5.520309
72
2
10
7.890891
20
5.520309
40
0.808182
50
180.000000
51
270.000000
73
0
72
1
10
7.890891
20
6.328491
11
8.568309
21
6.328491
72
2
10
8.568309
20
5.520309
40
0.808182
50
270.000000
51
360.000000
73
0
72
1
10
9.376491
20
5.520309
11
9.376491
21
4.842891
72
2
10
8.568309
20
4.842891
40
0.808182
50
360.000000
51
68.105273
73
0
72
1
10
8.869682
20
4.093003
11
8.869682
21
3.465530
72
1
10
8.869682
20
3.465530
11
9.053530
21
3.281682
72
1
10
9.053530
20
3.281682
11
13.036329
21
3.281682
72
2
10
14.325600
20
2.641600
40
1.439418
50
206.402938
51
153.597062
73
0
97
0
92
1
93
11
72
1
10
19.401679
20
15.793533
11
19.959133
21
15.236079
72
2
10
19.507200
20
14.782800
40
0.640082
50
314.914835
51
360.000000
73
0
72
1
10
20.147282
20
14.782800
11
20.147282
21
14.338846
72
2
10
19.507200
20
13.406400
40
1.131000
50
304.467829
51
235.532171
73
0
72
1
10
18.867118
20
14.338846
11
18.867118
21
14.517668
72
1
10
18.867118
20
14.517668
11
18.683268
21
14.701518
72
1
10
18.683268
20
14.701518
11
15.614871
21
14.701518
72
2
10
14.325600
20
15.341600
40
1.439418
50
26.402938
51
333.597062
73
0
72
1
10
15.614871
20
15.981682
11
18.947585
21
15.981682
72
2
10
18.948398
20
15.341601
40
0.640082
50
269.927201
51
288.811897
73
0
72
2
10
18.948400
20
15.341600
40
0.640082
50
288.811754
51
315.085165
73
0
97
0
92
1
93
41
72
2
10
18.897600
20
22.453600
40
1.016000
50
39.050268
51
320.949732
73
0
72
1
10
19.686619
20
23.093682
11
21.995599
21
23.093682
72
2
10
21.996399
20
22.453600
40
0.640082
50
269.928431
51
288.420133
73
0
72
2
10
21.996400
20
22.453600
40
0.640082
50
288.419992
51
315.085165
73
0
72
1
10
22.449679
20
22.905533
11
23.057933
21
22.297279
72
2
10
22.606000
20
21.844000
40
0.640082
50
314.914835
51
360.000000
73
0
72
1
10
23.246082
20
21.844000
11
23.246082
21
1.270000
72
2
10
22.606000
20
1.270000
40
0.640082
50
360.000000
51
45.085165
73
0
72
1
10
23.057933
20
0.816721
11
22.195679
21
-0.045533
72
2
10
21.742400
20
0.406400
40
0.640082
50
44.914835
51
90.000000
73
0
72
1
10
21.742400
20
-0.233682
11
20.640043
21
-0.233682
72
1
10
20.640043
20
-0.233682
11
20.640043
21
-0.343600
72
2
10
20.257200
20
-0.343600
40
0.382843
50
0.000000
51
90.000000
73
0
72
1
10
20.257200
20
-0.726443
11
18.757200
21
-0.726443
72
2
10
18.757200
20
-0.343600
40
0.382843
50
90.000000
51
180.000000
73
0
72
1
10
18.374357
20
-0.343600
11
18.374357
21
-0.233682
72
1
10
18.374357
20
-0.233682
11
3.912192
21
-0.233682
72
2
10
3.911599
20
0.406400
40
0.640082
50
89.946958
51
135.000000
73
0
72
1
10
3.458993
20
-0.046207
11
2.188993
21
1.223793
72
2
10
2.641599
20
1.676400
40
0.640082
50
135.000000
51
180.076274
73
0
72
1
10
2.001518
20
1.677252
11
2.001518
21
4.093003
72
2
10
2.302891
20
4.842891
40
0.808182
50
111.894727
51
180.000000
73
0
72
1
10
1.494709
20
4.842891
11
1.494709
21
5.520309
72
2
10
2.302891
20
5.520309
40
0.808182
50
180.000000
51
270.000000
73
0
72
1
10
2.302891
20
6.328491
11
2.980309
21
6.328491
72
2
10
2.980309
20
5.520309
40
0.808182
50
270.000000
51
360.000000
73
0
72
1
10
3.788491
20
5.520309
11
3.788491
21
4.842891
72
2
10
2.980309
20
4.842891
40
0.808182
50
360.000000
51
68.105273
73
0
72
1
10
3.281682
20
4.093003
11
3.281682
21
1.941530
72
1
10
3.281682
20
1.941530
11
4.176730
21
1.046482
72
1
10
4.176730
20
1.046482
11
18.374357
21
1.046482
72
1
10
18.374357
20
1.046482
11
18.374357
21
1.156400
72
2
10
18.757200
20
1.156400
40
0.382843
50
180.000000
51
270.000000
73
0
72
1
10
18.757200
20
1.539243
11
20.257200
21
1.539243
72
2
10
20.257200
20
1.156400
40
0.382843
50
270.000000
51
360.000000
73
0
72
1
10
20.640043
20
1.156400
11
20.640043
21
1.046482
72
1
10
20.640043
20
1.046482
11
21.477268
21
1.046482
72
1
10
21.477268
20
1.046482
11
21.965918
21
1.535132
72
1
10
21.965918
20
1.535132
11
21.965918
21
21.578868
72
1
10
21.965918
20
21.578868
11
21.731268
21
21.813518
72
1
10
21.731268
20
21.813518
11
19.686619
21
21.813518
97
0
92
1
93
3
72
1
10
2.521893
20
25.094774
11
3.250774
21
25.094774
72
1
10
3.250774
20
25.094774
11
3.250774
21
24.365893
72
2
10
3.393059
20
25.237059
40
0.882709
50
99.276050
51
170.723950
73
0
97
0
92
1
93
3
72
1
10
4.064426
20
24.365893
11
4.064426
21
25.094774
72
1
10
4.064426
20
25.094774
11
4.793307
21
25.094774
72
2
10
3.922141
20
25.237059
40
0.882709
50
9.276050
51
80.723950
73
0
97
0
92
1
93
3
72
1
10
4.793307
20
25.908426
11
4.064426
21
25.908426
72
1
10
4.064426
20
25.908426
11
4.064426
21
26.637307
72
2
10
3.922141
20
25.766141
40
0.882709
50
279.276050
51
350.723950
73
0
97
0
92
1
93
3
72
1
10
3.250774
20
26.637307
11
3.250774
21
25.908426
72
1
10
3.250774
20
25.908426
11
2.521893
21
25.908426
72
2
10
3.393059
20
25.766141
40
0.882709
50
189.276050
51
260.723950
73
0
97
0
92
1
93
1
72
2
10
3.657600
20
25.501600
40
0.497459
50
0.000000
51
360.000000
73
1
97
0
92
1
93
16
72
1
10
6.837682
20
24.503847
11
6.837682
21
23.093682
72
1
10
6.837682
20
23.093682
11
13.028581
21
23.093682
72
2
10
13.817600
20
22.453600
40
1.016000
50
219.050268
51
140.949732
73
0
72
1
10
13.028581
20
21.813518
11
6.837682
21
21.813518
72
1
10
6.837682
20
21.813518
11
6.837682
21
20.991530
72
1
10
6.837682
20
20.991530
11
8.681533
21
19.147679
72
2
10
8.229600
20
18.694400
40
0.640082
50
314.914835
51
360.000000
73
0
72
1
10
8.869682
20
18.694400
11
8.869682
21
13.799353
72
2
10
8.229600
20
12.801600
40
1.185418
50
302.681128
51
237.318872
73
0
72
1
10
7.589518
20
13.799353
11
7.589518
21
18.429268
72
1
10
7.589518
20
18.429268
11
5.744993
21
20.273794
72
2
10
6.197599
20
20.726400
40
0.640082
50
135.000000
51
180.102015
73
0
72
1
10
5.557518
20
20.727540
11
5.557518
21
22.604545
72
2
10
6.197598
20
22.606001
40
0.640082
50
179.869701
51
180.130299
73
0
72
1
10
5.557518
20
22.607456
11
5.557518
21
24.503847
72
2
10
6.197600
20
25.501600
40
1.185418
50
122.681128
51
57.318872
73
0
97
0
92
1
93
1
72
2
10
-0.762000
20
25.908000
40
1.881000
50
0.000000
51
360.000000
73
1
97
0
92
1
93
1
72
2
10
25.908000
20
25.908000
40
1.881000
50
0.000000
51
360.000000
73
1
97
0
75
0
76
0
98
1
10
0.0
20
0.0
0
CIRCLE
5
10F
100
AcDbEntity
8
COPPER_TOP
62
3
100
AcDbCircle
39
0.254000
10
-0.762000
20
1.270000
30
0
40
1.881000
0
CIRCLE
5
110
100
AcDbEntity
8
COPPER_TOP
62
3
100
AcDbCircle
39
0.254000
10
25.908000
20
1.524000
30
0
40
1.881000
0
ARC
5
111
100
AcDbEntity
8
COPPER_TOP
62
3
100
AcDbCircle
39
0.254000
10
2.641600
20
12.801600
30
0.0
40
1.185418
100
AcDbArc
50
110.769488
51
159.230512
0
LWPOLYLINE
5
112
100
AcDbEntity
8
COPPER_TOP
62
3
100
AcDbPolyline
90
3
70
0
43
0.254000
39
0.254000
10
2.221240
20
13.909983
10
2.221240
20
13.221960
10
1.533217
20
13.221960
0
ARC
5
113
100
AcDbEntity
8
COPPER_TOP
62
3
100
AcDbCircle
39
0.254000
10
2.641600
20
12.801600
30
0.0
40
1.185418
100
AcDbArc
50
20.769488
51
69.230512
0
LWPOLYLINE
5
114
100
AcDbEntity
8
COPPER_TOP
62
3
100
AcDbPolyline
90
3
70
0
43
0.254000
39
0.254000
10
3.749983
20
13.221960
10
3.061960
20
13.221960
10
3.061960
20
13.909983
0
ARC
5
115
100
AcDbEntity
8
COPPER_TOP
62
3
100
AcDbCircle
39
0.254000
10
2.641600
20
12.801600
30
0.0
40
1.185418
100
AcDbArc
50
290.769488
51
339.230512
0
LWPOLYLINE
5
116
100
AcDbEntity
8
COPPER_TOP
62
3
100
AcDbPolyline
90
3
70
0
43
0.254000
39
0.254000
10
3.061960
20
11.693217
10
3.061960
20
12.381240
10
3.749983
20
12.381240
0
ARC
5
117
100
AcDbEntity
8
COPPER_TOP
62
3
100
AcDbCircle
39
0.254000
10
2.641600
20
12.801600
30
0.0
40
1.185418
100
AcDbArc
50
200.769488
51
249.230512
0
LWPOLYLINE
5
118
100
AcDbEntity
8
COPPER_TOP
62
3
100
AcDbPolyline
90
3
70
0
43
0.254000
39
0.254000
10
1.533217
20
12.381240
10
2.221240
20
12.381240
10
2.221240
20
11.693217
0
CIRCLE
5
119
100
AcDbEntity
8
COPPER_TOP
62
3
100
AcDbCircle
39
0.254000
10
2.641600
20
12.801600
30
0
40
0.444500
0
LWPOLYLINE
5
11A
100
AcDbEntity
8
COPPER_TOP
62
3
100
AcDbPolyline
90
2
70
0
43
0.254000
39
0.254000
10
13.036329
20
2.001518
10
8.788400
20
2.001518
0
ARC
5
11B
100
AcDbEntity
8
COPPER_TOP
62
3
100
AcDbCircle
39
0.254000
10
8.788400
20
2.641600
30
0.0
40
0.640082
100
AcDbArc
50
260.910978
51
270.000000
0
ARC
5
11C
100
AcDbEntity
8
COPPER_TOP
62
3
100
AcDbCircle
39
0.254000
10
8.788399
20
2.641600
30
0.0
40
0.640082
100
AcDbArc
50
225.000000
51
260.911086
0
LWPOLYLINE
5
11D
100
AcDbEntity
8
COPPER_TOP
62
3
100
AcDbPolyline
90
2
70
0
43
0.254000
39
0.254000
10
8.335792
20
2.188994
10
7.776992
20
2.747794
0
ARC
5
11E
100
AcDbEntity
8
COPPER_TOP
62
3
100
AcDbCircle
39
0.254000
10
8.229598
20
3.200401
30
0.0
40
0.640082
100
AcDbArc
50
179.875272
51
225.000000
0
LWPOLYLINE
5
11F
100
AcDbEntity
8
COPPER_TOP
62
3
100
AcDbPolyline
90
2
70
0
43
0.254000
39
0.254000
10
7.589518
20
3.201794
10
7.589518
20
4.093003
0
ARC
5
120
100
AcDbEntity
8
COPPER_TOP
62
3
100
AcDbCircle
39
0.254000
10
7.890891
20
4.842891
30
0.0
40
0.808182
100
AcDbArc
50
180.000000
51
248.105273
0
LWPOLYLINE
5
121
100
AcDbEntity
8
COPPER_TOP
62
3
100
AcDbPolyline
90
2
70
0
43
0.254000
39
0.254000
10
7.082709
20
4.842891
10
7.082709
20
5.520309
0
ARC
5
122
100
AcDbEntity
8
COPPER_TOP
62
3
100
AcDbCircle
39
0.254000
10
7.890891
20
5.520309
30
0.0
40
0.808182
100
AcDbArc
50
90.000000
51
180.000000
0
LWPOLYLINE
5
123
100
AcDbEntity
8
COPPER_TOP
62
3
100
AcDbPolyline
90
2
70
0
43
0.254000
39
0.254000
10
7.890891
20
6.328491
10
8.568309
20
6.328491
0
ARC
5
124
100
AcDbEntity
8
COPPER_TOP
62
3
100
AcDbCircle
39
0.254000
10
8.568309
20
5.520309
30
0.0
40
0.808182
100
AcDbArc
50
0.000000
51
90.000000
0
LWPOLYLINE
5
125
100
AcDbEntity
8
COPPER_TOP
62
3
100
AcDbPolyline
90
2
70
0
43
0.254000
39
0.254000
10
9.376491
20
5.520309
10
9.376491
20
4.842891
0
ARC
5
126
100
AcDbEntity
8
COPPER_TOP
62
3
100
AcDbCircle
39
0.254000
10
8.568309
20
4.842891
30
0.0
40
0.808182
100
AcDbArc
50
291.894727
51
0.000000
0
LWPOLYLINE
5
127
100
AcDbEntity
8
COPPER_TOP
62
3
100
AcDbPolyline
90
4
70
0
43
0.254000
39
0.254000
10
8.869682
20
4.093003
10
8.869682
20
3.465530
10
9.053530
20
3.281682
10
13.036329
20
3.281682
0
ARC
5
128
100
AcDbEntity
8
COPPER_TOP
62
3
100
AcDbCircle
39
0.254000
10
14.325600
20
2.641600
30
0.0
40
1.439418
100
AcDbArc
50
206.402938
51
153.597062
0
LWPOLYLINE
5
129
100
AcDbEntity
8
COPPER_TOP
62
3
100
AcDbPolyline
90
2
70
0
43
0.254000
39
0.254000
10
19.401679
20
15.793533
10
19.959133
20
15.236079
0
ARC
5
12A
100
AcDbEntity
8
COPPER_TOP
62
3
100
AcDbCircle
39
0.254000
10
19.507200
20
14.782800
30
0.0
40
0.640082
100
AcDbArc
50
0.000000
51
45.085165
0
LWPOLYLINE
5
12B
100
AcDbEntity
8
COPPER_TOP
62
3
100
AcDbPolyline
90
2
70
0
43
0.254000
39
0.254000
10
20.147282
20
14.782800
10
20.147282
20
14.338846
0
ARC
5
12C
100
AcDbEntity
8
COPPER_TOP
62
3
100
AcDbCircle
39
0.254000
10
19.507200
20
13.406400
30
0.0
40
1.131000
100
AcDbArc
50
124.467829
51
55.532171
0
LWPOLYLINE
5
12D
100
AcDbEntity
8
COPPER_TOP
62
3
100
AcDbPolyline
90
4
70
0
43
0.254000
39
0.254000
10
18.867118
20
14.338846
10
18.867118
20
14.517668
10
18.683268
20
14.701518
10
15.614871
20
14.701518
0
ARC
5
12E
100
AcDbEntity
8
COPPER_TOP
62
3
100
AcDbCircle
39
0.254000
10
14.325600
20
15.341600
30
0.0
40
1.439418
100
AcDbArc
50
26.402938
51
333.597062
0
LWPOLYLINE
5
12F
100
AcDbEntity
8
COPPER_TOP
62
3
100
AcDbPolyline
90
2
70
0
43
0.254000
39
0.254000
10
15.614871
20
15.981682
10
18.947585
20
15.981682
0
ARC
5
130
100
AcDbEntity
8
COPPER_TOP
62
3
100
AcDbCircle
39
0.254000
10
18.948398
20
15.341601
30
0.0
40
0.640082
100
AcDbArc
50
71.188103
51
90.072799
0
ARC
5
131
100
AcDbEntity
8
COPPER_TOP
62
3
100
AcDbCircle
39
0.254000
10
18.948400
20
15.341600
30
0.0
40
0.640082
100
AcDbArc
50
44.914835
51
71.188246
0
ARC
5
132
100
AcDbEntity
8
COPPER_TOP
62
3
100
AcDbCircle
39
0.254000
10
18.897600
20
22.453600
30
0.0
40
1.016000
100
AcDbArc
50
39.050268
51
320.949732
0
LWPOLYLINE
5
133
100
AcDbEntity
8
COPPER_TOP
62
3
100
AcDbPolyline
90
2
70
0
43
0.254000
39
0.254000
10
19.686619
20
23.093682
10
21.995599
20
23.093682
0
ARC
5
134
100
AcDbEntity
8
COPPER_TOP
62
3
100
AcDbCircle
39
0.254000
10
21.996399
20
22.453600
30
0.0
40
0.640082
100
AcDbArc
50
71.579867
51
90.071569
0
ARC
5
135
100
AcDbEntity
8
COPPER_TOP
62
3
100
AcDbCircle
39
0.254000
10
21.996400
20
22.453600
30
0.0
40
0.640082
100
AcDbArc
50
44.914835
51
71.580008
0
LWPOLYLINE
5
136
100
AcDbEntity
8
COPPER_TOP
62
3
100
AcDbPolyline
90
2
70
0
43
0.254000
39
0.254000
10
22.449679
20
22.905533
10
23.057933
20
22.297279
0
ARC
5
137
100
AcDbEntity
8
COPPER_TOP
62
3
100
AcDbCircle
39
0.254000
10
22.606000
20
21.844000
30
0.0
40
0.640082
100
AcDbArc
50
0.000000
51
45.085165
0
LWPOLYLINE
5
138
100
AcDbEntity
8
COPPER_TOP
62
3
100
AcDbPolyline
90
2
70
0
43
0.254000
39
0.254000
10
23.246082
20
21.844000
10
23.246082
20
1.270000
0
ARC
5
139
100
AcDbEntity
8
COPPER_TOP
62
3
100
AcDbCircle
39
0.254000
10
22.606000
20
1.270000
30
0.0
40
0.640082
100
AcDbArc
50
314.914835
51
0.000000
0
LWPOLYLINE
5
13A
100
AcDbEntity
8
COPPER_TOP
62
3
100
AcDbPolyline
90
2
70
0
43
0.254000
39
0.254000
10
23.057933
20
0.816721
10
22.195679
20
-0.045533
0
ARC
5
13B
100
AcDbEntity
8
COPPER_TOP
62
3
100
AcDbCircle
39
0.254000
10
21.742400
20
0.406400
30
0.0
40
0.640082
100
AcDbArc
50
270.000000
51
315.085165
0
LWPOLYLINE
5
13C
100
AcDbEntity
8
COPPER_TOP
62
3
100
AcDbPolyline
90
3
70
0
43
0.254000
39
0.254000
10
21.742400
20
-0.233682
10
20.640043
20
-0.233682
10
20.640043
20
-0.343600
0
ARC
5
13D
100
AcDbEntity
8
COPPER_TOP
62
3
100
AcDbCircle
39
0.254000
10
20.257200
20
-0.343600
30
0.0
40
0.382843
100
AcDbArc
50
270.000000
51
360.000000
0
LWPOLYLINE
5
13E
100
AcDbEntity
8
COPPER_TOP
62
3
100
AcDbPolyline
90
2
70
0
43
0.254000
39
0.254000
10
20.257200
20
-0.726443
10
18.757200
20
-0.726443
0
ARC
5
13F
100
AcDbEntity
8
COPPER_TOP
62
3
100
AcDbCircle
39
0.254000
10
18.757200
20
-0.343600
30
0.0
40
0.382843
100
AcDbArc
50
180.000000
51
270.000000
0
LWPOLYLINE
5
140
100
AcDbEntity
8
COPPER_TOP
62
3
100
AcDbPolyline
90
3
70
0
43
0.254000
39
0.254000
10
18.374357
20
-0.343600
10
18.374357
20
-0.233682
10
3.912192
20
-0.233682
0
ARC
5
141
100
AcDbEntity
8
COPPER_TOP
62
3
100
AcDbCircle
39
0.254000
10
3.911599
20
0.406400
30
0.0
40
0.640082
100
AcDbArc
50
225.000000
51
270.053042
0
LWPOLYLINE
5
142
100
AcDbEntity
8
COPPER_TOP
62
3
100
AcDbPolyline
90
2
70
0
43
0.254000
39
0.254000
10
3.458993
20
-0.046207
10
2.188993
20
1.223793
0
ARC
5
143
100
AcDbEntity
8
COPPER_TOP
62
3
100
AcDbCircle
39
0.254000
10
2.641599
20
1.676400
30
0.0
40
0.640082
100
AcDbArc
50
179.923726
51
225.000000
0
LWPOLYLINE
5
144
100
AcDbEntity
8
COPPER_TOP
62
3
100
AcDbPolyline
90
2
70
0
43
0.254000
39
0.254000
10
2.001518
20
1.677252
10
2.001518
20
4.093003
0
ARC
5
145
100
AcDbEntity
8
COPPER_TOP
62
3
100
AcDbCircle
39
0.254000
10
2.302891
20
4.842891
30
0.0
40
0.808182
100
AcDbArc
50
180.000000
51
248.105273
0
LWPOLYLINE
5
146
100
AcDbEntity
8
COPPER_TOP
62
3
100
AcDbPolyline
90
2
70
0
43
0.254000
39
0.254000
10
1.494709
20
4.842891
10
1.494709
20
5.520309
0
ARC
5
147
100
AcDbEntity
8
COPPER_TOP
62
3
100
AcDbCircle
39
0.254000
10
2.302891
20
5.520309
30
0.0
40
0.808182
100
AcDbArc
50
90.000000
51
180.000000
0
LWPOLYLINE
5
148
100
AcDbEntity
8
COPPER_TOP
62
3
100
AcDbPolyline
90
2
70
0
43
0.254000
39
0.254000
10
2.302891
20
6.328491
10
2.980309
20
6.328491
0
ARC
5
149
100
AcDbEntity
8
COPPER_TOP
62
3
100
AcDbCircle
39
0.254000
10
2.980309
20
5.520309
30
0.0
40
0.808182
100
AcDbArc
50
0.000000
51
90.000000
0
LWPOLYLINE
5
14A
100
AcDbEntity
8
COPPER_TOP
62
3
100
AcDbPolyline
90
2
70
0
43
0.254000
39
0.254000
10
3.788491
20
5.520309
10
3.788491
20
4.842891
0
ARC
5
14B
100
AcDbEntity
8
COPPER_TOP
62
3
100
AcDbCircle
39
0.254000
10
2.980309
20
4.842891
30
0.0
40
0.808182
100
AcDbArc
50
291.894727
51
0.000000
0
LWPOLYLINE
5
14C
100
AcDbEntity
8
COPPER_TOP
62
3
100
AcDbPolyline
90
5
70
0
43
0.254000
39
0.254000
10
3.281682
20
4.093003
10
3.281682
20
1.941530
10
4.176730
20
1.046482
10
18.374357
20
1.046482
10
18.374357
20
1.156400
0
ARC
5
14D
100
AcDbEntity
8
COPPER_TOP
62
3
100
AcDbCircle
39
0.254000
10
18.757200
20
1.156400
30
0.0
40
0.382843
100
AcDbArc
50
90.000000
51
180.000000
0
LWPOLYLINE
5
14E
100
AcDbEntity
8
COPPER_TOP
62
3
100
AcDbPolyline
90
2
70
0
43
0.254000
39
0.254000
10
18.757200
20
1.539243
10
20.257200
20
1.539243
0
ARC
5
14F
100
AcDbEntity
8
COPPER_TOP
62
3
100
AcDbCircle
39
0.254000
10
20.257200
20
1.156400
30
0.0
40
0.382843
100
AcDbArc
50
0.000000
51
90.000000
0
LWPOLYLINE
5
150
100
AcDbEntity
8
COPPER_TOP
62
3
100
AcDbPolyline
90
7
70
0
43
0.254000
39
0.254000
10
20.640043
20
1.156400
10
20.640043
20
1.046482
10
21.477268
20
1.046482
10
21.965918
20
1.535132
10
21.965918
20
21.578868
10
21.731268
20
21.813518
10
19.686619
20
21.813518
0
LWPOLYLINE
5
151
100
AcDbEntity
8
COPPER_TOP
62
3
100
AcDbPolyline
90
3
70
0
43
0.254000
39
0.254000
10
2.521893
20
25.094774
10
3.250774
20
25.094774
10
3.250774
20
24.365893
0
ARC
5
152
100
AcDbEntity
8
COPPER_TOP
62
3
100
AcDbCircle
39
0.254000
10
3.393059
20
25.237059
30
0.0
40
0.882709
100
AcDbArc
50
189.276050
51
260.723950
0
LWPOLYLINE
5
153
100
AcDbEntity
8
COPPER_TOP
62
3
100
AcDbPolyline
90
3
70
0
43
0.254000
39
0.254000
10
4.064426
20
24.365893
10
4.064426
20
25.094774
10
4.793307
20
25.094774
0
ARC
5
154
100
AcDbEntity
8
COPPER_TOP
62
3
100
AcDbCircle
39
0.254000
10
3.922141
20
25.237059
30
0.0
40
0.882709
100
AcDbArc
50
279.276050
51
350.723950
0
LWPOLYLINE
5
155
100
AcDbEntity
8
COPPER_TOP
62
3
100
AcDbPolyline
90
3
70
0
43
0.254000
39
0.254000
10
4.793307
20
25.908426
10
4.064426
20
25.908426
10
4.064426
20
26.637307
0
ARC
5
156
100
AcDbEntity
8
COPPER_TOP
62
3
100
AcDbCircle
39
0.254000
10
3.922141
20
25.766141
30
0.0
40
0.882709
100
AcDbArc
50
9.276050
51
80.723950
0
LWPOLYLINE
5
157
100
AcDbEntity
8
COPPER_TOP
62
3
100
AcDbPolyline
90
3
70
0
43
0.254000
39
0.254000
10
3.250774
20
26.637307
10
3.250774
20
25.908426
10
2.521893
20
25.908426
0
ARC
5
158
100
AcDbEntity
8
COPPER_TOP
62
3
100
AcDbCircle
39
0.254000
10
3.393059
20
25.766141
30
0.0
40
0.882709
100
AcDbArc
50
99.276050
51
170.723950
0
CIRCLE
5
159
100
AcDbEntity
8
COPPER_TOP
62
3
100
AcDbCircle
39
0.254000
10
3.657600
20
25.501600
30
0
40
0.497459
0
LWPOLYLINE
5
15A
100
AcDbEntity
8
COPPER_TOP
62
3
100
AcDbPolyline
90
3
70
0
43
0.254000
39
0.254000
10
6.837682
20
24.503847
10
6.837682
20
23.093682
10
13.028581
20
23.093682
0
ARC
5
15B
100
AcDbEntity
8
COPPER_TOP
62
3
100
AcDbCircle
39
0.254000
10
13.817600
20
22.453600
30
0.0
40
1.016000
100
AcDbArc
50
219.050268
51
140.949732
0
LWPOLYLINE
5
15C
100
AcDbEntity
8
COPPER_TOP
62
3
100
AcDbPolyline
90
4
70
0
43
0.254000
39
0.254000
10
13.028581
20
21.813518
10
6.837682
20
21.813518
10
6.837682
20
20.991530
10
8.681533
20
19.147679
0
ARC
5
15D
100
AcDbEntity
8
COPPER_TOP
62
3
100
AcDbCircle
39
0.254000
10
8.229600
20
18.694400
30
0.0
40
0.640082
100
AcDbArc
50
0.000000
51
45.085165
0
LWPOLYLINE
5
15E
100
AcDbEntity
8
COPPER_TOP
62
3
100
AcDbPolyline
90
2
70
0
43
0.254000
39
0.254000
10
8.869682
20
18.694400
10
8.869682
20
13.799353
0
ARC
5
15F
100
AcDbEntity
8
COPPER_TOP
62
3
100
AcDbCircle
39
0.254000
10
8.229600
20
12.801600
30
0.0
40
1.185418
100
AcDbArc
50
122.681128
51
57.318872
0
LWPOLYLINE
5
160
100
AcDbEntity
8
COPPER_TOP
62
3
100
AcDbPolyline
90
3
70
0
43
0.254000
39
0.254000
10
7.589518
20
13.799353
10
7.589518
20
18.429268
10
5.744993
20
20.273794
0
ARC
5
161
100
AcDbEntity
8
COPPER_TOP
62
3
100
AcDbCircle
39
0.254000
10
6.197599
20
20.726400
30
0.0
40
0.640082
100
AcDbArc
50
179.897985
51
225.000000
0
LWPOLYLINE
5
162
100
AcDbEntity
8
COPPER_TOP
62
3
100
AcDbPolyline
90
2
70
0
43
0.254000
39
0.254000
10
5.557518
20
20.727540
10
5.557518
20
22.604545
0
ARC
5
163
100
AcDbEntity
8
COPPER_TOP
62
3
100
AcDbCircle
39
0.254000
10
6.197598
20
22.606001
30
0.0
40
0.640082
100
AcDbArc
50
179.869701
51
180.130299
0
LWPOLYLINE
5
164
100
AcDbEntity
8
COPPER_TOP
62
3
100
AcDbPolyline
90
2
70
0
43
0.254000
39
0.254000
10
5.557518
20
22.607456
10
5.557518
20
24.503847
0
ARC
5
165
100
AcDbEntity
8
COPPER_TOP
62
3
100
AcDbCircle
39
0.254000
10
6.197600
20
25.501600
30
0.0
40
1.185418
100
AcDbArc
50
302.681128
51
237.318872
0
CIRCLE
5
166
100
AcDbEntity
8
COPPER_TOP
62
3
100
AcDbCircle
39
0.254000
10
-0.762000
20
25.908000
30
0
40
1.881000
0
CIRCLE
5
167
100
AcDbEntity
8
COPPER_TOP
62
3
100
AcDbCircle
39
0.254000
10
25.908000
20
25.908000
30
0
40
1.881000
0
LWPOLYLINE
5
168
100
AcDbEntity
8
COPPER_TOP
62
3
100
AcDbPolyline
90
5
70
0
43
0.254000
39
0.254000
10
28.319157
20
28.319157
10
-2.919157
20
28.319157
10
-2.919157
20
-0.887157
10
28.319157
20
-0.887157
10
28.319157
20
28.319157
0
HATCH
5
169
100
AcDbEntity
8
COPPER_TOP
100
AcDbHatch
10
0.0
20
0.0
30
0.0
210
0.0
220
0.0
230
1.0
2
SOLID
70
1
71
0
91
2
92
1
93
1
72
2
10
25.908000
20
25.908000
40
1.500000
50
0.000000
51
360.000000
73
1
97
0
92
1
93
1
72
2
10
25.908000
20
25.908000
40
1.250000
50
0.000000
51
360.000000
73
1
97
0
75
0
76
0
98
1
10
0.0
20
0.0
0
HATCH
5
16A
100
AcDbEntity
8
COPPER_TOP
100
AcDbHatch
10
0.0
20
0.0
30
0.0
210
0.0
220
0.0
230
1.0
2
SOLID
70
1
71
0
91
2
92
1
93
1
72
2
10
25.908000
20
1.524000
40
1.500000
50
0.000000
51
360.000000
73
1
97
0
92
1
93
1
72
2
10
25.908000
20
1.524000
40
1.250000
50
0.000000
51
360.000000
73
1
97
0
75
0
76
0
98
1
10
0.0
20
0.0
0
HATCH
5
16B
100
AcDbEntity
8
COPPER_TOP
100
AcDbHatch
10
0.0
20
0.0
30
0.0
210
0.0
220
0.0
230
1.0
2
SOLID
70
1
71
0
91
2
92
1
93
1
72
2
10
-0.762000
20
1.270000
40
1.500000
50
0.000000
51
360.000000
73
1
97
0
92
1
93
1
72
2
10
-0.762000
20
1.270000
40
1.250000
50
0.000000
51
360.000000
73
1
97
0
75
0
76
0
98
1
10
0.0
20
0.0
0
HATCH
5
16C
100
AcDbEntity
8
COPPER_TOP
100
AcDbHatch
10
0.0
20
0.0
30
0.0
210
0.0
220
0.0
230
1.0
2
SOLID
70
1
71
0
91
2
92
1
93
1
72
2
10
-0.762000
20
25.908000
40
1.500000
50
0.000000
51
360.000000
73
1
97
0
92
1
93
1
72
2
10
-0.762000
20
25.908000
40
1.250000
50
0.000000
51
360.000000
73
1
97
0
75
0
76
0
98
1
10
0.0
20
0.0
0
HATCH
5
16D
100
AcDbEntity
8
DRILL
62
255
100
AcDbHatch
10
0.0
20
0.0
30
0.0
210
0.0
220
0.0
230
1.0
2
SOLID
70
1
71
0
91
1
92
1
93
1
72
2
10
13.817600
20
22.453600
40
0.444500
50
0.000000
51
360.000000
73
1
97
0
75
0
76
0
98
1
10
0.0
20
0.0
0
CIRCLE
5
16E
100
AcDbEntity
8
DRILL
62
255
100
AcDbCircle
39
0.000001
10
13.817600
20
22.453600
30
0
40
0.444500
0
HATCH
5
16F
100
AcDbEntity
8
DRILL
62
255
100
AcDbHatch
10
0.0
20
0.0
30
0.0
210
0.0
220
0.0
230
1.0
2
SOLID
70
1
71
0
91
1
92
1
93
1
72
2
10
18.897600
20
22.453600
40
0.444500
50
0.000000
51
360.000000
73
1
97
0
75
0
76
0
98
1
10
0.0
20
0.0
0
CIRCLE
5
170
100
AcDbEntity
8
DRILL
62
255
100
AcDbCircle
39
0.000001
10
18.897600
20
22.453600
30
0
40
0.444500
0
HATCH
5
171
100
AcDbEntity
8
DRILL
62
255
100
AcDbHatch
10
0.0
20
0.0
30
0.0
210
0.0
220
0.0
230
1.0
2
SOLID
70
1
71
0
91
1
92
1
93
1
72
2
10
14.325600
20
15.341600
40
0.550291
50
0.000000
51
360.000000
73
1
97
0
75
0
76
0
98
1
10
0.0
20
0.0
0
CIRCLE
5
172
100
AcDbEntity
8
DRILL
62
255
100
AcDbCircle
39
0.000001
10
14.325600
20
15.341600
30
0
40
0.550291
0
HATCH
5
173
100
AcDbEntity
8
DRILL
62
255
100
AcDbHatch
10
0.0
20
0.0
30
0.0
210
0.0
220
0.0
230
1.0
2
SOLID
70
1
71
0
91
1
92
1
93
1
72
2
10
14.325600
20
2.641600
40
0.550291
50
0.000000
51
360.000000
73
1
97
0
75
0
76
0
98
1
10
0.0
20
0.0
0
CIRCLE
5
174
100
AcDbEntity
8
DRILL
62
255
100
AcDbCircle
39
0.000001
10
14.325600
20
2.641600
30
0
40
0.550291
0
HATCH
5
175
100
AcDbEntity
8
DRILL
62
255
100
AcDbHatch
10
0.0
20
0.0
30
0.0
210
0.0
220
0.0
230
1.0
2
SOLID
70
1
71
0
91
1
92
1
93
1
72
2
10
2.641600
20
5.181600
40
0.423291
50
0.000000
51
360.000000
73
1
97
0
75
0
76
0
98
1
10
0.0
20
0.0
0
CIRCLE
5
176
100
AcDbEntity
8
DRILL
62
255
100
AcDbCircle
39
0.000001
10
2.641600
20
5.181600
30
0
40
0.423291
0
HATCH
5
177
100
AcDbEntity
8
DRILL
62
255
100
AcDbHatch
10
0.0
20
0.0
30
0.0
210
0.0
220
0.0
230
1.0
2
SOLID
70
1
71
0
91
1
92
1
93
1
72
2
10
2.641600
20
12.801600
40
0.444500
50
0.000000
51
360.000000
73
1
97
0
75
0
76
0
98
1
10
0.0
20
0.0
0
CIRCLE
5
178
100
AcDbEntity
8
DRILL
62
255
100
AcDbCircle
39
0.000001
10
2.641600
20
12.801600
30
0
40
0.444500
0
HATCH
5
179
100
AcDbEntity
8
DRILL
62
255
100
AcDbHatch
10
0.0
20
0.0
30
0.0
210
0.0
220
0.0
230
1.0
2
SOLID
70
1
71
0
91
1
92
1
93
1
72
2
10
3.657600
20
25.501600
40
0.497459
50
0.000000
51
360.000000
73
1
97
0
75
0
76
0
98
1
10
0.0
20
0.0
0
CIRCLE
5
17A
100
AcDbEntity
8
DRILL
62
255
100
AcDbCircle
39
0.000001
10
3.657600
20
25.501600
30
0
40
0.497459
0
HATCH
5
17B
100
AcDbEntity
8
DRILL
62
255
100
AcDbHatch
10
0.0
20
0.0
30
0.0
210
0.0
220
0.0
230
1.0
2
SOLID
70
1
71
0
91
1
92
1
93
1
72
2
10
6.197600
20
25.501600
40
0.444500
50
0.000000
51
360.000000
73
1
97
0
75
0
76
0
98
1
10
0.0
20
0.0
0
CIRCLE
5
17C
100
AcDbEntity
8
DRILL
62
255
100
AcDbCircle
39
0.000001
10
6.197600
20
25.501600
30
0
40
0.444500
0
HATCH
5
17D
100
AcDbEntity
8
DRILL
62
255
100
AcDbHatch
10
0.0
20
0.0
30
0.0
210
0.0
220
0.0
230
1.0
2
SOLID
70
1
71
0
91
1
92
1
93
1
72
2
10
8.229600
20
12.801600
40
0.444500
50
0.000000
51
360.000000
73
1
97
0
75
0
76
0
98
1
10
0.0
20
0.0
0
CIRCLE
5
17E
100
AcDbEntity
8
DRILL
62
255
100
AcDbCircle
39
0.000001
10
8.229600
20
12.801600
30
0
40
0.444500
0
HATCH
5
17F
100
AcDbEntity
8
DRILL
62
255
100
AcDbHatch
10
0.0
20
0.0
30
0.0
210
0.0
220
0.0
230
1.0
2
SOLID
70
1
71
0
91
1
92
1
93
1
72
2
10
8.229600
20
5.181600
40
0.423291
50
0.000000
51
360.000000
73
1
97
0
75
0
76
0
98
1
10
0.0
20
0.0
0
CIRCLE
5
180
100
AcDbEntity
8
DRILL
62
255
100
AcDbCircle
39
0.000001
10
8.229600
20
5.181600
30
0
40
0.423291
0
HATCH
5
181
100
AcDbEntity
8
DRILL
62
255
100
AcDbHatch
10
0.0
20
0.0
30
0.0
210
0.0
220
0.0
230
1.0
2
SOLID
70
1
71
0
91
1
92
1
93
1
72
2
10
19.507200
20
13.406400
40
0.450000
50
0.000000
51
360.000000
73
1
97
0
75
0
76
0
98
1
10
0.0
20
0.0
0
CIRCLE
5
182
100
AcDbEntity
8
DRILL
62
255
100
AcDbCircle
39
0.000001
10
19.507200
20
13.406400
30
0
40
0.450000
0
HATCH
5
183
100
AcDbEntity
8
DRILL
62
255
100
AcDbHatch
10
0.0
20
0.0
30
0.0
210
0.0
220
0.0
230
1.0
2
SOLID
70
1
71
0
91
1
92
1
93
1
72
2
10
19.507200
20
0.406400
40
0.450000
50
0.000000
51
360.000000
73
1
97
0
75
0
76
0
98
1
10
0.0
20
0.0
0
CIRCLE
5
184
100
AcDbEntity
8
DRILL
62
255
100
AcDbCircle
39
0.000001
10
19.507200
20
0.406400
30
0
40
0.450000
0
HATCH
5
185
100
AcDbEntity
8
DRILL
62
255
100
AcDbHatch
10
0.0
20
0.0
30
0.0
210
0.0
220
0.0
230
1.0
2
SOLID
70
1
71
0
91
1
92
1
93
1
72
2
10
25.908000
20
25.908000
40
1.250000
50
0.000000
51
360.000000
73
1
97
0
75
0
76
0
98
1
10
0.0
20
0.0
0
CIRCLE
5
186
100
AcDbEntity
8
DRILL
62
255
100
AcDbCircle
39
0.000001
10
25.908000
20
25.908000
30
0
40
1.250000
0
HATCH
5
187
100
AcDbEntity
8
DRILL
62
255
100
AcDbHatch
10
0.0
20
0.0
30
0.0
210
0.0
220
0.0
230
1.0
2
SOLID
70
1
71
0
91
1
92
1
93
1
72
2
10
25.908000
20
1.524000
40
1.250000
50
0.000000
51
360.000000
73
1
97
0
75
0
76
0
98
1
10
0.0
20
0.0
0
CIRCLE
5
188
100
AcDbEntity
8
DRILL
62
255
100
AcDbCircle
39
0.000001
10
25.908000
20
1.524000
30
0
40
1.250000
0
HATCH
5
189
100
AcDbEntity
8
DRILL
62
255
100
AcDbHatch
10
0.0
20
0.0
30
0.0
210
0.0
220
0.0
230
1.0
2
SOLID
70
1
71
0
91
1
92
1
93
1
72
2
10
-0.762000
20
1.270000
40
1.250000
50
0.000000
51
360.000000
73
1
97
0
75
0
76
0
98
1
10
0.0
20
0.0
0
CIRCLE
5
18A
100
AcDbEntity
8
DRILL
62
255
100
AcDbCircle
39
0.000001
10
-0.762000
20
1.270000
30
0
40
1.250000
0
HATCH
5
18B
100
AcDbEntity
8
DRILL
62
255
100
AcDbHatch
10
0.0
20
0.0
30
0.0
210
0.0
220
0.0
230
1.0
2
SOLID
70
1
71
0
91
1
92
1
93
1
72
2
10
-0.762000
20
25.908000
40
1.250000
50
0.000000
51
360.000000
73
1
97
0
75
0
76
0
98
1
10
0.0
20
0.0
0
CIRCLE
5
18C
100
AcDbEntity
8
DRILL
62
255
100
AcDbCircle
39
0.000001
10
-0.762000
20
25.908000
30
0
40
1.250000
0
ENDSEC
0
SECTION
2
OBJECTS
0
DICTIONARY
5
18D
100
AcDbDictionary
3
ACAD_GROUP
350
18E
3
ACAD_LAYOUT
350
18F
3
ACAD_MLINESTYLE
350
190
0
DICTIONARY
5
18E
100
AcDbDictionary
0
DICTIONARY
5
18F
100
AcDbDictionary
0
DICTIONARY
5
190
100
AcDbDictionary
3
STANDARD
350
191
0
MLINESTYLE
5
191
100
AcDbMlineStyle
2
Standard
70
0
3

62
256
51
90.0
52
90.0
71
2
49
0.5
62
256
6
BYLAYER
49
-0.5
62
256
6
BYLAYER
0
ENDSEC
0
EOF
