999
DXF created by UltiBoard 14.3.0.0
0
SECTION
2
HEADER
9
$ACADVER
1
AC1014
9
$EXTMIN
10
-6.759200
20
-4.755200
30
0.0
9
$EXTMAX
10
30.155200
20
32.159200
30
0.0
9
$LUNITS
70
2
9
$HANDSEED
5
274
0
ENDSEC
0
SECTION
2
TABLES
0
TABLE
2
VPORT
5
1
100
AcDbSymbolTable
70
1
0
VPORT
5
2
100
AcDbSymbolTableRecord
100
AcDbViewportTableRecord
2
*ACTIVE
70
0
0
ENDTAB
0
TABLE
2
LTYPE
5
3
100
AcDbSymbolTable
70
1
0
LTYPE
5
4
100
AcDbSymbolTableRecord
100
AcDbLinetypeTableRecord
2
BYBLOCK
70
0
3

72
65
73
0
40
0.0
0
LTYPE
5
5
100
AcDbSymbolTableRecord
100
AcDbLinetypeTableRecord
2
BYLAYER
70
0
3

72
65
73
0
40
0.0
0
LTYPE
5
6
100
AcDbSymbolTableRecord
100
AcDbLinetypeTableRecord
2
CONTINUOUS
70
0
3
Solid line
72
65
73
0
40
0.0
0
ENDTAB
0
TABLE
2
LAYER
5
7
100
AcDbSymbolTable
70
12
0
LAYER
5
8
100
AcDbSymbolTableRecord
100
AcDbLayerTableRecord
2
0
70
0
62
7
6
CONTINUOUS
0
LAYER
5
9
100
AcDbSymbolTableRecord
100
AcDbLayerTableRecord
2
BOARD_OUTLINE
70
0
62
2
6
CONTINUOUS
0
LAYER
5
A
100
AcDbSymbolTableRecord
100
AcDbLayerTableRecord
2
KEEP_IN_KEEP_OUT
70
0
62
253
6
CONTINUOUS
0
LAYER
5
B
100
AcDbSymbolTableRecord
100
AcDbLayerTableRecord
2
SILKSCREEN_TOP
70
0
62
4
6
CONTINUOUS
0
LAYER
5
C
100
AcDbSymbolTableRecord
100
AcDbLayerTableRecord
2
COPPER_TOP
70
0
62
3
6
CONTINUOUS
0
LAYER
5
D
100
AcDbSymbolTableRecord
100
AcDbLayerTableRecord
2
MECHANICAL_1
70
0
62
253
6
CONTINUOUS
0
LAYER
5
E
100
AcDbSymbolTableRecord
100
AcDbLayerTableRecord
2
MECHANICAL_2
70
0
62
253
6
CONTINUOUS
0
LAYER
5
F
100
AcDbSymbolTableRecord
100
AcDbLayerTableRecord
2
DRILL
70
0
62
255
6
CONTINUOUS
0
LAYER
5
10
100
AcDbSymbolTableRecord
100
AcDbLayerTableRecord
2
SOLDER_MASK_TOP
70
0
62
200
6
CONTINUOUS
0
LAYER
5
11
100
AcDbSymbolTableRecord
100
AcDbLayerTableRecord
2
3D_INFO_TOP
70
0
62
1
6
CONTINUOUS
0
LAYER
5
12
100
AcDbSymbolTableRecord
100
AcDbLayerTableRecord
2
PASTE_MASK_TOP
70
0
62
44
6
CONTINUOUS
0
LAYER
5
13
100
AcDbSymbolTableRecord
100
AcDbLayerTableRecord
2
GLUE_MASK_TOP
70
0
62
200
6
CONTINUOUS
0
ENDTAB
0
TABLE
2
STYLE
5
14
100
AcDbSymbolTable
70
2
0
STYLE
5
15
100
AcDbSymbolTableRecord
100
AcDbTextStyleTableRecord
2
MONOTxtStyle
70
0
40
0.0
41
1.0
50
0.0
71
0
42
0.2
3
monotxt
4

0
ENDTAB
0
TABLE
2
VIEW
5
16
100
AcDbSymbolTable
70
0
0
ENDTAB
0
TABLE
2
UCS
5
17
100
AcDbSymbolTable
70
0
0
ENDTAB
0
TABLE
2
APPID
5
18
100
AcDbSymbolTable
70
1
0
APPID
5
19
100
AcDbSymbolTableRecord
100
AcDbRegAppTableRecord
2
ACAD
70
0
0
ENDTAB
0
TABLE
2
DIMSTYLE
5
1A
100
AcDbSymbolTable
70
1
0
DIMSTYLE
105
1B
100
AcDbSymbolTableRecord
100
AcDbDimStyleTableRecord
2
STANDARD
70
0
0
ENDTAB
0
TABLE
2
BLOCK_RECORD
5
1C
100
AcDbSymbolTable
70
0
0
BLOCK_RECORD
5
1D
100
AcDbSymbolTableRecord
100
AcDbBlockTableRecord
2
*MODEL_SPACE
0
BLOCK_RECORD
5
1E
100
AcDbSymbolTableRecord
100
AcDbBlockTableRecord
2
*PAPER_SPACE
0
ENDTAB
0
ENDSEC
0
SECTION
2
BLOCKS
0
BLOCK
5
1F
100
AcDbEntity
8
0
100
AcDbBlockBegin
2
*MODEL_SPACE
70
0
0
ENDBLK
5
20
100
AcDbEntity
8
0
100
AcDbBlockEnd
0
BLOCK
5
21
100
AcDbEntity
8
0
100
AcDbBlockBegin
2
*PAPER_SPACE
70
0
0
ENDBLK
5
22
100
AcDbEntity
8
0
100
AcDbBlockEnd
0
ENDSEC
0
SECTION
2
ENTITIES
0
LWPOLYLINE
5
23
100
AcDbEntity
8
BOARD_OUTLINE
62
2
100
AcDbPolyline
90
2
70
0
43
0.000001
39
0.000001
10
-3.302000
20
-1.298000
10
26.698000
20
-1.298000
0
LWPOLYLINE
5
24
100
AcDbEntity
8
BOARD_OUTLINE
62
2
100
AcDbPolyline
90
2
70
0
43
0.000001
39
0.000001
10
26.698000
20
-1.298000
10
26.698000
20
28.702000
0
LWPOLYLINE
5
25
100
AcDbEntity
8
BOARD_OUTLINE
62
2
100
AcDbPolyline
90
2
70
0
43
0.000001
39
0.000001
10
26.698000
20
28.702000
10
-3.302000
20
28.702000
0
LWPOLYLINE
5
26
100
AcDbEntity
8
BOARD_OUTLINE
62
2
100
AcDbPolyline
90
2
70
0
43
0.000001
39
0.000001
10
-3.302000
20
28.702000
10
-3.302000
20
-1.298000
0
LWPOLYLINE
5
27
100
AcDbEntity
8
SILKSCREEN_TOP
62
4
100
AcDbPolyline
90
2
70
0
43
0.203200
39
0.203200
10
12.039601
20
22.453600
10
12.056032
20
22.077261
0
LWPOLYLINE
5
28
100
AcDbEntity
8
SILKSCREEN_TOP
62
4
100
AcDbPolyline
90
2
70
0
43
0.203200
39
0.203200
10
12.056032
20
22.077261
10
12.105201
20
21.703787
0
LWPOLYLINE
5
29
100
AcDbEntity
8
SILKSCREEN_TOP
62
4
100
AcDbPolyline
90
2
70
0
43
0.203200
39
0.203200
10
12.105201
20
21.703787
10
12.186733
20
21.336019
0
LWPOLYLINE
5
2A
100
AcDbEntity
8
SILKSCREEN_TOP
62
4
100
AcDbPolyline
90
2
70
0
43
0.203200
39
0.203200
10
12.186733
20
21.336019
10
12.300008
20
20.976757
0
LWPOLYLINE
5
2B
100
AcDbEntity
8
SILKSCREEN_TOP
62
4
100
AcDbPolyline
90
2
70
0
43
0.203200
39
0.203200
10
12.300008
20
20.976757
10
12.444163
20
20.628734
0
LWPOLYLINE
5
2C
100
AcDbEntity
8
SILKSCREEN_TOP
62
4
100
AcDbPolyline
90
2
70
0
43
0.203200
39
0.203200
10
12.444163
20
20.628734
10
12.618103
20
20.294600
0
LWPOLYLINE
5
2D
100
AcDbEntity
8
SILKSCREEN_TOP
62
4
100
AcDbPolyline
90
2
70
0
43
0.203200
39
0.203200
10
12.618103
20
20.294600
10
12.820502
20
19.976897
0
LWPOLYLINE
5
2E
100
AcDbEntity
8
SILKSCREEN_TOP
62
4
100
AcDbPolyline
90
2
70
0
43
0.203200
39
0.203200
10
12.820502
20
19.976897
10
13.049820
20
19.678043
0
LWPOLYLINE
5
2F
100
AcDbEntity
8
SILKSCREEN_TOP
62
4
100
AcDbPolyline
90
2
70
0
43
0.203200
39
0.203200
10
13.049820
20
19.678043
10
13.304313
20
19.400313
0
LWPOLYLINE
5
30
100
AcDbEntity
8
SILKSCREEN_TOP
62
4
100
AcDbPolyline
90
2
70
0
43
0.203200
39
0.203200
10
13.304313
20
19.400313
10
13.582043
20
19.145820
0
LWPOLYLINE
5
31
100
AcDbEntity
8
SILKSCREEN_TOP
62
4
100
AcDbPolyline
90
2
70
0
43
0.203200
39
0.203200
10
13.582043
20
19.145820
10
13.880897
20
18.916502
0
LWPOLYLINE
5
32
100
AcDbEntity
8
SILKSCREEN_TOP
62
4
100
AcDbPolyline
90
2
70
0
43
0.203200
39
0.203200
10
13.880897
20
18.916502
10
14.198600
20
18.714103
0
LWPOLYLINE
5
33
100
AcDbEntity
8
SILKSCREEN_TOP
62
4
100
AcDbPolyline
90
2
70
0
43
0.203200
39
0.203200
10
14.198600
20
18.714103
10
14.532734
20
18.540163
0
LWPOLYLINE
5
34
100
AcDbEntity
8
SILKSCREEN_TOP
62
4
100
AcDbPolyline
90
2
70
0
43
0.203200
39
0.203200
10
14.532734
20
18.540163
10
14.880757
20
18.396008
0
LWPOLYLINE
5
35
100
AcDbEntity
8
SILKSCREEN_TOP
62
4
100
AcDbPolyline
90
2
70
0
43
0.203200
39
0.203200
10
14.880757
20
18.396008
10
15.240019
20
18.282733
0
LWPOLYLINE
5
36
100
AcDbEntity
8
SILKSCREEN_TOP
62
4
100
AcDbPolyline
90
2
70
0
43
0.203200
39
0.203200
10
15.240019
20
18.282733
10
15.607787
20
18.201201
0
LWPOLYLINE
5
37
100
AcDbEntity
8
SILKSCREEN_TOP
62
4
100
AcDbPolyline
90
2
70
0
43
0.203200
39
0.203200
10
15.607787
20
18.201201
10
15.981261
20
18.152032
0
LWPOLYLINE
5
38
100
AcDbEntity
8
SILKSCREEN_TOP
62
4
100
AcDbPolyline
90
2
70
0
43
0.203200
39
0.203200
10
15.981261
20
18.152032
10
16.357599
20
18.135601
0
LWPOLYLINE
5
39
100
AcDbEntity
8
SILKSCREEN_TOP
62
4
100
AcDbPolyline
90
2
70
0
43
0.203200
39
0.203200
10
16.357599
20
18.135601
10
16.733938
20
18.152032
0
LWPOLYLINE
5
3A
100
AcDbEntity
8
SILKSCREEN_TOP
62
4
100
AcDbPolyline
90
2
70
0
43
0.203200
39
0.203200
10
16.733938
20
18.152032
10
17.107412
20
18.201201
0
LWPOLYLINE
5
3B
100
AcDbEntity
8
SILKSCREEN_TOP
62
4
100
AcDbPolyline
90
2
70
0
43
0.203200
39
0.203200
10
17.107412
20
18.201201
10
17.475180
20
18.282733
0
LWPOLYLINE
5
3C
100
AcDbEntity
8
SILKSCREEN_TOP
62
4
100
AcDbPolyline
90
2
70
0
43
0.203200
39
0.203200
10
17.475180
20
18.282733
10
17.834442
20
18.396008
0
LWPOLYLINE
5
3D
100
AcDbEntity
8
SILKSCREEN_TOP
62
4
100
AcDbPolyline
90
2
70
0
43
0.203200
39
0.203200
10
17.834442
20
18.396008
10
18.182465
20
18.540163
0
LWPOLYLINE
5
3E
100
AcDbEntity
8
SILKSCREEN_TOP
62
4
100
AcDbPolyline
90
2
70
0
43
0.203200
39
0.203200
10
18.182465
20
18.540163
10
18.516599
20
18.714103
0
LWPOLYLINE
5
3F
100
AcDbEntity
8
SILKSCREEN_TOP
62
4
100
AcDbPolyline
90
2
70
0
43
0.203200
39
0.203200
10
18.516599
20
18.714103
10
18.834302
20
18.916502
0
LWPOLYLINE
5
40
100
AcDbEntity
8
SILKSCREEN_TOP
62
4
100
AcDbPolyline
90
2
70
0
43
0.203200
39
0.203200
10
18.834302
20
18.916502
10
19.133156
20
19.145820
0
LWPOLYLINE
5
41
100
AcDbEntity
8
SILKSCREEN_TOP
62
4
100
AcDbPolyline
90
2
70
0
43
0.203200
39
0.203200
10
19.133156
20
19.145820
10
19.410886
20
19.400313
0
LWPOLYLINE
5
42
100
AcDbEntity
8
SILKSCREEN_TOP
62
4
100
AcDbPolyline
90
2
70
0
43
0.203200
39
0.203200
10
19.410886
20
19.400313
10
19.665379
20
19.678043
0
LWPOLYLINE
5
43
100
AcDbEntity
8
SILKSCREEN_TOP
62
4
100
AcDbPolyline
90
2
70
0
43
0.203200
39
0.203200
10
19.665379
20
19.678043
10
19.894697
20
19.976897
0
LWPOLYLINE
5
44
100
AcDbEntity
8
SILKSCREEN_TOP
62
4
100
AcDbPolyline
90
2
70
0
43
0.203200
39
0.203200
10
19.894697
20
19.976897
10
20.097096
20
20.294600
0
LWPOLYLINE
5
45
100
AcDbEntity
8
SILKSCREEN_TOP
62
4
100
AcDbPolyline
90
2
70
0
43
0.203200
39
0.203200
10
20.097096
20
20.294600
10
20.271036
20
20.628734
0
LWPOLYLINE
5
46
100
AcDbEntity
8
SILKSCREEN_TOP
62
4
100
AcDbPolyline
90
2
70
0
43
0.203200
39
0.203200
10
20.271036
20
20.628734
10
20.415191
20
20.976757
0
LWPOLYLINE
5
47
100
AcDbEntity
8
SILKSCREEN_TOP
62
4
100
AcDbPolyline
90
2
70
0
43
0.203200
39
0.203200
10
20.415191
20
20.976757
10
20.528466
20
21.336019
0
LWPOLYLINE
5
48
100
AcDbEntity
8
SILKSCREEN_TOP
62
4
100
AcDbPolyline
90
2
70
0
43
0.203200
39
0.203200
10
20.528466
20
21.336019
10
20.609998
20
21.703787
0
LWPOLYLINE
5
49
100
AcDbEntity
8
SILKSCREEN_TOP
62
4
100
AcDbPolyline
90
2
70
0
43
0.203200
39
0.203200
10
20.609998
20
21.703787
10
20.659167
20
22.077261
0
LWPOLYLINE
5
4A
100
AcDbEntity
8
SILKSCREEN_TOP
62
4
100
AcDbPolyline
90
2
70
0
43
0.203200
39
0.203200
10
20.659167
20
22.077261
10
20.675599
20
22.453599
0
LWPOLYLINE
5
4B
100
AcDbEntity
8
SILKSCREEN_TOP
62
4
100
AcDbPolyline
90
2
70
0
43
0.203200
39
0.203200
10
20.675599
20
22.453599
10
20.659167
20
22.829938
0
LWPOLYLINE
5
4C
100
AcDbEntity
8
SILKSCREEN_TOP
62
4
100
AcDbPolyline
90
2
70
0
43
0.203200
39
0.203200
10
20.659167
20
22.829938
10
20.609998
20
23.203412
0
LWPOLYLINE
5
4D
100
AcDbEntity
8
SILKSCREEN_TOP
62
4
100
AcDbPolyline
90
2
70
0
43
0.203200
39
0.203200
10
20.609998
20
23.203412
10
20.528466
20
23.571180
0
LWPOLYLINE
5
4E
100
AcDbEntity
8
SILKSCREEN_TOP
62
4
100
AcDbPolyline
90
2
70
0
43
0.203200
39
0.203200
10
20.528466
20
23.571180
10
20.415191
20
23.930442
0
LWPOLYLINE
5
4F
100
AcDbEntity
8
SILKSCREEN_TOP
62
4
100
AcDbPolyline
90
2
70
0
43
0.203200
39
0.203200
10
20.415191
20
23.930442
10
20.271036
20
24.278465
0
LWPOLYLINE
5
50
100
AcDbEntity
8
SILKSCREEN_TOP
62
4
100
AcDbPolyline
90
2
70
0
43
0.203200
39
0.203200
10
20.271036
20
24.278465
10
20.097096
20
24.612599
0
LWPOLYLINE
5
51
100
AcDbEntity
8
SILKSCREEN_TOP
62
4
100
AcDbPolyline
90
2
70
0
43
0.203200
39
0.203200
10
20.097096
20
24.612599
10
19.894697
20
24.930302
0
LWPOLYLINE
5
52
100
AcDbEntity
8
SILKSCREEN_TOP
62
4
100
AcDbPolyline
90
2
70
0
43
0.203200
39
0.203200
10
19.894697
20
24.930302
10
19.665379
20
25.229156
0
LWPOLYLINE
5
53
100
AcDbEntity
8
SILKSCREEN_TOP
62
4
100
AcDbPolyline
90
2
70
0
43
0.203200
39
0.203200
10
19.665379
20
25.229156
10
19.410886
20
25.506886
0
LWPOLYLINE
5
54
100
AcDbEntity
8
SILKSCREEN_TOP
62
4
100
AcDbPolyline
90
2
70
0
43
0.203200
39
0.203200
10
19.410886
20
25.506886
10
19.133156
20
25.761379
0
LWPOLYLINE
5
55
100
AcDbEntity
8
SILKSCREEN_TOP
62
4
100
AcDbPolyline
90
2
70
0
43
0.203200
39
0.203200
10
19.133156
20
25.761379
10
18.834302
20
25.990697
0
LWPOLYLINE
5
56
100
AcDbEntity
8
SILKSCREEN_TOP
62
4
100
AcDbPolyline
90
2
70
0
43
0.203200
39
0.203200
10
18.834302
20
25.990697
10
18.516599
20
26.193096
0
LWPOLYLINE
5
57
100
AcDbEntity
8
SILKSCREEN_TOP
62
4
100
AcDbPolyline
90
2
70
0
43
0.203200
39
0.203200
10
18.516599
20
26.193096
10
18.182465
20
26.367036
0
LWPOLYLINE
5
58
100
AcDbEntity
8
SILKSCREEN_TOP
62
4
100
AcDbPolyline
90
2
70
0
43
0.203200
39
0.203200
10
18.182465
20
26.367036
10
17.834442
20
26.511191
0
LWPOLYLINE
5
59
100
AcDbEntity
8
SILKSCREEN_TOP
62
4
100
AcDbPolyline
90
2
70
0
43
0.203200
39
0.203200
10
17.834442
20
26.511191
10
17.475180
20
26.624466
0
LWPOLYLINE
5
5A
100
AcDbEntity
8
SILKSCREEN_TOP
62
4
100
AcDbPolyline
90
2
70
0
43
0.203200
39
0.203200
10
17.475180
20
26.624466
10
17.107412
20
26.705998
0
LWPOLYLINE
5
5B
100
AcDbEntity
8
SILKSCREEN_TOP
62
4
100
AcDbPolyline
90
2
70
0
43
0.203200
39
0.203200
10
17.107412
20
26.705998
10
16.733938
20
26.755167
0
LWPOLYLINE
5
5C
100
AcDbEntity
8
SILKSCREEN_TOP
62
4
100
AcDbPolyline
90
2
70
0
43
0.203200
39
0.203200
10
16.733938
20
26.755167
10
16.357600
20
26.771599
0
LWPOLYLINE
5
5D
100
AcDbEntity
8
SILKSCREEN_TOP
62
4
100
AcDbPolyline
90
2
70
0
43
0.203200
39
0.203200
10
16.357600
20
26.771599
10
15.981261
20
26.755167
0
LWPOLYLINE
5
5E
100
AcDbEntity
8
SILKSCREEN_TOP
62
4
100
AcDbPolyline
90
2
70
0
43
0.203200
39
0.203200
10
15.981261
20
26.755167
10
15.607787
20
26.705998
0
LWPOLYLINE
5
5F
100
AcDbEntity
8
SILKSCREEN_TOP
62
4
100
AcDbPolyline
90
2
70
0
43
0.203200
39
0.203200
10
15.607787
20
26.705998
10
15.240019
20
26.624466
0
LWPOLYLINE
5
60
100
AcDbEntity
8
SILKSCREEN_TOP
62
4
100
AcDbPolyline
90
2
70
0
43
0.203200
39
0.203200
10
15.240019
20
26.624466
10
14.880757
20
26.511191
0
LWPOLYLINE
5
61
100
AcDbEntity
8
SILKSCREEN_TOP
62
4
100
AcDbPolyline
90
2
70
0
43
0.203200
39
0.203200
10
14.880757
20
26.511191
10
14.532734
20
26.367036
0
LWPOLYLINE
5
62
100
AcDbEntity
8
SILKSCREEN_TOP
62
4
100
AcDbPolyline
90
2
70
0
43
0.203200
39
0.203200
10
14.532734
20
26.367036
10
14.198600
20
26.193096
0
LWPOLYLINE
5
63
100
AcDbEntity
8
SILKSCREEN_TOP
62
4
100
AcDbPolyline
90
2
70
0
43
0.203200
39
0.203200
10
14.198600
20
26.193096
10
13.880897
20
25.990697
0
LWPOLYLINE
5
64
100
AcDbEntity
8
SILKSCREEN_TOP
62
4
100
AcDbPolyline
90
2
70
0
43
0.203200
39
0.203200
10
13.880897
20
25.990697
10
13.582043
20
25.761379
0
LWPOLYLINE
5
65
100
AcDbEntity
8
SILKSCREEN_TOP
62
4
100
AcDbPolyline
90
2
70
0
43
0.203200
39
0.203200
10
13.582043
20
25.761379
10
13.304313
20
25.506886
0
LWPOLYLINE
5
66
100
AcDbEntity
8
SILKSCREEN_TOP
62
4
100
AcDbPolyline
90
2
70
0
43
0.203200
39
0.203200
10
13.304313
20
25.506886
10
13.049820
20
25.229156
0
LWPOLYLINE
5
67
100
AcDbEntity
8
SILKSCREEN_TOP
62
4
100
AcDbPolyline
90
2
70
0
43
0.203200
39
0.203200
10
13.049820
20
25.229156
10
12.820502
20
24.930302
0
LWPOLYLINE
5
68
100
AcDbEntity
8
SILKSCREEN_TOP
62
4
100
AcDbPolyline
90
2
70
0
43
0.203200
39
0.203200
10
12.820502
20
24.930302
10
12.618103
20
24.612599
0
LWPOLYLINE
5
69
100
AcDbEntity
8
SILKSCREEN_TOP
62
4
100
AcDbPolyline
90
2
70
0
43
0.203200
39
0.203200
10
12.618103
20
24.612599
10
12.444163
20
24.278465
0
LWPOLYLINE
5
6A
100
AcDbEntity
8
SILKSCREEN_TOP
62
4
100
AcDbPolyline
90
2
70
0
43
0.203200
39
0.203200
10
12.444163
20
24.278465
10
12.300008
20
23.930442
0
LWPOLYLINE
5
6B
100
AcDbEntity
8
SILKSCREEN_TOP
62
4
100
AcDbPolyline
90
2
70
0
43
0.203200
39
0.203200
10
12.300008
20
23.930442
10
12.186733
20
23.571180
0
LWPOLYLINE
5
6C
100
AcDbEntity
8
SILKSCREEN_TOP
62
4
100
AcDbPolyline
90
2
70
0
43
0.203200
39
0.203200
10
12.186733
20
23.571180
10
12.105201
20
23.203412
0
LWPOLYLINE
5
6D
100
AcDbEntity
8
SILKSCREEN_TOP
62
4
100
AcDbPolyline
90
2
70
0
43
0.203200
39
0.203200
10
12.105201
20
23.203412
10
12.056032
20
22.829938
0
LWPOLYLINE
5
6E
100
AcDbEntity
8
SILKSCREEN_TOP
62
4
100
AcDbPolyline
90
2
70
0
43
0.203200
39
0.203200
10
12.056032
20
22.829938
10
12.039601
20
22.453600
0
LWPOLYLINE
5
6F
100
AcDbEntity
8
SILKSCREEN_TOP
62
4
100
AcDbPolyline
90
2
70
0
43
0.203200
39
0.203200
10
12.039601
20
22.453600
10
12.039601
20
22.453600
0
LWPOLYLINE
5
70
100
AcDbEntity
8
SILKSCREEN_TOP
62
4
100
AcDbPolyline
90
2
70
0
43
0.203200
39
0.203200
10
19.659600
20
22.961600
10
19.659600
20
23.977600
0
LWPOLYLINE
5
71
100
AcDbEntity
8
SILKSCREEN_TOP
62
4
100
AcDbPolyline
90
2
70
0
43
0.203200
39
0.203200
10
19.151600
20
23.469600
10
20.167600
20
23.469600
0
TEXT
5
72
100
AcDbEntity
8
SILKSCREEN_TOP
100
AcDbText
39
0.203200
10
21.458767
20
22.707600
30
0.0
40
0.705555
1
C1
41
1.866667
7
MONOTxtStyle
50
90.000000
72
1
11
21.458767
21
22.707600
31
0.0
100
AcDbText
73
2
0
LWPOLYLINE
5
73
100
AcDbEntity
8
SILKSCREEN_TOP
62
4
100
AcDbPolyline
90
2
70
0
43
0.203200
39
0.203200
10
12.420600
20
14.071600
10
12.420600
20
3.911600
0
LWPOLYLINE
5
74
100
AcDbEntity
8
SILKSCREEN_TOP
62
4
100
AcDbPolyline
90
2
70
0
43
0.203200
39
0.203200
10
16.230600
20
3.911598
10
16.230600
20
14.071600
0
LWPOLYLINE
5
75
100
AcDbEntity
8
SILKSCREEN_TOP
62
4
100
AcDbPolyline
90
2
70
0
43
0.203200
39
0.203200
10
16.230600
20
14.071600
10
12.420600
20
14.071600
0
LWPOLYLINE
5
76
100
AcDbEntity
8
SILKSCREEN_TOP
62
4
100
AcDbPolyline
90
2
70
0
43
0.203200
39
0.203200
10
16.230600
20
3.911598
10
12.420600
20
3.911600
0
TEXT
5
77
100
AcDbEntity
8
SILKSCREEN_TOP
100
AcDbText
39
0.203200
10
11.264815
20
12.786360
30
0.0
40
0.705555
1
L1
41
1.866667
7
MONOTxtStyle
50
270.000000
72
1
11
11.264815
21
12.786360
31
0.0
100
AcDbText
73
2
0
LWPOLYLINE
5
78
100
AcDbEntity
8
SILKSCREEN_TOP
62
4
100
AcDbPolyline
90
2
70
0
43
0.203200
39
0.203200
10
4.546600
20
3.911600
10
0.736600
20
3.911600
0
LWPOLYLINE
5
79
100
AcDbEntity
8
SILKSCREEN_TOP
62
4
100
AcDbPolyline
90
2
70
0
43
0.203200
39
0.203200
10
0.736600
20
14.071600
10
4.546600
20
14.071600
0
LWPOLYLINE
5
7A
100
AcDbEntity
8
SILKSCREEN_TOP
62
4
100
AcDbPolyline
90
2
70
0
43
0.203200
39
0.203200
10
0.736600
20
3.911600
10
0.736600
20
14.071600
0
LWPOLYLINE
5
7B
100
AcDbEntity
8
SILKSCREEN_TOP
62
4
100
AcDbPolyline
90
2
70
0
43
0.203200
39
0.203200
10
2.260600
20
10.896600
10
2.260600
20
7.086600
0
LWPOLYLINE
5
7C
100
AcDbEntity
8
SILKSCREEN_TOP
62
4
100
AcDbPolyline
90
2
70
0
43
0.203200
39
0.203200
10
3.022600
20
7.086600
10
3.022600
20
10.896600
0
LWPOLYLINE
5
7D
100
AcDbEntity
8
SILKSCREEN_TOP
62
4
100
AcDbPolyline
90
2
70
0
43
0.203200
39
0.203200
10
2.260600
20
7.086600
10
3.022600
20
7.086600
0
LWPOLYLINE
5
7E
100
AcDbEntity
8
SILKSCREEN_TOP
62
4
100
AcDbPolyline
90
2
70
0
43
0.203200
39
0.203200
10
0.948234
20
10.473300
10
0.949039
20
10.454852
0
LWPOLYLINE
5
7F
100
AcDbEntity
8
SILKSCREEN_TOP
62
4
100
AcDbPolyline
90
2
70
0
43
0.203200
39
0.203200
10
0.949039
20
10.454852
10
0.951449
20
10.436544
0
LWPOLYLINE
5
80
100
AcDbEntity
8
SILKSCREEN_TOP
62
4
100
AcDbPolyline
90
2
70
0
43
0.203200
39
0.203200
10
0.951449
20
10.436544
10
0.955446
20
10.418516
0
LWPOLYLINE
5
81
100
AcDbEntity
8
SILKSCREEN_TOP
62
4
100
AcDbPolyline
90
2
70
0
43
0.203200
39
0.203200
10
0.955446
20
10.418516
10
0.960999
20
10.400905
0
LWPOLYLINE
5
82
100
AcDbEntity
8
SILKSCREEN_TOP
62
4
100
AcDbPolyline
90
2
70
0
43
0.203200
39
0.203200
10
0.960999
20
10.400905
10
0.968065
20
10.383846
0
LWPOLYLINE
5
83
100
AcDbEntity
8
SILKSCREEN_TOP
62
4
100
AcDbPolyline
90
2
70
0
43
0.203200
39
0.203200
10
0.968065
20
10.383846
10
0.976591
20
10.367467
0
LWPOLYLINE
5
84
100
AcDbEntity
8
SILKSCREEN_TOP
62
4
100
AcDbPolyline
90
2
70
0
43
0.203200
39
0.203200
10
0.976591
20
10.367467
10
0.986513
20
10.351893
0
LWPOLYLINE
5
85
100
AcDbEntity
8
SILKSCREEN_TOP
62
4
100
AcDbPolyline
90
2
70
0
43
0.203200
39
0.203200
10
0.986513
20
10.351893
10
0.997754
20
10.337243
0
LWPOLYLINE
5
86
100
AcDbEntity
8
SILKSCREEN_TOP
62
4
100
AcDbPolyline
90
2
70
0
43
0.203200
39
0.203200
10
0.997754
20
10.337243
10
1.010229
20
10.323629
0
LWPOLYLINE
5
87
100
AcDbEntity
8
SILKSCREEN_TOP
62
4
100
AcDbPolyline
90
2
70
0
43
0.203200
39
0.203200
10
1.010229
20
10.323629
10
1.023843
20
10.311154
0
LWPOLYLINE
5
88
100
AcDbEntity
8
SILKSCREEN_TOP
62
4
100
AcDbPolyline
90
2
70
0
43
0.203200
39
0.203200
10
1.023843
20
10.311154
10
1.038493
20
10.299913
0
LWPOLYLINE
5
89
100
AcDbEntity
8
SILKSCREEN_TOP
62
4
100
AcDbPolyline
90
2
70
0
43
0.203200
39
0.203200
10
1.038493
20
10.299913
10
1.054066
20
10.289991
0
LWPOLYLINE
5
8A
100
AcDbEntity
8
SILKSCREEN_TOP
62
4
100
AcDbPolyline
90
2
70
0
43
0.203200
39
0.203200
10
1.054066
20
10.289991
10
1.070446
20
10.281465
0
LWPOLYLINE
5
8B
100
AcDbEntity
8
SILKSCREEN_TOP
62
4
100
AcDbPolyline
90
2
70
0
43
0.203200
39
0.203200
10
1.070446
20
10.281465
10
1.087505
20
10.274399
0
LWPOLYLINE
5
8C
100
AcDbEntity
8
SILKSCREEN_TOP
62
4
100
AcDbPolyline
90
2
70
0
43
0.203200
39
0.203200
10
1.087505
20
10.274399
10
1.105116
20
10.268846
0
LWPOLYLINE
5
8D
100
AcDbEntity
8
SILKSCREEN_TOP
62
4
100
AcDbPolyline
90
2
70
0
43
0.203200
39
0.203200
10
1.105116
20
10.268846
10
1.123144
20
10.264849
0
LWPOLYLINE
5
8E
100
AcDbEntity
8
SILKSCREEN_TOP
62
4
100
AcDbPolyline
90
2
70
0
43
0.203200
39
0.203200
10
1.123144
20
10.264849
10
1.141452
20
10.262439
0
LWPOLYLINE
5
8F
100
AcDbEntity
8
SILKSCREEN_TOP
62
4
100
AcDbPolyline
90
2
70
0
43
0.203200
39
0.203200
10
1.141452
20
10.262439
10
1.159899
20
10.261634
0
LWPOLYLINE
5
90
100
AcDbEntity
8
SILKSCREEN_TOP
62
4
100
AcDbPolyline
90
2
70
0
43
0.203200
39
0.203200
10
1.159899
20
10.261634
10
1.178347
20
10.262439
0
LWPOLYLINE
5
91
100
AcDbEntity
8
SILKSCREEN_TOP
62
4
100
AcDbPolyline
90
2
70
0
43
0.203200
39
0.203200
10
1.178347
20
10.262439
10
1.196655
20
10.264849
0
LWPOLYLINE
5
92
100
AcDbEntity
8
SILKSCREEN_TOP
62
4
100
AcDbPolyline
90
2
70
0
43
0.203200
39
0.203200
10
1.196655
20
10.264849
10
1.214683
20
10.268846
0
LWPOLYLINE
5
93
100
AcDbEntity
8
SILKSCREEN_TOP
62
4
100
AcDbPolyline
90
2
70
0
43
0.203200
39
0.203200
10
1.214683
20
10.268846
10
1.232294
20
10.274399
0
LWPOLYLINE
5
94
100
AcDbEntity
8
SILKSCREEN_TOP
62
4
100
AcDbPolyline
90
2
70
0
43
0.203200
39
0.203200
10
1.232294
20
10.274399
10
1.249353
20
10.281465
0
LWPOLYLINE
5
95
100
AcDbEntity
8
SILKSCREEN_TOP
62
4
100
AcDbPolyline
90
2
70
0
43
0.203200
39
0.203200
10
1.249353
20
10.281465
10
1.265732
20
10.289991
0
LWPOLYLINE
5
96
100
AcDbEntity
8
SILKSCREEN_TOP
62
4
100
AcDbPolyline
90
2
70
0
43
0.203200
39
0.203200
10
1.265732
20
10.289991
10
1.281306
20
10.299913
0
LWPOLYLINE
5
97
100
AcDbEntity
8
SILKSCREEN_TOP
62
4
100
AcDbPolyline
90
2
70
0
43
0.203200
39
0.203200
10
1.281306
20
10.299913
10
1.295956
20
10.311154
0
LWPOLYLINE
5
98
100
AcDbEntity
8
SILKSCREEN_TOP
62
4
100
AcDbPolyline
90
2
70
0
43
0.203200
39
0.203200
10
1.295956
20
10.311154
10
1.309570
20
10.323629
0
LWPOLYLINE
5
99
100
AcDbEntity
8
SILKSCREEN_TOP
62
4
100
AcDbPolyline
90
2
70
0
43
0.203200
39
0.203200
10
1.309570
20
10.323629
10
1.322045
20
10.337243
0
LWPOLYLINE
5
9A
100
AcDbEntity
8
SILKSCREEN_TOP
62
4
100
AcDbPolyline
90
2
70
0
43
0.203200
39
0.203200
10
1.322045
20
10.337243
10
1.333286
20
10.351893
0
LWPOLYLINE
5
9B
100
AcDbEntity
8
SILKSCREEN_TOP
62
4
100
AcDbPolyline
90
2
70
0
43
0.203200
39
0.203200
10
1.333286
20
10.351893
10
1.343208
20
10.367467
0
LWPOLYLINE
5
9C
100
AcDbEntity
8
SILKSCREEN_TOP
62
4
100
AcDbPolyline
90
2
70
0
43
0.203200
39
0.203200
10
1.343208
20
10.367467
10
1.351734
20
10.383846
0
LWPOLYLINE
5
9D
100
AcDbEntity
8
SILKSCREEN_TOP
62
4
100
AcDbPolyline
90
2
70
0
43
0.203200
39
0.203200
10
1.351734
20
10.383846
10
1.358800
20
10.400905
0
LWPOLYLINE
5
9E
100
AcDbEntity
8
SILKSCREEN_TOP
62
4
100
AcDbPolyline
90
2
70
0
43
0.203200
39
0.203200
10
1.358800
20
10.400905
10
1.364353
20
10.418516
0
LWPOLYLINE
5
9F
100
AcDbEntity
8
SILKSCREEN_TOP
62
4
100
AcDbPolyline
90
2
70
0
43
0.203200
39
0.203200
10
1.364353
20
10.418516
10
1.368350
20
10.436544
0
LWPOLYLINE
5
A0
100
AcDbEntity
8
SILKSCREEN_TOP
62
4
100
AcDbPolyline
90
2
70
0
43
0.203200
39
0.203200
10
1.368350
20
10.436544
10
1.370760
20
10.454852
0
LWPOLYLINE
5
A1
100
AcDbEntity
8
SILKSCREEN_TOP
62
4
100
AcDbPolyline
90
2
70
0
43
0.203200
39
0.203200
10
1.370760
20
10.454852
10
1.371566
20
10.473300
0
LWPOLYLINE
5
A2
100
AcDbEntity
8
SILKSCREEN_TOP
62
4
100
AcDbPolyline
90
2
70
0
43
0.203200
39
0.203200
10
1.371566
20
10.473300
10
1.371566
20
10.473300
0
LWPOLYLINE
5
A3
100
AcDbEntity
8
SILKSCREEN_TOP
62
4
100
AcDbPolyline
90
2
70
0
43
0.203200
39
0.203200
10
1.371567
20
10.896600
10
1.370761
20
10.915047
0
LWPOLYLINE
5
A4
100
AcDbEntity
8
SILKSCREEN_TOP
62
4
100
AcDbPolyline
90
2
70
0
43
0.203200
39
0.203200
10
1.370761
20
10.915047
10
1.368351
20
10.933355
0
LWPOLYLINE
5
A5
100
AcDbEntity
8
SILKSCREEN_TOP
62
4
100
AcDbPolyline
90
2
70
0
43
0.203200
39
0.203200
10
1.368351
20
10.933355
10
1.364354
20
10.951383
0
LWPOLYLINE
5
A6
100
AcDbEntity
8
SILKSCREEN_TOP
62
4
100
AcDbPolyline
90
2
70
0
43
0.203200
39
0.203200
10
1.364354
20
10.951383
10
1.358801
20
10.968994
0
LWPOLYLINE
5
A7
100
AcDbEntity
8
SILKSCREEN_TOP
62
4
100
AcDbPolyline
90
2
70
0
43
0.203200
39
0.203200
10
1.358801
20
10.968994
10
1.351735
20
10.986054
0
LWPOLYLINE
5
A8
100
AcDbEntity
8
SILKSCREEN_TOP
62
4
100
AcDbPolyline
90
2
70
0
43
0.203200
39
0.203200
10
1.351735
20
10.986054
10
1.343208
20
11.002433
0
LWPOLYLINE
5
A9
100
AcDbEntity
8
SILKSCREEN_TOP
62
4
100
AcDbPolyline
90
2
70
0
43
0.203200
39
0.203200
10
1.343208
20
11.002433
10
1.333287
20
11.018007
0
LWPOLYLINE
5
AA
100
AcDbEntity
8
SILKSCREEN_TOP
62
4
100
AcDbPolyline
90
2
70
0
43
0.203200
39
0.203200
10
1.333287
20
11.018007
10
1.322046
20
11.032656
0
LWPOLYLINE
5
AB
100
AcDbEntity
8
SILKSCREEN_TOP
62
4
100
AcDbPolyline
90
2
70
0
43
0.203200
39
0.203200
10
1.322046
20
11.032656
10
1.309571
20
11.046271
0
LWPOLYLINE
5
AC
100
AcDbEntity
8
SILKSCREEN_TOP
62
4
100
AcDbPolyline
90
2
70
0
43
0.203200
39
0.203200
10
1.309571
20
11.046271
10
1.295956
20
11.058746
0
LWPOLYLINE
5
AD
100
AcDbEntity
8
SILKSCREEN_TOP
62
4
100
AcDbPolyline
90
2
70
0
43
0.203200
39
0.203200
10
1.295956
20
11.058746
10
1.281307
20
11.069987
0
LWPOLYLINE
5
AE
100
AcDbEntity
8
SILKSCREEN_TOP
62
4
100
AcDbPolyline
90
2
70
0
43
0.203200
39
0.203200
10
1.281307
20
11.069987
10
1.265733
20
11.079908
0
LWPOLYLINE
5
AF
100
AcDbEntity
8
SILKSCREEN_TOP
62
4
100
AcDbPolyline
90
2
70
0
43
0.203200
39
0.203200
10
1.265733
20
11.079908
10
1.249354
20
11.088435
0
LWPOLYLINE
5
B0
100
AcDbEntity
8
SILKSCREEN_TOP
62
4
100
AcDbPolyline
90
2
70
0
43
0.203200
39
0.203200
10
1.249354
20
11.088435
10
1.232294
20
11.095501
0
LWPOLYLINE
5
B1
100
AcDbEntity
8
SILKSCREEN_TOP
62
4
100
AcDbPolyline
90
2
70
0
43
0.203200
39
0.203200
10
1.232294
20
11.095501
10
1.214683
20
11.101054
0
LWPOLYLINE
5
B2
100
AcDbEntity
8
SILKSCREEN_TOP
62
4
100
AcDbPolyline
90
2
70
0
43
0.203200
39
0.203200
10
1.214683
20
11.101054
10
1.196655
20
11.105051
0
LWPOLYLINE
5
B3
100
AcDbEntity
8
SILKSCREEN_TOP
62
4
100
AcDbPolyline
90
2
70
0
43
0.203200
39
0.203200
10
1.196655
20
11.105051
10
1.178347
20
11.107461
0
LWPOLYLINE
5
B4
100
AcDbEntity
8
SILKSCREEN_TOP
62
4
100
AcDbPolyline
90
2
70
0
43
0.203200
39
0.203200
10
1.178347
20
11.107461
10
1.159900
20
11.108267
0
LWPOLYLINE
5
B5
100
AcDbEntity
8
SILKSCREEN_TOP
62
4
100
AcDbPolyline
90
2
70
0
43
0.203200
39
0.203200
10
1.159900
20
11.108267
10
1.141452
20
11.107461
0
LWPOLYLINE
5
B6
100
AcDbEntity
8
SILKSCREEN_TOP
62
4
100
AcDbPolyline
90
2
70
0
43
0.203200
39
0.203200
10
1.141452
20
11.107461
10
1.123144
20
11.105051
0
LWPOLYLINE
5
B7
100
AcDbEntity
8
SILKSCREEN_TOP
62
4
100
AcDbPolyline
90
2
70
0
43
0.203200
39
0.203200
10
1.123144
20
11.105051
10
1.105116
20
11.101054
0
LWPOLYLINE
5
B8
100
AcDbEntity
8
SILKSCREEN_TOP
62
4
100
AcDbPolyline
90
2
70
0
43
0.203200
39
0.203200
10
1.105116
20
11.101054
10
1.087505
20
11.095501
0
LWPOLYLINE
5
B9
100
AcDbEntity
8
SILKSCREEN_TOP
62
4
100
AcDbPolyline
90
2
70
0
43
0.203200
39
0.203200
10
1.087505
20
11.095501
10
1.070445
20
11.088435
0
LWPOLYLINE
5
BA
100
AcDbEntity
8
SILKSCREEN_TOP
62
4
100
AcDbPolyline
90
2
70
0
43
0.203200
39
0.203200
10
1.070445
20
11.088435
10
1.054066
20
11.079908
0
LWPOLYLINE
5
BB
100
AcDbEntity
8
SILKSCREEN_TOP
62
4
100
AcDbPolyline
90
2
70
0
43
0.203200
39
0.203200
10
1.054066
20
11.079908
10
1.038492
20
11.069987
0
LWPOLYLINE
5
BC
100
AcDbEntity
8
SILKSCREEN_TOP
62
4
100
AcDbPolyline
90
2
70
0
43
0.203200
39
0.203200
10
1.038492
20
11.069987
10
1.023843
20
11.058746
0
LWPOLYLINE
5
BD
100
AcDbEntity
8
SILKSCREEN_TOP
62
4
100
AcDbPolyline
90
2
70
0
43
0.203200
39
0.203200
10
1.023843
20
11.058746
10
1.010228
20
11.046271
0
LWPOLYLINE
5
BE
100
AcDbEntity
8
SILKSCREEN_TOP
62
4
100
AcDbPolyline
90
2
70
0
43
0.203200
39
0.203200
10
1.010228
20
11.046271
10
0.997753
20
11.032656
0
LWPOLYLINE
5
BF
100
AcDbEntity
8
SILKSCREEN_TOP
62
4
100
AcDbPolyline
90
2
70
0
43
0.203200
39
0.203200
10
0.997753
20
11.032656
10
0.986512
20
11.018007
0
LWPOLYLINE
5
C0
100
AcDbEntity
8
SILKSCREEN_TOP
62
4
100
AcDbPolyline
90
2
70
0
43
0.203200
39
0.203200
10
0.986512
20
11.018007
10
0.976591
20
11.002433
0
LWPOLYLINE
5
C1
100
AcDbEntity
8
SILKSCREEN_TOP
62
4
100
AcDbPolyline
90
2
70
0
43
0.203200
39
0.203200
10
0.976591
20
11.002433
10
0.968064
20
10.986054
0
LWPOLYLINE
5
C2
100
AcDbEntity
8
SILKSCREEN_TOP
62
4
100
AcDbPolyline
90
2
70
0
43
0.203200
39
0.203200
10
0.968064
20
10.986054
10
0.960998
20
10.968994
0
LWPOLYLINE
5
C3
100
AcDbEntity
8
SILKSCREEN_TOP
62
4
100
AcDbPolyline
90
2
70
0
43
0.203200
39
0.203200
10
0.960998
20
10.968994
10
0.955445
20
10.951383
0
LWPOLYLINE
5
C4
100
AcDbEntity
8
SILKSCREEN_TOP
62
4
100
AcDbPolyline
90
2
70
0
43
0.203200
39
0.203200
10
0.955445
20
10.951383
10
0.951448
20
10.933355
0
LWPOLYLINE
5
C5
100
AcDbEntity
8
SILKSCREEN_TOP
62
4
100
AcDbPolyline
90
2
70
0
43
0.203200
39
0.203200
10
0.951448
20
10.933355
10
0.949038
20
10.915047
0
LWPOLYLINE
5
C6
100
AcDbEntity
8
SILKSCREEN_TOP
62
4
100
AcDbPolyline
90
2
70
0
43
0.203200
39
0.203200
10
0.949038
20
10.915047
10
0.948233
20
10.896600
0
LWPOLYLINE
5
C7
100
AcDbEntity
8
SILKSCREEN_TOP
62
4
100
AcDbPolyline
90
2
70
0
43
0.203200
39
0.203200
10
0.948233
20
10.896600
10
0.948233
20
10.896600
0
LWPOLYLINE
5
C8
100
AcDbEntity
8
SILKSCREEN_TOP
62
4
100
AcDbPolyline
90
2
70
0
43
0.203200
39
0.203200
10
0.948266
20
10.896600
10
0.948266
20
10.473267
0
LWPOLYLINE
5
C9
100
AcDbEntity
8
SILKSCREEN_TOP
62
4
100
AcDbPolyline
90
2
70
0
43
0.203200
39
0.203200
10
1.371600
20
10.473267
10
1.371600
20
10.896600
0
LWPOLYLINE
5
CA
100
AcDbEntity
8
SILKSCREEN_TOP
62
4
100
AcDbPolyline
90
2
70
0
43
0.203200
39
0.203200
10
2.387600
20
9.118600
10
2.387600
20
10.769600
0
LWPOLYLINE
5
CB
100
AcDbEntity
8
SILKSCREEN_TOP
62
4
100
AcDbPolyline
90
2
70
0
43
0.203200
39
0.203200
10
2.514600
20
9.118600
10
2.514600
20
10.642600
0
LWPOLYLINE
5
CC
100
AcDbEntity
8
SILKSCREEN_TOP
62
4
100
AcDbPolyline
90
2
70
0
43
0.203200
39
0.203200
10
2.260600
20
8.991600
10
3.022600
20
8.991600
0
LWPOLYLINE
5
CD
100
AcDbEntity
8
SILKSCREEN_TOP
62
4
100
AcDbPolyline
90
2
70
0
43
0.203200
39
0.203200
10
2.895600
20
9.118600
10
2.641600
20
9.118600
0
LWPOLYLINE
5
CE
100
AcDbEntity
8
SILKSCREEN_TOP
62
4
100
AcDbPolyline
90
2
70
0
43
0.203200
39
0.203200
10
2.641600
20
9.118600
10
2.514600
20
9.118600
0
LWPOLYLINE
5
CF
100
AcDbEntity
8
SILKSCREEN_TOP
62
4
100
AcDbPolyline
90
2
70
0
43
0.203200
39
0.203200
10
2.895600
20
9.245600
10
2.895600
20
9.118600
0
LWPOLYLINE
5
D0
100
AcDbEntity
8
SILKSCREEN_TOP
62
4
100
AcDbPolyline
90
2
70
0
43
0.203200
39
0.203200
10
2.895600
20
10.769600
10
2.895600
20
9.245600
0
LWPOLYLINE
5
D1
100
AcDbEntity
8
SILKSCREEN_TOP
62
4
100
AcDbPolyline
90
2
70
0
43
0.203200
39
0.203200
10
2.641600
20
9.245600
10
2.641600
20
10.515600
0
LWPOLYLINE
5
D2
100
AcDbEntity
8
SILKSCREEN_TOP
62
4
100
AcDbPolyline
90
2
70
0
43
0.203200
39
0.203200
10
2.768600
20
10.642600
10
2.768600
20
9.245600
0
LWPOLYLINE
5
D3
100
AcDbEntity
8
SILKSCREEN_TOP
62
4
100
AcDbPolyline
90
2
70
0
43
0.203200
39
0.203200
10
2.768600
20
9.245600
10
2.641600
20
9.245600
0
LWPOLYLINE
5
D4
100
AcDbEntity
8
SILKSCREEN_TOP
62
4
100
AcDbPolyline
90
2
70
0
43
0.203200
39
0.203200
10
2.006600
20
10.261600
10
1.583266
20
11.108267
0
LWPOLYLINE
5
D5
100
AcDbEntity
8
SILKSCREEN_TOP
62
4
100
AcDbPolyline
90
2
70
0
43
0.203200
39
0.203200
10
1.583266
20
11.108267
10
1.583266
20
10.261600
0
LWPOLYLINE
5
D6
100
AcDbEntity
8
SILKSCREEN_TOP
62
4
100
AcDbPolyline
90
2
70
0
43
0.203200
39
0.203200
10
2.006600
20
11.108267
10
2.006600
20
10.261600
0
LWPOLYLINE
5
D7
100
AcDbEntity
8
SILKSCREEN_TOP
62
4
100
AcDbPolyline
90
2
70
0
43
0.203200
39
0.203200
10
3.022600
20
10.896600
10
2.260600
20
10.896600
0
LWPOLYLINE
5
D8
100
AcDbEntity
8
SILKSCREEN_TOP
62
4
100
AcDbPolyline
90
2
70
0
43
0.203200
39
0.203200
10
2.387600
20
10.769600
10
2.895600
20
10.769600
0
LWPOLYLINE
5
D9
100
AcDbEntity
8
SILKSCREEN_TOP
62
4
100
AcDbPolyline
90
2
70
0
43
0.203200
39
0.203200
10
2.514600
20
10.642600
10
2.768600
20
10.642600
0
LWPOLYLINE
5
DA
100
AcDbEntity
8
SILKSCREEN_TOP
62
4
100
AcDbPolyline
90
2
70
0
43
0.203200
39
0.203200
10
4.546600
20
14.071600
10
4.546600
20
3.911600
0
TEXT
5
DB
100
AcDbEntity
8
SILKSCREEN_TOP
100
AcDbText
39
0.203200
10
2.641600
20
15.341600
30
0.0
40
0.705555
1
S1
41
1.866667
7
MONOTxtStyle
72
1
11
2.641600
21
15.341600
31
0.0
100
AcDbText
73
2
0
LWPOLYLINE
5
DC
100
AcDbEntity
8
SILKSCREEN_TOP
62
4
100
AcDbPolyline
90
2
70
0
43
0.203200
39
0.203200
10
7.467600
20
24.231600
10
2.387600
20
24.231600
0
LWPOLYLINE
5
DD
100
AcDbEntity
8
SILKSCREEN_TOP
62
4
100
AcDbPolyline
90
2
70
0
43
0.203200
39
0.203200
10
4.292602
20
26.771600
10
2.387600
20
26.771600
0
LWPOLYLINE
5
DE
100
AcDbEntity
8
SILKSCREEN_TOP
62
4
100
AcDbPolyline
90
2
70
0
43
0.203200
39
0.203200
10
2.387600
20
26.771600
10
2.387600
20
24.231600
0
LWPOLYLINE
5
DF
100
AcDbEntity
8
SILKSCREEN_TOP
62
4
100
AcDbPolyline
90
2
70
0
43
0.203200
39
0.203200
10
7.467602
20
26.771600
10
5.139266
20
26.771600
0
LWPOLYLINE
5
E0
100
AcDbEntity
8
SILKSCREEN_TOP
62
4
100
AcDbPolyline
90
2
70
0
43
0.203200
39
0.203200
10
4.715932
20
26.771600
10
4.715932
20
25.924933
0
LWPOLYLINE
5
E1
100
AcDbEntity
8
SILKSCREEN_TOP
62
4
100
AcDbPolyline
90
2
70
0
43
0.203200
39
0.203200
10
4.504268
20
26.559933
10
4.715932
20
26.771600
0
LWPOLYLINE
5
E2
100
AcDbEntity
8
SILKSCREEN_TOP
62
4
100
AcDbPolyline
90
2
70
0
43
0.203200
39
0.203200
10
7.467602
20
26.771600
10
7.467600
20
24.231600
0
TEXT
5
E3
100
AcDbEntity
8
SILKSCREEN_TOP
100
AcDbText
39
0.203200
10
3.657600
20
23.448433
30
0.0
40
0.705555
1
J1
41
1.866667
7
MONOTxtStyle
72
1
11
3.657600
21
23.448433
31
0.0
100
AcDbText
73
2
0
LWPOLYLINE
5
E4
100
AcDbEntity
8
SILKSCREEN_TOP
62
4
100
AcDbPolyline
90
2
70
0
43
0.203200
39
0.203200
10
10.134600
20
3.911600
10
6.324600
20
3.911600
0
LWPOLYLINE
5
E5
100
AcDbEntity
8
SILKSCREEN_TOP
62
4
100
AcDbPolyline
90
2
70
0
43
0.203200
39
0.203200
10
6.324600
20
14.071600
10
10.134600
20
14.071600
0
LWPOLYLINE
5
E6
100
AcDbEntity
8
SILKSCREEN_TOP
62
4
100
AcDbPolyline
90
2
70
0
43
0.203200
39
0.203200
10
6.324600
20
3.911600
10
6.324600
20
14.071600
0
LWPOLYLINE
5
E7
100
AcDbEntity
8
SILKSCREEN_TOP
62
4
100
AcDbPolyline
90
2
70
0
43
0.203200
39
0.203200
10
7.848600
20
10.896600
10
7.848600
20
7.086600
0
LWPOLYLINE
5
E8
100
AcDbEntity
8
SILKSCREEN_TOP
62
4
100
AcDbPolyline
90
2
70
0
43
0.203200
39
0.203200
10
8.610600
20
7.086600
10
8.610600
20
10.896600
0
LWPOLYLINE
5
E9
100
AcDbEntity
8
SILKSCREEN_TOP
62
4
100
AcDbPolyline
90
2
70
0
43
0.203200
39
0.203200
10
7.848600
20
7.086600
10
8.610600
20
7.086600
0
LWPOLYLINE
5
EA
100
AcDbEntity
8
SILKSCREEN_TOP
62
4
100
AcDbPolyline
90
2
70
0
43
0.203200
39
0.203200
10
6.536234
20
10.473300
10
6.537039
20
10.454852
0
LWPOLYLINE
5
EB
100
AcDbEntity
8
SILKSCREEN_TOP
62
4
100
AcDbPolyline
90
2
70
0
43
0.203200
39
0.203200
10
6.537039
20
10.454852
10
6.539449
20
10.436544
0
LWPOLYLINE
5
EC
100
AcDbEntity
8
SILKSCREEN_TOP
62
4
100
AcDbPolyline
90
2
70
0
43
0.203200
39
0.203200
10
6.539449
20
10.436544
10
6.543446
20
10.418516
0
LWPOLYLINE
5
ED
100
AcDbEntity
8
SILKSCREEN_TOP
62
4
100
AcDbPolyline
90
2
70
0
43
0.203200
39
0.203200
10
6.543446
20
10.418516
10
6.548999
20
10.400905
0
LWPOLYLINE
5
EE
100
AcDbEntity
8
SILKSCREEN_TOP
62
4
100
AcDbPolyline
90
2
70
0
43
0.203200
39
0.203200
10
6.548999
20
10.400905
10
6.556065
20
10.383846
0
LWPOLYLINE
5
EF
100
AcDbEntity
8
SILKSCREEN_TOP
62
4
100
AcDbPolyline
90
2
70
0
43
0.203200
39
0.203200
10
6.556065
20
10.383846
10
6.564591
20
10.367467
0
LWPOLYLINE
5
F0
100
AcDbEntity
8
SILKSCREEN_TOP
62
4
100
AcDbPolyline
90
2
70
0
43
0.203200
39
0.203200
10
6.564591
20
10.367467
10
6.574513
20
10.351893
0
LWPOLYLINE
5
F1
100
AcDbEntity
8
SILKSCREEN_TOP
62
4
100
AcDbPolyline
90
2
70
0
43
0.203200
39
0.203200
10
6.574513
20
10.351893
10
6.585754
20
10.337243
0
LWPOLYLINE
5
F2
100
AcDbEntity
8
SILKSCREEN_TOP
62
4
100
AcDbPolyline
90
2
70
0
43
0.203200
39
0.203200
10
6.585754
20
10.337243
10
6.598229
20
10.323629
0
LWPOLYLINE
5
F3
100
AcDbEntity
8
SILKSCREEN_TOP
62
4
100
AcDbPolyline
90
2
70
0
43
0.203200
39
0.203200
10
6.598229
20
10.323629
10
6.611843
20
10.311154
0
LWPOLYLINE
5
F4
100
AcDbEntity
8
SILKSCREEN_TOP
62
4
100
AcDbPolyline
90
2
70
0
43
0.203200
39
0.203200
10
6.611843
20
10.311154
10
6.626493
20
10.299913
0
LWPOLYLINE
5
F5
100
AcDbEntity
8
SILKSCREEN_TOP
62
4
100
AcDbPolyline
90
2
70
0
43
0.203200
39
0.203200
10
6.626493
20
10.299913
10
6.642067
20
10.289991
0
LWPOLYLINE
5
F6
100
AcDbEntity
8
SILKSCREEN_TOP
62
4
100
AcDbPolyline
90
2
70
0
43
0.203200
39
0.203200
10
6.642067
20
10.289991
10
6.658446
20
10.281465
0
LWPOLYLINE
5
F7
100
AcDbEntity
8
SILKSCREEN_TOP
62
4
100
AcDbPolyline
90
2
70
0
43
0.203200
39
0.203200
10
6.658446
20
10.281465
10
6.675505
20
10.274399
0
LWPOLYLINE
5
F8
100
AcDbEntity
8
SILKSCREEN_TOP
62
4
100
AcDbPolyline
90
2
70
0
43
0.203200
39
0.203200
10
6.675505
20
10.274399
10
6.693116
20
10.268846
0
LWPOLYLINE
5
F9
100
AcDbEntity
8
SILKSCREEN_TOP
62
4
100
AcDbPolyline
90
2
70
0
43
0.203200
39
0.203200
10
6.693116
20
10.268846
10
6.711144
20
10.264849
0
LWPOLYLINE
5
FA
100
AcDbEntity
8
SILKSCREEN_TOP
62
4
100
AcDbPolyline
90
2
70
0
43
0.203200
39
0.203200
10
6.711144
20
10.264849
10
6.729452
20
10.262439
0
LWPOLYLINE
5
FB
100
AcDbEntity
8
SILKSCREEN_TOP
62
4
100
AcDbPolyline
90
2
70
0
43
0.203200
39
0.203200
10
6.729452
20
10.262439
10
6.747899
20
10.261634
0
LWPOLYLINE
5
FC
100
AcDbEntity
8
SILKSCREEN_TOP
62
4
100
AcDbPolyline
90
2
70
0
43
0.203200
39
0.203200
10
6.747899
20
10.261634
10
6.766347
20
10.262439
0
LWPOLYLINE
5
FD
100
AcDbEntity
8
SILKSCREEN_TOP
62
4
100
AcDbPolyline
90
2
70
0
43
0.203200
39
0.203200
10
6.766347
20
10.262439
10
6.784655
20
10.264849
0
LWPOLYLINE
5
FE
100
AcDbEntity
8
SILKSCREEN_TOP
62
4
100
AcDbPolyline
90
2
70
0
43
0.203200
39
0.203200
10
6.784655
20
10.264849
10
6.802683
20
10.268846
0
LWPOLYLINE
5
FF
100
AcDbEntity
8
SILKSCREEN_TOP
62
4
100
AcDbPolyline
90
2
70
0
43
0.203200
39
0.203200
10
6.802683
20
10.268846
10
6.820294
20
10.274399
0
LWPOLYLINE
5
100
100
AcDbEntity
8
SILKSCREEN_TOP
62
4
100
AcDbPolyline
90
2
70
0
43
0.203200
39
0.203200
10
6.820294
20
10.274399
10
6.837353
20
10.281465
0
LWPOLYLINE
5
101
100
AcDbEntity
8
SILKSCREEN_TOP
62
4
100
AcDbPolyline
90
2
70
0
43
0.203200
39
0.203200
10
6.837353
20
10.281465
10
6.853732
20
10.289991
0
LWPOLYLINE
5
102
100
AcDbEntity
8
SILKSCREEN_TOP
62
4
100
AcDbPolyline
90
2
70
0
43
0.203200
39
0.203200
10
6.853732
20
10.289991
10
6.869306
20
10.299913
0
LWPOLYLINE
5
103
100
AcDbEntity
8
SILKSCREEN_TOP
62
4
100
AcDbPolyline
90
2
70
0
43
0.203200
39
0.203200
10
6.869306
20
10.299913
10
6.883956
20
10.311154
0
LWPOLYLINE
5
104
100
AcDbEntity
8
SILKSCREEN_TOP
62
4
100
AcDbPolyline
90
2
70
0
43
0.203200
39
0.203200
10
6.883956
20
10.311154
10
6.897570
20
10.323629
0
LWPOLYLINE
5
105
100
AcDbEntity
8
SILKSCREEN_TOP
62
4
100
AcDbPolyline
90
2
70
0
43
0.203200
39
0.203200
10
6.897570
20
10.323629
10
6.910045
20
10.337243
0
LWPOLYLINE
5
106
100
AcDbEntity
8
SILKSCREEN_TOP
62
4
100
AcDbPolyline
90
2
70
0
43
0.203200
39
0.203200
10
6.910045
20
10.337243
10
6.921286
20
10.351893
0
LWPOLYLINE
5
107
100
AcDbEntity
8
SILKSCREEN_TOP
62
4
100
AcDbPolyline
90
2
70
0
43
0.203200
39
0.203200
10
6.921286
20
10.351893
10
6.931208
20
10.367467
0
LWPOLYLINE
5
108
100
AcDbEntity
8
SILKSCREEN_TOP
62
4
100
AcDbPolyline
90
2
70
0
43
0.203200
39
0.203200
10
6.931208
20
10.367467
10
6.939734
20
10.383846
0
LWPOLYLINE
5
109
100
AcDbEntity
8
SILKSCREEN_TOP
62
4
100
AcDbPolyline
90
2
70
0
43
0.203200
39
0.203200
10
6.939734
20
10.383846
10
6.946800
20
10.400905
0
LWPOLYLINE
5
10A
100
AcDbEntity
8
SILKSCREEN_TOP
62
4
100
AcDbPolyline
90
2
70
0
43
0.203200
39
0.203200
10
6.946800
20
10.400905
10
6.952353
20
10.418516
0
LWPOLYLINE
5
10B
100
AcDbEntity
8
SILKSCREEN_TOP
62
4
100
AcDbPolyline
90
2
70
0
43
0.203200
39
0.203200
10
6.952353
20
10.418516
10
6.956350
20
10.436544
0
LWPOLYLINE
5
10C
100
AcDbEntity
8
SILKSCREEN_TOP
62
4
100
AcDbPolyline
90
2
70
0
43
0.203200
39
0.203200
10
6.956350
20
10.436544
10
6.958760
20
10.454852
0
LWPOLYLINE
5
10D
100
AcDbEntity
8
SILKSCREEN_TOP
62
4
100
AcDbPolyline
90
2
70
0
43
0.203200
39
0.203200
10
6.958760
20
10.454852
10
6.959566
20
10.473300
0
LWPOLYLINE
5
10E
100
AcDbEntity
8
SILKSCREEN_TOP
62
4
100
AcDbPolyline
90
2
70
0
43
0.203200
39
0.203200
10
6.959566
20
10.473300
10
6.959566
20
10.473300
0
LWPOLYLINE
5
10F
100
AcDbEntity
8
SILKSCREEN_TOP
62
4
100
AcDbPolyline
90
2
70
0
43
0.203200
39
0.203200
10
6.959567
20
10.896600
10
6.958761
20
10.915047
0
LWPOLYLINE
5
110
100
AcDbEntity
8
SILKSCREEN_TOP
62
4
100
AcDbPolyline
90
2
70
0
43
0.203200
39
0.203200
10
6.958761
20
10.915047
10
6.956351
20
10.933355
0
LWPOLYLINE
5
111
100
AcDbEntity
8
SILKSCREEN_TOP
62
4
100
AcDbPolyline
90
2
70
0
43
0.203200
39
0.203200
10
6.956351
20
10.933355
10
6.952354
20
10.951383
0
LWPOLYLINE
5
112
100
AcDbEntity
8
SILKSCREEN_TOP
62
4
100
AcDbPolyline
90
2
70
0
43
0.203200
39
0.203200
10
6.952354
20
10.951383
10
6.946801
20
10.968994
0
LWPOLYLINE
5
113
100
AcDbEntity
8
SILKSCREEN_TOP
62
4
100
AcDbPolyline
90
2
70
0
43
0.203200
39
0.203200
10
6.946801
20
10.968994
10
6.939735
20
10.986054
0
LWPOLYLINE
5
114
100
AcDbEntity
8
SILKSCREEN_TOP
62
4
100
AcDbPolyline
90
2
70
0
43
0.203200
39
0.203200
10
6.939735
20
10.986054
10
6.931208
20
11.002433
0
LWPOLYLINE
5
115
100
AcDbEntity
8
SILKSCREEN_TOP
62
4
100
AcDbPolyline
90
2
70
0
43
0.203200
39
0.203200
10
6.931208
20
11.002433
10
6.921287
20
11.018007
0
LWPOLYLINE
5
116
100
AcDbEntity
8
SILKSCREEN_TOP
62
4
100
AcDbPolyline
90
2
70
0
43
0.203200
39
0.203200
10
6.921287
20
11.018007
10
6.910046
20
11.032656
0
LWPOLYLINE
5
117
100
AcDbEntity
8
SILKSCREEN_TOP
62
4
100
AcDbPolyline
90
2
70
0
43
0.203200
39
0.203200
10
6.910046
20
11.032656
10
6.897571
20
11.046271
0
LWPOLYLINE
5
118
100
AcDbEntity
8
SILKSCREEN_TOP
62
4
100
AcDbPolyline
90
2
70
0
43
0.203200
39
0.203200
10
6.897571
20
11.046271
10
6.883956
20
11.058746
0
LWPOLYLINE
5
119
100
AcDbEntity
8
SILKSCREEN_TOP
62
4
100
AcDbPolyline
90
2
70
0
43
0.203200
39
0.203200
10
6.883956
20
11.058746
10
6.869307
20
11.069987
0
LWPOLYLINE
5
11A
100
AcDbEntity
8
SILKSCREEN_TOP
62
4
100
AcDbPolyline
90
2
70
0
43
0.203200
39
0.203200
10
6.869307
20
11.069987
10
6.853733
20
11.079908
0
LWPOLYLINE
5
11B
100
AcDbEntity
8
SILKSCREEN_TOP
62
4
100
AcDbPolyline
90
2
70
0
43
0.203200
39
0.203200
10
6.853733
20
11.079908
10
6.837354
20
11.088435
0
LWPOLYLINE
5
11C
100
AcDbEntity
8
SILKSCREEN_TOP
62
4
100
AcDbPolyline
90
2
70
0
43
0.203200
39
0.203200
10
6.837354
20
11.088435
10
6.820294
20
11.095501
0
LWPOLYLINE
5
11D
100
AcDbEntity
8
SILKSCREEN_TOP
62
4
100
AcDbPolyline
90
2
70
0
43
0.203200
39
0.203200
10
6.820294
20
11.095501
10
6.802683
20
11.101054
0
LWPOLYLINE
5
11E
100
AcDbEntity
8
SILKSCREEN_TOP
62
4
100
AcDbPolyline
90
2
70
0
43
0.203200
39
0.203200
10
6.802683
20
11.101054
10
6.784655
20
11.105051
0
LWPOLYLINE
5
11F
100
AcDbEntity
8
SILKSCREEN_TOP
62
4
100
AcDbPolyline
90
2
70
0
43
0.203200
39
0.203200
10
6.784655
20
11.105051
10
6.766347
20
11.107461
0
LWPOLYLINE
5
120
100
AcDbEntity
8
SILKSCREEN_TOP
62
4
100
AcDbPolyline
90
2
70
0
43
0.203200
39
0.203200
10
6.766347
20
11.107461
10
6.747900
20
11.108267
0
LWPOLYLINE
5
121
100
AcDbEntity
8
SILKSCREEN_TOP
62
4
100
AcDbPolyline
90
2
70
0
43
0.203200
39
0.203200
10
6.747900
20
11.108267
10
6.729452
20
11.107461
0
LWPOLYLINE
5
122
100
AcDbEntity
8
SILKSCREEN_TOP
62
4
100
AcDbPolyline
90
2
70
0
43
0.203200
39
0.203200
10
6.729452
20
11.107461
10
6.711144
20
11.105051
0
LWPOLYLINE
5
123
100
AcDbEntity
8
SILKSCREEN_TOP
62
4
100
AcDbPolyline
90
2
70
0
43
0.203200
39
0.203200
10
6.711144
20
11.105051
10
6.693116
20
11.101054
0
LWPOLYLINE
5
124
100
AcDbEntity
8
SILKSCREEN_TOP
62
4
100
AcDbPolyline
90
2
70
0
43
0.203200
39
0.203200
10
6.693116
20
11.101054
10
6.675505
20
11.095501
0
LWPOLYLINE
5
125
100
AcDbEntity
8
SILKSCREEN_TOP
62
4
100
AcDbPolyline
90
2
70
0
43
0.203200
39
0.203200
10
6.675505
20
11.095501
10
6.658445
20
11.088435
0
LWPOLYLINE
5
126
100
AcDbEntity
8
SILKSCREEN_TOP
62
4
100
AcDbPolyline
90
2
70
0
43
0.203200
39
0.203200
10
6.658445
20
11.088435
10
6.642066
20
11.079908
0
LWPOLYLINE
5
127
100
AcDbEntity
8
SILKSCREEN_TOP
62
4
100
AcDbPolyline
90
2
70
0
43
0.203200
39
0.203200
10
6.642066
20
11.079908
10
6.626492
20
11.069987
0
LWPOLYLINE
5
128
100
AcDbEntity
8
SILKSCREEN_TOP
62
4
100
AcDbPolyline
90
2
70
0
43
0.203200
39
0.203200
10
6.626492
20
11.069987
10
6.611843
20
11.058746
0
LWPOLYLINE
5
129
100
AcDbEntity
8
SILKSCREEN_TOP
62
4
100
AcDbPolyline
90
2
70
0
43
0.203200
39
0.203200
10
6.611843
20
11.058746
10
6.598228
20
11.046271
0
LWPOLYLINE
5
12A
100
AcDbEntity
8
SILKSCREEN_TOP
62
4
100
AcDbPolyline
90
2
70
0
43
0.203200
39
0.203200
10
6.598228
20
11.046271
10
6.585753
20
11.032656
0
LWPOLYLINE
5
12B
100
AcDbEntity
8
SILKSCREEN_TOP
62
4
100
AcDbPolyline
90
2
70
0
43
0.203200
39
0.203200
10
6.585753
20
11.032656
10
6.574512
20
11.018007
0
LWPOLYLINE
5
12C
100
AcDbEntity
8
SILKSCREEN_TOP
62
4
100
AcDbPolyline
90
2
70
0
43
0.203200
39
0.203200
10
6.574512
20
11.018007
10
6.564591
20
11.002433
0
LWPOLYLINE
5
12D
100
AcDbEntity
8
SILKSCREEN_TOP
62
4
100
AcDbPolyline
90
2
70
0
43
0.203200
39
0.203200
10
6.564591
20
11.002433
10
6.556064
20
10.986054
0
LWPOLYLINE
5
12E
100
AcDbEntity
8
SILKSCREEN_TOP
62
4
100
AcDbPolyline
90
2
70
0
43
0.203200
39
0.203200
10
6.556064
20
10.986054
10
6.548998
20
10.968994
0
LWPOLYLINE
5
12F
100
AcDbEntity
8
SILKSCREEN_TOP
62
4
100
AcDbPolyline
90
2
70
0
43
0.203200
39
0.203200
10
6.548998
20
10.968994
10
6.543445
20
10.951383
0
LWPOLYLINE
5
130
100
AcDbEntity
8
SILKSCREEN_TOP
62
4
100
AcDbPolyline
90
2
70
0
43
0.203200
39
0.203200
10
6.543445
20
10.951383
10
6.539448
20
10.933355
0
LWPOLYLINE
5
131
100
AcDbEntity
8
SILKSCREEN_TOP
62
4
100
AcDbPolyline
90
2
70
0
43
0.203200
39
0.203200
10
6.539448
20
10.933355
10
6.537038
20
10.915047
0
LWPOLYLINE
5
132
100
AcDbEntity
8
SILKSCREEN_TOP
62
4
100
AcDbPolyline
90
2
70
0
43
0.203200
39
0.203200
10
6.537038
20
10.915047
10
6.536233
20
10.896600
0
LWPOLYLINE
5
133
100
AcDbEntity
8
SILKSCREEN_TOP
62
4
100
AcDbPolyline
90
2
70
0
43
0.203200
39
0.203200
10
6.536233
20
10.896600
10
6.536233
20
10.896600
0
LWPOLYLINE
5
134
100
AcDbEntity
8
SILKSCREEN_TOP
62
4
100
AcDbPolyline
90
2
70
0
43
0.203200
39
0.203200
10
6.536266
20
10.896600
10
6.536266
20
10.473267
0
LWPOLYLINE
5
135
100
AcDbEntity
8
SILKSCREEN_TOP
62
4
100
AcDbPolyline
90
2
70
0
43
0.203200
39
0.203200
10
6.959600
20
10.473267
10
6.959600
20
10.896600
0
LWPOLYLINE
5
136
100
AcDbEntity
8
SILKSCREEN_TOP
62
4
100
AcDbPolyline
90
2
70
0
43
0.203200
39
0.203200
10
7.975600
20
9.118600
10
7.975600
20
10.769600
0
LWPOLYLINE
5
137
100
AcDbEntity
8
SILKSCREEN_TOP
62
4
100
AcDbPolyline
90
2
70
0
43
0.203200
39
0.203200
10
8.102600
20
9.118600
10
8.102600
20
10.642600
0
LWPOLYLINE
5
138
100
AcDbEntity
8
SILKSCREEN_TOP
62
4
100
AcDbPolyline
90
2
70
0
43
0.203200
39
0.203200
10
7.848600
20
8.991600
10
8.610600
20
8.991600
0
LWPOLYLINE
5
139
100
AcDbEntity
8
SILKSCREEN_TOP
62
4
100
AcDbPolyline
90
2
70
0
43
0.203200
39
0.203200
10
8.483600
20
9.118600
10
8.229600
20
9.118600
0
LWPOLYLINE
5
13A
100
AcDbEntity
8
SILKSCREEN_TOP
62
4
100
AcDbPolyline
90
2
70
0
43
0.203200
39
0.203200
10
8.229600
20
9.118600
10
8.102600
20
9.118600
0
LWPOLYLINE
5
13B
100
AcDbEntity
8
SILKSCREEN_TOP
62
4
100
AcDbPolyline
90
2
70
0
43
0.203200
39
0.203200
10
8.483600
20
9.245600
10
8.483600
20
9.118600
0
LWPOLYLINE
5
13C
100
AcDbEntity
8
SILKSCREEN_TOP
62
4
100
AcDbPolyline
90
2
70
0
43
0.203200
39
0.203200
10
8.483600
20
10.769600
10
8.483600
20
9.245600
0
LWPOLYLINE
5
13D
100
AcDbEntity
8
SILKSCREEN_TOP
62
4
100
AcDbPolyline
90
2
70
0
43
0.203200
39
0.203200
10
8.229600
20
9.245600
10
8.229600
20
10.515600
0
LWPOLYLINE
5
13E
100
AcDbEntity
8
SILKSCREEN_TOP
62
4
100
AcDbPolyline
90
2
70
0
43
0.203200
39
0.203200
10
8.356600
20
10.642600
10
8.356600
20
9.245600
0
LWPOLYLINE
5
13F
100
AcDbEntity
8
SILKSCREEN_TOP
62
4
100
AcDbPolyline
90
2
70
0
43
0.203200
39
0.203200
10
8.356600
20
9.245600
10
8.229600
20
9.245600
0
LWPOLYLINE
5
140
100
AcDbEntity
8
SILKSCREEN_TOP
62
4
100
AcDbPolyline
90
2
70
0
43
0.203200
39
0.203200
10
7.594600
20
10.261600
10
7.171266
20
11.108267
0
LWPOLYLINE
5
141
100
AcDbEntity
8
SILKSCREEN_TOP
62
4
100
AcDbPolyline
90
2
70
0
43
0.203200
39
0.203200
10
7.171266
20
11.108267
10
7.171266
20
10.261600
0
LWPOLYLINE
5
142
100
AcDbEntity
8
SILKSCREEN_TOP
62
4
100
AcDbPolyline
90
2
70
0
43
0.203200
39
0.203200
10
7.594600
20
11.108267
10
7.594600
20
10.261600
0
LWPOLYLINE
5
143
100
AcDbEntity
8
SILKSCREEN_TOP
62
4
100
AcDbPolyline
90
2
70
0
43
0.203200
39
0.203200
10
8.610600
20
10.896600
10
7.848600
20
10.896600
0
LWPOLYLINE
5
144
100
AcDbEntity
8
SILKSCREEN_TOP
62
4
100
AcDbPolyline
90
2
70
0
43
0.203200
39
0.203200
10
7.975600
20
10.769600
10
8.483600
20
10.769600
0
LWPOLYLINE
5
145
100
AcDbEntity
8
SILKSCREEN_TOP
62
4
100
AcDbPolyline
90
2
70
0
43
0.203200
39
0.203200
10
8.102600
20
10.642600
10
8.356600
20
10.642600
0
LWPOLYLINE
5
146
100
AcDbEntity
8
SILKSCREEN_TOP
62
4
100
AcDbPolyline
90
2
70
0
43
0.203200
39
0.203200
10
10.134600
20
14.071600
10
10.134600
20
3.911600
0
TEXT
5
147
100
AcDbEntity
8
SILKSCREEN_TOP
100
AcDbText
39
0.203200
10
8.229600
20
15.341600
30
0.0
40
0.705555
1
S2
41
1.866667
7
MONOTxtStyle
72
1
11
8.229600
21
15.341600
31
0.0
100
AcDbText
73
2
0
LWPOLYLINE
5
148
100
AcDbEntity
8
SILKSCREEN_TOP
62
4
100
AcDbPolyline
90
2
70
0
43
0.100000
39
0.100000
10
18.623601
20
5.641600
10
21.173600
20
5.641600
0
LWPOLYLINE
5
149
100
AcDbEntity
8
SILKSCREEN_TOP
62
4
100
AcDbPolyline
90
2
70
0
43
0.100000
39
0.100000
10
21.173600
20
5.641600
10
21.173600
20
12.641600
0
LWPOLYLINE
5
14A
100
AcDbEntity
8
SILKSCREEN_TOP
62
4
100
AcDbPolyline
90
2
70
0
43
0.100000
39
0.100000
10
21.173600
20
12.641600
10
18.623601
20
12.641600
0
LWPOLYLINE
5
14B
100
AcDbEntity
8
SILKSCREEN_TOP
62
4
100
AcDbPolyline
90
2
70
0
43
0.100000
39
0.100000
10
18.623601
20
12.641600
10
18.623601
20
5.641600
0
LWPOLYLINE
5
14C
100
AcDbEntity
8
SILKSCREEN_TOP
62
4
100
AcDbPolyline
90
2
70
0
43
0.100000
39
0.100000
10
19.913600
20
4.041600
10
19.913600
20
5.641600
0
LWPOLYLINE
5
14D
100
AcDbEntity
8
SILKSCREEN_TOP
62
4
100
AcDbPolyline
90
2
70
0
43
0.100000
39
0.100000
10
19.913600
20
12.641600
10
19.913600
20
12.641600
0
LWPOLYLINE
5
14E
100
AcDbEntity
8
SILKSCREEN_TOP
62
4
100
AcDbPolyline
90
2
70
0
43
0.100000
39
0.100000
10
19.913600
20
12.641600
10
19.913600
20
14.341600
0
TEXT
5
14F
100
AcDbEntity
8
SILKSCREEN_TOP
100
AcDbText
39
0.203200
10
22.613600
20
9.037600
30
0.0
40
0.933333
1
R1
41
0.995556
7
MONOTxtStyle
50
90.000000
72
1
11
22.613600
21
9.037600
31
0.0
100
AcDbText
73
2
0
LWPOLYLINE
5
150
100
AcDbEntity
8
COPPER_TOP
62
3
100
AcDbPolyline
90
2
70
0
43
0.254000
39
0.254000
10
19.913600
20
4.165600
10
19.913600
20
1.625600
0
LWPOLYLINE
5
151
100
AcDbEntity
8
COPPER_TOP
62
3
100
AcDbPolyline
90
2
70
0
43
0.254000
39
0.254000
10
22.199600
20
6.451600
10
19.913600
20
4.165600
0
LWPOLYLINE
5
152
100
AcDbEntity
8
COPPER_TOP
62
3
100
AcDbPolyline
90
2
70
0
43
0.254000
39
0.254000
10
22.199600
20
20.929600
10
22.199600
20
6.451600
0
LWPOLYLINE
5
153
100
AcDbEntity
8
COPPER_TOP
62
3
100
AcDbPolyline
90
2
70
0
43
0.254000
39
0.254000
10
2.641600
20
19.151600
10
2.641600
20
12.801600
0
LWPOLYLINE
5
154
100
AcDbEntity
8
COPPER_TOP
62
3
100
AcDbPolyline
90
2
70
0
43
0.254000
39
0.254000
10
16.865600
20
15.341600
10
14.325600
20
15.341600
0
LWPOLYLINE
5
155
100
AcDbEntity
8
COPPER_TOP
62
3
100
AcDbPolyline
90
2
70
0
43
0.254000
39
0.254000
10
17.165600
20
15.641600
10
16.865600
20
15.341600
0
LWPOLYLINE
5
156
100
AcDbEntity
8
COPPER_TOP
62
3
100
AcDbPolyline
90
2
70
0
43
0.254000
39
0.254000
10
19.913600
20
15.641600
10
17.165600
20
15.641600
0
LWPOLYLINE
5
157
100
AcDbEntity
8
COPPER_TOP
62
3
100
AcDbPolyline
90
2
70
0
43
0.254000
39
0.254000
10
3.657600
20
20.167600
10
2.641600
20
19.151600
0
LWPOLYLINE
5
158
100
AcDbEntity
8
COPPER_TOP
62
3
100
AcDbPolyline
90
2
70
0
43
0.254000
39
0.254000
10
3.657600
20
25.501600
10
3.657600
20
20.167600
0
LWPOLYLINE
5
159
100
AcDbEntity
8
COPPER_TOP
62
3
100
AcDbPolyline
90
2
70
0
43
0.254000
39
0.254000
10
20.675600
20
22.453600
10
22.199600
20
20.929600
0
LWPOLYLINE
5
15A
100
AcDbEntity
8
COPPER_TOP
62
3
100
AcDbPolyline
90
2
70
0
43
0.254000
39
0.254000
10
18.897600
20
22.453600
10
20.675600
20
22.453600
0
LWPOLYLINE
5
15B
100
AcDbEntity
8
COPPER_TOP
62
3
100
AcDbPolyline
90
2
70
0
43
0.254000
39
0.254000
10
9.245600
20
2.641600
10
8.229600
20
3.657600
0
LWPOLYLINE
5
15C
100
AcDbEntity
8
COPPER_TOP
62
3
100
AcDbPolyline
90
2
70
0
43
0.254000
39
0.254000
10
14.325600
20
2.641600
10
9.245600
20
2.641600
0
LWPOLYLINE
5
15D
100
AcDbEntity
8
COPPER_TOP
62
3
100
AcDbPolyline
90
2
70
0
43
0.254000
39
0.254000
10
8.229600
20
3.657600
10
8.229600
20
5.181600
0
HATCH
5
15E
100
AcDbEntity
8
COPPER_TOP
62
3
100
AcDbHatch
10
0.0
20
0.0
30
0.0
210
0.0
220
0.0
230
1.0
2
SOLID
70
1
71
0
91
15
92
1
93
4
72
1
10
26.315157
20
28.319157
11
-2.919157
21
28.319157
72
1
10
-2.919157
20
28.319157
11
-2.919157
21
-0.915157
72
1
10
-2.919157
20
-0.915157
11
26.315157
21
-0.915157
72
1
10
26.315157
20
-0.915157
11
26.315157
21
28.319157
97
0
92
1
93
3
72
2
10
2.641600
20
12.801600
40
1.185418
50
200.769488
51
249.230512
73
0
72
1
10
2.221240
20
13.909983
11
2.221240
21
13.221960
72
1
10
2.221240
20
13.221960
11
1.533217
21
13.221960
97
0
92
1
93
3
72
2
10
2.641600
20
12.801600
40
1.185418
50
290.769488
51
339.230512
73
0
72
1
10
3.749983
20
13.221960
11
3.061960
21
13.221960
72
1
10
3.061960
20
13.221960
11
3.061960
21
13.909983
97
0
92
1
93
3
72
2
10
2.641600
20
12.801600
40
1.185418
50
20.769488
51
69.230512
73
0
72
1
10
3.061960
20
11.693217
11
3.061960
21
12.381240
72
1
10
3.061960
20
12.381240
11
3.749983
21
12.381240
97
0
92
1
93
3
72
2
10
2.641600
20
12.801600
40
1.185418
50
110.769488
51
159.230512
73
0
72
1
10
1.533217
20
12.381240
11
2.221240
21
12.381240
72
1
10
2.221240
20
12.381240
11
2.221240
21
11.693217
97
0
92
1
93
1
72
2
10
2.641600
20
12.801600
40
0.444500
50
0.000000
51
360.000000
73
1
97
0
92
1
93
17
72
1
10
12.979733
20
2.131143
11
9.245600
21
2.131143
72
2
10
9.245600
20
2.641600
40
0.510457
50
90.000000
51
104.423998
73
0
72
2
10
9.245599
20
2.641600
40
0.510457
50
104.423842
51
135.000000
73
0
72
1
10
8.884651
20
2.280653
11
7.868651
21
3.296653
72
2
10
8.229599
20
3.657600
40
0.510457
50
135.000000
51
180.132301
73
0
72
1
10
7.719143
20
3.658779
11
7.719143
21
4.053169
72
2
10
7.890891
20
4.842891
40
0.808182
50
102.269576
51
180.000000
73
0
72
1
10
7.082709
20
4.842891
11
7.082709
21
5.520309
72
2
10
7.890891
20
5.520309
40
0.808182
50
180.000000
51
270.000000
73
0
72
1
10
7.890891
20
6.328491
11
8.568309
21
6.328491
72
2
10
8.568309
20
5.520309
40
0.808182
50
270.000000
51
360.000000
73
0
72
1
10
9.376491
20
5.520309
11
9.376491
21
4.842891
72
2
10
8.568309
20
4.842891
40
0.808182
50
360.000000
51
77.730424
73
0
72
1
10
8.740057
20
4.053169
11
8.740057
21
3.869037
72
1
10
8.740057
20
3.869037
11
9.457037
21
3.152057
72
1
10
9.457037
20
3.152057
11
12.979733
21
3.152057
72
2
10
14.325600
20
2.641600
40
1.439418
50
200.770608
51
159.229392
73
0
97
0
92
1
93
12
72
1
10
18.904345
20
15.131143
11
17.377037
21
15.131143
72
1
10
17.377037
20
15.131143
11
17.227148
21
14.981254
72
2
10
16.865600
20
15.341600
40
0.510457
50
44.904632
51
67.914900
73
0
72
2
10
16.865598
20
15.341599
40
0.510457
50
67.914696
51
90.093715
73
0
72
1
10
16.864763
20
14.831143
11
15.671467
21
14.831143
72
2
10
14.325600
20
15.341600
40
1.439418
50
20.770608
51
339.229392
73
0
72
1
10
15.671467
20
15.852057
11
16.654161
21
15.852057
72
1
10
16.654161
20
15.852057
11
16.804651
21
16.002548
72
2
10
17.165599
20
15.641600
40
0.510457
50
225.000000
51
268.641419
73
0
72
2
10
17.165600
20
15.641600
40
0.510457
50
268.641304
51
270.000000
73
0
72
1
10
17.165600
20
16.152057
11
18.904345
21
16.152057
72
2
10
19.913600
20
15.641600
40
1.131000
50
206.829205
51
153.170795
73
0
97
0
92
1
93
3
72
1
10
2.521893
20
25.094774
11
3.250774
21
25.094774
72
1
10
3.250774
20
25.094774
11
3.250774
21
24.365893
72
2
10
3.393059
20
25.237059
40
0.882709
50
99.276050
51
170.723950
73
0
97
0
92
1
93
3
72
1
10
4.064426
20
24.365893
11
4.064426
21
25.094774
72
1
10
4.064426
20
25.094774
11
4.793307
21
25.094774
72
2
10
3.922141
20
25.237059
40
0.882709
50
9.276050
51
80.723950
73
0
97
0
92
1
93
3
72
1
10
4.793307
20
25.908426
11
4.064426
21
25.908426
72
1
10
4.064426
20
25.908426
11
4.064426
21
26.637307
72
2
10
3.922141
20
25.766141
40
0.882709
50
279.276050
51
350.723950
73
0
97
0
92
1
93
3
72
1
10
3.250774
20
26.637307
11
3.250774
21
25.908426
72
1
10
3.250774
20
25.908426
11
2.521893
21
25.908426
72
2
10
3.393059
20
25.766141
40
0.882709
50
189.276050
51
260.723950
73
0
97
0
92
1
93
1
72
2
10
3.657600
20
25.501600
40
0.497459
50
0.000000
51
360.000000
73
1
97
0
92
1
93
15
72
1
10
12.939141
20
21.943143
11
8.740057
21
21.943143
72
1
10
8.740057
20
21.943143
11
8.740057
21
13.871483
72
2
10
8.229600
20
12.801600
40
1.185418
50
295.506501
51
244.493499
73
0
72
1
10
7.719143
20
13.871483
11
7.719143
21
21.943143
72
1
10
7.719143
20
21.943143
11
7.467600
21
21.943143
72
2
10
7.467600
20
22.453600
40
0.510457
50
90.000000
51
106.808498
73
0
72
2
10
7.467599
20
22.453600
40
0.510457
50
106.808330
51
135.000000
73
0
72
1
10
7.106651
20
22.092653
11
5.836651
21
23.362653
72
2
10
6.197599
20
23.723600
40
0.510457
50
135.000000
51
180.128024
73
0
72
1
10
5.687143
20
23.724741
11
5.687143
21
24.431717
72
2
10
6.197600
20
25.501600
40
1.185418
50
115.506501
51
64.493499
73
0
72
1
10
6.708057
20
24.431717
11
6.708057
21
23.935037
72
1
10
6.708057
20
23.935037
11
7.679037
21
22.964057
72
1
10
7.679037
20
22.964057
11
12.939141
21
22.964057
72
2
10
13.817600
20
22.453600
40
1.016000
50
210.160123
51
149.839877
73
0
97
0
92
1
93
45
72
1
10
21.037148
20
22.813946
11
22.559946
21
21.291148
72
2
10
22.199600
20
20.929600
40
0.510457
50
314.904632
51
360.000000
73
0
72
1
10
22.710057
20
20.929600
11
22.710057
21
6.451600
72
2
10
22.199600
20
6.451600
40
0.510457
50
360.000000
51
45.095368
73
0
72
1
10
22.559946
20
6.090052
11
20.424057
21
3.954163
72
1
10
20.424057
20
3.954163
11
20.424057
21
3.774443
72
1
10
20.424057
20
3.774443
11
20.663600
21
3.774443
72
2
10
20.663600
20
3.391600
40
0.382843
50
270.000000
51
360.000000
73
0
72
1
10
21.046443
20
3.391600
11
21.046443
21
1.891600
72
2
10
20.663600
20
1.891600
40
0.382843
50
360.000000
51
90.000000
73
0
72
1
10
20.663600
20
1.508757
11
20.410504
21
1.508757
72
2
10
19.913600
20
1.625600
40
0.510457
50
13.232249
51
45.095368
73
0
72
1
10
20.273946
20
1.264052
11
19.005148
21
-0.004746
72
2
10
18.643600
20
0.355600
40
0.510457
50
44.904632
51
77.852818
73
0
72
2
10
18.643599
20
0.355600
40
0.510457
50
77.852671
51
90.059396
73
0
72
1
10
18.643070
20
-0.154857
11
4.419600
21
-0.154857
72
2
10
4.419600
20
0.355600
40
0.510457
50
90.000000
51
110.672466
73
0
72
2
10
4.419598
20
0.355601
40
0.510457
50
110.672274
51
135.000000
73
0
72
1
10
4.058651
20
-0.005347
11
2.280651
21
1.772652
72
2
10
2.641599
20
2.133600
40
0.510457
50
135.000000
51
180.119010
73
0
72
1
10
2.131143
20
2.134660
11
2.131143
21
4.053169
72
2
10
2.302891
20
4.842891
40
0.808182
50
102.269576
51
180.000000
73
0
72
1
10
1.494709
20
4.842891
11
1.494709
21
5.520309
72
2
10
2.302891
20
5.520309
40
0.808182
50
180.000000
51
270.000000
73
0
72
1
10
2.302891
20
6.328491
11
2.980309
21
6.328491
72
2
10
2.980309
20
5.520309
40
0.808182
50
270.000000
51
360.000000
73
0
72
1
10
3.788491
20
5.520309
11
3.788491
21
4.842891
72
2
10
2.980309
20
4.842891
40
0.808182
50
360.000000
51
77.730424
73
0
72
1
10
3.152057
20
4.053169
11
3.152057
21
2.345037
72
1
10
3.152057
20
2.345037
11
4.631037
21
0.866057
72
1
10
4.631037
20
0.866057
11
18.432161
21
0.866057
72
1
10
18.432161
20
0.866057
11
19.083363
21
1.517259
72
2
10
19.163600
20
1.891600
40
0.382843
50
102.097817
51
180.000000
73
0
72
1
10
18.780757
20
1.891600
11
18.780757
21
3.391600
72
2
10
19.163600
20
3.391600
40
0.382843
50
180.000000
51
270.000000
73
0
72
1
10
19.163600
20
3.774443
11
19.403143
21
3.774443
72
1
10
19.403143
20
3.774443
11
19.403143
21
4.164307
72
2
10
19.913598
20
4.165599
40
0.510457
50
179.854978
51
225.000000
73
0
72
1
10
19.552651
20
4.526547
11
21.689143
21
6.663039
72
1
10
21.689143
20
6.663039
11
21.689143
21
20.718161
72
1
10
21.689143
20
20.718161
11
20.464161
21
21.943143
72
1
10
20.464161
20
21.943143
11
19.776059
21
21.943143
72
2
10
18.897600
20
22.453600
40
1.016000
50
30.160123
51
329.839877
73
0
72
1
10
19.776059
20
22.964057
11
20.675600
21
22.964057
72
2
10
20.675600
20
22.453600
40
0.510457
50
270.000000
51
315.095368
73
0
97
0
75
0
76
0
98
1
10
0.0
20
0.0
0
ARC
5
15F
100
AcDbEntity
8
COPPER_TOP
62
3
100
AcDbCircle
39
0.254000
10
2.641600
20
12.801600
30
0.0
40
1.185418
100
AcDbArc
50
110.769488
51
159.230512
0
LWPOLYLINE
5
160
100
AcDbEntity
8
COPPER_TOP
62
3
100
AcDbPolyline
90
3
70
0
43
0.254000
39
0.254000
10
2.221240
20
13.909983
10
2.221240
20
13.221960
10
1.533217
20
13.221960
0
ARC
5
161
100
AcDbEntity
8
COPPER_TOP
62
3
100
AcDbCircle
39
0.254000
10
2.641600
20
12.801600
30
0.0
40
1.185418
100
AcDbArc
50
20.769488
51
69.230512
0
LWPOLYLINE
5
162
100
AcDbEntity
8
COPPER_TOP
62
3
100
AcDbPolyline
90
3
70
0
43
0.254000
39
0.254000
10
3.749983
20
13.221960
10
3.061960
20
13.221960
10
3.061960
20
13.909983
0
ARC
5
163
100
AcDbEntity
8
COPPER_TOP
62
3
100
AcDbCircle
39
0.254000
10
2.641600
20
12.801600
30
0.0
40
1.185418
100
AcDbArc
50
290.769488
51
339.230512
0
LWPOLYLINE
5
164
100
AcDbEntity
8
COPPER_TOP
62
3
100
AcDbPolyline
90
3
70
0
43
0.254000
39
0.254000
10
3.061960
20
11.693217
10
3.061960
20
12.381240
10
3.749983
20
12.381240
0
ARC
5
165
100
AcDbEntity
8
COPPER_TOP
62
3
100
AcDbCircle
39
0.254000
10
2.641600
20
12.801600
30
0.0
40
1.185418
100
AcDbArc
50
200.769488
51
249.230512
0
LWPOLYLINE
5
166
100
AcDbEntity
8
COPPER_TOP
62
3
100
AcDbPolyline
90
3
70
0
43
0.254000
39
0.254000
10
1.533217
20
12.381240
10
2.221240
20
12.381240
10
2.221240
20
11.693217
0
CIRCLE
5
167
100
AcDbEntity
8
COPPER_TOP
62
3
100
AcDbCircle
39
0.254000
10
2.641600
20
12.801600
30
0
40
0.444500
0
LWPOLYLINE
5
168
100
AcDbEntity
8
COPPER_TOP
62
3
100
AcDbPolyline
90
2
70
0
43
0.254000
39
0.254000
10
12.979733
20
2.131143
10
9.245600
20
2.131143
0
ARC
5
169
100
AcDbEntity
8
COPPER_TOP
62
3
100
AcDbCircle
39
0.254000
10
9.245600
20
2.641600
30
0.0
40
0.510457
100
AcDbArc
50
255.576002
51
270.000000
0
ARC
5
16A
100
AcDbEntity
8
COPPER_TOP
62
3
100
AcDbCircle
39
0.254000
10
9.245599
20
2.641600
30
0.0
40
0.510457
100
AcDbArc
50
225.000000
51
255.576158
0
LWPOLYLINE
5
16B
100
AcDbEntity
8
COPPER_TOP
62
3
100
AcDbPolyline
90
2
70
0
43
0.254000
39
0.254000
10
8.884651
20
2.280653
10
7.868651
20
3.296653
0
ARC
5
16C
100
AcDbEntity
8
COPPER_TOP
62
3
100
AcDbCircle
39
0.254000
10
8.229599
20
3.657600
30
0.0
40
0.510457
100
AcDbArc
50
179.867699
51
225.000000
0
LWPOLYLINE
5
16D
100
AcDbEntity
8
COPPER_TOP
62
3
100
AcDbPolyline
90
2
70
0
43
0.254000
39
0.254000
10
7.719143
20
3.658779
10
7.719143
20
4.053169
0
ARC
5
16E
100
AcDbEntity
8
COPPER_TOP
62
3
100
AcDbCircle
39
0.254000
10
7.890891
20
4.842891
30
0.0
40
0.808182
100
AcDbArc
50
180.000000
51
257.730424
0
LWPOLYLINE
5
16F
100
AcDbEntity
8
COPPER_TOP
62
3
100
AcDbPolyline
90
2
70
0
43
0.254000
39
0.254000
10
7.082709
20
4.842891
10
7.082709
20
5.520309
0
ARC
5
170
100
AcDbEntity
8
COPPER_TOP
62
3
100
AcDbCircle
39
0.254000
10
7.890891
20
5.520309
30
0.0
40
0.808182
100
AcDbArc
50
90.000000
51
180.000000
0
LWPOLYLINE
5
171
100
AcDbEntity
8
COPPER_TOP
62
3
100
AcDbPolyline
90
2
70
0
43
0.254000
39
0.254000
10
7.890891
20
6.328491
10
8.568309
20
6.328491
0
ARC
5
172
100
AcDbEntity
8
COPPER_TOP
62
3
100
AcDbCircle
39
0.254000
10
8.568309
20
5.520309
30
0.0
40
0.808182
100
AcDbArc
50
0.000000
51
90.000000
0
LWPOLYLINE
5
173
100
AcDbEntity
8
COPPER_TOP
62
3
100
AcDbPolyline
90
2
70
0
43
0.254000
39
0.254000
10
9.376491
20
5.520309
10
9.376491
20
4.842891
0
ARC
5
174
100
AcDbEntity
8
COPPER_TOP
62
3
100
AcDbCircle
39
0.254000
10
8.568309
20
4.842891
30
0.0
40
0.808182
100
AcDbArc
50
282.269576
51
0.000000
0
LWPOLYLINE
5
175
100
AcDbEntity
8
COPPER_TOP
62
3
100
AcDbPolyline
90
4
70
0
43
0.254000
39
0.254000
10
8.740057
20
4.053169
10
8.740057
20
3.869037
10
9.457037
20
3.152057
10
12.979733
20
3.152057
0
ARC
5
176
100
AcDbEntity
8
COPPER_TOP
62
3
100
AcDbCircle
39
0.254000
10
14.325600
20
2.641600
30
0.0
40
1.439418
100
AcDbArc
50
200.770608
51
159.229392
0
LWPOLYLINE
5
177
100
AcDbEntity
8
COPPER_TOP
62
3
100
AcDbPolyline
90
3
70
0
43
0.254000
39
0.254000
10
18.904345
20
15.131143
10
17.377037
20
15.131143
10
17.227148
20
14.981254
0
ARC
5
178
100
AcDbEntity
8
COPPER_TOP
62
3
100
AcDbCircle
39
0.254000
10
16.865600
20
15.341600
30
0.0
40
0.510457
100
AcDbArc
50
292.085100
51
315.095368
0
ARC
5
179
100
AcDbEntity
8
COPPER_TOP
62
3
100
AcDbCircle
39
0.254000
10
16.865598
20
15.341599
30
0.0
40
0.510457
100
AcDbArc
50
269.906285
51
292.085304
0
LWPOLYLINE
5
17A
100
AcDbEntity
8
COPPER_TOP
62
3
100
AcDbPolyline
90
2
70
0
43
0.254000
39
0.254000
10
16.864763
20
14.831143
10
15.671467
20
14.831143
0
ARC
5
17B
100
AcDbEntity
8
COPPER_TOP
62
3
100
AcDbCircle
39
0.254000
10
14.325600
20
15.341600
30
0.0
40
1.439418
100
AcDbArc
50
20.770608
51
339.229392
0
LWPOLYLINE
5
17C
100
AcDbEntity
8
COPPER_TOP
62
3
100
AcDbPolyline
90
3
70
0
43
0.254000
39
0.254000
10
15.671467
20
15.852057
10
16.654161
20
15.852057
10
16.804651
20
16.002548
0
ARC
5
17D
100
AcDbEntity
8
COPPER_TOP
62
3
100
AcDbCircle
39
0.254000
10
17.165599
20
15.641600
30
0.0
40
0.510457
100
AcDbArc
50
91.358581
51
135.000000
0
ARC
5
17E
100
AcDbEntity
8
COPPER_TOP
62
3
100
AcDbCircle
39
0.254000
10
17.165600
20
15.641600
30
0.0
40
0.510457
100
AcDbArc
50
90.000000
51
91.358696
0
LWPOLYLINE
5
17F
100
AcDbEntity
8
COPPER_TOP
62
3
100
AcDbPolyline
90
2
70
0
43
0.254000
39
0.254000
10
17.165600
20
16.152057
10
18.904345
20
16.152057
0
ARC
5
180
100
AcDbEntity
8
COPPER_TOP
62
3
100
AcDbCircle
39
0.254000
10
19.913600
20
15.641600
30
0.0
40
1.131000
100
AcDbArc
50
206.829205
51
153.170795
0
LWPOLYLINE
5
181
100
AcDbEntity
8
COPPER_TOP
62
3
100
AcDbPolyline
90
3
70
0
43
0.254000
39
0.254000
10
2.521893
20
25.094774
10
3.250774
20
25.094774
10
3.250774
20
24.365893
0
ARC
5
182
100
AcDbEntity
8
COPPER_TOP
62
3
100
AcDbCircle
39
0.254000
10
3.393059
20
25.237059
30
0.0
40
0.882709
100
AcDbArc
50
189.276050
51
260.723950
0
LWPOLYLINE
5
183
100
AcDbEntity
8
COPPER_TOP
62
3
100
AcDbPolyline
90
3
70
0
43
0.254000
39
0.254000
10
4.064426
20
24.365893
10
4.064426
20
25.094774
10
4.793307
20
25.094774
0
ARC
5
184
100
AcDbEntity
8
COPPER_TOP
62
3
100
AcDbCircle
39
0.254000
10
3.922141
20
25.237059
30
0.0
40
0.882709
100
AcDbArc
50
279.276050
51
350.723950
0
LWPOLYLINE
5
185
100
AcDbEntity
8
COPPER_TOP
62
3
100
AcDbPolyline
90
3
70
0
43
0.254000
39
0.254000
10
4.793307
20
25.908426
10
4.064426
20
25.908426
10
4.064426
20
26.637307
0
ARC
5
186
100
AcDbEntity
8
COPPER_TOP
62
3
100
AcDbCircle
39
0.254000
10
3.922141
20
25.766141
30
0.0
40
0.882709
100
AcDbArc
50
9.276050
51
80.723950
0
LWPOLYLINE
5
187
100
AcDbEntity
8
COPPER_TOP
62
3
100
AcDbPolyline
90
3
70
0
43
0.254000
39
0.254000
10
3.250774
20
26.637307
10
3.250774
20
25.908426
10
2.521893
20
25.908426
0
ARC
5
188
100
AcDbEntity
8
COPPER_TOP
62
3
100
AcDbCircle
39
0.254000
10
3.393059
20
25.766141
30
0.0
40
0.882709
100
AcDbArc
50
99.276050
51
170.723950
0
CIRCLE
5
189
100
AcDbEntity
8
COPPER_TOP
62
3
100
AcDbCircle
39
0.254000
10
3.657600
20
25.501600
30
0
40
0.497459
0
LWPOLYLINE
5
18A
100
AcDbEntity
8
COPPER_TOP
62
3
100
AcDbPolyline
90
3
70
0
43
0.254000
39
0.254000
10
12.939141
20
21.943143
10
8.740057
20
21.943143
10
8.740057
20
13.871483
0
ARC
5
18B
100
AcDbEntity
8
COPPER_TOP
62
3
100
AcDbCircle
39
0.254000
10
8.229600
20
12.801600
30
0.0
40
1.185418
100
AcDbArc
50
115.506501
51
64.493499
0
LWPOLYLINE
5
18C
100
AcDbEntity
8
COPPER_TOP
62
3
100
AcDbPolyline
90
3
70
0
43
0.254000
39
0.254000
10
7.719143
20
13.871483
10
7.719143
20
21.943143
10
7.467600
20
21.943143
0
ARC
5
18D
100
AcDbEntity
8
COPPER_TOP
62
3
100
AcDbCircle
39
0.254000
10
7.467600
20
22.453600
30
0.0
40
0.510457
100
AcDbArc
50
253.191502
51
270.000000
0
ARC
5
18E
100
AcDbEntity
8
COPPER_TOP
62
3
100
AcDbCircle
39
0.254000
10
7.467599
20
22.453600
30
0.0
40
0.510457
100
AcDbArc
50
225.000000
51
253.191670
0
LWPOLYLINE
5
18F
100
AcDbEntity
8
COPPER_TOP
62
3
100
AcDbPolyline
90
2
70
0
43
0.254000
39
0.254000
10
7.106651
20
22.092653
10
5.836651
20
23.362653
0
ARC
5
190
100
AcDbEntity
8
COPPER_TOP
62
3
100
AcDbCircle
39
0.254000
10
6.197599
20
23.723600
30
0.0
40
0.510457
100
AcDbArc
50
179.871976
51
225.000000
0
LWPOLYLINE
5
191
100
AcDbEntity
8
COPPER_TOP
62
3
100
AcDbPolyline
90
2
70
0
43
0.254000
39
0.254000
10
5.687143
20
23.724741
10
5.687143
20
24.431717
0
ARC
5
192
100
AcDbEntity
8
COPPER_TOP
62
3
100
AcDbCircle
39
0.254000
10
6.197600
20
25.501600
30
0.0
40
1.185418
100
AcDbArc
50
295.506501
51
244.493499
0
LWPOLYLINE
5
193
100
AcDbEntity
8
COPPER_TOP
62
3
100
AcDbPolyline
90
4
70
0
43
0.254000
39
0.254000
10
6.708057
20
24.431717
10
6.708057
20
23.935037
10
7.679037
20
22.964057
10
12.939141
20
22.964057
0
ARC
5
194
100
AcDbEntity
8
COPPER_TOP
62
3
100
AcDbCircle
39
0.254000
10
13.817600
20
22.453600
30
0.0
40
1.016000
100
AcDbArc
50
210.160123
51
149.839877
0
LWPOLYLINE
5
195
100
AcDbEntity
8
COPPER_TOP
62
3
100
AcDbPolyline
90
2
70
0
43
0.254000
39
0.254000
10
21.037148
20
22.813946
10
22.559946
20
21.291148
0
ARC
5
196
100
AcDbEntity
8
COPPER_TOP
62
3
100
AcDbCircle
39
0.254000
10
22.199600
20
20.929600
30
0.0
40
0.510457
100
AcDbArc
50
0.000000
51
45.095368
0
LWPOLYLINE
5
197
100
AcDbEntity
8
COPPER_TOP
62
3
100
AcDbPolyline
90
2
70
0
43
0.254000
39
0.254000
10
22.710057
20
20.929600
10
22.710057
20
6.451600
0
ARC
5
198
100
AcDbEntity
8
COPPER_TOP
62
3
100
AcDbCircle
39
0.254000
10
22.199600
20
6.451600
30
0.0
40
0.510457
100
AcDbArc
50
314.904632
51
0.000000
0
LWPOLYLINE
5
199
100
AcDbEntity
8
COPPER_TOP
62
3
100
AcDbPolyline
90
4
70
0
43
0.254000
39
0.254000
10
22.559946
20
6.090052
10
20.424057
20
3.954163
10
20.424057
20
3.774443
10
20.663600
20
3.774443
0
ARC
5
19A
100
AcDbEntity
8
COPPER_TOP
62
3
100
AcDbCircle
39
0.254000
10
20.663600
20
3.391600
30
0.0
40
0.382843
100
AcDbArc
50
0.000000
51
90.000000
0
LWPOLYLINE
5
19B
100
AcDbEntity
8
COPPER_TOP
62
3
100
AcDbPolyline
90
2
70
0
43
0.254000
39
0.254000
10
21.046443
20
3.391600
10
21.046443
20
1.891600
0
ARC
5
19C
100
AcDbEntity
8
COPPER_TOP
62
3
100
AcDbCircle
39
0.254000
10
20.663600
20
1.891600
30
0.0
40
0.382843
100
AcDbArc
50
270.000000
51
0.000000
0
LWPOLYLINE
5
19D
100
AcDbEntity
8
COPPER_TOP
62
3
100
AcDbPolyline
90
2
70
0
43
0.254000
39
0.254000
10
20.663600
20
1.508757
10
20.410504
20
1.508757
0
ARC
5
19E
100
AcDbEntity
8
COPPER_TOP
62
3
100
AcDbCircle
39
0.254000
10
19.913600
20
1.625600
30
0.0
40
0.510457
100
AcDbArc
50
314.904632
51
346.767751
0
LWPOLYLINE
5
19F
100
AcDbEntity
8
COPPER_TOP
62
3
100
AcDbPolyline
90
2
70
0
43
0.254000
39
0.254000
10
20.273946
20
1.264052
10
19.005148
20
-0.004746
0
ARC
5
1A0
100
AcDbEntity
8
COPPER_TOP
62
3
100
AcDbCircle
39
0.254000
10
18.643600
20
0.355600
30
0.0
40
0.510457
100
AcDbArc
50
282.147182
51
315.095368
0
ARC
5
1A1
100
AcDbEntity
8
COPPER_TOP
62
3
100
AcDbCircle
39
0.254000
10
18.643599
20
0.355600
30
0.0
40
0.510457
100
AcDbArc
50
269.940604
51
282.147329
0
LWPOLYLINE
5
1A2
100
AcDbEntity
8
COPPER_TOP
62
3
100
AcDbPolyline
90
2
70
0
43
0.254000
39
0.254000
10
18.643070
20
-0.154857
10
4.419600
20
-0.154857
0
ARC
5
1A3
100
AcDbEntity
8
COPPER_TOP
62
3
100
AcDbCircle
39
0.254000
10
4.419600
20
0.355600
30
0.0
40
0.510457
100
AcDbArc
50
249.327534
51
270.000000
0
ARC
5
1A4
100
AcDbEntity
8
COPPER_TOP
62
3
100
AcDbCircle
39
0.254000
10
4.419598
20
0.355601
30
0.0
40
0.510457
100
AcDbArc
50
225.000000
51
249.327726
0
LWPOLYLINE
5
1A5
100
AcDbEntity
8
COPPER_TOP
62
3
100
AcDbPolyline
90
2
70
0
43
0.254000
39
0.254000
10
4.058651
20
-0.005347
10
2.280651
20
1.772652
0
ARC
5
1A6
100
AcDbEntity
8
COPPER_TOP
62
3
100
AcDbCircle
39
0.254000
10
2.641599
20
2.133600
30
0.0
40
0.510457
100
AcDbArc
50
179.880990
51
225.000000
0
LWPOLYLINE
5
1A7
100
AcDbEntity
8
COPPER_TOP
62
3
100
AcDbPolyline
90
2
70
0
43
0.254000
39
0.254000
10
2.131143
20
2.134660
10
2.131143
20
4.053169
0
ARC
5
1A8
100
AcDbEntity
8
COPPER_TOP
62
3
100
AcDbCircle
39
0.254000
10
2.302891
20
4.842891
30
0.0
40
0.808182
100
AcDbArc
50
180.000000
51
257.730424
0
LWPOLYLINE
5
1A9
100
AcDbEntity
8
COPPER_TOP
62
3
100
AcDbPolyline
90
2
70
0
43
0.254000
39
0.254000
10
1.494709
20
4.842891
10
1.494709
20
5.520309
0
ARC
5
1AA
100
AcDbEntity
8
COPPER_TOP
62
3
100
AcDbCircle
39
0.254000
10
2.302891
20
5.520309
30
0.0
40
0.808182
100
AcDbArc
50
90.000000
51
180.000000
0
LWPOLYLINE
5
1AB
100
AcDbEntity
8
COPPER_TOP
62
3
100
AcDbPolyline
90
2
70
0
43
0.254000
39
0.254000
10
2.302891
20
6.328491
10
2.980309
20
6.328491
0
ARC
5
1AC
100
AcDbEntity
8
COPPER_TOP
62
3
100
AcDbCircle
39
0.254000
10
2.980309
20
5.520309
30
0.0
40
0.808182
100
AcDbArc
50
0.000000
51
90.000000
0
LWPOLYLINE
5
1AD
100
AcDbEntity
8
COPPER_TOP
62
3
100
AcDbPolyline
90
2
70
0
43
0.254000
39
0.254000
10
3.788491
20
5.520309
10
3.788491
20
4.842891
0
ARC
5
1AE
100
AcDbEntity
8
COPPER_TOP
62
3
100
AcDbCircle
39
0.254000
10
2.980309
20
4.842891
30
0.0
40
0.808182
100
AcDbArc
50
282.269576
51
0.000000
0
LWPOLYLINE
5
1AF
100
AcDbEntity
8
COPPER_TOP
62
3
100
AcDbPolyline
90
5
70
0
43
0.254000
39
0.254000
10
3.152057
20
4.053169
10
3.152057
20
2.345037
10
4.631037
20
0.866057
10
18.432161
20
0.866057
10
19.083363
20
1.517259
0
ARC
5
1B0
100
AcDbEntity
8
COPPER_TOP
62
3
100
AcDbCircle
39
0.254000
10
19.163600
20
1.891600
30
0.0
40
0.382843
100
AcDbArc
50
180.000000
51
257.902183
0
LWPOLYLINE
5
1B1
100
AcDbEntity
8
COPPER_TOP
62
3
100
AcDbPolyline
90
2
70
0
43
0.254000
39
0.254000
10
18.780757
20
1.891600
10
18.780757
20
3.391600
0
ARC
5
1B2
100
AcDbEntity
8
COPPER_TOP
62
3
100
AcDbCircle
39
0.254000
10
19.163600
20
3.391600
30
0.0
40
0.382843
100
AcDbArc
50
90.000000
51
180.000000
0
LWPOLYLINE
5
1B3
100
AcDbEntity
8
COPPER_TOP
62
3
100
AcDbPolyline
90
3
70
0
43
0.254000
39
0.254000
10
19.163600
20
3.774443
10
19.403143
20
3.774443
10
19.403143
20
4.164307
0
ARC
5
1B4
100
AcDbEntity
8
COPPER_TOP
62
3
100
AcDbCircle
39
0.254000
10
19.913598
20
4.165599
30
0.0
40
0.510457
100
AcDbArc
50
135.000000
51
180.145022
0
LWPOLYLINE
5
1B5
100
AcDbEntity
8
COPPER_TOP
62
3
100
AcDbPolyline
90
5
70
0
43
0.254000
39
0.254000
10
19.552651
20
4.526547
10
21.689143
20
6.663039
10
21.689143
20
20.718161
10
20.464161
20
21.943143
10
19.776059
20
21.943143
0
ARC
5
1B6
100
AcDbEntity
8
COPPER_TOP
62
3
100
AcDbCircle
39
0.254000
10
18.897600
20
22.453600
30
0.0
40
1.016000
100
AcDbArc
50
30.160123
51
329.839877
0
LWPOLYLINE
5
1B7
100
AcDbEntity
8
COPPER_TOP
62
3
100
AcDbPolyline
90
2
70
0
43
0.254000
39
0.254000
10
19.776059
20
22.964057
10
20.675600
20
22.964057
0
ARC
5
1B8
100
AcDbEntity
8
COPPER_TOP
62
3
100
AcDbCircle
39
0.254000
10
20.675600
20
22.453600
30
0.0
40
0.510457
100
AcDbArc
50
44.904632
51
90.000000
0
LWPOLYLINE
5
1B9
100
AcDbEntity
8
COPPER_TOP
62
3
100
AcDbPolyline
90
5
70
0
43
0.254000
39
0.254000
10
26.315157
20
28.319157
10
-2.919157
20
28.319157
10
-2.919157
20
-0.915157
10
26.315157
20
-0.915157
10
26.315157
20
28.319157
0
LWPOLYLINE
5
1BA
100
AcDbEntity
8
COPPER_TOP
62
3
100
AcDbPolyline
90
2
70
0
43
0.254000
39
0.254000
10
19.913600
20
1.625600
10
18.643600
20
0.355600
0
LWPOLYLINE
5
1BB
100
AcDbEntity
8
COPPER_TOP
62
3
100
AcDbPolyline
90
2
70
0
43
0.254000
39
0.254000
10
4.419600
20
0.355600
10
2.641600
20
2.133600
0
LWPOLYLINE
5
1BC
100
AcDbEntity
8
COPPER_TOP
62
3
100
AcDbPolyline
90
2
70
0
43
0.254000
39
0.254000
10
2.641600
20
2.133600
10
2.641600
20
5.181600
0
LWPOLYLINE
5
1BD
100
AcDbEntity
8
COPPER_TOP
62
3
100
AcDbPolyline
90
2
70
0
43
0.254000
39
0.254000
10
18.643600
20
0.355600
10
4.419600
20
0.355600
0
LWPOLYLINE
5
1BE
100
AcDbEntity
8
COPPER_TOP
62
3
100
AcDbPolyline
90
2
70
0
43
0.254000
39
0.254000
10
7.467600
20
22.453600
10
6.197600
20
23.723600
0
LWPOLYLINE
5
1BF
100
AcDbEntity
8
COPPER_TOP
62
3
100
AcDbPolyline
90
2
70
0
43
0.254000
39
0.254000
10
6.197600
20
23.723600
10
6.197600
20
25.501600
0
LWPOLYLINE
5
1C0
100
AcDbEntity
8
COPPER_TOP
62
3
100
AcDbPolyline
90
2
70
0
43
0.254000
39
0.254000
10
13.817600
20
22.453600
10
7.467600
20
22.453600
0
LWPOLYLINE
5
1C1
100
AcDbEntity
8
COPPER_TOP
62
3
100
AcDbPolyline
90
2
70
0
43
0.254000
39
0.254000
10
8.229600
20
22.453600
10
8.229600
20
12.801600
0
HATCH
5
1C2
100
AcDbEntity
8
COPPER_TOP
100
AcDbHatch
10
0.0
20
0.0
30
0.0
210
0.0
220
0.0
230
1.0
2
SOLID
70
1
71
0
91
2
92
1
93
1
72
2
10
13.817600
20
22.453600
40
0.635000
50
0.000000
51
360.000000
73
1
97
0
92
1
93
1
72
2
10
13.817600
20
22.453600
40
0.444500
50
0.000000
51
360.000000
73
1
97
0
75
0
76
0
98
1
10
0.0
20
0.0
0
HATCH
5
1C3
100
AcDbEntity
8
COPPER_TOP
100
AcDbHatch
10
0.0
20
0.0
30
0.0
210
0.0
220
0.0
230
1.0
2
SOLID
70
1
71
0
91
2
92
1
93
1
72
2
10
18.897600
20
22.453600
40
0.635000
50
0.000000
51
360.000000
73
1
97
0
92
1
93
1
72
2
10
18.897600
20
22.453600
40
0.444500
50
0.000000
51
360.000000
73
1
97
0
75
0
76
0
98
1
10
0.0
20
0.0
0
HATCH
5
1C4
100
AcDbEntity
8
COPPER_TOP
100
AcDbHatch
10
0.0
20
0.0
30
0.0
210
0.0
220
0.0
230
1.0
2
SOLID
70
1
71
0
91
2
92
1
93
1
72
2
10
14.325600
20
15.341600
40
1.058418
50
0.000000
51
360.000000
73
1
97
0
92
1
93
1
72
2
10
14.325600
20
15.341600
40
0.550291
50
0.000000
51
360.000000
73
1
97
0
75
0
76
0
98
1
10
0.0
20
0.0
0
HATCH
5
1C5
100
AcDbEntity
8
COPPER_TOP
100
AcDbHatch
10
0.0
20
0.0
30
0.0
210
0.0
220
0.0
230
1.0
2
SOLID
70
1
71
0
91
2
92
1
93
1
72
2
10
14.325600
20
2.641600
40
1.058418
50
0.000000
51
360.000000
73
1
97
0
92
1
93
1
72
2
10
14.325600
20
2.641600
40
0.550291
50
0.000000
51
360.000000
73
1
97
0
75
0
76
0
98
1
10
0.0
20
0.0
0
HATCH
5
1C6
100
AcDbEntity
8
COPPER_TOP
100
AcDbHatch
10
0.0
20
0.0
30
0.0
210
0.0
220
0.0
230
1.0
2
SOLID
70
1
71
0
91
2
92
1
93
8
72
1
10
1.879600
20
5.520309
11
1.879600
21
4.842891
72
2
10
2.302891
20
4.842891
40
0.423291
50
180.000000
51
270.000000
73
1
72
1
10
2.302891
20
4.419600
11
2.980309
21
4.419600
72
2
10
2.980309
20
4.842891
40
0.423291
50
270.000000
51
0.000000
73
1
72
1
10
3.403600
20
4.842891
11
3.403600
21
5.520309
72
2
10
2.980309
20
5.520309
40
0.423291
50
0.000000
51
90.000000
73
1
72
1
10
2.980309
20
5.943600
11
2.302891
21
5.943600
72
2
10
2.302891
20
5.520309
40
0.423291
50
90.000000
51
180.000000
73
1
97
0
92
1
93
1
72
2
10
2.641600
20
5.181600
40
0.423291
50
0.000000
51
360.000000
73
1
97
0
75
0
76
0
98
1
10
0.0
20
0.0
0
HATCH
5
1C7
100
AcDbEntity
8
COPPER_TOP
100
AcDbHatch
10
0.0
20
0.0
30
0.0
210
0.0
220
0.0
230
1.0
2
SOLID
70
1
71
0
91
2
92
1
93
1
72
2
10
2.641600
20
12.801600
40
0.804418
50
0.000000
51
360.000000
73
1
97
0
92
1
93
1
72
2
10
2.641600
20
12.801600
40
0.444500
50
0.000000
51
360.000000
73
1
97
0
75
0
76
0
98
1
10
0.0
20
0.0
0
HATCH
5
1C8
100
AcDbEntity
8
COPPER_TOP
100
AcDbHatch
10
0.0
20
0.0
30
0.0
210
0.0
220
0.0
230
1.0
2
SOLID
70
1
71
0
91
2
92
1
93
8
72
1
10
2.895600
20
25.766141
11
2.895600
21
25.237059
72
2
10
3.393059
20
25.237059
40
0.497459
50
180.000000
51
270.000000
73
1
72
1
10
3.393059
20
24.739600
11
3.922141
21
24.739600
72
2
10
3.922141
20
25.237059
40
0.497459
50
270.000000
51
0.000000
73
1
72
1
10
4.419600
20
25.237059
11
4.419600
21
25.766141
72
2
10
3.922141
20
25.766141
40
0.497459
50
0.000000
51
90.000000
73
1
72
1
10
3.922141
20
26.263600
11
3.393059
21
26.263600
72
2
10
3.393059
20
25.766141
40
0.497459
50
90.000000
51
180.000000
73
1
97
0
92
1
93
1
72
2
10
3.657600
20
25.501600
40
0.497459
50
0.000000
51
360.000000
73
1
97
0
75
0
76
0
98
1
10
0.0
20
0.0
0
HATCH
5
1C9
100
AcDbEntity
8
COPPER_TOP
100
AcDbHatch
10
0.0
20
0.0
30
0.0
210
0.0
220
0.0
230
1.0
2
SOLID
70
1
71
0
91
2
92
1
93
1
72
2
10
6.197600
20
25.501600
40
0.804418
50
0.000000
51
360.000000
73
1
97
0
92
1
93
1
72
2
10
6.197600
20
25.501600
40
0.444500
50
0.000000
51
360.000000
73
1
97
0
75
0
76
0
98
1
10
0.0
20
0.0
0
HATCH
5
1CA
100
AcDbEntity
8
COPPER_TOP
100
AcDbHatch
10
0.0
20
0.0
30
0.0
210
0.0
220
0.0
230
1.0
2
SOLID
70
1
71
0
91
2
92
1
93
1
72
2
10
8.229600
20
12.801600
40
0.804418
50
0.000000
51
360.000000
73
1
97
0
92
1
93
1
72
2
10
8.229600
20
12.801600
40
0.444500
50
0.000000
51
360.000000
73
1
97
0
75
0
76
0
98
1
10
0.0
20
0.0
0
HATCH
5
1CB
100
AcDbEntity
8
COPPER_TOP
100
AcDbHatch
10
0.0
20
0.0
30
0.0
210
0.0
220
0.0
230
1.0
2
SOLID
70
1
71
0
91
2
92
1
93
8
72
1
10
7.467600
20
5.520309
11
7.467600
21
4.842891
72
2
10
7.890891
20
4.842891
40
0.423291
50
180.000000
51
270.000000
73
1
72
1
10
7.890891
20
4.419600
11
8.568309
21
4.419600
72
2
10
8.568309
20
4.842891
40
0.423291
50
270.000000
51
0.000000
73
1
72
1
10
8.991600
20
4.842891
11
8.991600
21
5.520309
72
2
10
8.568309
20
5.520309
40
0.423291
50
0.000000
51
90.000000
73
1
72
1
10
8.568309
20
5.943600
11
7.890891
21
5.943600
72
2
10
7.890891
20
5.520309
40
0.423291
50
90.000000
51
180.000000
73
1
97
0
92
1
93
1
72
2
10
8.229600
20
5.181600
40
0.423291
50
0.000000
51
360.000000
73
1
97
0
75
0
76
0
98
1
10
0.0
20
0.0
0
HATCH
5
1CC
100
AcDbEntity
8
COPPER_TOP
100
AcDbHatch
10
0.0
20
0.0
30
0.0
210
0.0
220
0.0
230
1.0
2
SOLID
70
1
71
0
91
2
92
1
93
1
72
2
10
19.913600
20
15.641600
40
0.750000
50
0.000000
51
360.000000
73
1
97
0
92
1
93
1
72
2
10
19.913600
20
15.641600
40
0.450000
50
0.000000
51
360.000000
73
1
97
0
75
0
76
0
98
1
10
0.0
20
0.0
0
HATCH
5
1CD
100
AcDbEntity
8
COPPER_TOP
100
AcDbHatch
10
0.0
20
0.0
30
0.0
210
0.0
220
0.0
230
1.0
2
SOLID
70
1
71
0
91
2
92
1
93
4
72
1
10
20.663600
20
1.891600
11
19.163600
21
1.891600
72
1
10
19.163600
20
1.891600
11
19.163600
21
3.391600
72
1
10
19.163600
20
3.391600
11
20.663600
21
3.391600
72
1
10
20.663600
20
3.391600
11
20.663600
21
1.891600
97
0
92
1
93
1
72
2
10
19.913600
20
2.641600
40
0.450000
50
0.000000
51
360.000000
73
1
97
0
75
0
76
0
98
1
10
0.0
20
0.0
0
HATCH
5
1CE
100
AcDbEntity
8
DRILL
62
255
100
AcDbHatch
10
0.0
20
0.0
30
0.0
210
0.0
220
0.0
230
1.0
2
SOLID
70
1
71
0
91
1
92
1
93
1
72
2
10
13.817600
20
22.453600
40
0.444500
50
0.000000
51
360.000000
73
1
97
0
75
0
76
0
98
1
10
0.0
20
0.0
0
CIRCLE
5
1CF
100
AcDbEntity
8
DRILL
62
255
100
AcDbCircle
39
0.000001
10
13.817600
20
22.453600
30
0
40
0.444500
0
HATCH
5
1D0
100
AcDbEntity
8
DRILL
62
255
100
AcDbHatch
10
0.0
20
0.0
30
0.0
210
0.0
220
0.0
230
1.0
2
SOLID
70
1
71
0
91
1
92
1
93
1
72
2
10
18.897600
20
22.453600
40
0.444500
50
0.000000
51
360.000000
73
1
97
0
75
0
76
0
98
1
10
0.0
20
0.0
0
CIRCLE
5
1D1
100
AcDbEntity
8
DRILL
62
255
100
AcDbCircle
39
0.000001
10
18.897600
20
22.453600
30
0
40
0.444500
0
HATCH
5
1D2
100
AcDbEntity
8
DRILL
62
255
100
AcDbHatch
10
0.0
20
0.0
30
0.0
210
0.0
220
0.0
230
1.0
2
SOLID
70
1
71
0
91
1
92
1
93
1
72
2
10
14.325600
20
15.341600
40
0.550291
50
0.000000
51
360.000000
73
1
97
0
75
0
76
0
98
1
10
0.0
20
0.0
0
CIRCLE
5
1D3
100
AcDbEntity
8
DRILL
62
255
100
AcDbCircle
39
0.000001
10
14.325600
20
15.341600
30
0
40
0.550291
0
HATCH
5
1D4
100
AcDbEntity
8
DRILL
62
255
100
AcDbHatch
10
0.0
20
0.0
30
0.0
210
0.0
220
0.0
230
1.0
2
SOLID
70
1
71
0
91
1
92
1
93
1
72
2
10
14.325600
20
2.641600
40
0.550291
50
0.000000
51
360.000000
73
1
97
0
75
0
76
0
98
1
10
0.0
20
0.0
0
CIRCLE
5
1D5
100
AcDbEntity
8
DRILL
62
255
100
AcDbCircle
39
0.000001
10
14.325600
20
2.641600
30
0
40
0.550291
0
HATCH
5
1D6
100
AcDbEntity
8
DRILL
62
255
100
AcDbHatch
10
0.0
20
0.0
30
0.0
210
0.0
220
0.0
230
1.0
2
SOLID
70
1
71
0
91
1
92
1
93
1
72
2
10
2.641600
20
5.181600
40
0.423291
50
0.000000
51
360.000000
73
1
97
0
75
0
76
0
98
1
10
0.0
20
0.0
0
CIRCLE
5
1D7
100
AcDbEntity
8
DRILL
62
255
100
AcDbCircle
39
0.000001
10
2.641600
20
5.181600
30
0
40
0.423291
0
HATCH
5
1D8
100
AcDbEntity
8
DRILL
62
255
100
AcDbHatch
10
0.0
20
0.0
30
0.0
210
0.0
220
0.0
230
1.0
2
SOLID
70
1
71
0
91
1
92
1
93
1
72
2
10
2.641600
20
12.801600
40
0.444500
50
0.000000
51
360.000000
73
1
97
0
75
0
76
0
98
1
10
0.0
20
0.0
0
CIRCLE
5
1D9
100
AcDbEntity
8
DRILL
62
255
100
AcDbCircle
39
0.000001
10
2.641600
20
12.801600
30
0
40
0.444500
0
HATCH
5
1DA
100
AcDbEntity
8
DRILL
62
255
100
AcDbHatch
10
0.0
20
0.0
30
0.0
210
0.0
220
0.0
230
1.0
2
SOLID
70
1
71
0
91
1
92
1
93
1
72
2
10
3.657600
20
25.501600
40
0.497459
50
0.000000
51
360.000000
73
1
97
0
75
0
76
0
98
1
10
0.0
20
0.0
0
CIRCLE
5
1DB
100
AcDbEntity
8
DRILL
62
255
100
AcDbCircle
39
0.000001
10
3.657600
20
25.501600
30
0
40
0.497459
0
HATCH
5
1DC
100
AcDbEntity
8
DRILL
62
255
100
AcDbHatch
10
0.0
20
0.0
30
0.0
210
0.0
220
0.0
230
1.0
2
SOLID
70
1
71
0
91
1
92
1
93
1
72
2
10
6.197600
20
25.501600
40
0.444500
50
0.000000
51
360.000000
73
1
97
0
75
0
76
0
98
1
10
0.0
20
0.0
0
CIRCLE
5
1DD
100
AcDbEntity
8
DRILL
62
255
100
AcDbCircle
39
0.000001
10
6.197600
20
25.501600
30
0
40
0.444500
0
HATCH
5
1DE
100
AcDbEntity
8
DRILL
62
255
100
AcDbHatch
10
0.0
20
0.0
30
0.0
210
0.0
220
0.0
230
1.0
2
SOLID
70
1
71
0
91
1
92
1
93
1
72
2
10
8.229600
20
12.801600
40
0.444500
50
0.000000
51
360.000000
73
1
97
0
75
0
76
0
98
1
10
0.0
20
0.0
0
CIRCLE
5
1DF
100
AcDbEntity
8
DRILL
62
255
100
AcDbCircle
39
0.000001
10
8.229600
20
12.801600
30
0
40
0.444500
0
HATCH
5
1E0
100
AcDbEntity
8
DRILL
62
255
100
AcDbHatch
10
0.0
20
0.0
30
0.0
210
0.0
220
0.0
230
1.0
2
SOLID
70
1
71
0
91
1
92
1
93
1
72
2
10
8.229600
20
5.181600
40
0.423291
50
0.000000
51
360.000000
73
1
97
0
75
0
76
0
98
1
10
0.0
20
0.0
0
CIRCLE
5
1E1
100
AcDbEntity
8
DRILL
62
255
100
AcDbCircle
39
0.000001
10
8.229600
20
5.181600
30
0
40
0.423291
0
HATCH
5
1E2
100
AcDbEntity
8
DRILL
62
255
100
AcDbHatch
10
0.0
20
0.0
30
0.0
210
0.0
220
0.0
230
1.0
2
SOLID
70
1
71
0
91
1
92
1
93
1
72
2
10
19.913600
20
15.641600
40
0.450000
50
0.000000
51
360.000000
73
1
97
0
75
0
76
0
98
1
10
0.0
20
0.0
0
CIRCLE
5
1E3
100
AcDbEntity
8
DRILL
62
255
100
AcDbCircle
39
0.000001
10
19.913600
20
15.641600
30
0
40
0.450000
0
HATCH
5
1E4
100
AcDbEntity
8
DRILL
62
255
100
AcDbHatch
10
0.0
20
0.0
30
0.0
210
0.0
220
0.0
230
1.0
2
SOLID
70
1
71
0
91
1
92
1
93
1
72
2
10
19.913600
20
2.641600
40
0.450000
50
0.000000
51
360.000000
73
1
97
0
75
0
76
0
98
1
10
0.0
20
0.0
0
CIRCLE
5
1E5
100
AcDbEntity
8
DRILL
62
255
100
AcDbCircle
39
0.000001
10
19.913600
20
2.641600
30
0
40
0.450000
0
HATCH
5
1E6
100
AcDbEntity
8
SOLDER_MASK_TOP
100
AcDbHatch
10
0.0
20
0.0
30
0.0
210
0.0
220
0.0
230
1.0
2
SOLID
70
1
71
0
91
2
92
1
93
1
72
2
10
13.817600
20
22.453600
40
0.635000
50
0.000000
51
360.000000
73
1
97
0
92
1
93
1
72
2
10
13.817600
20
22.453600
40
0.444500
50
0.000000
51
360.000000
73
1
97
0
75
0
76
0
98
1
10
0.0
20
0.0
0
HATCH
5
1E7
100
AcDbEntity
8
SOLDER_MASK_TOP
100
AcDbHatch
10
0.0
20
0.0
30
0.0
210
0.0
220
0.0
230
1.0
2
SOLID
70
1
71
0
91
2
92
1
93
1
72
2
10
18.897600
20
22.453600
40
0.635000
50
0.000000
51
360.000000
73
1
97
0
92
1
93
1
72
2
10
18.897600
20
22.453600
40
0.444500
50
0.000000
51
360.000000
73
1
97
0
75
0
76
0
98
1
10
0.0
20
0.0
0
HATCH
5
1E8
100
AcDbEntity
8
SOLDER_MASK_TOP
100
AcDbHatch
10
0.0
20
0.0
30
0.0
210
0.0
220
0.0
230
1.0
2
SOLID
70
1
71
0
91
2
92
1
93
1
72
2
10
14.325600
20
15.341600
40
1.058418
50
0.000000
51
360.000000
73
1
97
0
92
1
93
1
72
2
10
14.325600
20
15.341600
40
0.550291
50
0.000000
51
360.000000
73
1
97
0
75
0
76
0
98
1
10
0.0
20
0.0
0
HATCH
5
1E9
100
AcDbEntity
8
SOLDER_MASK_TOP
100
AcDbHatch
10
0.0
20
0.0
30
0.0
210
0.0
220
0.0
230
1.0
2
SOLID
70
1
71
0
91
2
92
1
93
1
72
2
10
14.325600
20
2.641600
40
1.058418
50
0.000000
51
360.000000
73
1
97
0
92
1
93
1
72
2
10
14.325600
20
2.641600
40
0.550291
50
0.000000
51
360.000000
73
1
97
0
75
0
76
0
98
1
10
0.0
20
0.0
0
HATCH
5
1EA
100
AcDbEntity
8
SOLDER_MASK_TOP
100
AcDbHatch
10
0.0
20
0.0
30
0.0
210
0.0
220
0.0
230
1.0
2
SOLID
70
1
71
0
91
2
92
1
93
8
72
1
10
1.879600
20
5.520309
11
1.879600
21
4.842891
72
2
10
2.302891
20
4.842891
40
0.423291
50
180.000000
51
270.000000
73
1
72
1
10
2.302891
20
4.419600
11
2.980309
21
4.419600
72
2
10
2.980309
20
4.842891
40
0.423291
50
270.000000
51
0.000000
73
1
72
1
10
3.403600
20
4.842891
11
3.403600
21
5.520309
72
2
10
2.980309
20
5.520309
40
0.423291
50
0.000000
51
90.000000
73
1
72
1
10
2.980309
20
5.943600
11
2.302891
21
5.943600
72
2
10
2.302891
20
5.520309
40
0.423291
50
90.000000
51
180.000000
73
1
97
0
92
1
93
1
72
2
10
2.641600
20
5.181600
40
0.423291
50
0.000000
51
360.000000
73
1
97
0
75
0
76
0
98
1
10
0.0
20
0.0
0
HATCH
5
1EB
100
AcDbEntity
8
SOLDER_MASK_TOP
100
AcDbHatch
10
0.0
20
0.0
30
0.0
210
0.0
220
0.0
230
1.0
2
SOLID
70
1
71
0
91
2
92
1
93
1
72
2
10
2.641600
20
12.801600
40
0.804418
50
0.000000
51
360.000000
73
1
97
0
92
1
93
1
72
2
10
2.641600
20
12.801600
40
0.444500
50
0.000000
51
360.000000
73
1
97
0
75
0
76
0
98
1
10
0.0
20
0.0
0
HATCH
5
1EC
100
AcDbEntity
8
SOLDER_MASK_TOP
100
AcDbHatch
10
0.0
20
0.0
30
0.0
210
0.0
220
0.0
230
1.0
2
SOLID
70
1
71
0
91
2
92
1
93
8
72
1
10
2.895600
20
25.766141
11
2.895600
21
25.237059
72
2
10
3.393059
20
25.237059
40
0.497459
50
180.000000
51
270.000000
73
1
72
1
10
3.393059
20
24.739600
11
3.922141
21
24.739600
72
2
10
3.922141
20
25.237059
40
0.497459
50
270.000000
51
0.000000
73
1
72
1
10
4.419600
20
25.237059
11
4.419600
21
25.766141
72
2
10
3.922141
20
25.766141
40
0.497459
50
0.000000
51
90.000000
73
1
72
1
10
3.922141
20
26.263600
11
3.393059
21
26.263600
72
2
10
3.393059
20
25.766141
40
0.497459
50
90.000000
51
180.000000
73
1
97
0
92
1
93
1
72
2
10
3.657600
20
25.501600
40
0.497459
50
0.000000
51
360.000000
73
1
97
0
75
0
76
0
98
1
10
0.0
20
0.0
0
HATCH
5
1ED
100
AcDbEntity
8
SOLDER_MASK_TOP
100
AcDbHatch
10
0.0
20
0.0
30
0.0
210
0.0
220
0.0
230
1.0
2
SOLID
70
1
71
0
91
2
92
1
93
1
72
2
10
6.197600
20
25.501600
40
0.804418
50
0.000000
51
360.000000
73
1
97
0
92
1
93
1
72
2
10
6.197600
20
25.501600
40
0.444500
50
0.000000
51
360.000000
73
1
97
0
75
0
76
0
98
1
10
0.0
20
0.0
0
HATCH
5
1EE
100
AcDbEntity
8
SOLDER_MASK_TOP
100
AcDbHatch
10
0.0
20
0.0
30
0.0
210
0.0
220
0.0
230
1.0
2
SOLID
70
1
71
0
91
2
92
1
93
1
72
2
10
8.229600
20
12.801600
40
0.804418
50
0.000000
51
360.000000
73
1
97
0
92
1
93
1
72
2
10
8.229600
20
12.801600
40
0.444500
50
0.000000
51
360.000000
73
1
97
0
75
0
76
0
98
1
10
0.0
20
0.0
0
HATCH
5
1EF
100
AcDbEntity
8
SOLDER_MASK_TOP
100
AcDbHatch
10
0.0
20
0.0
30
0.0
210
0.0
220
0.0
230
1.0
2
SOLID
70
1
71
0
91
2
92
1
93
8
72
1
10
7.467600
20
5.520309
11
7.467600
21
4.842891
72
2
10
7.890891
20
4.842891
40
0.423291
50
180.000000
51
270.000000
73
1
72
1
10
7.890891
20
4.419600
11
8.568309
21
4.419600
72
2
10
8.568309
20
4.842891
40
0.423291
50
270.000000
51
0.000000
73
1
72
1
10
8.991600
20
4.842891
11
8.991600
21
5.520309
72
2
10
8.568309
20
5.520309
40
0.423291
50
0.000000
51
90.000000
73
1
72
1
10
8.568309
20
5.943600
11
7.890891
21
5.943600
72
2
10
7.890891
20
5.520309
40
0.423291
50
90.000000
51
180.000000
73
1
97
0
92
1
93
1
72
2
10
8.229600
20
5.181600
40
0.423291
50
0.000000
51
360.000000
73
1
97
0
75
0
76
0
98
1
10
0.0
20
0.0
0
HATCH
5
1F0
100
AcDbEntity
8
SOLDER_MASK_TOP
100
AcDbHatch
10
0.0
20
0.0
30
0.0
210
0.0
220
0.0
230
1.0
2
SOLID
70
1
71
0
91
2
92
1
93
1
72
2
10
19.913600
20
15.641600
40
0.750000
50
0.000000
51
360.000000
73
1
97
0
92
1
93
1
72
2
10
19.913600
20
15.641600
40
0.450000
50
0.000000
51
360.000000
73
1
97
0
75
0
76
0
98
1
10
0.0
20
0.0
0
HATCH
5
1F1
100
AcDbEntity
8
SOLDER_MASK_TOP
100
AcDbHatch
10
0.0
20
0.0
30
0.0
210
0.0
220
0.0
230
1.0
2
SOLID
70
1
71
0
91
2
92
1
93
4
72
1
10
20.663600
20
1.891600
11
19.163600
21
1.891600
72
1
10
19.163600
20
1.891600
11
19.163600
21
3.391600
72
1
10
19.163600
20
3.391600
11
20.663600
21
3.391600
72
1
10
20.663600
20
3.391600
11
20.663600
21
1.891600
97
0
92
1
93
1
72
2
10
19.913600
20
2.641600
40
0.450000
50
0.000000
51
360.000000
73
1
97
0
75
0
76
0
98
1
10
0.0
20
0.0
0
LWPOLYLINE
5
1F2
100
AcDbEntity
8
3D_INFO_TOP
62
1
100
AcDbPolyline
90
2
70
0
43
0.177800
39
0.177800
10
12.039600
20
22.453599
10
12.056031
20
22.077260
0
LWPOLYLINE
5
1F3
100
AcDbEntity
8
3D_INFO_TOP
62
1
100
AcDbPolyline
90
2
70
0
43
0.177800
39
0.177800
10
12.056031
20
22.077260
10
12.105200
20
21.703786
0
LWPOLYLINE
5
1F4
100
AcDbEntity
8
3D_INFO_TOP
62
1
100
AcDbPolyline
90
2
70
0
43
0.177800
39
0.177800
10
12.105200
20
21.703786
10
12.186732
20
21.336018
0
LWPOLYLINE
5
1F5
100
AcDbEntity
8
3D_INFO_TOP
62
1
100
AcDbPolyline
90
2
70
0
43
0.177800
39
0.177800
10
12.186732
20
21.336018
10
12.300007
20
20.976756
0
LWPOLYLINE
5
1F6
100
AcDbEntity
8
3D_INFO_TOP
62
1
100
AcDbPolyline
90
2
70
0
43
0.177800
39
0.177800
10
12.300007
20
20.976756
10
12.444163
20
20.628733
0
LWPOLYLINE
5
1F7
100
AcDbEntity
8
3D_INFO_TOP
62
1
100
AcDbPolyline
90
2
70
0
43
0.177800
39
0.177800
10
12.444163
20
20.628733
10
12.618102
20
20.294599
0
LWPOLYLINE
5
1F8
100
AcDbEntity
8
3D_INFO_TOP
62
1
100
AcDbPolyline
90
2
70
0
43
0.177800
39
0.177800
10
12.618102
20
20.294599
10
12.820502
20
19.976896
0
LWPOLYLINE
5
1F9
100
AcDbEntity
8
3D_INFO_TOP
62
1
100
AcDbPolyline
90
2
70
0
43
0.177800
39
0.177800
10
12.820502
20
19.976896
10
13.049820
20
19.678042
0
LWPOLYLINE
5
1FA
100
AcDbEntity
8
3D_INFO_TOP
62
1
100
AcDbPolyline
90
2
70
0
43
0.177800
39
0.177800
10
13.049820
20
19.678042
10
13.304313
20
19.400312
0
LWPOLYLINE
5
1FB
100
AcDbEntity
8
3D_INFO_TOP
62
1
100
AcDbPolyline
90
2
70
0
43
0.177800
39
0.177800
10
13.304313
20
19.400312
10
13.582043
20
19.145819
0
LWPOLYLINE
5
1FC
100
AcDbEntity
8
3D_INFO_TOP
62
1
100
AcDbPolyline
90
2
70
0
43
0.177800
39
0.177800
10
13.582043
20
19.145819
10
13.880897
20
18.916500
0
LWPOLYLINE
5
1FD
100
AcDbEntity
8
3D_INFO_TOP
62
1
100
AcDbPolyline
90
2
70
0
43
0.177800
39
0.177800
10
13.880897
20
18.916500
10
14.198600
20
18.714101
0
LWPOLYLINE
5
1FE
100
AcDbEntity
8
3D_INFO_TOP
62
1
100
AcDbPolyline
90
2
70
0
43
0.177800
39
0.177800
10
14.198600
20
18.714101
10
14.532735
20
18.540162
0
LWPOLYLINE
5
1FF
100
AcDbEntity
8
3D_INFO_TOP
62
1
100
AcDbPolyline
90
2
70
0
43
0.177800
39
0.177800
10
14.532735
20
18.540162
10
14.880757
20
18.396006
0
LWPOLYLINE
5
200
100
AcDbEntity
8
3D_INFO_TOP
62
1
100
AcDbPolyline
90
2
70
0
43
0.177800
39
0.177800
10
14.880757
20
18.396006
10
15.240020
20
18.282732
0
LWPOLYLINE
5
201
100
AcDbEntity
8
3D_INFO_TOP
62
1
100
AcDbPolyline
90
2
70
0
43
0.177800
39
0.177800
10
15.240020
20
18.282732
10
15.607788
20
18.201199
0
LWPOLYLINE
5
202
100
AcDbEntity
8
3D_INFO_TOP
62
1
100
AcDbPolyline
90
2
70
0
43
0.177800
39
0.177800
10
15.607788
20
18.201199
10
15.981262
20
18.152031
0
LWPOLYLINE
5
203
100
AcDbEntity
8
3D_INFO_TOP
62
1
100
AcDbPolyline
90
2
70
0
43
0.177800
39
0.177800
10
15.981262
20
18.152031
10
16.357600
20
18.135600
0
LWPOLYLINE
5
204
100
AcDbEntity
8
3D_INFO_TOP
62
1
100
AcDbPolyline
90
2
70
0
43
0.177800
39
0.177800
10
16.357600
20
18.135600
10
16.733939
20
18.152031
0
LWPOLYLINE
5
205
100
AcDbEntity
8
3D_INFO_TOP
62
1
100
AcDbPolyline
90
2
70
0
43
0.177800
39
0.177800
10
16.733939
20
18.152031
10
17.107413
20
18.201200
0
LWPOLYLINE
5
206
100
AcDbEntity
8
3D_INFO_TOP
62
1
100
AcDbPolyline
90
2
70
0
43
0.177800
39
0.177800
10
17.107413
20
18.201200
10
17.475181
20
18.282732
0
LWPOLYLINE
5
207
100
AcDbEntity
8
3D_INFO_TOP
62
1
100
AcDbPolyline
90
2
70
0
43
0.177800
39
0.177800
10
17.475181
20
18.282732
10
17.834443
20
18.396007
0
LWPOLYLINE
5
208
100
AcDbEntity
8
3D_INFO_TOP
62
1
100
AcDbPolyline
90
2
70
0
43
0.177800
39
0.177800
10
17.834443
20
18.396007
10
18.182466
20
18.540163
0
LWPOLYLINE
5
209
100
AcDbEntity
8
3D_INFO_TOP
62
1
100
AcDbPolyline
90
2
70
0
43
0.177800
39
0.177800
10
18.182466
20
18.540163
10
18.516600
20
18.714102
0
LWPOLYLINE
5
20A
100
AcDbEntity
8
3D_INFO_TOP
62
1
100
AcDbPolyline
90
2
70
0
43
0.177800
39
0.177800
10
18.516600
20
18.714102
10
18.834303
20
18.916502
0
LWPOLYLINE
5
20B
100
AcDbEntity
8
3D_INFO_TOP
62
1
100
AcDbPolyline
90
2
70
0
43
0.177800
39
0.177800
10
18.834303
20
18.916502
10
19.133157
20
19.145820
0
LWPOLYLINE
5
20C
100
AcDbEntity
8
3D_INFO_TOP
62
1
100
AcDbPolyline
90
2
70
0
43
0.177800
39
0.177800
10
19.133157
20
19.145820
10
19.410887
20
19.400313
0
LWPOLYLINE
5
20D
100
AcDbEntity
8
3D_INFO_TOP
62
1
100
AcDbPolyline
90
2
70
0
43
0.177800
39
0.177800
10
19.410887
20
19.400313
10
19.665380
20
19.678043
0
LWPOLYLINE
5
20E
100
AcDbEntity
8
3D_INFO_TOP
62
1
100
AcDbPolyline
90
2
70
0
43
0.177800
39
0.177800
10
19.665380
20
19.678043
10
19.894699
20
19.976897
0
LWPOLYLINE
5
20F
100
AcDbEntity
8
3D_INFO_TOP
62
1
100
AcDbPolyline
90
2
70
0
43
0.177800
39
0.177800
10
19.894699
20
19.976897
10
20.097098
20
20.294600
0
LWPOLYLINE
5
210
100
AcDbEntity
8
3D_INFO_TOP
62
1
100
AcDbPolyline
90
2
70
0
43
0.177800
39
0.177800
10
20.097098
20
20.294600
10
20.271037
20
20.628735
0
LWPOLYLINE
5
211
100
AcDbEntity
8
3D_INFO_TOP
62
1
100
AcDbPolyline
90
2
70
0
43
0.177800
39
0.177800
10
20.271037
20
20.628735
10
20.415193
20
20.976757
0
LWPOLYLINE
5
212
100
AcDbEntity
8
3D_INFO_TOP
62
1
100
AcDbPolyline
90
2
70
0
43
0.177800
39
0.177800
10
20.415193
20
20.976757
10
20.528467
20
21.336020
0
LWPOLYLINE
5
213
100
AcDbEntity
8
3D_INFO_TOP
62
1
100
AcDbPolyline
90
2
70
0
43
0.177800
39
0.177800
10
20.528467
20
21.336020
10
20.610000
20
21.703788
0
LWPOLYLINE
5
214
100
AcDbEntity
8
3D_INFO_TOP
62
1
100
AcDbPolyline
90
2
70
0
43
0.177800
39
0.177800
10
20.610000
20
21.703788
10
20.659168
20
22.077262
0
LWPOLYLINE
5
215
100
AcDbEntity
8
3D_INFO_TOP
62
1
100
AcDbPolyline
90
2
70
0
43
0.177800
39
0.177800
10
20.659168
20
22.077262
10
20.675599
20
22.453600
0
LWPOLYLINE
5
216
100
AcDbEntity
8
3D_INFO_TOP
62
1
100
AcDbPolyline
90
2
70
0
43
0.177800
39
0.177800
10
20.675599
20
22.453600
10
20.659168
20
22.829939
0
LWPOLYLINE
5
217
100
AcDbEntity
8
3D_INFO_TOP
62
1
100
AcDbPolyline
90
2
70
0
43
0.177800
39
0.177800
10
20.659168
20
22.829939
10
20.609999
20
23.203413
0
LWPOLYLINE
5
218
100
AcDbEntity
8
3D_INFO_TOP
62
1
100
AcDbPolyline
90
2
70
0
43
0.177800
39
0.177800
10
20.609999
20
23.203413
10
20.528467
20
23.571181
0
LWPOLYLINE
5
219
100
AcDbEntity
8
3D_INFO_TOP
62
1
100
AcDbPolyline
90
2
70
0
43
0.177800
39
0.177800
10
20.528467
20
23.571181
10
20.415192
20
23.930443
0
LWPOLYLINE
5
21A
100
AcDbEntity
8
3D_INFO_TOP
62
1
100
AcDbPolyline
90
2
70
0
43
0.177800
39
0.177800
10
20.415192
20
23.930443
10
20.271036
20
24.278466
0
LWPOLYLINE
5
21B
100
AcDbEntity
8
3D_INFO_TOP
62
1
100
AcDbPolyline
90
2
70
0
43
0.177800
39
0.177800
10
20.271036
20
24.278466
10
20.097097
20
24.612600
0
LWPOLYLINE
5
21C
100
AcDbEntity
8
3D_INFO_TOP
62
1
100
AcDbPolyline
90
2
70
0
43
0.177800
39
0.177800
10
20.097097
20
24.612600
10
19.894697
20
24.930303
0
LWPOLYLINE
5
21D
100
AcDbEntity
8
3D_INFO_TOP
62
1
100
AcDbPolyline
90
2
70
0
43
0.177800
39
0.177800
10
19.894697
20
24.930303
10
19.665379
20
25.229157
0
LWPOLYLINE
5
21E
100
AcDbEntity
8
3D_INFO_TOP
62
1
100
AcDbPolyline
90
2
70
0
43
0.177800
39
0.177800
10
19.665379
20
25.229157
10
19.410886
20
25.506887
0
LWPOLYLINE
5
21F
100
AcDbEntity
8
3D_INFO_TOP
62
1
100
AcDbPolyline
90
2
70
0
43
0.177800
39
0.177800
10
19.410886
20
25.506887
10
19.133156
20
25.761380
0
LWPOLYLINE
5
220
100
AcDbEntity
8
3D_INFO_TOP
62
1
100
AcDbPolyline
90
2
70
0
43
0.177800
39
0.177800
10
19.133156
20
25.761380
10
18.834302
20
25.990699
0
LWPOLYLINE
5
221
100
AcDbEntity
8
3D_INFO_TOP
62
1
100
AcDbPolyline
90
2
70
0
43
0.177800
39
0.177800
10
18.834302
20
25.990699
10
18.516599
20
26.193098
0
LWPOLYLINE
5
222
100
AcDbEntity
8
3D_INFO_TOP
62
1
100
AcDbPolyline
90
2
70
0
43
0.177800
39
0.177800
10
18.516599
20
26.193098
10
18.182464
20
26.367037
0
LWPOLYLINE
5
223
100
AcDbEntity
8
3D_INFO_TOP
62
1
100
AcDbPolyline
90
2
70
0
43
0.177800
39
0.177800
10
18.182464
20
26.367037
10
17.834442
20
26.511193
0
LWPOLYLINE
5
224
100
AcDbEntity
8
3D_INFO_TOP
62
1
100
AcDbPolyline
90
2
70
0
43
0.177800
39
0.177800
10
17.834442
20
26.511193
10
17.475179
20
26.624467
0
LWPOLYLINE
5
225
100
AcDbEntity
8
3D_INFO_TOP
62
1
100
AcDbPolyline
90
2
70
0
43
0.177800
39
0.177800
10
17.475179
20
26.624467
10
17.107411
20
26.706000
0
LWPOLYLINE
5
226
100
AcDbEntity
8
3D_INFO_TOP
62
1
100
AcDbPolyline
90
2
70
0
43
0.177800
39
0.177800
10
17.107411
20
26.706000
10
16.733937
20
26.755168
0
LWPOLYLINE
5
227
100
AcDbEntity
8
3D_INFO_TOP
62
1
100
AcDbPolyline
90
2
70
0
43
0.177800
39
0.177800
10
16.733937
20
26.755168
10
16.357599
20
26.771599
0
LWPOLYLINE
5
228
100
AcDbEntity
8
3D_INFO_TOP
62
1
100
AcDbPolyline
90
2
70
0
43
0.177800
39
0.177800
10
16.357599
20
26.771599
10
15.981260
20
26.755168
0
LWPOLYLINE
5
229
100
AcDbEntity
8
3D_INFO_TOP
62
1
100
AcDbPolyline
90
2
70
0
43
0.177800
39
0.177800
10
15.981260
20
26.755168
10
15.607786
20
26.705999
0
LWPOLYLINE
5
22A
100
AcDbEntity
8
3D_INFO_TOP
62
1
100
AcDbPolyline
90
2
70
0
43
0.177800
39
0.177800
10
15.607786
20
26.705999
10
15.240018
20
26.624467
0
LWPOLYLINE
5
22B
100
AcDbEntity
8
3D_INFO_TOP
62
1
100
AcDbPolyline
90
2
70
0
43
0.177800
39
0.177800
10
15.240018
20
26.624467
10
14.880756
20
26.511192
0
LWPOLYLINE
5
22C
100
AcDbEntity
8
3D_INFO_TOP
62
1
100
AcDbPolyline
90
2
70
0
43
0.177800
39
0.177800
10
14.880756
20
26.511192
10
14.532733
20
26.367036
0
LWPOLYLINE
5
22D
100
AcDbEntity
8
3D_INFO_TOP
62
1
100
AcDbPolyline
90
2
70
0
43
0.177800
39
0.177800
10
14.532733
20
26.367036
10
14.198599
20
26.193097
0
LWPOLYLINE
5
22E
100
AcDbEntity
8
3D_INFO_TOP
62
1
100
AcDbPolyline
90
2
70
0
43
0.177800
39
0.177800
10
14.198599
20
26.193097
10
13.880896
20
25.990697
0
LWPOLYLINE
5
22F
100
AcDbEntity
8
3D_INFO_TOP
62
1
100
AcDbPolyline
90
2
70
0
43
0.177800
39
0.177800
10
13.880896
20
25.990697
10
13.582042
20
25.761379
0
LWPOLYLINE
5
230
100
AcDbEntity
8
3D_INFO_TOP
62
1
100
AcDbPolyline
90
2
70
0
43
0.177800
39
0.177800
10
13.582042
20
25.761379
10
13.304312
20
25.506886
0
LWPOLYLINE
5
231
100
AcDbEntity
8
3D_INFO_TOP
62
1
100
AcDbPolyline
90
2
70
0
43
0.177800
39
0.177800
10
13.304312
20
25.506886
10
13.049819
20
25.229156
0
LWPOLYLINE
5
232
100
AcDbEntity
8
3D_INFO_TOP
62
1
100
AcDbPolyline
90
2
70
0
43
0.177800
39
0.177800
10
13.049819
20
25.229156
10
12.820500
20
24.930302
0
LWPOLYLINE
5
233
100
AcDbEntity
8
3D_INFO_TOP
62
1
100
AcDbPolyline
90
2
70
0
43
0.177800
39
0.177800
10
12.820500
20
24.930302
10
12.618101
20
24.612599
0
LWPOLYLINE
5
234
100
AcDbEntity
8
3D_INFO_TOP
62
1
100
AcDbPolyline
90
2
70
0
43
0.177800
39
0.177800
10
12.618101
20
24.612599
10
12.444162
20
24.278464
0
LWPOLYLINE
5
235
100
AcDbEntity
8
3D_INFO_TOP
62
1
100
AcDbPolyline
90
2
70
0
43
0.177800
39
0.177800
10
12.444162
20
24.278464
10
12.300006
20
23.930442
0
LWPOLYLINE
5
236
100
AcDbEntity
8
3D_INFO_TOP
62
1
100
AcDbPolyline
90
2
70
0
43
0.177800
39
0.177800
10
12.300006
20
23.930442
10
12.186732
20
23.571179
0
LWPOLYLINE
5
237
100
AcDbEntity
8
3D_INFO_TOP
62
1
100
AcDbPolyline
90
2
70
0
43
0.177800
39
0.177800
10
12.186732
20
23.571179
10
12.105199
20
23.203411
0
LWPOLYLINE
5
238
100
AcDbEntity
8
3D_INFO_TOP
62
1
100
AcDbPolyline
90
2
70
0
43
0.177800
39
0.177800
10
12.105199
20
23.203411
10
12.056031
20
22.829937
0
LWPOLYLINE
5
239
100
AcDbEntity
8
3D_INFO_TOP
62
1
100
AcDbPolyline
90
2
70
0
43
0.177800
39
0.177800
10
12.056031
20
22.829937
10
12.039600
20
22.453599
0
LWPOLYLINE
5
23A
100
AcDbEntity
8
3D_INFO_TOP
62
1
100
AcDbPolyline
90
2
70
0
43
0.177800
39
0.177800
10
12.039600
20
22.453599
10
12.039600
20
22.453599
0
LWPOLYLINE
5
23B
100
AcDbEntity
8
3D_INFO_TOP
62
1
100
AcDbPolyline
90
2
70
0
43
0.000001
39
0.000001
10
11.946898
20
22.791440
10
11.946898
20
22.194347
0
ARC
5
23C
100
AcDbEntity
8
3D_INFO_TOP
62
1
100
AcDbCircle
39
0.000001
10
12.147414
20
22.194347
30
0.0
40
0.200516
100
AcDbArc
50
180.000000
51
270.000000
0
ARC
5
23D
100
AcDbEntity
8
3D_INFO_TOP
62
1
100
AcDbCircle
39
0.000001
10
12.147414
20
22.194347
30
0.0
40
0.200516
100
AcDbArc
50
270.000000
51
0.000000
0
LWPOLYLINE
5
23E
100
AcDbEntity
8
3D_INFO_TOP
62
1
100
AcDbPolyline
90
2
70
0
43
0.000001
39
0.000001
10
12.347930
20
22.194347
10
12.347930
20
22.791440
0
ARC
5
23F
100
AcDbEntity
8
3D_INFO_TOP
62
1
100
AcDbCircle
39
0.000001
10
12.147414
20
22.791440
30
0.0
40
0.200516
100
AcDbArc
50
0.000000
51
90.000000
0
ARC
5
240
100
AcDbEntity
8
3D_INFO_TOP
62
1
100
AcDbCircle
39
0.000001
10
12.147414
20
22.791440
30
0.0
40
0.200516
100
AcDbArc
50
90.000000
51
180.000000
0
LWPOLYLINE
5
241
100
AcDbEntity
8
3D_INFO_TOP
62
1
100
AcDbPolyline
90
2
70
0
43
0.177800
39
0.177800
10
12.420600
20
14.071600
10
12.420600
20
3.911600
0
LWPOLYLINE
5
242
100
AcDbEntity
8
3D_INFO_TOP
62
1
100
AcDbPolyline
90
2
70
0
43
0.177800
39
0.177800
10
16.230600
20
3.911600
10
16.230600
20
14.071600
0
LWPOLYLINE
5
243
100
AcDbEntity
8
3D_INFO_TOP
62
1
100
AcDbPolyline
90
2
70
0
43
0.177800
39
0.177800
10
16.230600
20
14.071600
10
12.420600
20
14.071600
0
LWPOLYLINE
5
244
100
AcDbEntity
8
3D_INFO_TOP
62
1
100
AcDbPolyline
90
2
70
0
43
0.177800
39
0.177800
10
16.230600
20
3.911600
10
12.420600
20
3.911600
0
LWPOLYLINE
5
245
100
AcDbEntity
8
3D_INFO_TOP
62
1
100
AcDbPolyline
90
2
70
0
43
0.177800
39
0.177800
10
4.546600
20
3.911600
10
0.736600
20
3.911600
0
LWPOLYLINE
5
246
100
AcDbEntity
8
3D_INFO_TOP
62
1
100
AcDbPolyline
90
2
70
0
43
0.177800
39
0.177800
10
0.736600
20
14.071600
10
4.546600
20
14.071600
0
LWPOLYLINE
5
247
100
AcDbEntity
8
3D_INFO_TOP
62
1
100
AcDbPolyline
90
2
70
0
43
0.177800
39
0.177800
10
0.736600
20
3.911600
10
0.736600
20
14.071600
0
LWPOLYLINE
5
248
100
AcDbEntity
8
3D_INFO_TOP
62
1
100
AcDbPolyline
90
2
70
0
43
0.177800
39
0.177800
10
2.241600
20
8.981600
10
3.041600
20
8.981600
0
LWPOLYLINE
5
249
100
AcDbEntity
8
3D_INFO_TOP
62
1
100
AcDbPolyline
90
2
70
0
43
0.177800
39
0.177800
10
3.041600
20
8.981600
10
3.041600
20
7.081600
0
LWPOLYLINE
5
24A
100
AcDbEntity
8
3D_INFO_TOP
62
1
100
AcDbPolyline
90
2
70
0
43
0.177800
39
0.177800
10
3.041600
20
7.081600
10
2.241600
20
7.081600
0
LWPOLYLINE
5
24B
100
AcDbEntity
8
3D_INFO_TOP
62
1
100
AcDbPolyline
90
2
70
0
43
0.177800
39
0.177800
10
2.241600
20
7.081600
10
2.241600
20
8.981600
0
HATCH
5
24C
100
AcDbEntity
8
3D_INFO_TOP
62
1
100
AcDbHatch
10
0.0
20
0.0
30
0.0
210
0.0
220
0.0
230
1.0
2
SOLID
70
1
71
0
91
1
92
1
93
8
72
1
10
2.171700
20
10.922000
11
2.171700
21
9.017000
72
2
10
2.260600
20
9.017000
40
0.088900
50
180.000000
51
270.000000
73
1
72
1
10
2.260600
20
8.928100
11
3.048000
21
8.928100
72
2
10
3.048000
20
9.017000
40
0.088900
50
270.000000
51
0.000000
73
1
72
1
10
3.136900
20
9.017000
11
3.136900
21
10.922000
72
2
10
3.048000
20
10.922000
40
0.088900
50
0.000000
51
90.000000
73
1
72
1
10
3.048000
20
11.010900
11
2.260600
21
11.010900
72
2
10
2.260600
20
10.922000
40
0.088900
50
90.000000
51
180.000000
73
1
97
0
75
0
76
0
98
1
10
0.0
20
0.0
0
LWPOLYLINE
5
24D
100
AcDbEntity
8
3D_INFO_TOP
62
1
100
AcDbPolyline
90
2
70
0
43
0.177800
39
0.177800
10
2.171700
20
10.922000
10
2.171700
20
9.017000
0
ARC
5
24E
100
AcDbEntity
8
3D_INFO_TOP
62
1
100
AcDbCircle
39
0.177800
10
2.260600
20
9.017000
30
0.0
40
0.088900
100
AcDbArc
50
180.000000
51
270.000000
0
LWPOLYLINE
5
24F
100
AcDbEntity
8
3D_INFO_TOP
62
1
100
AcDbPolyline
90
2
70
0
43
0.177800
39
0.177800
10
2.260600
20
8.928100
10
3.048000
20
8.928100
0
ARC
5
250
100
AcDbEntity
8
3D_INFO_TOP
62
1
100
AcDbCircle
39
0.177800
10
3.048000
20
9.017000
30
0.0
40
0.088900
100
AcDbArc
50
270.000000
51
0.000000
0
LWPOLYLINE
5
251
100
AcDbEntity
8
3D_INFO_TOP
62
1
100
AcDbPolyline
90
2
70
0
43
0.177800
39
0.177800
10
3.136900
20
9.017000
10
3.136900
20
10.922000
0
ARC
5
252
100
AcDbEntity
8
3D_INFO_TOP
62
1
100
AcDbCircle
39
0.177800
10
3.048000
20
10.922000
30
0.0
40
0.088900
100
AcDbArc
50
0.000000
51
90.000000
0
LWPOLYLINE
5
253
100
AcDbEntity
8
3D_INFO_TOP
62
1
100
AcDbPolyline
90
2
70
0
43
0.177800
39
0.177800
10
3.048000
20
11.010900
10
2.260600
20
11.010900
0
ARC
5
254
100
AcDbEntity
8
3D_INFO_TOP
62
1
100
AcDbCircle
39
0.177800
10
2.260600
20
10.922000
30
0.0
40
0.088900
100
AcDbArc
50
90.000000
51
180.000000
0
LWPOLYLINE
5
255
100
AcDbEntity
8
3D_INFO_TOP
62
1
100
AcDbPolyline
90
2
70
0
43
0.177800
39
0.177800
10
4.546600
20
14.071600
10
4.546600
20
3.911600
0
LWPOLYLINE
5
256
100
AcDbEntity
8
3D_INFO_TOP
62
1
100
AcDbPolyline
90
2
70
0
43
0.203200
39
0.203200
10
2.387854
20
26.766774
10
7.467346
20
26.766774
0
LWPOLYLINE
5
257
100
AcDbEntity
8
3D_INFO_TOP
62
1
100
AcDbPolyline
90
2
70
0
43
0.203200
39
0.203200
10
7.467346
20
26.766774
10
7.467346
20
24.232362
0
LWPOLYLINE
5
258
100
AcDbEntity
8
3D_INFO_TOP
62
1
100
AcDbPolyline
90
2
70
0
43
0.203200
39
0.203200
10
7.467346
20
24.232362
10
2.387854
20
24.232362
0
LWPOLYLINE
5
259
100
AcDbEntity
8
3D_INFO_TOP
62
1
100
AcDbPolyline
90
2
70
0
43
0.203200
39
0.203200
10
2.387854
20
24.232362
10
2.387854
20
26.766774
0
LWPOLYLINE
5
25A
100
AcDbEntity
8
3D_INFO_TOP
62
1
100
AcDbPolyline
90
2
70
0
43
0.177800
39
0.177800
10
10.134600
20
3.911600
10
6.324600
20
3.911600
0
LWPOLYLINE
5
25B
100
AcDbEntity
8
3D_INFO_TOP
62
1
100
AcDbPolyline
90
2
70
0
43
0.177800
39
0.177800
10
6.324600
20
14.071600
10
10.134600
20
14.071600
0
LWPOLYLINE
5
25C
100
AcDbEntity
8
3D_INFO_TOP
62
1
100
AcDbPolyline
90
2
70
0
43
0.177800
39
0.177800
10
6.324600
20
3.911600
10
6.324600
20
14.071600
0
LWPOLYLINE
5
25D
100
AcDbEntity
8
3D_INFO_TOP
62
1
100
AcDbPolyline
90
2
70
0
43
0.177800
39
0.177800
10
7.829600
20
8.981600
10
8.629600
20
8.981600
0
LWPOLYLINE
5
25E
100
AcDbEntity
8
3D_INFO_TOP
62
1
100
AcDbPolyline
90
2
70
0
43
0.177800
39
0.177800
10
8.629600
20
8.981600
10
8.629600
20
7.081600
0
LWPOLYLINE
5
25F
100
AcDbEntity
8
3D_INFO_TOP
62
1
100
AcDbPolyline
90
2
70
0
43
0.177800
39
0.177800
10
8.629600
20
7.081600
10
7.829600
20
7.081600
0
LWPOLYLINE
5
260
100
AcDbEntity
8
3D_INFO_TOP
62
1
100
AcDbPolyline
90
2
70
0
43
0.177800
39
0.177800
10
7.829600
20
7.081600
10
7.829600
20
8.981600
0
HATCH
5
261
100
AcDbEntity
8
3D_INFO_TOP
62
1
100
AcDbHatch
10
0.0
20
0.0
30
0.0
210
0.0
220
0.0
230
1.0
2
SOLID
70
1
71
0
91
1
92
1
93
8
72
1
10
7.759700
20
10.922000
11
7.759700
21
9.017000
72
2
10
7.848600
20
9.017000
40
0.088900
50
180.000000
51
270.000000
73
1
72
1
10
7.848600
20
8.928100
11
8.636000
21
8.928100
72
2
10
8.636000
20
9.017000
40
0.088900
50
270.000000
51
0.000000
73
1
72
1
10
8.724900
20
9.017000
11
8.724900
21
10.922000
72
2
10
8.636000
20
10.922000
40
0.088900
50
0.000000
51
90.000000
73
1
72
1
10
8.636000
20
11.010900
11
7.848600
21
11.010900
72
2
10
7.848600
20
10.922000
40
0.088900
50
90.000000
51
180.000000
73
1
97
0
75
0
76
0
98
1
10
0.0
20
0.0
0
LWPOLYLINE
5
262
100
AcDbEntity
8
3D_INFO_TOP
62
1
100
AcDbPolyline
90
2
70
0
43
0.177800
39
0.177800
10
7.759700
20
10.922000
10
7.759700
20
9.017000
0
ARC
5
263
100
AcDbEntity
8
3D_INFO_TOP
62
1
100
AcDbCircle
39
0.177800
10
7.848600
20
9.017000
30
0.0
40
0.088900
100
AcDbArc
50
180.000000
51
270.000000
0
LWPOLYLINE
5
264
100
AcDbEntity
8
3D_INFO_TOP
62
1
100
AcDbPolyline
90
2
70
0
43
0.177800
39
0.177800
10
7.848600
20
8.928100
10
8.636000
20
8.928100
0
ARC
5
265
100
AcDbEntity
8
3D_INFO_TOP
62
1
100
AcDbCircle
39
0.177800
10
8.636000
20
9.017000
30
0.0
40
0.088900
100
AcDbArc
50
270.000000
51
0.000000
0
LWPOLYLINE
5
266
100
AcDbEntity
8
3D_INFO_TOP
62
1
100
AcDbPolyline
90
2
70
0
43
0.177800
39
0.177800
10
8.724900
20
9.017000
10
8.724900
20
10.922000
0
ARC
5
267
100
AcDbEntity
8
3D_INFO_TOP
62
1
100
AcDbCircle
39
0.177800
10
8.636000
20
10.922000
30
0.0
40
0.088900
100
AcDbArc
50
0.000000
51
90.000000
0
LWPOLYLINE
5
268
100
AcDbEntity
8
3D_INFO_TOP
62
1
100
AcDbPolyline
90
2
70
0
43
0.177800
39
0.177800
10
8.636000
20
11.010900
10
7.848600
20
11.010900
0
ARC
5
269
100
AcDbEntity
8
3D_INFO_TOP
62
1
100
AcDbCircle
39
0.177800
10
7.848600
20
10.922000
30
0.0
40
0.088900
100
AcDbArc
50
90.000000
51
180.000000
0
LWPOLYLINE
5
26A
100
AcDbEntity
8
3D_INFO_TOP
62
1
100
AcDbPolyline
90
2
70
0
43
0.177800
39
0.177800
10
10.134600
20
14.071600
10
10.134600
20
3.911600
0
LWPOLYLINE
5
26B
100
AcDbEntity
8
3D_INFO_TOP
62
1
100
AcDbPolyline
90
2
70
0
43
0.100000
39
0.100000
10
18.663601
20
5.641600
10
21.113600
20
5.641600
0
LWPOLYLINE
5
26C
100
AcDbEntity
8
3D_INFO_TOP
62
1
100
AcDbPolyline
90
2
70
0
43
0.100000
39
0.100000
10
21.113600
20
5.641600
10
21.113600
20
12.641600
0
LWPOLYLINE
5
26D
100
AcDbEntity
8
3D_INFO_TOP
62
1
100
AcDbPolyline
90
2
70
0
43
0.100000
39
0.100000
10
21.113600
20
12.641600
10
18.663601
20
12.641600
0
LWPOLYLINE
5
26E
100
AcDbEntity
8
3D_INFO_TOP
62
1
100
AcDbPolyline
90
2
70
0
43
0.100000
39
0.100000
10
18.663601
20
12.641600
10
18.663601
20
5.641600
0
ENDSEC
0
SECTION
2
OBJECTS
0
DICTIONARY
5
26F
100
AcDbDictionary
3
ACAD_GROUP
350
270
3
ACAD_LAYOUT
350
271
3
ACAD_MLINESTYLE
350
272
0
DICTIONARY
5
270
100
AcDbDictionary
0
DICTIONARY
5
271
100
AcDbDictionary
0
DICTIONARY
5
272
100
AcDbDictionary
3
STANDARD
350
273
0
MLINESTYLE
5
273
100
AcDbMlineStyle
2
Standard
70
0
3

62
256
51
90.0
52
90.0
71
2
49
0.5
62
256
6
BYLAYER
49
-0.5
62
256
6
BYLAYER
0
ENDSEC
0
EOF
