G04 Generated by Ultiboard 14.3 *
%FSLAX34Y34*%
%MOMM*%

%ADD10C,0.0001*%
%ADD11C,0.1778*%
%ADD12C,0.0010*%
%ADD13C,0.2032*%
%ADD14C,0.1000*%
%ADD15C,0.1270*%


G04 ColorRGB 0000FF for the following layer *
%LN3D-Info Top*%
%LPD*%
G54D10*
G54D11*
X-120396Y224536D02*
X-120560Y220773D01*
X-121052Y217038D01*
X-121867Y213360D01*
X-123000Y209768D01*
X-124442Y206287D01*
X-126181Y202946D01*
X-128205Y199769D01*
X-130498Y196780D01*
X-133043Y194003D01*
X-135820Y191458D01*
X-138809Y189165D01*
X-141986Y187141D01*
X-145327Y185402D01*
X-148808Y183960D01*
X-152400Y182827D01*
X-156078Y182012D01*
X-159813Y181520D01*
X-163576Y181356D01*
X-167339Y181520D01*
X-171074Y182012D01*
X-174752Y182827D01*
X-178344Y183960D01*
X-181825Y185402D01*
X-185166Y187141D01*
X-188343Y189165D01*
X-191332Y191458D01*
X-194109Y194003D01*
X-196654Y196780D01*
X-198947Y199769D01*
X-200971Y202946D01*
X-202710Y206287D01*
X-204152Y209768D01*
X-205285Y213360D01*
X-206100Y217038D01*
X-206592Y220773D01*
X-206756Y224536D01*
X-206592Y228299D01*
X-206100Y232034D01*
X-205285Y235712D01*
X-204152Y239304D01*
X-202710Y242785D01*
X-200971Y246126D01*
X-198947Y249303D01*
X-196654Y252292D01*
X-194109Y255069D01*
X-191332Y257614D01*
X-188343Y259907D01*
X-185166Y261931D01*
X-181825Y263670D01*
X-178344Y265112D01*
X-174752Y266245D01*
X-171074Y267060D01*
X-167339Y267552D01*
X-163576Y267716D01*
X-159813Y267552D01*
X-156078Y267060D01*
X-152400Y266245D01*
X-148808Y265112D01*
X-145327Y263670D01*
X-141986Y261931D01*
X-138809Y259907D01*
X-135820Y257614D01*
X-133043Y255069D01*
X-130498Y252292D01*
X-128205Y249303D01*
X-126181Y246126D01*
X-124442Y242785D01*
X-123000Y239304D01*
X-121867Y235712D01*
X-121052Y232034D01*
X-120560Y228299D01*
X-120396Y224536D01*
X-124206Y140716D02*
X-124206Y39116D01*
X-162306Y39116D02*
X-162306Y140716D01*
X-124206Y140716D01*
X-162306Y39116D02*
X-124206Y39116D01*
X-45466Y39116D02*
X-7366Y39116D01*
X-7366Y140716D02*
X-45466Y140716D01*
X-7366Y39116D02*
X-7366Y140716D01*
X-22416Y89816D02*
X-30416Y89816D01*
X-30416Y70816D01*
X-22416Y70816D01*
X-22416Y89816D01*
G36*
X-22606Y90170D02*
X-22606Y109220D01*
X-30480Y109220D01*
X-30480Y90170D01*
X-22606Y90170D01*
G37*
X-45466Y140716D02*
X-45466Y39116D01*
X-101346Y39116D02*
X-63246Y39116D01*
X-63246Y140716D02*
X-101346Y140716D01*
X-63246Y39116D02*
X-63246Y140716D01*
X-78296Y89816D02*
X-86296Y89816D01*
X-86296Y70816D01*
X-78296Y70816D01*
X-78296Y89816D01*
G36*
X-78486Y90170D02*
X-78486Y109220D01*
X-86360Y109220D01*
X-86360Y90170D01*
X-78486Y90170D01*
G37*
X-101346Y140716D02*
X-101346Y39116D01*
G54D12*
X-119469Y227914D02*
X-119469Y221943D01*
G75*
D01*
G02X-121474Y219938I-2005J0*
G01*
G75*
D01*
G02X-123479Y221943I0J2005*
G01*
X-123479Y227914D01*
G75*
D01*
G02X-121474Y229920I2005J0*
G01*
G74*
D01*
G02X-119469Y227914I0J2006*
G01*
X33020Y-12980D02*
X-266980Y-12980D01*
X-266980Y287020D01*
X33020Y287020D01*
X33020Y-12980D01*
G54D13*
X-23879Y267668D02*
X-74673Y267668D01*
X-74673Y242324D01*
X-23879Y242324D01*
X-23879Y267668D01*
G54D14*
X-186636Y56416D02*
X-211136Y56416D01*
X-211136Y126416D01*
X-186636Y126416D01*
X-186636Y56416D01*
G54D15*
X35560Y-15520D02*
X35560Y14988D01*
X35560Y-15520D02*
X5052Y-15520D01*
X-269520Y-15520D02*
X-239012Y-15520D01*
X-269520Y-15520D02*
X-269520Y14988D01*
X-269520Y289560D02*
X-269520Y259052D01*
X-269520Y289560D02*
X-239012Y289560D01*
X35560Y289560D02*
X5052Y289560D01*
X35560Y289560D02*
X35560Y259052D01*
X85560Y-15520D02*
X185560Y-15520D01*
X135560Y-65520D02*
X135560Y34480D01*
X173060Y-15520D02*
G75*
D01*
G02X173060Y-15520I-37500J0*
G01*
X-319520Y-15520D02*
X-419520Y-15520D01*
X-369520Y-65520D02*
X-369520Y34480D01*
X-332020Y-15520D02*
G75*
D01*
G02X-332020Y-15520I-37500J0*
G01*
X-357020Y-15520D02*
G75*
D01*
G02X-357020Y-15520I-12500J0*
G01*
X85560Y289560D02*
X185560Y289560D01*
X135560Y239560D02*
X135560Y339560D01*
X173060Y289560D02*
G75*
D01*
G02X173060Y289560I-37500J0*
G01*
X160560Y289560D02*
G75*
D01*
G02X160560Y289560I-25000J0*
G01*
X148060Y289560D02*
G75*
D01*
G02X148060Y289560I-12500J0*
G01*
X35560Y-15520D02*
X35560Y14988D01*
X35560Y-15520D02*
X5052Y-15520D01*
X-269520Y-15520D02*
X-239012Y-15520D01*
X-269520Y-15520D02*
X-269520Y14988D01*
X-269520Y289560D02*
X-269520Y259052D01*
X-269520Y289560D02*
X-239012Y289560D01*
X35560Y289560D02*
X5052Y289560D01*
X35560Y289560D02*
X35560Y259052D01*
X85560Y-15520D02*
X185560Y-15520D01*
X135560Y-65520D02*
X135560Y34480D01*
X173060Y-15520D02*
G75*
D01*
G02X173060Y-15520I-37500J0*
G01*
X-319520Y-15520D02*
X-419520Y-15520D01*
X-369520Y-65520D02*
X-369520Y34480D01*
X-332020Y-15520D02*
G75*
D01*
G02X-332020Y-15520I-37500J0*
G01*
X-357020Y-15520D02*
G75*
D01*
G02X-357020Y-15520I-12500J0*
G01*
X85560Y289560D02*
X185560Y289560D01*
X135560Y239560D02*
X135560Y339560D01*
X173060Y289560D02*
G75*
D01*
G02X173060Y289560I-37500J0*
G01*
X160560Y289560D02*
G75*
D01*
G02X160560Y289560I-25000J0*
G01*
X148060Y289560D02*
G75*
D01*
G02X148060Y289560I-12500J0*
G01*

M02*
