G04 Generated by Ultiboard 14.3 *
%FSLAX34Y34*%
%MOMM*%

%ADD10C,0.0001*%
%ADD11C,0.2032*%
%ADD12C,0.1000*%
%ADD13C,0.1270*%


G04 ColorRGB FFFF00 for the following layer *
%LNSilkscreen Top*%
%LPD*%
G54D10*
G54D11*
X216100Y224254D02*
X217611Y221432D01*
X217611Y218609D01*
X216100Y215787D01*
X211564Y215787D01*
X210052Y218609D01*
X210052Y221432D01*
X211564Y224254D01*
X211564Y229898D02*
X210052Y232720D01*
X217611Y232720D01*
X217611Y228487D02*
X217611Y236954D01*
X120396Y224536D02*
X120560Y220773D01*
X121052Y217038D01*
X121867Y213360D01*
X123000Y209768D01*
X124442Y206287D01*
X126181Y202946D01*
X128205Y199769D01*
X130498Y196780D01*
X133043Y194003D01*
X135820Y191458D01*
X138809Y189165D01*
X141986Y187141D01*
X145327Y185402D01*
X148808Y183960D01*
X152400Y182827D01*
X156078Y182012D01*
X159813Y181520D01*
X163576Y181356D01*
X167339Y181520D01*
X171074Y182012D01*
X174752Y182827D01*
X178344Y183960D01*
X181825Y185402D01*
X185166Y187141D01*
X188343Y189165D01*
X191332Y191458D01*
X194109Y194003D01*
X196654Y196780D01*
X198947Y199769D01*
X200971Y202946D01*
X202710Y206287D01*
X204152Y209768D01*
X205285Y213360D01*
X206100Y217038D01*
X206592Y220773D01*
X206756Y224536D01*
X206592Y228299D01*
X206100Y232034D01*
X205285Y235712D01*
X204152Y239304D01*
X202710Y242785D01*
X200971Y246126D01*
X198947Y249303D01*
X196654Y252292D01*
X194109Y255069D01*
X191332Y257614D01*
X188343Y259907D01*
X185166Y261931D01*
X181825Y263670D01*
X178344Y265112D01*
X174752Y266245D01*
X171074Y267060D01*
X167339Y267552D01*
X163576Y267716D01*
X159813Y267552D01*
X156078Y267060D01*
X152400Y266245D01*
X148808Y265112D01*
X145327Y263670D01*
X141986Y261931D01*
X138809Y259907D01*
X135820Y257614D01*
X133043Y255069D01*
X130498Y252292D01*
X128205Y249303D01*
X126181Y246126D01*
X124442Y242785D01*
X123000Y239304D01*
X121867Y235712D01*
X121052Y232034D01*
X120560Y228299D01*
X120396Y224536D01*
X196596Y229616D02*
X196596Y239776D01*
X191516Y234696D02*
X201676Y234696D01*
X117184Y139152D02*
X109624Y139152D01*
X109624Y130686D01*
X115672Y125041D02*
X117184Y122219D01*
X109624Y122219D01*
X109624Y126452D02*
X109624Y117986D01*
X124206Y140716D02*
X124206Y39116D01*
X162306Y39116D02*
X162306Y140716D01*
X124206Y140716D01*
X162306Y39116D02*
X124206Y39116D01*
X15127Y151904D02*
X17949Y150392D01*
X20772Y150392D01*
X23594Y151904D01*
X15127Y156440D01*
X17949Y157952D01*
X20772Y157952D01*
X23594Y156440D01*
X29238Y156440D02*
X32060Y157952D01*
X32060Y150392D01*
X27827Y150392D02*
X36294Y150392D01*
X45466Y39116D02*
X7366Y39116D01*
X7366Y140716D02*
X45466Y140716D01*
X7366Y39116D02*
X7366Y140716D01*
X22606Y108966D02*
X22606Y70866D01*
X30226Y70866D02*
X30226Y108966D01*
X22606Y70866D02*
X30226Y70866D01*
X9482Y104733D02*
X9490Y104549D01*
X9514Y104365D01*
X9554Y104185D01*
X9610Y104009D01*
X9681Y103838D01*
X9766Y103675D01*
X9865Y103519D01*
X9978Y103372D01*
X10102Y103236D01*
X10238Y103112D01*
X10385Y102999D01*
X10541Y102900D01*
X10704Y102815D01*
X10875Y102744D01*
X11051Y102688D01*
X11231Y102648D01*
X11415Y102624D01*
X11599Y102616D01*
X11783Y102624D01*
X11967Y102648D01*
X12147Y102688D01*
X12323Y102744D01*
X12494Y102815D01*
X12657Y102900D01*
X12813Y102999D01*
X12960Y103112D01*
X13096Y103236D01*
X13220Y103372D01*
X13333Y103519D01*
X13432Y103675D01*
X13517Y103838D01*
X13588Y104009D01*
X13644Y104185D01*
X13684Y104365D01*
X13708Y104549D01*
X13716Y104733D01*
X13716Y108966D02*
X13708Y109150D01*
X13684Y109334D01*
X13644Y109514D01*
X13588Y109690D01*
X13517Y109861D01*
X13432Y110024D01*
X13333Y110180D01*
X13220Y110327D01*
X13096Y110463D01*
X12960Y110587D01*
X12813Y110700D01*
X12657Y110799D01*
X12494Y110884D01*
X12323Y110955D01*
X12147Y111011D01*
X11967Y111051D01*
X11783Y111075D01*
X11599Y111083D01*
X11415Y111075D01*
X11231Y111051D01*
X11051Y111011D01*
X10875Y110955D01*
X10704Y110884D01*
X10541Y110799D01*
X10385Y110700D01*
X10238Y110587D01*
X10102Y110463D01*
X9978Y110327D01*
X9865Y110180D01*
X9766Y110024D01*
X9681Y109861D01*
X9610Y109690D01*
X9554Y109514D01*
X9514Y109334D01*
X9490Y109150D01*
X9482Y108966D01*
X9483Y108966D02*
X9483Y104733D01*
X13716Y104733D02*
X13716Y108966D01*
X23876Y91186D02*
X23876Y107696D01*
X25146Y91186D02*
X25146Y106426D01*
X22606Y89916D02*
X30226Y89916D01*
X28956Y91186D02*
X26416Y91186D01*
X25146Y91186D01*
X28956Y92456D02*
X28956Y91186D01*
X28956Y107696D02*
X28956Y92456D01*
X26416Y92456D02*
X26416Y105156D01*
X27686Y106426D02*
X27686Y92456D01*
X26416Y92456D01*
X20066Y102616D02*
X15833Y111083D01*
X15833Y102616D01*
X20066Y111083D02*
X20066Y102616D01*
X30226Y108966D02*
X22606Y108966D01*
X23876Y107696D02*
X28956Y107696D01*
X25146Y106426D02*
X27686Y106426D01*
X45466Y140716D02*
X45466Y39116D01*
X25287Y232972D02*
X28109Y231461D01*
X30932Y231461D01*
X33754Y232972D01*
X33754Y239020D01*
X39398Y237508D02*
X42220Y239020D01*
X42220Y231461D01*
X37987Y231461D02*
X46454Y231461D01*
X74676Y242316D02*
X23876Y242316D01*
X42926Y267716D02*
X23876Y267716D01*
X23876Y242316D01*
X74676Y267716D02*
X51393Y267716D01*
X47159Y267716D02*
X47159Y259249D01*
X45043Y265599D02*
X47159Y267716D01*
X74676Y267716D02*
X74676Y242316D01*
X71007Y151904D02*
X73829Y150392D01*
X76652Y150392D01*
X79474Y151904D01*
X71007Y156440D01*
X73829Y157952D01*
X76652Y157952D01*
X79474Y156440D01*
X83707Y156440D02*
X86529Y157952D01*
X89352Y157952D01*
X92174Y156440D01*
X92174Y155684D01*
X83707Y150392D01*
X92174Y150392D01*
X92174Y151148D01*
X101346Y39116D02*
X63246Y39116D01*
X63246Y140716D02*
X101346Y140716D01*
X63246Y39116D02*
X63246Y140716D01*
X78486Y108966D02*
X78486Y70866D01*
X86106Y70866D02*
X86106Y108966D01*
X78486Y70866D02*
X86106Y70866D01*
X65362Y104733D02*
X65370Y104549D01*
X65394Y104365D01*
X65434Y104185D01*
X65490Y104009D01*
X65561Y103838D01*
X65646Y103675D01*
X65745Y103519D01*
X65858Y103372D01*
X65982Y103236D01*
X66118Y103112D01*
X66265Y102999D01*
X66421Y102900D01*
X66584Y102815D01*
X66755Y102744D01*
X66931Y102688D01*
X67111Y102648D01*
X67295Y102624D01*
X67479Y102616D01*
X67663Y102624D01*
X67847Y102648D01*
X68027Y102688D01*
X68203Y102744D01*
X68374Y102815D01*
X68537Y102900D01*
X68693Y102999D01*
X68840Y103112D01*
X68976Y103236D01*
X69100Y103372D01*
X69213Y103519D01*
X69312Y103675D01*
X69397Y103838D01*
X69468Y104009D01*
X69524Y104185D01*
X69564Y104365D01*
X69588Y104549D01*
X69596Y104733D01*
X69596Y108966D02*
X69588Y109150D01*
X69564Y109334D01*
X69524Y109514D01*
X69468Y109690D01*
X69397Y109861D01*
X69312Y110024D01*
X69213Y110180D01*
X69100Y110327D01*
X68976Y110463D01*
X68840Y110587D01*
X68693Y110700D01*
X68537Y110799D01*
X68374Y110884D01*
X68203Y110955D01*
X68027Y111011D01*
X67847Y111051D01*
X67663Y111075D01*
X67479Y111083D01*
X67295Y111075D01*
X67111Y111051D01*
X66931Y111011D01*
X66755Y110955D01*
X66584Y110884D01*
X66421Y110799D01*
X66265Y110700D01*
X66118Y110587D01*
X65982Y110463D01*
X65858Y110327D01*
X65745Y110180D01*
X65646Y110024D01*
X65561Y109861D01*
X65490Y109690D01*
X65434Y109514D01*
X65394Y109334D01*
X65370Y109150D01*
X65362Y108966D01*
X65363Y108966D02*
X65363Y104733D01*
X69596Y104733D02*
X69596Y108966D01*
X79756Y91186D02*
X79756Y107696D01*
X81026Y91186D02*
X81026Y106426D01*
X78486Y89916D02*
X86106Y89916D01*
X84836Y91186D02*
X82296Y91186D01*
X81026Y91186D01*
X84836Y92456D02*
X84836Y91186D01*
X84836Y107696D02*
X84836Y92456D01*
X82296Y92456D02*
X82296Y105156D01*
X83566Y106426D02*
X83566Y92456D01*
X82296Y92456D01*
X75946Y102616D02*
X71713Y111083D01*
X71713Y102616D01*
X75946Y111083D02*
X75946Y102616D01*
X86106Y108966D02*
X78486Y108966D01*
X79756Y107696D02*
X84836Y107696D01*
X81026Y106426D02*
X83566Y106426D01*
X101346Y140716D02*
X101346Y39116D01*
X230136Y82412D02*
X220136Y82412D01*
X220136Y86394D01*
X222136Y88385D01*
X223136Y88385D01*
X225136Y86394D01*
X225136Y82412D01*
X225136Y83407D02*
X230136Y88385D01*
X222136Y92367D02*
X220136Y94358D01*
X230136Y94358D01*
X230136Y91372D02*
X230136Y97345D01*
G54D12*
X186236Y56416D02*
X211736Y56416D01*
X211736Y126416D01*
X186236Y126416D01*
X186236Y56416D01*
X199136Y40416D02*
X199136Y56416D01*
X199136Y126416D02*
X199136Y143416D01*
G54D13*
X-35560Y-15520D02*
X-35560Y14988D01*
X-35560Y-15520D02*
X-5052Y-15520D01*
X269520Y-15520D02*
X239012Y-15520D01*
X269520Y-15520D02*
X269520Y14988D01*
X269520Y289560D02*
X269520Y259052D01*
X269520Y289560D02*
X239012Y289560D01*
X-35560Y289560D02*
X-5052Y289560D01*
X-35560Y289560D02*
X-35560Y259052D01*
X-85560Y-15520D02*
X-185560Y-15520D01*
X-135560Y-65520D02*
X-135560Y34480D01*
X-173060Y-15520D02*
G75*
D01*
G02X-173060Y-15520I37500J0*
G01*
X319520Y-15520D02*
X419520Y-15520D01*
X369520Y-65520D02*
X369520Y34480D01*
X332020Y-15520D02*
G75*
D01*
G02X332020Y-15520I37500J0*
G01*
X357020Y-15520D02*
G75*
D01*
G02X357020Y-15520I12500J0*
G01*
X-85560Y289560D02*
X-185560Y289560D01*
X-135560Y239560D02*
X-135560Y339560D01*
X-173060Y289560D02*
G75*
D01*
G02X-173060Y289560I37500J0*
G01*
X-160560Y289560D02*
G75*
D01*
G02X-160560Y289560I25000J0*
G01*
X-148060Y289560D02*
G75*
D01*
G02X-148060Y289560I12500J0*
G01*

M02*
